G75*
%MOIN*%
%OFA0B0*%
%FSLAX24Y24*%
%IPPOS*%
%LPD*%
%AMOC8*
5,1,8,0,0,1.08239X$1,22.5*
%
%ADD10C,0.0000*%
%ADD11R,0.1181X0.0472*%
%ADD12R,0.0480X0.0880*%
%ADD13R,0.1417X0.0866*%
%ADD14R,0.0630X0.0709*%
%ADD15R,0.0760X0.2100*%
%ADD16R,0.0866X0.0256*%
%ADD17R,0.0709X0.0630*%
D10*
X000100Y000100D02*
X000100Y019391D01*
X037502Y019391D01*
X037502Y000100D01*
X000100Y000100D01*
D11*
X028170Y004430D03*
X028170Y005217D03*
X028170Y006005D03*
X028170Y006792D03*
X028170Y007579D03*
X028170Y008367D03*
X028170Y009154D03*
X028170Y009942D03*
X035532Y009942D03*
X035532Y009154D03*
X035532Y008367D03*
X035532Y007579D03*
X035532Y006792D03*
X035532Y006005D03*
X035532Y005217D03*
X035532Y004430D03*
D12*
X013687Y004068D03*
X012777Y004068D03*
X011867Y004068D03*
D13*
X012777Y001628D03*
D14*
X015497Y004811D03*
X016600Y004811D03*
X013437Y006380D03*
X012335Y006380D03*
X015490Y008677D03*
X016592Y008677D03*
X016603Y011919D03*
X015500Y011919D03*
X019234Y011911D03*
X020336Y011911D03*
X016594Y015838D03*
X015492Y015838D03*
X031439Y011837D03*
X032541Y011837D03*
D15*
X019235Y008682D03*
X019235Y004882D03*
D16*
X013810Y009596D03*
X012353Y009596D03*
D17*
X027265Y017659D03*
X027265Y018761D03*
X028446Y012462D03*
X028446Y011360D03*
M02*
