G75*
%MOIN*%
%OFA0B0*%
%FSLAX24Y24*%
%IPPOS*%
%LPD*%
%AMOC8*
5,1,8,0,0,1.08239X$1,22.5*
%
%ADD10C,0.0120*%
%ADD11C,0.0080*%
%ADD12C,0.0050*%
%ADD13C,0.0060*%
%ADD14C,0.0040*%
%ADD15C,0.0002*%
%ADD16C,0.0020*%
D10*
X000160Y000160D02*
X037562Y000160D01*
X037562Y019451D01*
X000160Y019451D01*
X000160Y000160D01*
D11*
X011547Y002208D02*
X014127Y002208D01*
X014127Y003608D01*
X011547Y003608D01*
X011547Y002208D01*
X022681Y001896D02*
X022681Y001796D01*
X025081Y001796D01*
X025081Y001896D01*
X028033Y004096D02*
X035789Y004096D01*
X033879Y004490D02*
X029942Y004490D01*
X029942Y005671D01*
X033879Y005671D01*
X033879Y004490D01*
X033879Y007639D02*
X031911Y007639D01*
X031911Y009608D01*
X033879Y009608D01*
X033879Y007639D01*
X035789Y010395D02*
X028033Y010395D01*
X025081Y015696D02*
X025081Y015796D01*
X024381Y015796D01*
X024379Y015752D01*
X024373Y015709D01*
X024364Y015667D01*
X024351Y015625D01*
X024334Y015585D01*
X024314Y015546D01*
X024291Y015509D01*
X024264Y015475D01*
X024235Y015442D01*
X024202Y015413D01*
X024168Y015386D01*
X024131Y015363D01*
X024092Y015343D01*
X024052Y015326D01*
X024010Y015313D01*
X023968Y015304D01*
X023925Y015298D01*
X023881Y015296D01*
X023837Y015298D01*
X023794Y015304D01*
X023752Y015313D01*
X023710Y015326D01*
X023670Y015343D01*
X023631Y015363D01*
X023594Y015386D01*
X023560Y015413D01*
X023527Y015442D01*
X023498Y015475D01*
X023471Y015509D01*
X023448Y015546D01*
X023428Y015585D01*
X023411Y015625D01*
X023398Y015667D01*
X023389Y015709D01*
X023383Y015752D01*
X023381Y015796D01*
X022681Y015796D01*
X022681Y015696D01*
X014185Y010267D02*
X013752Y010700D01*
X012099Y010700D01*
X012099Y009873D01*
X012099Y009440D02*
X012099Y008613D01*
X013752Y008613D01*
X014185Y009046D01*
X014185Y009460D01*
X014185Y009873D02*
X014185Y010267D01*
X014107Y009459D02*
X014092Y009399D01*
X014074Y009340D01*
X014051Y009282D01*
X014025Y009225D01*
X013996Y009171D01*
X013963Y009118D01*
X013927Y009067D01*
X013888Y009019D01*
X013846Y008973D01*
X013801Y008931D01*
X013754Y008890D01*
X013704Y008854D01*
X013652Y008820D01*
X013598Y008789D01*
X013542Y008762D01*
X013484Y008739D01*
X013425Y008719D01*
X013365Y008703D01*
X013305Y008691D01*
X013243Y008682D01*
X013181Y008678D01*
X013119Y008677D01*
X013057Y008680D01*
X012995Y008688D01*
X012934Y008699D01*
X012874Y008713D01*
X012815Y008732D01*
X012757Y008754D01*
X012700Y008780D01*
X012646Y008809D01*
X012593Y008842D01*
X012542Y008878D01*
X012494Y008917D01*
X012448Y008959D01*
X012405Y009004D01*
X012365Y009051D01*
X012328Y009101D01*
X012294Y009153D01*
X012264Y009207D01*
X012237Y009263D01*
X012213Y009321D01*
X012193Y009380D01*
X012177Y009440D01*
X012177Y009873D02*
X012192Y009932D01*
X012210Y009989D01*
X012232Y010046D01*
X012257Y010101D01*
X012286Y010154D01*
X012318Y010206D01*
X012353Y010255D01*
X012391Y010302D01*
X012432Y010347D01*
X012476Y010389D01*
X012522Y010428D01*
X012570Y010464D01*
X012621Y010498D01*
X012674Y010528D01*
X012728Y010554D01*
X012784Y010578D01*
X012841Y010597D01*
X012900Y010613D01*
X012959Y010626D01*
X013019Y010635D01*
X013079Y010640D01*
X013140Y010641D01*
X013201Y010638D01*
X013261Y010632D01*
X013321Y010622D01*
X013380Y010608D01*
X013438Y010591D01*
X013495Y010570D01*
X013550Y010546D01*
X013604Y010518D01*
X013656Y010487D01*
X013706Y010453D01*
X013754Y010415D01*
X013799Y010375D01*
X013842Y010332D01*
X013882Y010287D01*
X013919Y010239D01*
X013953Y010189D01*
X013984Y010137D01*
X014011Y010083D01*
X014036Y010027D01*
X014056Y009970D01*
X014073Y009912D01*
X014087Y009853D01*
D12*
X017683Y007577D02*
X017984Y007277D01*
X017984Y007577D01*
X017683Y007577D02*
X017683Y007277D01*
X017758Y007117D02*
X017758Y006816D01*
X017533Y006816D02*
X017984Y006816D01*
X017984Y006656D02*
X017533Y006656D01*
X017683Y006506D01*
X017533Y006356D01*
X017984Y006356D01*
X017908Y006196D02*
X017833Y006196D01*
X017758Y006121D01*
X017758Y005896D01*
X017908Y005896D01*
X017984Y005971D01*
X017984Y006121D01*
X017908Y006196D01*
X017608Y006046D02*
X017758Y005896D01*
X017608Y006046D02*
X017533Y006196D01*
X017984Y005735D02*
X017984Y005435D01*
X017984Y005585D02*
X017533Y005585D01*
X017683Y005435D01*
X017533Y007117D02*
X017984Y007117D01*
X023695Y008149D02*
X023846Y008299D01*
X024146Y008299D01*
X023921Y008299D02*
X023921Y007999D01*
X023846Y007999D02*
X023695Y008149D01*
X023846Y007999D02*
X024146Y007999D01*
X024146Y008609D02*
X023695Y008609D01*
X023695Y008459D02*
X023695Y008759D01*
X023695Y008919D02*
X023846Y009070D01*
X023695Y009220D01*
X024146Y009220D01*
X024146Y009380D02*
X024146Y009680D01*
X024071Y009840D02*
X024146Y009915D01*
X024146Y010065D01*
X024071Y010141D01*
X023921Y010141D01*
X023921Y009990D01*
X023770Y009840D02*
X024071Y009840D01*
X023770Y009840D02*
X023695Y009915D01*
X023695Y010065D01*
X023770Y010141D01*
X023846Y010301D02*
X023695Y010451D01*
X023846Y010601D01*
X024146Y010601D01*
X024071Y010761D02*
X024146Y010836D01*
X024146Y010986D01*
X024071Y011061D01*
X023996Y011061D01*
X023921Y010986D01*
X023921Y010911D01*
X023921Y010986D02*
X023846Y011061D01*
X023770Y011061D01*
X023695Y010986D01*
X023695Y010836D01*
X023770Y010761D01*
X023921Y010601D02*
X023921Y010301D01*
X023846Y010301D02*
X024146Y010301D01*
X023695Y009680D02*
X023695Y009380D01*
X024146Y009380D01*
X023921Y009380D02*
X023921Y009530D01*
X024146Y008919D02*
X023695Y008919D01*
X023770Y011221D02*
X023695Y011297D01*
X023695Y011447D01*
X023770Y011522D01*
X023846Y011522D01*
X024146Y011221D01*
X024146Y011522D01*
X024071Y011682D02*
X023996Y011682D01*
X023921Y011757D01*
X023921Y011907D01*
X023996Y011982D01*
X024071Y011982D01*
X024146Y011907D01*
X024146Y011757D01*
X024071Y011682D01*
X023921Y011757D02*
X023846Y011682D01*
X023770Y011682D01*
X023695Y011757D01*
X023695Y011907D01*
X023770Y011982D01*
X023846Y011982D01*
X023921Y011907D01*
X023996Y012142D02*
X023996Y012367D01*
X023921Y012442D01*
X023770Y012442D01*
X023695Y012367D01*
X023695Y012142D01*
X024146Y012142D01*
X024221Y012603D02*
X024221Y012903D01*
X024146Y013063D02*
X023695Y013063D01*
X023695Y013288D01*
X023770Y013363D01*
X023921Y013363D01*
X023996Y013288D01*
X023996Y013063D01*
X024146Y013523D02*
X023695Y013523D01*
X023695Y013749D01*
X023770Y013824D01*
X024071Y013824D01*
X024146Y013749D01*
X024146Y013523D01*
X024146Y013984D02*
X024146Y014134D01*
X024146Y014059D02*
X023695Y014059D01*
X023695Y013984D02*
X023695Y014134D01*
X023695Y014291D02*
X023695Y014516D01*
X023770Y014591D01*
X023921Y014591D01*
X023996Y014516D01*
X023996Y014291D01*
X024146Y014291D02*
X023695Y014291D01*
X006164Y002256D02*
X006164Y001805D01*
X006014Y001805D02*
X006314Y001805D01*
X006014Y002106D02*
X006164Y002256D01*
X005853Y002256D02*
X005553Y002256D01*
X005553Y001805D01*
X005553Y002031D02*
X005703Y002031D01*
X007209Y000986D02*
X007209Y000761D01*
X007360Y000836D01*
X007435Y000836D01*
X007510Y000761D01*
X007510Y000610D01*
X007435Y000535D01*
X007284Y000535D01*
X007209Y000610D01*
X007670Y000610D02*
X007745Y000535D01*
X007895Y000535D01*
X007970Y000610D01*
X007970Y000911D01*
X007670Y000610D01*
X007670Y000911D01*
X007745Y000986D01*
X007895Y000986D01*
X007970Y000911D01*
X008130Y000911D02*
X008205Y000986D01*
X008355Y000986D01*
X008430Y000911D01*
X008130Y000610D01*
X008205Y000535D01*
X008355Y000535D01*
X008430Y000610D01*
X008430Y000911D01*
X008591Y000836D02*
X008666Y000836D01*
X008741Y000761D01*
X008816Y000836D01*
X008891Y000761D01*
X008891Y000535D01*
X008741Y000535D02*
X008741Y000761D01*
X008591Y000836D02*
X008591Y000535D01*
X009051Y000535D02*
X009051Y000836D01*
X009201Y000986D01*
X009351Y000836D01*
X009351Y000535D01*
X009351Y000761D02*
X009051Y000761D01*
X008130Y000610D02*
X008130Y000911D01*
X007510Y000986D02*
X007209Y000986D01*
D13*
X006647Y001210D02*
X009547Y001210D01*
X009577Y001212D01*
X009607Y001217D01*
X009636Y001226D01*
X009663Y001239D01*
X009689Y001254D01*
X009713Y001273D01*
X009734Y001294D01*
X009753Y001318D01*
X009768Y001344D01*
X009781Y001371D01*
X009790Y001400D01*
X009795Y001430D01*
X009797Y001460D01*
X009797Y002560D01*
X009795Y002590D01*
X009790Y002620D01*
X009781Y002649D01*
X009768Y002676D01*
X009753Y002702D01*
X009734Y002726D01*
X009713Y002747D01*
X009689Y002766D01*
X009663Y002781D01*
X009636Y002794D01*
X009607Y002803D01*
X009577Y002808D01*
X009547Y002810D01*
X006647Y002810D01*
X006617Y002808D01*
X006587Y002803D01*
X006558Y002794D01*
X006531Y002781D01*
X006505Y002766D01*
X006481Y002747D01*
X006460Y002726D01*
X006441Y002702D01*
X006426Y002676D01*
X006413Y002649D01*
X006404Y002620D01*
X006399Y002590D01*
X006397Y002560D01*
X006397Y001460D01*
X006399Y001430D01*
X006404Y001400D01*
X006413Y001371D01*
X006426Y001344D01*
X006441Y001318D01*
X006460Y001294D01*
X006481Y001273D01*
X006505Y001254D01*
X006531Y001239D01*
X006558Y001226D01*
X006587Y001217D01*
X006617Y001212D01*
X006647Y001210D01*
X018345Y004692D02*
X018345Y008992D01*
X018347Y009009D01*
X018351Y009026D01*
X018358Y009042D01*
X018368Y009056D01*
X018381Y009069D01*
X018395Y009079D01*
X018411Y009086D01*
X018428Y009090D01*
X018445Y009092D01*
X018845Y009092D01*
X019745Y009092D02*
X020145Y009092D01*
X020162Y009090D01*
X020179Y009086D01*
X020195Y009079D01*
X020209Y009069D01*
X020222Y009056D01*
X020232Y009042D01*
X020239Y009026D01*
X020243Y009009D01*
X020245Y008992D01*
X020245Y004692D01*
X020243Y004675D01*
X020239Y004658D01*
X020232Y004642D01*
X020222Y004628D01*
X020209Y004615D01*
X020195Y004605D01*
X020179Y004598D01*
X020162Y004594D01*
X020145Y004592D01*
X019745Y004592D01*
X018845Y004592D02*
X018445Y004592D01*
X018428Y004594D01*
X018411Y004598D01*
X018395Y004605D01*
X018381Y004615D01*
X018368Y004628D01*
X018358Y004642D01*
X018351Y004658D01*
X018347Y004675D01*
X018345Y004692D01*
X019045Y006592D02*
X019295Y006592D01*
X019545Y006592D01*
X019545Y006742D02*
X019045Y006742D01*
X019045Y006942D01*
X019545Y006942D01*
X019545Y006742D01*
X019545Y007092D02*
X019295Y007092D01*
X019045Y007092D01*
X034230Y004569D02*
X034377Y004716D01*
X034377Y004276D01*
X034230Y004276D02*
X034524Y004276D01*
D14*
X034426Y010703D02*
X034426Y011163D01*
X034580Y011010D01*
X034733Y011163D01*
X034733Y010703D01*
X034887Y010779D02*
X034963Y010703D01*
X035117Y010703D01*
X035194Y010779D01*
X035194Y010856D01*
X035117Y010933D01*
X034887Y010933D01*
X034887Y010779D01*
X034887Y010933D02*
X035040Y011086D01*
X035194Y011163D01*
X035347Y011086D02*
X035347Y011010D01*
X035424Y010933D01*
X035654Y010933D01*
X035654Y011086D02*
X035654Y010779D01*
X035577Y010703D01*
X035424Y010703D01*
X035347Y010779D01*
X035808Y010703D02*
X035808Y011163D01*
X035654Y011086D02*
X035577Y011163D01*
X035424Y011163D01*
X035347Y011086D01*
X035808Y010933D02*
X036114Y010933D01*
X036114Y011163D02*
X036114Y010703D01*
X036268Y010703D02*
X036421Y010856D01*
X036575Y010703D01*
X036575Y011163D01*
X036268Y011163D02*
X036268Y010703D01*
X034273Y011163D02*
X033966Y011163D01*
X033966Y010703D01*
X033813Y010703D02*
X033659Y010856D01*
X033736Y010856D02*
X033506Y010856D01*
X033506Y010703D02*
X033506Y011163D01*
X033736Y011163D01*
X033813Y011086D01*
X033813Y010933D01*
X033736Y010856D01*
X033966Y010933D02*
X034119Y010933D01*
X032754Y012467D02*
X032754Y012988D01*
X033101Y012988D01*
X032585Y012814D02*
X032585Y012467D01*
X032325Y012467D01*
X032238Y012554D01*
X032238Y012814D01*
X031896Y012988D02*
X031896Y012467D01*
X031723Y012467D02*
X032070Y012467D01*
X032754Y012728D02*
X032928Y012728D01*
X031896Y012988D02*
X031723Y012814D01*
X031552Y012554D02*
X031552Y012467D01*
X031465Y012467D01*
X031465Y012554D01*
X031552Y012554D01*
X031296Y012554D02*
X031210Y012467D01*
X031036Y012467D01*
X030949Y012554D01*
X031296Y012901D01*
X031296Y012554D01*
X030949Y012554D02*
X030949Y012901D01*
X031036Y012988D01*
X031210Y012988D01*
X031296Y012901D01*
X027946Y012632D02*
X027426Y012632D01*
X027426Y012979D01*
X027686Y012805D02*
X027686Y012632D01*
X027599Y012463D02*
X027946Y012463D01*
X027946Y012203D01*
X027860Y012116D01*
X027599Y012116D01*
X027426Y011774D02*
X027946Y011774D01*
X027946Y011947D02*
X027946Y011600D01*
X027946Y011429D02*
X027860Y011429D01*
X027860Y011343D01*
X027946Y011343D01*
X027946Y011429D01*
X027599Y011600D02*
X027426Y011774D01*
X027513Y011174D02*
X027860Y010827D01*
X027946Y010914D01*
X027946Y011087D01*
X027860Y011174D01*
X027513Y011174D01*
X027426Y011087D01*
X027426Y010914D01*
X027513Y010827D01*
X027860Y010827D01*
X020986Y011381D02*
X020639Y011381D01*
X020639Y010861D01*
X020471Y010861D02*
X020471Y011208D01*
X020639Y011121D02*
X020813Y011121D01*
X020471Y010861D02*
X020210Y010861D01*
X020124Y010948D01*
X020124Y011208D01*
X019782Y011381D02*
X019782Y010861D01*
X019955Y010861D02*
X019608Y010861D01*
X019437Y010861D02*
X019350Y010861D01*
X019350Y010948D01*
X019437Y010948D01*
X019437Y010861D01*
X019182Y010948D02*
X019095Y010861D01*
X018921Y010861D01*
X018835Y010948D01*
X019182Y011295D01*
X019182Y010948D01*
X018835Y010948D02*
X018835Y011295D01*
X018921Y011381D01*
X019095Y011381D01*
X019182Y011295D01*
X019608Y011208D02*
X019782Y011381D01*
X016833Y011246D02*
X016573Y011073D01*
X016833Y010899D01*
X016573Y010899D02*
X016573Y011420D01*
X016404Y011333D02*
X016317Y011420D01*
X016144Y011420D01*
X016057Y011333D01*
X016057Y010986D01*
X016404Y011333D01*
X016404Y010986D01*
X016317Y010899D01*
X016144Y010899D01*
X016057Y010986D01*
X015888Y010899D02*
X015541Y010899D01*
X015715Y010899D02*
X015715Y011420D01*
X015541Y011246D01*
X014236Y011417D02*
X013889Y011417D01*
X013889Y010897D01*
X013720Y010897D02*
X013720Y011244D01*
X013889Y011157D02*
X014063Y011157D01*
X013720Y010897D02*
X013460Y010897D01*
X013373Y010984D01*
X013373Y011244D01*
X013205Y011331D02*
X012858Y010984D01*
X012945Y010897D01*
X013118Y010897D01*
X013205Y010984D01*
X013205Y011331D01*
X013118Y011417D01*
X012945Y011417D01*
X012858Y011331D01*
X012858Y010984D01*
X012689Y010897D02*
X012342Y010897D01*
X012516Y010897D02*
X012516Y011417D01*
X012342Y011244D01*
X015419Y008117D02*
X015332Y008031D01*
X015419Y008117D02*
X015592Y008117D01*
X015679Y008031D01*
X015679Y007944D01*
X015332Y007597D01*
X015679Y007597D01*
X015848Y007684D02*
X016195Y008031D01*
X016195Y007684D01*
X016108Y007597D01*
X015934Y007597D01*
X015848Y007684D01*
X015848Y008031D01*
X015934Y008117D01*
X016108Y008117D01*
X016195Y008031D01*
X016363Y007944D02*
X016623Y007944D01*
X016710Y007857D01*
X016710Y007684D01*
X016623Y007597D01*
X016363Y007597D01*
X016363Y007423D02*
X016363Y007944D01*
X016879Y007857D02*
X017052Y007857D01*
X016879Y007597D02*
X016879Y008117D01*
X017226Y008117D01*
X014158Y007590D02*
X013811Y007590D01*
X013811Y007070D01*
X013642Y007070D02*
X013642Y007417D01*
X013811Y007330D02*
X013985Y007330D01*
X013642Y007070D02*
X013382Y007070D01*
X013295Y007156D01*
X013295Y007417D01*
X012953Y007590D02*
X012953Y007070D01*
X012780Y007070D02*
X013127Y007070D01*
X012780Y007417D02*
X012953Y007590D01*
X012609Y007156D02*
X012609Y007070D01*
X012522Y007070D01*
X012522Y007156D01*
X012609Y007156D01*
X012353Y007156D02*
X012267Y007070D01*
X012093Y007070D01*
X012006Y007156D01*
X012353Y007503D01*
X012353Y007156D01*
X012006Y007156D02*
X012006Y007503D01*
X012093Y007590D01*
X012267Y007590D01*
X012353Y007503D01*
X011177Y004207D02*
X011264Y004120D01*
X011264Y003947D01*
X011177Y003860D01*
X011177Y003689D02*
X011264Y003689D01*
X011264Y003602D01*
X011177Y003602D01*
X011177Y003689D01*
X011177Y003433D02*
X011264Y003347D01*
X011264Y003173D01*
X011177Y003086D01*
X011004Y002918D02*
X011004Y002571D01*
X011004Y002402D02*
X010830Y002402D01*
X010743Y002315D01*
X010743Y002055D01*
X011264Y002055D01*
X011264Y001886D02*
X011264Y001539D01*
X010743Y001539D01*
X011090Y002055D02*
X011090Y002315D01*
X011004Y002402D01*
X011090Y002229D02*
X011264Y002402D01*
X010830Y003086D02*
X010743Y003173D01*
X010743Y003347D01*
X010830Y003433D01*
X010917Y003433D01*
X011004Y003347D01*
X011090Y003433D01*
X011177Y003433D01*
X011004Y003347D02*
X011004Y003260D01*
X010830Y003860D02*
X010743Y003947D01*
X010743Y004120D01*
X010830Y004207D01*
X010917Y004207D01*
X011004Y004120D01*
X011090Y004207D01*
X011177Y004207D01*
X011004Y004120D02*
X011004Y004033D01*
X015156Y004124D02*
X015243Y004211D01*
X015416Y004211D01*
X015503Y004124D01*
X015503Y004038D01*
X015156Y003691D01*
X015503Y003691D01*
X015672Y003777D02*
X015758Y003691D01*
X015932Y003691D01*
X016019Y003777D01*
X016019Y004124D01*
X015672Y003777D01*
X015672Y004124D01*
X015758Y004211D01*
X015932Y004211D01*
X016019Y004124D01*
X016187Y004038D02*
X016447Y004038D01*
X016534Y003951D01*
X016534Y003777D01*
X016447Y003691D01*
X016187Y003691D01*
X016187Y003517D02*
X016187Y004038D01*
X016703Y003951D02*
X016876Y003951D01*
X016703Y004211D02*
X017050Y004211D01*
X016703Y004211D02*
X016703Y003691D01*
X016675Y014808D02*
X016589Y014895D01*
X016589Y015155D01*
X016936Y015155D02*
X016936Y014808D01*
X016675Y014808D01*
X016420Y014808D02*
X016073Y014808D01*
X015902Y014808D02*
X015815Y014808D01*
X015815Y014895D01*
X015902Y014895D01*
X015902Y014808D01*
X015646Y014895D02*
X015560Y014808D01*
X015386Y014808D01*
X015299Y014895D01*
X015646Y015242D01*
X015646Y014895D01*
X015299Y014895D02*
X015299Y015242D01*
X015386Y015329D01*
X015560Y015329D01*
X015646Y015242D01*
X016073Y015155D02*
X016246Y015329D01*
X016246Y014808D01*
X017104Y014808D02*
X017104Y015329D01*
X017451Y015329D01*
X017278Y015068D02*
X017104Y015068D01*
X026038Y016682D02*
X026114Y016605D01*
X026268Y016605D01*
X026345Y016682D01*
X026345Y016989D01*
X026038Y016682D01*
X026038Y016989D01*
X026114Y017066D01*
X026268Y017066D01*
X026345Y016989D01*
X026498Y016682D02*
X026575Y016682D01*
X026575Y016605D01*
X026498Y016605D01*
X026498Y016682D01*
X026728Y016836D02*
X027035Y016836D01*
X027189Y016682D02*
X027189Y016605D01*
X027189Y016682D02*
X027496Y016989D01*
X027496Y017066D01*
X027189Y017066D01*
X026958Y017066D02*
X026728Y016836D01*
X026958Y016605D02*
X026958Y017066D01*
X027649Y016912D02*
X027649Y016682D01*
X027726Y016605D01*
X027956Y016605D01*
X027956Y016912D01*
X028109Y016836D02*
X028263Y016836D01*
X028109Y017066D02*
X028109Y016605D01*
X028109Y017066D02*
X028416Y017066D01*
D15*
X018840Y008860D02*
X018850Y008845D01*
X018849Y008845D02*
X018805Y008813D01*
X018763Y008778D01*
X018724Y008739D01*
X018687Y008698D01*
X018654Y008655D01*
X018623Y008610D01*
X018596Y008562D01*
X018572Y008513D01*
X018551Y008462D01*
X018535Y008410D01*
X018521Y008356D01*
X018512Y008302D01*
X018506Y008248D01*
X018504Y008193D01*
X018487Y008192D01*
X018486Y008193D01*
X018488Y008249D01*
X018494Y008305D01*
X018504Y008360D01*
X018517Y008415D01*
X018534Y008468D01*
X018555Y008520D01*
X018580Y008570D01*
X018608Y008619D01*
X018639Y008666D01*
X018674Y008710D01*
X018711Y008752D01*
X018751Y008791D01*
X018794Y008827D01*
X018839Y008860D01*
X018840Y008859D01*
X018795Y008826D01*
X018752Y008790D01*
X018712Y008751D01*
X018674Y008709D01*
X018640Y008665D01*
X018609Y008618D01*
X018581Y008570D01*
X018556Y008519D01*
X018535Y008468D01*
X018518Y008414D01*
X018505Y008360D01*
X018495Y008305D01*
X018489Y008249D01*
X018487Y008193D01*
X018488Y008193D01*
X018490Y008249D01*
X018496Y008305D01*
X018506Y008360D01*
X018519Y008414D01*
X018536Y008467D01*
X018557Y008519D01*
X018582Y008569D01*
X018610Y008618D01*
X018641Y008664D01*
X018675Y008709D01*
X018712Y008750D01*
X018752Y008789D01*
X018795Y008826D01*
X018840Y008859D01*
X018841Y008858D01*
X018796Y008825D01*
X018753Y008789D01*
X018713Y008750D01*
X018676Y008708D01*
X018642Y008664D01*
X018610Y008617D01*
X018583Y008569D01*
X018558Y008519D01*
X018537Y008467D01*
X018520Y008414D01*
X018507Y008359D01*
X018497Y008304D01*
X018491Y008249D01*
X018489Y008193D01*
X018490Y008193D01*
X018492Y008249D01*
X018498Y008304D01*
X018508Y008359D01*
X018521Y008413D01*
X018538Y008467D01*
X018559Y008518D01*
X018583Y008568D01*
X018611Y008617D01*
X018642Y008663D01*
X018677Y008707D01*
X018714Y008749D01*
X018754Y008788D01*
X018796Y008824D01*
X018841Y008857D01*
X018842Y008856D01*
X018797Y008823D01*
X018754Y008787D01*
X018715Y008748D01*
X018677Y008707D01*
X018643Y008663D01*
X018612Y008616D01*
X018584Y008568D01*
X018560Y008518D01*
X018539Y008466D01*
X018522Y008413D01*
X018509Y008359D01*
X018499Y008304D01*
X018493Y008249D01*
X018491Y008193D01*
X018492Y008193D01*
X018494Y008249D01*
X018500Y008304D01*
X018510Y008359D01*
X018523Y008413D01*
X018540Y008466D01*
X018561Y008517D01*
X018585Y008568D01*
X018613Y008616D01*
X018644Y008662D01*
X018678Y008706D01*
X018715Y008748D01*
X018755Y008786D01*
X018798Y008822D01*
X018842Y008855D01*
X018843Y008855D01*
X018798Y008822D01*
X018756Y008786D01*
X018716Y008747D01*
X018679Y008705D01*
X018645Y008661D01*
X018614Y008615D01*
X018586Y008567D01*
X018562Y008517D01*
X018541Y008465D01*
X018524Y008413D01*
X018510Y008359D01*
X018501Y008304D01*
X018495Y008249D01*
X018493Y008193D01*
X018494Y008193D01*
X018496Y008248D01*
X018502Y008304D01*
X018511Y008358D01*
X018525Y008412D01*
X018542Y008465D01*
X018563Y008517D01*
X018587Y008567D01*
X018615Y008615D01*
X018646Y008661D01*
X018680Y008705D01*
X018717Y008746D01*
X018756Y008785D01*
X018799Y008821D01*
X018844Y008854D01*
X018844Y008853D01*
X018799Y008820D01*
X018757Y008784D01*
X018717Y008746D01*
X018680Y008704D01*
X018646Y008660D01*
X018616Y008614D01*
X018588Y008566D01*
X018564Y008516D01*
X018543Y008465D01*
X018526Y008412D01*
X018512Y008358D01*
X018503Y008304D01*
X018497Y008248D01*
X018495Y008193D01*
X018496Y008193D01*
X018498Y008248D01*
X018504Y008303D01*
X018513Y008358D01*
X018527Y008412D01*
X018544Y008464D01*
X018565Y008516D01*
X018589Y008566D01*
X018616Y008614D01*
X018647Y008660D01*
X018681Y008704D01*
X018718Y008745D01*
X018758Y008783D01*
X018800Y008819D01*
X018845Y008852D01*
X018845Y008851D01*
X018801Y008818D01*
X018758Y008783D01*
X018719Y008744D01*
X018682Y008703D01*
X018648Y008659D01*
X018617Y008613D01*
X018590Y008565D01*
X018565Y008515D01*
X018545Y008464D01*
X018528Y008411D01*
X018514Y008358D01*
X018505Y008303D01*
X018499Y008248D01*
X018497Y008193D01*
X018498Y008193D01*
X018500Y008248D01*
X018506Y008303D01*
X018515Y008358D01*
X018529Y008411D01*
X018546Y008464D01*
X018566Y008515D01*
X018591Y008565D01*
X018618Y008613D01*
X018649Y008659D01*
X018683Y008702D01*
X018720Y008743D01*
X018759Y008782D01*
X018801Y008818D01*
X018846Y008850D01*
X018802Y008817D01*
X018760Y008781D01*
X018720Y008743D01*
X018683Y008702D01*
X018650Y008658D01*
X018619Y008612D01*
X018591Y008564D01*
X018567Y008515D01*
X018547Y008463D01*
X018530Y008411D01*
X018516Y008357D01*
X018507Y008303D01*
X018501Y008248D01*
X018499Y008193D01*
X018500Y008193D01*
X018502Y008248D01*
X018508Y008303D01*
X018517Y008357D01*
X018531Y008411D01*
X018548Y008463D01*
X018568Y008514D01*
X018592Y008564D01*
X018620Y008612D01*
X018650Y008657D01*
X018684Y008701D01*
X018721Y008742D01*
X018760Y008780D01*
X018803Y008816D01*
X018847Y008849D01*
X018848Y008848D01*
X018803Y008815D01*
X018761Y008780D01*
X018722Y008741D01*
X018685Y008700D01*
X018651Y008657D01*
X018621Y008611D01*
X018593Y008563D01*
X018569Y008514D01*
X018549Y008463D01*
X018532Y008410D01*
X018518Y008357D01*
X018509Y008303D01*
X018503Y008248D01*
X018501Y008193D01*
X018502Y008193D01*
X018504Y008248D01*
X018510Y008303D01*
X018519Y008357D01*
X018533Y008410D01*
X018550Y008462D01*
X018570Y008513D01*
X018594Y008563D01*
X018621Y008611D01*
X018652Y008656D01*
X018686Y008700D01*
X018722Y008741D01*
X018762Y008779D01*
X018804Y008815D01*
X018848Y008847D01*
X018849Y008846D01*
X018804Y008814D01*
X018763Y008778D01*
X018723Y008740D01*
X018687Y008699D01*
X018653Y008656D01*
X018622Y008610D01*
X018595Y008562D01*
X018571Y008513D01*
X018550Y008462D01*
X018534Y008410D01*
X018520Y008357D01*
X018511Y008302D01*
X018505Y008248D01*
X018503Y008193D01*
X020103Y008193D02*
X020085Y008193D01*
X020086Y008193D02*
X020084Y008248D01*
X020078Y008302D01*
X020069Y008356D01*
X020055Y008410D01*
X020039Y008462D01*
X020018Y008513D01*
X019994Y008562D01*
X019967Y008610D01*
X019936Y008655D01*
X019903Y008698D01*
X019866Y008739D01*
X019827Y008778D01*
X019785Y008813D01*
X019741Y008845D01*
X019750Y008860D01*
X019751Y008860D01*
X019796Y008827D01*
X019839Y008791D01*
X019879Y008752D01*
X019916Y008710D01*
X019951Y008666D01*
X019982Y008619D01*
X020010Y008570D01*
X020035Y008520D01*
X020055Y008468D01*
X020073Y008415D01*
X020086Y008360D01*
X020096Y008305D01*
X020102Y008249D01*
X020104Y008193D01*
X020103Y008193D01*
X020101Y008249D01*
X020095Y008305D01*
X020085Y008360D01*
X020072Y008414D01*
X020055Y008468D01*
X020034Y008520D01*
X020009Y008570D01*
X019981Y008619D01*
X019950Y008665D01*
X019916Y008709D01*
X019878Y008751D01*
X019838Y008790D01*
X019795Y008826D01*
X019750Y008860D01*
X019750Y008859D01*
X019795Y008826D01*
X019838Y008789D01*
X019878Y008750D01*
X019915Y008709D01*
X019949Y008664D01*
X019980Y008618D01*
X020008Y008569D01*
X020033Y008519D01*
X020054Y008467D01*
X020071Y008414D01*
X020084Y008360D01*
X020094Y008305D01*
X020100Y008249D01*
X020102Y008193D01*
X020101Y008193D01*
X020099Y008249D01*
X020093Y008304D01*
X020083Y008360D01*
X020070Y008414D01*
X020053Y008467D01*
X020032Y008519D01*
X020007Y008569D01*
X019980Y008617D01*
X019948Y008664D01*
X019914Y008708D01*
X019877Y008750D01*
X019837Y008789D01*
X019794Y008825D01*
X019749Y008858D01*
X019749Y008857D01*
X019794Y008824D01*
X019836Y008788D01*
X019876Y008749D01*
X019913Y008707D01*
X019948Y008663D01*
X019979Y008617D01*
X020007Y008569D01*
X020031Y008518D01*
X020052Y008467D01*
X020069Y008413D01*
X020082Y008359D01*
X020092Y008304D01*
X020098Y008249D01*
X020100Y008193D01*
X020099Y008193D01*
X020097Y008249D01*
X020091Y008304D01*
X020081Y008359D01*
X020068Y008413D01*
X020051Y008466D01*
X020030Y008518D01*
X020006Y008568D01*
X019978Y008616D01*
X019947Y008663D01*
X019913Y008707D01*
X019875Y008748D01*
X019836Y008787D01*
X019793Y008823D01*
X019748Y008856D01*
X019747Y008855D01*
X019792Y008822D01*
X019835Y008786D01*
X019875Y008748D01*
X019912Y008706D01*
X019946Y008662D01*
X019977Y008616D01*
X020005Y008568D01*
X020029Y008518D01*
X020050Y008466D01*
X020067Y008413D01*
X020080Y008359D01*
X020090Y008304D01*
X020096Y008249D01*
X020098Y008193D01*
X020097Y008193D01*
X020095Y008249D01*
X020089Y008304D01*
X020079Y008359D01*
X020066Y008413D01*
X020049Y008466D01*
X020028Y008517D01*
X020004Y008567D01*
X019976Y008615D01*
X019945Y008662D01*
X019911Y008705D01*
X019874Y008747D01*
X019834Y008786D01*
X019792Y008822D01*
X019747Y008855D01*
X019746Y008854D01*
X019791Y008821D01*
X019834Y008785D01*
X019873Y008746D01*
X019910Y008705D01*
X019944Y008661D01*
X019975Y008615D01*
X020003Y008567D01*
X020027Y008517D01*
X020048Y008465D01*
X020065Y008412D01*
X020079Y008358D01*
X020088Y008304D01*
X020094Y008249D01*
X020096Y008193D01*
X020095Y008193D01*
X020093Y008248D01*
X020087Y008304D01*
X020078Y008358D01*
X020064Y008412D01*
X020047Y008465D01*
X020026Y008516D01*
X020002Y008566D01*
X019974Y008614D01*
X019944Y008660D01*
X019910Y008704D01*
X019873Y008746D01*
X019833Y008784D01*
X019790Y008820D01*
X019746Y008853D01*
X019745Y008852D01*
X019790Y008819D01*
X019832Y008783D01*
X019872Y008745D01*
X019909Y008704D01*
X019943Y008660D01*
X019974Y008614D01*
X020001Y008566D01*
X020025Y008516D01*
X020046Y008465D01*
X020063Y008412D01*
X020077Y008358D01*
X020086Y008304D01*
X020092Y008248D01*
X020094Y008193D01*
X020093Y008193D01*
X020091Y008248D01*
X020085Y008303D01*
X020076Y008358D01*
X020062Y008412D01*
X020045Y008464D01*
X020024Y008516D01*
X020000Y008565D01*
X019973Y008613D01*
X019942Y008659D01*
X019908Y008703D01*
X019871Y008744D01*
X019831Y008783D01*
X019789Y008819D01*
X019745Y008851D01*
X019744Y008850D01*
X019789Y008818D01*
X019831Y008782D01*
X019870Y008743D01*
X019907Y008702D01*
X019941Y008659D01*
X019972Y008613D01*
X019999Y008565D01*
X020024Y008515D01*
X020044Y008464D01*
X020061Y008411D01*
X020075Y008358D01*
X020084Y008303D01*
X020090Y008248D01*
X020092Y008193D01*
X020091Y008193D01*
X020089Y008248D01*
X020083Y008303D01*
X020074Y008357D01*
X020060Y008411D01*
X020043Y008463D01*
X020023Y008515D01*
X019999Y008564D01*
X019971Y008612D01*
X019940Y008658D01*
X019906Y008702D01*
X019870Y008743D01*
X019830Y008781D01*
X019788Y008817D01*
X019744Y008850D01*
X019743Y008849D01*
X019787Y008816D01*
X019829Y008781D01*
X019869Y008742D01*
X019906Y008701D01*
X019940Y008657D01*
X019970Y008612D01*
X019998Y008564D01*
X020022Y008514D01*
X020042Y008463D01*
X020059Y008411D01*
X020073Y008357D01*
X020082Y008303D01*
X020088Y008248D01*
X020090Y008193D01*
X020089Y008193D01*
X020087Y008248D01*
X020081Y008303D01*
X020072Y008357D01*
X020058Y008410D01*
X020041Y008463D01*
X020021Y008514D01*
X019997Y008563D01*
X019969Y008611D01*
X019939Y008657D01*
X019905Y008700D01*
X019868Y008741D01*
X019829Y008780D01*
X019787Y008815D01*
X019742Y008848D01*
X019742Y008847D01*
X019786Y008815D01*
X019828Y008779D01*
X019868Y008741D01*
X019904Y008700D01*
X019938Y008656D01*
X019969Y008611D01*
X019996Y008563D01*
X020020Y008513D01*
X020040Y008462D01*
X020057Y008410D01*
X020071Y008357D01*
X020080Y008303D01*
X020086Y008248D01*
X020088Y008193D01*
X020087Y008193D01*
X020085Y008248D01*
X020079Y008303D01*
X020070Y008357D01*
X020056Y008410D01*
X020040Y008462D01*
X020019Y008513D01*
X019995Y008562D01*
X019968Y008610D01*
X019937Y008656D01*
X019903Y008699D01*
X019867Y008740D01*
X019827Y008778D01*
X019786Y008814D01*
X019741Y008846D01*
X018837Y008412D02*
X018853Y008405D01*
X018835Y008365D01*
X018822Y008323D01*
X018812Y008280D01*
X018806Y008237D01*
X018804Y008193D01*
X018787Y008192D01*
X018786Y008193D01*
X018787Y008231D01*
X018792Y008269D01*
X018799Y008306D01*
X018809Y008342D01*
X018821Y008378D01*
X018836Y008413D01*
X018837Y008413D01*
X018822Y008378D01*
X018810Y008342D01*
X018800Y008306D01*
X018793Y008268D01*
X018788Y008231D01*
X018787Y008193D01*
X018788Y008193D01*
X018789Y008231D01*
X018794Y008268D01*
X018801Y008305D01*
X018811Y008342D01*
X018823Y008377D01*
X018838Y008412D01*
X018839Y008412D01*
X018824Y008377D01*
X018812Y008342D01*
X018802Y008305D01*
X018795Y008268D01*
X018790Y008231D01*
X018789Y008193D01*
X018790Y008193D01*
X018791Y008231D01*
X018796Y008268D01*
X018803Y008305D01*
X018813Y008341D01*
X018825Y008377D01*
X018840Y008411D01*
X018841Y008411D01*
X018826Y008376D01*
X018814Y008341D01*
X018804Y008305D01*
X018797Y008268D01*
X018792Y008231D01*
X018791Y008193D01*
X018792Y008193D01*
X018793Y008230D01*
X018798Y008268D01*
X018805Y008304D01*
X018814Y008341D01*
X018827Y008376D01*
X018842Y008410D01*
X018843Y008410D01*
X018828Y008376D01*
X018815Y008340D01*
X018806Y008304D01*
X018799Y008268D01*
X018794Y008230D01*
X018793Y008193D01*
X018794Y008193D01*
X018795Y008230D01*
X018800Y008267D01*
X018807Y008304D01*
X018816Y008340D01*
X018829Y008375D01*
X018844Y008409D01*
X018845Y008409D01*
X018830Y008375D01*
X018817Y008340D01*
X018808Y008304D01*
X018801Y008267D01*
X018796Y008230D01*
X018795Y008193D01*
X018796Y008193D01*
X018797Y008230D01*
X018802Y008267D01*
X018809Y008304D01*
X018818Y008339D01*
X018831Y008375D01*
X018845Y008409D01*
X018846Y008408D01*
X018832Y008374D01*
X018819Y008339D01*
X018810Y008303D01*
X018803Y008267D01*
X018798Y008230D01*
X018797Y008193D01*
X018798Y008193D01*
X018799Y008230D01*
X018804Y008267D01*
X018811Y008303D01*
X018820Y008339D01*
X018832Y008374D01*
X018847Y008408D01*
X018848Y008407D01*
X018831Y008367D01*
X018817Y008324D01*
X018807Y008281D01*
X018801Y008237D01*
X018799Y008193D01*
X018800Y008193D01*
X018802Y008237D01*
X018808Y008281D01*
X018818Y008324D01*
X018832Y008366D01*
X018849Y008407D01*
X018850Y008406D01*
X018833Y008366D01*
X018819Y008324D01*
X018809Y008281D01*
X018803Y008237D01*
X018801Y008193D01*
X018802Y008193D01*
X018804Y008237D01*
X018810Y008281D01*
X018820Y008324D01*
X018834Y008365D01*
X018851Y008406D01*
X018852Y008406D01*
X018834Y008365D01*
X018821Y008323D01*
X018811Y008280D01*
X018805Y008237D01*
X018803Y008193D01*
X019803Y008192D02*
X019785Y008192D01*
X019786Y008193D02*
X019784Y008237D01*
X019778Y008280D01*
X019768Y008323D01*
X019755Y008365D01*
X019737Y008405D01*
X019753Y008412D01*
X019754Y008413D01*
X019769Y008378D01*
X019781Y008342D01*
X019791Y008306D01*
X019798Y008269D01*
X019803Y008231D01*
X019804Y008193D01*
X019803Y008193D01*
X019802Y008231D01*
X019797Y008268D01*
X019790Y008306D01*
X019780Y008342D01*
X019768Y008378D01*
X019753Y008413D01*
X019752Y008412D01*
X019767Y008377D01*
X019779Y008342D01*
X019789Y008305D01*
X019796Y008268D01*
X019801Y008231D01*
X019802Y008193D01*
X019801Y008193D01*
X019800Y008231D01*
X019795Y008268D01*
X019788Y008305D01*
X019778Y008342D01*
X019766Y008377D01*
X019751Y008412D01*
X019750Y008411D01*
X019765Y008377D01*
X019777Y008341D01*
X019787Y008305D01*
X019794Y008268D01*
X019799Y008231D01*
X019800Y008193D01*
X019799Y008193D01*
X019798Y008231D01*
X019793Y008268D01*
X019786Y008305D01*
X019776Y008341D01*
X019764Y008376D01*
X019749Y008411D01*
X019748Y008410D01*
X019763Y008376D01*
X019776Y008341D01*
X019785Y008304D01*
X019792Y008268D01*
X019797Y008230D01*
X019798Y008193D01*
X019797Y008193D01*
X019796Y008230D01*
X019791Y008268D01*
X019784Y008304D01*
X019775Y008340D01*
X019762Y008376D01*
X019747Y008410D01*
X019746Y008409D01*
X019761Y008375D01*
X019774Y008340D01*
X019783Y008304D01*
X019790Y008267D01*
X019795Y008230D01*
X019796Y008193D01*
X019795Y008193D01*
X019794Y008230D01*
X019789Y008267D01*
X019782Y008304D01*
X019773Y008340D01*
X019760Y008375D01*
X019745Y008409D01*
X019759Y008375D01*
X019772Y008339D01*
X019781Y008304D01*
X019788Y008267D01*
X019793Y008230D01*
X019794Y008193D01*
X019793Y008193D01*
X019792Y008230D01*
X019787Y008267D01*
X019780Y008303D01*
X019771Y008339D01*
X019758Y008374D01*
X019744Y008408D01*
X019743Y008408D01*
X019758Y008374D01*
X019770Y008339D01*
X019779Y008303D01*
X019786Y008267D01*
X019791Y008230D01*
X019792Y008193D01*
X019791Y008193D01*
X019789Y008237D01*
X019783Y008281D01*
X019773Y008324D01*
X019759Y008367D01*
X019742Y008407D01*
X019741Y008407D01*
X019758Y008366D01*
X019772Y008324D01*
X019782Y008281D01*
X019788Y008237D01*
X019790Y008193D01*
X019789Y008193D01*
X019787Y008237D01*
X019781Y008281D01*
X019771Y008324D01*
X019757Y008366D01*
X019740Y008406D01*
X019739Y008406D01*
X019756Y008365D01*
X019770Y008324D01*
X019780Y008281D01*
X019786Y008237D01*
X019788Y008193D01*
X019787Y008193D01*
X019785Y008237D01*
X019779Y008280D01*
X019769Y008323D01*
X019756Y008365D01*
X019738Y008406D01*
X018487Y005491D02*
X018505Y005491D01*
X018504Y005491D02*
X018506Y005436D01*
X018512Y005382D01*
X018521Y005328D01*
X018535Y005274D01*
X018551Y005222D01*
X018572Y005171D01*
X018596Y005122D01*
X018623Y005074D01*
X018654Y005029D01*
X018687Y004986D01*
X018724Y004945D01*
X018763Y004906D01*
X018805Y004871D01*
X018849Y004839D01*
X018840Y004824D01*
X018839Y004824D01*
X018794Y004857D01*
X018751Y004893D01*
X018711Y004932D01*
X018674Y004974D01*
X018639Y005018D01*
X018608Y005065D01*
X018580Y005114D01*
X018555Y005164D01*
X018535Y005216D01*
X018517Y005269D01*
X018504Y005324D01*
X018494Y005379D01*
X018488Y005435D01*
X018486Y005491D01*
X018487Y005491D01*
X018489Y005435D01*
X018495Y005379D01*
X018505Y005324D01*
X018518Y005270D01*
X018535Y005216D01*
X018556Y005164D01*
X018581Y005114D01*
X018609Y005065D01*
X018640Y005019D01*
X018674Y004975D01*
X018712Y004933D01*
X018752Y004894D01*
X018795Y004858D01*
X018840Y004824D01*
X018840Y004825D01*
X018795Y004858D01*
X018752Y004895D01*
X018712Y004934D01*
X018675Y004975D01*
X018641Y005020D01*
X018610Y005066D01*
X018582Y005115D01*
X018557Y005165D01*
X018536Y005217D01*
X018519Y005270D01*
X018506Y005324D01*
X018496Y005379D01*
X018490Y005435D01*
X018488Y005491D01*
X018489Y005491D01*
X018491Y005435D01*
X018497Y005380D01*
X018507Y005325D01*
X018520Y005270D01*
X018537Y005217D01*
X018558Y005165D01*
X018583Y005115D01*
X018610Y005067D01*
X018642Y005020D01*
X018676Y004976D01*
X018713Y004934D01*
X018753Y004895D01*
X018796Y004859D01*
X018841Y004826D01*
X018841Y004827D01*
X018796Y004860D01*
X018754Y004896D01*
X018714Y004935D01*
X018677Y004977D01*
X018642Y005021D01*
X018611Y005067D01*
X018583Y005115D01*
X018559Y005166D01*
X018538Y005217D01*
X018521Y005271D01*
X018508Y005325D01*
X018498Y005380D01*
X018492Y005435D01*
X018490Y005491D01*
X018491Y005491D01*
X018493Y005435D01*
X018499Y005380D01*
X018509Y005325D01*
X018522Y005271D01*
X018539Y005218D01*
X018560Y005166D01*
X018584Y005116D01*
X018612Y005068D01*
X018643Y005021D01*
X018677Y004977D01*
X018715Y004936D01*
X018754Y004897D01*
X018797Y004861D01*
X018842Y004828D01*
X018843Y004829D01*
X018798Y004862D01*
X018755Y004898D01*
X018715Y004936D01*
X018678Y004978D01*
X018644Y005022D01*
X018613Y005068D01*
X018585Y005116D01*
X018561Y005166D01*
X018540Y005218D01*
X018523Y005271D01*
X018510Y005325D01*
X018500Y005380D01*
X018494Y005435D01*
X018492Y005491D01*
X018493Y005491D01*
X018495Y005435D01*
X018501Y005380D01*
X018511Y005325D01*
X018524Y005271D01*
X018541Y005218D01*
X018562Y005167D01*
X018586Y005117D01*
X018614Y005069D01*
X018645Y005022D01*
X018679Y004979D01*
X018716Y004937D01*
X018756Y004898D01*
X018798Y004862D01*
X018843Y004829D01*
X018844Y004830D01*
X018799Y004863D01*
X018756Y004899D01*
X018717Y004938D01*
X018680Y004979D01*
X018646Y005023D01*
X018615Y005069D01*
X018587Y005117D01*
X018563Y005167D01*
X018542Y005219D01*
X018525Y005272D01*
X018511Y005326D01*
X018502Y005380D01*
X018496Y005435D01*
X018494Y005491D01*
X018495Y005491D01*
X018497Y005436D01*
X018503Y005380D01*
X018512Y005326D01*
X018526Y005272D01*
X018543Y005219D01*
X018564Y005168D01*
X018588Y005118D01*
X018616Y005070D01*
X018646Y005024D01*
X018680Y004980D01*
X018717Y004938D01*
X018757Y004900D01*
X018799Y004864D01*
X018844Y004831D01*
X018845Y004832D01*
X018800Y004865D01*
X018758Y004901D01*
X018718Y004939D01*
X018681Y004980D01*
X018647Y005024D01*
X018616Y005070D01*
X018589Y005118D01*
X018565Y005168D01*
X018544Y005220D01*
X018527Y005272D01*
X018513Y005326D01*
X018504Y005381D01*
X018498Y005436D01*
X018496Y005491D01*
X018497Y005491D01*
X018499Y005436D01*
X018505Y005381D01*
X018514Y005326D01*
X018528Y005272D01*
X018545Y005220D01*
X018566Y005169D01*
X018590Y005119D01*
X018617Y005071D01*
X018648Y005025D01*
X018682Y004981D01*
X018719Y004940D01*
X018758Y004901D01*
X018801Y004866D01*
X018845Y004833D01*
X018846Y004834D01*
X018801Y004866D01*
X018759Y004902D01*
X018720Y004941D01*
X018683Y004982D01*
X018649Y005025D01*
X018618Y005071D01*
X018591Y005119D01*
X018566Y005169D01*
X018546Y005220D01*
X018529Y005273D01*
X018515Y005326D01*
X018506Y005381D01*
X018500Y005436D01*
X018498Y005491D01*
X018499Y005491D01*
X018501Y005436D01*
X018507Y005381D01*
X018516Y005327D01*
X018530Y005273D01*
X018547Y005221D01*
X018567Y005169D01*
X018591Y005120D01*
X018619Y005072D01*
X018650Y005026D01*
X018684Y004982D01*
X018720Y004941D01*
X018760Y004903D01*
X018802Y004867D01*
X018846Y004834D01*
X018847Y004835D01*
X018803Y004868D01*
X018761Y004903D01*
X018721Y004942D01*
X018684Y004983D01*
X018650Y005027D01*
X018620Y005072D01*
X018592Y005120D01*
X018568Y005170D01*
X018548Y005221D01*
X018531Y005273D01*
X018517Y005327D01*
X018508Y005381D01*
X018502Y005436D01*
X018500Y005491D01*
X018501Y005491D01*
X018503Y005436D01*
X018509Y005381D01*
X018518Y005327D01*
X018532Y005274D01*
X018549Y005221D01*
X018569Y005170D01*
X018593Y005121D01*
X018621Y005073D01*
X018651Y005027D01*
X018685Y004984D01*
X018722Y004943D01*
X018761Y004904D01*
X018803Y004869D01*
X018848Y004836D01*
X018848Y004837D01*
X018804Y004869D01*
X018762Y004905D01*
X018722Y004943D01*
X018686Y004984D01*
X018652Y005028D01*
X018621Y005073D01*
X018594Y005121D01*
X018570Y005171D01*
X018550Y005222D01*
X018533Y005274D01*
X018519Y005327D01*
X018510Y005381D01*
X018504Y005436D01*
X018502Y005491D01*
X018503Y005491D01*
X018505Y005436D01*
X018511Y005381D01*
X018520Y005327D01*
X018534Y005274D01*
X018550Y005222D01*
X018571Y005171D01*
X018595Y005122D01*
X018622Y005074D01*
X018653Y005028D01*
X018687Y004985D01*
X018723Y004944D01*
X018763Y004906D01*
X018804Y004870D01*
X018849Y004838D01*
X019750Y004824D02*
X019740Y004839D01*
X019741Y004839D02*
X019785Y004871D01*
X019827Y004906D01*
X019866Y004945D01*
X019903Y004986D01*
X019936Y005029D01*
X019967Y005074D01*
X019994Y005122D01*
X020018Y005171D01*
X020039Y005222D01*
X020055Y005274D01*
X020069Y005328D01*
X020078Y005382D01*
X020084Y005436D01*
X020086Y005491D01*
X020103Y005492D01*
X020104Y005491D01*
X020102Y005435D01*
X020096Y005379D01*
X020086Y005324D01*
X020073Y005269D01*
X020056Y005216D01*
X020035Y005164D01*
X020010Y005114D01*
X019982Y005065D01*
X019951Y005018D01*
X019916Y004974D01*
X019879Y004932D01*
X019839Y004893D01*
X019796Y004857D01*
X019751Y004824D01*
X019750Y004825D01*
X019795Y004858D01*
X019838Y004894D01*
X019878Y004933D01*
X019916Y004975D01*
X019950Y005019D01*
X019981Y005066D01*
X020009Y005114D01*
X020034Y005165D01*
X020055Y005216D01*
X020072Y005270D01*
X020085Y005324D01*
X020095Y005379D01*
X020101Y005435D01*
X020103Y005491D01*
X020102Y005491D01*
X020100Y005435D01*
X020094Y005379D01*
X020084Y005324D01*
X020071Y005270D01*
X020054Y005217D01*
X020033Y005165D01*
X020008Y005115D01*
X019980Y005066D01*
X019949Y005020D01*
X019915Y004975D01*
X019878Y004934D01*
X019838Y004895D01*
X019795Y004858D01*
X019750Y004825D01*
X019749Y004826D01*
X019794Y004859D01*
X019837Y004895D01*
X019877Y004934D01*
X019914Y004976D01*
X019948Y005020D01*
X019980Y005067D01*
X020007Y005115D01*
X020032Y005165D01*
X020053Y005217D01*
X020070Y005270D01*
X020083Y005325D01*
X020093Y005380D01*
X020099Y005435D01*
X020101Y005491D01*
X020100Y005491D01*
X020098Y005435D01*
X020092Y005380D01*
X020082Y005325D01*
X020069Y005271D01*
X020052Y005217D01*
X020031Y005166D01*
X020007Y005116D01*
X019979Y005067D01*
X019948Y005021D01*
X019913Y004977D01*
X019876Y004935D01*
X019836Y004896D01*
X019794Y004860D01*
X019749Y004827D01*
X019748Y004828D01*
X019793Y004861D01*
X019836Y004897D01*
X019875Y004936D01*
X019913Y004977D01*
X019947Y005021D01*
X019978Y005068D01*
X020006Y005116D01*
X020030Y005166D01*
X020051Y005218D01*
X020068Y005271D01*
X020081Y005325D01*
X020091Y005380D01*
X020097Y005435D01*
X020099Y005491D01*
X020098Y005491D01*
X020096Y005435D01*
X020090Y005380D01*
X020080Y005325D01*
X020067Y005271D01*
X020050Y005218D01*
X020029Y005167D01*
X020005Y005116D01*
X019977Y005068D01*
X019946Y005022D01*
X019912Y004978D01*
X019875Y004936D01*
X019835Y004898D01*
X019792Y004862D01*
X019748Y004829D01*
X019747Y004829D01*
X019792Y004862D01*
X019834Y004898D01*
X019874Y004937D01*
X019911Y004979D01*
X019945Y005023D01*
X019976Y005069D01*
X020004Y005117D01*
X020028Y005167D01*
X020049Y005219D01*
X020066Y005271D01*
X020080Y005325D01*
X020089Y005380D01*
X020095Y005435D01*
X020097Y005491D01*
X020096Y005491D01*
X020094Y005436D01*
X020088Y005380D01*
X020079Y005326D01*
X020065Y005272D01*
X020048Y005219D01*
X020027Y005167D01*
X020003Y005117D01*
X019975Y005069D01*
X019944Y005023D01*
X019910Y004979D01*
X019873Y004938D01*
X019834Y004899D01*
X019791Y004863D01*
X019746Y004830D01*
X019746Y004831D01*
X019791Y004864D01*
X019833Y004900D01*
X019873Y004938D01*
X019910Y004980D01*
X019944Y005024D01*
X019974Y005070D01*
X020002Y005118D01*
X020026Y005168D01*
X020047Y005219D01*
X020064Y005272D01*
X020078Y005326D01*
X020087Y005380D01*
X020093Y005436D01*
X020095Y005491D01*
X020094Y005491D01*
X020092Y005436D01*
X020086Y005381D01*
X020077Y005326D01*
X020063Y005272D01*
X020046Y005220D01*
X020025Y005168D01*
X020001Y005118D01*
X019974Y005070D01*
X019943Y005024D01*
X019909Y004980D01*
X019872Y004939D01*
X019832Y004901D01*
X019790Y004865D01*
X019745Y004832D01*
X019745Y004833D01*
X019789Y004866D01*
X019832Y004901D01*
X019871Y004940D01*
X019908Y004981D01*
X019942Y005025D01*
X019973Y005071D01*
X020000Y005119D01*
X020025Y005169D01*
X020045Y005220D01*
X020062Y005273D01*
X020076Y005326D01*
X020085Y005381D01*
X020091Y005436D01*
X020093Y005491D01*
X020092Y005491D01*
X020090Y005436D01*
X020084Y005381D01*
X020075Y005326D01*
X020061Y005273D01*
X020044Y005220D01*
X020024Y005169D01*
X019999Y005119D01*
X019972Y005071D01*
X019941Y005025D01*
X019907Y004982D01*
X019870Y004941D01*
X019831Y004902D01*
X019789Y004866D01*
X019744Y004834D01*
X019788Y004867D01*
X019830Y004903D01*
X019870Y004941D01*
X019907Y004982D01*
X019940Y005026D01*
X019971Y005072D01*
X019999Y005120D01*
X020023Y005169D01*
X020043Y005221D01*
X020060Y005273D01*
X020074Y005327D01*
X020083Y005381D01*
X020089Y005436D01*
X020091Y005491D01*
X020090Y005491D01*
X020088Y005436D01*
X020082Y005381D01*
X020073Y005327D01*
X020059Y005273D01*
X020042Y005221D01*
X020022Y005170D01*
X019998Y005120D01*
X019970Y005072D01*
X019940Y005027D01*
X019906Y004983D01*
X019869Y004942D01*
X019830Y004904D01*
X019787Y004868D01*
X019743Y004835D01*
X019742Y004836D01*
X019787Y004869D01*
X019829Y004904D01*
X019868Y004943D01*
X019905Y004984D01*
X019939Y005027D01*
X019969Y005073D01*
X019997Y005121D01*
X020021Y005170D01*
X020041Y005221D01*
X020058Y005274D01*
X020072Y005327D01*
X020081Y005381D01*
X020087Y005436D01*
X020089Y005491D01*
X020088Y005491D01*
X020086Y005436D01*
X020080Y005381D01*
X020071Y005327D01*
X020057Y005274D01*
X020040Y005222D01*
X020020Y005171D01*
X019996Y005121D01*
X019969Y005073D01*
X019938Y005028D01*
X019904Y004984D01*
X019868Y004943D01*
X019828Y004905D01*
X019786Y004869D01*
X019742Y004837D01*
X019741Y004838D01*
X019786Y004870D01*
X019827Y004906D01*
X019867Y004944D01*
X019903Y004985D01*
X019937Y005028D01*
X019968Y005074D01*
X019995Y005122D01*
X020019Y005171D01*
X020040Y005222D01*
X020056Y005274D01*
X020070Y005327D01*
X020079Y005382D01*
X020085Y005436D01*
X020087Y005491D01*
X019753Y005272D02*
X019737Y005279D01*
X019755Y005319D01*
X019768Y005361D01*
X019778Y005404D01*
X019784Y005447D01*
X019786Y005491D01*
X019803Y005492D01*
X019804Y005491D01*
X019803Y005453D01*
X019798Y005415D01*
X019791Y005378D01*
X019781Y005342D01*
X019769Y005306D01*
X019754Y005271D01*
X019753Y005271D01*
X019768Y005306D01*
X019780Y005342D01*
X019790Y005378D01*
X019797Y005416D01*
X019802Y005453D01*
X019803Y005491D01*
X019802Y005491D01*
X019801Y005453D01*
X019796Y005416D01*
X019789Y005379D01*
X019779Y005342D01*
X019767Y005307D01*
X019752Y005272D01*
X019751Y005272D01*
X019766Y005307D01*
X019778Y005342D01*
X019788Y005379D01*
X019795Y005416D01*
X019800Y005453D01*
X019801Y005491D01*
X019800Y005491D01*
X019799Y005453D01*
X019794Y005416D01*
X019787Y005379D01*
X019777Y005343D01*
X019765Y005307D01*
X019750Y005273D01*
X019749Y005273D01*
X019764Y005308D01*
X019776Y005343D01*
X019786Y005379D01*
X019793Y005416D01*
X019798Y005453D01*
X019799Y005491D01*
X019798Y005491D01*
X019797Y005454D01*
X019792Y005416D01*
X019785Y005380D01*
X019776Y005343D01*
X019763Y005308D01*
X019748Y005274D01*
X019747Y005274D01*
X019762Y005308D01*
X019775Y005344D01*
X019784Y005380D01*
X019791Y005416D01*
X019796Y005454D01*
X019797Y005491D01*
X019796Y005491D01*
X019795Y005454D01*
X019790Y005417D01*
X019783Y005380D01*
X019774Y005344D01*
X019761Y005309D01*
X019746Y005275D01*
X019745Y005275D01*
X019760Y005309D01*
X019773Y005344D01*
X019782Y005380D01*
X019789Y005417D01*
X019794Y005454D01*
X019795Y005491D01*
X019794Y005491D01*
X019793Y005454D01*
X019788Y005417D01*
X019781Y005380D01*
X019772Y005345D01*
X019759Y005309D01*
X019745Y005275D01*
X019744Y005276D01*
X019758Y005310D01*
X019771Y005345D01*
X019780Y005381D01*
X019787Y005417D01*
X019792Y005454D01*
X019793Y005491D01*
X019792Y005491D01*
X019791Y005454D01*
X019786Y005417D01*
X019779Y005381D01*
X019770Y005345D01*
X019758Y005310D01*
X019743Y005276D01*
X019742Y005277D01*
X019759Y005317D01*
X019773Y005360D01*
X019783Y005403D01*
X019789Y005447D01*
X019791Y005491D01*
X019790Y005491D01*
X019788Y005447D01*
X019782Y005403D01*
X019772Y005360D01*
X019758Y005318D01*
X019741Y005277D01*
X019740Y005278D01*
X019757Y005318D01*
X019771Y005360D01*
X019781Y005403D01*
X019787Y005447D01*
X019789Y005491D01*
X019788Y005491D01*
X019786Y005447D01*
X019780Y005403D01*
X019770Y005360D01*
X019756Y005319D01*
X019739Y005278D01*
X019738Y005278D01*
X019756Y005319D01*
X019769Y005361D01*
X019779Y005404D01*
X019785Y005447D01*
X019787Y005491D01*
X018787Y005492D02*
X018805Y005492D01*
X018804Y005491D02*
X018806Y005447D01*
X018812Y005404D01*
X018822Y005361D01*
X018835Y005319D01*
X018853Y005279D01*
X018837Y005272D01*
X018836Y005271D01*
X018821Y005306D01*
X018809Y005342D01*
X018799Y005378D01*
X018792Y005415D01*
X018787Y005453D01*
X018786Y005491D01*
X018787Y005491D01*
X018788Y005453D01*
X018793Y005416D01*
X018800Y005378D01*
X018810Y005342D01*
X018822Y005306D01*
X018837Y005271D01*
X018838Y005272D01*
X018823Y005307D01*
X018811Y005342D01*
X018801Y005379D01*
X018794Y005416D01*
X018789Y005453D01*
X018788Y005491D01*
X018789Y005491D01*
X018790Y005453D01*
X018795Y005416D01*
X018802Y005379D01*
X018812Y005342D01*
X018824Y005307D01*
X018839Y005272D01*
X018840Y005273D01*
X018825Y005307D01*
X018813Y005343D01*
X018803Y005379D01*
X018796Y005416D01*
X018791Y005453D01*
X018790Y005491D01*
X018791Y005491D01*
X018792Y005453D01*
X018797Y005416D01*
X018804Y005379D01*
X018814Y005343D01*
X018826Y005308D01*
X018841Y005273D01*
X018842Y005274D01*
X018827Y005308D01*
X018814Y005343D01*
X018805Y005380D01*
X018798Y005416D01*
X018793Y005454D01*
X018792Y005491D01*
X018793Y005491D01*
X018794Y005454D01*
X018799Y005416D01*
X018806Y005380D01*
X018815Y005344D01*
X018828Y005308D01*
X018843Y005274D01*
X018844Y005275D01*
X018829Y005309D01*
X018816Y005344D01*
X018807Y005380D01*
X018800Y005417D01*
X018795Y005454D01*
X018794Y005491D01*
X018795Y005491D01*
X018796Y005454D01*
X018801Y005417D01*
X018808Y005380D01*
X018817Y005344D01*
X018830Y005309D01*
X018845Y005275D01*
X018831Y005309D01*
X018818Y005345D01*
X018809Y005380D01*
X018802Y005417D01*
X018797Y005454D01*
X018796Y005491D01*
X018797Y005491D01*
X018798Y005454D01*
X018803Y005417D01*
X018810Y005381D01*
X018819Y005345D01*
X018832Y005310D01*
X018846Y005276D01*
X018847Y005276D01*
X018832Y005310D01*
X018820Y005345D01*
X018811Y005381D01*
X018804Y005417D01*
X018799Y005454D01*
X018798Y005491D01*
X018799Y005491D01*
X018801Y005447D01*
X018807Y005403D01*
X018817Y005360D01*
X018831Y005317D01*
X018848Y005277D01*
X018849Y005277D01*
X018832Y005318D01*
X018818Y005360D01*
X018808Y005403D01*
X018802Y005447D01*
X018800Y005491D01*
X018801Y005491D01*
X018803Y005447D01*
X018809Y005403D01*
X018819Y005360D01*
X018833Y005318D01*
X018850Y005278D01*
X018851Y005278D01*
X018834Y005319D01*
X018820Y005360D01*
X018810Y005403D01*
X018804Y005447D01*
X018802Y005491D01*
X018803Y005491D01*
X018805Y005447D01*
X018811Y005404D01*
X018821Y005361D01*
X018834Y005319D01*
X018852Y005278D01*
D16*
X018795Y005492D02*
X018795Y008192D01*
X018495Y008192D02*
X018495Y005492D01*
X019795Y005492D02*
X019795Y008192D01*
X020095Y008192D02*
X020095Y005492D01*
X019295Y006442D02*
X019295Y006592D01*
X019295Y007092D02*
X019295Y007242D01*
M02*
