G75*
%MOIN*%
%OFA0B0*%
%FSLAX24Y24*%
%IPPOS*%
%LPD*%
%AMOC8*
5,1,8,0,0,1.08239X$1,22.5*
%
%ADD10C,0.0000*%
%ADD11C,0.0520*%
%ADD12C,0.0740*%
%ADD13R,0.0472X0.0551*%
%ADD14R,0.0630X0.0709*%
%ADD15C,0.0600*%
%ADD16C,0.0886*%
%ADD17C,0.0600*%
%ADD18C,0.1660*%
%ADD19R,0.0787X0.0630*%
%ADD20C,0.0120*%
%ADD21C,0.0356*%
%ADD22C,0.0160*%
%ADD23C,0.0100*%
D10*
X000100Y000100D02*
X000100Y019391D01*
X037502Y019391D01*
X037502Y000100D01*
X000100Y000100D01*
D11*
X022061Y002236D02*
X022581Y002236D01*
X022581Y003236D02*
X022061Y003236D01*
X022061Y004236D02*
X022581Y004236D01*
X022581Y005236D02*
X022061Y005236D01*
X022061Y006236D02*
X022581Y006236D01*
X022581Y007236D02*
X022061Y007236D01*
X022061Y008236D02*
X022581Y008236D01*
X022581Y009236D02*
X022061Y009236D01*
X022061Y010236D02*
X022581Y010236D01*
X022581Y011236D02*
X022061Y011236D01*
X022061Y012236D02*
X022581Y012236D01*
X022581Y013236D02*
X022061Y013236D01*
X022061Y014236D02*
X022581Y014236D01*
X022581Y015236D02*
X022061Y015236D01*
X025061Y015236D02*
X025581Y015236D01*
X025581Y014236D02*
X025061Y014236D01*
X025061Y013236D02*
X025581Y013236D01*
X025581Y012236D02*
X025061Y012236D01*
X025061Y011236D02*
X025581Y011236D01*
X025581Y010236D02*
X025061Y010236D01*
X025061Y009236D02*
X025581Y009236D01*
X025581Y008236D02*
X025061Y008236D01*
X025061Y007236D02*
X025581Y007236D01*
X025581Y006236D02*
X025061Y006236D01*
X025061Y005236D02*
X025581Y005236D01*
X025581Y004236D02*
X025061Y004236D01*
X025061Y003236D02*
X025581Y003236D01*
X025581Y002236D02*
X025061Y002236D01*
D12*
X030352Y001281D03*
X031352Y001281D03*
X032352Y001281D03*
X033352Y001281D03*
X034352Y001281D03*
X001620Y007376D03*
X001620Y008376D03*
X001620Y009376D03*
X001620Y010376D03*
X001620Y011376D03*
X001620Y012376D03*
X022636Y018340D03*
X023636Y018340D03*
X024636Y018340D03*
X025636Y018340D03*
X028972Y018355D03*
X029972Y018355D03*
X030972Y018355D03*
X031972Y018355D03*
X032972Y018355D03*
X033972Y018355D03*
D13*
X032580Y012305D03*
X031399Y012305D03*
X004026Y004877D03*
X002845Y004877D03*
D14*
X002900Y002452D03*
X004003Y002452D03*
X031439Y014273D03*
X032541Y014273D03*
D15*
X035368Y013761D03*
D16*
X036368Y012761D03*
X034368Y012761D03*
X034368Y014761D03*
X036368Y014761D03*
D17*
X009037Y002250D02*
X009037Y001650D01*
X007037Y001650D02*
X007037Y002250D01*
D18*
X001379Y001360D03*
X019785Y002462D03*
X027853Y002462D03*
X036237Y001370D03*
X027853Y014467D03*
X019785Y014467D03*
X036237Y018126D03*
X001373Y018130D03*
D19*
X007698Y016242D03*
X009824Y016242D03*
D20*
X011399Y014667D01*
X013880Y014667D01*
X014273Y015848D02*
X012698Y017423D01*
X004824Y017423D01*
X000887Y013486D01*
X000887Y008108D01*
X001620Y007376D01*
X002856Y006793D02*
X004431Y008368D01*
X001620Y008376D02*
X005155Y011911D01*
X020966Y011911D01*
X022291Y013236D01*
X022321Y013236D01*
X022110Y014236D02*
X020572Y012698D01*
X004943Y012698D01*
X001620Y009376D01*
X002856Y006793D02*
X002856Y004888D01*
X002845Y004877D01*
X004026Y004877D02*
X004026Y003577D01*
X002900Y002452D01*
X004003Y002452D02*
X005567Y000887D01*
X010336Y000887D01*
X022321Y003236D02*
X022948Y003236D01*
X024903Y001281D01*
X029234Y001281D01*
X030021Y002069D01*
X031565Y002069D01*
X032352Y001281D01*
X033352Y001281D02*
X031203Y003560D01*
X027020Y003560D01*
X026320Y002730D01*
X024160Y002730D01*
X022654Y004236D01*
X022321Y004236D01*
X022321Y005236D02*
X022894Y005236D01*
X024390Y003740D01*
X026340Y003740D01*
X026530Y003930D01*
X031703Y003930D01*
X034352Y001281D01*
X030352Y001281D02*
X030021Y001281D01*
X029628Y000887D01*
X024116Y000887D01*
X023328Y001675D01*
X025271Y007187D02*
X025321Y007236D01*
X025325Y007240D01*
X026659Y008760D02*
X026872Y008973D01*
X026872Y010336D01*
X026620Y011200D02*
X025660Y010240D01*
X025345Y010240D01*
X025335Y010250D01*
X025321Y010236D01*
X026620Y011200D02*
X027130Y011200D01*
X030203Y014273D01*
X031439Y014273D01*
X032383Y014116D02*
X032383Y013486D01*
X031399Y012502D01*
X031399Y012305D01*
X032580Y012305D02*
X033958Y012305D01*
X034368Y012714D01*
X034368Y012761D01*
X035368Y013761D02*
X035379Y013750D01*
X035379Y011600D01*
X032934Y009155D01*
X032777Y009155D01*
X029649Y007780D02*
X029609Y007740D01*
X029779Y007240D02*
X029789Y007230D01*
X022460Y009236D02*
X022321Y009236D01*
X025321Y012236D02*
X025389Y012305D01*
X027659Y012305D01*
X031202Y015848D01*
X033565Y015848D01*
X033972Y016256D01*
X033972Y018355D01*
X032541Y014273D02*
X032383Y014116D01*
X025691Y017423D02*
X024903Y016635D01*
X019391Y016635D01*
X016635Y013880D01*
X015848Y013880D01*
X022110Y014236D02*
X022321Y014236D01*
X025691Y017423D02*
X025691Y018285D01*
X025636Y018340D01*
X007698Y016242D02*
X005218Y016242D01*
X001620Y012643D01*
X001620Y012376D01*
D21*
X004431Y008368D03*
X012698Y005218D03*
X014443Y005218D03*
X010336Y000887D03*
X023328Y001675D03*
X029649Y007780D03*
X026659Y008760D03*
X026872Y010336D03*
X032777Y009155D03*
X034059Y008580D03*
X015848Y013880D03*
X013880Y014667D03*
X014273Y015848D03*
D22*
X022460Y009236D02*
X024509Y007187D01*
X025271Y007187D01*
X025325Y007240D02*
X029779Y007240D01*
X029789Y007230D02*
X032709Y007230D01*
X034059Y008580D01*
X014443Y005218D02*
X012698Y005218D01*
D23*
X023722Y008557D02*
X023722Y011911D01*
X023397Y012236D01*
X022321Y012236D01*
X023722Y008557D02*
X024539Y007740D01*
X029609Y007740D01*
M02*
