G75*
%MOIN*%
%OFA0B0*%
%FSLAX24Y24*%
%IPPOS*%
%LPD*%
%AMOC8*
5,1,8,0,0,1.08239X$1,22.5*
%
%ADD10C,0.0000*%
%ADD11C,0.0560*%
%ADD12C,0.0780*%
%ADD13R,0.0512X0.0591*%
%ADD14R,0.0670X0.0749*%
%ADD15C,0.0640*%
%ADD16C,0.0926*%
%ADD17C,0.0640*%
%ADD18C,0.1700*%
%ADD19R,0.0827X0.0670*%
D10*
X000100Y000100D02*
X000100Y019391D01*
X037502Y019391D01*
X037502Y000100D01*
X000100Y000100D01*
D11*
X022061Y002236D02*
X022581Y002236D01*
X022581Y003236D02*
X022061Y003236D01*
X022061Y004236D02*
X022581Y004236D01*
X022581Y005236D02*
X022061Y005236D01*
X022061Y006236D02*
X022581Y006236D01*
X022581Y007236D02*
X022061Y007236D01*
X022061Y008236D02*
X022581Y008236D01*
X022581Y009236D02*
X022061Y009236D01*
X022061Y010236D02*
X022581Y010236D01*
X022581Y011236D02*
X022061Y011236D01*
X022061Y012236D02*
X022581Y012236D01*
X022581Y013236D02*
X022061Y013236D01*
X022061Y014236D02*
X022581Y014236D01*
X022581Y015236D02*
X022061Y015236D01*
X025061Y015236D02*
X025581Y015236D01*
X025581Y014236D02*
X025061Y014236D01*
X025061Y013236D02*
X025581Y013236D01*
X025581Y012236D02*
X025061Y012236D01*
X025061Y011236D02*
X025581Y011236D01*
X025581Y010236D02*
X025061Y010236D01*
X025061Y009236D02*
X025581Y009236D01*
X025581Y008236D02*
X025061Y008236D01*
X025061Y007236D02*
X025581Y007236D01*
X025581Y006236D02*
X025061Y006236D01*
X025061Y005236D02*
X025581Y005236D01*
X025581Y004236D02*
X025061Y004236D01*
X025061Y003236D02*
X025581Y003236D01*
X025581Y002236D02*
X025061Y002236D01*
D12*
X030352Y001281D03*
X031352Y001281D03*
X032352Y001281D03*
X033352Y001281D03*
X034352Y001281D03*
X001620Y007376D03*
X001620Y008376D03*
X001620Y009376D03*
X001620Y010376D03*
X001620Y011376D03*
X001620Y012376D03*
X022636Y018340D03*
X023636Y018340D03*
X024636Y018340D03*
X025636Y018340D03*
X028972Y018355D03*
X029972Y018355D03*
X030972Y018355D03*
X031972Y018355D03*
X032972Y018355D03*
X033972Y018355D03*
D13*
X032580Y012305D03*
X031399Y012305D03*
X004026Y004877D03*
X002845Y004877D03*
D14*
X002900Y002452D03*
X004003Y002452D03*
X031439Y014273D03*
X032541Y014273D03*
D15*
X035368Y013761D03*
D16*
X036368Y012761D03*
X034368Y012761D03*
X034368Y014761D03*
X036368Y014761D03*
D17*
X009037Y002250D02*
X009037Y001650D01*
X007037Y001650D02*
X007037Y002250D01*
D18*
X001379Y001360D03*
X019785Y002462D03*
X027853Y002462D03*
X036237Y001370D03*
X027853Y014467D03*
X019785Y014467D03*
X036237Y018126D03*
X001373Y018130D03*
D19*
X007698Y016242D03*
X009824Y016242D03*
M02*
