G75*
%MOIN*%
%OFA0B0*%
%FSLAX24Y24*%
%IPPOS*%
%LPD*%
%AMOC8*
5,1,8,0,0,1.08239X$1,22.5*
%
%ADD10C,0.0000*%
%ADD11C,0.0040*%
%ADD12C,0.0060*%
%ADD13C,0.0080*%
%ADD14C,0.0050*%
%ADD15C,0.0070*%
D10*
X000100Y000100D02*
X000100Y019391D01*
X037502Y019391D01*
X037502Y000100D01*
X000100Y000100D01*
D11*
X003036Y001312D02*
X003296Y001485D01*
X003036Y001659D01*
X003296Y001832D02*
X003296Y001312D01*
X003464Y001312D02*
X003811Y001312D01*
X003638Y001312D02*
X003638Y001832D01*
X003811Y001659D01*
X004065Y003767D02*
X004065Y004287D01*
X003805Y004287D01*
X003718Y004201D01*
X003718Y004027D01*
X003805Y003940D01*
X004065Y003940D01*
X003550Y003767D02*
X003376Y003940D01*
X003203Y003767D01*
X003203Y004287D01*
X003034Y004287D02*
X002774Y004287D01*
X002687Y004201D01*
X002687Y004027D01*
X002774Y003940D01*
X003034Y003940D01*
X003034Y003767D02*
X003034Y004287D01*
X002861Y003940D02*
X002687Y003767D01*
X003550Y003767D02*
X003550Y004287D01*
X007746Y014900D02*
X007746Y015360D01*
X007593Y015360D02*
X007900Y015360D01*
X008053Y015360D02*
X008360Y015360D01*
X008360Y014900D01*
X008053Y014900D01*
X008207Y015130D02*
X008360Y015130D01*
X008514Y015053D02*
X008514Y014976D01*
X008590Y014900D01*
X008744Y014900D01*
X008821Y014976D01*
X008974Y014900D02*
X009281Y014900D01*
X009281Y015360D01*
X008974Y015360D01*
X008821Y015283D02*
X008821Y015206D01*
X008744Y015130D01*
X008590Y015130D01*
X008514Y015053D01*
X008514Y015283D02*
X008590Y015360D01*
X008744Y015360D01*
X008821Y015283D01*
X009128Y015130D02*
X009281Y015130D01*
X009434Y015130D02*
X009434Y015283D01*
X009511Y015360D01*
X009741Y015360D01*
X009741Y014900D01*
X009741Y015053D02*
X009511Y015053D01*
X009434Y015130D01*
X009588Y015053D02*
X009434Y014900D01*
X022379Y016467D02*
X022379Y016620D01*
X022456Y016697D01*
X022609Y016697D01*
X022609Y016543D01*
X022456Y016390D02*
X022763Y016390D01*
X022839Y016467D01*
X022839Y016620D01*
X022763Y016697D01*
X022839Y016850D02*
X022379Y016850D01*
X022379Y017157D02*
X022839Y016850D01*
X022839Y017157D02*
X022379Y017157D01*
X022379Y017311D02*
X022379Y017541D01*
X022456Y017618D01*
X022763Y017618D01*
X022839Y017541D01*
X022839Y017311D01*
X022379Y017311D01*
X023419Y017270D02*
X023879Y017577D01*
X023879Y017270D02*
X023419Y017577D01*
X024429Y017547D02*
X024889Y017240D01*
X024813Y017087D02*
X024659Y017087D01*
X024582Y017010D01*
X024582Y016780D01*
X024429Y016780D02*
X024889Y016780D01*
X024889Y017010D01*
X024813Y017087D01*
X024582Y016933D02*
X024429Y017087D01*
X024429Y017240D02*
X024889Y017547D01*
X025459Y017491D02*
X025459Y017338D01*
X025536Y017261D01*
X025612Y017107D02*
X025919Y017107D01*
X025843Y017261D02*
X025919Y017338D01*
X025919Y017491D01*
X025843Y017568D01*
X025766Y017568D01*
X025689Y017491D01*
X025612Y017568D01*
X025536Y017568D01*
X025459Y017491D01*
X025689Y017491D02*
X025689Y017414D01*
X025612Y017107D02*
X025459Y016954D01*
X025612Y016800D01*
X025919Y016800D01*
X025843Y016647D02*
X025766Y016647D01*
X025689Y016570D01*
X025612Y016647D01*
X025536Y016647D01*
X025459Y016570D01*
X025459Y016417D01*
X025536Y016340D01*
X025689Y016493D02*
X025689Y016570D01*
X025843Y016647D02*
X025919Y016570D01*
X025919Y016417D01*
X025843Y016340D01*
X023879Y016810D02*
X023879Y017117D01*
X023879Y016963D02*
X023419Y016963D01*
X022456Y016390D02*
X022379Y016467D01*
X028670Y016443D02*
X028670Y016270D01*
X028757Y016183D01*
X029104Y016183D01*
X029190Y016270D01*
X029190Y016443D01*
X029104Y016530D01*
X028930Y016530D02*
X028930Y016357D01*
X028930Y016530D02*
X028757Y016530D01*
X028670Y016443D01*
X028670Y016699D02*
X029190Y016699D01*
X028670Y017046D01*
X029190Y017046D01*
X029190Y017214D02*
X028670Y017214D01*
X028670Y017475D01*
X028757Y017561D01*
X029104Y017561D01*
X029190Y017475D01*
X029190Y017214D01*
X029711Y017268D02*
X029798Y017181D01*
X029711Y017268D02*
X029711Y017441D01*
X029798Y017528D01*
X029885Y017528D01*
X029971Y017441D01*
X029971Y017354D01*
X029971Y017441D02*
X030058Y017528D01*
X030145Y017528D01*
X030232Y017441D01*
X030232Y017268D01*
X030145Y017181D01*
X030232Y017012D02*
X029885Y017012D01*
X029711Y016839D01*
X029885Y016665D01*
X030232Y016665D01*
X030145Y016497D02*
X030058Y016497D01*
X029971Y016410D01*
X029885Y016497D01*
X029798Y016497D01*
X029711Y016410D01*
X029711Y016236D01*
X029798Y016150D01*
X029971Y016323D02*
X029971Y016410D01*
X030145Y016497D02*
X030232Y016410D01*
X030232Y016236D01*
X030145Y016150D01*
X030742Y016233D02*
X030829Y016146D01*
X030742Y016233D02*
X030742Y016406D01*
X030829Y016493D01*
X030916Y016493D01*
X031003Y016406D01*
X031003Y016233D01*
X031089Y016146D01*
X031176Y016146D01*
X031263Y016233D01*
X031263Y016406D01*
X031176Y016493D01*
X031176Y016662D02*
X030829Y016662D01*
X030742Y016748D01*
X030742Y016922D01*
X030829Y017009D01*
X030742Y017177D02*
X030742Y017524D01*
X030742Y017177D02*
X031263Y017177D01*
X031176Y017009D02*
X031263Y016922D01*
X031263Y016748D01*
X031176Y016662D01*
X031733Y016662D02*
X031733Y016922D01*
X031820Y017009D01*
X032167Y017009D01*
X032254Y016922D01*
X032254Y016662D01*
X031733Y016662D01*
X031820Y016493D02*
X031733Y016406D01*
X031733Y016233D01*
X031820Y016146D01*
X031994Y016233D02*
X031994Y016406D01*
X031907Y016493D01*
X031820Y016493D01*
X031994Y016233D02*
X032080Y016146D01*
X032167Y016146D01*
X032254Y016233D01*
X032254Y016406D01*
X032167Y016493D01*
X032731Y016652D02*
X033078Y016652D01*
X033251Y016825D01*
X033078Y016999D01*
X032731Y016999D01*
X032818Y017167D02*
X032731Y017254D01*
X032731Y017427D01*
X032818Y017514D01*
X032904Y017514D01*
X032991Y017427D01*
X032991Y017341D01*
X032991Y017427D02*
X033078Y017514D01*
X033165Y017514D01*
X033251Y017427D01*
X033251Y017254D01*
X033165Y017167D01*
X032991Y016999D02*
X032991Y016652D01*
X033732Y016652D02*
X034079Y016652D01*
X034252Y016825D01*
X034079Y016999D01*
X033732Y016999D01*
X033732Y017167D02*
X034079Y017514D01*
X034166Y017514D01*
X034252Y017427D01*
X034252Y017254D01*
X034166Y017167D01*
X033992Y016999D02*
X033992Y016652D01*
X033732Y017167D02*
X033732Y017514D01*
X032254Y017351D02*
X032080Y017177D01*
X031733Y017177D01*
X031994Y017177D02*
X031994Y017524D01*
X032080Y017524D02*
X031733Y017524D01*
X032080Y017524D02*
X032254Y017351D01*
X034719Y015867D02*
X034872Y016020D01*
X035025Y015867D01*
X035025Y015560D01*
X035179Y015560D02*
X035179Y016020D01*
X035332Y015867D01*
X035486Y016020D01*
X035486Y015560D01*
X035639Y015637D02*
X035716Y015560D01*
X035869Y015560D01*
X035946Y015637D01*
X035869Y015790D02*
X035716Y015790D01*
X035639Y015713D01*
X035639Y015637D01*
X035869Y015790D02*
X035946Y015867D01*
X035946Y015944D01*
X035869Y016020D01*
X035716Y016020D01*
X035639Y015944D01*
X035025Y015790D02*
X034719Y015790D01*
X034719Y015867D02*
X034719Y015560D01*
X032380Y013595D02*
X032206Y013769D01*
X032206Y013248D01*
X032033Y013248D02*
X032380Y013248D01*
X031864Y013248D02*
X031864Y013769D01*
X031604Y013595D02*
X031864Y013422D01*
X031604Y013248D01*
X031641Y011715D02*
X031901Y011715D01*
X031901Y011195D01*
X031641Y011195D01*
X031554Y011281D01*
X031554Y011628D01*
X031641Y011715D01*
X031385Y011628D02*
X031299Y011715D01*
X031125Y011715D01*
X031038Y011628D01*
X031038Y011542D01*
X031385Y011195D01*
X031038Y011195D01*
X032070Y011195D02*
X032417Y011195D01*
X032417Y011715D01*
X032070Y011715D01*
X032243Y011455D02*
X032417Y011455D01*
X032585Y011195D02*
X032932Y011195D01*
X032932Y011715D01*
X031510Y003465D02*
X031423Y003465D01*
X031336Y003378D01*
X031250Y003465D01*
X031163Y003465D01*
X031076Y003378D01*
X031076Y003204D01*
X031163Y003118D01*
X031250Y002949D02*
X031076Y002776D01*
X031250Y002602D01*
X031597Y002602D01*
X031510Y002433D02*
X031423Y002433D01*
X031336Y002347D01*
X031250Y002433D01*
X031163Y002433D01*
X031076Y002347D01*
X031076Y002173D01*
X031163Y002086D01*
X031336Y002260D02*
X031336Y002347D01*
X031510Y002433D02*
X031597Y002347D01*
X031597Y002173D01*
X031510Y002086D01*
X032087Y002088D02*
X032087Y002349D01*
X032174Y002435D01*
X032521Y002435D01*
X032608Y002349D01*
X032608Y002088D01*
X032087Y002088D01*
X032087Y002604D02*
X032174Y002604D01*
X032521Y002951D01*
X032608Y002951D01*
X032608Y002604D01*
X033125Y002691D02*
X033125Y002864D01*
X033211Y002951D01*
X033298Y002951D01*
X033385Y002864D01*
X033385Y002604D01*
X033211Y002604D01*
X033125Y002691D01*
X033211Y002435D02*
X033558Y002435D01*
X033645Y002349D01*
X033645Y002088D01*
X033125Y002088D01*
X033125Y002349D01*
X033211Y002435D01*
X033385Y002604D02*
X033558Y002777D01*
X033645Y002951D01*
X034126Y002864D02*
X034126Y002691D01*
X034212Y002604D01*
X034212Y002435D02*
X034559Y002435D01*
X034646Y002349D01*
X034646Y002088D01*
X034126Y002088D01*
X034126Y002349D01*
X034212Y002435D01*
X034386Y002604D02*
X034473Y002777D01*
X034473Y002864D01*
X034386Y002951D01*
X034212Y002951D01*
X034126Y002864D01*
X034386Y002604D02*
X034646Y002604D01*
X034646Y002951D01*
X031597Y002949D02*
X031250Y002949D01*
X031510Y003118D02*
X031597Y003204D01*
X031597Y003378D01*
X031510Y003465D01*
X031336Y003378D02*
X031336Y003291D01*
X030605Y003382D02*
X030605Y003121D01*
X030085Y003121D01*
X030085Y003382D01*
X030172Y003468D01*
X030519Y003468D01*
X030605Y003382D01*
X030605Y002953D02*
X030085Y002953D01*
X030605Y002606D01*
X030085Y002606D01*
X030172Y002437D02*
X030345Y002437D01*
X030345Y002264D01*
X030172Y002437D02*
X030085Y002350D01*
X030085Y002177D01*
X030172Y002090D01*
X030519Y002090D01*
X030605Y002177D01*
X030605Y002350D01*
X030519Y002437D01*
D12*
X004141Y006923D02*
X003820Y006923D01*
X003714Y007030D01*
X003714Y007457D01*
X003820Y007563D01*
X004141Y007563D01*
X004141Y006923D01*
X003283Y006923D02*
X003283Y007563D01*
X003496Y007563D02*
X003069Y007563D01*
X002852Y007563D02*
X002531Y007563D01*
X002425Y007457D01*
X002425Y007243D01*
X002531Y007136D01*
X002852Y007136D01*
X002852Y006923D02*
X002852Y007563D01*
X002638Y007136D02*
X002425Y006923D01*
X002417Y008040D02*
X002844Y008681D01*
X003062Y008574D02*
X003062Y008360D01*
X003169Y008254D01*
X003489Y008254D01*
X003275Y008254D02*
X003062Y008040D01*
X002844Y008040D02*
X002417Y008681D01*
X002417Y009050D02*
X002844Y009691D01*
X003062Y009691D02*
X003489Y009691D01*
X003275Y009691D02*
X003275Y009050D01*
X002844Y009050D02*
X002417Y009691D01*
X002636Y010040D02*
X002423Y010254D01*
X002423Y010681D01*
X002850Y010681D02*
X002850Y010254D01*
X002636Y010040D01*
X003067Y010147D02*
X003174Y010040D01*
X003388Y010040D01*
X003494Y010147D01*
X003494Y010360D02*
X003281Y010467D01*
X003174Y010467D01*
X003067Y010360D01*
X003067Y010147D01*
X003494Y010360D02*
X003494Y010681D01*
X003067Y010681D01*
X003712Y010360D02*
X004139Y010360D01*
X003925Y010147D02*
X003925Y010574D01*
X003819Y011060D02*
X003712Y011167D01*
X003819Y011060D02*
X004032Y011060D01*
X004139Y011167D01*
X004139Y011594D01*
X004032Y011701D01*
X003819Y011701D01*
X003712Y011594D01*
X003494Y011701D02*
X003067Y011701D01*
X003281Y011701D02*
X003281Y011060D01*
X002850Y011167D02*
X002743Y011060D01*
X002530Y011060D01*
X002423Y011167D01*
X002423Y011274D01*
X002530Y011380D01*
X002743Y011380D01*
X002850Y011487D01*
X002850Y011594D01*
X002743Y011701D01*
X002530Y011701D01*
X002423Y011594D01*
X002536Y012060D02*
X002429Y012167D01*
X002429Y012594D01*
X002536Y012701D01*
X002856Y012701D01*
X002856Y012060D01*
X002536Y012060D01*
X003074Y012060D02*
X003074Y012701D01*
X003501Y012701D02*
X003074Y012060D01*
X003501Y012060D02*
X003501Y012701D01*
X003718Y012594D02*
X003825Y012701D01*
X004038Y012701D01*
X004145Y012594D01*
X004145Y012167D01*
X004038Y012060D01*
X003825Y012060D01*
X003718Y012167D01*
X003718Y012380D01*
X003932Y012380D01*
X003489Y008681D02*
X003169Y008681D01*
X003062Y008574D01*
X003489Y008681D02*
X003489Y008040D01*
X014923Y017166D02*
X015030Y017059D01*
X015243Y017059D01*
X015350Y017166D01*
X015350Y017273D01*
X015243Y017379D01*
X015030Y017379D01*
X014923Y017273D01*
X014923Y017166D01*
X015030Y017379D02*
X014923Y017486D01*
X014923Y017593D01*
X015030Y017700D01*
X015243Y017700D01*
X015350Y017593D01*
X015350Y017486D01*
X015243Y017379D01*
X015568Y017166D02*
X015674Y017059D01*
X015888Y017059D01*
X015995Y017166D01*
X015568Y017593D01*
X015568Y017166D01*
X015995Y017166D02*
X015995Y017593D01*
X015888Y017700D01*
X015674Y017700D01*
X015568Y017593D01*
X015675Y018109D02*
X015995Y018109D01*
X016102Y018216D01*
X015995Y018323D01*
X015675Y018323D01*
X015675Y018429D02*
X015675Y018109D01*
X015675Y018429D02*
X015782Y018536D01*
X015995Y018536D01*
X016319Y018536D02*
X016426Y018536D01*
X016639Y018323D01*
X016639Y018536D02*
X016639Y018109D01*
X016857Y018109D02*
X016857Y018536D01*
X017284Y018536D02*
X017284Y018216D01*
X017177Y018109D01*
X016857Y018109D01*
X017501Y018216D02*
X017501Y018429D01*
X017608Y018536D01*
X017928Y018536D01*
X017928Y017896D01*
X017928Y017700D02*
X017501Y017700D01*
X017501Y017593D01*
X017928Y017166D01*
X017928Y017059D01*
X018146Y017166D02*
X018253Y017059D01*
X018466Y017059D01*
X018573Y017166D01*
X018146Y017593D01*
X018146Y017166D01*
X018573Y017166D02*
X018573Y017593D01*
X018466Y017700D01*
X018253Y017700D01*
X018146Y017593D01*
X018253Y018109D02*
X018466Y018109D01*
X018573Y018216D01*
X018573Y018429D01*
X018466Y018536D01*
X018253Y018536D01*
X018146Y018429D01*
X018146Y018323D01*
X018573Y018323D01*
X018790Y018216D02*
X018897Y018323D01*
X019111Y018323D01*
X019217Y018429D01*
X019111Y018536D01*
X018790Y018536D01*
X018790Y018216D02*
X018897Y018109D01*
X019217Y018109D01*
X019434Y018109D02*
X019540Y018216D01*
X019540Y018643D01*
X019434Y018536D02*
X019647Y018536D01*
X019865Y018429D02*
X019865Y018109D01*
X020185Y018109D01*
X020292Y018216D01*
X020185Y018323D01*
X019865Y018323D01*
X019865Y018429D02*
X019971Y018536D01*
X020185Y018536D01*
X020509Y018750D02*
X020509Y018109D01*
X020936Y018109D02*
X020936Y018750D01*
X020723Y018536D01*
X020509Y018750D01*
X020509Y017700D02*
X020509Y017059D01*
X020292Y017059D02*
X020292Y017486D01*
X020078Y017700D01*
X019865Y017486D01*
X019865Y017059D01*
X019647Y017059D02*
X019434Y017059D01*
X019540Y017059D02*
X019540Y017700D01*
X019434Y017700D02*
X019647Y017700D01*
X019865Y017379D02*
X020292Y017379D01*
X020509Y017700D02*
X020723Y017486D01*
X020936Y017700D01*
X020936Y017059D01*
X017928Y018109D02*
X017608Y018109D01*
X017501Y018216D01*
X016639Y017379D02*
X016426Y017593D01*
X016212Y017700D01*
X016319Y017379D02*
X016639Y017379D01*
X016639Y017166D01*
X016532Y017059D01*
X016319Y017059D01*
X016212Y017166D01*
X016212Y017273D01*
X016319Y017379D01*
X016857Y017379D02*
X017284Y017379D01*
X014813Y018109D02*
X014813Y018536D01*
X014599Y018750D01*
X014386Y018536D01*
X014386Y018109D01*
X014168Y018109D02*
X014168Y018216D01*
X014062Y018216D01*
X014062Y018109D01*
X014168Y018109D01*
X013846Y018109D02*
X013846Y018750D01*
X013633Y018536D01*
X013419Y018750D01*
X013419Y018109D01*
X013202Y018109D02*
X013095Y018109D01*
X013095Y018216D01*
X013202Y018216D01*
X013202Y018109D01*
X014386Y018429D02*
X014813Y018429D01*
D13*
X009943Y016931D02*
X009943Y016734D01*
X009943Y016931D02*
X007580Y016931D01*
X007580Y016734D01*
X008269Y016537D02*
X009254Y016537D01*
X009254Y015946D02*
X008289Y015946D01*
X007580Y015750D02*
X007580Y015553D01*
X009943Y015553D01*
X009943Y015750D01*
X002120Y012626D02*
X002120Y012126D01*
X001870Y011876D01*
X002120Y011626D01*
X002120Y011126D01*
X001870Y010876D01*
X002120Y010626D01*
X002120Y010126D01*
X001870Y009876D01*
X002120Y009626D01*
X002120Y009126D01*
X001870Y008876D01*
X002120Y008626D01*
X002120Y008126D01*
X001870Y007876D01*
X002120Y007626D01*
X002120Y007126D01*
X001870Y006876D01*
X001370Y006876D01*
X001120Y007126D01*
X001120Y007626D01*
X001370Y007876D01*
X001120Y008126D01*
X001120Y008626D01*
X001370Y008876D01*
X001120Y009126D01*
X001120Y009626D01*
X001370Y009876D01*
X001120Y010126D01*
X001120Y010626D01*
X001370Y010876D01*
X001120Y011126D01*
X001120Y011626D01*
X001370Y011876D01*
X001120Y012126D01*
X001120Y012626D01*
X001370Y012876D01*
X001870Y012876D01*
X002120Y012626D01*
X002490Y005271D02*
X002490Y004483D01*
X003042Y004483D01*
X003317Y004601D02*
X003317Y004877D01*
X003553Y004641D01*
X003553Y005113D01*
X003317Y004877D01*
X003317Y005153D01*
X003042Y005271D02*
X002490Y005271D01*
X003829Y005271D02*
X004380Y005271D01*
X004380Y004483D01*
X003829Y004483D01*
X022136Y018090D02*
X022386Y017840D01*
X022886Y017840D01*
X023136Y018090D01*
X023386Y017840D01*
X023886Y017840D01*
X024136Y018090D01*
X024386Y017840D01*
X024886Y017840D01*
X025136Y018090D01*
X025386Y017840D01*
X025886Y017840D01*
X026136Y018090D01*
X026136Y018590D01*
X025886Y018840D01*
X025386Y018840D01*
X025136Y018590D01*
X024886Y018840D01*
X024386Y018840D01*
X024136Y018590D01*
X023886Y018840D01*
X023386Y018840D01*
X023136Y018590D01*
X022886Y018840D01*
X022386Y018840D01*
X022136Y018590D01*
X022136Y018090D01*
X028472Y018105D02*
X028472Y018605D01*
X028722Y018855D01*
X029222Y018855D01*
X029472Y018605D01*
X029722Y018855D01*
X030222Y018855D01*
X030472Y018605D01*
X030722Y018855D01*
X031222Y018855D01*
X031472Y018605D01*
X031722Y018855D01*
X032222Y018855D01*
X032472Y018605D01*
X032722Y018855D01*
X033222Y018855D01*
X033472Y018605D01*
X033722Y018855D01*
X034222Y018855D01*
X034472Y018605D01*
X034472Y018105D01*
X034222Y017855D01*
X033722Y017855D01*
X033472Y018105D01*
X033222Y017855D01*
X032722Y017855D01*
X032472Y018105D01*
X032222Y017855D01*
X031722Y017855D01*
X031472Y018105D01*
X031222Y017855D01*
X030722Y017855D01*
X030472Y018105D01*
X030222Y017855D01*
X029722Y017855D01*
X029472Y018105D01*
X029222Y017855D01*
X028722Y017855D01*
X028472Y018105D01*
X034935Y015021D02*
X035761Y015021D01*
X036628Y014155D02*
X036628Y013407D01*
X034659Y013761D02*
X034661Y013814D01*
X034667Y013867D01*
X034677Y013919D01*
X034690Y013970D01*
X034708Y014020D01*
X034729Y014069D01*
X034754Y014116D01*
X034782Y014160D01*
X034814Y014203D01*
X034848Y014243D01*
X034886Y014281D01*
X034926Y014315D01*
X034969Y014347D01*
X035014Y014375D01*
X035060Y014400D01*
X035109Y014421D01*
X035159Y014439D01*
X035210Y014452D01*
X035262Y014462D01*
X035315Y014468D01*
X035368Y014470D01*
X035421Y014468D01*
X035474Y014462D01*
X035526Y014452D01*
X035577Y014439D01*
X035627Y014421D01*
X035676Y014400D01*
X035723Y014375D01*
X035767Y014347D01*
X035810Y014315D01*
X035850Y014281D01*
X035888Y014243D01*
X035922Y014203D01*
X035954Y014160D01*
X035982Y014115D01*
X036007Y014069D01*
X036028Y014020D01*
X036046Y013970D01*
X036059Y013919D01*
X036069Y013867D01*
X036075Y013814D01*
X036077Y013761D01*
X036075Y013708D01*
X036069Y013655D01*
X036059Y013603D01*
X036046Y013552D01*
X036028Y013502D01*
X036007Y013453D01*
X035982Y013406D01*
X035954Y013362D01*
X035922Y013319D01*
X035888Y013279D01*
X035850Y013241D01*
X035810Y013207D01*
X035767Y013175D01*
X035722Y013147D01*
X035676Y013122D01*
X035627Y013101D01*
X035577Y013083D01*
X035526Y013070D01*
X035474Y013060D01*
X035421Y013054D01*
X035368Y013052D01*
X035315Y013054D01*
X035262Y013060D01*
X035210Y013070D01*
X035159Y013083D01*
X035109Y013101D01*
X035060Y013122D01*
X035013Y013147D01*
X034969Y013175D01*
X034926Y013207D01*
X034886Y013241D01*
X034848Y013279D01*
X034814Y013319D01*
X034782Y013362D01*
X034754Y013407D01*
X034729Y013453D01*
X034708Y013502D01*
X034690Y013552D01*
X034677Y013603D01*
X034667Y013655D01*
X034661Y013708D01*
X034659Y013761D01*
X034108Y013407D02*
X034108Y014155D01*
X032935Y012698D02*
X032383Y012698D01*
X032108Y012580D02*
X032108Y012305D01*
X031872Y012541D01*
X031872Y012069D01*
X032108Y012305D01*
X032108Y012029D01*
X032383Y011911D02*
X032935Y011911D01*
X032935Y012698D01*
X031596Y012698D02*
X031045Y012698D01*
X031045Y011911D01*
X031596Y011911D01*
X034974Y012502D02*
X035761Y012502D01*
X034602Y001781D02*
X034102Y001781D01*
X033852Y001531D01*
X033602Y001781D01*
X033102Y001781D01*
X032852Y001531D01*
X032602Y001781D01*
X032102Y001781D01*
X031852Y001531D01*
X031602Y001781D01*
X031102Y001781D01*
X030852Y001531D01*
X030602Y001781D01*
X030102Y001781D01*
X029852Y001531D01*
X029852Y001031D01*
X030102Y000781D01*
X030602Y000781D01*
X030852Y001031D01*
X031102Y000781D01*
X031602Y000781D01*
X031852Y001031D01*
X032102Y000781D01*
X032602Y000781D01*
X032852Y001031D01*
X033102Y000781D01*
X033602Y000781D01*
X033852Y001031D01*
X034102Y000781D01*
X034602Y000781D01*
X034852Y001031D01*
X034852Y001531D01*
X034602Y001781D01*
D14*
X029034Y001281D02*
X029034Y015648D01*
X018604Y015648D01*
X018604Y001281D01*
X029034Y001281D01*
X015061Y003250D02*
X015061Y013880D01*
X005218Y013880D01*
X005218Y003250D01*
X015061Y003250D01*
D15*
X017631Y004310D02*
X017631Y004574D01*
X017763Y004705D01*
X018026Y004705D01*
X018026Y004442D01*
X017763Y004178D02*
X017631Y004310D01*
X017763Y004178D02*
X018290Y004178D01*
X018422Y004310D01*
X018422Y004574D01*
X018290Y004705D01*
X018422Y004970D02*
X018422Y005366D01*
X018290Y005497D01*
X018026Y005497D01*
X017895Y005366D01*
X017895Y004970D01*
X017631Y004970D02*
X018422Y004970D01*
X018290Y005762D02*
X018158Y005762D01*
X018026Y005894D01*
X018026Y006157D01*
X017895Y006289D01*
X017763Y006289D01*
X017631Y006157D01*
X017631Y005894D01*
X017763Y005762D01*
X018290Y005762D02*
X018422Y005894D01*
X018422Y006157D01*
X018290Y006289D01*
X017631Y006554D02*
X018422Y007081D01*
X018290Y007346D02*
X017763Y007346D01*
X017631Y007478D01*
X017631Y007741D01*
X017763Y007873D01*
X018026Y007873D01*
X018026Y007609D01*
X018290Y007346D02*
X018422Y007478D01*
X018422Y007741D01*
X018290Y007873D01*
X018422Y008138D02*
X017631Y008138D01*
X017631Y008665D01*
X017763Y008930D02*
X017631Y009061D01*
X017631Y009325D01*
X017763Y009457D01*
X018290Y009457D01*
X018422Y009325D01*
X018422Y009061D01*
X018290Y008930D01*
X017763Y008930D01*
X017631Y009721D02*
X018422Y009721D01*
X017631Y010249D01*
X018422Y010249D01*
X018158Y010513D02*
X018422Y010777D01*
X018158Y011040D01*
X017631Y011040D01*
X018026Y011040D02*
X018026Y010513D01*
X018158Y010513D02*
X017631Y010513D01*
X017763Y011305D02*
X017631Y011437D01*
X017631Y011701D01*
X017763Y011832D01*
X017895Y011832D01*
X018026Y011701D01*
X018026Y011437D01*
X018158Y011305D01*
X018290Y011305D01*
X018422Y011437D01*
X018422Y011701D01*
X018290Y011832D01*
X018290Y012097D02*
X018158Y012097D01*
X018026Y012229D01*
X018026Y012492D01*
X017895Y012624D01*
X017763Y012624D01*
X017631Y012492D01*
X017631Y012229D01*
X017763Y012097D01*
X018290Y012097D02*
X018422Y012229D01*
X018422Y012492D01*
X018290Y012624D01*
X011626Y002822D02*
X011362Y002558D01*
X011362Y002031D01*
X011098Y002031D02*
X011098Y002822D01*
X010570Y002031D01*
X010570Y002822D01*
X010306Y002822D02*
X009779Y002822D01*
X010042Y002822D02*
X010042Y002031D01*
X011362Y002426D02*
X011889Y002426D01*
X011889Y002558D02*
X011626Y002822D01*
X011889Y002558D02*
X011889Y002031D01*
M02*
