G75*
%MOIN*%
%OFA0B0*%
%FSLAX24Y24*%
%IPPOS*%
%LPD*%
%AMOC8*
5,1,8,0,0,1.08239X$1,22.5*
%
%ADD10C,0.0000*%
%ADD11C,0.0080*%
%ADD12C,0.0050*%
%ADD13C,0.0060*%
%ADD14C,0.0040*%
%ADD15C,0.0002*%
%ADD16C,0.0020*%
D10*
X000100Y000100D02*
X000100Y019391D01*
X037502Y019391D01*
X037502Y000100D01*
X000100Y000100D01*
D11*
X011487Y002148D02*
X014067Y002148D01*
X014067Y003548D01*
X011487Y003548D01*
X011487Y002148D01*
X022621Y001836D02*
X022621Y001736D01*
X025021Y001736D01*
X025021Y001836D01*
X027973Y004036D02*
X035729Y004036D01*
X033819Y004430D02*
X029882Y004430D01*
X029882Y005611D01*
X033819Y005611D01*
X033819Y004430D01*
X033819Y007579D02*
X031851Y007579D01*
X031851Y009548D01*
X033819Y009548D01*
X033819Y007579D01*
X035729Y010335D02*
X027973Y010335D01*
X025021Y015636D02*
X025021Y015736D01*
X024321Y015736D01*
X024319Y015692D01*
X024313Y015649D01*
X024304Y015607D01*
X024291Y015565D01*
X024274Y015525D01*
X024254Y015486D01*
X024231Y015449D01*
X024204Y015415D01*
X024175Y015382D01*
X024142Y015353D01*
X024108Y015326D01*
X024071Y015303D01*
X024032Y015283D01*
X023992Y015266D01*
X023950Y015253D01*
X023908Y015244D01*
X023865Y015238D01*
X023821Y015236D01*
X023777Y015238D01*
X023734Y015244D01*
X023692Y015253D01*
X023650Y015266D01*
X023610Y015283D01*
X023571Y015303D01*
X023534Y015326D01*
X023500Y015353D01*
X023467Y015382D01*
X023438Y015415D01*
X023411Y015449D01*
X023388Y015486D01*
X023368Y015525D01*
X023351Y015565D01*
X023338Y015607D01*
X023329Y015649D01*
X023323Y015692D01*
X023321Y015736D01*
X022621Y015736D01*
X022621Y015636D01*
X014125Y010207D02*
X013692Y010640D01*
X012039Y010640D01*
X012039Y009813D01*
X012039Y009380D02*
X012039Y008553D01*
X013692Y008553D01*
X014125Y008986D01*
X014125Y009400D01*
X014125Y009813D02*
X014125Y010207D01*
X014047Y009399D02*
X014032Y009339D01*
X014014Y009280D01*
X013991Y009222D01*
X013965Y009165D01*
X013936Y009111D01*
X013903Y009058D01*
X013867Y009007D01*
X013828Y008959D01*
X013786Y008913D01*
X013741Y008871D01*
X013694Y008830D01*
X013644Y008794D01*
X013592Y008760D01*
X013538Y008729D01*
X013482Y008702D01*
X013424Y008679D01*
X013365Y008659D01*
X013305Y008643D01*
X013245Y008631D01*
X013183Y008622D01*
X013121Y008618D01*
X013059Y008617D01*
X012997Y008620D01*
X012935Y008628D01*
X012874Y008639D01*
X012814Y008653D01*
X012755Y008672D01*
X012697Y008694D01*
X012640Y008720D01*
X012586Y008749D01*
X012533Y008782D01*
X012482Y008818D01*
X012434Y008857D01*
X012388Y008899D01*
X012345Y008944D01*
X012305Y008991D01*
X012268Y009041D01*
X012234Y009093D01*
X012204Y009147D01*
X012177Y009203D01*
X012153Y009261D01*
X012133Y009320D01*
X012117Y009380D01*
X012117Y009813D02*
X012132Y009872D01*
X012150Y009929D01*
X012172Y009986D01*
X012197Y010041D01*
X012226Y010094D01*
X012258Y010146D01*
X012293Y010195D01*
X012331Y010242D01*
X012372Y010287D01*
X012416Y010329D01*
X012462Y010368D01*
X012510Y010404D01*
X012561Y010438D01*
X012614Y010468D01*
X012668Y010494D01*
X012724Y010518D01*
X012781Y010537D01*
X012840Y010553D01*
X012899Y010566D01*
X012959Y010575D01*
X013019Y010580D01*
X013080Y010581D01*
X013141Y010578D01*
X013201Y010572D01*
X013261Y010562D01*
X013320Y010548D01*
X013378Y010531D01*
X013435Y010510D01*
X013490Y010486D01*
X013544Y010458D01*
X013596Y010427D01*
X013646Y010393D01*
X013694Y010355D01*
X013739Y010315D01*
X013782Y010272D01*
X013822Y010227D01*
X013859Y010179D01*
X013893Y010129D01*
X013924Y010077D01*
X013951Y010023D01*
X013976Y009967D01*
X013996Y009910D01*
X014013Y009852D01*
X014027Y009793D01*
D12*
X017623Y007517D02*
X017924Y007217D01*
X017924Y007517D01*
X017623Y007517D02*
X017623Y007217D01*
X017698Y007057D02*
X017698Y006756D01*
X017473Y006756D02*
X017924Y006756D01*
X017924Y006596D02*
X017473Y006596D01*
X017623Y006446D01*
X017473Y006296D01*
X017924Y006296D01*
X017848Y006136D02*
X017773Y006136D01*
X017698Y006061D01*
X017698Y005836D01*
X017848Y005836D01*
X017924Y005911D01*
X017924Y006061D01*
X017848Y006136D01*
X017548Y005986D02*
X017698Y005836D01*
X017548Y005986D02*
X017473Y006136D01*
X017924Y005675D02*
X017924Y005375D01*
X017924Y005525D02*
X017473Y005525D01*
X017623Y005375D01*
X017473Y007057D02*
X017924Y007057D01*
X023635Y008089D02*
X023786Y008239D01*
X024086Y008239D01*
X023861Y008239D02*
X023861Y007939D01*
X023786Y007939D02*
X023635Y008089D01*
X023786Y007939D02*
X024086Y007939D01*
X024086Y008549D02*
X023635Y008549D01*
X023635Y008399D02*
X023635Y008699D01*
X023635Y008859D02*
X023786Y009010D01*
X023635Y009160D01*
X024086Y009160D01*
X024086Y009320D02*
X024086Y009620D01*
X024011Y009780D02*
X024086Y009855D01*
X024086Y010005D01*
X024011Y010081D01*
X023861Y010081D01*
X023861Y009930D01*
X023710Y009780D02*
X024011Y009780D01*
X023710Y009780D02*
X023635Y009855D01*
X023635Y010005D01*
X023710Y010081D01*
X023786Y010241D02*
X023635Y010391D01*
X023786Y010541D01*
X024086Y010541D01*
X024011Y010701D02*
X024086Y010776D01*
X024086Y010926D01*
X024011Y011001D01*
X023936Y011001D01*
X023861Y010926D01*
X023861Y010851D01*
X023861Y010926D02*
X023786Y011001D01*
X023710Y011001D01*
X023635Y010926D01*
X023635Y010776D01*
X023710Y010701D01*
X023861Y010541D02*
X023861Y010241D01*
X023786Y010241D02*
X024086Y010241D01*
X023635Y009620D02*
X023635Y009320D01*
X024086Y009320D01*
X023861Y009320D02*
X023861Y009470D01*
X024086Y008859D02*
X023635Y008859D01*
X023710Y011161D02*
X023635Y011237D01*
X023635Y011387D01*
X023710Y011462D01*
X023786Y011462D01*
X024086Y011161D01*
X024086Y011462D01*
X024011Y011622D02*
X023936Y011622D01*
X023861Y011697D01*
X023861Y011847D01*
X023936Y011922D01*
X024011Y011922D01*
X024086Y011847D01*
X024086Y011697D01*
X024011Y011622D01*
X023861Y011697D02*
X023786Y011622D01*
X023710Y011622D01*
X023635Y011697D01*
X023635Y011847D01*
X023710Y011922D01*
X023786Y011922D01*
X023861Y011847D01*
X023936Y012082D02*
X023936Y012307D01*
X023861Y012382D01*
X023710Y012382D01*
X023635Y012307D01*
X023635Y012082D01*
X024086Y012082D01*
X024161Y012543D02*
X024161Y012843D01*
X024086Y013003D02*
X023635Y013003D01*
X023635Y013228D01*
X023710Y013303D01*
X023861Y013303D01*
X023936Y013228D01*
X023936Y013003D01*
X024086Y013463D02*
X023635Y013463D01*
X023635Y013689D01*
X023710Y013764D01*
X024011Y013764D01*
X024086Y013689D01*
X024086Y013463D01*
X024086Y013924D02*
X024086Y014074D01*
X024086Y013999D02*
X023635Y013999D01*
X023635Y013924D02*
X023635Y014074D01*
X023635Y014231D02*
X023635Y014456D01*
X023710Y014531D01*
X023861Y014531D01*
X023936Y014456D01*
X023936Y014231D01*
X024086Y014231D02*
X023635Y014231D01*
X006104Y002196D02*
X006104Y001745D01*
X005954Y001745D02*
X006254Y001745D01*
X005954Y002046D02*
X006104Y002196D01*
X005793Y002196D02*
X005493Y002196D01*
X005493Y001745D01*
X005493Y001971D02*
X005643Y001971D01*
X007149Y000926D02*
X007149Y000701D01*
X007300Y000776D01*
X007375Y000776D01*
X007450Y000701D01*
X007450Y000550D01*
X007375Y000475D01*
X007224Y000475D01*
X007149Y000550D01*
X007610Y000550D02*
X007910Y000851D01*
X007910Y000550D01*
X007835Y000475D01*
X007685Y000475D01*
X007610Y000550D01*
X007610Y000851D01*
X007685Y000926D01*
X007835Y000926D01*
X007910Y000851D01*
X008070Y000851D02*
X008145Y000926D01*
X008295Y000926D01*
X008370Y000851D01*
X008070Y000550D01*
X008145Y000475D01*
X008295Y000475D01*
X008370Y000550D01*
X008370Y000851D01*
X008531Y000776D02*
X008606Y000776D01*
X008681Y000701D01*
X008756Y000776D01*
X008831Y000701D01*
X008831Y000475D01*
X008681Y000475D02*
X008681Y000701D01*
X008531Y000776D02*
X008531Y000475D01*
X008991Y000475D02*
X008991Y000776D01*
X009141Y000926D01*
X009291Y000776D01*
X009291Y000475D01*
X009291Y000701D02*
X008991Y000701D01*
X008070Y000550D02*
X008070Y000851D01*
X007450Y000926D02*
X007149Y000926D01*
D13*
X006587Y001150D02*
X009487Y001150D01*
X009517Y001152D01*
X009547Y001157D01*
X009576Y001166D01*
X009603Y001179D01*
X009629Y001194D01*
X009653Y001213D01*
X009674Y001234D01*
X009693Y001258D01*
X009708Y001284D01*
X009721Y001311D01*
X009730Y001340D01*
X009735Y001370D01*
X009737Y001400D01*
X009737Y002500D01*
X009735Y002530D01*
X009730Y002560D01*
X009721Y002589D01*
X009708Y002616D01*
X009693Y002642D01*
X009674Y002666D01*
X009653Y002687D01*
X009629Y002706D01*
X009603Y002721D01*
X009576Y002734D01*
X009547Y002743D01*
X009517Y002748D01*
X009487Y002750D01*
X006587Y002750D01*
X006557Y002748D01*
X006527Y002743D01*
X006498Y002734D01*
X006471Y002721D01*
X006445Y002706D01*
X006421Y002687D01*
X006400Y002666D01*
X006381Y002642D01*
X006366Y002616D01*
X006353Y002589D01*
X006344Y002560D01*
X006339Y002530D01*
X006337Y002500D01*
X006337Y001400D01*
X006339Y001370D01*
X006344Y001340D01*
X006353Y001311D01*
X006366Y001284D01*
X006381Y001258D01*
X006400Y001234D01*
X006421Y001213D01*
X006445Y001194D01*
X006471Y001179D01*
X006498Y001166D01*
X006527Y001157D01*
X006557Y001152D01*
X006587Y001150D01*
X018285Y004632D02*
X018285Y008932D01*
X018287Y008949D01*
X018291Y008966D01*
X018298Y008982D01*
X018308Y008996D01*
X018321Y009009D01*
X018335Y009019D01*
X018351Y009026D01*
X018368Y009030D01*
X018385Y009032D01*
X018785Y009032D01*
X019685Y009032D02*
X020085Y009032D01*
X020102Y009030D01*
X020119Y009026D01*
X020135Y009019D01*
X020149Y009009D01*
X020162Y008996D01*
X020172Y008982D01*
X020179Y008966D01*
X020183Y008949D01*
X020185Y008932D01*
X020185Y004632D01*
X020183Y004615D01*
X020179Y004598D01*
X020172Y004582D01*
X020162Y004568D01*
X020149Y004555D01*
X020135Y004545D01*
X020119Y004538D01*
X020102Y004534D01*
X020085Y004532D01*
X019685Y004532D01*
X018785Y004532D02*
X018385Y004532D01*
X018368Y004534D01*
X018351Y004538D01*
X018335Y004545D01*
X018321Y004555D01*
X018308Y004568D01*
X018298Y004582D01*
X018291Y004598D01*
X018287Y004615D01*
X018285Y004632D01*
X018985Y006532D02*
X019235Y006532D01*
X019485Y006532D01*
X019485Y006682D02*
X018985Y006682D01*
X018985Y006882D01*
X019485Y006882D01*
X019485Y006682D01*
X019485Y007032D02*
X019235Y007032D01*
X018985Y007032D01*
X034170Y004509D02*
X034317Y004656D01*
X034317Y004216D01*
X034170Y004216D02*
X034464Y004216D01*
D14*
X034366Y010643D02*
X034366Y011103D01*
X034520Y010950D01*
X034673Y011103D01*
X034673Y010643D01*
X034827Y010719D02*
X034903Y010643D01*
X035057Y010643D01*
X035134Y010719D01*
X035134Y010796D01*
X035057Y010873D01*
X034827Y010873D01*
X034827Y010719D01*
X034827Y010873D02*
X034980Y011026D01*
X035134Y011103D01*
X035287Y011026D02*
X035287Y010950D01*
X035364Y010873D01*
X035594Y010873D01*
X035594Y011026D02*
X035594Y010719D01*
X035517Y010643D01*
X035364Y010643D01*
X035287Y010719D01*
X035287Y011026D02*
X035364Y011103D01*
X035517Y011103D01*
X035594Y011026D01*
X035748Y011103D02*
X035748Y010643D01*
X035748Y010873D02*
X036054Y010873D01*
X036054Y011103D02*
X036054Y010643D01*
X036208Y010643D02*
X036361Y010796D01*
X036515Y010643D01*
X036515Y011103D01*
X036208Y011103D02*
X036208Y010643D01*
X034213Y011103D02*
X033906Y011103D01*
X033906Y010643D01*
X033753Y010643D02*
X033599Y010796D01*
X033676Y010796D02*
X033446Y010796D01*
X033446Y010643D02*
X033446Y011103D01*
X033676Y011103D01*
X033753Y011026D01*
X033753Y010873D01*
X033676Y010796D01*
X033906Y010873D02*
X034059Y010873D01*
X032694Y012407D02*
X032694Y012928D01*
X033041Y012928D01*
X032525Y012754D02*
X032525Y012407D01*
X032265Y012407D01*
X032178Y012494D01*
X032178Y012754D01*
X031836Y012928D02*
X031836Y012407D01*
X031663Y012407D02*
X032010Y012407D01*
X032694Y012668D02*
X032868Y012668D01*
X031836Y012928D02*
X031663Y012754D01*
X031492Y012494D02*
X031492Y012407D01*
X031405Y012407D01*
X031405Y012494D01*
X031492Y012494D01*
X031236Y012494D02*
X031150Y012407D01*
X030976Y012407D01*
X030889Y012494D01*
X031236Y012841D01*
X031236Y012494D01*
X030889Y012494D02*
X030889Y012841D01*
X030976Y012928D01*
X031150Y012928D01*
X031236Y012841D01*
X027886Y012572D02*
X027366Y012572D01*
X027366Y012919D01*
X027626Y012745D02*
X027626Y012572D01*
X027539Y012403D02*
X027886Y012403D01*
X027886Y012143D01*
X027800Y012056D01*
X027539Y012056D01*
X027366Y011714D02*
X027886Y011714D01*
X027886Y011887D02*
X027886Y011540D01*
X027886Y011369D02*
X027800Y011369D01*
X027800Y011283D01*
X027886Y011283D01*
X027886Y011369D01*
X027800Y011114D02*
X027886Y011027D01*
X027886Y010854D01*
X027800Y010767D01*
X027453Y011114D01*
X027800Y011114D01*
X027453Y011114D02*
X027366Y011027D01*
X027366Y010854D01*
X027453Y010767D01*
X027800Y010767D01*
X027539Y011540D02*
X027366Y011714D01*
X020926Y011321D02*
X020579Y011321D01*
X020579Y010801D01*
X020411Y010801D02*
X020411Y011148D01*
X020579Y011061D02*
X020753Y011061D01*
X020411Y010801D02*
X020150Y010801D01*
X020064Y010888D01*
X020064Y011148D01*
X019722Y011321D02*
X019722Y010801D01*
X019895Y010801D02*
X019548Y010801D01*
X019377Y010801D02*
X019290Y010801D01*
X019290Y010888D01*
X019377Y010888D01*
X019377Y010801D01*
X019122Y010888D02*
X019035Y010801D01*
X018861Y010801D01*
X018775Y010888D01*
X019122Y011235D01*
X019122Y010888D01*
X018775Y010888D02*
X018775Y011235D01*
X018861Y011321D01*
X019035Y011321D01*
X019122Y011235D01*
X019548Y011148D02*
X019722Y011321D01*
X016773Y011186D02*
X016513Y011013D01*
X016773Y010839D01*
X016513Y010839D02*
X016513Y011360D01*
X016344Y011273D02*
X016257Y011360D01*
X016084Y011360D01*
X015997Y011273D01*
X015997Y010926D01*
X016344Y011273D01*
X016344Y010926D01*
X016257Y010839D01*
X016084Y010839D01*
X015997Y010926D01*
X015828Y010839D02*
X015481Y010839D01*
X015655Y010839D02*
X015655Y011360D01*
X015481Y011186D01*
X014176Y011357D02*
X013829Y011357D01*
X013829Y010837D01*
X013660Y010837D02*
X013660Y011184D01*
X013829Y011097D02*
X014003Y011097D01*
X013660Y010837D02*
X013400Y010837D01*
X013313Y010924D01*
X013313Y011184D01*
X013145Y011271D02*
X012798Y010924D01*
X012885Y010837D01*
X013058Y010837D01*
X013145Y010924D01*
X013145Y011271D01*
X013058Y011357D01*
X012885Y011357D01*
X012798Y011271D01*
X012798Y010924D01*
X012629Y010837D02*
X012282Y010837D01*
X012456Y010837D02*
X012456Y011357D01*
X012282Y011184D01*
X015359Y008057D02*
X015272Y007971D01*
X015359Y008057D02*
X015532Y008057D01*
X015619Y007971D01*
X015619Y007884D01*
X015272Y007537D01*
X015619Y007537D01*
X015788Y007624D02*
X016135Y007971D01*
X016135Y007624D01*
X016048Y007537D01*
X015874Y007537D01*
X015788Y007624D01*
X015788Y007971D01*
X015874Y008057D01*
X016048Y008057D01*
X016135Y007971D01*
X016303Y007884D02*
X016563Y007884D01*
X016650Y007797D01*
X016650Y007624D01*
X016563Y007537D01*
X016303Y007537D01*
X016303Y007363D02*
X016303Y007884D01*
X016819Y007797D02*
X016992Y007797D01*
X016819Y007537D02*
X016819Y008057D01*
X017166Y008057D01*
X014098Y007530D02*
X013751Y007530D01*
X013751Y007010D01*
X013582Y007010D02*
X013582Y007357D01*
X013751Y007270D02*
X013925Y007270D01*
X013582Y007010D02*
X013322Y007010D01*
X013235Y007096D01*
X013235Y007357D01*
X012893Y007530D02*
X012893Y007010D01*
X012720Y007010D02*
X013067Y007010D01*
X012549Y007010D02*
X012549Y007096D01*
X012462Y007096D01*
X012462Y007010D01*
X012549Y007010D01*
X012293Y007096D02*
X012207Y007010D01*
X012033Y007010D01*
X011946Y007096D01*
X012293Y007443D01*
X012293Y007096D01*
X011946Y007096D02*
X011946Y007443D01*
X012033Y007530D01*
X012207Y007530D01*
X012293Y007443D01*
X012720Y007357D02*
X012893Y007530D01*
X011117Y004147D02*
X011204Y004060D01*
X011204Y003887D01*
X011117Y003800D01*
X011117Y003629D02*
X011204Y003629D01*
X011204Y003542D01*
X011117Y003542D01*
X011117Y003629D01*
X011117Y003373D02*
X011204Y003287D01*
X011204Y003113D01*
X011117Y003026D01*
X010944Y002858D02*
X010944Y002511D01*
X010944Y002342D02*
X011030Y002255D01*
X011030Y001995D01*
X011030Y002169D02*
X011204Y002342D01*
X010944Y002342D02*
X010770Y002342D01*
X010683Y002255D01*
X010683Y001995D01*
X011204Y001995D01*
X011204Y001826D02*
X011204Y001479D01*
X010683Y001479D01*
X010770Y003026D02*
X010683Y003113D01*
X010683Y003287D01*
X010770Y003373D01*
X010857Y003373D01*
X010944Y003287D01*
X011030Y003373D01*
X011117Y003373D01*
X010944Y003287D02*
X010944Y003200D01*
X010770Y003800D02*
X010683Y003887D01*
X010683Y004060D01*
X010770Y004147D01*
X010857Y004147D01*
X010944Y004060D01*
X011030Y004147D01*
X011117Y004147D01*
X010944Y004060D02*
X010944Y003973D01*
X015096Y004064D02*
X015183Y004151D01*
X015356Y004151D01*
X015443Y004064D01*
X015443Y003978D01*
X015096Y003631D01*
X015443Y003631D01*
X015612Y003717D02*
X015698Y003631D01*
X015872Y003631D01*
X015959Y003717D01*
X015959Y004064D01*
X015612Y003717D01*
X015612Y004064D01*
X015698Y004151D01*
X015872Y004151D01*
X015959Y004064D01*
X016127Y003978D02*
X016387Y003978D01*
X016474Y003891D01*
X016474Y003717D01*
X016387Y003631D01*
X016127Y003631D01*
X016127Y003457D02*
X016127Y003978D01*
X016643Y003891D02*
X016816Y003891D01*
X016643Y003631D02*
X016643Y004151D01*
X016990Y004151D01*
X017044Y014748D02*
X017044Y015269D01*
X017391Y015269D01*
X017218Y015008D02*
X017044Y015008D01*
X016876Y015095D02*
X016876Y014748D01*
X016615Y014748D01*
X016529Y014835D01*
X016529Y015095D01*
X016186Y015269D02*
X016186Y014748D01*
X016013Y014748D02*
X016360Y014748D01*
X015842Y014748D02*
X015842Y014835D01*
X015755Y014835D01*
X015755Y014748D01*
X015842Y014748D01*
X015586Y014835D02*
X015500Y014748D01*
X015326Y014748D01*
X015239Y014835D01*
X015586Y015182D01*
X015586Y014835D01*
X015239Y014835D02*
X015239Y015182D01*
X015326Y015269D01*
X015500Y015269D01*
X015586Y015182D01*
X016013Y015095D02*
X016186Y015269D01*
X026208Y016722D02*
X026515Y017029D01*
X026515Y016722D01*
X026438Y016645D01*
X026285Y016645D01*
X026208Y016722D01*
X026208Y017029D01*
X026285Y017106D01*
X026438Y017106D01*
X026515Y017029D01*
X026899Y016952D02*
X027052Y017106D01*
X027052Y016645D01*
X026899Y016645D02*
X027206Y016645D01*
X027359Y016722D02*
X027436Y016645D01*
X027666Y016645D01*
X027666Y016952D01*
X027819Y016876D02*
X027973Y016876D01*
X027819Y017106D02*
X028126Y017106D01*
X027819Y017106D02*
X027819Y016645D01*
X027359Y016722D02*
X027359Y016952D01*
X026745Y016722D02*
X026745Y016645D01*
X026668Y016645D01*
X026668Y016722D01*
X026745Y016722D01*
D15*
X018780Y008800D02*
X018790Y008785D01*
X018789Y008785D02*
X018745Y008753D01*
X018703Y008718D01*
X018664Y008679D01*
X018627Y008638D01*
X018594Y008595D01*
X018563Y008550D01*
X018536Y008502D01*
X018512Y008453D01*
X018491Y008402D01*
X018475Y008350D01*
X018461Y008296D01*
X018452Y008242D01*
X018446Y008188D01*
X018444Y008133D01*
X018427Y008132D01*
X018426Y008133D01*
X018428Y008189D01*
X018434Y008245D01*
X018444Y008300D01*
X018457Y008355D01*
X018474Y008408D01*
X018495Y008460D01*
X018520Y008510D01*
X018548Y008559D01*
X018579Y008606D01*
X018614Y008650D01*
X018651Y008692D01*
X018691Y008731D01*
X018734Y008767D01*
X018779Y008800D01*
X018780Y008799D01*
X018735Y008766D01*
X018692Y008730D01*
X018652Y008691D01*
X018614Y008649D01*
X018580Y008605D01*
X018549Y008558D01*
X018521Y008510D01*
X018496Y008459D01*
X018475Y008408D01*
X018458Y008354D01*
X018445Y008300D01*
X018435Y008245D01*
X018429Y008189D01*
X018427Y008133D01*
X018428Y008133D01*
X018430Y008189D01*
X018436Y008245D01*
X018446Y008300D01*
X018459Y008354D01*
X018476Y008407D01*
X018497Y008459D01*
X018522Y008509D01*
X018550Y008558D01*
X018581Y008604D01*
X018615Y008649D01*
X018652Y008690D01*
X018692Y008729D01*
X018735Y008766D01*
X018780Y008799D01*
X018781Y008798D01*
X018736Y008765D01*
X018693Y008729D01*
X018653Y008690D01*
X018616Y008648D01*
X018582Y008604D01*
X018550Y008557D01*
X018523Y008509D01*
X018498Y008459D01*
X018477Y008407D01*
X018460Y008354D01*
X018447Y008299D01*
X018437Y008244D01*
X018431Y008189D01*
X018429Y008133D01*
X018430Y008133D01*
X018432Y008189D01*
X018438Y008244D01*
X018448Y008299D01*
X018461Y008353D01*
X018478Y008407D01*
X018499Y008458D01*
X018523Y008508D01*
X018551Y008557D01*
X018582Y008603D01*
X018617Y008647D01*
X018654Y008689D01*
X018694Y008728D01*
X018736Y008764D01*
X018781Y008797D01*
X018782Y008796D01*
X018737Y008763D01*
X018694Y008727D01*
X018655Y008688D01*
X018617Y008647D01*
X018583Y008603D01*
X018552Y008556D01*
X018524Y008508D01*
X018500Y008458D01*
X018479Y008406D01*
X018462Y008353D01*
X018449Y008299D01*
X018439Y008244D01*
X018433Y008189D01*
X018431Y008133D01*
X018432Y008133D01*
X018434Y008189D01*
X018440Y008244D01*
X018450Y008299D01*
X018463Y008353D01*
X018480Y008406D01*
X018501Y008457D01*
X018525Y008508D01*
X018553Y008556D01*
X018584Y008602D01*
X018618Y008646D01*
X018655Y008688D01*
X018695Y008726D01*
X018738Y008762D01*
X018782Y008795D01*
X018783Y008795D01*
X018738Y008762D01*
X018696Y008726D01*
X018656Y008687D01*
X018619Y008645D01*
X018585Y008601D01*
X018554Y008555D01*
X018526Y008507D01*
X018502Y008457D01*
X018481Y008405D01*
X018464Y008353D01*
X018450Y008299D01*
X018441Y008244D01*
X018435Y008189D01*
X018433Y008133D01*
X018434Y008133D01*
X018436Y008188D01*
X018442Y008244D01*
X018451Y008298D01*
X018465Y008352D01*
X018482Y008405D01*
X018503Y008457D01*
X018527Y008507D01*
X018555Y008555D01*
X018586Y008601D01*
X018620Y008645D01*
X018657Y008686D01*
X018696Y008725D01*
X018739Y008761D01*
X018784Y008794D01*
X018784Y008793D01*
X018739Y008760D01*
X018697Y008724D01*
X018657Y008686D01*
X018620Y008644D01*
X018586Y008600D01*
X018556Y008554D01*
X018528Y008506D01*
X018504Y008456D01*
X018483Y008405D01*
X018466Y008352D01*
X018452Y008298D01*
X018443Y008244D01*
X018437Y008188D01*
X018435Y008133D01*
X018436Y008133D01*
X018438Y008188D01*
X018444Y008243D01*
X018453Y008298D01*
X018467Y008352D01*
X018484Y008404D01*
X018505Y008456D01*
X018529Y008506D01*
X018556Y008554D01*
X018587Y008600D01*
X018621Y008644D01*
X018658Y008685D01*
X018698Y008723D01*
X018740Y008759D01*
X018785Y008792D01*
X018785Y008791D01*
X018741Y008758D01*
X018698Y008723D01*
X018659Y008684D01*
X018622Y008643D01*
X018588Y008599D01*
X018557Y008553D01*
X018530Y008505D01*
X018505Y008455D01*
X018485Y008404D01*
X018468Y008351D01*
X018454Y008298D01*
X018445Y008243D01*
X018439Y008188D01*
X018437Y008133D01*
X018438Y008133D01*
X018440Y008188D01*
X018446Y008243D01*
X018455Y008298D01*
X018469Y008351D01*
X018486Y008404D01*
X018506Y008455D01*
X018531Y008505D01*
X018558Y008553D01*
X018589Y008599D01*
X018623Y008642D01*
X018660Y008683D01*
X018699Y008722D01*
X018741Y008758D01*
X018786Y008790D01*
X018742Y008757D01*
X018700Y008721D01*
X018660Y008683D01*
X018623Y008642D01*
X018590Y008598D01*
X018559Y008552D01*
X018531Y008504D01*
X018507Y008455D01*
X018487Y008403D01*
X018470Y008351D01*
X018456Y008297D01*
X018447Y008243D01*
X018441Y008188D01*
X018439Y008133D01*
X018440Y008133D01*
X018442Y008188D01*
X018448Y008243D01*
X018457Y008297D01*
X018471Y008351D01*
X018488Y008403D01*
X018508Y008454D01*
X018532Y008504D01*
X018560Y008552D01*
X018590Y008597D01*
X018624Y008641D01*
X018661Y008682D01*
X018700Y008720D01*
X018743Y008756D01*
X018787Y008789D01*
X018788Y008788D01*
X018743Y008755D01*
X018701Y008720D01*
X018662Y008681D01*
X018625Y008640D01*
X018591Y008597D01*
X018561Y008551D01*
X018533Y008503D01*
X018509Y008454D01*
X018489Y008403D01*
X018472Y008350D01*
X018458Y008297D01*
X018449Y008243D01*
X018443Y008188D01*
X018441Y008133D01*
X018442Y008133D01*
X018444Y008188D01*
X018450Y008243D01*
X018459Y008297D01*
X018473Y008350D01*
X018490Y008402D01*
X018510Y008453D01*
X018534Y008503D01*
X018561Y008551D01*
X018592Y008596D01*
X018626Y008640D01*
X018662Y008681D01*
X018702Y008719D01*
X018744Y008755D01*
X018788Y008787D01*
X018789Y008786D01*
X018744Y008754D01*
X018703Y008718D01*
X018663Y008680D01*
X018627Y008639D01*
X018593Y008596D01*
X018562Y008550D01*
X018535Y008502D01*
X018511Y008453D01*
X018490Y008402D01*
X018474Y008350D01*
X018460Y008297D01*
X018451Y008242D01*
X018445Y008188D01*
X018443Y008133D01*
X020043Y008133D02*
X020025Y008133D01*
X020026Y008133D02*
X020024Y008188D01*
X020018Y008242D01*
X020009Y008296D01*
X019995Y008350D01*
X019979Y008402D01*
X019958Y008453D01*
X019934Y008502D01*
X019907Y008550D01*
X019876Y008595D01*
X019843Y008638D01*
X019806Y008679D01*
X019767Y008718D01*
X019725Y008753D01*
X019681Y008785D01*
X019690Y008800D01*
X019691Y008800D01*
X019736Y008767D01*
X019779Y008731D01*
X019819Y008692D01*
X019856Y008650D01*
X019891Y008606D01*
X019922Y008559D01*
X019950Y008510D01*
X019975Y008460D01*
X019995Y008408D01*
X020013Y008355D01*
X020026Y008300D01*
X020036Y008245D01*
X020042Y008189D01*
X020044Y008133D01*
X020043Y008133D01*
X020041Y008189D01*
X020035Y008245D01*
X020025Y008300D01*
X020012Y008354D01*
X019995Y008408D01*
X019974Y008460D01*
X019949Y008510D01*
X019921Y008559D01*
X019890Y008605D01*
X019856Y008649D01*
X019818Y008691D01*
X019778Y008730D01*
X019735Y008766D01*
X019690Y008800D01*
X019690Y008799D01*
X019735Y008766D01*
X019778Y008729D01*
X019818Y008690D01*
X019855Y008649D01*
X019889Y008604D01*
X019920Y008558D01*
X019948Y008509D01*
X019973Y008459D01*
X019994Y008407D01*
X020011Y008354D01*
X020024Y008300D01*
X020034Y008245D01*
X020040Y008189D01*
X020042Y008133D01*
X020041Y008133D01*
X020039Y008189D01*
X020033Y008244D01*
X020023Y008300D01*
X020010Y008354D01*
X019993Y008407D01*
X019972Y008459D01*
X019947Y008509D01*
X019920Y008557D01*
X019888Y008604D01*
X019854Y008648D01*
X019817Y008690D01*
X019777Y008729D01*
X019734Y008765D01*
X019689Y008798D01*
X019689Y008797D01*
X019734Y008764D01*
X019776Y008728D01*
X019816Y008689D01*
X019853Y008647D01*
X019888Y008603D01*
X019919Y008557D01*
X019947Y008509D01*
X019971Y008458D01*
X019992Y008407D01*
X020009Y008353D01*
X020022Y008299D01*
X020032Y008244D01*
X020038Y008189D01*
X020040Y008133D01*
X020039Y008133D01*
X020037Y008189D01*
X020031Y008244D01*
X020021Y008299D01*
X020008Y008353D01*
X019991Y008406D01*
X019970Y008458D01*
X019946Y008508D01*
X019918Y008556D01*
X019887Y008603D01*
X019853Y008647D01*
X019815Y008688D01*
X019776Y008727D01*
X019733Y008763D01*
X019688Y008796D01*
X019687Y008795D01*
X019732Y008762D01*
X019775Y008726D01*
X019815Y008688D01*
X019852Y008646D01*
X019886Y008602D01*
X019917Y008556D01*
X019945Y008508D01*
X019969Y008458D01*
X019990Y008406D01*
X020007Y008353D01*
X020020Y008299D01*
X020030Y008244D01*
X020036Y008189D01*
X020038Y008133D01*
X020037Y008133D01*
X020035Y008189D01*
X020029Y008244D01*
X020019Y008299D01*
X020006Y008353D01*
X019989Y008406D01*
X019968Y008457D01*
X019944Y008507D01*
X019916Y008555D01*
X019885Y008602D01*
X019851Y008645D01*
X019814Y008687D01*
X019774Y008726D01*
X019732Y008762D01*
X019687Y008795D01*
X019686Y008794D01*
X019731Y008761D01*
X019774Y008725D01*
X019813Y008686D01*
X019850Y008645D01*
X019884Y008601D01*
X019915Y008555D01*
X019943Y008507D01*
X019967Y008457D01*
X019988Y008405D01*
X020005Y008352D01*
X020019Y008298D01*
X020028Y008244D01*
X020034Y008189D01*
X020036Y008133D01*
X020035Y008133D01*
X020033Y008188D01*
X020027Y008244D01*
X020018Y008298D01*
X020004Y008352D01*
X019987Y008405D01*
X019966Y008456D01*
X019942Y008506D01*
X019914Y008554D01*
X019884Y008600D01*
X019850Y008644D01*
X019813Y008686D01*
X019773Y008724D01*
X019730Y008760D01*
X019686Y008793D01*
X019685Y008792D01*
X019730Y008759D01*
X019772Y008723D01*
X019812Y008685D01*
X019849Y008644D01*
X019883Y008600D01*
X019914Y008554D01*
X019941Y008506D01*
X019965Y008456D01*
X019986Y008405D01*
X020003Y008352D01*
X020017Y008298D01*
X020026Y008244D01*
X020032Y008188D01*
X020034Y008133D01*
X020033Y008133D01*
X020031Y008188D01*
X020025Y008243D01*
X020016Y008298D01*
X020002Y008352D01*
X019985Y008404D01*
X019964Y008456D01*
X019940Y008505D01*
X019913Y008553D01*
X019882Y008599D01*
X019848Y008643D01*
X019811Y008684D01*
X019771Y008723D01*
X019729Y008759D01*
X019685Y008791D01*
X019684Y008790D01*
X019729Y008758D01*
X019771Y008722D01*
X019810Y008683D01*
X019847Y008642D01*
X019881Y008599D01*
X019912Y008553D01*
X019939Y008505D01*
X019964Y008455D01*
X019984Y008404D01*
X020001Y008351D01*
X020015Y008298D01*
X020024Y008243D01*
X020030Y008188D01*
X020032Y008133D01*
X020031Y008133D01*
X020029Y008188D01*
X020023Y008243D01*
X020014Y008297D01*
X020000Y008351D01*
X019983Y008403D01*
X019963Y008455D01*
X019939Y008504D01*
X019911Y008552D01*
X019880Y008598D01*
X019846Y008642D01*
X019810Y008683D01*
X019770Y008721D01*
X019728Y008757D01*
X019684Y008790D01*
X019683Y008789D01*
X019727Y008756D01*
X019769Y008721D01*
X019809Y008682D01*
X019846Y008641D01*
X019880Y008597D01*
X019910Y008552D01*
X019938Y008504D01*
X019962Y008454D01*
X019982Y008403D01*
X019999Y008351D01*
X020013Y008297D01*
X020022Y008243D01*
X020028Y008188D01*
X020030Y008133D01*
X020029Y008133D01*
X020027Y008188D01*
X020021Y008243D01*
X020012Y008297D01*
X019998Y008350D01*
X019981Y008403D01*
X019961Y008454D01*
X019937Y008503D01*
X019909Y008551D01*
X019879Y008597D01*
X019845Y008640D01*
X019808Y008681D01*
X019769Y008720D01*
X019727Y008755D01*
X019682Y008788D01*
X019682Y008787D01*
X019726Y008755D01*
X019768Y008719D01*
X019808Y008681D01*
X019844Y008640D01*
X019878Y008596D01*
X019909Y008551D01*
X019936Y008503D01*
X019960Y008453D01*
X019980Y008402D01*
X019997Y008350D01*
X020011Y008297D01*
X020020Y008243D01*
X020026Y008188D01*
X020028Y008133D01*
X020027Y008133D01*
X020025Y008188D01*
X020019Y008243D01*
X020010Y008297D01*
X019996Y008350D01*
X019980Y008402D01*
X019959Y008453D01*
X019935Y008502D01*
X019908Y008550D01*
X019877Y008596D01*
X019843Y008639D01*
X019807Y008680D01*
X019767Y008718D01*
X019726Y008754D01*
X019681Y008786D01*
X018777Y008352D02*
X018793Y008345D01*
X018775Y008305D01*
X018762Y008263D01*
X018752Y008220D01*
X018746Y008177D01*
X018744Y008133D01*
X018727Y008132D01*
X018726Y008133D01*
X018727Y008171D01*
X018732Y008209D01*
X018739Y008246D01*
X018749Y008282D01*
X018761Y008318D01*
X018776Y008353D01*
X018777Y008353D01*
X018762Y008318D01*
X018750Y008282D01*
X018740Y008246D01*
X018733Y008208D01*
X018728Y008171D01*
X018727Y008133D01*
X018728Y008133D01*
X018729Y008171D01*
X018734Y008208D01*
X018741Y008245D01*
X018751Y008282D01*
X018763Y008317D01*
X018778Y008352D01*
X018779Y008352D01*
X018764Y008317D01*
X018752Y008282D01*
X018742Y008245D01*
X018735Y008208D01*
X018730Y008171D01*
X018729Y008133D01*
X018730Y008133D01*
X018731Y008171D01*
X018736Y008208D01*
X018743Y008245D01*
X018753Y008281D01*
X018765Y008317D01*
X018780Y008351D01*
X018781Y008351D01*
X018766Y008316D01*
X018754Y008281D01*
X018744Y008245D01*
X018737Y008208D01*
X018732Y008171D01*
X018731Y008133D01*
X018732Y008133D01*
X018733Y008170D01*
X018738Y008208D01*
X018745Y008244D01*
X018754Y008281D01*
X018767Y008316D01*
X018782Y008350D01*
X018783Y008350D01*
X018768Y008316D01*
X018755Y008280D01*
X018746Y008244D01*
X018739Y008208D01*
X018734Y008170D01*
X018733Y008133D01*
X018734Y008133D01*
X018735Y008170D01*
X018740Y008207D01*
X018747Y008244D01*
X018756Y008280D01*
X018769Y008315D01*
X018784Y008349D01*
X018785Y008349D01*
X018770Y008315D01*
X018757Y008280D01*
X018748Y008244D01*
X018741Y008207D01*
X018736Y008170D01*
X018735Y008133D01*
X018736Y008133D01*
X018737Y008170D01*
X018742Y008207D01*
X018749Y008244D01*
X018758Y008279D01*
X018771Y008315D01*
X018785Y008349D01*
X018786Y008348D01*
X018772Y008314D01*
X018759Y008279D01*
X018750Y008243D01*
X018743Y008207D01*
X018738Y008170D01*
X018737Y008133D01*
X018738Y008133D01*
X018739Y008170D01*
X018744Y008207D01*
X018751Y008243D01*
X018760Y008279D01*
X018772Y008314D01*
X018787Y008348D01*
X018788Y008347D01*
X018771Y008307D01*
X018757Y008264D01*
X018747Y008221D01*
X018741Y008177D01*
X018739Y008133D01*
X018740Y008133D01*
X018742Y008177D01*
X018748Y008221D01*
X018758Y008264D01*
X018772Y008306D01*
X018789Y008347D01*
X018790Y008346D01*
X018773Y008306D01*
X018759Y008264D01*
X018749Y008221D01*
X018743Y008177D01*
X018741Y008133D01*
X018742Y008133D01*
X018744Y008177D01*
X018750Y008221D01*
X018760Y008264D01*
X018774Y008305D01*
X018791Y008346D01*
X018792Y008346D01*
X018774Y008305D01*
X018761Y008263D01*
X018751Y008220D01*
X018745Y008177D01*
X018743Y008133D01*
X019743Y008132D02*
X019725Y008132D01*
X019726Y008133D02*
X019724Y008177D01*
X019718Y008220D01*
X019708Y008263D01*
X019695Y008305D01*
X019677Y008345D01*
X019693Y008352D01*
X019694Y008353D01*
X019709Y008318D01*
X019721Y008282D01*
X019731Y008246D01*
X019738Y008209D01*
X019743Y008171D01*
X019744Y008133D01*
X019743Y008133D01*
X019742Y008171D01*
X019737Y008208D01*
X019730Y008246D01*
X019720Y008282D01*
X019708Y008318D01*
X019693Y008353D01*
X019692Y008352D01*
X019707Y008317D01*
X019719Y008282D01*
X019729Y008245D01*
X019736Y008208D01*
X019741Y008171D01*
X019742Y008133D01*
X019741Y008133D01*
X019740Y008171D01*
X019735Y008208D01*
X019728Y008245D01*
X019718Y008282D01*
X019706Y008317D01*
X019691Y008352D01*
X019690Y008351D01*
X019705Y008317D01*
X019717Y008281D01*
X019727Y008245D01*
X019734Y008208D01*
X019739Y008171D01*
X019740Y008133D01*
X019739Y008133D01*
X019738Y008171D01*
X019733Y008208D01*
X019726Y008245D01*
X019716Y008281D01*
X019704Y008316D01*
X019689Y008351D01*
X019688Y008350D01*
X019703Y008316D01*
X019716Y008281D01*
X019725Y008244D01*
X019732Y008208D01*
X019737Y008170D01*
X019738Y008133D01*
X019737Y008133D01*
X019736Y008170D01*
X019731Y008208D01*
X019724Y008244D01*
X019715Y008280D01*
X019702Y008316D01*
X019687Y008350D01*
X019686Y008349D01*
X019701Y008315D01*
X019714Y008280D01*
X019723Y008244D01*
X019730Y008207D01*
X019735Y008170D01*
X019736Y008133D01*
X019735Y008133D01*
X019734Y008170D01*
X019729Y008207D01*
X019722Y008244D01*
X019713Y008280D01*
X019700Y008315D01*
X019685Y008349D01*
X019699Y008315D01*
X019712Y008279D01*
X019721Y008244D01*
X019728Y008207D01*
X019733Y008170D01*
X019734Y008133D01*
X019733Y008133D01*
X019732Y008170D01*
X019727Y008207D01*
X019720Y008243D01*
X019711Y008279D01*
X019698Y008314D01*
X019684Y008348D01*
X019683Y008348D01*
X019698Y008314D01*
X019710Y008279D01*
X019719Y008243D01*
X019726Y008207D01*
X019731Y008170D01*
X019732Y008133D01*
X019731Y008133D01*
X019729Y008177D01*
X019723Y008221D01*
X019713Y008264D01*
X019699Y008307D01*
X019682Y008347D01*
X019681Y008347D01*
X019698Y008306D01*
X019712Y008264D01*
X019722Y008221D01*
X019728Y008177D01*
X019730Y008133D01*
X019729Y008133D01*
X019727Y008177D01*
X019721Y008221D01*
X019711Y008264D01*
X019697Y008306D01*
X019680Y008346D01*
X019679Y008346D01*
X019696Y008305D01*
X019710Y008264D01*
X019720Y008221D01*
X019726Y008177D01*
X019728Y008133D01*
X019727Y008133D01*
X019725Y008177D01*
X019719Y008220D01*
X019709Y008263D01*
X019696Y008305D01*
X019678Y008346D01*
X018427Y005431D02*
X018445Y005431D01*
X018444Y005431D02*
X018446Y005376D01*
X018452Y005322D01*
X018461Y005268D01*
X018475Y005214D01*
X018491Y005162D01*
X018512Y005111D01*
X018536Y005062D01*
X018563Y005014D01*
X018594Y004969D01*
X018627Y004926D01*
X018664Y004885D01*
X018703Y004846D01*
X018745Y004811D01*
X018789Y004779D01*
X018780Y004764D01*
X018779Y004764D01*
X018734Y004797D01*
X018691Y004833D01*
X018651Y004872D01*
X018614Y004914D01*
X018579Y004958D01*
X018548Y005005D01*
X018520Y005054D01*
X018495Y005104D01*
X018475Y005156D01*
X018457Y005209D01*
X018444Y005264D01*
X018434Y005319D01*
X018428Y005375D01*
X018426Y005431D01*
X018427Y005431D01*
X018429Y005375D01*
X018435Y005319D01*
X018445Y005264D01*
X018458Y005210D01*
X018475Y005156D01*
X018496Y005104D01*
X018521Y005054D01*
X018549Y005005D01*
X018580Y004959D01*
X018614Y004915D01*
X018652Y004873D01*
X018692Y004834D01*
X018735Y004798D01*
X018780Y004764D01*
X018780Y004765D01*
X018735Y004798D01*
X018692Y004835D01*
X018652Y004874D01*
X018615Y004915D01*
X018581Y004960D01*
X018550Y005006D01*
X018522Y005055D01*
X018497Y005105D01*
X018476Y005157D01*
X018459Y005210D01*
X018446Y005264D01*
X018436Y005319D01*
X018430Y005375D01*
X018428Y005431D01*
X018429Y005431D01*
X018431Y005375D01*
X018437Y005320D01*
X018447Y005265D01*
X018460Y005210D01*
X018477Y005157D01*
X018498Y005105D01*
X018523Y005055D01*
X018550Y005007D01*
X018582Y004960D01*
X018616Y004916D01*
X018653Y004874D01*
X018693Y004835D01*
X018736Y004799D01*
X018781Y004766D01*
X018781Y004767D01*
X018736Y004800D01*
X018694Y004836D01*
X018654Y004875D01*
X018617Y004917D01*
X018582Y004961D01*
X018551Y005007D01*
X018523Y005055D01*
X018499Y005106D01*
X018478Y005157D01*
X018461Y005211D01*
X018448Y005265D01*
X018438Y005320D01*
X018432Y005375D01*
X018430Y005431D01*
X018431Y005431D01*
X018433Y005375D01*
X018439Y005320D01*
X018449Y005265D01*
X018462Y005211D01*
X018479Y005158D01*
X018500Y005106D01*
X018524Y005056D01*
X018552Y005008D01*
X018583Y004961D01*
X018617Y004917D01*
X018655Y004876D01*
X018694Y004837D01*
X018737Y004801D01*
X018782Y004768D01*
X018783Y004769D01*
X018738Y004802D01*
X018695Y004838D01*
X018655Y004876D01*
X018618Y004918D01*
X018584Y004962D01*
X018553Y005008D01*
X018525Y005056D01*
X018501Y005106D01*
X018480Y005158D01*
X018463Y005211D01*
X018450Y005265D01*
X018440Y005320D01*
X018434Y005375D01*
X018432Y005431D01*
X018433Y005431D01*
X018435Y005375D01*
X018441Y005320D01*
X018451Y005265D01*
X018464Y005211D01*
X018481Y005158D01*
X018502Y005107D01*
X018526Y005057D01*
X018554Y005009D01*
X018585Y004962D01*
X018619Y004919D01*
X018656Y004877D01*
X018696Y004838D01*
X018738Y004802D01*
X018783Y004769D01*
X018784Y004770D01*
X018739Y004803D01*
X018696Y004839D01*
X018657Y004878D01*
X018620Y004919D01*
X018586Y004963D01*
X018555Y005009D01*
X018527Y005057D01*
X018503Y005107D01*
X018482Y005159D01*
X018465Y005212D01*
X018451Y005266D01*
X018442Y005320D01*
X018436Y005375D01*
X018434Y005431D01*
X018435Y005431D01*
X018437Y005376D01*
X018443Y005320D01*
X018452Y005266D01*
X018466Y005212D01*
X018483Y005159D01*
X018504Y005108D01*
X018528Y005058D01*
X018556Y005010D01*
X018586Y004964D01*
X018620Y004920D01*
X018657Y004878D01*
X018697Y004840D01*
X018739Y004804D01*
X018784Y004771D01*
X018785Y004772D01*
X018740Y004805D01*
X018698Y004841D01*
X018658Y004879D01*
X018621Y004920D01*
X018587Y004964D01*
X018556Y005010D01*
X018529Y005058D01*
X018505Y005108D01*
X018484Y005160D01*
X018467Y005212D01*
X018453Y005266D01*
X018444Y005321D01*
X018438Y005376D01*
X018436Y005431D01*
X018437Y005431D01*
X018439Y005376D01*
X018445Y005321D01*
X018454Y005266D01*
X018468Y005212D01*
X018485Y005160D01*
X018506Y005109D01*
X018530Y005059D01*
X018557Y005011D01*
X018588Y004965D01*
X018622Y004921D01*
X018659Y004880D01*
X018698Y004841D01*
X018741Y004806D01*
X018785Y004773D01*
X018786Y004774D01*
X018741Y004806D01*
X018699Y004842D01*
X018660Y004881D01*
X018623Y004922D01*
X018589Y004965D01*
X018558Y005011D01*
X018531Y005059D01*
X018506Y005109D01*
X018486Y005160D01*
X018469Y005213D01*
X018455Y005266D01*
X018446Y005321D01*
X018440Y005376D01*
X018438Y005431D01*
X018439Y005431D01*
X018441Y005376D01*
X018447Y005321D01*
X018456Y005267D01*
X018470Y005213D01*
X018487Y005161D01*
X018507Y005109D01*
X018531Y005060D01*
X018559Y005012D01*
X018590Y004966D01*
X018624Y004922D01*
X018660Y004881D01*
X018700Y004843D01*
X018742Y004807D01*
X018786Y004774D01*
X018787Y004775D01*
X018743Y004808D01*
X018701Y004843D01*
X018661Y004882D01*
X018624Y004923D01*
X018590Y004967D01*
X018560Y005012D01*
X018532Y005060D01*
X018508Y005110D01*
X018488Y005161D01*
X018471Y005213D01*
X018457Y005267D01*
X018448Y005321D01*
X018442Y005376D01*
X018440Y005431D01*
X018441Y005431D01*
X018443Y005376D01*
X018449Y005321D01*
X018458Y005267D01*
X018472Y005214D01*
X018489Y005161D01*
X018509Y005110D01*
X018533Y005061D01*
X018561Y005013D01*
X018591Y004967D01*
X018625Y004924D01*
X018662Y004883D01*
X018701Y004844D01*
X018743Y004809D01*
X018788Y004776D01*
X018788Y004777D01*
X018744Y004809D01*
X018702Y004845D01*
X018662Y004883D01*
X018626Y004924D01*
X018592Y004968D01*
X018561Y005013D01*
X018534Y005061D01*
X018510Y005111D01*
X018490Y005162D01*
X018473Y005214D01*
X018459Y005267D01*
X018450Y005321D01*
X018444Y005376D01*
X018442Y005431D01*
X018443Y005431D01*
X018445Y005376D01*
X018451Y005321D01*
X018460Y005267D01*
X018474Y005214D01*
X018490Y005162D01*
X018511Y005111D01*
X018535Y005062D01*
X018562Y005014D01*
X018593Y004968D01*
X018627Y004925D01*
X018663Y004884D01*
X018703Y004846D01*
X018744Y004810D01*
X018789Y004778D01*
X019690Y004764D02*
X019680Y004779D01*
X019681Y004779D02*
X019725Y004811D01*
X019767Y004846D01*
X019806Y004885D01*
X019843Y004926D01*
X019876Y004969D01*
X019907Y005014D01*
X019934Y005062D01*
X019958Y005111D01*
X019979Y005162D01*
X019995Y005214D01*
X020009Y005268D01*
X020018Y005322D01*
X020024Y005376D01*
X020026Y005431D01*
X020043Y005432D01*
X020044Y005431D01*
X020042Y005375D01*
X020036Y005319D01*
X020026Y005264D01*
X020013Y005209D01*
X019996Y005156D01*
X019975Y005104D01*
X019950Y005054D01*
X019922Y005005D01*
X019891Y004958D01*
X019856Y004914D01*
X019819Y004872D01*
X019779Y004833D01*
X019736Y004797D01*
X019691Y004764D01*
X019690Y004765D01*
X019735Y004798D01*
X019778Y004834D01*
X019818Y004873D01*
X019856Y004915D01*
X019890Y004959D01*
X019921Y005006D01*
X019949Y005054D01*
X019974Y005105D01*
X019995Y005156D01*
X020012Y005210D01*
X020025Y005264D01*
X020035Y005319D01*
X020041Y005375D01*
X020043Y005431D01*
X020042Y005431D01*
X020040Y005375D01*
X020034Y005319D01*
X020024Y005264D01*
X020011Y005210D01*
X019994Y005157D01*
X019973Y005105D01*
X019948Y005055D01*
X019920Y005006D01*
X019889Y004960D01*
X019855Y004915D01*
X019818Y004874D01*
X019778Y004835D01*
X019735Y004798D01*
X019690Y004765D01*
X019689Y004766D01*
X019734Y004799D01*
X019777Y004835D01*
X019817Y004874D01*
X019854Y004916D01*
X019888Y004960D01*
X019920Y005007D01*
X019947Y005055D01*
X019972Y005105D01*
X019993Y005157D01*
X020010Y005210D01*
X020023Y005265D01*
X020033Y005320D01*
X020039Y005375D01*
X020041Y005431D01*
X020040Y005431D01*
X020038Y005375D01*
X020032Y005320D01*
X020022Y005265D01*
X020009Y005211D01*
X019992Y005157D01*
X019971Y005106D01*
X019947Y005056D01*
X019919Y005007D01*
X019888Y004961D01*
X019853Y004917D01*
X019816Y004875D01*
X019776Y004836D01*
X019734Y004800D01*
X019689Y004767D01*
X019688Y004768D01*
X019733Y004801D01*
X019776Y004837D01*
X019815Y004876D01*
X019853Y004917D01*
X019887Y004961D01*
X019918Y005008D01*
X019946Y005056D01*
X019970Y005106D01*
X019991Y005158D01*
X020008Y005211D01*
X020021Y005265D01*
X020031Y005320D01*
X020037Y005375D01*
X020039Y005431D01*
X020038Y005431D01*
X020036Y005375D01*
X020030Y005320D01*
X020020Y005265D01*
X020007Y005211D01*
X019990Y005158D01*
X019969Y005107D01*
X019945Y005056D01*
X019917Y005008D01*
X019886Y004962D01*
X019852Y004918D01*
X019815Y004876D01*
X019775Y004838D01*
X019732Y004802D01*
X019688Y004769D01*
X019687Y004769D01*
X019732Y004802D01*
X019774Y004838D01*
X019814Y004877D01*
X019851Y004919D01*
X019885Y004963D01*
X019916Y005009D01*
X019944Y005057D01*
X019968Y005107D01*
X019989Y005159D01*
X020006Y005211D01*
X020020Y005265D01*
X020029Y005320D01*
X020035Y005375D01*
X020037Y005431D01*
X020036Y005431D01*
X020034Y005376D01*
X020028Y005320D01*
X020019Y005266D01*
X020005Y005212D01*
X019988Y005159D01*
X019967Y005107D01*
X019943Y005057D01*
X019915Y005009D01*
X019884Y004963D01*
X019850Y004919D01*
X019813Y004878D01*
X019774Y004839D01*
X019731Y004803D01*
X019686Y004770D01*
X019686Y004771D01*
X019731Y004804D01*
X019773Y004840D01*
X019813Y004878D01*
X019850Y004920D01*
X019884Y004964D01*
X019914Y005010D01*
X019942Y005058D01*
X019966Y005108D01*
X019987Y005159D01*
X020004Y005212D01*
X020018Y005266D01*
X020027Y005320D01*
X020033Y005376D01*
X020035Y005431D01*
X020034Y005431D01*
X020032Y005376D01*
X020026Y005321D01*
X020017Y005266D01*
X020003Y005212D01*
X019986Y005160D01*
X019965Y005108D01*
X019941Y005058D01*
X019914Y005010D01*
X019883Y004964D01*
X019849Y004920D01*
X019812Y004879D01*
X019772Y004841D01*
X019730Y004805D01*
X019685Y004772D01*
X019685Y004773D01*
X019729Y004806D01*
X019772Y004841D01*
X019811Y004880D01*
X019848Y004921D01*
X019882Y004965D01*
X019913Y005011D01*
X019940Y005059D01*
X019965Y005109D01*
X019985Y005160D01*
X020002Y005213D01*
X020016Y005266D01*
X020025Y005321D01*
X020031Y005376D01*
X020033Y005431D01*
X020032Y005431D01*
X020030Y005376D01*
X020024Y005321D01*
X020015Y005266D01*
X020001Y005213D01*
X019984Y005160D01*
X019964Y005109D01*
X019939Y005059D01*
X019912Y005011D01*
X019881Y004965D01*
X019847Y004922D01*
X019810Y004881D01*
X019771Y004842D01*
X019729Y004806D01*
X019684Y004774D01*
X019728Y004807D01*
X019770Y004843D01*
X019810Y004881D01*
X019847Y004922D01*
X019880Y004966D01*
X019911Y005012D01*
X019939Y005060D01*
X019963Y005109D01*
X019983Y005161D01*
X020000Y005213D01*
X020014Y005267D01*
X020023Y005321D01*
X020029Y005376D01*
X020031Y005431D01*
X020030Y005431D01*
X020028Y005376D01*
X020022Y005321D01*
X020013Y005267D01*
X019999Y005213D01*
X019982Y005161D01*
X019962Y005110D01*
X019938Y005060D01*
X019910Y005012D01*
X019880Y004967D01*
X019846Y004923D01*
X019809Y004882D01*
X019770Y004844D01*
X019727Y004808D01*
X019683Y004775D01*
X019682Y004776D01*
X019727Y004809D01*
X019769Y004844D01*
X019808Y004883D01*
X019845Y004924D01*
X019879Y004967D01*
X019909Y005013D01*
X019937Y005061D01*
X019961Y005110D01*
X019981Y005161D01*
X019998Y005214D01*
X020012Y005267D01*
X020021Y005321D01*
X020027Y005376D01*
X020029Y005431D01*
X020028Y005431D01*
X020026Y005376D01*
X020020Y005321D01*
X020011Y005267D01*
X019997Y005214D01*
X019980Y005162D01*
X019960Y005111D01*
X019936Y005061D01*
X019909Y005013D01*
X019878Y004968D01*
X019844Y004924D01*
X019808Y004883D01*
X019768Y004845D01*
X019726Y004809D01*
X019682Y004777D01*
X019681Y004778D01*
X019726Y004810D01*
X019767Y004846D01*
X019807Y004884D01*
X019843Y004925D01*
X019877Y004968D01*
X019908Y005014D01*
X019935Y005062D01*
X019959Y005111D01*
X019980Y005162D01*
X019996Y005214D01*
X020010Y005267D01*
X020019Y005322D01*
X020025Y005376D01*
X020027Y005431D01*
X019693Y005212D02*
X019677Y005219D01*
X019695Y005259D01*
X019708Y005301D01*
X019718Y005344D01*
X019724Y005387D01*
X019726Y005431D01*
X019743Y005432D01*
X019744Y005431D01*
X019743Y005393D01*
X019738Y005355D01*
X019731Y005318D01*
X019721Y005282D01*
X019709Y005246D01*
X019694Y005211D01*
X019693Y005211D01*
X019708Y005246D01*
X019720Y005282D01*
X019730Y005318D01*
X019737Y005356D01*
X019742Y005393D01*
X019743Y005431D01*
X019742Y005431D01*
X019741Y005393D01*
X019736Y005356D01*
X019729Y005319D01*
X019719Y005282D01*
X019707Y005247D01*
X019692Y005212D01*
X019691Y005212D01*
X019706Y005247D01*
X019718Y005282D01*
X019728Y005319D01*
X019735Y005356D01*
X019740Y005393D01*
X019741Y005431D01*
X019740Y005431D01*
X019739Y005393D01*
X019734Y005356D01*
X019727Y005319D01*
X019717Y005283D01*
X019705Y005247D01*
X019690Y005213D01*
X019689Y005213D01*
X019704Y005248D01*
X019716Y005283D01*
X019726Y005319D01*
X019733Y005356D01*
X019738Y005393D01*
X019739Y005431D01*
X019738Y005431D01*
X019737Y005394D01*
X019732Y005356D01*
X019725Y005320D01*
X019716Y005283D01*
X019703Y005248D01*
X019688Y005214D01*
X019687Y005214D01*
X019702Y005248D01*
X019715Y005284D01*
X019724Y005320D01*
X019731Y005356D01*
X019736Y005394D01*
X019737Y005431D01*
X019736Y005431D01*
X019735Y005394D01*
X019730Y005357D01*
X019723Y005320D01*
X019714Y005284D01*
X019701Y005249D01*
X019686Y005215D01*
X019685Y005215D01*
X019700Y005249D01*
X019713Y005284D01*
X019722Y005320D01*
X019729Y005357D01*
X019734Y005394D01*
X019735Y005431D01*
X019734Y005431D01*
X019733Y005394D01*
X019728Y005357D01*
X019721Y005320D01*
X019712Y005285D01*
X019699Y005249D01*
X019685Y005215D01*
X019684Y005216D01*
X019698Y005250D01*
X019711Y005285D01*
X019720Y005321D01*
X019727Y005357D01*
X019732Y005394D01*
X019733Y005431D01*
X019732Y005431D01*
X019731Y005394D01*
X019726Y005357D01*
X019719Y005321D01*
X019710Y005285D01*
X019698Y005250D01*
X019683Y005216D01*
X019682Y005217D01*
X019699Y005257D01*
X019713Y005300D01*
X019723Y005343D01*
X019729Y005387D01*
X019731Y005431D01*
X019730Y005431D01*
X019728Y005387D01*
X019722Y005343D01*
X019712Y005300D01*
X019698Y005258D01*
X019681Y005217D01*
X019680Y005218D01*
X019697Y005258D01*
X019711Y005300D01*
X019721Y005343D01*
X019727Y005387D01*
X019729Y005431D01*
X019728Y005431D01*
X019726Y005387D01*
X019720Y005343D01*
X019710Y005300D01*
X019696Y005259D01*
X019679Y005218D01*
X019678Y005218D01*
X019696Y005259D01*
X019709Y005301D01*
X019719Y005344D01*
X019725Y005387D01*
X019727Y005431D01*
X018727Y005432D02*
X018745Y005432D01*
X018744Y005431D02*
X018746Y005387D01*
X018752Y005344D01*
X018762Y005301D01*
X018775Y005259D01*
X018793Y005219D01*
X018777Y005212D01*
X018776Y005211D01*
X018761Y005246D01*
X018749Y005282D01*
X018739Y005318D01*
X018732Y005355D01*
X018727Y005393D01*
X018726Y005431D01*
X018727Y005431D01*
X018728Y005393D01*
X018733Y005356D01*
X018740Y005318D01*
X018750Y005282D01*
X018762Y005246D01*
X018777Y005211D01*
X018778Y005212D01*
X018763Y005247D01*
X018751Y005282D01*
X018741Y005319D01*
X018734Y005356D01*
X018729Y005393D01*
X018728Y005431D01*
X018729Y005431D01*
X018730Y005393D01*
X018735Y005356D01*
X018742Y005319D01*
X018752Y005282D01*
X018764Y005247D01*
X018779Y005212D01*
X018780Y005213D01*
X018765Y005247D01*
X018753Y005283D01*
X018743Y005319D01*
X018736Y005356D01*
X018731Y005393D01*
X018730Y005431D01*
X018731Y005431D01*
X018732Y005393D01*
X018737Y005356D01*
X018744Y005319D01*
X018754Y005283D01*
X018766Y005248D01*
X018781Y005213D01*
X018782Y005214D01*
X018767Y005248D01*
X018754Y005283D01*
X018745Y005320D01*
X018738Y005356D01*
X018733Y005394D01*
X018732Y005431D01*
X018733Y005431D01*
X018734Y005394D01*
X018739Y005356D01*
X018746Y005320D01*
X018755Y005284D01*
X018768Y005248D01*
X018783Y005214D01*
X018784Y005215D01*
X018769Y005249D01*
X018756Y005284D01*
X018747Y005320D01*
X018740Y005357D01*
X018735Y005394D01*
X018734Y005431D01*
X018735Y005431D01*
X018736Y005394D01*
X018741Y005357D01*
X018748Y005320D01*
X018757Y005284D01*
X018770Y005249D01*
X018785Y005215D01*
X018771Y005249D01*
X018758Y005285D01*
X018749Y005320D01*
X018742Y005357D01*
X018737Y005394D01*
X018736Y005431D01*
X018737Y005431D01*
X018738Y005394D01*
X018743Y005357D01*
X018750Y005321D01*
X018759Y005285D01*
X018772Y005250D01*
X018786Y005216D01*
X018787Y005216D01*
X018772Y005250D01*
X018760Y005285D01*
X018751Y005321D01*
X018744Y005357D01*
X018739Y005394D01*
X018738Y005431D01*
X018739Y005431D01*
X018741Y005387D01*
X018747Y005343D01*
X018757Y005300D01*
X018771Y005257D01*
X018788Y005217D01*
X018789Y005217D01*
X018772Y005258D01*
X018758Y005300D01*
X018748Y005343D01*
X018742Y005387D01*
X018740Y005431D01*
X018741Y005431D01*
X018743Y005387D01*
X018749Y005343D01*
X018759Y005300D01*
X018773Y005258D01*
X018790Y005218D01*
X018791Y005218D01*
X018774Y005259D01*
X018760Y005300D01*
X018750Y005343D01*
X018744Y005387D01*
X018742Y005431D01*
X018743Y005431D01*
X018745Y005387D01*
X018751Y005344D01*
X018761Y005301D01*
X018774Y005259D01*
X018792Y005218D01*
D16*
X018735Y005432D02*
X018735Y008132D01*
X018435Y008132D02*
X018435Y005432D01*
X019735Y005432D02*
X019735Y008132D01*
X020035Y008132D02*
X020035Y005432D01*
X019235Y006382D02*
X019235Y006532D01*
X019235Y007032D02*
X019235Y007182D01*
M02*
