G75*
%MOIN*%
%OFA0B0*%
%FSLAX24Y24*%
%IPPOS*%
%LPD*%
%AMOC8*
5,1,8,0,0,1.08239X$1,22.5*
%
%ADD10C,0.0120*%
%ADD11C,0.0560*%
%ADD12R,0.1221X0.0512*%
%ADD13R,0.0520X0.0920*%
%ADD14R,0.1457X0.0906*%
%ADD15R,0.0670X0.0749*%
%ADD16R,0.0800X0.2140*%
%ADD17C,0.0640*%
%ADD18C,0.0926*%
%ADD19C,0.0780*%
%ADD20C,0.0640*%
%ADD21R,0.0906X0.0296*%
%ADD22R,0.0749X0.0670*%
%ADD23C,0.1700*%
D10*
X000160Y000160D02*
X037562Y000160D01*
X037562Y019451D01*
X000160Y019451D01*
X000160Y000160D01*
D11*
X022121Y002296D02*
X022641Y002296D01*
X022641Y003296D02*
X022121Y003296D01*
X022121Y004296D02*
X022641Y004296D01*
X022641Y005296D02*
X022121Y005296D01*
X022121Y006296D02*
X022641Y006296D01*
X022641Y007296D02*
X022121Y007296D01*
X022121Y008296D02*
X022641Y008296D01*
X022641Y009296D02*
X022121Y009296D01*
X022121Y010296D02*
X022641Y010296D01*
X022641Y011296D02*
X022121Y011296D01*
X022121Y012296D02*
X022641Y012296D01*
X022641Y013296D02*
X022121Y013296D01*
X022121Y014296D02*
X022641Y014296D01*
X022641Y015296D02*
X022121Y015296D01*
X025121Y015296D02*
X025641Y015296D01*
X025641Y014296D02*
X025121Y014296D01*
X025121Y013296D02*
X025641Y013296D01*
X025641Y012296D02*
X025121Y012296D01*
X025121Y011296D02*
X025641Y011296D01*
X025641Y010296D02*
X025121Y010296D01*
X025121Y009296D02*
X025641Y009296D01*
X025641Y008296D02*
X025121Y008296D01*
X025121Y007296D02*
X025641Y007296D01*
X025641Y006296D02*
X025121Y006296D01*
X025121Y005296D02*
X025641Y005296D01*
X025641Y004296D02*
X025121Y004296D01*
X025121Y003296D02*
X025641Y003296D01*
X025641Y002296D02*
X025121Y002296D01*
D12*
X028230Y004490D03*
X028230Y005277D03*
X028230Y006065D03*
X028230Y006852D03*
X028230Y007639D03*
X028230Y008427D03*
X028230Y009214D03*
X028230Y010002D03*
X035592Y010002D03*
X035592Y009214D03*
X035592Y008427D03*
X035592Y007639D03*
X035592Y006852D03*
X035592Y006065D03*
X035592Y005277D03*
X035592Y004490D03*
D13*
X013747Y004128D03*
X012837Y004128D03*
X011927Y004128D03*
D14*
X012837Y001688D03*
D15*
X015557Y004871D03*
X016660Y004871D03*
X013497Y006440D03*
X012395Y006440D03*
X015550Y008737D03*
X016652Y008737D03*
X016663Y011979D03*
X015560Y011979D03*
X019294Y011971D03*
X020396Y011971D03*
X016654Y015898D03*
X015552Y015898D03*
X031499Y011897D03*
X032601Y011897D03*
D16*
X019295Y008742D03*
X019295Y004942D03*
D17*
X035428Y013821D03*
D18*
X036428Y012821D03*
X034428Y012821D03*
X034428Y014821D03*
X036428Y014821D03*
D19*
X034032Y018415D03*
X033032Y018415D03*
X032032Y018415D03*
X031032Y018415D03*
X030032Y018415D03*
X029032Y018415D03*
X025696Y018400D03*
X024696Y018400D03*
X023696Y018400D03*
X022696Y018400D03*
X001565Y012340D03*
X001565Y011340D03*
X001565Y010340D03*
X001565Y009340D03*
X001565Y008340D03*
X001565Y007340D03*
X030412Y001341D03*
X031412Y001341D03*
X032412Y001341D03*
X033412Y001341D03*
X034412Y001341D03*
D20*
X009097Y001710D02*
X009097Y002310D01*
X007097Y002310D02*
X007097Y001710D01*
D21*
X012413Y009656D03*
X013870Y009656D03*
D22*
X028506Y011420D03*
X028506Y012522D03*
X027325Y017719D03*
X027325Y018821D03*
D23*
X027913Y014527D03*
X019845Y014527D03*
X036297Y018186D03*
X027913Y002522D03*
X019845Y002522D03*
X036297Y001430D03*
X001439Y001420D03*
X001433Y018190D03*
M02*
