%
M48
M72
T01C0.0236
T02C0.0320
T03C0.0400
T04C0.0591
T05C0.1260
%
T01
X4431Y8368
X23328Y1675
X34059Y8580
X10336Y887
X14443Y5218
X12698Y5218
X15848Y13880
X13880Y14667
X14273Y15848
X29649Y7780
X32777Y9155
X26659Y8760
X26872Y10336
T02
X22321Y15236
X22321Y14236
X22321Y13236
X22321Y12236
X22321Y11236
X22321Y10236
X22321Y9236
X22321Y8236
X22321Y7236
X22321Y6236
X22321Y5236
X22321Y4236
X22321Y3236
X22321Y2236
X25321Y2236
X25321Y3236
X25321Y4236
X25321Y5236
X25321Y6236
X25321Y7236
X25321Y8236
X25321Y9236
X25321Y10236
X25321Y11236
X25321Y12236
X25321Y13236
X25321Y14236
X25321Y15236
T03
X1620Y7376
X1620Y8376
X1620Y9376
X1620Y10376
X1620Y11376
X1620Y12376
X35368Y13761
X22636Y18340
X23636Y18340
X24636Y18340
X25636Y18340
X7037Y1950
X9037Y1950
X33972Y18355
X32972Y18355
X31972Y18355
X30972Y18355
X29972Y18355
X28972Y18355
X34352Y1281
X33352Y1281
X32352Y1281
X31352Y1281
X30352Y1281
T04
X36368Y14761
X34368Y14761
X34368Y12761
X36368Y12761
T05
X27853Y2462
X27853Y14467
X19785Y14467
X19785Y2462
X36237Y1370
X36237Y18126
X1373Y18130
X1379Y1360
M30
