G75*
%MOIN*%
%OFA0B0*%
%FSLAX24Y24*%
%IPPOS*%
%LPD*%
%AMOC8*
5,1,8,0,0,1.08239X$1,22.5*
%
%ADD10C,0.0000*%
%ADD11C,0.0520*%
%ADD12R,0.1181X0.0472*%
%ADD13R,0.0480X0.0880*%
%ADD14R,0.1417X0.0866*%
%ADD15C,0.0740*%
%ADD16R,0.0630X0.0709*%
%ADD17R,0.0760X0.2100*%
%ADD18C,0.0600*%
%ADD19C,0.0886*%
%ADD20C,0.0600*%
%ADD21R,0.0866X0.0256*%
%ADD22R,0.0709X0.0630*%
%ADD23C,0.1660*%
%ADD24C,0.0120*%
%ADD25C,0.0160*%
%ADD26C,0.0240*%
%ADD27C,0.0356*%
D10*
X000100Y000100D02*
X000100Y019391D01*
X037502Y019391D01*
X037502Y000100D01*
X000100Y000100D01*
D11*
X022061Y002236D02*
X022581Y002236D01*
X022581Y003236D02*
X022061Y003236D01*
X022061Y004236D02*
X022581Y004236D01*
X022581Y005236D02*
X022061Y005236D01*
X022061Y006236D02*
X022581Y006236D01*
X022581Y007236D02*
X022061Y007236D01*
X022061Y008236D02*
X022581Y008236D01*
X022581Y009236D02*
X022061Y009236D01*
X022061Y010236D02*
X022581Y010236D01*
X022581Y011236D02*
X022061Y011236D01*
X022061Y012236D02*
X022581Y012236D01*
X022581Y013236D02*
X022061Y013236D01*
X022061Y014236D02*
X022581Y014236D01*
X022581Y015236D02*
X022061Y015236D01*
X025061Y015236D02*
X025581Y015236D01*
X025581Y014236D02*
X025061Y014236D01*
X025061Y013236D02*
X025581Y013236D01*
X025581Y012236D02*
X025061Y012236D01*
X025061Y011236D02*
X025581Y011236D01*
X025581Y010236D02*
X025061Y010236D01*
X025061Y009236D02*
X025581Y009236D01*
X025581Y008236D02*
X025061Y008236D01*
X025061Y007236D02*
X025581Y007236D01*
X025581Y006236D02*
X025061Y006236D01*
X025061Y005236D02*
X025581Y005236D01*
X025581Y004236D02*
X025061Y004236D01*
X025061Y003236D02*
X025581Y003236D01*
X025581Y002236D02*
X025061Y002236D01*
D12*
X028170Y004430D03*
X028170Y005217D03*
X028170Y006005D03*
X028170Y006792D03*
X028170Y007579D03*
X028170Y008367D03*
X028170Y009154D03*
X028170Y009942D03*
X035532Y009942D03*
X035532Y009154D03*
X035532Y008367D03*
X035532Y007579D03*
X035532Y006792D03*
X035532Y006005D03*
X035532Y005217D03*
X035532Y004430D03*
D13*
X013687Y004068D03*
X012777Y004068D03*
X011867Y004068D03*
D14*
X012777Y001628D03*
D15*
X001620Y007376D03*
X001620Y008376D03*
X001620Y009376D03*
X001620Y010376D03*
X001620Y011376D03*
X001620Y012376D03*
X022636Y018340D03*
X023636Y018340D03*
X024636Y018340D03*
X025636Y018340D03*
X028972Y018355D03*
X029972Y018355D03*
X030972Y018355D03*
X031972Y018355D03*
X032972Y018355D03*
X033972Y018355D03*
X034352Y001281D03*
X033352Y001281D03*
X032352Y001281D03*
X031352Y001281D03*
X030352Y001281D03*
D16*
X016600Y004811D03*
X015497Y004811D03*
X013437Y006380D03*
X012335Y006380D03*
X015490Y008677D03*
X016592Y008677D03*
X016603Y011919D03*
X015500Y011919D03*
X019234Y011911D03*
X020336Y011911D03*
X016594Y015838D03*
X015492Y015838D03*
X031439Y011837D03*
X032541Y011837D03*
D17*
X019235Y008682D03*
X019235Y004882D03*
D18*
X035368Y013761D03*
D19*
X036368Y012761D03*
X034368Y012761D03*
X034368Y014761D03*
X036368Y014761D03*
D20*
X009037Y002250D02*
X009037Y001650D01*
X007037Y001650D02*
X007037Y002250D01*
D21*
X012353Y009596D03*
X013810Y009596D03*
D22*
X028446Y011360D03*
X028446Y012462D03*
X027265Y017659D03*
X027265Y018761D03*
D23*
X027853Y014467D03*
X019785Y014467D03*
X036237Y018126D03*
X027853Y002462D03*
X019785Y002462D03*
X036237Y001370D03*
X001379Y001360D03*
X001373Y018130D03*
D24*
X013880Y014667D02*
X016594Y014667D01*
X016594Y015838D01*
X016604Y015848D01*
X015492Y015838D02*
X014283Y015838D01*
X014273Y015848D01*
X016594Y014667D02*
X016594Y011927D01*
X016603Y011919D01*
X015500Y011919D02*
X015500Y013532D01*
X015848Y013880D01*
X015500Y011919D02*
X015500Y011286D01*
X013810Y009596D01*
X012353Y009596D02*
X005659Y009596D01*
X004431Y008368D01*
X011867Y005912D02*
X011867Y004068D01*
X012777Y005139D02*
X012698Y005218D01*
X011867Y005912D02*
X012335Y006380D01*
X013437Y006380D02*
X013687Y006130D01*
X015497Y004811D02*
X015497Y004474D01*
X015454Y004431D01*
X016600Y004811D02*
X016613Y004824D01*
X019235Y004882D02*
X019293Y004824D01*
X019391Y004824D01*
X023328Y007229D02*
X023328Y007244D01*
X022321Y008236D02*
X022279Y008236D01*
X020966Y009549D01*
X020966Y010179D01*
X019234Y011911D01*
X020336Y011911D02*
X021360Y010887D01*
X021360Y009943D01*
X022066Y009236D01*
X022321Y009236D01*
X022321Y010236D02*
X023919Y011834D01*
X023919Y016060D01*
X024636Y016777D01*
X024636Y018340D01*
X025636Y018340D02*
X025636Y018265D01*
X026478Y017423D01*
X027265Y017423D01*
X027265Y017659D01*
X027265Y017423D02*
X029040Y017423D01*
X029972Y018355D01*
X028972Y018355D02*
X028330Y018998D01*
X028311Y018998D01*
X027265Y018998D01*
X027265Y018761D01*
X027108Y018761D01*
X026872Y018998D01*
X022935Y018998D01*
X022636Y018699D02*
X022629Y018692D01*
X022629Y018630D01*
X022639Y018620D01*
X022636Y018699D02*
X022636Y018340D01*
X023636Y018340D02*
X023636Y018097D01*
X023619Y018080D01*
X023619Y011990D01*
X022869Y011240D01*
X022325Y011240D01*
X022321Y011236D01*
X025321Y009236D02*
X025645Y009560D01*
X026872Y010336D02*
X026872Y011911D01*
X027423Y012462D01*
X028446Y012462D01*
X028446Y011360D02*
X028446Y009943D01*
X028171Y009943D01*
X028170Y009942D01*
X028170Y009154D02*
X031201Y009154D01*
X032777Y009155D01*
X031396Y007780D02*
X029649Y007780D01*
X028446Y007580D02*
X028446Y007579D01*
X028170Y007579D01*
X028446Y007580D02*
X026665Y007580D01*
X025321Y006236D01*
X025321Y005236D02*
X026877Y006792D01*
X028170Y006792D01*
X028170Y006005D02*
X027089Y006005D01*
X025321Y004236D01*
X025321Y003236D02*
X027303Y005218D01*
X028446Y005218D01*
X028446Y005217D01*
X028170Y005217D01*
X031396Y007780D02*
X033958Y005218D01*
X035531Y005218D01*
X035532Y005217D01*
X031352Y001281D02*
X030565Y000494D01*
X024903Y000494D01*
X024116Y001281D01*
X012777Y001360D02*
X012777Y001628D01*
X012745Y001628D01*
X012698Y001675D01*
X012777Y001360D02*
X012305Y000887D01*
X010336Y000887D01*
X015454Y008642D02*
X015490Y008677D01*
X016592Y008677D02*
X016676Y008761D01*
X018998Y008761D02*
X019077Y008682D01*
X019235Y008682D01*
X025321Y008236D02*
X025325Y008240D01*
X026129Y008240D01*
X026649Y008760D01*
X026659Y008760D01*
X028127Y008410D02*
X028170Y008367D01*
X031439Y011754D02*
X031439Y011837D01*
X034366Y012760D02*
X034368Y012761D01*
X032383Y016242D02*
X027872Y016232D01*
X026610Y014970D01*
X026610Y014525D01*
X025321Y013236D01*
X025321Y014236D02*
X027720Y016635D01*
X031596Y016635D01*
X031972Y017011D01*
X031972Y018355D01*
X032972Y018355D02*
X032972Y016830D01*
X032383Y016242D01*
X030972Y017586D02*
X030415Y017029D01*
X027114Y017029D01*
X025321Y015236D01*
X022321Y015281D02*
X022321Y015236D01*
X028311Y018998D02*
X028329Y018980D01*
X028347Y018980D01*
X030972Y018355D02*
X030972Y017586D01*
D25*
X028972Y018355D02*
X028347Y018980D01*
X022935Y018998D02*
X022636Y018699D01*
X022639Y018620D02*
X022639Y018350D01*
X021754Y015848D02*
X022321Y015281D01*
X021754Y015848D02*
X016604Y015848D01*
X027179Y009560D02*
X027561Y009942D01*
X028170Y009942D01*
X028446Y009943D02*
X029628Y009943D01*
X031439Y011754D01*
X031439Y011837D02*
X031439Y012380D01*
X031819Y012760D01*
X034366Y012760D01*
X034368Y012761D02*
X036368Y012761D01*
X036368Y014761D01*
X034368Y014761D01*
X033636Y011837D02*
X032541Y011837D01*
X033636Y011837D02*
X035532Y009942D01*
X034745Y009942D01*
X034352Y009549D01*
X034352Y008873D01*
X034059Y008580D01*
X028127Y008410D02*
X027519Y008410D01*
X027179Y008750D01*
X027179Y009560D01*
X025645Y009560D01*
X025321Y009236D02*
X023328Y007244D01*
X023328Y007229D02*
X023328Y001675D01*
X022935Y001281D01*
X015454Y001281D01*
X013687Y003048D01*
X013687Y004068D01*
X012777Y004068D02*
X012777Y005139D01*
X014443Y005218D02*
X014443Y009103D01*
X013810Y009596D01*
X018998Y008761D02*
X020796Y008761D01*
X022321Y007236D01*
X022321Y008236D02*
X023328Y007229D01*
X024116Y006187D02*
X025321Y007236D01*
X024116Y006187D02*
X024116Y001281D01*
X023328Y000887D01*
X014667Y000887D01*
X013880Y001675D01*
X012698Y001675D01*
X011155Y004068D02*
X009037Y001950D01*
X007037Y001950D02*
X007037Y004958D01*
X001620Y010376D01*
X011155Y004068D02*
X011867Y004068D01*
X019391Y004824D02*
X020909Y004824D01*
X022321Y006236D01*
D26*
X019391Y004824D02*
X016613Y004824D01*
X015454Y004431D02*
X015092Y004068D01*
X013687Y004068D01*
X013687Y006130D01*
X013437Y006380D02*
X013437Y008512D01*
X012353Y009596D01*
X009574Y012376D01*
X003643Y012376D01*
X003643Y013880D01*
X008114Y018350D01*
X022639Y018350D01*
X018998Y008761D02*
X016676Y008761D01*
X015454Y008642D02*
X015454Y004431D01*
X012777Y004068D02*
X012777Y001628D01*
X003643Y012376D02*
X001620Y012376D01*
D27*
X004431Y008368D03*
X012698Y005218D03*
X014443Y005218D03*
X010336Y000887D03*
X023328Y001675D03*
X029649Y007780D03*
X026659Y008760D03*
X026872Y010336D03*
X032777Y009155D03*
X034059Y008580D03*
X015848Y013880D03*
X013880Y014667D03*
X014273Y015848D03*
M02*
