%
M48
M72
T01C0.0320
T02C0.0400
T03C0.0512
T04C0.0591
T05C0.1260
%
T01
X17990Y1842
X17990Y2842
X17990Y3842
X17990Y4842
X17990Y5842
X17990Y6842
X17990Y7842
X17990Y8842
X17990Y9842
X17990Y10842
X17990Y11842
X17990Y12842
X17990Y13842
X17990Y14842
X20990Y14842
X20990Y13842
X20990Y12842
X20990Y11842
X20990Y10842
X20990Y9842
X20990Y8842
X20990Y7842
X20990Y6842
X20990Y5842
X20990Y4842
X20990Y3842
X20990Y2842
X20990Y1842
T02
X5494Y5494
X3494Y5494
X3305Y7509
X3305Y8509
X3305Y9509
X3305Y10509
X3305Y11509
X3305Y12509
X18735Y18384
X19735Y18384
X20735Y18384
X21735Y18384
X31037Y13761
T03
X7432Y17671
X4873Y17671
T04
X30037Y14761
X32037Y14761
X32037Y12761
X30037Y12761
T05
X1364Y1363
X15370Y1985
X23412Y1985
X31906Y1370
X23244Y14189
X15370Y14189
X1369Y18122
X31906Y18126
M30
