G75*
%MOIN*%
%OFA0B0*%
%FSLAX24Y24*%
%IPPOS*%
%LPD*%
%AMOC8*
5,1,8,0,0,1.08239X$1,22.5*
%
%ADD10C,0.0040*%
%ADD11C,0.0060*%
%ADD12C,0.0120*%
%ADD13C,0.0080*%
%ADD14C,0.0050*%
%ADD15C,0.0070*%
%ADD16C,0.0030*%
D10*
X004770Y002050D02*
X005077Y002050D01*
X004770Y002357D01*
X004770Y002434D01*
X004847Y002511D01*
X005000Y002511D01*
X005077Y002434D01*
X005230Y002511D02*
X005537Y002511D01*
X005537Y002050D01*
X005691Y002050D02*
X005844Y002204D01*
X005768Y002204D02*
X005998Y002204D01*
X005998Y002050D02*
X005998Y002511D01*
X005768Y002511D01*
X005691Y002434D01*
X005691Y002281D01*
X005768Y002204D01*
X005537Y002281D02*
X005384Y002281D01*
X006151Y001974D02*
X006458Y001974D01*
X006612Y002050D02*
X006765Y002204D01*
X006688Y002204D02*
X006919Y002204D01*
X006919Y002050D02*
X006919Y002511D01*
X006688Y002511D01*
X006612Y002434D01*
X006612Y002281D01*
X006688Y002204D01*
X007072Y002050D02*
X007072Y002511D01*
X007379Y002511D02*
X007379Y002050D01*
X007225Y002204D01*
X007072Y002050D01*
X007532Y002281D02*
X007609Y002204D01*
X007839Y002204D01*
X007839Y002050D02*
X007839Y002511D01*
X007609Y002511D01*
X007532Y002434D01*
X007532Y002281D01*
X007828Y001499D02*
X007828Y001038D01*
X007981Y001038D02*
X008288Y001038D01*
X008135Y001038D02*
X008135Y001499D01*
X008288Y001345D01*
X007828Y001192D02*
X007598Y001345D01*
X007828Y001192D02*
X007598Y001038D01*
X009762Y000959D02*
X010069Y001419D01*
X010222Y001419D02*
X010529Y001419D01*
X010376Y001419D02*
X010376Y000959D01*
X010069Y000959D02*
X009762Y001419D01*
X010683Y001419D02*
X010990Y000959D01*
X011143Y000959D02*
X011450Y001419D01*
X011604Y001342D02*
X011680Y001419D01*
X011911Y001419D01*
X011911Y000959D01*
X011911Y001112D02*
X011680Y001112D01*
X011604Y001189D01*
X011604Y001342D01*
X011757Y001112D02*
X011604Y000959D01*
X011450Y000959D02*
X011143Y001419D01*
X012064Y000882D02*
X012371Y000882D01*
X012524Y000959D02*
X012831Y000959D01*
X012524Y001265D01*
X012524Y001342D01*
X012601Y001419D01*
X012755Y001419D01*
X012831Y001342D01*
X012985Y001419D02*
X013292Y001419D01*
X013292Y000959D01*
X013445Y000959D02*
X013599Y001112D01*
X013522Y001112D02*
X013752Y001112D01*
X013752Y000959D02*
X013752Y001419D01*
X013522Y001419D01*
X013445Y001342D01*
X013445Y001189D01*
X013522Y001112D01*
X013292Y001189D02*
X013138Y001189D01*
X014444Y001245D02*
X014674Y001092D01*
X014444Y000939D01*
X014674Y000939D02*
X014674Y001399D01*
X014981Y001399D02*
X014981Y000939D01*
X014828Y000939D02*
X015135Y000939D01*
X015135Y001245D02*
X014981Y001399D01*
X004152Y006701D02*
X004075Y006624D01*
X003922Y006624D01*
X003845Y006701D01*
X003845Y006778D01*
X003922Y006855D01*
X004075Y006855D01*
X004152Y006931D01*
X004152Y007008D01*
X004075Y007085D01*
X003922Y007085D01*
X003845Y007008D01*
X003692Y007085D02*
X003538Y006931D01*
X003385Y007085D01*
X003385Y006624D01*
X003231Y006624D02*
X003231Y006931D01*
X003078Y007085D01*
X002924Y006931D01*
X002924Y006624D01*
X002771Y006548D02*
X002464Y006548D01*
X002311Y006624D02*
X002311Y007085D01*
X002080Y007085D01*
X002004Y007008D01*
X002004Y006855D01*
X002080Y006778D01*
X002311Y006778D01*
X002157Y006778D02*
X002004Y006624D01*
X001850Y006624D02*
X001850Y007085D01*
X001543Y007085D01*
X001390Y007008D02*
X001313Y007085D01*
X001160Y007085D01*
X001083Y007008D01*
X001083Y006931D01*
X001390Y006624D01*
X001083Y006624D01*
X001697Y006855D02*
X001850Y006855D01*
X002924Y006855D02*
X003231Y006855D01*
X003692Y006624D02*
X003692Y007085D01*
X003456Y009810D02*
X003303Y009810D01*
X003226Y009887D01*
X003226Y009963D01*
X003303Y010040D01*
X003456Y010040D01*
X003533Y010117D01*
X003533Y010194D01*
X003456Y010270D01*
X003303Y010270D01*
X003226Y010194D01*
X003073Y010270D02*
X003073Y009810D01*
X002919Y009963D01*
X002766Y009810D01*
X002766Y010270D01*
X002612Y010117D02*
X002459Y010270D01*
X002459Y009810D01*
X002612Y009810D02*
X002305Y009810D01*
X003456Y009810D02*
X003533Y009887D01*
X002674Y016654D02*
X002367Y016654D01*
X002214Y016731D02*
X002214Y017191D01*
X001984Y017191D01*
X001907Y017115D01*
X001907Y016961D01*
X001984Y016884D01*
X002214Y016884D01*
X002060Y016884D02*
X001907Y016731D01*
X001753Y016731D02*
X001753Y017191D01*
X001446Y017191D01*
X001293Y017038D02*
X001140Y017191D01*
X001140Y016731D01*
X001293Y016731D02*
X000986Y016731D01*
X001600Y016961D02*
X001753Y016961D01*
X002828Y016961D02*
X003135Y016961D01*
X003135Y017038D02*
X002981Y017191D01*
X002828Y017038D01*
X002828Y016731D01*
X003135Y016731D02*
X003135Y017038D01*
X003288Y017191D02*
X003288Y016731D01*
X003595Y016731D02*
X003595Y017191D01*
X003441Y017038D01*
X003288Y017191D01*
X003748Y017115D02*
X003825Y017191D01*
X003979Y017191D01*
X004055Y017115D01*
X004055Y017038D01*
X003979Y016961D01*
X003825Y016961D01*
X003748Y016884D01*
X003748Y016808D01*
X003825Y016731D01*
X003979Y016731D01*
X004055Y016808D01*
X004475Y017489D02*
X004822Y017489D01*
X004648Y017489D02*
X004648Y018010D01*
X004822Y017836D01*
X004990Y018010D02*
X005337Y018010D01*
X005337Y017489D01*
X005506Y017489D02*
X005679Y017663D01*
X005593Y017663D02*
X005853Y017663D01*
X005853Y017489D02*
X005853Y018010D01*
X005593Y018010D01*
X005506Y017923D01*
X005506Y017749D01*
X005593Y017663D01*
X005337Y017749D02*
X005164Y017749D01*
X006022Y017402D02*
X006369Y017402D01*
X006537Y017489D02*
X006711Y017663D01*
X006624Y017663D02*
X006884Y017663D01*
X006884Y017489D02*
X006884Y018010D01*
X006624Y018010D01*
X006537Y017923D01*
X006537Y017749D01*
X006624Y017663D01*
X007053Y017489D02*
X007053Y018010D01*
X007400Y018010D02*
X007400Y017489D01*
X007226Y017663D01*
X007053Y017489D01*
X007569Y017749D02*
X007569Y017923D01*
X007655Y018010D01*
X007916Y018010D01*
X007916Y017489D01*
X007916Y017663D02*
X007655Y017663D01*
X007569Y017749D01*
X007509Y018404D02*
X007509Y018864D01*
X007279Y018711D02*
X007509Y018557D01*
X007279Y018404D01*
X007663Y018404D02*
X007970Y018404D01*
X007816Y018404D02*
X007816Y018864D01*
X007970Y018711D01*
X009534Y017984D02*
X009841Y017524D01*
X009534Y017524D02*
X009841Y017984D01*
X009995Y017984D02*
X010302Y017984D01*
X010455Y017984D02*
X010762Y017524D01*
X010916Y017524D02*
X011222Y017984D01*
X011376Y017908D02*
X011376Y017754D01*
X011453Y017677D01*
X011683Y017677D01*
X011683Y017524D02*
X011683Y017984D01*
X011453Y017984D01*
X011376Y017908D01*
X011529Y017677D02*
X011376Y017524D01*
X011222Y017524D02*
X010916Y017984D01*
X010148Y017984D02*
X010148Y017524D01*
X011836Y017447D02*
X012143Y017447D01*
X012297Y017524D02*
X012604Y017524D01*
X012450Y017524D02*
X012450Y017984D01*
X012604Y017831D01*
X014779Y017679D02*
X015009Y017833D01*
X014779Y017986D01*
X015009Y018140D02*
X015009Y017679D01*
X015163Y017679D02*
X015469Y017679D01*
X015316Y017679D02*
X015316Y018140D01*
X015469Y017986D01*
X022105Y017791D02*
X022105Y017561D01*
X022566Y017561D01*
X022566Y017791D01*
X022489Y017868D01*
X022182Y017868D01*
X022105Y017791D01*
X022105Y017407D02*
X022566Y017407D01*
X022566Y017100D02*
X022105Y017407D01*
X022105Y017100D02*
X022566Y017100D01*
X022489Y016947D02*
X022566Y016870D01*
X022566Y016717D01*
X022489Y016640D01*
X022182Y016640D01*
X022105Y016717D01*
X022105Y016870D01*
X022182Y016947D01*
X022335Y016947D01*
X022335Y016793D01*
X023085Y017253D02*
X023546Y017253D01*
X023546Y017100D02*
X023546Y017407D01*
X023546Y017560D02*
X023085Y017867D01*
X023085Y017560D02*
X023546Y017867D01*
X024125Y017847D02*
X024586Y017540D01*
X024509Y017387D02*
X024355Y017387D01*
X024279Y017310D01*
X024279Y017080D01*
X024279Y017233D02*
X024125Y017387D01*
X024125Y017540D02*
X024586Y017847D01*
X025115Y017781D02*
X025115Y017628D01*
X025192Y017551D01*
X025269Y017397D02*
X025576Y017397D01*
X025499Y017551D02*
X025576Y017628D01*
X025576Y017781D01*
X025499Y017858D01*
X025422Y017858D01*
X025345Y017781D01*
X025269Y017858D01*
X025192Y017858D01*
X025115Y017781D01*
X025345Y017781D02*
X025345Y017704D01*
X025269Y017397D02*
X025115Y017244D01*
X025269Y017090D01*
X025576Y017090D01*
X025499Y016937D02*
X025422Y016937D01*
X025345Y016860D01*
X025269Y016937D01*
X025192Y016937D01*
X025115Y016860D01*
X025115Y016707D01*
X025192Y016630D01*
X025345Y016783D02*
X025345Y016860D01*
X025499Y016937D02*
X025576Y016860D01*
X025576Y016707D01*
X025499Y016630D01*
X024586Y017080D02*
X024586Y017310D01*
X024509Y017387D01*
X024586Y017080D02*
X024125Y017080D01*
X027748Y017248D02*
X027902Y017095D01*
X028209Y017095D01*
X028132Y016941D02*
X028055Y016941D01*
X027979Y016865D01*
X027902Y016941D01*
X027825Y016941D01*
X027748Y016865D01*
X027748Y016711D01*
X027825Y016635D01*
X027979Y016788D02*
X027979Y016865D01*
X028132Y016941D02*
X028209Y016865D01*
X028209Y016711D01*
X028132Y016635D01*
X028799Y017061D02*
X028799Y017291D01*
X028876Y017368D01*
X029183Y017368D01*
X029260Y017291D01*
X029260Y017061D01*
X028799Y017061D01*
X028876Y017521D02*
X028953Y017521D01*
X029030Y017598D01*
X029030Y017751D01*
X028953Y017828D01*
X028876Y017828D01*
X028799Y017751D01*
X028799Y017598D01*
X028876Y017521D01*
X029030Y017598D02*
X029106Y017521D01*
X029183Y017521D01*
X029260Y017598D01*
X029260Y017751D01*
X029183Y017828D01*
X029106Y017828D01*
X029030Y017751D01*
X028209Y017786D02*
X028132Y017862D01*
X028055Y017862D01*
X027979Y017786D01*
X027902Y017862D01*
X027825Y017862D01*
X027748Y017786D01*
X027748Y017632D01*
X027825Y017555D01*
X027902Y017402D02*
X028209Y017402D01*
X028132Y017555D02*
X028209Y017632D01*
X028209Y017786D01*
X027979Y017786D02*
X027979Y017709D01*
X027902Y017402D02*
X027748Y017248D01*
X029809Y017312D02*
X029809Y017082D01*
X030270Y017082D01*
X030270Y017312D01*
X030193Y017389D01*
X029886Y017389D01*
X029809Y017312D01*
X029809Y017542D02*
X029886Y017542D01*
X030193Y017849D01*
X030270Y017849D01*
X030270Y017542D01*
X030782Y017553D02*
X030782Y017784D01*
X030858Y017860D01*
X031165Y017860D01*
X031242Y017784D01*
X031242Y017553D01*
X030782Y017553D01*
X030782Y017400D02*
X031242Y017400D01*
X031242Y017093D02*
X030782Y017093D01*
X030858Y016940D02*
X031012Y016940D01*
X031012Y016786D01*
X031165Y016633D02*
X030858Y016633D01*
X030782Y016709D01*
X030782Y016863D01*
X030858Y016940D01*
X031165Y016940D02*
X031242Y016863D01*
X031242Y016709D01*
X031165Y016633D01*
X031242Y017093D02*
X030782Y017400D01*
X033224Y017762D02*
X033531Y017762D01*
X033378Y017762D02*
X033378Y017301D01*
X033685Y017301D02*
X033992Y017301D01*
X033992Y017762D01*
X033685Y017762D01*
X033838Y017532D02*
X033992Y017532D01*
X034145Y017455D02*
X034145Y017378D01*
X034222Y017301D01*
X034375Y017301D01*
X034452Y017378D01*
X034606Y017301D02*
X034912Y017301D01*
X034912Y017762D01*
X034606Y017762D01*
X034452Y017685D02*
X034452Y017608D01*
X034375Y017532D01*
X034222Y017532D01*
X034145Y017455D01*
X034145Y017685D02*
X034222Y017762D01*
X034375Y017762D01*
X034452Y017685D01*
X034759Y017532D02*
X034912Y017532D01*
X035066Y017532D02*
X035143Y017455D01*
X035373Y017455D01*
X035219Y017455D02*
X035066Y017301D01*
X035066Y017532D02*
X035066Y017685D01*
X035143Y017762D01*
X035373Y017762D01*
X035373Y017301D01*
X034519Y015441D02*
X034259Y015441D01*
X034172Y015354D01*
X034172Y015181D01*
X034259Y015094D01*
X034519Y015094D01*
X034519Y014921D02*
X034519Y015441D01*
X034004Y015441D02*
X034004Y014921D01*
X033830Y015094D01*
X033657Y014921D01*
X033657Y015441D01*
X033488Y015441D02*
X033228Y015441D01*
X033141Y015354D01*
X033141Y015181D01*
X033228Y015094D01*
X033488Y015094D01*
X033315Y015094D02*
X033141Y014921D01*
X033488Y014921D02*
X033488Y015441D01*
X031606Y015311D02*
X031432Y015484D01*
X031432Y014964D01*
X031259Y014964D02*
X031606Y014964D01*
X031090Y014964D02*
X031090Y015484D01*
X030830Y015311D02*
X031090Y015137D01*
X030830Y014964D01*
D11*
X033497Y012291D02*
X033497Y012078D01*
X033604Y011971D01*
X033924Y011971D01*
X033710Y011971D02*
X033497Y011757D01*
X033924Y011757D02*
X033924Y012398D01*
X033604Y012398D01*
X033497Y012291D01*
X034141Y012398D02*
X034569Y012398D01*
X034355Y012398D02*
X034355Y011757D01*
X034560Y011423D02*
X034133Y010782D01*
X034103Y010404D02*
X034530Y009764D01*
X034520Y009456D02*
X034093Y009456D01*
X033876Y009456D02*
X033876Y009029D01*
X033662Y008815D01*
X033449Y009029D01*
X033449Y009456D01*
X034093Y009135D02*
X034093Y008922D01*
X034200Y008815D01*
X034414Y008815D01*
X034520Y008922D01*
X034520Y009135D02*
X034307Y009242D01*
X034200Y009242D01*
X034093Y009135D01*
X034520Y009135D02*
X034520Y009456D01*
X034951Y009349D02*
X034951Y008922D01*
X035165Y009135D02*
X034738Y009135D01*
X034961Y009764D02*
X034961Y010404D01*
X034748Y010404D02*
X035175Y010404D01*
X035205Y010782D02*
X035205Y011423D01*
X034885Y011423D01*
X034778Y011316D01*
X034778Y011102D01*
X034885Y010996D01*
X035205Y010996D01*
X034991Y010996D02*
X034778Y010782D01*
X034560Y010782D02*
X034133Y011423D01*
X034786Y011864D02*
X034786Y012291D01*
X034893Y012398D01*
X035213Y012398D01*
X035213Y011757D01*
X034893Y011757D01*
X034786Y011864D01*
X034530Y010404D02*
X034103Y009764D01*
X034106Y008460D02*
X034106Y007819D01*
X034533Y008460D01*
X034533Y007819D01*
X034751Y007926D02*
X034751Y008140D01*
X034964Y008140D01*
X034751Y008353D02*
X034857Y008460D01*
X035071Y008460D01*
X035178Y008353D01*
X035178Y007926D01*
X035071Y007819D01*
X034857Y007819D01*
X034751Y007926D01*
X033888Y007819D02*
X033888Y008460D01*
X033568Y008460D01*
X033461Y008353D01*
X033461Y007926D01*
X033568Y007819D01*
X033888Y007819D01*
X036317Y006211D02*
X036317Y005571D01*
X036100Y005677D02*
X035993Y005784D01*
X035673Y005784D01*
X035673Y005891D02*
X035673Y005571D01*
X035993Y005571D01*
X036100Y005677D01*
X035993Y005998D02*
X035779Y005998D01*
X035673Y005891D01*
X035455Y005998D02*
X035242Y005998D01*
X035348Y006104D02*
X035348Y005677D01*
X035242Y005571D01*
X035025Y005571D02*
X034705Y005571D01*
X034598Y005677D01*
X034705Y005784D01*
X034919Y005784D01*
X035025Y005891D01*
X034919Y005998D01*
X034598Y005998D01*
X034381Y005891D02*
X034274Y005998D01*
X034061Y005998D01*
X033954Y005891D01*
X033954Y005784D01*
X034381Y005784D01*
X034381Y005677D02*
X034381Y005891D01*
X034381Y005677D02*
X034274Y005571D01*
X034061Y005571D01*
X033736Y005571D02*
X033416Y005571D01*
X033309Y005677D01*
X033309Y005891D01*
X033416Y005998D01*
X033736Y005998D01*
X033736Y005357D01*
X033736Y005161D02*
X033309Y005161D01*
X033309Y005054D01*
X033736Y004627D01*
X033736Y004521D01*
X033954Y004627D02*
X034061Y004521D01*
X034274Y004521D01*
X034381Y004627D01*
X033954Y005054D01*
X033954Y004627D01*
X034381Y004627D02*
X034381Y005054D01*
X034274Y005161D01*
X034061Y005161D01*
X033954Y005054D01*
X033092Y004841D02*
X032665Y004841D01*
X032447Y004841D02*
X032127Y004841D01*
X032020Y004734D01*
X032020Y004627D01*
X032127Y004521D01*
X032340Y004521D01*
X032447Y004627D01*
X032447Y004841D01*
X032234Y005054D01*
X032020Y005161D01*
X031803Y005054D02*
X031696Y005161D01*
X031482Y005161D01*
X031376Y005054D01*
X031803Y004627D01*
X031696Y004521D01*
X031482Y004521D01*
X031376Y004627D01*
X031376Y005054D01*
X031158Y005054D02*
X031158Y004948D01*
X031051Y004841D01*
X030838Y004841D01*
X030731Y004734D01*
X030731Y004627D01*
X030838Y004521D01*
X031051Y004521D01*
X031158Y004627D01*
X031158Y004734D01*
X031051Y004841D01*
X030838Y004841D02*
X030731Y004948D01*
X030731Y005054D01*
X030838Y005161D01*
X031051Y005161D01*
X031158Y005054D01*
X031483Y005571D02*
X031803Y005571D01*
X031910Y005677D01*
X031803Y005784D01*
X031483Y005784D01*
X031483Y005891D02*
X031483Y005571D01*
X031483Y005891D02*
X031590Y005998D01*
X031803Y005998D01*
X032127Y005998D02*
X032234Y005998D01*
X032447Y005784D01*
X032447Y005571D02*
X032447Y005998D01*
X032665Y005998D02*
X032665Y005571D01*
X032985Y005571D01*
X033092Y005677D01*
X033092Y005998D01*
X031803Y005054D02*
X031803Y004627D01*
X030621Y005571D02*
X030621Y005998D01*
X030407Y006211D01*
X030194Y005998D01*
X030194Y005571D01*
X029976Y005571D02*
X029976Y005677D01*
X029870Y005677D01*
X029870Y005571D01*
X029976Y005571D01*
X029654Y005571D02*
X029654Y006211D01*
X029441Y005998D01*
X029227Y006211D01*
X029227Y005571D01*
X029010Y005571D02*
X029010Y005677D01*
X028903Y005677D01*
X028903Y005571D01*
X029010Y005571D01*
X030194Y005891D02*
X030621Y005891D01*
X035242Y005161D02*
X035455Y005161D01*
X035348Y005161D02*
X035348Y004521D01*
X035242Y004521D02*
X035455Y004521D01*
X035673Y004521D02*
X035673Y004948D01*
X035886Y005161D01*
X036100Y004948D01*
X036100Y004521D01*
X036317Y004521D02*
X036317Y005161D01*
X036531Y004948D01*
X036744Y005161D01*
X036744Y004521D01*
X036100Y004841D02*
X035673Y004841D01*
X036744Y005571D02*
X036744Y006211D01*
X036531Y005998D01*
X036317Y006211D01*
D12*
X037562Y000160D02*
X000160Y000160D01*
X000160Y019845D01*
X037562Y019845D01*
X037562Y000160D01*
D13*
X036406Y006617D02*
X035906Y006617D01*
X035656Y006867D01*
X035656Y007367D01*
X035906Y007617D01*
X035656Y007867D01*
X035656Y008367D01*
X035906Y008617D01*
X035656Y008867D01*
X035656Y009367D01*
X035906Y009617D01*
X035656Y009867D01*
X035656Y010367D01*
X035906Y010617D01*
X035656Y010867D01*
X035656Y011367D01*
X035906Y011617D01*
X035656Y011867D01*
X035656Y012367D01*
X035906Y012617D01*
X036406Y012617D01*
X036656Y012367D01*
X036656Y011867D01*
X036406Y011617D01*
X036656Y011367D01*
X036656Y010867D01*
X036406Y010617D01*
X036656Y010367D01*
X036656Y009867D01*
X036406Y009617D01*
X036656Y009367D01*
X036656Y008867D01*
X036406Y008617D01*
X036656Y008367D01*
X036656Y007867D01*
X036406Y007617D01*
X036656Y007367D01*
X036656Y006867D01*
X036406Y006617D01*
X034777Y013887D02*
X034226Y013887D01*
X033951Y014005D02*
X033951Y014281D01*
X033714Y014517D01*
X033714Y014044D01*
X033951Y014281D01*
X033951Y014556D01*
X034226Y014674D02*
X034777Y014674D01*
X034777Y013887D01*
X033439Y013887D02*
X032888Y013887D01*
X032888Y014674D01*
X033439Y014674D01*
X032516Y015730D02*
X035666Y015730D01*
X035666Y015927D01*
X034583Y016124D02*
X033599Y016124D01*
X033599Y016714D02*
X034563Y016714D01*
X035666Y016911D02*
X035666Y017108D01*
X032516Y017108D01*
X032516Y016911D01*
X032516Y015927D02*
X032516Y015730D01*
X031263Y018015D02*
X030763Y018015D01*
X030513Y018265D01*
X030263Y018015D01*
X029763Y018015D01*
X029513Y018265D01*
X029263Y018015D01*
X028763Y018015D01*
X028513Y018265D01*
X028263Y018015D01*
X027763Y018015D01*
X027513Y018265D01*
X027513Y018765D01*
X027763Y019015D01*
X028263Y019015D01*
X028513Y018765D01*
X028763Y019015D01*
X029263Y019015D01*
X029513Y018765D01*
X029763Y019015D01*
X030263Y019015D01*
X030513Y018765D01*
X030763Y019015D01*
X031263Y019015D01*
X031513Y018765D01*
X031513Y018265D01*
X031263Y018015D01*
X025822Y018270D02*
X025822Y018770D01*
X025572Y019020D01*
X025072Y019020D01*
X024822Y018770D01*
X024572Y019020D01*
X024072Y019020D01*
X023822Y018770D01*
X023572Y019020D01*
X023072Y019020D01*
X022822Y018770D01*
X022572Y019020D01*
X022072Y019020D01*
X021822Y018770D01*
X021822Y018270D01*
X022072Y018020D01*
X022572Y018020D01*
X022822Y018270D01*
X023072Y018020D01*
X023572Y018020D01*
X023822Y018270D01*
X024072Y018020D01*
X024572Y018020D01*
X024822Y018270D01*
X025072Y018020D01*
X025572Y018020D01*
X025822Y018270D01*
X012129Y018270D02*
X011577Y018270D01*
X011302Y018428D02*
X011066Y018664D01*
X011302Y018900D01*
X011302Y018428D01*
X011066Y018388D02*
X011066Y018664D01*
X011066Y018940D01*
X010790Y019058D02*
X010239Y019058D01*
X010239Y018270D01*
X010790Y018270D01*
X011577Y019058D02*
X012129Y019058D01*
X012129Y018270D01*
X007000Y017143D02*
X007000Y016355D01*
X006449Y016355D01*
X006174Y016513D02*
X005937Y016749D01*
X006174Y016985D01*
X006174Y016513D01*
X005937Y016474D02*
X005937Y016749D01*
X005937Y017025D01*
X005662Y017143D02*
X005111Y017143D01*
X005111Y016355D01*
X005662Y016355D01*
X006449Y017143D02*
X007000Y017143D01*
X003817Y015386D02*
X003817Y014638D01*
X001848Y014993D02*
X001850Y015046D01*
X001856Y015099D01*
X001866Y015151D01*
X001879Y015202D01*
X001897Y015252D01*
X001918Y015301D01*
X001943Y015348D01*
X001971Y015392D01*
X002003Y015435D01*
X002037Y015475D01*
X002075Y015513D01*
X002115Y015547D01*
X002158Y015579D01*
X002203Y015607D01*
X002249Y015632D01*
X002298Y015653D01*
X002348Y015671D01*
X002399Y015684D01*
X002451Y015694D01*
X002504Y015700D01*
X002557Y015702D01*
X002610Y015700D01*
X002663Y015694D01*
X002715Y015684D01*
X002766Y015671D01*
X002816Y015653D01*
X002865Y015632D01*
X002912Y015607D01*
X002956Y015579D01*
X002999Y015547D01*
X003039Y015513D01*
X003077Y015475D01*
X003111Y015435D01*
X003143Y015392D01*
X003171Y015347D01*
X003196Y015301D01*
X003217Y015252D01*
X003235Y015202D01*
X003248Y015151D01*
X003258Y015099D01*
X003264Y015046D01*
X003266Y014993D01*
X003264Y014940D01*
X003258Y014887D01*
X003248Y014835D01*
X003235Y014784D01*
X003217Y014734D01*
X003196Y014685D01*
X003171Y014638D01*
X003143Y014594D01*
X003111Y014551D01*
X003077Y014511D01*
X003039Y014473D01*
X002999Y014439D01*
X002956Y014407D01*
X002911Y014379D01*
X002865Y014354D01*
X002816Y014333D01*
X002766Y014315D01*
X002715Y014302D01*
X002663Y014292D01*
X002610Y014286D01*
X002557Y014284D01*
X002504Y014286D01*
X002451Y014292D01*
X002399Y014302D01*
X002348Y014315D01*
X002298Y014333D01*
X002249Y014354D01*
X002202Y014379D01*
X002158Y014407D01*
X002115Y014439D01*
X002075Y014473D01*
X002037Y014511D01*
X002003Y014551D01*
X001971Y014594D01*
X001943Y014639D01*
X001918Y014685D01*
X001897Y014734D01*
X001879Y014784D01*
X001866Y014835D01*
X001856Y014887D01*
X001850Y014940D01*
X001848Y014993D01*
X001297Y014638D02*
X001297Y015386D01*
X002124Y016252D02*
X002951Y016252D01*
X002951Y013733D02*
X002163Y013733D01*
X002089Y006144D02*
X002916Y006144D01*
X003782Y005278D02*
X003782Y004530D01*
X002916Y003625D02*
X002129Y003625D01*
X001262Y004530D02*
X001262Y005278D01*
X001813Y004884D02*
X001815Y004937D01*
X001821Y004990D01*
X001831Y005042D01*
X001844Y005093D01*
X001862Y005143D01*
X001883Y005192D01*
X001908Y005239D01*
X001936Y005283D01*
X001968Y005326D01*
X002002Y005366D01*
X002040Y005404D01*
X002080Y005438D01*
X002123Y005470D01*
X002168Y005498D01*
X002214Y005523D01*
X002263Y005544D01*
X002313Y005562D01*
X002364Y005575D01*
X002416Y005585D01*
X002469Y005591D01*
X002522Y005593D01*
X002575Y005591D01*
X002628Y005585D01*
X002680Y005575D01*
X002731Y005562D01*
X002781Y005544D01*
X002830Y005523D01*
X002877Y005498D01*
X002921Y005470D01*
X002964Y005438D01*
X003004Y005404D01*
X003042Y005366D01*
X003076Y005326D01*
X003108Y005283D01*
X003136Y005238D01*
X003161Y005192D01*
X003182Y005143D01*
X003200Y005093D01*
X003213Y005042D01*
X003223Y004990D01*
X003229Y004937D01*
X003231Y004884D01*
X003229Y004831D01*
X003223Y004778D01*
X003213Y004726D01*
X003200Y004675D01*
X003182Y004625D01*
X003161Y004576D01*
X003136Y004529D01*
X003108Y004485D01*
X003076Y004442D01*
X003042Y004402D01*
X003004Y004364D01*
X002964Y004330D01*
X002921Y004298D01*
X002876Y004270D01*
X002830Y004245D01*
X002781Y004224D01*
X002731Y004206D01*
X002680Y004193D01*
X002628Y004183D01*
X002575Y004177D01*
X002522Y004175D01*
X002469Y004177D01*
X002416Y004183D01*
X002364Y004193D01*
X002313Y004206D01*
X002263Y004224D01*
X002214Y004245D01*
X002167Y004270D01*
X002123Y004298D01*
X002080Y004330D01*
X002040Y004364D01*
X002002Y004402D01*
X001968Y004442D01*
X001936Y004485D01*
X001908Y004530D01*
X001883Y004576D01*
X001862Y004625D01*
X001844Y004675D01*
X001831Y004726D01*
X001821Y004778D01*
X001815Y004831D01*
X001813Y004884D01*
X005299Y003683D02*
X005299Y002896D01*
X005851Y002896D01*
X006126Y003053D02*
X006126Y003525D01*
X006362Y003289D01*
X006126Y003053D01*
X006362Y003014D02*
X006362Y003289D01*
X006362Y003565D01*
X006638Y003683D02*
X007189Y003683D01*
X007189Y002896D01*
X006638Y002896D01*
X005851Y003683D02*
X005299Y003683D01*
X011420Y002522D02*
X011420Y001735D01*
X011971Y001735D01*
X012247Y001853D02*
X012247Y002129D01*
X012483Y001892D01*
X012483Y002365D01*
X012247Y002129D01*
X012247Y002404D01*
X011971Y002522D02*
X011420Y002522D01*
X012758Y002522D02*
X013310Y002522D01*
X013310Y001735D01*
X012758Y001735D01*
D14*
X014727Y003923D02*
X014727Y014553D01*
X004884Y014553D01*
X004884Y003923D01*
X014727Y003923D01*
X018270Y001955D02*
X018270Y016322D01*
X028700Y016322D01*
X028700Y001955D01*
X018270Y001955D01*
X004219Y008113D02*
X004219Y011892D01*
X001825Y011892D01*
X001825Y008113D01*
X004219Y008113D01*
D15*
X009445Y003495D02*
X009972Y003495D01*
X009708Y003495D02*
X009708Y002705D01*
X010237Y002705D02*
X010237Y003495D01*
X010764Y003495D02*
X010237Y002705D01*
X010764Y002705D02*
X010764Y003495D01*
X011029Y003232D02*
X011029Y002705D01*
X011556Y002705D02*
X011556Y003232D01*
X011292Y003495D01*
X011029Y003232D01*
X011029Y003100D02*
X011556Y003100D01*
X017297Y004984D02*
X017297Y005247D01*
X017429Y005379D01*
X017693Y005379D01*
X017693Y005116D01*
X017956Y005379D02*
X018088Y005247D01*
X018088Y004984D01*
X017956Y004852D01*
X017429Y004852D01*
X017297Y004984D01*
X017297Y005644D02*
X018088Y005644D01*
X018088Y006039D01*
X017956Y006171D01*
X017693Y006171D01*
X017561Y006039D01*
X017561Y005644D01*
X017429Y006436D02*
X017297Y006568D01*
X017297Y006831D01*
X017429Y006963D01*
X017561Y006963D01*
X017693Y006831D01*
X017693Y006568D01*
X017824Y006436D01*
X017956Y006436D01*
X018088Y006568D01*
X018088Y006831D01*
X017956Y006963D01*
X017297Y007228D02*
X018088Y007755D01*
X017956Y008020D02*
X017429Y008020D01*
X017297Y008151D01*
X017297Y008415D01*
X017429Y008547D01*
X017693Y008547D01*
X017693Y008283D01*
X017956Y008020D02*
X018088Y008151D01*
X018088Y008415D01*
X017956Y008547D01*
X018088Y008811D02*
X017297Y008811D01*
X017297Y009339D01*
X017429Y009603D02*
X017297Y009735D01*
X017297Y009999D01*
X017429Y010130D01*
X017956Y010130D01*
X018088Y009999D01*
X018088Y009735D01*
X017956Y009603D01*
X017429Y009603D01*
X017297Y010395D02*
X018088Y010395D01*
X017297Y010922D01*
X018088Y010922D01*
X017824Y011187D02*
X018088Y011451D01*
X017824Y011714D01*
X017297Y011714D01*
X017429Y011979D02*
X017297Y012111D01*
X017297Y012374D01*
X017429Y012506D01*
X017561Y012506D01*
X017693Y012374D01*
X017693Y012111D01*
X017824Y011979D01*
X017956Y011979D01*
X018088Y012111D01*
X018088Y012374D01*
X017956Y012506D01*
X017956Y012771D02*
X017824Y012771D01*
X017693Y012903D01*
X017693Y013166D01*
X017561Y013298D01*
X017429Y013298D01*
X017297Y013166D01*
X017297Y012903D01*
X017429Y012771D01*
X017956Y012771D02*
X018088Y012903D01*
X018088Y013166D01*
X017956Y013298D01*
X017693Y011714D02*
X017693Y011187D01*
X017824Y011187D02*
X017297Y011187D01*
D16*
X026015Y016983D02*
X026015Y017273D01*
X025822Y017273D01*
X025918Y017128D02*
X026015Y017128D01*
X026116Y017176D02*
X026116Y016983D01*
X026261Y016983D01*
X026310Y017031D01*
X026310Y017176D01*
X026411Y017225D02*
X026604Y017031D01*
X026604Y016983D01*
X026754Y016983D02*
X026754Y017273D01*
X026899Y017128D01*
X026706Y017128D01*
X026604Y017273D02*
X026411Y017273D01*
X026411Y017225D01*
X026998Y017031D02*
X026998Y016983D01*
X027046Y016983D01*
X027046Y017031D01*
X026998Y017031D01*
X027148Y017031D02*
X027196Y016983D01*
X027293Y016983D01*
X027341Y017031D01*
X027148Y017225D01*
X027148Y017031D01*
X027341Y017031D02*
X027341Y017225D01*
X027293Y017273D01*
X027196Y017273D01*
X027148Y017225D01*
M02*
