G75*
%MOIN*%
%OFA0B0*%
%FSLAX24Y24*%
%IPPOS*%
%LPD*%
%AMOC8*
5,1,8,0,0,1.08239X$1,22.5*
%
%ADD10C,0.0120*%
%ADD11C,0.0080*%
%ADD12C,0.0050*%
%ADD13C,0.0060*%
%ADD14C,0.0040*%
%ADD15C,0.0002*%
%ADD16C,0.0020*%
D10*
X000160Y000160D02*
X037562Y000160D01*
X037562Y019845D01*
X000160Y019845D01*
X000160Y000160D01*
D11*
X008517Y002712D02*
X016273Y002712D01*
X012395Y003500D02*
X012395Y005468D01*
X010426Y005468D01*
X010426Y003500D01*
X012395Y003500D01*
X010426Y007437D02*
X014363Y007437D01*
X014363Y008618D01*
X010426Y008618D01*
X010426Y007437D01*
X008517Y009011D02*
X016273Y009011D01*
X016272Y010721D02*
X008516Y010721D01*
X010425Y011508D02*
X012394Y011508D01*
X012394Y013477D01*
X010425Y013477D01*
X010425Y011508D01*
X010425Y015445D02*
X014362Y015445D01*
X014362Y016626D01*
X010425Y016626D01*
X010425Y015445D01*
X008516Y017020D02*
X016272Y017020D01*
X022520Y015849D02*
X022520Y015749D01*
X022520Y015849D02*
X024920Y015849D01*
X024920Y015749D01*
X029873Y004757D02*
X030700Y004757D01*
X031133Y004757D02*
X031960Y004757D01*
X031960Y003103D01*
X031526Y002670D01*
X031133Y002670D01*
X030719Y002670D02*
X030306Y002670D01*
X029873Y003103D01*
X029873Y004757D01*
X031133Y004678D02*
X031192Y004663D01*
X031249Y004645D01*
X031306Y004623D01*
X031361Y004598D01*
X031414Y004569D01*
X031466Y004537D01*
X031515Y004502D01*
X031562Y004464D01*
X031607Y004423D01*
X031649Y004379D01*
X031688Y004333D01*
X031724Y004285D01*
X031758Y004234D01*
X031788Y004181D01*
X031814Y004127D01*
X031838Y004071D01*
X031857Y004014D01*
X031873Y003955D01*
X031886Y003896D01*
X031895Y003836D01*
X031900Y003776D01*
X031901Y003715D01*
X031898Y003654D01*
X031892Y003594D01*
X031882Y003534D01*
X031868Y003475D01*
X031851Y003417D01*
X031830Y003360D01*
X031806Y003305D01*
X031778Y003251D01*
X031747Y003199D01*
X031713Y003149D01*
X031675Y003101D01*
X031635Y003056D01*
X031592Y003013D01*
X031547Y002973D01*
X031499Y002936D01*
X031449Y002902D01*
X031397Y002871D01*
X031343Y002844D01*
X031287Y002819D01*
X031230Y002799D01*
X031172Y002782D01*
X031113Y002768D01*
X032413Y002995D02*
X034993Y002995D01*
X034993Y004395D01*
X032413Y004395D01*
X032413Y002995D01*
X030719Y002749D02*
X030659Y002764D01*
X030600Y002782D01*
X030542Y002805D01*
X030485Y002831D01*
X030431Y002860D01*
X030378Y002893D01*
X030327Y002929D01*
X030279Y002968D01*
X030233Y003010D01*
X030191Y003055D01*
X030150Y003102D01*
X030114Y003152D01*
X030080Y003204D01*
X030049Y003258D01*
X030022Y003314D01*
X029999Y003372D01*
X029979Y003431D01*
X029963Y003491D01*
X029951Y003551D01*
X029942Y003613D01*
X029938Y003675D01*
X029937Y003737D01*
X029940Y003799D01*
X029948Y003861D01*
X029959Y003922D01*
X029973Y003982D01*
X029992Y004041D01*
X030014Y004099D01*
X030040Y004156D01*
X030069Y004210D01*
X030102Y004263D01*
X030138Y004314D01*
X030177Y004362D01*
X030219Y004408D01*
X030264Y004451D01*
X030311Y004491D01*
X030361Y004528D01*
X030413Y004562D01*
X030467Y004592D01*
X030523Y004619D01*
X030581Y004643D01*
X030640Y004663D01*
X030700Y004679D01*
X024920Y001949D02*
X024920Y001849D01*
X024220Y001849D01*
X024218Y001893D01*
X024212Y001936D01*
X024203Y001978D01*
X024190Y002020D01*
X024173Y002060D01*
X024153Y002099D01*
X024130Y002136D01*
X024103Y002170D01*
X024074Y002203D01*
X024041Y002232D01*
X024007Y002259D01*
X023970Y002282D01*
X023931Y002302D01*
X023891Y002319D01*
X023849Y002332D01*
X023807Y002341D01*
X023764Y002347D01*
X023720Y002349D01*
X023676Y002347D01*
X023633Y002341D01*
X023591Y002332D01*
X023549Y002319D01*
X023509Y002302D01*
X023470Y002282D01*
X023433Y002259D01*
X023399Y002232D01*
X023366Y002203D01*
X023337Y002170D01*
X023310Y002136D01*
X023287Y002099D01*
X023267Y002060D01*
X023250Y002020D01*
X023237Y001978D01*
X023228Y001936D01*
X023222Y001893D01*
X023220Y001849D01*
X022520Y001849D01*
X022520Y001949D01*
D12*
X023604Y002944D02*
X023454Y003094D01*
X023604Y003245D01*
X023905Y003245D01*
X023679Y003245D02*
X023679Y002944D01*
X023604Y002944D02*
X023905Y002944D01*
X023905Y003555D02*
X023454Y003555D01*
X023454Y003405D02*
X023454Y003705D01*
X023454Y003865D02*
X023604Y004015D01*
X023454Y004165D01*
X023905Y004165D01*
X023905Y004325D02*
X023454Y004325D01*
X023454Y004626D01*
X023529Y004786D02*
X023830Y004786D01*
X023905Y004861D01*
X023905Y005011D01*
X023830Y005086D01*
X023679Y005086D01*
X023679Y004936D01*
X023529Y005086D02*
X023454Y005011D01*
X023454Y004861D01*
X023529Y004786D01*
X023679Y004476D02*
X023679Y004325D01*
X023905Y004325D02*
X023905Y004626D01*
X023905Y005246D02*
X023604Y005246D01*
X023454Y005396D01*
X023604Y005547D01*
X023905Y005547D01*
X023830Y005707D02*
X023905Y005782D01*
X023905Y005932D01*
X023830Y006007D01*
X023754Y006007D01*
X023679Y005932D01*
X023679Y005857D01*
X023679Y005932D02*
X023604Y006007D01*
X023529Y006007D01*
X023454Y005932D01*
X023454Y005782D01*
X023529Y005707D01*
X023679Y005547D02*
X023679Y005246D01*
X023529Y006167D02*
X023454Y006242D01*
X023454Y006392D01*
X023529Y006467D01*
X023604Y006467D01*
X023905Y006167D01*
X023905Y006467D01*
X023830Y006627D02*
X023754Y006627D01*
X023679Y006702D01*
X023679Y006853D01*
X023754Y006928D01*
X023830Y006928D01*
X023905Y006853D01*
X023905Y006702D01*
X023830Y006627D01*
X023679Y006702D02*
X023604Y006627D01*
X023529Y006627D01*
X023454Y006702D01*
X023454Y006853D01*
X023529Y006928D01*
X023604Y006928D01*
X023679Y006853D01*
X023754Y007088D02*
X023754Y007313D01*
X023679Y007388D01*
X023529Y007388D01*
X023454Y007313D01*
X023454Y007088D01*
X023905Y007088D01*
X023980Y007548D02*
X023980Y007848D01*
X023905Y008009D02*
X023454Y008009D01*
X023454Y008234D01*
X023529Y008309D01*
X023679Y008309D01*
X023754Y008234D01*
X023754Y008009D01*
X023905Y008469D02*
X023454Y008469D01*
X023454Y008694D01*
X023529Y008769D01*
X023830Y008769D01*
X023905Y008694D01*
X023905Y008469D01*
X023905Y008929D02*
X023905Y009080D01*
X023905Y009004D02*
X023454Y009004D01*
X023454Y008929D02*
X023454Y009080D01*
X023454Y009236D02*
X023454Y009462D01*
X023529Y009537D01*
X023679Y009537D01*
X023754Y009462D01*
X023754Y009236D01*
X023905Y009236D02*
X023454Y009236D01*
X026824Y010106D02*
X026974Y009956D01*
X026824Y010106D02*
X027275Y010106D01*
X027275Y009956D02*
X027275Y010256D01*
X027200Y010416D02*
X027049Y010416D01*
X027049Y010641D01*
X027125Y010716D01*
X027200Y010716D01*
X027275Y010641D01*
X027275Y010491D01*
X027200Y010416D01*
X027049Y010416D02*
X026899Y010566D01*
X026824Y010716D01*
X026824Y010876D02*
X026974Y011027D01*
X026824Y011177D01*
X027275Y011177D01*
X027275Y011337D02*
X026824Y011337D01*
X027049Y011337D02*
X027049Y011637D01*
X026974Y011797D02*
X026974Y012097D01*
X027275Y011797D01*
X027275Y012097D01*
X027275Y011637D02*
X026824Y011637D01*
X026824Y010876D02*
X027275Y010876D01*
X023905Y003865D02*
X023454Y003865D01*
D13*
X027813Y008944D02*
X028213Y008944D01*
X027813Y008944D02*
X027796Y008946D01*
X027779Y008950D01*
X027763Y008957D01*
X027749Y008967D01*
X027736Y008980D01*
X027726Y008994D01*
X027719Y009010D01*
X027715Y009027D01*
X027713Y009044D01*
X027713Y013344D01*
X027715Y013361D01*
X027719Y013378D01*
X027726Y013394D01*
X027736Y013408D01*
X027749Y013421D01*
X027763Y013431D01*
X027779Y013438D01*
X027796Y013442D01*
X027813Y013444D01*
X028213Y013444D01*
X029113Y013444D02*
X029513Y013444D01*
X029530Y013442D01*
X029547Y013438D01*
X029563Y013431D01*
X029577Y013421D01*
X029590Y013408D01*
X029600Y013394D01*
X029607Y013378D01*
X029611Y013361D01*
X029613Y013344D01*
X029613Y009044D01*
X029611Y009027D01*
X029607Y009010D01*
X029600Y008994D01*
X029590Y008980D01*
X029577Y008967D01*
X029563Y008957D01*
X029547Y008950D01*
X029530Y008946D01*
X029513Y008944D01*
X029113Y008944D01*
X028913Y010944D02*
X028663Y010944D01*
X028413Y010944D01*
X028413Y011094D02*
X028913Y011094D01*
X028913Y011294D01*
X028413Y011294D01*
X028413Y011094D01*
X028413Y011444D02*
X028663Y011444D01*
X028913Y011444D01*
X009968Y008392D02*
X009675Y008392D01*
X009822Y008392D02*
X009822Y008832D01*
X009675Y008685D01*
X009674Y016400D02*
X009967Y016400D01*
X009820Y016400D02*
X009820Y016841D01*
X009674Y016694D01*
D14*
X007689Y016591D02*
X007229Y016591D01*
X007229Y016284D02*
X007689Y016284D01*
X007536Y016437D01*
X007689Y016591D01*
X007689Y016131D02*
X007229Y016131D01*
X007459Y016131D02*
X007459Y015824D01*
X007459Y015670D02*
X007459Y015440D01*
X007383Y015363D01*
X007306Y015363D01*
X007229Y015440D01*
X007229Y015593D01*
X007306Y015670D01*
X007613Y015670D01*
X007689Y015593D01*
X007689Y015440D01*
X007613Y015363D01*
X007613Y015210D02*
X007536Y015210D01*
X007459Y015133D01*
X007459Y014903D01*
X007613Y014903D01*
X007689Y014980D01*
X007689Y015133D01*
X007613Y015210D01*
X007306Y015056D02*
X007459Y014903D01*
X007306Y015056D02*
X007229Y015210D01*
X007229Y014749D02*
X007689Y014749D01*
X007689Y014442D02*
X007229Y014442D01*
X007383Y014596D01*
X007229Y014749D01*
X007229Y014289D02*
X007229Y013982D01*
X007689Y013982D01*
X007689Y013829D02*
X007536Y013675D01*
X007536Y013752D02*
X007536Y013522D01*
X007689Y013522D02*
X007229Y013522D01*
X007229Y013752D01*
X007306Y013829D01*
X007459Y013829D01*
X007536Y013752D01*
X007459Y013982D02*
X007459Y014136D01*
X007689Y015824D02*
X007229Y015824D01*
X015605Y010138D02*
X015692Y010225D01*
X015865Y010225D01*
X015952Y010138D01*
X015605Y009791D01*
X015692Y009704D01*
X015865Y009704D01*
X015952Y009791D01*
X015952Y010138D01*
X015605Y010138D02*
X015605Y009791D01*
X016121Y009791D02*
X016208Y009791D01*
X016208Y009704D01*
X016121Y009704D01*
X016121Y009791D01*
X016379Y009704D02*
X016726Y009704D01*
X016552Y009704D02*
X016552Y010225D01*
X016379Y010051D01*
X016894Y010051D02*
X016894Y009791D01*
X016981Y009704D01*
X017241Y009704D01*
X017241Y010051D01*
X017410Y009965D02*
X017583Y009965D01*
X017410Y010225D02*
X017410Y009704D01*
X017410Y010225D02*
X017757Y010225D01*
X019158Y006679D02*
X019158Y006332D01*
X019679Y006332D01*
X019679Y006164D02*
X019332Y006164D01*
X019419Y006332D02*
X019419Y006506D01*
X019679Y006164D02*
X019679Y005904D01*
X019592Y005817D01*
X019332Y005817D01*
X019679Y005648D02*
X019679Y005301D01*
X019679Y005130D02*
X019592Y005130D01*
X019592Y005043D01*
X019679Y005043D01*
X019679Y005130D01*
X019592Y004875D02*
X019679Y004788D01*
X019679Y004614D01*
X019592Y004528D01*
X019245Y004875D01*
X019592Y004875D01*
X019245Y004875D02*
X019158Y004788D01*
X019158Y004614D01*
X019245Y004528D01*
X019592Y004528D01*
X019332Y005301D02*
X019158Y005475D01*
X019679Y005475D01*
X027482Y007516D02*
X027829Y007863D01*
X027829Y007516D01*
X027743Y007429D01*
X027569Y007429D01*
X027482Y007516D01*
X027482Y007863D01*
X027569Y007950D01*
X027743Y007950D01*
X027829Y007863D01*
X028256Y007776D02*
X028429Y007950D01*
X028429Y007429D01*
X028256Y007429D02*
X028603Y007429D01*
X028771Y007516D02*
X028771Y007776D01*
X028771Y007516D02*
X028858Y007429D01*
X029118Y007429D01*
X029118Y007776D01*
X029287Y007689D02*
X029461Y007689D01*
X029287Y007429D02*
X029287Y007950D01*
X029634Y007950D01*
X028085Y007516D02*
X028085Y007429D01*
X027998Y007429D01*
X027998Y007516D01*
X028085Y007516D01*
X028297Y006104D02*
X028210Y006017D01*
X028210Y005671D01*
X028557Y006017D01*
X028557Y005671D01*
X028471Y005584D01*
X028297Y005584D01*
X028210Y005671D01*
X028042Y005584D02*
X027695Y005584D01*
X027868Y005584D02*
X027868Y006104D01*
X027695Y005931D01*
X028297Y006104D02*
X028471Y006104D01*
X028557Y006017D01*
X028726Y006104D02*
X028726Y005584D01*
X028726Y005757D02*
X028986Y005584D01*
X028726Y005757D02*
X028986Y005931D01*
X030417Y006011D02*
X030417Y005664D01*
X030764Y006011D01*
X030764Y005664D01*
X030677Y005577D01*
X030504Y005577D01*
X030417Y005664D01*
X030417Y006011D02*
X030504Y006097D01*
X030677Y006097D01*
X030764Y006011D01*
X031191Y005924D02*
X031364Y006097D01*
X031364Y005577D01*
X031191Y005577D02*
X031538Y005577D01*
X031706Y005664D02*
X031793Y005577D01*
X032053Y005577D01*
X032053Y005924D01*
X032222Y005837D02*
X032395Y005837D01*
X032222Y005577D02*
X032222Y006097D01*
X032569Y006097D01*
X031706Y005924D02*
X031706Y005664D01*
X031020Y005664D02*
X031020Y005577D01*
X030933Y005577D01*
X030933Y005664D01*
X031020Y005664D01*
X033038Y007321D02*
X033385Y007668D01*
X033385Y007321D01*
X033298Y007234D01*
X033124Y007234D01*
X033038Y007321D01*
X033038Y007668D01*
X033124Y007755D01*
X033298Y007755D01*
X033385Y007668D01*
X033811Y007581D02*
X033985Y007755D01*
X033985Y007234D01*
X034158Y007234D02*
X033811Y007234D01*
X033640Y007234D02*
X033553Y007234D01*
X033553Y007321D01*
X033640Y007321D01*
X033640Y007234D01*
X034327Y007321D02*
X034413Y007234D01*
X034674Y007234D01*
X034674Y007581D01*
X034842Y007495D02*
X035016Y007495D01*
X034842Y007755D02*
X035189Y007755D01*
X034842Y007755D02*
X034842Y007234D01*
X034327Y007321D02*
X034327Y007581D01*
X035354Y005477D02*
X035441Y005477D01*
X035528Y005390D01*
X035614Y005477D01*
X035701Y005477D01*
X035788Y005390D01*
X035788Y005217D01*
X035701Y005130D01*
X035701Y004959D02*
X035788Y004959D01*
X035788Y004872D01*
X035701Y004872D01*
X035701Y004959D01*
X035701Y004703D02*
X035788Y004617D01*
X035788Y004443D01*
X035701Y004357D01*
X035528Y004188D02*
X035528Y003841D01*
X035528Y003672D02*
X035354Y003672D01*
X035267Y003585D01*
X035267Y003325D01*
X035788Y003325D01*
X035788Y003157D02*
X035788Y002810D01*
X035267Y002810D01*
X035614Y003325D02*
X035614Y003585D01*
X035528Y003672D01*
X035614Y003499D02*
X035788Y003672D01*
X035354Y004357D02*
X035267Y004443D01*
X035267Y004617D01*
X035354Y004703D01*
X035441Y004703D01*
X035528Y004617D01*
X035614Y004703D01*
X035701Y004703D01*
X035528Y004617D02*
X035528Y004530D01*
X035354Y005130D02*
X035267Y005217D01*
X035267Y005390D01*
X035354Y005477D01*
X035528Y005390D02*
X035528Y005303D01*
X031903Y002350D02*
X031556Y002350D01*
X031556Y001829D01*
X031387Y001829D02*
X031387Y002176D01*
X031556Y002090D02*
X031729Y002090D01*
X031387Y001829D02*
X031127Y001829D01*
X031040Y001916D01*
X031040Y002176D01*
X030872Y002263D02*
X030872Y001916D01*
X030785Y001829D01*
X030611Y001829D01*
X030525Y001916D01*
X030872Y002263D01*
X030785Y002350D01*
X030611Y002350D01*
X030525Y002263D01*
X030525Y001916D01*
X030356Y001829D02*
X030009Y001829D01*
X030182Y001829D02*
X030182Y002350D01*
X030009Y002176D01*
X031743Y009766D02*
X031743Y010287D01*
X032004Y010287D01*
X032090Y010200D01*
X032090Y010026D01*
X032004Y009940D01*
X031743Y009940D01*
X031575Y010026D02*
X031488Y009940D01*
X031315Y009940D01*
X031228Y010026D01*
X031575Y010373D01*
X031575Y010026D01*
X031228Y010026D02*
X031228Y010373D01*
X031315Y010460D01*
X031488Y010460D01*
X031575Y010373D01*
X031059Y010373D02*
X030972Y010460D01*
X030799Y010460D01*
X030712Y010373D01*
X031059Y010373D02*
X031059Y010287D01*
X030712Y009940D01*
X031059Y009940D01*
X032259Y009940D02*
X032259Y010460D01*
X032606Y010460D01*
X032433Y010200D02*
X032259Y010200D01*
X031777Y011812D02*
X031777Y012333D01*
X032037Y012333D01*
X032124Y012246D01*
X032124Y012073D01*
X032037Y011986D01*
X031777Y011986D01*
X031608Y012073D02*
X031521Y011986D01*
X031348Y011986D01*
X031261Y012073D01*
X031608Y012420D01*
X031608Y012073D01*
X031261Y012073D02*
X031261Y012420D01*
X031348Y012506D01*
X031521Y012506D01*
X031608Y012420D01*
X031093Y012420D02*
X031093Y012333D01*
X030746Y011986D01*
X031093Y011986D01*
X031093Y012420D02*
X031006Y012506D01*
X030832Y012506D01*
X030746Y012420D01*
X032293Y012506D02*
X032293Y011986D01*
X032293Y012246D02*
X032466Y012246D01*
X032293Y012506D02*
X032639Y012506D01*
X009463Y010126D02*
X009156Y010126D01*
X009156Y009665D01*
X009002Y009665D02*
X009002Y009972D01*
X009156Y009895D02*
X009309Y009895D01*
X009002Y009665D02*
X008772Y009665D01*
X008695Y009742D01*
X008695Y009972D01*
X008389Y010126D02*
X008389Y009665D01*
X008542Y009665D02*
X008235Y009665D01*
X008082Y009665D02*
X008005Y009665D01*
X008005Y009742D01*
X008082Y009742D01*
X008082Y009665D01*
X007851Y009742D02*
X007775Y009665D01*
X007621Y009665D01*
X007544Y009742D01*
X007851Y010049D01*
X007851Y009742D01*
X007544Y009742D02*
X007544Y010049D01*
X007621Y010126D01*
X007775Y010126D01*
X007851Y010049D01*
X008235Y009972D02*
X008389Y010126D01*
X007884Y007522D02*
X007424Y007522D01*
X007424Y007215D02*
X007884Y007215D01*
X007731Y007369D01*
X007884Y007522D01*
X007884Y007062D02*
X007424Y007062D01*
X007654Y007062D02*
X007654Y006755D01*
X007654Y006601D02*
X007654Y006371D01*
X007577Y006294D01*
X007500Y006294D01*
X007424Y006371D01*
X007424Y006525D01*
X007500Y006601D01*
X007807Y006601D01*
X007884Y006525D01*
X007884Y006371D01*
X007807Y006294D01*
X007807Y006141D02*
X007731Y006141D01*
X007654Y006064D01*
X007654Y005834D01*
X007807Y005834D01*
X007884Y005911D01*
X007884Y006064D01*
X007807Y006141D01*
X007500Y005987D02*
X007654Y005834D01*
X007500Y005987D02*
X007424Y006141D01*
X007424Y005680D02*
X007884Y005680D01*
X007577Y005527D02*
X007424Y005680D01*
X007577Y005527D02*
X007424Y005374D01*
X007884Y005374D01*
X007654Y005067D02*
X007654Y004913D01*
X007654Y004760D02*
X007500Y004760D01*
X007424Y004683D01*
X007424Y004453D01*
X007884Y004453D01*
X007731Y004453D02*
X007731Y004683D01*
X007654Y004760D01*
X007731Y004606D02*
X007884Y004760D01*
X007884Y004913D02*
X007424Y004913D01*
X007424Y005220D01*
X007424Y006755D02*
X007884Y006755D01*
X004985Y003924D02*
X004985Y003577D01*
X005506Y003577D01*
X005506Y003408D02*
X005159Y003408D01*
X005245Y003577D02*
X005245Y003750D01*
X005506Y003408D02*
X005506Y003148D01*
X005419Y003061D01*
X005159Y003061D01*
X005072Y002892D02*
X005419Y002545D01*
X005506Y002545D01*
X005506Y002290D02*
X004985Y002290D01*
X005245Y002030D01*
X005245Y002377D01*
X004985Y002545D02*
X004985Y002892D01*
X005072Y002892D01*
X005419Y001859D02*
X005506Y001859D01*
X005506Y001772D01*
X005419Y001772D01*
X005419Y001859D01*
X005419Y001603D02*
X005072Y001603D01*
X005419Y001256D01*
X005506Y001343D01*
X005506Y001516D01*
X005419Y001603D01*
X005072Y001603D02*
X004985Y001516D01*
X004985Y001343D01*
X005072Y001256D01*
X005419Y001256D01*
D15*
X029118Y009176D02*
X029108Y009191D01*
X029109Y009191D02*
X029153Y009223D01*
X029195Y009258D01*
X029234Y009297D01*
X029271Y009338D01*
X029304Y009381D01*
X029335Y009426D01*
X029362Y009474D01*
X029386Y009523D01*
X029407Y009574D01*
X029423Y009626D01*
X029437Y009680D01*
X029446Y009734D01*
X029452Y009788D01*
X029454Y009843D01*
X029471Y009844D01*
X029472Y009843D01*
X029470Y009787D01*
X029464Y009731D01*
X029454Y009676D01*
X029441Y009621D01*
X029424Y009568D01*
X029403Y009516D01*
X029378Y009466D01*
X029350Y009417D01*
X029319Y009370D01*
X029284Y009326D01*
X029247Y009284D01*
X029207Y009245D01*
X029164Y009209D01*
X029119Y009176D01*
X029118Y009177D01*
X029163Y009210D01*
X029206Y009246D01*
X029246Y009285D01*
X029284Y009327D01*
X029318Y009371D01*
X029349Y009418D01*
X029377Y009466D01*
X029402Y009517D01*
X029423Y009568D01*
X029440Y009622D01*
X029453Y009676D01*
X029463Y009731D01*
X029469Y009787D01*
X029471Y009843D01*
X029470Y009843D01*
X029468Y009787D01*
X029462Y009731D01*
X029452Y009676D01*
X029439Y009622D01*
X029422Y009569D01*
X029401Y009517D01*
X029376Y009467D01*
X029348Y009418D01*
X029317Y009372D01*
X029283Y009327D01*
X029246Y009286D01*
X029206Y009247D01*
X029163Y009210D01*
X029118Y009177D01*
X029117Y009178D01*
X029162Y009211D01*
X029205Y009247D01*
X029245Y009286D01*
X029282Y009328D01*
X029316Y009372D01*
X029348Y009419D01*
X029375Y009467D01*
X029400Y009517D01*
X029421Y009569D01*
X029438Y009622D01*
X029451Y009677D01*
X029461Y009732D01*
X029467Y009787D01*
X029469Y009843D01*
X029468Y009843D01*
X029466Y009787D01*
X029460Y009732D01*
X029450Y009677D01*
X029437Y009623D01*
X029420Y009569D01*
X029399Y009518D01*
X029375Y009468D01*
X029347Y009419D01*
X029316Y009373D01*
X029281Y009329D01*
X029244Y009287D01*
X029204Y009248D01*
X029162Y009212D01*
X029117Y009179D01*
X029116Y009180D01*
X029161Y009213D01*
X029204Y009249D01*
X029243Y009288D01*
X029281Y009329D01*
X029315Y009373D01*
X029346Y009420D01*
X029374Y009468D01*
X029398Y009518D01*
X029419Y009570D01*
X029436Y009623D01*
X029449Y009677D01*
X029459Y009732D01*
X029465Y009787D01*
X029467Y009843D01*
X029466Y009843D01*
X029464Y009787D01*
X029458Y009732D01*
X029448Y009677D01*
X029435Y009623D01*
X029418Y009570D01*
X029397Y009519D01*
X029373Y009468D01*
X029345Y009420D01*
X029314Y009374D01*
X029280Y009330D01*
X029243Y009288D01*
X029203Y009250D01*
X029160Y009214D01*
X029116Y009181D01*
X029115Y009181D01*
X029160Y009214D01*
X029202Y009250D01*
X029242Y009289D01*
X029279Y009331D01*
X029313Y009375D01*
X029344Y009421D01*
X029372Y009469D01*
X029396Y009519D01*
X029417Y009571D01*
X029434Y009623D01*
X029448Y009677D01*
X029457Y009732D01*
X029463Y009787D01*
X029465Y009843D01*
X029464Y009843D01*
X029462Y009788D01*
X029456Y009732D01*
X029447Y009678D01*
X029433Y009624D01*
X029416Y009571D01*
X029395Y009519D01*
X029371Y009469D01*
X029343Y009421D01*
X029312Y009375D01*
X029278Y009331D01*
X029241Y009290D01*
X029202Y009251D01*
X029159Y009215D01*
X029114Y009182D01*
X029114Y009183D01*
X029159Y009216D01*
X029201Y009252D01*
X029241Y009290D01*
X029278Y009332D01*
X029312Y009376D01*
X029342Y009422D01*
X029370Y009470D01*
X029394Y009520D01*
X029415Y009571D01*
X029432Y009624D01*
X029446Y009678D01*
X029455Y009732D01*
X029461Y009788D01*
X029463Y009843D01*
X029462Y009843D01*
X029460Y009788D01*
X029454Y009733D01*
X029445Y009678D01*
X029431Y009624D01*
X029414Y009572D01*
X029393Y009520D01*
X029369Y009470D01*
X029342Y009422D01*
X029311Y009376D01*
X029277Y009332D01*
X029240Y009291D01*
X029200Y009253D01*
X029158Y009217D01*
X029113Y009184D01*
X029113Y009185D01*
X029157Y009218D01*
X029200Y009253D01*
X029239Y009292D01*
X029276Y009333D01*
X029310Y009377D01*
X029341Y009423D01*
X029368Y009471D01*
X029393Y009521D01*
X029413Y009572D01*
X029430Y009625D01*
X029444Y009678D01*
X029453Y009733D01*
X029459Y009788D01*
X029461Y009843D01*
X029460Y009843D01*
X029458Y009788D01*
X029452Y009733D01*
X029443Y009678D01*
X029429Y009625D01*
X029412Y009572D01*
X029392Y009521D01*
X029367Y009471D01*
X029340Y009423D01*
X029309Y009377D01*
X029275Y009334D01*
X029238Y009293D01*
X029199Y009254D01*
X029157Y009218D01*
X029112Y009186D01*
X029156Y009219D01*
X029198Y009255D01*
X029238Y009293D01*
X029275Y009334D01*
X029308Y009378D01*
X029339Y009424D01*
X029367Y009472D01*
X029391Y009521D01*
X029411Y009573D01*
X029428Y009625D01*
X029442Y009679D01*
X029451Y009733D01*
X029457Y009788D01*
X029459Y009843D01*
X029458Y009843D01*
X029456Y009788D01*
X029450Y009733D01*
X029441Y009679D01*
X029427Y009625D01*
X029410Y009573D01*
X029390Y009522D01*
X029366Y009472D01*
X029338Y009424D01*
X029308Y009379D01*
X029274Y009335D01*
X029237Y009294D01*
X029198Y009256D01*
X029155Y009220D01*
X029111Y009187D01*
X029110Y009188D01*
X029155Y009221D01*
X029197Y009256D01*
X029236Y009295D01*
X029273Y009336D01*
X029307Y009379D01*
X029337Y009425D01*
X029365Y009473D01*
X029389Y009522D01*
X029409Y009573D01*
X029426Y009626D01*
X029440Y009679D01*
X029449Y009733D01*
X029455Y009788D01*
X029457Y009843D01*
X029456Y009843D01*
X029454Y009788D01*
X029448Y009733D01*
X029439Y009679D01*
X029425Y009626D01*
X029408Y009574D01*
X029388Y009523D01*
X029364Y009473D01*
X029337Y009425D01*
X029306Y009380D01*
X029272Y009336D01*
X029236Y009295D01*
X029196Y009257D01*
X029154Y009221D01*
X029110Y009189D01*
X029109Y009190D01*
X029154Y009222D01*
X029195Y009258D01*
X029235Y009296D01*
X029271Y009337D01*
X029305Y009380D01*
X029336Y009426D01*
X029363Y009474D01*
X029387Y009523D01*
X029408Y009574D01*
X029424Y009626D01*
X029438Y009679D01*
X029447Y009734D01*
X029453Y009788D01*
X029455Y009843D01*
X027855Y009843D02*
X027873Y009843D01*
X027872Y009843D02*
X027874Y009788D01*
X027880Y009734D01*
X027889Y009680D01*
X027903Y009626D01*
X027919Y009574D01*
X027940Y009523D01*
X027964Y009474D01*
X027991Y009426D01*
X028022Y009381D01*
X028055Y009338D01*
X028092Y009297D01*
X028131Y009258D01*
X028173Y009223D01*
X028217Y009191D01*
X028208Y009176D01*
X028207Y009176D01*
X028162Y009209D01*
X028119Y009245D01*
X028079Y009284D01*
X028042Y009326D01*
X028007Y009370D01*
X027976Y009417D01*
X027948Y009466D01*
X027923Y009516D01*
X027903Y009568D01*
X027885Y009621D01*
X027872Y009676D01*
X027862Y009731D01*
X027856Y009787D01*
X027854Y009843D01*
X027855Y009843D01*
X027857Y009787D01*
X027863Y009731D01*
X027873Y009676D01*
X027886Y009622D01*
X027903Y009568D01*
X027924Y009516D01*
X027949Y009466D01*
X027977Y009417D01*
X028008Y009371D01*
X028042Y009327D01*
X028080Y009285D01*
X028120Y009246D01*
X028163Y009210D01*
X028208Y009176D01*
X028208Y009177D01*
X028163Y009210D01*
X028120Y009247D01*
X028080Y009286D01*
X028043Y009327D01*
X028009Y009372D01*
X027978Y009418D01*
X027950Y009467D01*
X027925Y009517D01*
X027904Y009569D01*
X027887Y009622D01*
X027874Y009676D01*
X027864Y009731D01*
X027858Y009787D01*
X027856Y009843D01*
X027857Y009843D01*
X027859Y009787D01*
X027865Y009732D01*
X027875Y009676D01*
X027888Y009622D01*
X027905Y009569D01*
X027926Y009517D01*
X027951Y009467D01*
X027978Y009419D01*
X028010Y009372D01*
X028044Y009328D01*
X028081Y009286D01*
X028121Y009247D01*
X028164Y009211D01*
X028209Y009178D01*
X028209Y009179D01*
X028164Y009212D01*
X028122Y009248D01*
X028082Y009287D01*
X028045Y009329D01*
X028010Y009373D01*
X027979Y009419D01*
X027951Y009467D01*
X027927Y009518D01*
X027906Y009569D01*
X027889Y009623D01*
X027876Y009677D01*
X027866Y009732D01*
X027860Y009787D01*
X027858Y009843D01*
X027859Y009843D01*
X027861Y009787D01*
X027867Y009732D01*
X027877Y009677D01*
X027890Y009623D01*
X027907Y009570D01*
X027928Y009518D01*
X027952Y009468D01*
X027980Y009420D01*
X028011Y009373D01*
X028045Y009329D01*
X028083Y009288D01*
X028122Y009249D01*
X028165Y009213D01*
X028210Y009180D01*
X028211Y009181D01*
X028166Y009214D01*
X028123Y009250D01*
X028083Y009288D01*
X028046Y009330D01*
X028012Y009374D01*
X027981Y009420D01*
X027953Y009468D01*
X027929Y009518D01*
X027908Y009570D01*
X027891Y009623D01*
X027878Y009677D01*
X027868Y009732D01*
X027862Y009787D01*
X027860Y009843D01*
X027861Y009843D01*
X027863Y009787D01*
X027869Y009732D01*
X027879Y009677D01*
X027892Y009623D01*
X027909Y009570D01*
X027930Y009519D01*
X027954Y009469D01*
X027982Y009421D01*
X028013Y009374D01*
X028047Y009331D01*
X028084Y009289D01*
X028124Y009250D01*
X028166Y009214D01*
X028211Y009181D01*
X028212Y009182D01*
X028167Y009215D01*
X028124Y009251D01*
X028085Y009290D01*
X028048Y009331D01*
X028014Y009375D01*
X027983Y009421D01*
X027955Y009469D01*
X027931Y009519D01*
X027910Y009571D01*
X027893Y009624D01*
X027879Y009678D01*
X027870Y009732D01*
X027864Y009787D01*
X027862Y009843D01*
X027863Y009843D01*
X027865Y009788D01*
X027871Y009732D01*
X027880Y009678D01*
X027894Y009624D01*
X027911Y009571D01*
X027932Y009520D01*
X027956Y009470D01*
X027984Y009422D01*
X028014Y009376D01*
X028048Y009332D01*
X028085Y009290D01*
X028125Y009252D01*
X028168Y009216D01*
X028212Y009183D01*
X028213Y009184D01*
X028168Y009217D01*
X028126Y009253D01*
X028086Y009291D01*
X028049Y009332D01*
X028015Y009376D01*
X027984Y009422D01*
X027957Y009470D01*
X027933Y009520D01*
X027912Y009571D01*
X027895Y009624D01*
X027881Y009678D01*
X027872Y009732D01*
X027866Y009788D01*
X027864Y009843D01*
X027865Y009843D01*
X027867Y009788D01*
X027873Y009733D01*
X027882Y009678D01*
X027896Y009624D01*
X027913Y009572D01*
X027934Y009520D01*
X027958Y009471D01*
X027985Y009423D01*
X028016Y009377D01*
X028050Y009333D01*
X028087Y009292D01*
X028127Y009253D01*
X028169Y009217D01*
X028213Y009185D01*
X028214Y009186D01*
X028169Y009218D01*
X028127Y009254D01*
X028088Y009293D01*
X028051Y009334D01*
X028017Y009377D01*
X027986Y009423D01*
X027959Y009471D01*
X027934Y009521D01*
X027914Y009572D01*
X027897Y009625D01*
X027883Y009678D01*
X027874Y009733D01*
X027868Y009788D01*
X027866Y009843D01*
X027867Y009843D01*
X027869Y009788D01*
X027875Y009733D01*
X027884Y009679D01*
X027898Y009625D01*
X027915Y009573D01*
X027935Y009521D01*
X027959Y009472D01*
X027987Y009424D01*
X028018Y009378D01*
X028052Y009334D01*
X028088Y009293D01*
X028128Y009255D01*
X028170Y009219D01*
X028214Y009186D01*
X028215Y009187D01*
X028171Y009220D01*
X028129Y009255D01*
X028089Y009294D01*
X028052Y009335D01*
X028018Y009379D01*
X027988Y009424D01*
X027960Y009472D01*
X027936Y009522D01*
X027916Y009573D01*
X027899Y009625D01*
X027885Y009679D01*
X027876Y009733D01*
X027870Y009788D01*
X027868Y009843D01*
X027869Y009843D01*
X027871Y009788D01*
X027877Y009733D01*
X027886Y009679D01*
X027900Y009626D01*
X027917Y009573D01*
X027937Y009522D01*
X027961Y009473D01*
X027989Y009425D01*
X028019Y009379D01*
X028053Y009336D01*
X028090Y009295D01*
X028129Y009256D01*
X028171Y009221D01*
X028216Y009188D01*
X028216Y009189D01*
X028172Y009221D01*
X028130Y009257D01*
X028090Y009295D01*
X028054Y009336D01*
X028020Y009380D01*
X027989Y009425D01*
X027962Y009473D01*
X027938Y009523D01*
X027918Y009574D01*
X027901Y009626D01*
X027887Y009679D01*
X027878Y009733D01*
X027872Y009788D01*
X027870Y009843D01*
X027871Y009843D01*
X027873Y009788D01*
X027879Y009733D01*
X027888Y009679D01*
X027902Y009626D01*
X027918Y009574D01*
X027939Y009523D01*
X027963Y009474D01*
X027990Y009426D01*
X028021Y009380D01*
X028055Y009337D01*
X028091Y009296D01*
X028131Y009258D01*
X028172Y009222D01*
X028217Y009190D01*
X029121Y009624D02*
X029105Y009631D01*
X029123Y009671D01*
X029136Y009713D01*
X029146Y009756D01*
X029152Y009799D01*
X029154Y009843D01*
X029171Y009844D01*
X029172Y009843D01*
X029171Y009805D01*
X029166Y009767D01*
X029159Y009730D01*
X029149Y009694D01*
X029137Y009658D01*
X029122Y009623D01*
X029121Y009623D01*
X029136Y009658D01*
X029148Y009694D01*
X029158Y009730D01*
X029165Y009768D01*
X029170Y009805D01*
X029171Y009843D01*
X029170Y009843D01*
X029169Y009805D01*
X029164Y009768D01*
X029157Y009731D01*
X029147Y009694D01*
X029135Y009659D01*
X029120Y009624D01*
X029119Y009624D01*
X029134Y009659D01*
X029146Y009694D01*
X029156Y009731D01*
X029163Y009768D01*
X029168Y009805D01*
X029169Y009843D01*
X029168Y009843D01*
X029167Y009805D01*
X029162Y009768D01*
X029155Y009731D01*
X029145Y009695D01*
X029133Y009659D01*
X029118Y009625D01*
X029117Y009625D01*
X029132Y009660D01*
X029144Y009695D01*
X029154Y009731D01*
X029161Y009768D01*
X029166Y009805D01*
X029167Y009843D01*
X029166Y009843D01*
X029165Y009806D01*
X029160Y009768D01*
X029153Y009732D01*
X029144Y009695D01*
X029131Y009660D01*
X029116Y009626D01*
X029115Y009626D01*
X029130Y009660D01*
X029143Y009696D01*
X029152Y009732D01*
X029159Y009768D01*
X029164Y009806D01*
X029165Y009843D01*
X029164Y009843D01*
X029163Y009806D01*
X029158Y009769D01*
X029151Y009732D01*
X029142Y009696D01*
X029129Y009661D01*
X029114Y009627D01*
X029113Y009627D01*
X029128Y009661D01*
X029141Y009696D01*
X029150Y009732D01*
X029157Y009769D01*
X029162Y009806D01*
X029163Y009843D01*
X029162Y009843D01*
X029161Y009806D01*
X029156Y009769D01*
X029149Y009732D01*
X029140Y009697D01*
X029127Y009661D01*
X029113Y009627D01*
X029112Y009628D01*
X029126Y009662D01*
X029139Y009697D01*
X029148Y009733D01*
X029155Y009769D01*
X029160Y009806D01*
X029161Y009843D01*
X029160Y009843D01*
X029159Y009806D01*
X029154Y009769D01*
X029147Y009733D01*
X029138Y009697D01*
X029126Y009662D01*
X029111Y009628D01*
X029110Y009629D01*
X029127Y009669D01*
X029141Y009712D01*
X029151Y009755D01*
X029157Y009799D01*
X029159Y009843D01*
X029158Y009843D01*
X029156Y009799D01*
X029150Y009755D01*
X029140Y009712D01*
X029126Y009670D01*
X029109Y009629D01*
X029108Y009630D01*
X029125Y009670D01*
X029139Y009712D01*
X029149Y009755D01*
X029155Y009799D01*
X029157Y009843D01*
X029156Y009843D01*
X029154Y009799D01*
X029148Y009755D01*
X029138Y009712D01*
X029124Y009671D01*
X029107Y009630D01*
X029106Y009630D01*
X029124Y009671D01*
X029137Y009713D01*
X029147Y009756D01*
X029153Y009799D01*
X029155Y009843D01*
X028155Y009844D02*
X028173Y009844D01*
X028172Y009843D02*
X028174Y009799D01*
X028180Y009756D01*
X028190Y009713D01*
X028203Y009671D01*
X028221Y009631D01*
X028205Y009624D01*
X028204Y009623D01*
X028189Y009658D01*
X028177Y009694D01*
X028167Y009730D01*
X028160Y009767D01*
X028155Y009805D01*
X028154Y009843D01*
X028155Y009843D01*
X028156Y009805D01*
X028161Y009768D01*
X028168Y009730D01*
X028178Y009694D01*
X028190Y009658D01*
X028205Y009623D01*
X028206Y009624D01*
X028191Y009659D01*
X028179Y009694D01*
X028169Y009731D01*
X028162Y009768D01*
X028157Y009805D01*
X028156Y009843D01*
X028157Y009843D01*
X028158Y009805D01*
X028163Y009768D01*
X028170Y009731D01*
X028180Y009694D01*
X028192Y009659D01*
X028207Y009624D01*
X028208Y009625D01*
X028193Y009659D01*
X028181Y009695D01*
X028171Y009731D01*
X028164Y009768D01*
X028159Y009805D01*
X028158Y009843D01*
X028159Y009843D01*
X028160Y009805D01*
X028165Y009768D01*
X028172Y009731D01*
X028182Y009695D01*
X028194Y009660D01*
X028209Y009625D01*
X028210Y009626D01*
X028195Y009660D01*
X028182Y009695D01*
X028173Y009732D01*
X028166Y009768D01*
X028161Y009806D01*
X028160Y009843D01*
X028161Y009843D01*
X028162Y009806D01*
X028167Y009768D01*
X028174Y009732D01*
X028183Y009696D01*
X028196Y009660D01*
X028211Y009626D01*
X028212Y009627D01*
X028197Y009661D01*
X028184Y009696D01*
X028175Y009732D01*
X028168Y009769D01*
X028163Y009806D01*
X028162Y009843D01*
X028163Y009843D01*
X028164Y009806D01*
X028169Y009769D01*
X028176Y009732D01*
X028185Y009696D01*
X028198Y009661D01*
X028213Y009627D01*
X028199Y009661D01*
X028186Y009697D01*
X028177Y009732D01*
X028170Y009769D01*
X028165Y009806D01*
X028164Y009843D01*
X028165Y009843D01*
X028166Y009806D01*
X028171Y009769D01*
X028178Y009733D01*
X028187Y009697D01*
X028200Y009662D01*
X028214Y009628D01*
X028215Y009628D01*
X028200Y009662D01*
X028188Y009697D01*
X028179Y009733D01*
X028172Y009769D01*
X028167Y009806D01*
X028166Y009843D01*
X028167Y009843D01*
X028169Y009799D01*
X028175Y009755D01*
X028185Y009712D01*
X028199Y009669D01*
X028216Y009629D01*
X028217Y009629D01*
X028200Y009670D01*
X028186Y009712D01*
X028176Y009755D01*
X028170Y009799D01*
X028168Y009843D01*
X028169Y009843D01*
X028171Y009799D01*
X028177Y009755D01*
X028187Y009712D01*
X028201Y009670D01*
X028218Y009630D01*
X028219Y009630D01*
X028202Y009671D01*
X028188Y009712D01*
X028178Y009755D01*
X028172Y009799D01*
X028170Y009843D01*
X028171Y009843D01*
X028173Y009799D01*
X028179Y009756D01*
X028189Y009713D01*
X028202Y009671D01*
X028220Y009630D01*
X029471Y012545D02*
X029453Y012545D01*
X029454Y012545D02*
X029452Y012600D01*
X029446Y012654D01*
X029437Y012708D01*
X029423Y012762D01*
X029407Y012814D01*
X029386Y012865D01*
X029362Y012914D01*
X029335Y012962D01*
X029304Y013007D01*
X029271Y013050D01*
X029234Y013091D01*
X029195Y013130D01*
X029153Y013165D01*
X029109Y013197D01*
X029118Y013212D01*
X029119Y013212D01*
X029164Y013179D01*
X029207Y013143D01*
X029247Y013104D01*
X029284Y013062D01*
X029319Y013018D01*
X029350Y012971D01*
X029378Y012922D01*
X029403Y012872D01*
X029423Y012820D01*
X029441Y012767D01*
X029454Y012712D01*
X029464Y012657D01*
X029470Y012601D01*
X029472Y012545D01*
X029471Y012545D01*
X029469Y012601D01*
X029463Y012657D01*
X029453Y012712D01*
X029440Y012766D01*
X029423Y012820D01*
X029402Y012872D01*
X029377Y012922D01*
X029349Y012971D01*
X029318Y013017D01*
X029284Y013061D01*
X029246Y013103D01*
X029206Y013142D01*
X029163Y013178D01*
X029118Y013212D01*
X029118Y013211D01*
X029163Y013178D01*
X029206Y013141D01*
X029246Y013102D01*
X029283Y013061D01*
X029317Y013016D01*
X029348Y012970D01*
X029376Y012921D01*
X029401Y012871D01*
X029422Y012819D01*
X029439Y012766D01*
X029452Y012712D01*
X029462Y012657D01*
X029468Y012601D01*
X029470Y012545D01*
X029469Y012545D01*
X029467Y012601D01*
X029461Y012656D01*
X029451Y012711D01*
X029438Y012766D01*
X029421Y012819D01*
X029400Y012871D01*
X029375Y012921D01*
X029348Y012969D01*
X029316Y013016D01*
X029282Y013060D01*
X029245Y013102D01*
X029205Y013141D01*
X029162Y013177D01*
X029117Y013210D01*
X029117Y013209D01*
X029162Y013176D01*
X029204Y013140D01*
X029244Y013101D01*
X029281Y013059D01*
X029316Y013015D01*
X029347Y012969D01*
X029375Y012921D01*
X029399Y012870D01*
X029420Y012819D01*
X029437Y012765D01*
X029450Y012711D01*
X029460Y012656D01*
X029466Y012601D01*
X029468Y012545D01*
X029467Y012545D01*
X029465Y012601D01*
X029459Y012656D01*
X029449Y012711D01*
X029436Y012765D01*
X029419Y012818D01*
X029398Y012870D01*
X029374Y012920D01*
X029346Y012968D01*
X029315Y013015D01*
X029281Y013059D01*
X029243Y013100D01*
X029204Y013139D01*
X029161Y013175D01*
X029116Y013208D01*
X029115Y013207D01*
X029160Y013174D01*
X029203Y013138D01*
X029243Y013100D01*
X029280Y013058D01*
X029314Y013014D01*
X029345Y012968D01*
X029373Y012920D01*
X029397Y012870D01*
X029418Y012818D01*
X029435Y012765D01*
X029448Y012711D01*
X029458Y012656D01*
X029464Y012601D01*
X029466Y012545D01*
X029465Y012545D01*
X029463Y012601D01*
X029457Y012656D01*
X029447Y012711D01*
X029434Y012765D01*
X029417Y012818D01*
X029396Y012869D01*
X029372Y012919D01*
X029344Y012967D01*
X029313Y013014D01*
X029279Y013057D01*
X029242Y013099D01*
X029202Y013138D01*
X029160Y013174D01*
X029115Y013207D01*
X029114Y013206D01*
X029159Y013173D01*
X029202Y013137D01*
X029241Y013098D01*
X029278Y013057D01*
X029312Y013013D01*
X029343Y012967D01*
X029371Y012919D01*
X029395Y012869D01*
X029416Y012817D01*
X029433Y012764D01*
X029447Y012710D01*
X029456Y012656D01*
X029462Y012601D01*
X029464Y012545D01*
X029463Y012545D01*
X029461Y012600D01*
X029455Y012656D01*
X029446Y012710D01*
X029432Y012764D01*
X029415Y012817D01*
X029394Y012868D01*
X029370Y012918D01*
X029342Y012966D01*
X029312Y013012D01*
X029278Y013056D01*
X029241Y013098D01*
X029201Y013136D01*
X029159Y013172D01*
X029114Y013205D01*
X029113Y013204D01*
X029158Y013171D01*
X029200Y013135D01*
X029240Y013097D01*
X029277Y013056D01*
X029311Y013012D01*
X029342Y012966D01*
X029369Y012918D01*
X029393Y012868D01*
X029414Y012816D01*
X029431Y012764D01*
X029445Y012710D01*
X029454Y012655D01*
X029460Y012600D01*
X029462Y012545D01*
X029461Y012545D01*
X029459Y012600D01*
X029453Y012655D01*
X029444Y012710D01*
X029430Y012764D01*
X029413Y012816D01*
X029392Y012867D01*
X029368Y012917D01*
X029341Y012965D01*
X029310Y013011D01*
X029276Y013055D01*
X029239Y013096D01*
X029200Y013135D01*
X029157Y013170D01*
X029113Y013203D01*
X029112Y013202D01*
X029157Y013170D01*
X029199Y013134D01*
X029238Y013095D01*
X029275Y013054D01*
X029309Y013011D01*
X029340Y012965D01*
X029367Y012917D01*
X029392Y012867D01*
X029412Y012816D01*
X029429Y012763D01*
X029443Y012710D01*
X029452Y012655D01*
X029458Y012600D01*
X029460Y012545D01*
X029459Y012545D01*
X029457Y012600D01*
X029451Y012655D01*
X029442Y012709D01*
X029428Y012763D01*
X029411Y012815D01*
X029391Y012867D01*
X029367Y012916D01*
X029339Y012964D01*
X029308Y013010D01*
X029274Y013054D01*
X029238Y013095D01*
X029198Y013133D01*
X029156Y013169D01*
X029112Y013202D01*
X029111Y013201D01*
X029155Y013168D01*
X029197Y013133D01*
X029237Y013094D01*
X029274Y013053D01*
X029308Y013009D01*
X029338Y012964D01*
X029366Y012916D01*
X029390Y012866D01*
X029410Y012815D01*
X029427Y012763D01*
X029441Y012709D01*
X029450Y012655D01*
X029456Y012600D01*
X029458Y012545D01*
X029457Y012545D01*
X029455Y012600D01*
X029449Y012655D01*
X029440Y012709D01*
X029426Y012762D01*
X029409Y012815D01*
X029389Y012866D01*
X029365Y012915D01*
X029337Y012963D01*
X029307Y013009D01*
X029273Y013052D01*
X029236Y013093D01*
X029197Y013132D01*
X029155Y013167D01*
X029110Y013200D01*
X029110Y013199D01*
X029154Y013167D01*
X029196Y013131D01*
X029236Y013093D01*
X029272Y013052D01*
X029306Y013008D01*
X029337Y012963D01*
X029364Y012915D01*
X029388Y012865D01*
X029408Y012814D01*
X029425Y012762D01*
X029439Y012709D01*
X029448Y012655D01*
X029454Y012600D01*
X029456Y012545D01*
X029455Y012545D01*
X029453Y012600D01*
X029447Y012655D01*
X029438Y012709D01*
X029424Y012762D01*
X029408Y012814D01*
X029387Y012865D01*
X029363Y012914D01*
X029336Y012962D01*
X029305Y013008D01*
X029271Y013051D01*
X029235Y013092D01*
X029195Y013130D01*
X029154Y013166D01*
X029109Y013198D01*
X028208Y013212D02*
X028218Y013197D01*
X028217Y013197D02*
X028173Y013165D01*
X028131Y013130D01*
X028092Y013091D01*
X028055Y013050D01*
X028022Y013007D01*
X027991Y012962D01*
X027964Y012914D01*
X027940Y012865D01*
X027919Y012814D01*
X027903Y012762D01*
X027889Y012708D01*
X027880Y012654D01*
X027874Y012600D01*
X027872Y012545D01*
X027855Y012544D01*
X027854Y012545D01*
X027856Y012601D01*
X027862Y012657D01*
X027872Y012712D01*
X027885Y012767D01*
X027902Y012820D01*
X027923Y012872D01*
X027948Y012922D01*
X027976Y012971D01*
X028007Y013018D01*
X028042Y013062D01*
X028079Y013104D01*
X028119Y013143D01*
X028162Y013179D01*
X028207Y013212D01*
X028208Y013211D01*
X028163Y013178D01*
X028120Y013142D01*
X028080Y013103D01*
X028042Y013061D01*
X028008Y013017D01*
X027977Y012970D01*
X027949Y012922D01*
X027924Y012871D01*
X027903Y012820D01*
X027886Y012766D01*
X027873Y012712D01*
X027863Y012657D01*
X027857Y012601D01*
X027855Y012545D01*
X027856Y012545D01*
X027858Y012601D01*
X027864Y012657D01*
X027874Y012712D01*
X027887Y012766D01*
X027904Y012819D01*
X027925Y012871D01*
X027950Y012921D01*
X027978Y012970D01*
X028009Y013016D01*
X028043Y013061D01*
X028080Y013102D01*
X028120Y013141D01*
X028163Y013178D01*
X028208Y013211D01*
X028209Y013210D01*
X028164Y013177D01*
X028121Y013141D01*
X028081Y013102D01*
X028044Y013060D01*
X028010Y013016D01*
X027978Y012969D01*
X027951Y012921D01*
X027926Y012871D01*
X027905Y012819D01*
X027888Y012766D01*
X027875Y012711D01*
X027865Y012656D01*
X027859Y012601D01*
X027857Y012545D01*
X027858Y012545D01*
X027860Y012601D01*
X027866Y012656D01*
X027876Y012711D01*
X027889Y012765D01*
X027906Y012819D01*
X027927Y012870D01*
X027951Y012920D01*
X027979Y012969D01*
X028010Y013015D01*
X028045Y013059D01*
X028082Y013101D01*
X028122Y013140D01*
X028164Y013176D01*
X028209Y013209D01*
X028210Y013208D01*
X028165Y013175D01*
X028122Y013139D01*
X028083Y013100D01*
X028045Y013059D01*
X028011Y013015D01*
X027980Y012968D01*
X027952Y012920D01*
X027928Y012870D01*
X027907Y012818D01*
X027890Y012765D01*
X027877Y012711D01*
X027867Y012656D01*
X027861Y012601D01*
X027859Y012545D01*
X027860Y012545D01*
X027862Y012601D01*
X027868Y012656D01*
X027878Y012711D01*
X027891Y012765D01*
X027908Y012818D01*
X027929Y012869D01*
X027953Y012920D01*
X027981Y012968D01*
X028012Y013014D01*
X028046Y013058D01*
X028083Y013100D01*
X028123Y013138D01*
X028166Y013174D01*
X028210Y013207D01*
X028211Y013207D01*
X028166Y013174D01*
X028124Y013138D01*
X028084Y013099D01*
X028047Y013057D01*
X028013Y013013D01*
X027982Y012967D01*
X027954Y012919D01*
X027930Y012869D01*
X027909Y012817D01*
X027892Y012765D01*
X027878Y012711D01*
X027869Y012656D01*
X027863Y012601D01*
X027861Y012545D01*
X027862Y012545D01*
X027864Y012600D01*
X027870Y012656D01*
X027879Y012710D01*
X027893Y012764D01*
X027910Y012817D01*
X027931Y012869D01*
X027955Y012919D01*
X027983Y012967D01*
X028014Y013013D01*
X028048Y013057D01*
X028085Y013098D01*
X028124Y013137D01*
X028167Y013173D01*
X028212Y013206D01*
X028212Y013205D01*
X028167Y013172D01*
X028125Y013136D01*
X028085Y013098D01*
X028048Y013056D01*
X028014Y013012D01*
X027984Y012966D01*
X027956Y012918D01*
X027932Y012868D01*
X027911Y012817D01*
X027894Y012764D01*
X027880Y012710D01*
X027871Y012656D01*
X027865Y012600D01*
X027863Y012545D01*
X027864Y012545D01*
X027866Y012600D01*
X027872Y012655D01*
X027881Y012710D01*
X027895Y012764D01*
X027912Y012816D01*
X027933Y012868D01*
X027957Y012918D01*
X027984Y012966D01*
X028015Y013012D01*
X028049Y013056D01*
X028086Y013097D01*
X028126Y013135D01*
X028168Y013171D01*
X028213Y013204D01*
X028213Y013203D01*
X028169Y013170D01*
X028126Y013135D01*
X028087Y013096D01*
X028050Y013055D01*
X028016Y013011D01*
X027985Y012965D01*
X027958Y012917D01*
X027933Y012867D01*
X027913Y012816D01*
X027896Y012763D01*
X027882Y012710D01*
X027873Y012655D01*
X027867Y012600D01*
X027865Y012545D01*
X027866Y012545D01*
X027868Y012600D01*
X027874Y012655D01*
X027883Y012710D01*
X027897Y012763D01*
X027914Y012816D01*
X027934Y012867D01*
X027959Y012917D01*
X027986Y012965D01*
X028017Y013011D01*
X028051Y013054D01*
X028088Y013095D01*
X028127Y013134D01*
X028169Y013170D01*
X028214Y013202D01*
X028170Y013169D01*
X028128Y013133D01*
X028088Y013095D01*
X028051Y013054D01*
X028018Y013010D01*
X027987Y012964D01*
X027959Y012916D01*
X027935Y012867D01*
X027915Y012815D01*
X027898Y012763D01*
X027884Y012709D01*
X027875Y012655D01*
X027869Y012600D01*
X027867Y012545D01*
X027868Y012545D01*
X027870Y012600D01*
X027876Y012655D01*
X027885Y012709D01*
X027899Y012763D01*
X027916Y012815D01*
X027936Y012866D01*
X027960Y012916D01*
X027988Y012964D01*
X028018Y013009D01*
X028052Y013053D01*
X028089Y013094D01*
X028128Y013132D01*
X028171Y013168D01*
X028215Y013201D01*
X028216Y013200D01*
X028171Y013167D01*
X028129Y013132D01*
X028090Y013093D01*
X028053Y013052D01*
X028019Y013009D01*
X027989Y012963D01*
X027961Y012915D01*
X027937Y012866D01*
X027917Y012815D01*
X027900Y012762D01*
X027886Y012709D01*
X027877Y012655D01*
X027871Y012600D01*
X027869Y012545D01*
X027870Y012545D01*
X027872Y012600D01*
X027878Y012655D01*
X027887Y012709D01*
X027901Y012762D01*
X027918Y012814D01*
X027938Y012865D01*
X027962Y012915D01*
X027989Y012963D01*
X028020Y013008D01*
X028054Y013052D01*
X028090Y013093D01*
X028130Y013131D01*
X028172Y013167D01*
X028216Y013199D01*
X028217Y013198D01*
X028172Y013166D01*
X028131Y013130D01*
X028091Y013092D01*
X028055Y013051D01*
X028021Y013008D01*
X027990Y012962D01*
X027963Y012914D01*
X027939Y012865D01*
X027918Y012814D01*
X027902Y012762D01*
X027888Y012709D01*
X027879Y012654D01*
X027873Y012600D01*
X027871Y012545D01*
X028205Y012764D02*
X028221Y012757D01*
X028203Y012717D01*
X028190Y012675D01*
X028180Y012632D01*
X028174Y012589D01*
X028172Y012545D01*
X028155Y012544D01*
X028154Y012545D01*
X028155Y012583D01*
X028160Y012621D01*
X028167Y012658D01*
X028177Y012694D01*
X028189Y012730D01*
X028204Y012765D01*
X028205Y012765D01*
X028190Y012730D01*
X028178Y012694D01*
X028168Y012658D01*
X028161Y012620D01*
X028156Y012583D01*
X028155Y012545D01*
X028156Y012545D01*
X028157Y012583D01*
X028162Y012620D01*
X028169Y012657D01*
X028179Y012694D01*
X028191Y012729D01*
X028206Y012764D01*
X028207Y012764D01*
X028192Y012729D01*
X028180Y012694D01*
X028170Y012657D01*
X028163Y012620D01*
X028158Y012583D01*
X028157Y012545D01*
X028158Y012545D01*
X028159Y012583D01*
X028164Y012620D01*
X028171Y012657D01*
X028181Y012693D01*
X028193Y012729D01*
X028208Y012763D01*
X028209Y012763D01*
X028194Y012728D01*
X028182Y012693D01*
X028172Y012657D01*
X028165Y012620D01*
X028160Y012583D01*
X028159Y012545D01*
X028160Y012545D01*
X028161Y012582D01*
X028166Y012620D01*
X028173Y012656D01*
X028182Y012693D01*
X028195Y012728D01*
X028210Y012762D01*
X028211Y012762D01*
X028196Y012728D01*
X028183Y012692D01*
X028174Y012656D01*
X028167Y012620D01*
X028162Y012582D01*
X028161Y012545D01*
X028162Y012545D01*
X028163Y012582D01*
X028168Y012619D01*
X028175Y012656D01*
X028184Y012692D01*
X028197Y012727D01*
X028212Y012761D01*
X028213Y012761D01*
X028198Y012727D01*
X028185Y012692D01*
X028176Y012656D01*
X028169Y012619D01*
X028164Y012582D01*
X028163Y012545D01*
X028164Y012545D01*
X028165Y012582D01*
X028170Y012619D01*
X028177Y012656D01*
X028186Y012691D01*
X028199Y012727D01*
X028213Y012761D01*
X028214Y012760D01*
X028200Y012726D01*
X028187Y012691D01*
X028178Y012655D01*
X028171Y012619D01*
X028166Y012582D01*
X028165Y012545D01*
X028166Y012545D01*
X028167Y012582D01*
X028172Y012619D01*
X028179Y012655D01*
X028188Y012691D01*
X028200Y012726D01*
X028215Y012760D01*
X028216Y012759D01*
X028199Y012719D01*
X028185Y012676D01*
X028175Y012633D01*
X028169Y012589D01*
X028167Y012545D01*
X028168Y012545D01*
X028170Y012589D01*
X028176Y012633D01*
X028186Y012676D01*
X028200Y012718D01*
X028217Y012759D01*
X028218Y012758D01*
X028201Y012718D01*
X028187Y012676D01*
X028177Y012633D01*
X028171Y012589D01*
X028169Y012545D01*
X028170Y012545D01*
X028172Y012589D01*
X028178Y012633D01*
X028188Y012676D01*
X028202Y012717D01*
X028219Y012758D01*
X028220Y012758D01*
X028202Y012717D01*
X028189Y012675D01*
X028179Y012632D01*
X028173Y012589D01*
X028171Y012545D01*
X029171Y012544D02*
X029153Y012544D01*
X029154Y012545D02*
X029152Y012589D01*
X029146Y012632D01*
X029136Y012675D01*
X029123Y012717D01*
X029105Y012757D01*
X029121Y012764D01*
X029122Y012765D01*
X029137Y012730D01*
X029149Y012694D01*
X029159Y012658D01*
X029166Y012621D01*
X029171Y012583D01*
X029172Y012545D01*
X029171Y012545D01*
X029170Y012583D01*
X029165Y012620D01*
X029158Y012658D01*
X029148Y012694D01*
X029136Y012730D01*
X029121Y012765D01*
X029120Y012764D01*
X029135Y012729D01*
X029147Y012694D01*
X029157Y012657D01*
X029164Y012620D01*
X029169Y012583D01*
X029170Y012545D01*
X029169Y012545D01*
X029168Y012583D01*
X029163Y012620D01*
X029156Y012657D01*
X029146Y012694D01*
X029134Y012729D01*
X029119Y012764D01*
X029118Y012763D01*
X029133Y012729D01*
X029145Y012693D01*
X029155Y012657D01*
X029162Y012620D01*
X029167Y012583D01*
X029168Y012545D01*
X029167Y012545D01*
X029166Y012583D01*
X029161Y012620D01*
X029154Y012657D01*
X029144Y012693D01*
X029132Y012728D01*
X029117Y012763D01*
X029116Y012762D01*
X029131Y012728D01*
X029144Y012693D01*
X029153Y012656D01*
X029160Y012620D01*
X029165Y012582D01*
X029166Y012545D01*
X029165Y012545D01*
X029164Y012582D01*
X029159Y012620D01*
X029152Y012656D01*
X029143Y012692D01*
X029130Y012728D01*
X029115Y012762D01*
X029114Y012761D01*
X029129Y012727D01*
X029142Y012692D01*
X029151Y012656D01*
X029158Y012619D01*
X029163Y012582D01*
X029164Y012545D01*
X029163Y012545D01*
X029162Y012582D01*
X029157Y012619D01*
X029150Y012656D01*
X029141Y012692D01*
X029128Y012727D01*
X029113Y012761D01*
X029127Y012727D01*
X029140Y012691D01*
X029149Y012656D01*
X029156Y012619D01*
X029161Y012582D01*
X029162Y012545D01*
X029161Y012545D01*
X029160Y012582D01*
X029155Y012619D01*
X029148Y012655D01*
X029139Y012691D01*
X029126Y012726D01*
X029112Y012760D01*
X029111Y012760D01*
X029126Y012726D01*
X029138Y012691D01*
X029147Y012655D01*
X029154Y012619D01*
X029159Y012582D01*
X029160Y012545D01*
X029159Y012545D01*
X029157Y012589D01*
X029151Y012633D01*
X029141Y012676D01*
X029127Y012719D01*
X029110Y012759D01*
X029109Y012759D01*
X029126Y012718D01*
X029140Y012676D01*
X029150Y012633D01*
X029156Y012589D01*
X029158Y012545D01*
X029157Y012545D01*
X029155Y012589D01*
X029149Y012633D01*
X029139Y012676D01*
X029125Y012718D01*
X029108Y012758D01*
X029107Y012758D01*
X029124Y012717D01*
X029138Y012676D01*
X029148Y012633D01*
X029154Y012589D01*
X029156Y012545D01*
X029155Y012545D01*
X029153Y012589D01*
X029147Y012632D01*
X029137Y012675D01*
X029124Y012717D01*
X029106Y012758D01*
D16*
X029163Y012544D02*
X029163Y009844D01*
X029463Y009844D02*
X029463Y012544D01*
X028163Y012544D02*
X028163Y009844D01*
X027863Y009844D02*
X027863Y012544D01*
X028663Y011594D02*
X028663Y011444D01*
X028663Y010944D02*
X028663Y010794D01*
M02*
