G75*
%MOIN*%
%OFA0B0*%
%FSLAX24Y24*%
%IPPOS*%
%LPD*%
%AMOC8*
5,1,8,0,0,1.08239X$1,22.5*
%
%ADD10C,0.0120*%
%ADD11C,0.0520*%
%ADD12R,0.0472X0.0551*%
%ADD13R,0.0630X0.0709*%
%ADD14C,0.0600*%
%ADD15C,0.0886*%
%ADD16C,0.0740*%
%ADD17C,0.1660*%
%ADD18R,0.0984X0.0630*%
%ADD19C,0.0515*%
%ADD20R,0.0709X0.0630*%
%ADD21R,0.0356X0.0356*%
%ADD22C,0.0240*%
%ADD23C,0.0160*%
D10*
X000160Y000160D02*
X037562Y000160D01*
X037562Y019845D01*
X000160Y019845D01*
X000160Y000160D01*
D11*
X021960Y002349D02*
X022480Y002349D01*
X022480Y003349D02*
X021960Y003349D01*
X021960Y004349D02*
X022480Y004349D01*
X022480Y005349D02*
X021960Y005349D01*
X021960Y006349D02*
X022480Y006349D01*
X022480Y007349D02*
X021960Y007349D01*
X021960Y008349D02*
X022480Y008349D01*
X022480Y009349D02*
X021960Y009349D01*
X021960Y010349D02*
X022480Y010349D01*
X022480Y011349D02*
X021960Y011349D01*
X021960Y012349D02*
X022480Y012349D01*
X022480Y013349D02*
X021960Y013349D01*
X021960Y014349D02*
X022480Y014349D01*
X022480Y015349D02*
X021960Y015349D01*
X024960Y015349D02*
X025480Y015349D01*
X025480Y014349D02*
X024960Y014349D01*
X024960Y013349D02*
X025480Y013349D01*
X025480Y012349D02*
X024960Y012349D01*
X024960Y011349D02*
X025480Y011349D01*
X025480Y010349D02*
X024960Y010349D01*
X024960Y009349D02*
X025480Y009349D01*
X025480Y008349D02*
X024960Y008349D01*
X024960Y007349D02*
X025480Y007349D01*
X025480Y006349D02*
X024960Y006349D01*
X024960Y005349D02*
X025480Y005349D01*
X025480Y004349D02*
X024960Y004349D01*
X024960Y003349D02*
X025480Y003349D01*
X025480Y002349D02*
X024960Y002349D01*
D12*
X012955Y002129D03*
X011774Y002129D03*
X006835Y003289D03*
X005654Y003289D03*
X005465Y016749D03*
X006646Y016749D03*
X010593Y018664D03*
X011774Y018664D03*
X033242Y014281D03*
X034423Y014281D03*
D13*
X031612Y014344D03*
X030509Y014344D03*
X015672Y018664D03*
X014569Y018664D03*
X006617Y018664D03*
X005514Y018664D03*
X014569Y002129D03*
X015672Y002129D03*
X006826Y001328D03*
X005723Y001328D03*
D14*
X002522Y004884D03*
X002557Y014993D03*
D15*
X003557Y015993D03*
X001557Y015993D03*
X001557Y013993D03*
X003557Y013993D03*
X003522Y005884D03*
X001522Y005884D03*
X001522Y003884D03*
X003522Y003884D03*
D16*
X022322Y018520D03*
X023322Y018520D03*
X024322Y018520D03*
X025322Y018520D03*
X028013Y018515D03*
X029013Y018515D03*
X030013Y018515D03*
X031013Y018515D03*
X036156Y012117D03*
X036156Y011117D03*
X036156Y010117D03*
X036156Y009117D03*
X036156Y008117D03*
X036156Y007117D03*
D17*
X027519Y003136D03*
X019451Y003136D03*
X036297Y001430D03*
X027519Y015141D03*
X019451Y015141D03*
X036297Y018580D03*
X001433Y018584D03*
X001439Y001420D03*
D18*
X032634Y016419D03*
X035548Y016419D03*
D19*
X003522Y011503D03*
X002522Y011503D03*
X002522Y008503D03*
X003522Y008503D03*
D20*
X026688Y017883D03*
X026688Y018985D03*
D21*
X029880Y016630D03*
X030475Y015514D03*
X035593Y013152D03*
X030869Y008428D03*
X030869Y007640D03*
X029688Y006853D03*
X026144Y008821D03*
X026150Y009770D03*
X024176Y009215D03*
X023270Y008330D03*
X021016Y009999D03*
X020340Y010000D03*
X019670Y010010D03*
X017040Y008230D03*
X012730Y009250D03*
X014400Y012730D03*
X010396Y013940D03*
X006640Y015840D03*
X013152Y017483D03*
X017483Y018664D03*
X023080Y014120D03*
X013040Y004880D03*
X014270Y004610D03*
X017020Y002190D03*
X015508Y001027D03*
X006620Y004260D03*
X003520Y002990D03*
X032230Y003700D03*
X034480Y003690D03*
X035120Y002250D03*
D22*
X033890Y001020D01*
X018664Y001020D01*
X018190Y001020D01*
X015981Y001020D01*
X015508Y001027D01*
X017020Y002190D02*
X018190Y001020D01*
X030869Y008428D02*
X030869Y013985D01*
X030509Y014344D01*
X030475Y014378D02*
X030475Y015514D01*
X029880Y016648D02*
X028013Y018515D01*
X026538Y019180D02*
X031020Y019180D01*
X033020Y019180D01*
X035548Y016652D01*
X035548Y016419D02*
X035548Y015405D01*
X034423Y014281D01*
X035552Y013152D01*
X035593Y013152D02*
X036380Y013152D01*
X036774Y012758D01*
X036774Y008428D01*
X036464Y008117D01*
X025240Y009350D02*
X023100Y011020D01*
X023080Y014120D01*
X022322Y018520D02*
X022982Y019180D01*
X026538Y019180D01*
D23*
X026538Y019135D01*
X026688Y018985D01*
X026765Y019022D02*
X027746Y019022D01*
X027690Y018998D02*
X027899Y019085D01*
X028126Y019085D01*
X028335Y018998D01*
X028496Y018838D01*
X028513Y018798D01*
X028529Y018838D01*
X028690Y018998D01*
X028899Y019085D01*
X029126Y019085D01*
X029335Y018998D01*
X029496Y018838D01*
X029513Y018798D01*
X029529Y018838D01*
X029690Y018998D01*
X029899Y019085D01*
X030126Y019085D01*
X030335Y018998D01*
X030496Y018838D01*
X030525Y018769D01*
X030542Y018803D01*
X030593Y018873D01*
X030654Y018935D01*
X030724Y018986D01*
X030801Y019025D01*
X030884Y019052D01*
X030969Y019065D01*
X030993Y019065D01*
X030993Y018535D01*
X031033Y018535D01*
X031563Y018535D01*
X031563Y018558D01*
X031549Y018644D01*
X031522Y018726D01*
X031483Y018803D01*
X031432Y018873D01*
X031371Y018935D01*
X031301Y018986D01*
X031224Y019025D01*
X031141Y019052D01*
X031056Y019065D01*
X031033Y019065D01*
X031033Y018535D01*
X031033Y018495D01*
X031563Y018495D01*
X031563Y018472D01*
X031549Y018386D01*
X031522Y018304D01*
X031483Y018227D01*
X031432Y018157D01*
X031371Y018096D01*
X031301Y018045D01*
X031224Y018005D01*
X031141Y017979D01*
X031056Y017965D01*
X031033Y017965D01*
X031033Y018495D01*
X030993Y018495D01*
X030993Y017965D01*
X030969Y017965D01*
X030884Y017979D01*
X030801Y018005D01*
X030724Y018045D01*
X030654Y018096D01*
X030593Y018157D01*
X030542Y018227D01*
X030525Y018262D01*
X030496Y018192D01*
X030335Y018032D01*
X030126Y017945D01*
X029899Y017945D01*
X029690Y018032D01*
X029529Y018192D01*
X029513Y018233D01*
X029496Y018192D01*
X029335Y018032D01*
X029126Y017945D01*
X029035Y017945D01*
X029972Y017008D01*
X030141Y017008D01*
X030258Y016891D01*
X030258Y016481D01*
X030355Y016578D01*
X030434Y016657D01*
X030537Y016699D01*
X031942Y016699D01*
X031942Y016817D01*
X032059Y016934D01*
X033209Y016934D01*
X033326Y016817D01*
X033326Y016021D01*
X033209Y015904D01*
X032059Y015904D01*
X031942Y016021D01*
X031942Y016139D01*
X030708Y016139D01*
X030462Y015892D01*
X030736Y015892D01*
X030853Y015775D01*
X030853Y015253D01*
X030795Y015195D01*
X030795Y014898D01*
X030907Y014898D01*
X031024Y014781D01*
X031024Y014281D01*
X031050Y014256D01*
X031097Y014209D01*
X031097Y014781D01*
X031214Y014898D01*
X032010Y014898D01*
X032127Y014781D01*
X032127Y014624D01*
X032806Y014624D01*
X032806Y014639D01*
X032923Y014756D01*
X033561Y014756D01*
X033678Y014639D01*
X033678Y013922D01*
X033561Y013805D01*
X032923Y013805D01*
X032806Y013922D01*
X032806Y014064D01*
X032127Y014064D01*
X032127Y013907D01*
X032010Y013790D01*
X031214Y013790D01*
X031189Y013815D01*
X031189Y008747D01*
X031247Y008689D01*
X031247Y008167D01*
X031130Y008050D01*
X030855Y008050D01*
X030887Y008018D01*
X031130Y008018D01*
X031247Y007901D01*
X031247Y007379D01*
X031130Y007262D01*
X030608Y007262D01*
X030491Y007379D01*
X030491Y007622D01*
X029529Y008584D01*
X029450Y008663D01*
X029408Y008766D01*
X029408Y015570D01*
X029450Y015673D01*
X030029Y016252D01*
X029619Y016252D01*
X029502Y016369D01*
X029502Y016573D01*
X028129Y017946D01*
X028126Y017945D01*
X027899Y017945D01*
X027703Y018027D01*
X027329Y017653D01*
X027242Y017617D01*
X027242Y017485D01*
X027125Y017368D01*
X026251Y017368D01*
X026134Y017485D01*
X026134Y017600D01*
X025894Y017600D01*
X025791Y017643D01*
X025470Y017964D01*
X025435Y017950D01*
X025209Y017950D01*
X024999Y018037D01*
X024839Y018197D01*
X024822Y018238D01*
X024805Y018197D01*
X024645Y018037D01*
X024602Y018019D01*
X024602Y015642D01*
X024699Y015739D01*
X024868Y015809D01*
X025571Y015809D01*
X025740Y015739D01*
X025870Y015610D01*
X025940Y015441D01*
X025940Y015258D01*
X025870Y015089D01*
X025740Y014959D01*
X025571Y014889D01*
X024868Y014889D01*
X024699Y014959D01*
X024602Y015056D01*
X024602Y014642D01*
X024699Y014739D01*
X024868Y014809D01*
X025571Y014809D01*
X025740Y014739D01*
X025870Y014610D01*
X025940Y014441D01*
X025940Y014258D01*
X025870Y014089D01*
X025740Y013959D01*
X025571Y013889D01*
X025076Y013889D01*
X025156Y013809D01*
X025571Y013809D01*
X025740Y013739D01*
X025870Y013610D01*
X025940Y013441D01*
X025940Y013258D01*
X025870Y013089D01*
X025740Y012959D01*
X025571Y012889D01*
X025076Y012889D01*
X025156Y012809D01*
X025571Y012809D01*
X025740Y012739D01*
X025870Y012610D01*
X025940Y012441D01*
X025940Y012258D01*
X025870Y012089D01*
X025740Y011959D01*
X025571Y011889D01*
X024868Y011889D01*
X024699Y011959D01*
X024570Y012089D01*
X024500Y012258D01*
X024500Y012441D01*
X024568Y012605D01*
X023810Y013363D01*
X023810Y012106D01*
X024500Y011416D01*
X024500Y011441D01*
X024570Y011610D01*
X024699Y011739D01*
X024868Y011809D01*
X025571Y011809D01*
X025740Y011739D01*
X025870Y011610D01*
X025940Y011441D01*
X025940Y011258D01*
X025870Y011089D01*
X025859Y011078D01*
X025928Y011009D01*
X026382Y010555D01*
X026424Y010452D01*
X026424Y010135D01*
X026528Y010031D01*
X026528Y009509D01*
X026411Y009392D01*
X025918Y009392D01*
X025920Y009384D01*
X025920Y009349D01*
X025220Y009349D01*
X025220Y009349D01*
X025220Y008909D01*
X025514Y008909D01*
X025583Y008920D01*
X025649Y008942D01*
X025710Y008973D01*
X025766Y009014D01*
X025766Y008713D01*
X025740Y008739D01*
X025571Y008809D01*
X024868Y008809D01*
X024699Y008739D01*
X024570Y008610D01*
X024500Y008441D01*
X024500Y008258D01*
X024570Y008089D01*
X024699Y007959D01*
X024868Y007889D01*
X025571Y007889D01*
X025740Y007959D01*
X025864Y008083D01*
X025864Y007615D01*
X025740Y007739D01*
X025571Y007809D01*
X024868Y007809D01*
X024699Y007739D01*
X024570Y007610D01*
X024507Y007458D01*
X023956Y008009D01*
X023878Y008087D01*
X023775Y008130D01*
X022862Y008130D01*
X022887Y008180D01*
X022909Y008246D01*
X022920Y008315D01*
X022920Y008349D01*
X022220Y008349D01*
X022220Y008349D01*
X022920Y008349D01*
X022920Y008384D01*
X022909Y008452D01*
X022887Y008518D01*
X022856Y008580D01*
X022815Y008636D01*
X022766Y008685D01*
X022710Y008726D01*
X022649Y008757D01*
X022583Y008778D01*
X022514Y008789D01*
X022220Y008789D01*
X022220Y008349D01*
X022220Y008349D01*
X021520Y008349D01*
X021520Y008315D01*
X021530Y008246D01*
X021540Y008216D01*
X020347Y009409D01*
X020269Y009487D01*
X020166Y009530D01*
X013089Y009530D01*
X012991Y009628D01*
X012469Y009628D01*
X012352Y009511D01*
X012352Y008989D01*
X012469Y008872D01*
X012991Y008872D01*
X013089Y008970D01*
X019994Y008970D01*
X020474Y008490D01*
X020426Y008510D01*
X017399Y008510D01*
X017301Y008608D01*
X016779Y008608D01*
X016662Y008491D01*
X016662Y007969D01*
X016779Y007852D01*
X017301Y007852D01*
X017399Y007950D01*
X020254Y007950D01*
X021013Y007191D01*
X021092Y007112D01*
X021195Y007069D01*
X021589Y007069D01*
X021699Y006959D01*
X021868Y006889D01*
X022571Y006889D01*
X022740Y006959D01*
X022870Y007089D01*
X022940Y007258D01*
X022940Y007441D01*
X022886Y007570D01*
X023603Y007570D01*
X024568Y006605D01*
X024500Y006441D01*
X024500Y006258D01*
X024570Y006089D01*
X024699Y005959D01*
X024868Y005889D01*
X025364Y005889D01*
X025284Y005809D01*
X024868Y005809D01*
X024699Y005739D01*
X024570Y005610D01*
X024500Y005441D01*
X024500Y005258D01*
X024570Y005089D01*
X024699Y004959D01*
X024868Y004889D01*
X025571Y004889D01*
X025740Y004959D01*
X025870Y005089D01*
X025940Y005258D01*
X025940Y005441D01*
X025872Y005605D01*
X026303Y006037D01*
X026382Y006115D01*
X026424Y006218D01*
X026424Y008462D01*
X026522Y008560D01*
X026522Y009082D01*
X026405Y009200D01*
X025894Y009200D01*
X025909Y009246D01*
X025920Y009315D01*
X025920Y009349D01*
X025220Y009349D01*
X025220Y009349D01*
X025220Y008909D01*
X024925Y008909D01*
X024857Y008920D01*
X024791Y008942D01*
X024729Y008973D01*
X024673Y009014D01*
X024624Y009063D01*
X024583Y009119D01*
X024552Y009180D01*
X024530Y009246D01*
X024520Y009315D01*
X024520Y009349D01*
X025220Y009349D01*
X027585Y009349D01*
X027584Y009350D01*
X025240Y009350D01*
X025220Y009349D02*
X025220Y009349D01*
X025220Y009789D01*
X025514Y009789D01*
X025583Y009778D01*
X025649Y009757D01*
X025710Y009726D01*
X025766Y009685D01*
X025772Y009679D01*
X025772Y009991D01*
X025740Y009959D01*
X025571Y009889D01*
X024868Y009889D01*
X024699Y009959D01*
X024570Y010089D01*
X024500Y010258D01*
X024500Y010441D01*
X024562Y010592D01*
X024511Y010613D01*
X023371Y011753D01*
X023293Y011831D01*
X023250Y011934D01*
X023250Y015084D01*
X022940Y015394D01*
X022940Y015258D01*
X022870Y015089D01*
X022740Y014959D01*
X022571Y014889D01*
X021868Y014889D01*
X021699Y014959D01*
X021570Y015089D01*
X021500Y015258D01*
X021500Y015441D01*
X021570Y015610D01*
X021699Y015739D01*
X021868Y015809D01*
X022525Y015809D01*
X021131Y017203D01*
X013511Y017203D01*
X013413Y017105D01*
X012891Y017105D01*
X012774Y017222D01*
X012774Y017744D01*
X012891Y017861D01*
X013413Y017861D01*
X013511Y017763D01*
X021303Y017763D01*
X021406Y017720D01*
X023630Y015496D01*
X023630Y016574D01*
X023163Y017041D01*
X023085Y017119D01*
X023042Y017222D01*
X023042Y018019D01*
X022999Y018037D01*
X022839Y018197D01*
X022810Y018267D01*
X022792Y018232D01*
X022742Y018162D01*
X022680Y018101D01*
X022610Y018050D01*
X022533Y018011D01*
X022451Y017984D01*
X022365Y017970D01*
X022342Y017970D01*
X022342Y018500D01*
X022302Y018500D01*
X022302Y017970D01*
X022279Y017970D01*
X022193Y017984D01*
X022111Y018011D01*
X022034Y018050D01*
X021964Y018101D01*
X021903Y018162D01*
X021852Y018232D01*
X021812Y018309D01*
X021786Y018391D01*
X021772Y018477D01*
X021772Y018500D01*
X022302Y018500D01*
X022302Y018540D01*
X021772Y018540D01*
X021772Y018564D01*
X021786Y018649D01*
X021812Y018731D01*
X021852Y018808D01*
X021903Y018879D01*
X021964Y018940D01*
X022034Y018991D01*
X022111Y019030D01*
X022193Y019057D01*
X022279Y019070D01*
X022302Y019070D01*
X022302Y018540D01*
X022342Y018540D01*
X022342Y019070D01*
X022365Y019070D01*
X022451Y019057D01*
X022533Y019030D01*
X022610Y018991D01*
X022680Y018940D01*
X022742Y018879D01*
X022792Y018808D01*
X022810Y018774D01*
X022839Y018843D01*
X022999Y019003D01*
X023209Y019090D01*
X023435Y019090D01*
X023645Y019003D01*
X023805Y018843D01*
X023822Y018803D01*
X023839Y018843D01*
X023999Y019003D01*
X024209Y019090D01*
X024435Y019090D01*
X024645Y019003D01*
X024805Y018843D01*
X024822Y018803D01*
X024839Y018843D01*
X024999Y019003D01*
X025209Y019090D01*
X025435Y019090D01*
X025645Y019003D01*
X025805Y018843D01*
X025892Y018634D01*
X025892Y018407D01*
X025871Y018355D01*
X026066Y018160D01*
X026134Y018160D01*
X026134Y018281D01*
X026251Y018398D01*
X027125Y018398D01*
X027203Y018319D01*
X027443Y018559D01*
X027443Y018629D01*
X027529Y018838D01*
X027690Y018998D01*
X027554Y018863D02*
X027222Y018863D01*
X027222Y018908D02*
X026765Y018908D01*
X026765Y018490D01*
X027066Y018490D01*
X027112Y018502D01*
X027153Y018526D01*
X027186Y018560D01*
X027210Y018601D01*
X027222Y018646D01*
X027222Y018908D01*
X027222Y019063D02*
X027222Y019324D01*
X027210Y019370D01*
X027186Y019411D01*
X027153Y019444D01*
X027140Y019451D01*
X035199Y019451D01*
X035199Y017483D01*
X037168Y017483D01*
X037168Y002916D01*
X035199Y002916D01*
X035199Y000554D01*
X002916Y000554D01*
X002916Y002522D01*
X000554Y002522D01*
X000554Y017089D01*
X002916Y017089D01*
X002916Y019451D01*
X026236Y019451D01*
X026223Y019444D01*
X026190Y019411D01*
X026166Y019370D01*
X026154Y019324D01*
X026154Y019063D01*
X026610Y019063D01*
X026610Y018908D01*
X026154Y018908D01*
X026154Y018646D01*
X026166Y018601D01*
X026190Y018560D01*
X026223Y018526D01*
X026264Y018502D01*
X026310Y018490D01*
X026610Y018490D01*
X026610Y018908D01*
X026765Y018908D01*
X026765Y019063D01*
X027222Y019063D01*
X027222Y019180D02*
X035199Y019180D01*
X035199Y019022D02*
X031230Y019022D01*
X031033Y019022D02*
X030993Y019022D01*
X030993Y018863D02*
X031033Y018863D01*
X031033Y018705D02*
X030993Y018705D01*
X030993Y018546D02*
X031033Y018546D01*
X031020Y018523D02*
X031020Y019180D01*
X030795Y019022D02*
X030280Y019022D01*
X030471Y018863D02*
X030585Y018863D01*
X031013Y018515D02*
X031020Y018523D01*
X031033Y018388D02*
X030993Y018388D01*
X030993Y018229D02*
X031033Y018229D01*
X031033Y018071D02*
X030993Y018071D01*
X030689Y018071D02*
X030374Y018071D01*
X030511Y018229D02*
X030541Y018229D01*
X029651Y018071D02*
X029374Y018071D01*
X029511Y018229D02*
X029514Y018229D01*
X029068Y017912D02*
X035199Y017912D01*
X035199Y017754D02*
X029227Y017754D01*
X029385Y017595D02*
X035199Y017595D01*
X035199Y018071D02*
X031336Y018071D01*
X031484Y018229D02*
X035199Y018229D01*
X035199Y018388D02*
X031549Y018388D01*
X031563Y018546D02*
X035199Y018546D01*
X035199Y018705D02*
X031529Y018705D01*
X031440Y018863D02*
X035199Y018863D01*
X035199Y019339D02*
X027218Y019339D01*
X026765Y018863D02*
X026610Y018863D01*
X026610Y018705D02*
X026765Y018705D01*
X026765Y018546D02*
X026610Y018546D01*
X026241Y018388D02*
X025884Y018388D01*
X025892Y018546D02*
X026203Y018546D01*
X026154Y018705D02*
X025863Y018705D01*
X025785Y018863D02*
X026154Y018863D01*
X026154Y019180D02*
X016108Y019180D01*
X016070Y019218D02*
X016187Y019101D01*
X016187Y018944D01*
X017124Y018944D01*
X017222Y019042D01*
X017744Y019042D01*
X017861Y018925D01*
X017861Y018403D01*
X017744Y018286D01*
X017222Y018286D01*
X017124Y018384D01*
X016187Y018384D01*
X016187Y018227D01*
X016070Y018110D01*
X015274Y018110D01*
X015157Y018227D01*
X015157Y019101D01*
X015274Y019218D01*
X016070Y019218D01*
X016187Y019022D02*
X017201Y019022D01*
X017483Y018664D02*
X015672Y018664D01*
X015157Y018705D02*
X015084Y018705D01*
X015084Y018863D02*
X015157Y018863D01*
X015157Y019022D02*
X015084Y019022D01*
X015084Y019101D02*
X014967Y019218D01*
X014172Y019218D01*
X014054Y019101D01*
X014054Y018944D01*
X012210Y018944D01*
X012210Y019022D01*
X012093Y019140D01*
X011455Y019140D01*
X011338Y019022D01*
X011338Y018306D01*
X011455Y018188D01*
X012093Y018188D01*
X012210Y018306D01*
X012210Y018384D01*
X014054Y018384D01*
X014054Y018227D01*
X014172Y018110D01*
X014967Y018110D01*
X015084Y018227D01*
X015084Y019101D01*
X015005Y019180D02*
X015236Y019180D01*
X014569Y018664D02*
X011774Y018664D01*
X011338Y018705D02*
X011009Y018705D01*
X011009Y018702D02*
X011009Y018963D01*
X010997Y019009D01*
X010973Y019050D01*
X010940Y019084D01*
X010899Y019107D01*
X010853Y019120D01*
X010631Y019120D01*
X010631Y018702D01*
X010555Y018702D01*
X010555Y018626D01*
X010177Y018626D01*
X010177Y018365D01*
X010189Y018319D01*
X010213Y018278D01*
X010246Y018244D01*
X010287Y018221D01*
X010333Y018208D01*
X010555Y018208D01*
X010555Y018626D01*
X010631Y018626D01*
X010631Y018208D01*
X010853Y018208D01*
X010899Y018221D01*
X010940Y018244D01*
X010973Y018278D01*
X010997Y018319D01*
X011009Y018365D01*
X011009Y018626D01*
X010631Y018626D01*
X010631Y018702D01*
X011009Y018702D01*
X011009Y018546D02*
X011338Y018546D01*
X011338Y018388D02*
X011009Y018388D01*
X010913Y018229D02*
X011414Y018229D01*
X010790Y018467D02*
X010593Y018664D01*
X010555Y018702D02*
X010177Y018702D01*
X010177Y018963D01*
X010189Y019009D01*
X010213Y019050D01*
X010246Y019084D01*
X010287Y019107D01*
X010333Y019120D01*
X010555Y019120D01*
X010555Y018702D01*
X010555Y018705D02*
X010631Y018705D01*
X010631Y018863D02*
X010555Y018863D01*
X010555Y019022D02*
X010631Y019022D01*
X010990Y019022D02*
X011338Y019022D01*
X011338Y018863D02*
X011009Y018863D01*
X010790Y018467D02*
X010790Y015908D01*
X013968Y012730D01*
X014400Y012730D01*
X010774Y013679D02*
X010657Y013561D01*
X010135Y013561D01*
X010018Y013679D01*
X010018Y013922D01*
X009227Y014713D01*
X002982Y014713D01*
X002981Y014709D01*
X002840Y014569D01*
X002656Y014493D01*
X002457Y014493D01*
X002274Y014569D01*
X002133Y014709D01*
X002057Y014893D01*
X002057Y015092D01*
X002133Y015276D01*
X002274Y015416D01*
X002457Y015493D01*
X002656Y015493D01*
X002840Y015416D01*
X002981Y015276D01*
X002982Y015273D01*
X009399Y015273D01*
X009502Y015230D01*
X010414Y014318D01*
X010657Y014318D01*
X010774Y014200D01*
X010774Y013679D01*
X010728Y013633D02*
X021592Y013633D01*
X021570Y013610D02*
X021500Y013441D01*
X021500Y013336D01*
X019521Y011357D01*
X019443Y011279D01*
X019400Y011176D01*
X019400Y010379D01*
X019292Y010271D01*
X019292Y009749D01*
X019409Y009632D01*
X019931Y009632D01*
X020000Y009701D01*
X020079Y009622D01*
X020601Y009622D01*
X020677Y009698D01*
X020755Y009621D01*
X021277Y009621D01*
X021394Y009738D01*
X021394Y010260D01*
X021340Y010314D01*
X021523Y010497D01*
X021500Y010441D01*
X021500Y010258D01*
X021570Y010089D01*
X021699Y009959D01*
X021868Y009889D01*
X022571Y009889D01*
X022740Y009959D01*
X022870Y010089D01*
X022940Y010258D01*
X022940Y010441D01*
X022870Y010610D01*
X022740Y010739D01*
X022571Y010809D01*
X021868Y010809D01*
X021812Y010786D01*
X021915Y010889D01*
X022571Y010889D01*
X022740Y010959D01*
X022870Y011089D01*
X022940Y011258D01*
X022940Y011441D01*
X022870Y011610D01*
X022740Y011739D01*
X022571Y011809D01*
X021868Y011809D01*
X021699Y011739D01*
X021570Y011610D01*
X021500Y011441D01*
X021500Y011266D01*
X020831Y010597D01*
X020793Y010561D01*
X020791Y010557D01*
X020789Y010555D01*
X020769Y010507D01*
X020748Y010459D01*
X020748Y010455D01*
X020746Y010452D01*
X020746Y010400D01*
X020745Y010367D01*
X020679Y010300D01*
X020630Y010349D01*
X020630Y010774D01*
X021781Y011925D01*
X021868Y011889D01*
X022571Y011889D01*
X022740Y011959D01*
X022870Y012089D01*
X022940Y012258D01*
X022940Y012441D01*
X022870Y012610D01*
X022740Y012739D01*
X022571Y012809D01*
X021868Y012809D01*
X021699Y012739D01*
X021570Y012610D01*
X021500Y012441D01*
X021500Y012436D01*
X020113Y011049D01*
X020070Y010946D01*
X020070Y010369D01*
X020010Y010309D01*
X019960Y010359D01*
X019960Y011004D01*
X021852Y012896D01*
X021868Y012889D01*
X022571Y012889D01*
X022740Y012959D01*
X022870Y013089D01*
X022940Y013258D01*
X022940Y013441D01*
X022870Y013610D01*
X022740Y013739D01*
X022571Y013809D01*
X021868Y013809D01*
X021699Y013739D01*
X021570Y013610D01*
X021513Y013474D02*
X003903Y013474D01*
X003883Y013460D02*
X003963Y013517D01*
X004032Y013587D01*
X004090Y013666D01*
X004134Y013753D01*
X004164Y013847D01*
X004177Y013925D01*
X003624Y013925D01*
X003624Y013373D01*
X003703Y013385D01*
X003796Y013415D01*
X003883Y013460D01*
X004065Y013633D02*
X010064Y013633D01*
X010018Y013791D02*
X004146Y013791D01*
X003624Y013791D02*
X003489Y013791D01*
X003489Y013925D02*
X003624Y013925D01*
X003624Y014060D01*
X003489Y014060D01*
X003489Y013925D01*
X002937Y013925D01*
X002949Y013847D01*
X002980Y013753D01*
X003024Y013666D01*
X003082Y013587D01*
X003151Y013517D01*
X003230Y013460D01*
X003318Y013415D01*
X003411Y013385D01*
X003489Y013373D01*
X003489Y013925D01*
X003489Y013950D02*
X001624Y013950D01*
X001624Y013925D02*
X001624Y014060D01*
X001489Y014060D01*
X001489Y013925D01*
X000937Y013925D01*
X000949Y013847D01*
X000980Y013753D01*
X001024Y013666D01*
X001082Y013587D01*
X001151Y013517D01*
X001230Y013460D01*
X001318Y013415D01*
X001411Y013385D01*
X001489Y013373D01*
X001489Y013925D01*
X001624Y013925D01*
X001624Y013373D01*
X001703Y013385D01*
X001796Y013415D01*
X001883Y013460D01*
X001963Y013517D01*
X002032Y013587D01*
X002090Y013666D01*
X002134Y013753D01*
X002164Y013847D01*
X002177Y013925D01*
X001624Y013925D01*
X001624Y013791D02*
X001489Y013791D01*
X001489Y013633D02*
X001624Y013633D01*
X001624Y013474D02*
X001489Y013474D01*
X001211Y013474D02*
X000554Y013474D01*
X000554Y013316D02*
X021480Y013316D01*
X021321Y013157D02*
X000554Y013157D01*
X000554Y012999D02*
X021163Y012999D01*
X021004Y012840D02*
X000554Y012840D01*
X000554Y012682D02*
X020846Y012682D01*
X020687Y012523D02*
X000554Y012523D01*
X000554Y012365D02*
X020529Y012365D01*
X020370Y012206D02*
X000554Y012206D01*
X000554Y012048D02*
X020212Y012048D01*
X020053Y011889D02*
X003783Y011889D01*
X003781Y011890D02*
X003613Y011960D01*
X003431Y011960D01*
X003263Y011890D01*
X003134Y011762D01*
X003065Y011594D01*
X003065Y011412D01*
X003134Y011243D01*
X003263Y011115D01*
X003431Y011045D01*
X003613Y011045D01*
X003781Y011115D01*
X003910Y011243D01*
X003980Y011412D01*
X003980Y011594D01*
X003910Y011762D01*
X003781Y011890D01*
X003923Y011731D02*
X019895Y011731D01*
X019736Y011572D02*
X003980Y011572D01*
X003980Y011414D02*
X019578Y011414D01*
X019521Y011357D02*
X019521Y011357D01*
X019433Y011255D02*
X003915Y011255D01*
X003737Y011097D02*
X019400Y011097D01*
X019400Y010938D02*
X000554Y010938D01*
X000554Y010780D02*
X019400Y010780D01*
X019400Y010621D02*
X000554Y010621D01*
X000554Y010463D02*
X019400Y010463D01*
X019325Y010304D02*
X000554Y010304D01*
X000554Y010146D02*
X019292Y010146D01*
X019292Y009987D02*
X000554Y009987D01*
X000554Y009829D02*
X019292Y009829D01*
X019371Y009670D02*
X000554Y009670D01*
X000554Y009512D02*
X012352Y009512D01*
X012352Y009353D02*
X000554Y009353D01*
X000554Y009195D02*
X012352Y009195D01*
X012352Y009036D02*
X000554Y009036D01*
X000554Y008878D02*
X002250Y008878D01*
X002263Y008890D02*
X002134Y008762D01*
X002065Y008594D01*
X002065Y008412D01*
X002134Y008243D01*
X002263Y008115D01*
X002431Y008045D01*
X002613Y008045D01*
X002781Y008115D01*
X002910Y008243D01*
X002980Y008412D01*
X002980Y008594D01*
X002910Y008762D01*
X002781Y008890D01*
X002613Y008960D01*
X002431Y008960D01*
X002263Y008890D01*
X002117Y008719D02*
X000554Y008719D01*
X000554Y008561D02*
X002065Y008561D01*
X002069Y008402D02*
X000554Y008402D01*
X000554Y008244D02*
X002134Y008244D01*
X002335Y008085D02*
X000554Y008085D01*
X000554Y007927D02*
X016704Y007927D01*
X016662Y008085D02*
X003710Y008085D01*
X003781Y008115D02*
X003613Y008045D01*
X003431Y008045D01*
X003263Y008115D01*
X003134Y008243D01*
X003065Y008412D01*
X003065Y008594D01*
X003134Y008762D01*
X003263Y008890D01*
X003431Y008960D01*
X003613Y008960D01*
X003781Y008890D01*
X003910Y008762D01*
X003980Y008594D01*
X003980Y008412D01*
X003910Y008243D01*
X003781Y008115D01*
X003910Y008244D02*
X016662Y008244D01*
X016662Y008402D02*
X003976Y008402D01*
X003980Y008561D02*
X016731Y008561D01*
X017040Y008230D02*
X020370Y008230D01*
X021251Y007349D01*
X022220Y007349D01*
X022571Y006809D02*
X021868Y006809D01*
X021699Y006739D01*
X021570Y006610D01*
X021500Y006441D01*
X021500Y006258D01*
X021570Y006089D01*
X021699Y005959D01*
X021868Y005889D01*
X022571Y005889D01*
X022740Y005959D01*
X022870Y006089D01*
X022940Y006258D01*
X022940Y006441D01*
X022870Y006610D01*
X022740Y006739D01*
X022571Y006809D01*
X022756Y006976D02*
X024197Y006976D01*
X024039Y007134D02*
X022888Y007134D01*
X022940Y007293D02*
X023880Y007293D01*
X023722Y007451D02*
X022935Y007451D01*
X023719Y007850D02*
X021510Y007850D01*
X020110Y009250D01*
X012730Y009250D01*
X012463Y008878D02*
X003794Y008878D01*
X003928Y008719D02*
X020245Y008719D01*
X020404Y008561D02*
X017349Y008561D01*
X017376Y007927D02*
X020278Y007927D01*
X020436Y007768D02*
X000554Y007768D01*
X000554Y007610D02*
X020595Y007610D01*
X020753Y007451D02*
X000554Y007451D01*
X000554Y007293D02*
X020912Y007293D01*
X021070Y007134D02*
X000554Y007134D01*
X000554Y006976D02*
X021683Y006976D01*
X021618Y006659D02*
X000554Y006659D01*
X000554Y006817D02*
X024356Y006817D01*
X024514Y006659D02*
X022821Y006659D01*
X022915Y006500D02*
X024524Y006500D01*
X024500Y006342D02*
X022940Y006342D01*
X022909Y006183D02*
X024531Y006183D01*
X024634Y006025D02*
X022805Y006025D01*
X022740Y005739D02*
X022571Y005809D01*
X021868Y005809D01*
X021699Y005739D01*
X021570Y005610D01*
X021500Y005441D01*
X021500Y005258D01*
X021570Y005089D01*
X021699Y004959D01*
X021868Y004889D01*
X022571Y004889D01*
X022740Y004959D01*
X022870Y005089D01*
X022940Y005258D01*
X022940Y005441D01*
X022870Y005610D01*
X022740Y005739D01*
X022772Y005708D02*
X024667Y005708D01*
X024544Y005549D02*
X022895Y005549D01*
X022940Y005391D02*
X024500Y005391D01*
X024510Y005232D02*
X022929Y005232D01*
X022854Y005074D02*
X024585Y005074D01*
X024806Y004915D02*
X022633Y004915D01*
X022571Y004809D02*
X022740Y004739D01*
X022870Y004610D01*
X022940Y004441D01*
X022940Y004258D01*
X022870Y004089D01*
X022740Y003959D01*
X022571Y003889D01*
X021868Y003889D01*
X021699Y003959D01*
X021618Y004040D01*
X019945Y004040D01*
X020084Y003960D01*
X020275Y003768D01*
X020411Y003533D01*
X020481Y003271D01*
X020481Y003000D01*
X020411Y002738D01*
X020275Y002504D01*
X020084Y002312D01*
X019849Y002176D01*
X019587Y002106D01*
X019316Y002106D01*
X019054Y002176D01*
X018819Y002312D01*
X018627Y002504D01*
X018492Y002738D01*
X018421Y003000D01*
X018421Y003271D01*
X018492Y003533D01*
X018627Y003768D01*
X018819Y003960D01*
X018957Y004040D01*
X018076Y004040D01*
X016187Y002151D01*
X016187Y001691D01*
X016070Y001574D01*
X015274Y001574D01*
X015157Y001691D01*
X015157Y002566D01*
X015274Y002683D01*
X015927Y002683D01*
X017801Y004557D01*
X017904Y004600D01*
X021566Y004600D01*
X021570Y004610D01*
X021699Y004739D01*
X021868Y004809D01*
X022571Y004809D01*
X022699Y004757D02*
X024741Y004757D01*
X024699Y004739D02*
X024570Y004610D01*
X024500Y004441D01*
X024500Y004258D01*
X024570Y004089D01*
X024699Y003959D01*
X024868Y003889D01*
X025571Y003889D01*
X025740Y003959D01*
X025870Y004089D01*
X025940Y004258D01*
X025940Y004284D01*
X027835Y006179D01*
X031554Y006179D01*
X031657Y006222D01*
X031736Y006301D01*
X035586Y010151D01*
X035586Y010004D01*
X035604Y009961D01*
X031595Y005952D01*
X028057Y005952D01*
X027954Y005909D01*
X025762Y003717D01*
X025740Y003739D01*
X025571Y003809D01*
X024868Y003809D01*
X024699Y003739D01*
X024570Y003610D01*
X024500Y003441D01*
X024500Y003258D01*
X024570Y003089D01*
X024699Y002959D01*
X024868Y002889D01*
X025571Y002889D01*
X025740Y002959D01*
X025813Y003033D01*
X025909Y003072D01*
X025988Y003151D01*
X028229Y005392D01*
X031767Y005392D01*
X031869Y005434D01*
X031948Y005513D01*
X035586Y009151D01*
X035586Y009004D01*
X035673Y008794D01*
X035833Y008634D01*
X035903Y008605D01*
X035868Y008588D01*
X035798Y008537D01*
X035737Y008476D01*
X035686Y008406D01*
X035647Y008328D01*
X035620Y008246D01*
X035606Y008161D01*
X035606Y008137D01*
X036136Y008137D01*
X036136Y008097D01*
X035606Y008097D01*
X035606Y008074D01*
X035620Y007989D01*
X035647Y007906D01*
X035686Y007829D01*
X035737Y007759D01*
X035798Y007698D01*
X035868Y007647D01*
X035903Y007629D01*
X035833Y007601D01*
X035673Y007440D01*
X035586Y007231D01*
X035586Y007004D01*
X035673Y006794D01*
X035833Y006634D01*
X036043Y006547D01*
X036270Y006547D01*
X036479Y006634D01*
X036640Y006794D01*
X036726Y007004D01*
X036726Y007231D01*
X036640Y007440D01*
X036479Y007601D01*
X036410Y007629D01*
X036445Y007647D01*
X036515Y007698D01*
X036576Y007759D01*
X036627Y007829D01*
X036666Y007906D01*
X036693Y007989D01*
X036706Y008074D01*
X036706Y008097D01*
X036176Y008097D01*
X036176Y008137D01*
X036706Y008137D01*
X036706Y008161D01*
X036693Y008246D01*
X036666Y008328D01*
X036627Y008406D01*
X036576Y008476D01*
X036515Y008537D01*
X036445Y008588D01*
X036410Y008605D01*
X036479Y008634D01*
X036640Y008794D01*
X036726Y009004D01*
X036726Y009231D01*
X036640Y009440D01*
X036479Y009601D01*
X036439Y009617D01*
X036479Y009634D01*
X036640Y009794D01*
X036726Y010004D01*
X036726Y010231D01*
X036640Y010440D01*
X036479Y010601D01*
X036439Y010617D01*
X036479Y010634D01*
X036640Y010794D01*
X036726Y011004D01*
X036726Y011231D01*
X036640Y011440D01*
X036479Y011601D01*
X036439Y011617D01*
X036479Y011634D01*
X036640Y011794D01*
X036726Y012004D01*
X036726Y012231D01*
X036640Y012440D01*
X036479Y012601D01*
X036270Y012687D01*
X036043Y012687D01*
X035833Y012601D01*
X035673Y012440D01*
X035586Y012231D01*
X035586Y012004D01*
X035673Y011794D01*
X035833Y011634D01*
X035874Y011617D01*
X035833Y011601D01*
X035673Y011440D01*
X035586Y011231D01*
X035586Y011004D01*
X035604Y010961D01*
X031382Y006739D01*
X027663Y006739D01*
X027560Y006697D01*
X025643Y004779D01*
X025571Y004809D01*
X024868Y004809D01*
X024699Y004739D01*
X024565Y004598D02*
X022874Y004598D01*
X022940Y004440D02*
X024500Y004440D01*
X024500Y004281D02*
X022940Y004281D01*
X022884Y004123D02*
X024556Y004123D01*
X024694Y003964D02*
X022745Y003964D01*
X022740Y003739D02*
X022571Y003809D01*
X021868Y003809D01*
X021699Y003739D01*
X021570Y003610D01*
X021500Y003441D01*
X021500Y003258D01*
X021570Y003089D01*
X021699Y002959D01*
X021868Y002889D01*
X022571Y002889D01*
X022740Y002959D01*
X022870Y003089D01*
X022940Y003258D01*
X022940Y003441D01*
X022870Y003610D01*
X022740Y003739D01*
X022832Y003647D02*
X024607Y003647D01*
X024519Y003489D02*
X022920Y003489D01*
X022940Y003330D02*
X024500Y003330D01*
X024535Y003172D02*
X022904Y003172D01*
X022794Y003013D02*
X024645Y003013D01*
X024699Y002739D02*
X024868Y002809D01*
X025571Y002809D01*
X025740Y002739D01*
X025870Y002610D01*
X025940Y002441D01*
X025940Y002258D01*
X025870Y002089D01*
X025740Y001959D01*
X025571Y001889D01*
X024868Y001889D01*
X024699Y001959D01*
X024570Y002089D01*
X024500Y002258D01*
X024500Y002441D01*
X024570Y002610D01*
X024699Y002739D01*
X024656Y002696D02*
X022783Y002696D01*
X022740Y002739D02*
X022571Y002809D01*
X021868Y002809D01*
X021699Y002739D01*
X021570Y002610D01*
X021500Y002441D01*
X021500Y002258D01*
X021570Y002089D01*
X021699Y001959D01*
X021868Y001889D01*
X022571Y001889D01*
X022740Y001959D01*
X022870Y002089D01*
X022940Y002258D01*
X022940Y002441D01*
X022870Y002610D01*
X022740Y002739D01*
X022900Y002538D02*
X024540Y002538D01*
X024500Y002379D02*
X022940Y002379D01*
X022924Y002221D02*
X024515Y002221D01*
X024596Y002062D02*
X022843Y002062D01*
X022605Y001904D02*
X024834Y001904D01*
X025605Y001904D02*
X035199Y001904D01*
X035199Y002062D02*
X025843Y002062D01*
X025924Y002221D02*
X027045Y002221D01*
X027122Y002176D02*
X026887Y002312D01*
X026695Y002504D01*
X026559Y002738D01*
X026489Y003000D01*
X026489Y003271D01*
X026559Y003533D01*
X026695Y003768D01*
X026887Y003960D01*
X027122Y004096D01*
X027383Y004166D01*
X027655Y004166D01*
X027917Y004096D01*
X028151Y003960D01*
X028343Y003768D01*
X028479Y003533D01*
X028549Y003271D01*
X028549Y003000D01*
X028479Y002738D01*
X028343Y002504D01*
X028151Y002312D01*
X027917Y002176D01*
X027655Y002106D01*
X027383Y002106D01*
X027122Y002176D01*
X026819Y002379D02*
X025940Y002379D01*
X025900Y002538D02*
X026675Y002538D01*
X026584Y002696D02*
X025783Y002696D01*
X025794Y003013D02*
X026489Y003013D01*
X026489Y003172D02*
X026008Y003172D01*
X026167Y003330D02*
X026505Y003330D01*
X026547Y003489D02*
X026325Y003489D01*
X026484Y003647D02*
X026625Y003647D01*
X026642Y003806D02*
X026732Y003806D01*
X026801Y003964D02*
X026894Y003964D01*
X026959Y004123D02*
X027222Y004123D01*
X027118Y004281D02*
X037168Y004281D01*
X037168Y004123D02*
X027816Y004123D01*
X028145Y003964D02*
X037168Y003964D01*
X037168Y003806D02*
X028306Y003806D01*
X028413Y003647D02*
X037168Y003647D01*
X037168Y003489D02*
X028491Y003489D01*
X028533Y003330D02*
X037168Y003330D01*
X037168Y003172D02*
X028549Y003172D01*
X028549Y003013D02*
X037168Y003013D01*
X035199Y002855D02*
X028510Y002855D01*
X028454Y002696D02*
X035199Y002696D01*
X035199Y002538D02*
X028363Y002538D01*
X028219Y002379D02*
X035199Y002379D01*
X035199Y002221D02*
X027993Y002221D01*
X026528Y002855D02*
X020442Y002855D01*
X020481Y003013D02*
X021645Y003013D01*
X021535Y003172D02*
X020481Y003172D01*
X020466Y003330D02*
X021500Y003330D01*
X021519Y003489D02*
X020423Y003489D01*
X020346Y003647D02*
X021607Y003647D01*
X021859Y003806D02*
X020238Y003806D01*
X020077Y003964D02*
X021694Y003964D01*
X022190Y004320D02*
X017960Y004320D01*
X015769Y002129D01*
X015672Y002129D01*
X016187Y002062D02*
X021596Y002062D01*
X021515Y002221D02*
X019926Y002221D01*
X020151Y002379D02*
X021500Y002379D01*
X021540Y002538D02*
X020295Y002538D01*
X020387Y002696D02*
X021656Y002696D01*
X021834Y001904D02*
X016187Y001904D01*
X016187Y001745D02*
X035199Y001745D01*
X035199Y001587D02*
X016082Y001587D01*
X015262Y001587D02*
X014980Y001587D01*
X014967Y001574D02*
X015084Y001691D01*
X015084Y002566D01*
X014967Y002683D01*
X014172Y002683D01*
X014054Y002566D01*
X014054Y002409D01*
X013391Y002409D01*
X013391Y002487D01*
X013274Y002604D01*
X012636Y002604D01*
X012519Y002487D01*
X012519Y001770D01*
X012636Y001653D01*
X013274Y001653D01*
X013391Y001770D01*
X013391Y001849D01*
X014054Y001849D01*
X014054Y001691D01*
X014172Y001574D01*
X014967Y001574D01*
X015084Y001745D02*
X015157Y001745D01*
X015157Y001904D02*
X015084Y001904D01*
X015084Y002062D02*
X015157Y002062D01*
X015157Y002221D02*
X015084Y002221D01*
X015084Y002379D02*
X015157Y002379D01*
X015157Y002538D02*
X015084Y002538D01*
X014569Y002129D02*
X012955Y002129D01*
X012519Y002062D02*
X012190Y002062D01*
X012190Y002090D02*
X011812Y002090D01*
X011812Y001673D01*
X012034Y001673D01*
X012080Y001685D01*
X012121Y001709D01*
X012154Y001742D01*
X012178Y001783D01*
X012190Y001829D01*
X012190Y002090D01*
X012190Y002167D02*
X012190Y002428D01*
X012178Y002474D01*
X012154Y002515D01*
X012121Y002548D01*
X012080Y002572D01*
X012034Y002584D01*
X011812Y002584D01*
X011812Y002167D01*
X011736Y002167D01*
X011736Y002584D01*
X011514Y002584D01*
X011468Y002572D01*
X011427Y002548D01*
X011394Y002515D01*
X011370Y002474D01*
X011358Y002428D01*
X011358Y002167D01*
X011736Y002167D01*
X011736Y002090D01*
X011812Y002090D01*
X011812Y002167D01*
X012190Y002167D01*
X012190Y002221D02*
X012519Y002221D01*
X012519Y002379D02*
X012190Y002379D01*
X012132Y002538D02*
X012570Y002538D01*
X011812Y002538D02*
X011736Y002538D01*
X011736Y002379D02*
X011812Y002379D01*
X011812Y002221D02*
X011736Y002221D01*
X011774Y002129D02*
X014256Y004610D01*
X014270Y004610D01*
X013418Y004619D02*
X013418Y005141D01*
X013301Y005258D01*
X012779Y005258D01*
X012685Y005164D01*
X002947Y005164D01*
X002946Y005168D01*
X002805Y005308D01*
X002622Y005384D01*
X002423Y005384D01*
X002239Y005308D01*
X002098Y005168D01*
X002022Y004984D01*
X002022Y004785D01*
X002098Y004601D01*
X002239Y004461D01*
X002423Y004384D01*
X002622Y004384D01*
X002805Y004461D01*
X002946Y004601D01*
X002947Y004604D01*
X006325Y004604D01*
X006242Y004521D01*
X006242Y004273D01*
X005733Y003765D01*
X005335Y003765D01*
X005218Y003648D01*
X005218Y002931D01*
X005335Y002814D01*
X005973Y002814D01*
X006090Y002931D01*
X006090Y003329D01*
X006399Y003638D01*
X006399Y002931D01*
X006516Y002814D01*
X006549Y002814D01*
X006546Y002550D01*
X006546Y002548D01*
X006546Y002494D01*
X006545Y002440D01*
X006546Y002438D01*
X006546Y001882D01*
X006428Y001882D01*
X006311Y001765D01*
X006311Y000891D01*
X006428Y000774D01*
X007223Y000774D01*
X007340Y000891D01*
X007340Y001765D01*
X007223Y001882D01*
X007106Y001882D01*
X007106Y002491D01*
X007109Y002814D01*
X007154Y002814D01*
X007271Y002931D01*
X007271Y003648D01*
X007154Y003765D01*
X006525Y003765D01*
X006642Y003882D01*
X006881Y003882D01*
X006998Y003999D01*
X006998Y004521D01*
X006915Y004604D01*
X012677Y004604D01*
X012779Y004502D01*
X013301Y004502D01*
X013418Y004619D01*
X013397Y004598D02*
X017899Y004598D01*
X017684Y004440D02*
X006998Y004440D01*
X006998Y004281D02*
X017525Y004281D01*
X017367Y004123D02*
X006998Y004123D01*
X006963Y003964D02*
X017208Y003964D01*
X017050Y003806D02*
X006566Y003806D01*
X006091Y004123D02*
X004100Y004123D01*
X004099Y004124D02*
X004055Y004211D01*
X003997Y004290D01*
X003928Y004360D01*
X003849Y004417D01*
X003761Y004462D01*
X003668Y004492D01*
X003590Y004504D01*
X003590Y003952D01*
X004142Y003952D01*
X004130Y004030D01*
X004099Y004124D01*
X004140Y003964D02*
X005933Y003964D01*
X005774Y003806D02*
X004140Y003806D01*
X004142Y003817D02*
X003590Y003817D01*
X003590Y003952D01*
X003455Y003952D01*
X003455Y004504D01*
X003376Y004492D01*
X003283Y004462D01*
X003196Y004417D01*
X003116Y004360D01*
X003047Y004290D01*
X002989Y004211D01*
X002945Y004124D01*
X002915Y004030D01*
X002902Y003952D01*
X003455Y003952D01*
X003455Y003817D01*
X003590Y003817D01*
X003590Y003264D01*
X003668Y003277D01*
X003761Y003307D01*
X003849Y003352D01*
X003928Y003409D01*
X003997Y003479D01*
X004055Y003558D01*
X004099Y003645D01*
X004130Y003739D01*
X004142Y003817D01*
X004100Y003647D02*
X005218Y003647D01*
X005218Y003489D02*
X004005Y003489D01*
X003806Y003330D02*
X005218Y003330D01*
X005218Y003172D02*
X000554Y003172D01*
X000554Y003330D02*
X001238Y003330D01*
X001196Y003352D02*
X001283Y003307D01*
X001376Y003277D01*
X001455Y003264D01*
X001455Y003817D01*
X001590Y003817D01*
X001590Y003952D01*
X002142Y003952D01*
X002130Y004030D01*
X002099Y004124D01*
X002055Y004211D01*
X001997Y004290D01*
X001928Y004360D01*
X001849Y004417D01*
X001761Y004462D01*
X001668Y004492D01*
X001590Y004504D01*
X001590Y003952D01*
X001455Y003952D01*
X001455Y004504D01*
X001376Y004492D01*
X001283Y004462D01*
X001196Y004417D01*
X001116Y004360D01*
X001047Y004290D01*
X000989Y004211D01*
X000945Y004124D01*
X000915Y004030D01*
X000902Y003952D01*
X001455Y003952D01*
X001455Y003817D01*
X000902Y003817D01*
X000915Y003739D01*
X000945Y003645D01*
X000989Y003558D01*
X001047Y003479D01*
X001116Y003409D01*
X001196Y003352D01*
X001040Y003489D02*
X000554Y003489D01*
X000554Y003647D02*
X000944Y003647D01*
X000904Y003806D02*
X000554Y003806D01*
X000554Y003964D02*
X000904Y003964D01*
X000945Y004123D02*
X000554Y004123D01*
X000554Y004281D02*
X001040Y004281D01*
X001240Y004440D02*
X000554Y004440D01*
X000554Y004598D02*
X002101Y004598D01*
X002034Y004757D02*
X000554Y004757D01*
X000554Y004915D02*
X002022Y004915D01*
X002059Y005074D02*
X000554Y005074D01*
X000554Y005232D02*
X002163Y005232D01*
X001928Y005409D02*
X001997Y005479D01*
X002055Y005558D01*
X002099Y005645D01*
X002130Y005739D01*
X002142Y005817D01*
X001590Y005817D01*
X001590Y005952D01*
X002142Y005952D01*
X002130Y006030D01*
X002099Y006124D01*
X002055Y006211D01*
X001997Y006290D01*
X001928Y006360D01*
X001849Y006417D01*
X001761Y006462D01*
X001668Y006492D01*
X001590Y006504D01*
X001590Y005952D01*
X001455Y005952D01*
X001455Y006504D01*
X001376Y006492D01*
X001283Y006462D01*
X001196Y006417D01*
X001116Y006360D01*
X001047Y006290D01*
X000989Y006211D01*
X000945Y006124D01*
X000915Y006030D01*
X000902Y005952D01*
X001455Y005952D01*
X001455Y005817D01*
X001590Y005817D01*
X001590Y005264D01*
X001668Y005277D01*
X001761Y005307D01*
X001849Y005352D01*
X001928Y005409D01*
X001902Y005391D02*
X003142Y005391D01*
X003116Y005409D02*
X003196Y005352D01*
X003283Y005307D01*
X003376Y005277D01*
X003455Y005264D01*
X003455Y005817D01*
X003590Y005817D01*
X003590Y005952D01*
X004142Y005952D01*
X004130Y006030D01*
X004099Y006124D01*
X004055Y006211D01*
X003997Y006290D01*
X003928Y006360D01*
X003849Y006417D01*
X003761Y006462D01*
X003668Y006492D01*
X003590Y006504D01*
X003590Y005952D01*
X003455Y005952D01*
X003455Y006504D01*
X003376Y006492D01*
X003283Y006462D01*
X003196Y006417D01*
X003116Y006360D01*
X003047Y006290D01*
X002989Y006211D01*
X002945Y006124D01*
X002915Y006030D01*
X002902Y005952D01*
X003455Y005952D01*
X003455Y005817D01*
X002902Y005817D01*
X002915Y005739D01*
X002945Y005645D01*
X002989Y005558D01*
X003047Y005479D01*
X003116Y005409D01*
X002996Y005549D02*
X002048Y005549D01*
X002120Y005708D02*
X002925Y005708D01*
X002914Y006025D02*
X002131Y006025D01*
X002069Y006183D02*
X002975Y006183D01*
X003098Y006342D02*
X001946Y006342D01*
X001590Y006342D02*
X001455Y006342D01*
X001455Y006500D02*
X001590Y006500D01*
X001617Y006500D02*
X003427Y006500D01*
X003455Y006500D02*
X003590Y006500D01*
X003617Y006500D02*
X021524Y006500D01*
X021500Y006342D02*
X003946Y006342D01*
X004069Y006183D02*
X021531Y006183D01*
X021634Y006025D02*
X004131Y006025D01*
X004142Y005817D02*
X003590Y005817D01*
X003590Y005264D01*
X003668Y005277D01*
X003761Y005307D01*
X003849Y005352D01*
X003928Y005409D01*
X003997Y005479D01*
X004055Y005558D01*
X004099Y005645D01*
X004130Y005739D01*
X004142Y005817D01*
X004120Y005708D02*
X021667Y005708D01*
X021544Y005549D02*
X004048Y005549D01*
X003902Y005391D02*
X021500Y005391D01*
X021510Y005232D02*
X013327Y005232D01*
X013418Y005074D02*
X021585Y005074D01*
X021806Y004915D02*
X013418Y004915D01*
X013418Y004757D02*
X021741Y004757D01*
X022190Y004320D02*
X022220Y004349D01*
X022580Y003806D02*
X024859Y003806D01*
X025220Y004349D02*
X025609Y004349D01*
X027719Y006459D01*
X031498Y006459D01*
X036156Y011117D01*
X035586Y011097D02*
X031189Y011097D01*
X031189Y011255D02*
X035596Y011255D01*
X035662Y011414D02*
X031189Y011414D01*
X031189Y011572D02*
X035805Y011572D01*
X035737Y011731D02*
X031189Y011731D01*
X031189Y011889D02*
X035634Y011889D01*
X035586Y012048D02*
X031189Y012048D01*
X031189Y012206D02*
X035586Y012206D01*
X035642Y012365D02*
X031189Y012365D01*
X031189Y012523D02*
X035756Y012523D01*
X036029Y012682D02*
X031189Y012682D01*
X031189Y012840D02*
X037168Y012840D01*
X037168Y012682D02*
X036284Y012682D01*
X036557Y012523D02*
X037168Y012523D01*
X037168Y012365D02*
X036671Y012365D01*
X036726Y012206D02*
X037168Y012206D01*
X037168Y012048D02*
X036726Y012048D01*
X036679Y011889D02*
X037168Y011889D01*
X037168Y011731D02*
X036576Y011731D01*
X036508Y011572D02*
X037168Y011572D01*
X037168Y011414D02*
X036651Y011414D01*
X036716Y011255D02*
X037168Y011255D01*
X037168Y011097D02*
X036726Y011097D01*
X036699Y010938D02*
X037168Y010938D01*
X037168Y010780D02*
X036625Y010780D01*
X036448Y010621D02*
X037168Y010621D01*
X037168Y010463D02*
X036617Y010463D01*
X036696Y010304D02*
X037168Y010304D01*
X037168Y010146D02*
X036726Y010146D01*
X036719Y009987D02*
X037168Y009987D01*
X037168Y009829D02*
X036654Y009829D01*
X036515Y009670D02*
X037168Y009670D01*
X037168Y009512D02*
X036568Y009512D01*
X036676Y009353D02*
X037168Y009353D01*
X037168Y009195D02*
X036726Y009195D01*
X036726Y009036D02*
X037168Y009036D01*
X037168Y008878D02*
X036674Y008878D01*
X036564Y008719D02*
X037168Y008719D01*
X037168Y008561D02*
X036482Y008561D01*
X036629Y008402D02*
X037168Y008402D01*
X037168Y008244D02*
X036693Y008244D01*
X036706Y008085D02*
X037168Y008085D01*
X037168Y007927D02*
X036673Y007927D01*
X036582Y007768D02*
X037168Y007768D01*
X037168Y007610D02*
X036458Y007610D01*
X036629Y007451D02*
X037168Y007451D01*
X037168Y007293D02*
X036701Y007293D01*
X036726Y007134D02*
X037168Y007134D01*
X037168Y006976D02*
X036715Y006976D01*
X036649Y006817D02*
X037168Y006817D01*
X037168Y006659D02*
X036504Y006659D01*
X037168Y006500D02*
X032935Y006500D01*
X032777Y006342D02*
X037168Y006342D01*
X037168Y006183D02*
X032618Y006183D01*
X032460Y006025D02*
X037168Y006025D01*
X037168Y005866D02*
X032301Y005866D01*
X032143Y005708D02*
X037168Y005708D01*
X037168Y005549D02*
X031984Y005549D01*
X031711Y005672D02*
X028113Y005672D01*
X025751Y003310D01*
X024963Y003310D01*
X025003Y003349D01*
X025220Y003349D01*
X025580Y003806D02*
X025850Y003806D01*
X025745Y003964D02*
X026009Y003964D01*
X025884Y004123D02*
X026167Y004123D01*
X026326Y004281D02*
X025940Y004281D01*
X026095Y004440D02*
X026484Y004440D01*
X026643Y004598D02*
X026254Y004598D01*
X026412Y004757D02*
X026801Y004757D01*
X026960Y004915D02*
X026571Y004915D01*
X026729Y005074D02*
X027118Y005074D01*
X027277Y005232D02*
X026888Y005232D01*
X027046Y005391D02*
X027435Y005391D01*
X027594Y005549D02*
X027205Y005549D01*
X027363Y005708D02*
X027752Y005708D01*
X027911Y005866D02*
X027522Y005866D01*
X027680Y006025D02*
X031668Y006025D01*
X031563Y006183D02*
X031826Y006183D01*
X031777Y006342D02*
X031985Y006342D01*
X031935Y006500D02*
X032143Y006500D01*
X032094Y006659D02*
X032302Y006659D01*
X032252Y006817D02*
X032460Y006817D01*
X032411Y006976D02*
X032619Y006976D01*
X032569Y007134D02*
X032777Y007134D01*
X032728Y007293D02*
X032936Y007293D01*
X032886Y007451D02*
X033094Y007451D01*
X033045Y007610D02*
X033253Y007610D01*
X033203Y007768D02*
X033411Y007768D01*
X033362Y007927D02*
X033570Y007927D01*
X033520Y008085D02*
X033728Y008085D01*
X033679Y008244D02*
X033887Y008244D01*
X033837Y008402D02*
X034045Y008402D01*
X033996Y008561D02*
X034204Y008561D01*
X034154Y008719D02*
X034362Y008719D01*
X034313Y008878D02*
X034521Y008878D01*
X034471Y009036D02*
X034679Y009036D01*
X034630Y009195D02*
X034838Y009195D01*
X034788Y009353D02*
X034996Y009353D01*
X034947Y009512D02*
X035155Y009512D01*
X035105Y009670D02*
X035313Y009670D01*
X035264Y009829D02*
X035472Y009829D01*
X035422Y009987D02*
X035593Y009987D01*
X035581Y010146D02*
X035586Y010146D01*
X036156Y010117D02*
X031711Y005672D01*
X033094Y006659D02*
X035809Y006659D01*
X035664Y006817D02*
X033252Y006817D01*
X033411Y006976D02*
X035598Y006976D01*
X035586Y007134D02*
X033569Y007134D01*
X033728Y007293D02*
X035612Y007293D01*
X035684Y007451D02*
X033886Y007451D01*
X034045Y007610D02*
X035855Y007610D01*
X035730Y007768D02*
X034203Y007768D01*
X034362Y007927D02*
X035640Y007927D01*
X035606Y008085D02*
X034520Y008085D01*
X034679Y008244D02*
X035620Y008244D01*
X035684Y008402D02*
X034837Y008402D01*
X034996Y008561D02*
X035831Y008561D01*
X035749Y008719D02*
X035154Y008719D01*
X035313Y008878D02*
X035639Y008878D01*
X035586Y009036D02*
X035471Y009036D01*
X034630Y009987D02*
X031189Y009987D01*
X031189Y009829D02*
X034472Y009829D01*
X034313Y009670D02*
X031189Y009670D01*
X031189Y009512D02*
X034155Y009512D01*
X033996Y009353D02*
X031189Y009353D01*
X031189Y009195D02*
X033838Y009195D01*
X033679Y009036D02*
X031189Y009036D01*
X031189Y008878D02*
X033521Y008878D01*
X033362Y008719D02*
X031216Y008719D01*
X031247Y008561D02*
X033204Y008561D01*
X033045Y008402D02*
X031247Y008402D01*
X031247Y008244D02*
X032887Y008244D01*
X032728Y008085D02*
X031165Y008085D01*
X031222Y007927D02*
X032570Y007927D01*
X032411Y007768D02*
X031247Y007768D01*
X031247Y007610D02*
X032253Y007610D01*
X032094Y007451D02*
X031247Y007451D01*
X031160Y007293D02*
X031936Y007293D01*
X031777Y007134D02*
X026424Y007134D01*
X026424Y006976D02*
X031619Y006976D01*
X031460Y006817D02*
X026424Y006817D01*
X026424Y006659D02*
X027522Y006659D01*
X027364Y006500D02*
X026424Y006500D01*
X026424Y006342D02*
X027205Y006342D01*
X027047Y006183D02*
X026410Y006183D01*
X026303Y006037D02*
X026303Y006037D01*
X026291Y006025D02*
X026888Y006025D01*
X026730Y005866D02*
X026132Y005866D01*
X025974Y005708D02*
X026571Y005708D01*
X026413Y005549D02*
X025895Y005549D01*
X025940Y005391D02*
X026254Y005391D01*
X026096Y005232D02*
X025929Y005232D01*
X025937Y005074D02*
X025854Y005074D01*
X025779Y004915D02*
X025633Y004915D01*
X025220Y005349D02*
X026144Y006274D01*
X026144Y008821D01*
X025766Y008878D02*
X020878Y008878D01*
X020720Y009036D02*
X021622Y009036D01*
X021570Y009089D02*
X021699Y008959D01*
X021868Y008889D01*
X022571Y008889D01*
X022740Y008959D01*
X022870Y009089D01*
X022940Y009258D01*
X022940Y009441D01*
X022870Y009610D01*
X022740Y009739D01*
X022571Y009809D01*
X021868Y009809D01*
X021699Y009739D01*
X021570Y009610D01*
X021500Y009441D01*
X021500Y009258D01*
X021570Y009089D01*
X021526Y009195D02*
X020561Y009195D01*
X020403Y009353D02*
X021500Y009353D01*
X021529Y009512D02*
X020210Y009512D01*
X020031Y009670D02*
X019969Y009670D01*
X020340Y010000D02*
X020350Y010000D01*
X020350Y010890D01*
X021809Y012349D01*
X022220Y012349D01*
X021534Y012523D02*
X021479Y012523D01*
X021429Y012365D02*
X021320Y012365D01*
X021270Y012206D02*
X021162Y012206D01*
X021112Y012048D02*
X021003Y012048D01*
X020953Y011889D02*
X020845Y011889D01*
X020795Y011731D02*
X020686Y011731D01*
X020636Y011572D02*
X020528Y011572D01*
X020478Y011414D02*
X020369Y011414D01*
X020319Y011255D02*
X020211Y011255D01*
X020161Y011097D02*
X020052Y011097D01*
X020070Y010938D02*
X019960Y010938D01*
X019960Y010780D02*
X020070Y010780D01*
X020070Y010621D02*
X019960Y010621D01*
X019960Y010463D02*
X020070Y010463D01*
X020630Y010463D02*
X020749Y010463D01*
X020682Y010304D02*
X020675Y010304D01*
X021026Y010396D02*
X021979Y011349D01*
X022220Y011349D01*
X021554Y011572D02*
X021428Y011572D01*
X021500Y011414D02*
X021269Y011414D01*
X021111Y011255D02*
X021489Y011255D01*
X021330Y011097D02*
X020952Y011097D01*
X020794Y010938D02*
X021172Y010938D01*
X021013Y010780D02*
X020635Y010780D01*
X020630Y010621D02*
X020855Y010621D01*
X021488Y010463D02*
X021509Y010463D01*
X021500Y010304D02*
X021350Y010304D01*
X021394Y010146D02*
X021546Y010146D01*
X021671Y009987D02*
X021394Y009987D01*
X021394Y009829D02*
X025772Y009829D01*
X025768Y009987D02*
X025772Y009987D01*
X026144Y009776D02*
X026144Y010396D01*
X025690Y010850D01*
X024670Y010850D01*
X023530Y011990D01*
X023530Y015200D01*
X021247Y017483D01*
X013152Y017483D01*
X012774Y017437D02*
X005785Y017437D01*
X005745Y017396D02*
X006458Y018110D01*
X007014Y018110D01*
X007132Y018227D01*
X007132Y019101D01*
X007014Y019218D01*
X006219Y019218D01*
X006102Y019101D01*
X006102Y018545D01*
X006009Y018453D01*
X006009Y018586D01*
X005592Y018586D01*
X005592Y018130D01*
X005686Y018130D01*
X005306Y017750D01*
X005228Y017671D01*
X005185Y017568D01*
X005185Y017225D01*
X005146Y017225D01*
X005029Y017108D01*
X005029Y016391D01*
X005146Y016274D01*
X005784Y016274D01*
X005901Y016391D01*
X005901Y017108D01*
X005784Y017225D01*
X005745Y017225D01*
X005745Y017396D01*
X005745Y017278D02*
X012774Y017278D01*
X012876Y017120D02*
X007070Y017120D01*
X007082Y017108D02*
X006965Y017225D01*
X006327Y017225D01*
X006210Y017108D01*
X006210Y016391D01*
X006327Y016274D01*
X006366Y016274D01*
X006366Y016205D01*
X006262Y016101D01*
X006262Y015579D01*
X006379Y015462D01*
X006901Y015462D01*
X007018Y015579D01*
X007018Y016101D01*
X006926Y016193D01*
X006926Y016274D01*
X006965Y016274D01*
X007082Y016391D01*
X007082Y017108D01*
X007082Y016961D02*
X021373Y016961D01*
X021531Y016803D02*
X007082Y016803D01*
X007082Y016644D02*
X021690Y016644D01*
X021848Y016486D02*
X007082Y016486D01*
X007019Y016327D02*
X022007Y016327D01*
X022165Y016169D02*
X019594Y016169D01*
X019587Y016171D02*
X019316Y016171D01*
X019054Y016100D01*
X018819Y015965D01*
X018627Y015773D01*
X018492Y015538D01*
X018421Y015276D01*
X018421Y015005D01*
X018492Y014743D01*
X018627Y014508D01*
X018819Y014316D01*
X019054Y014181D01*
X019316Y014111D01*
X019587Y014111D01*
X019849Y014181D01*
X020084Y014316D01*
X020275Y014508D01*
X020411Y014743D01*
X020481Y015005D01*
X020481Y015276D01*
X020411Y015538D01*
X020275Y015773D01*
X020084Y015965D01*
X019849Y016100D01*
X019587Y016171D01*
X019308Y016169D02*
X006951Y016169D01*
X007018Y016010D02*
X018897Y016010D01*
X018706Y015852D02*
X007018Y015852D01*
X007018Y015693D02*
X018581Y015693D01*
X018491Y015535D02*
X006974Y015535D01*
X006646Y015846D02*
X006646Y016749D01*
X006210Y016803D02*
X005901Y016803D01*
X005901Y016961D02*
X006210Y016961D01*
X006222Y017120D02*
X005889Y017120D01*
X005901Y016644D02*
X006210Y016644D01*
X006210Y016486D02*
X005901Y016486D01*
X005838Y016327D02*
X006274Y016327D01*
X006329Y016169D02*
X004155Y016169D01*
X004164Y016138D02*
X004134Y016232D01*
X004090Y016319D01*
X004032Y016398D01*
X003963Y016468D01*
X003883Y016525D01*
X003796Y016570D01*
X003703Y016600D01*
X003624Y016612D01*
X003624Y016060D01*
X003489Y016060D01*
X003489Y015925D01*
X002937Y015925D01*
X002949Y015847D01*
X002980Y015753D01*
X003024Y015666D01*
X003082Y015587D01*
X003151Y015517D01*
X003230Y015460D01*
X003318Y015415D01*
X003411Y015385D01*
X003489Y015373D01*
X003489Y015925D01*
X003624Y015925D01*
X003624Y015373D01*
X003703Y015385D01*
X003796Y015415D01*
X003883Y015460D01*
X003963Y015517D01*
X004032Y015587D01*
X004090Y015666D01*
X004134Y015753D01*
X004164Y015847D01*
X004177Y015925D01*
X003624Y015925D01*
X003624Y016060D01*
X004177Y016060D01*
X004164Y016138D01*
X004084Y016327D02*
X005092Y016327D01*
X005029Y016486D02*
X003938Y016486D01*
X003624Y016486D02*
X003489Y016486D01*
X003489Y016612D02*
X003411Y016600D01*
X003318Y016570D01*
X003230Y016525D01*
X003151Y016468D01*
X003082Y016398D01*
X003024Y016319D01*
X002980Y016232D01*
X002949Y016138D01*
X002937Y016060D01*
X003489Y016060D01*
X003489Y016612D01*
X003557Y016706D02*
X003557Y015993D01*
X003624Y016010D02*
X006262Y016010D01*
X006262Y015852D02*
X004165Y015852D01*
X004103Y015693D02*
X006262Y015693D01*
X006306Y015535D02*
X003980Y015535D01*
X003624Y015535D02*
X003489Y015535D01*
X003489Y015693D02*
X003624Y015693D01*
X003624Y015852D02*
X003489Y015852D01*
X003489Y016010D02*
X001624Y016010D01*
X001624Y016060D02*
X002177Y016060D01*
X002164Y016138D01*
X002134Y016232D01*
X002090Y016319D01*
X002032Y016398D01*
X001963Y016468D01*
X001883Y016525D01*
X001796Y016570D01*
X001703Y016600D01*
X001624Y016612D01*
X001624Y016060D01*
X001489Y016060D01*
X001489Y015925D01*
X000937Y015925D01*
X000949Y015847D01*
X000980Y015753D01*
X001024Y015666D01*
X001082Y015587D01*
X001151Y015517D01*
X001230Y015460D01*
X001318Y015415D01*
X001411Y015385D01*
X001489Y015373D01*
X001489Y015925D01*
X001624Y015925D01*
X001624Y015373D01*
X001703Y015385D01*
X001796Y015415D01*
X001883Y015460D01*
X001963Y015517D01*
X002032Y015587D01*
X002090Y015666D01*
X002134Y015753D01*
X002164Y015847D01*
X002177Y015925D01*
X001624Y015925D01*
X001624Y016060D01*
X001624Y016169D02*
X001489Y016169D01*
X001489Y016060D02*
X001489Y016612D01*
X001411Y016600D01*
X001318Y016570D01*
X001230Y016525D01*
X001151Y016468D01*
X001082Y016398D01*
X001024Y016319D01*
X000980Y016232D01*
X000949Y016138D01*
X000937Y016060D01*
X001489Y016060D01*
X001489Y016010D02*
X000554Y016010D01*
X000554Y015852D02*
X000949Y015852D01*
X001010Y015693D02*
X000554Y015693D01*
X000554Y015535D02*
X001134Y015535D01*
X001489Y015535D02*
X001624Y015535D01*
X001624Y015693D02*
X001489Y015693D01*
X001489Y015852D02*
X001624Y015852D01*
X002103Y015693D02*
X003010Y015693D01*
X002949Y015852D02*
X002165Y015852D01*
X002155Y016169D02*
X002959Y016169D01*
X003030Y016327D02*
X002084Y016327D01*
X001938Y016486D02*
X003176Y016486D01*
X003489Y016327D02*
X003624Y016327D01*
X003624Y016169D02*
X003489Y016169D01*
X003557Y016706D02*
X005514Y018664D01*
X005437Y018705D02*
X002916Y018705D01*
X002916Y018863D02*
X005019Y018863D01*
X005019Y018741D02*
X005437Y018741D01*
X005437Y018586D01*
X005592Y018586D01*
X005592Y018741D01*
X006009Y018741D01*
X006009Y019042D01*
X005997Y019088D01*
X005973Y019129D01*
X005940Y019162D01*
X005899Y019186D01*
X005853Y019198D01*
X005592Y019198D01*
X005592Y018741D01*
X005437Y018741D01*
X005437Y019198D01*
X005176Y019198D01*
X005130Y019186D01*
X005089Y019162D01*
X005055Y019129D01*
X005032Y019088D01*
X005019Y019042D01*
X005019Y018741D01*
X005019Y018586D02*
X005019Y018286D01*
X005032Y018240D01*
X005055Y018199D01*
X005089Y018166D01*
X005130Y018142D01*
X005176Y018130D01*
X005437Y018130D01*
X005437Y018586D01*
X005019Y018586D01*
X005019Y018546D02*
X002916Y018546D01*
X002916Y018388D02*
X005019Y018388D01*
X005038Y018229D02*
X002916Y018229D01*
X002916Y018071D02*
X005627Y018071D01*
X005592Y018229D02*
X005437Y018229D01*
X005437Y018388D02*
X005592Y018388D01*
X005592Y018546D02*
X005437Y018546D01*
X005592Y018705D02*
X006102Y018705D01*
X006102Y018863D02*
X006009Y018863D01*
X006009Y019022D02*
X006102Y019022D01*
X006181Y019180D02*
X005909Y019180D01*
X005592Y019180D02*
X005437Y019180D01*
X005437Y019022D02*
X005592Y019022D01*
X005592Y018863D02*
X005437Y018863D01*
X005019Y019022D02*
X002916Y019022D01*
X002916Y019180D02*
X005120Y019180D01*
X006009Y018546D02*
X006102Y018546D01*
X006617Y018664D02*
X005465Y017512D01*
X005465Y016749D01*
X005029Y016803D02*
X000554Y016803D01*
X000554Y016961D02*
X005029Y016961D01*
X005041Y017120D02*
X002916Y017120D01*
X002916Y017278D02*
X005185Y017278D01*
X005185Y017437D02*
X002916Y017437D01*
X002916Y017595D02*
X005196Y017595D01*
X005310Y017754D02*
X002916Y017754D01*
X002916Y017912D02*
X005469Y017912D01*
X005944Y017595D02*
X012774Y017595D01*
X012784Y017754D02*
X006102Y017754D01*
X006261Y017912D02*
X023042Y017912D01*
X023042Y017754D02*
X021325Y017754D01*
X021531Y017595D02*
X023042Y017595D01*
X023042Y017437D02*
X021689Y017437D01*
X021848Y017278D02*
X023042Y017278D01*
X023085Y017120D02*
X022006Y017120D01*
X022165Y016961D02*
X023243Y016961D01*
X023401Y016803D02*
X022323Y016803D01*
X022482Y016644D02*
X023560Y016644D01*
X023630Y016486D02*
X022640Y016486D01*
X022799Y016327D02*
X023630Y016327D01*
X023630Y016169D02*
X022957Y016169D01*
X023116Y016010D02*
X023630Y016010D01*
X023630Y015852D02*
X023274Y015852D01*
X023433Y015693D02*
X023630Y015693D01*
X023630Y015535D02*
X023591Y015535D01*
X023116Y015218D02*
X022923Y015218D01*
X022940Y015376D02*
X022958Y015376D01*
X022840Y015059D02*
X023250Y015059D01*
X023250Y014901D02*
X022598Y014901D01*
X022571Y014809D02*
X021868Y014809D01*
X021699Y014739D01*
X021570Y014610D01*
X021500Y014441D01*
X021500Y014258D01*
X021570Y014089D01*
X021699Y013959D01*
X021868Y013889D01*
X022571Y013889D01*
X022740Y013959D01*
X022870Y014089D01*
X022940Y014258D01*
X022940Y014441D01*
X022870Y014610D01*
X022740Y014739D01*
X022571Y014809D01*
X022734Y014742D02*
X023250Y014742D01*
X023250Y014584D02*
X022880Y014584D01*
X022940Y014425D02*
X023250Y014425D01*
X023250Y014267D02*
X022940Y014267D01*
X022878Y014108D02*
X023250Y014108D01*
X023250Y013950D02*
X022717Y013950D01*
X022615Y013791D02*
X023250Y013791D01*
X023250Y013633D02*
X022847Y013633D01*
X022926Y013474D02*
X023250Y013474D01*
X023250Y013316D02*
X022940Y013316D01*
X022898Y013157D02*
X023250Y013157D01*
X023250Y012999D02*
X022779Y012999D01*
X022798Y012682D02*
X023250Y012682D01*
X023250Y012840D02*
X021796Y012840D01*
X021641Y012682D02*
X021637Y012682D01*
X021909Y013349D02*
X022220Y013349D01*
X021909Y013349D02*
X019680Y011120D01*
X019680Y010020D01*
X019670Y010010D01*
X020649Y009670D02*
X020706Y009670D01*
X021016Y009999D02*
X021026Y010396D01*
X021326Y009670D02*
X021630Y009670D01*
X022809Y009670D02*
X024658Y009670D01*
X024673Y009685D02*
X024624Y009636D01*
X024583Y009580D01*
X024552Y009518D01*
X024530Y009452D01*
X024520Y009384D01*
X024520Y009349D01*
X025220Y009349D01*
X025220Y009349D01*
X025220Y009789D01*
X024925Y009789D01*
X024857Y009778D01*
X024791Y009757D01*
X024729Y009726D01*
X024673Y009685D01*
X024550Y009512D02*
X022910Y009512D01*
X022940Y009353D02*
X024520Y009353D01*
X024547Y009195D02*
X022913Y009195D01*
X022817Y009036D02*
X024651Y009036D01*
X024176Y009215D02*
X023291Y008330D01*
X023270Y008330D01*
X022917Y008402D02*
X024500Y008402D01*
X024506Y008244D02*
X022908Y008244D01*
X022866Y008561D02*
X024549Y008561D01*
X024679Y008719D02*
X022719Y008719D01*
X022220Y008719D02*
X022220Y008719D01*
X022220Y008789D02*
X021925Y008789D01*
X021857Y008778D01*
X021791Y008757D01*
X021729Y008726D01*
X021673Y008685D01*
X021624Y008636D01*
X021583Y008580D01*
X021552Y008518D01*
X021530Y008452D01*
X021520Y008384D01*
X021520Y008349D01*
X022220Y008349D01*
X022220Y008349D01*
X022220Y008789D01*
X022220Y008561D02*
X022220Y008561D01*
X022220Y008402D02*
X022220Y008402D01*
X021573Y008561D02*
X021195Y008561D01*
X021037Y008719D02*
X021720Y008719D01*
X021522Y008402D02*
X021354Y008402D01*
X021512Y008244D02*
X021531Y008244D01*
X020087Y008878D02*
X012997Y008878D01*
X012753Y005232D02*
X002882Y005232D01*
X002522Y004884D02*
X013036Y004884D01*
X013040Y004880D01*
X012683Y004598D02*
X006921Y004598D01*
X006620Y004260D02*
X006620Y004255D01*
X005654Y003289D01*
X005218Y003013D02*
X000554Y003013D01*
X000554Y002855D02*
X005294Y002855D01*
X006014Y002855D02*
X006475Y002855D01*
X006548Y002696D02*
X000554Y002696D01*
X000554Y002538D02*
X006546Y002538D01*
X006546Y002379D02*
X002916Y002379D01*
X002916Y002221D02*
X006546Y002221D01*
X006546Y002062D02*
X002916Y002062D01*
X002916Y001904D02*
X006546Y001904D01*
X006311Y001745D02*
X006208Y001745D01*
X006206Y001752D02*
X006182Y001793D01*
X006149Y001826D01*
X006108Y001850D01*
X006062Y001862D01*
X005801Y001862D01*
X005801Y001406D01*
X006218Y001406D01*
X006218Y001706D01*
X006206Y001752D01*
X006218Y001587D02*
X006311Y001587D01*
X006311Y001428D02*
X006218Y001428D01*
X006218Y001251D02*
X005801Y001251D01*
X005801Y001406D01*
X005646Y001406D01*
X005646Y001862D01*
X005384Y001862D01*
X005339Y001850D01*
X005298Y001826D01*
X005264Y001793D01*
X005240Y001752D01*
X005228Y001706D01*
X005228Y001406D01*
X005646Y001406D01*
X005646Y001251D01*
X005228Y001251D01*
X005228Y000950D01*
X005240Y000904D01*
X005264Y000863D01*
X005298Y000830D01*
X005339Y000806D01*
X005384Y000794D01*
X002916Y000794D01*
X002916Y000636D02*
X035199Y000636D01*
X035199Y000794D02*
X007244Y000794D01*
X007340Y000953D02*
X035199Y000953D01*
X035199Y001111D02*
X007340Y001111D01*
X007340Y001270D02*
X035199Y001270D01*
X035199Y001428D02*
X007340Y001428D01*
X007340Y001587D02*
X014159Y001587D01*
X014054Y001745D02*
X013366Y001745D01*
X012544Y001745D02*
X012156Y001745D01*
X012190Y001904D02*
X012519Y001904D01*
X011812Y001904D02*
X011736Y001904D01*
X011736Y002062D02*
X011812Y002062D01*
X011736Y002090D02*
X011736Y001673D01*
X011514Y001673D01*
X011468Y001685D01*
X011427Y001709D01*
X011394Y001742D01*
X011370Y001783D01*
X011358Y001829D01*
X011358Y002090D01*
X011736Y002090D01*
X011358Y002062D02*
X007106Y002062D01*
X007106Y001904D02*
X011358Y001904D01*
X011392Y001745D02*
X007340Y001745D01*
X006826Y001328D02*
X006826Y002492D01*
X006835Y003289D01*
X007271Y003330D02*
X016574Y003330D01*
X016416Y003172D02*
X007271Y003172D01*
X007271Y003013D02*
X016257Y003013D01*
X016099Y002855D02*
X007195Y002855D01*
X007108Y002696D02*
X015940Y002696D01*
X016573Y002538D02*
X018608Y002538D01*
X018516Y002696D02*
X016732Y002696D01*
X016890Y002855D02*
X018460Y002855D01*
X018421Y003013D02*
X017049Y003013D01*
X017207Y003172D02*
X018421Y003172D01*
X018437Y003330D02*
X017366Y003330D01*
X017524Y003489D02*
X018480Y003489D01*
X018557Y003647D02*
X017683Y003647D01*
X017841Y003806D02*
X018664Y003806D01*
X018826Y003964D02*
X018000Y003964D01*
X016891Y003647D02*
X007271Y003647D01*
X007271Y003489D02*
X016733Y003489D01*
X016415Y002379D02*
X018752Y002379D01*
X018977Y002221D02*
X016256Y002221D01*
X014054Y002538D02*
X013341Y002538D01*
X011812Y001745D02*
X011736Y001745D01*
X011358Y002221D02*
X007106Y002221D01*
X007106Y002379D02*
X011358Y002379D01*
X011417Y002538D02*
X007106Y002538D01*
X006399Y003013D02*
X006090Y003013D01*
X006090Y003172D02*
X006399Y003172D01*
X006399Y003330D02*
X006091Y003330D01*
X006249Y003489D02*
X006399Y003489D01*
X006242Y004281D02*
X004004Y004281D01*
X003805Y004440D02*
X006242Y004440D01*
X006319Y004598D02*
X002943Y004598D01*
X002755Y004440D02*
X003240Y004440D01*
X003455Y004440D02*
X003590Y004440D01*
X003590Y004281D02*
X003455Y004281D01*
X003455Y004123D02*
X003590Y004123D01*
X003590Y003964D02*
X003455Y003964D01*
X003455Y003817D02*
X002902Y003817D01*
X002915Y003739D01*
X002945Y003645D01*
X002989Y003558D01*
X003047Y003479D01*
X003116Y003409D01*
X003196Y003352D01*
X003283Y003307D01*
X003376Y003277D01*
X003455Y003264D01*
X003455Y003817D01*
X003455Y003806D02*
X003590Y003806D01*
X003590Y003647D02*
X003455Y003647D01*
X003455Y003489D02*
X003590Y003489D01*
X003590Y003330D02*
X003455Y003330D01*
X003238Y003330D02*
X001806Y003330D01*
X001849Y003352D02*
X001928Y003409D01*
X001997Y003479D01*
X002055Y003558D01*
X002099Y003645D01*
X002130Y003739D01*
X002142Y003817D01*
X001590Y003817D01*
X001590Y003264D01*
X001668Y003277D01*
X001761Y003307D01*
X001849Y003352D01*
X002005Y003489D02*
X003040Y003489D01*
X002944Y003647D02*
X002100Y003647D01*
X002140Y003806D02*
X002904Y003806D01*
X002904Y003964D02*
X002140Y003964D01*
X002100Y004123D02*
X002945Y004123D01*
X003040Y004281D02*
X002004Y004281D01*
X001805Y004440D02*
X002290Y004440D01*
X001590Y004440D02*
X001455Y004440D01*
X001455Y004281D02*
X001590Y004281D01*
X001590Y004123D02*
X001455Y004123D01*
X001455Y003964D02*
X001590Y003964D01*
X001590Y003806D02*
X001455Y003806D01*
X001455Y003647D02*
X001590Y003647D01*
X001590Y003489D02*
X001455Y003489D01*
X001455Y003330D02*
X001590Y003330D01*
X003520Y002990D02*
X003520Y002706D01*
X004884Y001341D01*
X005710Y001341D01*
X005723Y001328D01*
X005646Y001270D02*
X002916Y001270D01*
X002916Y001428D02*
X005228Y001428D01*
X005228Y001587D02*
X002916Y001587D01*
X002916Y001745D02*
X005239Y001745D01*
X005646Y001745D02*
X005801Y001745D01*
X005801Y001587D02*
X005646Y001587D01*
X005646Y001428D02*
X005801Y001428D01*
X005801Y001270D02*
X006311Y001270D01*
X006218Y001251D02*
X006218Y000950D01*
X006206Y000904D01*
X006182Y000863D01*
X006149Y000830D01*
X006108Y000806D01*
X006062Y000794D01*
X005801Y000794D01*
X005646Y000794D01*
X005646Y001251D01*
X005801Y001251D01*
X005801Y000794D01*
X005646Y000794D02*
X005384Y000794D01*
X005228Y000953D02*
X002916Y000953D01*
X002916Y001111D02*
X005228Y001111D01*
X005646Y001111D02*
X005801Y001111D01*
X005801Y000953D02*
X005646Y000953D01*
X006063Y000794D02*
X006407Y000794D01*
X006311Y000953D02*
X006218Y000953D01*
X006218Y001111D02*
X006311Y001111D01*
X003590Y005391D02*
X003455Y005391D01*
X003455Y005549D02*
X003590Y005549D01*
X003590Y005708D02*
X003455Y005708D01*
X003455Y005866D02*
X001590Y005866D01*
X001455Y005866D02*
X000554Y005866D01*
X000554Y005708D02*
X000925Y005708D01*
X000915Y005739D02*
X000945Y005645D01*
X000989Y005558D01*
X001047Y005479D01*
X001116Y005409D01*
X001196Y005352D01*
X001283Y005307D01*
X001376Y005277D01*
X001455Y005264D01*
X001455Y005817D01*
X000902Y005817D01*
X000915Y005739D01*
X000996Y005549D02*
X000554Y005549D01*
X000554Y005391D02*
X001142Y005391D01*
X001455Y005391D02*
X001590Y005391D01*
X001590Y005549D02*
X001455Y005549D01*
X001455Y005708D02*
X001590Y005708D01*
X001590Y006025D02*
X001455Y006025D01*
X001455Y006183D02*
X001590Y006183D01*
X001427Y006500D02*
X000554Y006500D01*
X000554Y006342D02*
X001098Y006342D01*
X000975Y006183D02*
X000554Y006183D01*
X000554Y006025D02*
X000914Y006025D01*
X003455Y006025D02*
X003590Y006025D01*
X003590Y006183D02*
X003455Y006183D01*
X003455Y006342D02*
X003590Y006342D01*
X003590Y005866D02*
X025340Y005866D01*
X025220Y006349D02*
X023719Y007850D01*
X023880Y008085D02*
X024573Y008085D01*
X024778Y007927D02*
X024038Y007927D01*
X024197Y007768D02*
X024768Y007768D01*
X024569Y007610D02*
X024355Y007610D01*
X025671Y007768D02*
X025864Y007768D01*
X025864Y007927D02*
X025661Y007927D01*
X026424Y007927D02*
X030186Y007927D01*
X030028Y008085D02*
X026424Y008085D01*
X026424Y008244D02*
X029869Y008244D01*
X029711Y008402D02*
X026424Y008402D01*
X026522Y008561D02*
X029552Y008561D01*
X029427Y008719D02*
X026522Y008719D01*
X026522Y008878D02*
X029408Y008878D01*
X029408Y009036D02*
X026522Y009036D01*
X026410Y009195D02*
X029408Y009195D01*
X029408Y009353D02*
X025920Y009353D01*
X026150Y009770D02*
X026144Y009776D01*
X026528Y009829D02*
X029408Y009829D01*
X029408Y009987D02*
X026528Y009987D01*
X026424Y010146D02*
X029408Y010146D01*
X029408Y010304D02*
X026424Y010304D01*
X026420Y010463D02*
X029408Y010463D01*
X029408Y010621D02*
X026315Y010621D01*
X026157Y010780D02*
X029408Y010780D01*
X029408Y010938D02*
X025998Y010938D01*
X025873Y011097D02*
X029408Y011097D01*
X029408Y011255D02*
X025938Y011255D01*
X025940Y011414D02*
X029408Y011414D01*
X029408Y011572D02*
X025885Y011572D01*
X025749Y011731D02*
X029408Y011731D01*
X029408Y011889D02*
X024027Y011889D01*
X024185Y011731D02*
X024690Y011731D01*
X024554Y011572D02*
X024344Y011572D01*
X023869Y011255D02*
X022938Y011255D01*
X022940Y011414D02*
X023711Y011414D01*
X023552Y011572D02*
X022885Y011572D01*
X022749Y011731D02*
X023394Y011731D01*
X023269Y011889D02*
X021745Y011889D01*
X021690Y011731D02*
X021586Y011731D01*
X022828Y012048D02*
X023250Y012048D01*
X023250Y012206D02*
X022918Y012206D01*
X022940Y012365D02*
X023250Y012365D01*
X023250Y012523D02*
X022906Y012523D01*
X023810Y012523D02*
X024534Y012523D01*
X024500Y012365D02*
X023810Y012365D01*
X023810Y012206D02*
X024521Y012206D01*
X024611Y012048D02*
X023868Y012048D01*
X023810Y012682D02*
X024491Y012682D01*
X024333Y012840D02*
X023810Y012840D01*
X023810Y012999D02*
X024174Y012999D01*
X024016Y013157D02*
X023810Y013157D01*
X023810Y013316D02*
X023857Y013316D01*
X023910Y013659D02*
X023910Y016690D01*
X023322Y017278D01*
X023322Y018520D01*
X022826Y018229D02*
X022790Y018229D01*
X022639Y018071D02*
X022966Y018071D01*
X022342Y018071D02*
X022302Y018071D01*
X022302Y018229D02*
X022342Y018229D01*
X022342Y018388D02*
X022302Y018388D01*
X022302Y018546D02*
X022342Y018546D01*
X022342Y018705D02*
X022302Y018705D01*
X022302Y018863D02*
X022342Y018863D01*
X022342Y019022D02*
X022302Y019022D01*
X022094Y019022D02*
X017764Y019022D01*
X017861Y018863D02*
X021891Y018863D01*
X021804Y018705D02*
X017861Y018705D01*
X017861Y018546D02*
X021772Y018546D01*
X021787Y018388D02*
X017845Y018388D01*
X016187Y018229D02*
X021854Y018229D01*
X022005Y018071D02*
X006419Y018071D01*
X007132Y018229D02*
X010273Y018229D01*
X010177Y018388D02*
X007132Y018388D01*
X007132Y018546D02*
X010177Y018546D01*
X010177Y018705D02*
X007132Y018705D01*
X007132Y018863D02*
X010177Y018863D01*
X010196Y019022D02*
X007132Y019022D01*
X007053Y019180D02*
X014133Y019180D01*
X014054Y019022D02*
X012210Y019022D01*
X012134Y018229D02*
X014054Y018229D01*
X015084Y018229D02*
X015157Y018229D01*
X015157Y018388D02*
X015084Y018388D01*
X015084Y018546D02*
X015157Y018546D01*
X013428Y017120D02*
X021214Y017120D01*
X022324Y016010D02*
X020005Y016010D01*
X020197Y015852D02*
X022482Y015852D01*
X021653Y015693D02*
X020322Y015693D01*
X020412Y015535D02*
X021538Y015535D01*
X021500Y015376D02*
X020455Y015376D01*
X020481Y015218D02*
X021516Y015218D01*
X021599Y015059D02*
X020481Y015059D01*
X020453Y014901D02*
X021841Y014901D01*
X021706Y014742D02*
X020410Y014742D01*
X020319Y014584D02*
X021559Y014584D01*
X021500Y014425D02*
X020192Y014425D01*
X019997Y014267D02*
X021500Y014267D01*
X021562Y014108D02*
X010774Y014108D01*
X010774Y013950D02*
X021723Y013950D01*
X021824Y013791D02*
X010774Y013791D01*
X010396Y013940D02*
X009343Y014993D01*
X002557Y014993D01*
X002119Y014742D02*
X000554Y014742D01*
X000554Y014584D02*
X001360Y014584D01*
X001318Y014570D02*
X001230Y014525D01*
X001151Y014468D01*
X001082Y014398D01*
X001024Y014319D01*
X000980Y014232D01*
X000949Y014138D01*
X000937Y014060D01*
X001489Y014060D01*
X001489Y014612D01*
X001411Y014600D01*
X001318Y014570D01*
X001489Y014584D02*
X001624Y014584D01*
X001624Y014612D02*
X001703Y014600D01*
X001796Y014570D01*
X001883Y014525D01*
X001963Y014468D01*
X002032Y014398D01*
X002090Y014319D01*
X002134Y014232D01*
X002164Y014138D01*
X002177Y014060D01*
X001624Y014060D01*
X001624Y014612D01*
X001754Y014584D02*
X002259Y014584D01*
X002005Y014425D02*
X003108Y014425D01*
X003082Y014398D02*
X003151Y014468D01*
X003230Y014525D01*
X003318Y014570D01*
X003411Y014600D01*
X003489Y014612D01*
X003489Y014060D01*
X002937Y014060D01*
X002949Y014138D01*
X002980Y014232D01*
X003024Y014319D01*
X003082Y014398D01*
X002997Y014267D02*
X002116Y014267D01*
X002169Y014108D02*
X002944Y014108D01*
X002967Y013791D02*
X002146Y013791D01*
X002065Y013633D02*
X003048Y013633D01*
X003211Y013474D02*
X001903Y013474D01*
X001489Y013950D02*
X000554Y013950D01*
X000554Y014108D02*
X000944Y014108D01*
X000997Y014267D02*
X000554Y014267D01*
X000554Y014425D02*
X001108Y014425D01*
X001489Y014425D02*
X001624Y014425D01*
X001624Y014267D02*
X001489Y014267D01*
X001489Y014108D02*
X001624Y014108D01*
X000967Y013791D02*
X000554Y013791D01*
X000554Y013633D02*
X001048Y013633D01*
X002855Y014584D02*
X003360Y014584D01*
X003489Y014584D02*
X003624Y014584D01*
X003624Y014612D02*
X003703Y014600D01*
X003796Y014570D01*
X003883Y014525D01*
X003963Y014468D01*
X004032Y014398D01*
X004090Y014319D01*
X004134Y014232D01*
X004164Y014138D01*
X004177Y014060D01*
X003624Y014060D01*
X003624Y014612D01*
X003754Y014584D02*
X009356Y014584D01*
X009515Y014425D02*
X004005Y014425D01*
X004116Y014267D02*
X009673Y014267D01*
X009832Y014108D02*
X004169Y014108D01*
X003624Y014108D02*
X003489Y014108D01*
X003489Y014267D02*
X003624Y014267D01*
X003624Y014425D02*
X003489Y014425D01*
X003624Y013950D02*
X009990Y013950D01*
X010708Y014267D02*
X018905Y014267D01*
X018710Y014425D02*
X010307Y014425D01*
X010148Y014584D02*
X018584Y014584D01*
X018492Y014742D02*
X009990Y014742D01*
X009831Y014901D02*
X018449Y014901D01*
X018421Y015059D02*
X009673Y015059D01*
X009514Y015218D02*
X018421Y015218D01*
X018448Y015376D02*
X003646Y015376D01*
X003624Y015376D02*
X003489Y015376D01*
X003467Y015376D02*
X002880Y015376D01*
X003134Y015535D02*
X001980Y015535D01*
X002233Y015376D02*
X001646Y015376D01*
X001624Y015376D02*
X001489Y015376D01*
X001467Y015376D02*
X000554Y015376D01*
X000554Y015218D02*
X002109Y015218D01*
X002057Y015059D02*
X000554Y015059D01*
X000554Y014901D02*
X002057Y014901D01*
X000959Y016169D02*
X000554Y016169D01*
X000554Y016327D02*
X001030Y016327D01*
X001176Y016486D02*
X000554Y016486D01*
X000554Y016644D02*
X005029Y016644D01*
X006640Y015840D02*
X006646Y015846D01*
X003624Y013633D02*
X003489Y013633D01*
X003489Y013474D02*
X003624Y013474D01*
X003262Y011889D02*
X002783Y011889D01*
X002781Y011890D02*
X002613Y011960D01*
X002431Y011960D01*
X002263Y011890D01*
X002134Y011762D01*
X002065Y011594D01*
X002065Y011412D01*
X002134Y011243D01*
X002263Y011115D01*
X002431Y011045D01*
X002613Y011045D01*
X002781Y011115D01*
X002910Y011243D01*
X002980Y011412D01*
X002980Y011594D01*
X002910Y011762D01*
X002781Y011890D01*
X002923Y011731D02*
X003121Y011731D01*
X003065Y011572D02*
X002980Y011572D01*
X002980Y011414D02*
X003065Y011414D01*
X003130Y011255D02*
X002915Y011255D01*
X002737Y011097D02*
X003307Y011097D01*
X002307Y011097D02*
X000554Y011097D01*
X000554Y011255D02*
X002130Y011255D01*
X002065Y011414D02*
X000554Y011414D01*
X000554Y011572D02*
X002065Y011572D01*
X002121Y011731D02*
X000554Y011731D01*
X000554Y011889D02*
X002262Y011889D01*
X002794Y008878D02*
X003250Y008878D01*
X003117Y008719D02*
X002928Y008719D01*
X002980Y008561D02*
X003065Y008561D01*
X003069Y008402D02*
X002976Y008402D01*
X002910Y008244D02*
X003134Y008244D01*
X003335Y008085D02*
X002710Y008085D01*
X001624Y016327D02*
X001489Y016327D01*
X001489Y016486D02*
X001624Y016486D01*
X002916Y019339D02*
X026158Y019339D01*
X026610Y019022D02*
X025601Y019022D01*
X025043Y019022D02*
X024601Y019022D01*
X024785Y018863D02*
X024859Y018863D01*
X025322Y018520D02*
X025322Y018508D01*
X025950Y017880D01*
X026685Y017880D01*
X026688Y017883D01*
X026695Y017890D01*
X027170Y017890D01*
X027795Y018515D01*
X028013Y018515D01*
X027474Y018705D02*
X027222Y018705D01*
X027173Y018546D02*
X027430Y018546D01*
X027272Y018388D02*
X027135Y018388D01*
X027588Y017912D02*
X028163Y017912D01*
X028322Y017754D02*
X027430Y017754D01*
X027242Y017595D02*
X028480Y017595D01*
X028639Y017437D02*
X027194Y017437D01*
X026182Y017437D02*
X024602Y017437D01*
X024602Y017595D02*
X026134Y017595D01*
X025680Y017754D02*
X024602Y017754D01*
X024602Y017912D02*
X025522Y017912D01*
X024966Y018071D02*
X024678Y018071D01*
X024818Y018229D02*
X024826Y018229D01*
X024322Y018520D02*
X024322Y014247D01*
X025220Y013349D01*
X025125Y012840D02*
X029408Y012840D01*
X029408Y012682D02*
X025798Y012682D01*
X025906Y012523D02*
X029408Y012523D01*
X029408Y012365D02*
X025940Y012365D01*
X025918Y012206D02*
X029408Y012206D01*
X029408Y012048D02*
X025828Y012048D01*
X025220Y012349D02*
X023910Y013659D01*
X025615Y013791D02*
X029408Y013791D01*
X029408Y013633D02*
X025847Y013633D01*
X025926Y013474D02*
X029408Y013474D01*
X029408Y013316D02*
X025940Y013316D01*
X025898Y013157D02*
X029408Y013157D01*
X029408Y012999D02*
X025779Y012999D01*
X025717Y013950D02*
X029408Y013950D01*
X029408Y014108D02*
X025878Y014108D01*
X025940Y014267D02*
X026973Y014267D01*
X026887Y014316D02*
X027122Y014181D01*
X027383Y014111D01*
X027655Y014111D01*
X027917Y014181D01*
X028151Y014316D01*
X028343Y014508D01*
X028479Y014743D01*
X028549Y015005D01*
X028549Y015276D01*
X028479Y015538D01*
X028343Y015773D01*
X028151Y015965D01*
X027917Y016100D01*
X027655Y016171D01*
X027383Y016171D01*
X027122Y016100D01*
X026887Y015965D01*
X026695Y015773D01*
X026559Y015538D01*
X026489Y015276D01*
X026489Y015005D01*
X026559Y014743D01*
X026695Y014508D01*
X026887Y014316D01*
X026778Y014425D02*
X025940Y014425D01*
X025880Y014584D02*
X026651Y014584D01*
X026560Y014742D02*
X025734Y014742D01*
X025598Y014901D02*
X026517Y014901D01*
X026489Y015059D02*
X025840Y015059D01*
X025923Y015218D02*
X026489Y015218D01*
X026516Y015376D02*
X025940Y015376D01*
X025901Y015535D02*
X026558Y015535D01*
X026649Y015693D02*
X025786Y015693D01*
X026773Y015852D02*
X024602Y015852D01*
X024602Y016010D02*
X026965Y016010D01*
X027376Y016169D02*
X024602Y016169D01*
X024602Y016327D02*
X029544Y016327D01*
X029502Y016486D02*
X024602Y016486D01*
X024602Y016644D02*
X029431Y016644D01*
X029273Y016803D02*
X024602Y016803D01*
X024602Y016961D02*
X029114Y016961D01*
X028956Y017120D02*
X024602Y017120D01*
X024602Y017278D02*
X028797Y017278D01*
X029544Y017437D02*
X037168Y017437D01*
X037168Y017278D02*
X029702Y017278D01*
X029861Y017120D02*
X037168Y017120D01*
X037168Y016961D02*
X030188Y016961D01*
X030258Y016803D02*
X031942Y016803D01*
X032634Y016419D02*
X030592Y016419D01*
X029688Y015514D01*
X029688Y008821D01*
X030869Y007640D01*
X030491Y007610D02*
X026424Y007610D01*
X026424Y007768D02*
X030345Y007768D01*
X030491Y007451D02*
X026424Y007451D01*
X026424Y007293D02*
X030577Y007293D01*
X029688Y007247D02*
X029688Y006853D01*
X029688Y007247D02*
X027585Y009349D01*
X026528Y009512D02*
X029408Y009512D01*
X029408Y009670D02*
X026528Y009670D01*
X025220Y009670D02*
X025220Y009670D01*
X025220Y009512D02*
X025220Y009512D01*
X025220Y009353D02*
X025220Y009353D01*
X025220Y009195D02*
X025220Y009195D01*
X025220Y009036D02*
X025220Y009036D01*
X025760Y008719D02*
X025766Y008719D01*
X024671Y009987D02*
X022768Y009987D01*
X022893Y010146D02*
X024546Y010146D01*
X024500Y010304D02*
X022940Y010304D01*
X022931Y010463D02*
X024509Y010463D01*
X024503Y010621D02*
X022858Y010621D01*
X022643Y010780D02*
X024345Y010780D01*
X024186Y010938D02*
X022689Y010938D01*
X022873Y011097D02*
X024028Y011097D01*
X028065Y014267D02*
X029408Y014267D01*
X029408Y014425D02*
X028260Y014425D01*
X028387Y014584D02*
X029408Y014584D01*
X029408Y014742D02*
X028478Y014742D01*
X028521Y014901D02*
X029408Y014901D01*
X029408Y015059D02*
X028549Y015059D01*
X028549Y015218D02*
X029408Y015218D01*
X029408Y015376D02*
X028522Y015376D01*
X028480Y015535D02*
X029408Y015535D01*
X029470Y015693D02*
X028389Y015693D01*
X028265Y015852D02*
X029629Y015852D01*
X029787Y016010D02*
X028073Y016010D01*
X027662Y016169D02*
X029946Y016169D01*
X030258Y016486D02*
X030263Y016486D01*
X030258Y016644D02*
X030421Y016644D01*
X029880Y016648D02*
X029880Y016630D01*
X030579Y016010D02*
X031953Y016010D01*
X030853Y015693D02*
X037168Y015693D01*
X037168Y015535D02*
X030853Y015535D01*
X030853Y015376D02*
X037168Y015376D01*
X037168Y015218D02*
X030817Y015218D01*
X030795Y015059D02*
X037168Y015059D01*
X037168Y014901D02*
X030795Y014901D01*
X031024Y014742D02*
X031097Y014742D01*
X031097Y014584D02*
X031024Y014584D01*
X031024Y014425D02*
X031097Y014425D01*
X031097Y014267D02*
X031039Y014267D01*
X031612Y014344D02*
X033179Y014344D01*
X033242Y014281D01*
X033678Y014267D02*
X034385Y014267D01*
X034385Y014243D02*
X034007Y014243D01*
X034007Y013981D01*
X034019Y013936D01*
X034043Y013895D01*
X034076Y013861D01*
X034117Y013837D01*
X034163Y013825D01*
X034385Y013825D01*
X034385Y014243D01*
X034385Y014319D01*
X034385Y014736D01*
X034163Y014736D01*
X034117Y014724D01*
X034076Y014700D01*
X034043Y014667D01*
X034019Y014626D01*
X034007Y014580D01*
X034007Y014319D01*
X034385Y014319D01*
X034461Y014319D01*
X034461Y014736D01*
X034683Y014736D01*
X034729Y014724D01*
X034770Y014700D01*
X034803Y014667D01*
X034827Y014626D01*
X034839Y014580D01*
X034839Y014319D01*
X034461Y014319D01*
X034461Y014243D01*
X034839Y014243D01*
X034839Y013981D01*
X034827Y013936D01*
X034803Y013895D01*
X034770Y013861D01*
X034729Y013837D01*
X034683Y013825D01*
X034461Y013825D01*
X034461Y014243D01*
X034385Y014243D01*
X034461Y014267D02*
X037168Y014267D01*
X037168Y014425D02*
X034839Y014425D01*
X034838Y014584D02*
X037168Y014584D01*
X037168Y014742D02*
X033575Y014742D01*
X033678Y014584D02*
X034008Y014584D01*
X034007Y014425D02*
X033678Y014425D01*
X033678Y014108D02*
X034007Y014108D01*
X034015Y013950D02*
X033678Y013950D01*
X034385Y013950D02*
X034461Y013950D01*
X034461Y014108D02*
X034385Y014108D01*
X034839Y014108D02*
X037168Y014108D01*
X037168Y013950D02*
X034831Y013950D01*
X034461Y014425D02*
X034385Y014425D01*
X034385Y014584D02*
X034461Y014584D01*
X032909Y014742D02*
X032127Y014742D01*
X032127Y013950D02*
X032806Y013950D01*
X032011Y013791D02*
X037168Y013791D01*
X037168Y013633D02*
X031189Y013633D01*
X031189Y013791D02*
X031212Y013791D01*
X031189Y013474D02*
X037168Y013474D01*
X037168Y013316D02*
X031189Y013316D01*
X031189Y013157D02*
X037168Y013157D01*
X037168Y012999D02*
X031189Y012999D01*
X030509Y014344D02*
X030475Y014378D01*
X030777Y015852D02*
X037168Y015852D01*
X037168Y016010D02*
X036193Y016010D01*
X036184Y015994D02*
X036207Y016035D01*
X036220Y016080D01*
X036220Y016342D01*
X035625Y016342D01*
X035625Y016497D01*
X035470Y016497D01*
X035470Y016914D01*
X035032Y016914D01*
X034986Y016902D01*
X034945Y016878D01*
X034911Y016845D01*
X034888Y016804D01*
X034875Y016758D01*
X034875Y016497D01*
X035470Y016497D01*
X035470Y016342D01*
X034875Y016342D01*
X034875Y016080D01*
X034888Y016035D01*
X034911Y015994D01*
X034945Y015960D01*
X034986Y015936D01*
X035032Y015924D01*
X035470Y015924D01*
X035470Y016342D01*
X035625Y016342D01*
X035625Y015924D01*
X036063Y015924D01*
X036109Y015936D01*
X036150Y015960D01*
X036184Y015994D01*
X036220Y016169D02*
X037168Y016169D01*
X037168Y016327D02*
X036220Y016327D01*
X036220Y016497D02*
X036220Y016758D01*
X036207Y016804D01*
X036184Y016845D01*
X036150Y016878D01*
X036109Y016902D01*
X036063Y016914D01*
X035625Y016914D01*
X035625Y016497D01*
X036220Y016497D01*
X036220Y016644D02*
X037168Y016644D01*
X037168Y016486D02*
X035625Y016486D01*
X035548Y016419D02*
X035548Y016652D01*
X035625Y016644D02*
X035470Y016644D01*
X035470Y016486D02*
X033326Y016486D01*
X033326Y016644D02*
X034875Y016644D01*
X034887Y016803D02*
X033326Y016803D01*
X033326Y016327D02*
X034875Y016327D01*
X034875Y016169D02*
X033326Y016169D01*
X033315Y016010D02*
X034902Y016010D01*
X035470Y016010D02*
X035625Y016010D01*
X035625Y016169D02*
X035470Y016169D01*
X035470Y016327D02*
X035625Y016327D01*
X035625Y016803D02*
X035470Y016803D01*
X036208Y016803D02*
X037168Y016803D01*
X035593Y013152D02*
X035552Y013152D01*
X035581Y010938D02*
X031189Y010938D01*
X031189Y010780D02*
X035423Y010780D01*
X035264Y010621D02*
X031189Y010621D01*
X031189Y010463D02*
X035106Y010463D01*
X034947Y010304D02*
X031189Y010304D01*
X031189Y010146D02*
X034789Y010146D01*
X036156Y008117D02*
X036464Y008117D01*
X037168Y005391D02*
X028227Y005391D01*
X028069Y005232D02*
X037168Y005232D01*
X037168Y005074D02*
X027910Y005074D01*
X027752Y004915D02*
X037168Y004915D01*
X037168Y004757D02*
X027593Y004757D01*
X027435Y004598D02*
X037168Y004598D01*
X037168Y004440D02*
X027276Y004440D01*
X032230Y003700D02*
X032440Y003700D01*
X032443Y003703D01*
X034467Y003703D01*
X034480Y003690D01*
X024706Y014742D02*
X024602Y014742D01*
X024602Y014901D02*
X024841Y014901D01*
X024653Y015693D02*
X024602Y015693D01*
X025997Y018229D02*
X026134Y018229D01*
X025327Y018515D02*
X025322Y018520D01*
X024043Y019022D02*
X023601Y019022D01*
X023785Y018863D02*
X023859Y018863D01*
X023043Y019022D02*
X022550Y019022D01*
X022753Y018863D02*
X022859Y018863D01*
X028280Y019022D02*
X028746Y019022D01*
X028554Y018863D02*
X028471Y018863D01*
X029280Y019022D02*
X029746Y019022D01*
X029554Y018863D02*
X029471Y018863D01*
X010631Y018546D02*
X010555Y018546D01*
X010555Y018388D02*
X010631Y018388D01*
X010631Y018229D02*
X010555Y018229D01*
M02*
