%
M48
M72
T01C0.0236
T02C0.0320
T03C0.0400
T04C0.0591
T05C0.1260
%
T01
X4491Y8428
X23388Y1735
X34119Y8640
X10396Y947
X14503Y5278
X12838Y5288
X15908Y13940
X13940Y14727
X29709Y7840
X32837Y9215
X26932Y10396
X14333Y15908
T02
X22381Y15296
X22381Y14296
X22381Y13296
X22381Y12296
X22381Y11296
X22381Y10296
X22381Y9296
X22381Y8296
X22381Y7296
X22381Y6296
X22381Y5296
X22381Y4296
X22381Y3296
X22381Y2296
X25381Y2296
X25381Y3296
X25381Y4296
X25381Y5296
X25381Y6296
X25381Y7296
X25381Y8296
X25381Y9296
X25381Y10296
X25381Y11296
X25381Y12296
X25381Y13296
X25381Y14296
X25381Y15296
T03
X35428Y13821
X22696Y18400
X23696Y18400
X24696Y18400
X25696Y18400
X7097Y2010
X9097Y2010
X34032Y18415
X33032Y18415
X32032Y18415
X31032Y18415
X30032Y18415
X29032Y18415
X34412Y1341
X33412Y1341
X32412Y1341
X31412Y1341
X30412Y1341
X1565Y7340
X1565Y8340
X1565Y9340
X1565Y10340
X1565Y11340
X1565Y12340
T04
X36428Y14821
X34428Y14821
X34428Y12821
X36428Y12821
T05
X27913Y2522
X27913Y14527
X19845Y14527
X19845Y2522
X36297Y1430
X36297Y18186
X1433Y18190
X1439Y1420
M30
