G75*
%MOIN*%
%OFA0B0*%
%FSLAX24Y24*%
%IPPOS*%
%LPD*%
%AMOC8*
5,1,8,0,0,1.08239X$1,22.5*
%
%ADD10C,0.0120*%
%ADD11C,0.0560*%
%ADD12R,0.1221X0.0512*%
%ADD13R,0.0520X0.0920*%
%ADD14R,0.1457X0.0906*%
%ADD15R,0.0670X0.0749*%
%ADD16R,0.0800X0.2140*%
%ADD17C,0.0640*%
%ADD18C,0.0926*%
%ADD19C,0.0780*%
%ADD20R,0.0296X0.0906*%
%ADD21R,0.0749X0.0670*%
%ADD22C,0.1700*%
%ADD23C,0.0555*%
D10*
X000160Y000160D02*
X037562Y000160D01*
X037562Y019845D01*
X000160Y019845D01*
X000160Y000160D01*
D11*
X021960Y002349D02*
X022480Y002349D01*
X022480Y003349D02*
X021960Y003349D01*
X021960Y004349D02*
X022480Y004349D01*
X022480Y005349D02*
X021960Y005349D01*
X021960Y006349D02*
X022480Y006349D01*
X022480Y007349D02*
X021960Y007349D01*
X021960Y008349D02*
X022480Y008349D01*
X022480Y009349D02*
X021960Y009349D01*
X021960Y010349D02*
X022480Y010349D01*
X022480Y011349D02*
X021960Y011349D01*
X021960Y012349D02*
X022480Y012349D01*
X022480Y013349D02*
X021960Y013349D01*
X021960Y014349D02*
X022480Y014349D01*
X022480Y015349D02*
X021960Y015349D01*
X024960Y015349D02*
X025480Y015349D01*
X025480Y014349D02*
X024960Y014349D01*
X024960Y013349D02*
X025480Y013349D01*
X025480Y012349D02*
X024960Y012349D01*
X024960Y011349D02*
X025480Y011349D01*
X025480Y010349D02*
X024960Y010349D01*
X024960Y009349D02*
X025480Y009349D01*
X025480Y008349D02*
X024960Y008349D01*
X024960Y007349D02*
X025480Y007349D01*
X025480Y006349D02*
X024960Y006349D01*
X024960Y005349D02*
X025480Y005349D01*
X025480Y004349D02*
X024960Y004349D01*
X024960Y003349D02*
X025480Y003349D01*
X025480Y002349D02*
X024960Y002349D01*
D12*
X016076Y003106D03*
X016076Y003893D03*
X016076Y004681D03*
X016076Y005468D03*
X016076Y006256D03*
X016076Y007043D03*
X016076Y007830D03*
X016076Y008618D03*
X016075Y011114D03*
X016075Y011902D03*
X016075Y012689D03*
X016075Y013477D03*
X016075Y014264D03*
X016075Y015051D03*
X016075Y015839D03*
X016075Y016626D03*
X008713Y016626D03*
X008713Y015839D03*
X008713Y015051D03*
X008713Y014264D03*
X008713Y013477D03*
X008713Y012689D03*
X008713Y011902D03*
X008713Y011114D03*
X008714Y008618D03*
X008714Y007830D03*
X008714Y007043D03*
X008714Y006256D03*
X008714Y005468D03*
X008714Y004681D03*
X008714Y003893D03*
X008714Y003106D03*
D13*
X032793Y004916D03*
X033703Y004916D03*
X034613Y004916D03*
D14*
X033703Y002475D03*
D15*
X028837Y004994D03*
X027735Y004994D03*
X030893Y006697D03*
X031995Y006697D03*
X033296Y006664D03*
X034399Y006664D03*
X028884Y006849D03*
X027781Y006849D03*
X032088Y010481D03*
X033191Y010481D03*
X033188Y011591D03*
X032086Y011591D03*
X014766Y009914D03*
X013664Y009914D03*
X011361Y009891D03*
X010259Y009891D03*
D16*
X029844Y008901D03*
X029844Y012701D03*
D17*
X002557Y014993D03*
X002522Y004884D03*
D18*
X001522Y003884D03*
X003522Y003884D03*
X003522Y005884D03*
X001522Y005884D03*
X001557Y013993D03*
X003557Y013993D03*
X003557Y015993D03*
X001557Y015993D03*
D19*
X022322Y018520D03*
X023322Y018520D03*
X024322Y018520D03*
X025322Y018520D03*
X028013Y018515D03*
X029013Y018515D03*
X030013Y018515D03*
X031013Y018515D03*
X036156Y012117D03*
X036156Y011117D03*
X036156Y010117D03*
X036156Y009117D03*
X036156Y008117D03*
X036156Y007117D03*
D20*
X030916Y004442D03*
X030916Y002985D03*
D21*
X020239Y005121D03*
X020239Y006223D03*
X006066Y003073D03*
X006066Y001971D03*
D22*
X001439Y001420D03*
X019451Y003136D03*
X027519Y003136D03*
X036297Y001430D03*
X027519Y015141D03*
X019451Y015141D03*
X036297Y018580D03*
X001433Y018584D03*
D23*
X002522Y011503D03*
X003522Y011503D03*
X003522Y008503D03*
X002522Y008503D03*
M02*
