%
M48
M72
T01C0.0236
T02C0.0315
T03C0.0320
T04C0.0400
T05C0.0591
T06C0.1260
%
T01
X17020Y2190
X35593Y13152
X24176Y9215
X23270Y8330
X34600Y3690
X32230Y3700
X29688Y7247
X15508Y1027
X23080Y14120
X14400Y12730
X14270Y4610
X3520Y2990
X30475Y15514
X29880Y16630
X27720Y9800
X30869Y7640
X21026Y10396
X19845Y10396
X19058Y10396
X26404Y8811
X26400Y9820
X13152Y16695
X10396Y13940
X12730Y9250
X13040Y4880
X17040Y8230
X17483Y18664
X6620Y4260
X6066Y17089
T02
X2522Y11503
X2522Y8503
X3522Y8503
X3522Y11503
T03
X25220Y2349
X25220Y3349
X25220Y4349
X25220Y5349
X25220Y6349
X25220Y7349
X25220Y8349
X25220Y9349
X25220Y10349
X25220Y11349
X25220Y12349
X25220Y13349
X25220Y14349
X25220Y15349
X22220Y15349
X22220Y14349
X22220Y13349
X22220Y12349
X22220Y11349
X22220Y10349
X22220Y9349
X22220Y8349
X22220Y7349
X22220Y6349
X22220Y5349
X22220Y4349
X22220Y3349
X22220Y2349
T04
X2557Y14205
X22322Y18520
X23322Y18520
X24322Y18520
X25322Y18520
X36156Y12117
X36156Y11117
X36156Y10117
X36156Y9117
X36156Y8117
X36156Y7117
X2522Y4884
X31013Y18515
X30013Y18515
X29013Y18515
X28013Y18515
T05
X3557Y15205
X1557Y15205
X1557Y13205
X3557Y13205
X3522Y5884
X1522Y5884
X1522Y3884
X3522Y3884
T06
X27519Y3136
X27519Y15141
X19451Y15141
X19451Y3136
X36297Y1430
X36297Y18580
X1433Y18584
X1439Y1420
M30
