G75*
%MOIN*%
%OFA0B0*%
%FSLAX24Y24*%
%IPPOS*%
%LPD*%
%AMOC8*
5,1,8,0,0,1.08239X$1,22.5*
%
%ADD10C,0.0120*%
%ADD11C,0.0080*%
%ADD12C,0.0050*%
%ADD13C,0.0060*%
%ADD14C,0.0002*%
%ADD15C,0.0020*%
D10*
X000160Y000160D02*
X037562Y000160D01*
X037562Y019845D01*
X000160Y019845D01*
X000160Y000160D01*
D11*
X004735Y001346D02*
X004735Y001506D01*
X004815Y001586D01*
X005135Y001266D01*
X005216Y001346D01*
X005216Y001506D01*
X005135Y001586D01*
X004815Y001586D01*
X004735Y001346D02*
X004815Y001266D01*
X005135Y001266D01*
X005135Y001782D02*
X005135Y001862D01*
X005216Y001862D01*
X005216Y001782D01*
X005135Y001782D01*
X004975Y002040D02*
X004975Y002360D01*
X005135Y002555D02*
X005216Y002555D01*
X005135Y002555D02*
X004815Y002876D01*
X004735Y002876D01*
X004735Y002555D01*
X004735Y002280D02*
X004975Y002040D01*
X004735Y002280D02*
X005216Y002280D01*
X005135Y003071D02*
X004895Y003071D01*
X005135Y003071D02*
X005216Y003151D01*
X005216Y003391D01*
X004895Y003391D01*
X004975Y003587D02*
X004975Y003747D01*
X004735Y003587D02*
X004735Y003907D01*
X004735Y003587D02*
X005216Y003587D01*
X007104Y004500D02*
X007104Y004740D01*
X007184Y004820D01*
X007344Y004820D01*
X007424Y004740D01*
X007424Y004500D01*
X007424Y004660D02*
X007584Y004820D01*
X007584Y005015D02*
X007104Y005015D01*
X007104Y005336D01*
X007104Y005531D02*
X007264Y005691D01*
X007104Y005851D01*
X007584Y005851D01*
X007504Y006047D02*
X007584Y006127D01*
X007584Y006287D01*
X007504Y006367D01*
X007424Y006367D01*
X007344Y006287D01*
X007344Y006047D01*
X007504Y006047D01*
X007344Y006047D02*
X007184Y006207D01*
X007104Y006367D01*
X007184Y006562D02*
X007264Y006562D01*
X007344Y006642D01*
X007344Y006883D01*
X007504Y006883D02*
X007184Y006883D01*
X007104Y006802D01*
X007104Y006642D01*
X007184Y006562D01*
X007504Y006562D02*
X007584Y006642D01*
X007584Y006802D01*
X007504Y006883D01*
X007584Y007078D02*
X007104Y007078D01*
X007344Y007078D02*
X007344Y007398D01*
X007104Y007398D02*
X007584Y007398D01*
X007584Y007594D02*
X007424Y007754D01*
X007584Y007914D01*
X007104Y007914D01*
X007104Y007594D02*
X007584Y007594D01*
X010426Y007437D02*
X014363Y007437D01*
X014363Y008618D01*
X010426Y008618D01*
X010426Y007437D01*
X008517Y009011D02*
X016273Y009011D01*
X016221Y009724D02*
X016141Y009724D01*
X016141Y009804D01*
X016221Y009804D01*
X016221Y009724D01*
X016399Y009724D02*
X016719Y009724D01*
X016559Y009724D02*
X016559Y010205D01*
X016399Y010045D01*
X015946Y010125D02*
X015946Y009804D01*
X015865Y009724D01*
X015705Y009724D01*
X015625Y009804D01*
X015946Y010125D01*
X015865Y010205D01*
X015705Y010205D01*
X015625Y010125D01*
X015625Y009804D01*
X016914Y009804D02*
X016994Y009724D01*
X017235Y009724D01*
X017235Y010045D01*
X017430Y009965D02*
X017590Y009965D01*
X017430Y010205D02*
X017430Y009724D01*
X016914Y009804D02*
X016914Y010045D01*
X017430Y010205D02*
X017750Y010205D01*
X016272Y010721D02*
X008516Y010721D01*
X008395Y010106D02*
X008395Y009685D01*
X008255Y009685D02*
X008535Y009685D01*
X008715Y009755D02*
X008715Y009965D01*
X008715Y009755D02*
X008785Y009685D01*
X008996Y009685D01*
X008996Y009965D01*
X009176Y009895D02*
X009316Y009895D01*
X009176Y009685D02*
X009176Y010106D01*
X009456Y010106D01*
X008395Y010106D02*
X008255Y009965D01*
X008095Y009755D02*
X008095Y009685D01*
X008025Y009685D01*
X008025Y009755D01*
X008095Y009755D01*
X007845Y009755D02*
X007775Y009685D01*
X007635Y009685D01*
X007564Y009755D01*
X007845Y010035D01*
X007845Y009755D01*
X007564Y009755D02*
X007564Y010035D01*
X007635Y010106D01*
X007775Y010106D01*
X007845Y010035D01*
X010425Y011508D02*
X012394Y011508D01*
X012394Y013477D01*
X010425Y013477D01*
X010425Y011508D01*
X007449Y013145D02*
X006969Y013145D01*
X006969Y013385D01*
X007049Y013465D01*
X007209Y013465D01*
X007289Y013385D01*
X007289Y013145D01*
X007289Y013305D02*
X007449Y013465D01*
X007449Y013661D02*
X006969Y013661D01*
X006969Y013981D01*
X006969Y014176D02*
X007129Y014336D01*
X006969Y014496D01*
X007449Y014496D01*
X007369Y014692D02*
X007449Y014772D01*
X007449Y014932D01*
X007369Y015012D01*
X007289Y015012D01*
X007209Y014932D01*
X007209Y014692D01*
X007369Y014692D01*
X007209Y014692D02*
X007049Y014852D01*
X006969Y015012D01*
X007049Y015207D02*
X007129Y015207D01*
X007209Y015288D01*
X007209Y015528D01*
X007369Y015528D02*
X007049Y015528D01*
X006969Y015448D01*
X006969Y015288D01*
X007049Y015207D01*
X007369Y015207D02*
X007449Y015288D01*
X007449Y015448D01*
X007369Y015528D01*
X007449Y015723D02*
X006969Y015723D01*
X007209Y015723D02*
X007209Y016043D01*
X006969Y016043D02*
X007449Y016043D01*
X007449Y016239D02*
X006969Y016239D01*
X006969Y016559D02*
X007449Y016559D01*
X007289Y016399D01*
X007449Y016239D01*
X008516Y017020D02*
X016272Y017020D01*
X014362Y016626D02*
X010425Y016626D01*
X010425Y015445D01*
X014362Y015445D01*
X014362Y016626D01*
X007449Y014176D02*
X006969Y014176D01*
X007209Y013821D02*
X007209Y013661D01*
X018958Y006663D02*
X018958Y006342D01*
X019439Y006342D01*
X019439Y006147D02*
X019118Y006147D01*
X019199Y006342D02*
X019199Y006503D01*
X019439Y006147D02*
X019439Y005907D01*
X019359Y005827D01*
X019118Y005827D01*
X019439Y005631D02*
X019439Y005311D01*
X019439Y005471D02*
X018958Y005471D01*
X019118Y005311D01*
X019359Y005133D02*
X019439Y005133D01*
X019439Y005053D01*
X019359Y005053D01*
X019359Y005133D01*
X019359Y004858D02*
X019038Y004858D01*
X019359Y004538D01*
X019439Y004618D01*
X019439Y004778D01*
X019359Y004858D01*
X019038Y004858D02*
X018958Y004778D01*
X018958Y004618D01*
X019038Y004538D01*
X019359Y004538D01*
X016273Y002712D02*
X008517Y002712D01*
X010426Y003500D02*
X012395Y003500D01*
X012395Y005468D01*
X010426Y005468D01*
X010426Y003500D01*
X007584Y004500D02*
X007104Y004500D01*
X007344Y005015D02*
X007344Y005176D01*
X007584Y005531D02*
X007104Y005531D01*
X022520Y001949D02*
X022520Y001849D01*
X023220Y001849D01*
X023222Y001893D01*
X023228Y001936D01*
X023237Y001978D01*
X023250Y002020D01*
X023267Y002060D01*
X023287Y002099D01*
X023310Y002136D01*
X023337Y002170D01*
X023366Y002203D01*
X023399Y002232D01*
X023433Y002259D01*
X023470Y002282D01*
X023509Y002302D01*
X023549Y002319D01*
X023591Y002332D01*
X023633Y002341D01*
X023676Y002347D01*
X023720Y002349D01*
X023764Y002347D01*
X023807Y002341D01*
X023849Y002332D01*
X023891Y002319D01*
X023931Y002302D01*
X023970Y002282D01*
X024007Y002259D01*
X024041Y002232D01*
X024074Y002203D01*
X024103Y002170D01*
X024130Y002136D01*
X024153Y002099D01*
X024173Y002060D01*
X024190Y002020D01*
X024203Y001978D01*
X024212Y001936D01*
X024218Y001893D01*
X024220Y001849D01*
X024920Y001849D01*
X024920Y001949D01*
X029873Y003103D02*
X029873Y004757D01*
X030700Y004757D01*
X031133Y004757D02*
X031960Y004757D01*
X031960Y003103D01*
X031526Y002670D01*
X031133Y002670D01*
X030719Y002670D02*
X030306Y002670D01*
X029873Y003103D01*
X030719Y002749D02*
X030659Y002764D01*
X030600Y002782D01*
X030542Y002805D01*
X030485Y002831D01*
X030431Y002860D01*
X030378Y002893D01*
X030327Y002929D01*
X030279Y002968D01*
X030233Y003010D01*
X030191Y003055D01*
X030150Y003102D01*
X030114Y003152D01*
X030080Y003204D01*
X030049Y003258D01*
X030022Y003314D01*
X029999Y003372D01*
X029979Y003431D01*
X029963Y003491D01*
X029951Y003551D01*
X029942Y003613D01*
X029938Y003675D01*
X029937Y003737D01*
X029940Y003799D01*
X029948Y003861D01*
X029959Y003922D01*
X029973Y003982D01*
X029992Y004041D01*
X030014Y004099D01*
X030040Y004156D01*
X030069Y004210D01*
X030102Y004263D01*
X030138Y004314D01*
X030177Y004362D01*
X030219Y004408D01*
X030264Y004451D01*
X030311Y004491D01*
X030361Y004528D01*
X030413Y004562D01*
X030467Y004592D01*
X030523Y004619D01*
X030581Y004643D01*
X030640Y004663D01*
X030700Y004679D01*
X030677Y005597D02*
X030517Y005597D01*
X030437Y005677D01*
X030758Y005997D01*
X030758Y005677D01*
X030677Y005597D01*
X030437Y005677D02*
X030437Y005997D01*
X030517Y006077D01*
X030677Y006077D01*
X030758Y005997D01*
X030953Y005677D02*
X031033Y005677D01*
X031033Y005597D01*
X030953Y005597D01*
X030953Y005677D01*
X031211Y005597D02*
X031531Y005597D01*
X031371Y005597D02*
X031371Y006077D01*
X031211Y005917D01*
X031726Y005917D02*
X031726Y005677D01*
X031806Y005597D01*
X032047Y005597D01*
X032047Y005917D01*
X032242Y005837D02*
X032402Y005837D01*
X032242Y005597D02*
X032242Y006077D01*
X032562Y006077D01*
X033138Y007254D02*
X033058Y007335D01*
X033378Y007655D01*
X033378Y007335D01*
X033298Y007254D01*
X033138Y007254D01*
X033058Y007335D02*
X033058Y007655D01*
X033138Y007735D01*
X033298Y007735D01*
X033378Y007655D01*
X033831Y007575D02*
X033991Y007735D01*
X033991Y007254D01*
X033831Y007254D02*
X034151Y007254D01*
X034347Y007335D02*
X034347Y007575D01*
X034347Y007335D02*
X034427Y007254D01*
X034667Y007254D01*
X034667Y007575D01*
X034862Y007495D02*
X035023Y007495D01*
X035183Y007735D02*
X034862Y007735D01*
X034862Y007254D01*
X033653Y007254D02*
X033573Y007254D01*
X033573Y007335D01*
X033653Y007335D01*
X033653Y007254D01*
X032945Y009012D02*
X032945Y009492D01*
X033185Y009492D01*
X033265Y009412D01*
X033265Y009252D01*
X033185Y009172D01*
X032945Y009172D01*
X032749Y009252D02*
X032669Y009172D01*
X032509Y009172D01*
X032429Y009252D01*
X032749Y009573D01*
X032749Y009252D01*
X032429Y009252D02*
X032429Y009573D01*
X032509Y009653D01*
X032669Y009653D01*
X032749Y009573D01*
X032234Y009573D02*
X032154Y009653D01*
X031993Y009653D01*
X031913Y009573D01*
X032234Y009573D02*
X032234Y009492D01*
X031913Y009172D01*
X032234Y009172D01*
X033460Y009172D02*
X033460Y009653D01*
X033780Y009653D01*
X033620Y009412D02*
X033460Y009412D01*
X029117Y007940D02*
X028797Y007940D01*
X028797Y007459D01*
X028602Y007459D02*
X028602Y007779D01*
X028797Y007699D02*
X028957Y007699D01*
X028602Y007459D02*
X028362Y007459D01*
X028281Y007539D01*
X028281Y007779D01*
X028086Y007459D02*
X027766Y007459D01*
X027926Y007459D02*
X027926Y007940D01*
X027766Y007779D01*
X027588Y007539D02*
X027508Y007539D01*
X027508Y007459D01*
X027588Y007459D01*
X027588Y007539D01*
X027313Y007539D02*
X027233Y007459D01*
X027072Y007459D01*
X026992Y007539D01*
X027313Y007860D01*
X027313Y007539D01*
X026992Y007539D02*
X026992Y007860D01*
X027072Y007940D01*
X027233Y007940D01*
X027313Y007860D01*
X028161Y009577D02*
X028020Y009717D01*
X028441Y009717D01*
X028441Y009577D02*
X028441Y009857D01*
X028371Y010037D02*
X028231Y010037D01*
X028231Y010248D01*
X028301Y010318D01*
X028371Y010318D01*
X028441Y010248D01*
X028441Y010107D01*
X028371Y010037D01*
X028231Y010037D02*
X028090Y010177D01*
X028020Y010318D01*
X028020Y010498D02*
X028161Y010638D01*
X028020Y010778D01*
X028441Y010778D01*
X028441Y010958D02*
X028020Y010958D01*
X028231Y010958D02*
X028231Y011238D01*
X028161Y011419D02*
X028161Y011699D01*
X028441Y011419D01*
X028441Y011699D01*
X028441Y011238D02*
X028020Y011238D01*
X028020Y010498D02*
X028441Y010498D01*
X031947Y012400D02*
X032267Y012720D01*
X032267Y012800D01*
X032187Y012880D01*
X032027Y012880D01*
X031947Y012800D01*
X031947Y012400D02*
X032267Y012400D01*
X032462Y012480D02*
X032783Y012800D01*
X032783Y012480D01*
X032703Y012400D01*
X032542Y012400D01*
X032462Y012480D01*
X032462Y012800D01*
X032542Y012880D01*
X032703Y012880D01*
X032783Y012800D01*
X032978Y012720D02*
X033218Y012720D01*
X033298Y012640D01*
X033298Y012480D01*
X033218Y012400D01*
X032978Y012400D01*
X032978Y012239D02*
X032978Y012720D01*
X033494Y012640D02*
X033654Y012640D01*
X033494Y012880D02*
X033814Y012880D01*
X033494Y012880D02*
X033494Y012400D01*
X024920Y015749D02*
X024920Y015849D01*
X022520Y015849D01*
X022520Y015749D01*
X027875Y006084D02*
X027875Y005604D01*
X027715Y005604D02*
X028035Y005604D01*
X028230Y005684D02*
X028551Y006004D01*
X028551Y005684D01*
X028471Y005604D01*
X028310Y005604D01*
X028230Y005684D01*
X028230Y006004D01*
X028310Y006084D01*
X028471Y006084D01*
X028551Y006004D01*
X028746Y006084D02*
X028746Y005604D01*
X028746Y005764D02*
X028986Y005924D01*
X028746Y005764D02*
X028986Y005604D01*
X027875Y006084D02*
X027715Y005924D01*
X031133Y004678D02*
X031192Y004663D01*
X031249Y004645D01*
X031306Y004623D01*
X031361Y004598D01*
X031414Y004569D01*
X031466Y004537D01*
X031515Y004502D01*
X031562Y004464D01*
X031607Y004423D01*
X031649Y004379D01*
X031688Y004333D01*
X031724Y004285D01*
X031758Y004234D01*
X031788Y004181D01*
X031814Y004127D01*
X031838Y004071D01*
X031857Y004014D01*
X031873Y003955D01*
X031886Y003896D01*
X031895Y003836D01*
X031900Y003776D01*
X031901Y003715D01*
X031898Y003654D01*
X031892Y003594D01*
X031882Y003534D01*
X031868Y003475D01*
X031851Y003417D01*
X031830Y003360D01*
X031806Y003305D01*
X031778Y003251D01*
X031747Y003199D01*
X031713Y003149D01*
X031675Y003101D01*
X031635Y003056D01*
X031592Y003013D01*
X031547Y002973D01*
X031499Y002936D01*
X031449Y002902D01*
X031397Y002871D01*
X031343Y002844D01*
X031287Y002819D01*
X031230Y002799D01*
X031172Y002782D01*
X031113Y002768D01*
X030785Y002330D02*
X030865Y002250D01*
X030545Y001929D01*
X030625Y001849D01*
X030785Y001849D01*
X030865Y001929D01*
X030865Y002250D01*
X030785Y002330D02*
X030625Y002330D01*
X030545Y002250D01*
X030545Y001929D01*
X030349Y001849D02*
X030029Y001849D01*
X030189Y001849D02*
X030189Y002330D01*
X030029Y002170D01*
X031060Y002170D02*
X031060Y001929D01*
X031140Y001849D01*
X031381Y001849D01*
X031381Y002170D01*
X031576Y002089D02*
X031736Y002089D01*
X031576Y001849D02*
X031576Y002330D01*
X031896Y002330D01*
X032413Y002995D02*
X034993Y002995D01*
X034993Y004395D01*
X032413Y004395D01*
X032413Y002995D01*
X035287Y002830D02*
X035768Y002830D01*
X035768Y003150D01*
X035768Y003345D02*
X035287Y003345D01*
X035287Y003585D01*
X035368Y003666D01*
X035528Y003666D01*
X035608Y003585D01*
X035608Y003345D01*
X035608Y003505D02*
X035768Y003666D01*
X035528Y003861D02*
X035528Y004181D01*
X035688Y004377D02*
X035768Y004457D01*
X035768Y004617D01*
X035688Y004697D01*
X035608Y004697D01*
X035528Y004617D01*
X035528Y004537D01*
X035528Y004617D02*
X035448Y004697D01*
X035368Y004697D01*
X035287Y004617D01*
X035287Y004457D01*
X035368Y004377D01*
X035688Y004892D02*
X035688Y004972D01*
X035768Y004972D01*
X035768Y004892D01*
X035688Y004892D01*
X035688Y005150D02*
X035768Y005230D01*
X035768Y005390D01*
X035688Y005470D01*
X035608Y005470D01*
X035528Y005390D01*
X035528Y005310D01*
X035528Y005390D02*
X035448Y005470D01*
X035368Y005470D01*
X035287Y005390D01*
X035287Y005230D01*
X035368Y005150D01*
D12*
X023905Y005246D02*
X023604Y005246D01*
X023454Y005396D01*
X023604Y005547D01*
X023905Y005547D01*
X023830Y005707D02*
X023905Y005782D01*
X023905Y005932D01*
X023830Y006007D01*
X023754Y006007D01*
X023679Y005932D01*
X023679Y005857D01*
X023679Y005932D02*
X023604Y006007D01*
X023529Y006007D01*
X023454Y005932D01*
X023454Y005782D01*
X023529Y005707D01*
X023679Y005547D02*
X023679Y005246D01*
X023679Y005086D02*
X023679Y004936D01*
X023679Y005086D02*
X023830Y005086D01*
X023905Y005011D01*
X023905Y004861D01*
X023830Y004786D01*
X023529Y004786D01*
X023454Y004861D01*
X023454Y005011D01*
X023529Y005086D01*
X023454Y004626D02*
X023454Y004325D01*
X023905Y004325D01*
X023905Y004626D01*
X023679Y004476D02*
X023679Y004325D01*
X023454Y004165D02*
X023905Y004165D01*
X023905Y003865D02*
X023454Y003865D01*
X023604Y004015D01*
X023454Y004165D01*
X023454Y003705D02*
X023454Y003405D01*
X023454Y003555D02*
X023905Y003555D01*
X023905Y003245D02*
X023604Y003245D01*
X023454Y003094D01*
X023604Y002944D01*
X023905Y002944D01*
X023679Y002944D02*
X023679Y003245D01*
X023529Y006167D02*
X023454Y006242D01*
X023454Y006392D01*
X023529Y006467D01*
X023604Y006467D01*
X023905Y006167D01*
X023905Y006467D01*
X023830Y006627D02*
X023754Y006627D01*
X023679Y006702D01*
X023679Y006853D01*
X023754Y006928D01*
X023830Y006928D01*
X023905Y006853D01*
X023905Y006702D01*
X023830Y006627D01*
X023679Y006702D02*
X023604Y006627D01*
X023529Y006627D01*
X023454Y006702D01*
X023454Y006853D01*
X023529Y006928D01*
X023604Y006928D01*
X023679Y006853D01*
X023754Y007088D02*
X023754Y007313D01*
X023679Y007388D01*
X023529Y007388D01*
X023454Y007313D01*
X023454Y007088D01*
X023905Y007088D01*
X023980Y007548D02*
X023980Y007848D01*
X023905Y008009D02*
X023454Y008009D01*
X023454Y008234D01*
X023529Y008309D01*
X023679Y008309D01*
X023754Y008234D01*
X023754Y008009D01*
X023905Y008469D02*
X023454Y008469D01*
X023454Y008694D01*
X023529Y008769D01*
X023830Y008769D01*
X023905Y008694D01*
X023905Y008469D01*
X023905Y008929D02*
X023905Y009080D01*
X023905Y009004D02*
X023454Y009004D01*
X023454Y008929D02*
X023454Y009080D01*
X023454Y009236D02*
X023454Y009462D01*
X023529Y009537D01*
X023679Y009537D01*
X023754Y009462D01*
X023754Y009236D01*
X023905Y009236D02*
X023454Y009236D01*
D13*
X028894Y008651D02*
X028894Y012951D01*
X028896Y012968D01*
X028900Y012985D01*
X028907Y013001D01*
X028917Y013015D01*
X028930Y013028D01*
X028944Y013038D01*
X028960Y013045D01*
X028977Y013049D01*
X028994Y013051D01*
X029394Y013051D01*
X030294Y013051D02*
X030694Y013051D01*
X030711Y013049D01*
X030728Y013045D01*
X030744Y013038D01*
X030758Y013028D01*
X030771Y013015D01*
X030781Y013001D01*
X030788Y012985D01*
X030792Y012968D01*
X030794Y012951D01*
X030794Y008651D01*
X030792Y008634D01*
X030788Y008617D01*
X030781Y008601D01*
X030771Y008587D01*
X030758Y008574D01*
X030744Y008564D01*
X030728Y008557D01*
X030711Y008553D01*
X030694Y008551D01*
X030294Y008551D01*
X029394Y008551D02*
X028994Y008551D01*
X028977Y008553D01*
X028960Y008557D01*
X028944Y008564D01*
X028930Y008574D01*
X028917Y008587D01*
X028907Y008601D01*
X028900Y008617D01*
X028896Y008634D01*
X028894Y008651D01*
X029594Y010551D02*
X029844Y010551D01*
X030094Y010551D01*
X030094Y010701D02*
X029594Y010701D01*
X029594Y010901D01*
X030094Y010901D01*
X030094Y010701D01*
X030094Y011051D02*
X029844Y011051D01*
X029594Y011051D01*
X009968Y008392D02*
X009675Y008392D01*
X009822Y008392D02*
X009822Y008832D01*
X009675Y008685D01*
X009674Y016400D02*
X009967Y016400D01*
X009820Y016400D02*
X009820Y016841D01*
X009674Y016694D01*
D14*
X029389Y012819D02*
X029399Y012804D01*
X029398Y012804D02*
X029354Y012772D01*
X029312Y012737D01*
X029273Y012698D01*
X029236Y012657D01*
X029203Y012614D01*
X029172Y012569D01*
X029145Y012521D01*
X029121Y012472D01*
X029100Y012421D01*
X029084Y012369D01*
X029070Y012315D01*
X029061Y012261D01*
X029055Y012207D01*
X029053Y012152D01*
X029036Y012151D01*
X029035Y012152D01*
X029037Y012208D01*
X029043Y012264D01*
X029053Y012319D01*
X029066Y012374D01*
X029083Y012427D01*
X029104Y012479D01*
X029129Y012529D01*
X029157Y012578D01*
X029188Y012625D01*
X029223Y012669D01*
X029260Y012711D01*
X029300Y012750D01*
X029343Y012786D01*
X029388Y012819D01*
X029389Y012818D01*
X029344Y012785D01*
X029301Y012749D01*
X029261Y012710D01*
X029223Y012668D01*
X029189Y012624D01*
X029158Y012577D01*
X029130Y012529D01*
X029105Y012478D01*
X029084Y012427D01*
X029067Y012373D01*
X029054Y012319D01*
X029044Y012264D01*
X029038Y012208D01*
X029036Y012152D01*
X029037Y012152D01*
X029039Y012208D01*
X029045Y012264D01*
X029055Y012319D01*
X029068Y012373D01*
X029085Y012426D01*
X029106Y012478D01*
X029131Y012528D01*
X029159Y012577D01*
X029190Y012623D01*
X029224Y012668D01*
X029261Y012709D01*
X029301Y012748D01*
X029344Y012785D01*
X029389Y012818D01*
X029390Y012817D01*
X029345Y012784D01*
X029302Y012748D01*
X029262Y012709D01*
X029225Y012667D01*
X029191Y012623D01*
X029159Y012576D01*
X029132Y012528D01*
X029107Y012478D01*
X029086Y012426D01*
X029069Y012373D01*
X029056Y012318D01*
X029046Y012263D01*
X029040Y012208D01*
X029038Y012152D01*
X029039Y012152D01*
X029041Y012208D01*
X029047Y012263D01*
X029057Y012318D01*
X029070Y012372D01*
X029087Y012426D01*
X029108Y012477D01*
X029132Y012527D01*
X029160Y012576D01*
X029191Y012622D01*
X029226Y012666D01*
X029263Y012708D01*
X029303Y012747D01*
X029345Y012783D01*
X029390Y012816D01*
X029391Y012815D01*
X029346Y012782D01*
X029303Y012746D01*
X029264Y012707D01*
X029226Y012666D01*
X029192Y012622D01*
X029161Y012575D01*
X029133Y012527D01*
X029109Y012477D01*
X029088Y012425D01*
X029071Y012372D01*
X029058Y012318D01*
X029048Y012263D01*
X029042Y012208D01*
X029040Y012152D01*
X029041Y012152D01*
X029043Y012208D01*
X029049Y012263D01*
X029059Y012318D01*
X029072Y012372D01*
X029089Y012425D01*
X029110Y012476D01*
X029134Y012527D01*
X029162Y012575D01*
X029193Y012621D01*
X029227Y012665D01*
X029264Y012707D01*
X029304Y012745D01*
X029347Y012781D01*
X029391Y012814D01*
X029392Y012814D01*
X029347Y012781D01*
X029305Y012745D01*
X029265Y012706D01*
X029228Y012664D01*
X029194Y012620D01*
X029163Y012574D01*
X029135Y012526D01*
X029111Y012476D01*
X029090Y012424D01*
X029073Y012372D01*
X029059Y012318D01*
X029050Y012263D01*
X029044Y012208D01*
X029042Y012152D01*
X029043Y012152D01*
X029045Y012207D01*
X029051Y012263D01*
X029060Y012317D01*
X029074Y012371D01*
X029091Y012424D01*
X029112Y012476D01*
X029136Y012526D01*
X029164Y012574D01*
X029195Y012620D01*
X029229Y012664D01*
X029266Y012705D01*
X029305Y012744D01*
X029348Y012780D01*
X029393Y012813D01*
X029393Y012812D01*
X029348Y012779D01*
X029306Y012743D01*
X029266Y012705D01*
X029229Y012663D01*
X029195Y012619D01*
X029165Y012573D01*
X029137Y012525D01*
X029113Y012475D01*
X029092Y012424D01*
X029075Y012371D01*
X029061Y012317D01*
X029052Y012263D01*
X029046Y012207D01*
X029044Y012152D01*
X029045Y012152D01*
X029047Y012207D01*
X029053Y012262D01*
X029062Y012317D01*
X029076Y012371D01*
X029093Y012423D01*
X029114Y012475D01*
X029138Y012525D01*
X029165Y012573D01*
X029196Y012619D01*
X029230Y012663D01*
X029267Y012704D01*
X029307Y012742D01*
X029349Y012778D01*
X029394Y012811D01*
X029394Y012810D01*
X029350Y012777D01*
X029307Y012742D01*
X029268Y012703D01*
X029231Y012662D01*
X029197Y012618D01*
X029166Y012572D01*
X029139Y012524D01*
X029114Y012474D01*
X029094Y012423D01*
X029077Y012370D01*
X029063Y012317D01*
X029054Y012262D01*
X029048Y012207D01*
X029046Y012152D01*
X029047Y012152D01*
X029049Y012207D01*
X029055Y012262D01*
X029064Y012317D01*
X029078Y012370D01*
X029095Y012423D01*
X029115Y012474D01*
X029140Y012524D01*
X029167Y012572D01*
X029198Y012618D01*
X029232Y012661D01*
X029269Y012702D01*
X029308Y012741D01*
X029350Y012777D01*
X029395Y012809D01*
X029351Y012776D01*
X029309Y012740D01*
X029269Y012702D01*
X029232Y012661D01*
X029199Y012617D01*
X029168Y012571D01*
X029140Y012523D01*
X029116Y012474D01*
X029096Y012422D01*
X029079Y012370D01*
X029065Y012316D01*
X029056Y012262D01*
X029050Y012207D01*
X029048Y012152D01*
X029049Y012152D01*
X029051Y012207D01*
X029057Y012262D01*
X029066Y012316D01*
X029080Y012370D01*
X029097Y012422D01*
X029117Y012473D01*
X029141Y012523D01*
X029169Y012571D01*
X029199Y012616D01*
X029233Y012660D01*
X029270Y012701D01*
X029309Y012739D01*
X029352Y012775D01*
X029396Y012808D01*
X029397Y012807D01*
X029352Y012774D01*
X029310Y012739D01*
X029271Y012700D01*
X029234Y012659D01*
X029200Y012616D01*
X029170Y012570D01*
X029142Y012522D01*
X029118Y012473D01*
X029098Y012422D01*
X029081Y012369D01*
X029067Y012316D01*
X029058Y012262D01*
X029052Y012207D01*
X029050Y012152D01*
X029051Y012152D01*
X029053Y012207D01*
X029059Y012262D01*
X029068Y012316D01*
X029082Y012369D01*
X029099Y012421D01*
X029119Y012472D01*
X029143Y012522D01*
X029170Y012570D01*
X029201Y012615D01*
X029235Y012659D01*
X029271Y012700D01*
X029311Y012738D01*
X029353Y012774D01*
X029397Y012806D01*
X029398Y012805D01*
X029353Y012773D01*
X029312Y012737D01*
X029272Y012699D01*
X029236Y012658D01*
X029202Y012615D01*
X029171Y012569D01*
X029144Y012521D01*
X029120Y012472D01*
X029099Y012421D01*
X029083Y012369D01*
X029069Y012316D01*
X029060Y012261D01*
X029054Y012207D01*
X029052Y012152D01*
X029386Y012371D02*
X029402Y012364D01*
X029384Y012324D01*
X029371Y012282D01*
X029361Y012239D01*
X029355Y012196D01*
X029353Y012152D01*
X029336Y012151D01*
X029335Y012152D01*
X029336Y012190D01*
X029341Y012228D01*
X029348Y012265D01*
X029358Y012301D01*
X029370Y012337D01*
X029385Y012372D01*
X029386Y012372D01*
X029371Y012337D01*
X029359Y012301D01*
X029349Y012265D01*
X029342Y012227D01*
X029337Y012190D01*
X029336Y012152D01*
X029337Y012152D01*
X029338Y012190D01*
X029343Y012227D01*
X029350Y012264D01*
X029360Y012301D01*
X029372Y012336D01*
X029387Y012371D01*
X029388Y012371D01*
X029373Y012336D01*
X029361Y012301D01*
X029351Y012264D01*
X029344Y012227D01*
X029339Y012190D01*
X029338Y012152D01*
X029339Y012152D01*
X029340Y012190D01*
X029345Y012227D01*
X029352Y012264D01*
X029362Y012300D01*
X029374Y012336D01*
X029389Y012370D01*
X029390Y012370D01*
X029375Y012335D01*
X029363Y012300D01*
X029353Y012264D01*
X029346Y012227D01*
X029341Y012190D01*
X029340Y012152D01*
X029341Y012152D01*
X029342Y012189D01*
X029347Y012227D01*
X029354Y012263D01*
X029363Y012300D01*
X029376Y012335D01*
X029391Y012369D01*
X029392Y012369D01*
X029377Y012335D01*
X029364Y012299D01*
X029355Y012263D01*
X029348Y012227D01*
X029343Y012189D01*
X029342Y012152D01*
X029343Y012152D01*
X029344Y012189D01*
X029349Y012226D01*
X029356Y012263D01*
X029365Y012299D01*
X029378Y012334D01*
X029393Y012368D01*
X029394Y012368D01*
X029379Y012334D01*
X029366Y012299D01*
X029357Y012263D01*
X029350Y012226D01*
X029345Y012189D01*
X029344Y012152D01*
X029345Y012152D01*
X029346Y012189D01*
X029351Y012226D01*
X029358Y012263D01*
X029367Y012298D01*
X029380Y012334D01*
X029394Y012368D01*
X029395Y012367D01*
X029381Y012333D01*
X029368Y012298D01*
X029359Y012262D01*
X029352Y012226D01*
X029347Y012189D01*
X029346Y012152D01*
X029347Y012152D01*
X029348Y012189D01*
X029353Y012226D01*
X029360Y012262D01*
X029369Y012298D01*
X029381Y012333D01*
X029396Y012367D01*
X029397Y012366D01*
X029380Y012326D01*
X029366Y012283D01*
X029356Y012240D01*
X029350Y012196D01*
X029348Y012152D01*
X029349Y012152D01*
X029351Y012196D01*
X029357Y012240D01*
X029367Y012283D01*
X029381Y012325D01*
X029398Y012366D01*
X029399Y012365D01*
X029382Y012325D01*
X029368Y012283D01*
X029358Y012240D01*
X029352Y012196D01*
X029350Y012152D01*
X029351Y012152D01*
X029353Y012196D01*
X029359Y012240D01*
X029369Y012283D01*
X029383Y012324D01*
X029400Y012365D01*
X029401Y012365D01*
X029383Y012324D01*
X029370Y012282D01*
X029360Y012239D01*
X029354Y012196D01*
X029352Y012152D01*
X030352Y012151D02*
X030334Y012151D01*
X030335Y012152D02*
X030333Y012196D01*
X030327Y012239D01*
X030317Y012282D01*
X030304Y012324D01*
X030286Y012364D01*
X030302Y012371D01*
X030303Y012372D01*
X030318Y012337D01*
X030330Y012301D01*
X030340Y012265D01*
X030347Y012228D01*
X030352Y012190D01*
X030353Y012152D01*
X030352Y012152D01*
X030351Y012190D01*
X030346Y012227D01*
X030339Y012265D01*
X030329Y012301D01*
X030317Y012337D01*
X030302Y012372D01*
X030301Y012371D01*
X030316Y012336D01*
X030328Y012301D01*
X030338Y012264D01*
X030345Y012227D01*
X030350Y012190D01*
X030351Y012152D01*
X030350Y012152D01*
X030349Y012190D01*
X030344Y012227D01*
X030337Y012264D01*
X030327Y012301D01*
X030315Y012336D01*
X030300Y012371D01*
X030299Y012370D01*
X030314Y012336D01*
X030326Y012300D01*
X030336Y012264D01*
X030343Y012227D01*
X030348Y012190D01*
X030349Y012152D01*
X030348Y012152D01*
X030347Y012190D01*
X030342Y012227D01*
X030335Y012264D01*
X030325Y012300D01*
X030313Y012335D01*
X030298Y012370D01*
X030297Y012369D01*
X030312Y012335D01*
X030325Y012300D01*
X030334Y012263D01*
X030341Y012227D01*
X030346Y012189D01*
X030347Y012152D01*
X030346Y012152D01*
X030345Y012189D01*
X030340Y012227D01*
X030333Y012263D01*
X030324Y012299D01*
X030311Y012335D01*
X030296Y012369D01*
X030295Y012368D01*
X030310Y012334D01*
X030323Y012299D01*
X030332Y012263D01*
X030339Y012226D01*
X030344Y012189D01*
X030345Y012152D01*
X030344Y012152D01*
X030343Y012189D01*
X030338Y012226D01*
X030331Y012263D01*
X030322Y012299D01*
X030309Y012334D01*
X030294Y012368D01*
X030308Y012334D01*
X030321Y012298D01*
X030330Y012263D01*
X030337Y012226D01*
X030342Y012189D01*
X030343Y012152D01*
X030342Y012152D01*
X030341Y012189D01*
X030336Y012226D01*
X030329Y012262D01*
X030320Y012298D01*
X030307Y012333D01*
X030293Y012367D01*
X030292Y012367D01*
X030307Y012333D01*
X030319Y012298D01*
X030328Y012262D01*
X030335Y012226D01*
X030340Y012189D01*
X030341Y012152D01*
X030340Y012152D01*
X030338Y012196D01*
X030332Y012240D01*
X030322Y012283D01*
X030308Y012326D01*
X030291Y012366D01*
X030290Y012366D01*
X030307Y012325D01*
X030321Y012283D01*
X030331Y012240D01*
X030337Y012196D01*
X030339Y012152D01*
X030338Y012152D01*
X030336Y012196D01*
X030330Y012240D01*
X030320Y012283D01*
X030306Y012325D01*
X030289Y012365D01*
X030288Y012365D01*
X030305Y012324D01*
X030319Y012283D01*
X030329Y012240D01*
X030335Y012196D01*
X030337Y012152D01*
X030336Y012152D01*
X030334Y012196D01*
X030328Y012239D01*
X030318Y012282D01*
X030305Y012324D01*
X030287Y012365D01*
X030652Y012152D02*
X030634Y012152D01*
X030635Y012152D02*
X030633Y012207D01*
X030627Y012261D01*
X030618Y012315D01*
X030604Y012369D01*
X030588Y012421D01*
X030567Y012472D01*
X030543Y012521D01*
X030516Y012569D01*
X030485Y012614D01*
X030452Y012657D01*
X030415Y012698D01*
X030376Y012737D01*
X030334Y012772D01*
X030290Y012804D01*
X030299Y012819D01*
X030300Y012819D01*
X030345Y012786D01*
X030388Y012750D01*
X030428Y012711D01*
X030465Y012669D01*
X030500Y012625D01*
X030531Y012578D01*
X030559Y012529D01*
X030584Y012479D01*
X030604Y012427D01*
X030622Y012374D01*
X030635Y012319D01*
X030645Y012264D01*
X030651Y012208D01*
X030653Y012152D01*
X030652Y012152D01*
X030650Y012208D01*
X030644Y012264D01*
X030634Y012319D01*
X030621Y012373D01*
X030604Y012427D01*
X030583Y012479D01*
X030558Y012529D01*
X030530Y012578D01*
X030499Y012624D01*
X030465Y012668D01*
X030427Y012710D01*
X030387Y012749D01*
X030344Y012785D01*
X030299Y012819D01*
X030299Y012818D01*
X030344Y012785D01*
X030387Y012748D01*
X030427Y012709D01*
X030464Y012668D01*
X030498Y012623D01*
X030529Y012577D01*
X030557Y012528D01*
X030582Y012478D01*
X030603Y012426D01*
X030620Y012373D01*
X030633Y012319D01*
X030643Y012264D01*
X030649Y012208D01*
X030651Y012152D01*
X030650Y012152D01*
X030648Y012208D01*
X030642Y012263D01*
X030632Y012318D01*
X030619Y012373D01*
X030602Y012426D01*
X030581Y012478D01*
X030556Y012528D01*
X030529Y012576D01*
X030497Y012623D01*
X030463Y012667D01*
X030426Y012709D01*
X030386Y012748D01*
X030343Y012784D01*
X030298Y012817D01*
X030298Y012816D01*
X030343Y012783D01*
X030385Y012747D01*
X030425Y012708D01*
X030462Y012666D01*
X030497Y012622D01*
X030528Y012576D01*
X030556Y012528D01*
X030580Y012477D01*
X030601Y012426D01*
X030618Y012372D01*
X030631Y012318D01*
X030641Y012263D01*
X030647Y012208D01*
X030649Y012152D01*
X030648Y012152D01*
X030646Y012208D01*
X030640Y012263D01*
X030630Y012318D01*
X030617Y012372D01*
X030600Y012425D01*
X030579Y012477D01*
X030555Y012527D01*
X030527Y012575D01*
X030496Y012622D01*
X030462Y012666D01*
X030424Y012707D01*
X030385Y012746D01*
X030342Y012782D01*
X030297Y012815D01*
X030296Y012814D01*
X030341Y012781D01*
X030384Y012745D01*
X030424Y012707D01*
X030461Y012665D01*
X030495Y012621D01*
X030526Y012575D01*
X030554Y012527D01*
X030578Y012477D01*
X030599Y012425D01*
X030616Y012372D01*
X030629Y012318D01*
X030639Y012263D01*
X030645Y012208D01*
X030647Y012152D01*
X030646Y012152D01*
X030644Y012208D01*
X030638Y012263D01*
X030628Y012318D01*
X030615Y012372D01*
X030598Y012425D01*
X030577Y012476D01*
X030553Y012526D01*
X030525Y012574D01*
X030494Y012621D01*
X030460Y012664D01*
X030423Y012706D01*
X030383Y012745D01*
X030341Y012781D01*
X030296Y012814D01*
X030295Y012813D01*
X030340Y012780D01*
X030383Y012744D01*
X030422Y012705D01*
X030459Y012664D01*
X030493Y012620D01*
X030524Y012574D01*
X030552Y012526D01*
X030576Y012476D01*
X030597Y012424D01*
X030614Y012371D01*
X030628Y012317D01*
X030637Y012263D01*
X030643Y012208D01*
X030645Y012152D01*
X030644Y012152D01*
X030642Y012207D01*
X030636Y012263D01*
X030627Y012317D01*
X030613Y012371D01*
X030596Y012424D01*
X030575Y012475D01*
X030551Y012525D01*
X030523Y012573D01*
X030493Y012619D01*
X030459Y012663D01*
X030422Y012705D01*
X030382Y012743D01*
X030340Y012779D01*
X030295Y012812D01*
X030294Y012811D01*
X030339Y012778D01*
X030381Y012742D01*
X030421Y012704D01*
X030458Y012663D01*
X030492Y012619D01*
X030523Y012573D01*
X030550Y012525D01*
X030574Y012475D01*
X030595Y012423D01*
X030612Y012371D01*
X030626Y012317D01*
X030635Y012262D01*
X030641Y012207D01*
X030643Y012152D01*
X030642Y012152D01*
X030640Y012207D01*
X030634Y012262D01*
X030625Y012317D01*
X030611Y012371D01*
X030594Y012423D01*
X030573Y012474D01*
X030549Y012524D01*
X030522Y012572D01*
X030491Y012618D01*
X030457Y012662D01*
X030420Y012703D01*
X030381Y012742D01*
X030338Y012777D01*
X030294Y012810D01*
X030293Y012809D01*
X030338Y012777D01*
X030380Y012741D01*
X030419Y012702D01*
X030456Y012661D01*
X030490Y012618D01*
X030521Y012572D01*
X030548Y012524D01*
X030573Y012474D01*
X030593Y012423D01*
X030610Y012370D01*
X030624Y012317D01*
X030633Y012262D01*
X030639Y012207D01*
X030641Y012152D01*
X030640Y012152D01*
X030638Y012207D01*
X030632Y012262D01*
X030623Y012316D01*
X030609Y012370D01*
X030592Y012422D01*
X030572Y012474D01*
X030548Y012523D01*
X030520Y012571D01*
X030489Y012617D01*
X030455Y012661D01*
X030419Y012702D01*
X030379Y012740D01*
X030337Y012776D01*
X030293Y012809D01*
X030292Y012808D01*
X030336Y012775D01*
X030378Y012740D01*
X030418Y012701D01*
X030455Y012660D01*
X030489Y012616D01*
X030519Y012571D01*
X030547Y012523D01*
X030571Y012473D01*
X030591Y012422D01*
X030608Y012370D01*
X030622Y012316D01*
X030631Y012262D01*
X030637Y012207D01*
X030639Y012152D01*
X030638Y012152D01*
X030636Y012207D01*
X030630Y012262D01*
X030621Y012316D01*
X030607Y012369D01*
X030590Y012422D01*
X030570Y012473D01*
X030546Y012522D01*
X030518Y012570D01*
X030488Y012616D01*
X030454Y012659D01*
X030417Y012700D01*
X030378Y012739D01*
X030336Y012774D01*
X030291Y012807D01*
X030291Y012806D01*
X030335Y012774D01*
X030377Y012738D01*
X030417Y012700D01*
X030453Y012659D01*
X030487Y012615D01*
X030518Y012570D01*
X030545Y012522D01*
X030569Y012472D01*
X030589Y012421D01*
X030606Y012369D01*
X030620Y012316D01*
X030629Y012262D01*
X030635Y012207D01*
X030637Y012152D01*
X030636Y012152D01*
X030634Y012207D01*
X030628Y012262D01*
X030619Y012316D01*
X030605Y012369D01*
X030589Y012421D01*
X030568Y012472D01*
X030544Y012521D01*
X030517Y012569D01*
X030486Y012615D01*
X030452Y012658D01*
X030416Y012699D01*
X030376Y012737D01*
X030335Y012773D01*
X030290Y012805D01*
X029036Y009450D02*
X029054Y009450D01*
X029053Y009450D02*
X029055Y009395D01*
X029061Y009341D01*
X029070Y009287D01*
X029084Y009233D01*
X029100Y009181D01*
X029121Y009130D01*
X029145Y009081D01*
X029172Y009033D01*
X029203Y008988D01*
X029236Y008945D01*
X029273Y008904D01*
X029312Y008865D01*
X029354Y008830D01*
X029398Y008798D01*
X029389Y008783D01*
X029388Y008783D01*
X029343Y008816D01*
X029300Y008852D01*
X029260Y008891D01*
X029223Y008933D01*
X029188Y008977D01*
X029157Y009024D01*
X029129Y009073D01*
X029104Y009123D01*
X029084Y009175D01*
X029066Y009228D01*
X029053Y009283D01*
X029043Y009338D01*
X029037Y009394D01*
X029035Y009450D01*
X029036Y009450D01*
X029038Y009394D01*
X029044Y009338D01*
X029054Y009283D01*
X029067Y009229D01*
X029084Y009175D01*
X029105Y009123D01*
X029130Y009073D01*
X029158Y009024D01*
X029189Y008978D01*
X029223Y008934D01*
X029261Y008892D01*
X029301Y008853D01*
X029344Y008817D01*
X029389Y008783D01*
X029389Y008784D01*
X029344Y008817D01*
X029301Y008854D01*
X029261Y008893D01*
X029224Y008934D01*
X029190Y008979D01*
X029159Y009025D01*
X029131Y009074D01*
X029106Y009124D01*
X029085Y009176D01*
X029068Y009229D01*
X029055Y009283D01*
X029045Y009338D01*
X029039Y009394D01*
X029037Y009450D01*
X029038Y009450D01*
X029040Y009394D01*
X029046Y009339D01*
X029056Y009283D01*
X029069Y009229D01*
X029086Y009176D01*
X029107Y009124D01*
X029132Y009074D01*
X029159Y009026D01*
X029191Y008979D01*
X029225Y008935D01*
X029262Y008893D01*
X029302Y008854D01*
X029345Y008818D01*
X029390Y008785D01*
X029390Y008786D01*
X029345Y008819D01*
X029303Y008855D01*
X029263Y008894D01*
X029226Y008936D01*
X029191Y008980D01*
X029160Y009026D01*
X029132Y009074D01*
X029108Y009125D01*
X029087Y009176D01*
X029070Y009230D01*
X029057Y009284D01*
X029047Y009339D01*
X029041Y009394D01*
X029039Y009450D01*
X029040Y009450D01*
X029042Y009394D01*
X029048Y009339D01*
X029058Y009284D01*
X029071Y009230D01*
X029088Y009177D01*
X029109Y009125D01*
X029133Y009075D01*
X029161Y009027D01*
X029192Y008980D01*
X029226Y008936D01*
X029264Y008895D01*
X029303Y008856D01*
X029346Y008820D01*
X029391Y008787D01*
X029392Y008788D01*
X029347Y008821D01*
X029304Y008857D01*
X029264Y008895D01*
X029227Y008937D01*
X029193Y008981D01*
X029162Y009027D01*
X029134Y009075D01*
X029110Y009125D01*
X029089Y009177D01*
X029072Y009230D01*
X029059Y009284D01*
X029049Y009339D01*
X029043Y009394D01*
X029041Y009450D01*
X029042Y009450D01*
X029044Y009394D01*
X029050Y009339D01*
X029060Y009284D01*
X029073Y009230D01*
X029090Y009177D01*
X029111Y009126D01*
X029135Y009076D01*
X029163Y009028D01*
X029194Y008981D01*
X029228Y008938D01*
X029265Y008896D01*
X029305Y008857D01*
X029347Y008821D01*
X029392Y008788D01*
X029393Y008789D01*
X029348Y008822D01*
X029305Y008858D01*
X029266Y008897D01*
X029229Y008938D01*
X029195Y008982D01*
X029164Y009028D01*
X029136Y009076D01*
X029112Y009126D01*
X029091Y009178D01*
X029074Y009231D01*
X029060Y009285D01*
X029051Y009339D01*
X029045Y009394D01*
X029043Y009450D01*
X029044Y009450D01*
X029046Y009395D01*
X029052Y009339D01*
X029061Y009285D01*
X029075Y009231D01*
X029092Y009178D01*
X029113Y009127D01*
X029137Y009077D01*
X029165Y009029D01*
X029195Y008983D01*
X029229Y008939D01*
X029266Y008897D01*
X029306Y008859D01*
X029349Y008823D01*
X029393Y008790D01*
X029394Y008791D01*
X029349Y008824D01*
X029307Y008860D01*
X029267Y008898D01*
X029230Y008939D01*
X029196Y008983D01*
X029165Y009029D01*
X029138Y009077D01*
X029114Y009127D01*
X029093Y009178D01*
X029076Y009231D01*
X029062Y009285D01*
X029053Y009339D01*
X029047Y009395D01*
X029045Y009450D01*
X029046Y009450D01*
X029048Y009395D01*
X029054Y009340D01*
X029063Y009285D01*
X029077Y009231D01*
X029094Y009179D01*
X029115Y009127D01*
X029139Y009078D01*
X029166Y009030D01*
X029197Y008984D01*
X029231Y008940D01*
X029268Y008899D01*
X029308Y008860D01*
X029350Y008824D01*
X029394Y008792D01*
X029395Y008793D01*
X029350Y008825D01*
X029308Y008861D01*
X029269Y008900D01*
X029232Y008941D01*
X029198Y008984D01*
X029167Y009030D01*
X029140Y009078D01*
X029115Y009128D01*
X029095Y009179D01*
X029078Y009232D01*
X029064Y009285D01*
X029055Y009340D01*
X029049Y009395D01*
X029047Y009450D01*
X029048Y009450D01*
X029050Y009395D01*
X029056Y009340D01*
X029065Y009286D01*
X029079Y009232D01*
X029096Y009180D01*
X029116Y009128D01*
X029140Y009079D01*
X029168Y009031D01*
X029199Y008985D01*
X029233Y008941D01*
X029269Y008900D01*
X029309Y008862D01*
X029351Y008826D01*
X029395Y008793D01*
X029396Y008794D01*
X029352Y008827D01*
X029310Y008862D01*
X029270Y008901D01*
X029233Y008942D01*
X029199Y008986D01*
X029169Y009031D01*
X029141Y009079D01*
X029117Y009129D01*
X029097Y009180D01*
X029080Y009232D01*
X029066Y009286D01*
X029057Y009340D01*
X029051Y009395D01*
X029049Y009450D01*
X029050Y009450D01*
X029052Y009395D01*
X029058Y009340D01*
X029067Y009286D01*
X029081Y009233D01*
X029098Y009180D01*
X029118Y009129D01*
X029142Y009080D01*
X029170Y009032D01*
X029200Y008986D01*
X029234Y008943D01*
X029271Y008902D01*
X029310Y008863D01*
X029352Y008828D01*
X029397Y008795D01*
X029397Y008796D01*
X029353Y008828D01*
X029311Y008864D01*
X029271Y008902D01*
X029235Y008943D01*
X029201Y008987D01*
X029170Y009032D01*
X029143Y009080D01*
X029119Y009130D01*
X029099Y009181D01*
X029082Y009233D01*
X029068Y009286D01*
X029059Y009340D01*
X029053Y009395D01*
X029051Y009450D01*
X029052Y009450D01*
X029054Y009395D01*
X029060Y009340D01*
X029069Y009286D01*
X029083Y009233D01*
X029099Y009181D01*
X029120Y009130D01*
X029144Y009081D01*
X029171Y009033D01*
X029202Y008987D01*
X029236Y008944D01*
X029272Y008903D01*
X029312Y008865D01*
X029353Y008829D01*
X029398Y008797D01*
X030299Y008783D02*
X030289Y008798D01*
X030290Y008798D02*
X030334Y008830D01*
X030376Y008865D01*
X030415Y008904D01*
X030452Y008945D01*
X030485Y008988D01*
X030516Y009033D01*
X030543Y009081D01*
X030567Y009130D01*
X030588Y009181D01*
X030604Y009233D01*
X030618Y009287D01*
X030627Y009341D01*
X030633Y009395D01*
X030635Y009450D01*
X030652Y009451D01*
X030653Y009450D01*
X030651Y009394D01*
X030645Y009338D01*
X030635Y009283D01*
X030622Y009228D01*
X030605Y009175D01*
X030584Y009123D01*
X030559Y009073D01*
X030531Y009024D01*
X030500Y008977D01*
X030465Y008933D01*
X030428Y008891D01*
X030388Y008852D01*
X030345Y008816D01*
X030300Y008783D01*
X030299Y008784D01*
X030344Y008817D01*
X030387Y008853D01*
X030427Y008892D01*
X030465Y008934D01*
X030499Y008978D01*
X030530Y009025D01*
X030558Y009073D01*
X030583Y009124D01*
X030604Y009175D01*
X030621Y009229D01*
X030634Y009283D01*
X030644Y009338D01*
X030650Y009394D01*
X030652Y009450D01*
X030651Y009450D01*
X030649Y009394D01*
X030643Y009338D01*
X030633Y009283D01*
X030620Y009229D01*
X030603Y009176D01*
X030582Y009124D01*
X030557Y009074D01*
X030529Y009025D01*
X030498Y008979D01*
X030464Y008934D01*
X030427Y008893D01*
X030387Y008854D01*
X030344Y008817D01*
X030299Y008784D01*
X030298Y008785D01*
X030343Y008818D01*
X030386Y008854D01*
X030426Y008893D01*
X030463Y008935D01*
X030497Y008979D01*
X030529Y009026D01*
X030556Y009074D01*
X030581Y009124D01*
X030602Y009176D01*
X030619Y009229D01*
X030632Y009284D01*
X030642Y009339D01*
X030648Y009394D01*
X030650Y009450D01*
X030649Y009450D01*
X030647Y009394D01*
X030641Y009339D01*
X030631Y009284D01*
X030618Y009230D01*
X030601Y009176D01*
X030580Y009125D01*
X030556Y009075D01*
X030528Y009026D01*
X030497Y008980D01*
X030462Y008936D01*
X030425Y008894D01*
X030385Y008855D01*
X030343Y008819D01*
X030298Y008786D01*
X030297Y008787D01*
X030342Y008820D01*
X030385Y008856D01*
X030424Y008895D01*
X030462Y008936D01*
X030496Y008980D01*
X030527Y009027D01*
X030555Y009075D01*
X030579Y009125D01*
X030600Y009177D01*
X030617Y009230D01*
X030630Y009284D01*
X030640Y009339D01*
X030646Y009394D01*
X030648Y009450D01*
X030647Y009450D01*
X030645Y009394D01*
X030639Y009339D01*
X030629Y009284D01*
X030616Y009230D01*
X030599Y009177D01*
X030578Y009126D01*
X030554Y009075D01*
X030526Y009027D01*
X030495Y008981D01*
X030461Y008937D01*
X030424Y008895D01*
X030384Y008857D01*
X030341Y008821D01*
X030297Y008788D01*
X030296Y008788D01*
X030341Y008821D01*
X030383Y008857D01*
X030423Y008896D01*
X030460Y008938D01*
X030494Y008982D01*
X030525Y009028D01*
X030553Y009076D01*
X030577Y009126D01*
X030598Y009178D01*
X030615Y009230D01*
X030629Y009284D01*
X030638Y009339D01*
X030644Y009394D01*
X030646Y009450D01*
X030645Y009450D01*
X030643Y009395D01*
X030637Y009339D01*
X030628Y009285D01*
X030614Y009231D01*
X030597Y009178D01*
X030576Y009126D01*
X030552Y009076D01*
X030524Y009028D01*
X030493Y008982D01*
X030459Y008938D01*
X030422Y008897D01*
X030383Y008858D01*
X030340Y008822D01*
X030295Y008789D01*
X030295Y008790D01*
X030340Y008823D01*
X030382Y008859D01*
X030422Y008897D01*
X030459Y008939D01*
X030493Y008983D01*
X030523Y009029D01*
X030551Y009077D01*
X030575Y009127D01*
X030596Y009178D01*
X030613Y009231D01*
X030627Y009285D01*
X030636Y009339D01*
X030642Y009395D01*
X030644Y009450D01*
X030643Y009450D01*
X030641Y009395D01*
X030635Y009340D01*
X030626Y009285D01*
X030612Y009231D01*
X030595Y009179D01*
X030574Y009127D01*
X030550Y009077D01*
X030523Y009029D01*
X030492Y008983D01*
X030458Y008939D01*
X030421Y008898D01*
X030381Y008860D01*
X030339Y008824D01*
X030294Y008791D01*
X030294Y008792D01*
X030338Y008825D01*
X030381Y008860D01*
X030420Y008899D01*
X030457Y008940D01*
X030491Y008984D01*
X030522Y009030D01*
X030549Y009078D01*
X030574Y009128D01*
X030594Y009179D01*
X030611Y009232D01*
X030625Y009285D01*
X030634Y009340D01*
X030640Y009395D01*
X030642Y009450D01*
X030641Y009450D01*
X030639Y009395D01*
X030633Y009340D01*
X030624Y009285D01*
X030610Y009232D01*
X030593Y009179D01*
X030573Y009128D01*
X030548Y009078D01*
X030521Y009030D01*
X030490Y008984D01*
X030456Y008941D01*
X030419Y008900D01*
X030380Y008861D01*
X030338Y008825D01*
X030293Y008793D01*
X030337Y008826D01*
X030379Y008862D01*
X030419Y008900D01*
X030456Y008941D01*
X030489Y008985D01*
X030520Y009031D01*
X030548Y009079D01*
X030572Y009128D01*
X030592Y009180D01*
X030609Y009232D01*
X030623Y009286D01*
X030632Y009340D01*
X030638Y009395D01*
X030640Y009450D01*
X030639Y009450D01*
X030637Y009395D01*
X030631Y009340D01*
X030622Y009286D01*
X030608Y009232D01*
X030591Y009180D01*
X030571Y009129D01*
X030547Y009079D01*
X030519Y009031D01*
X030489Y008986D01*
X030455Y008942D01*
X030418Y008901D01*
X030379Y008863D01*
X030336Y008827D01*
X030292Y008794D01*
X030291Y008795D01*
X030336Y008828D01*
X030378Y008863D01*
X030417Y008902D01*
X030454Y008943D01*
X030488Y008986D01*
X030518Y009032D01*
X030546Y009080D01*
X030570Y009129D01*
X030590Y009180D01*
X030607Y009233D01*
X030621Y009286D01*
X030630Y009340D01*
X030636Y009395D01*
X030638Y009450D01*
X030637Y009450D01*
X030635Y009395D01*
X030629Y009340D01*
X030620Y009286D01*
X030606Y009233D01*
X030589Y009181D01*
X030569Y009130D01*
X030545Y009080D01*
X030518Y009032D01*
X030487Y008987D01*
X030453Y008943D01*
X030417Y008902D01*
X030377Y008864D01*
X030335Y008828D01*
X030291Y008796D01*
X030290Y008797D01*
X030335Y008829D01*
X030376Y008865D01*
X030416Y008903D01*
X030452Y008944D01*
X030486Y008987D01*
X030517Y009033D01*
X030544Y009081D01*
X030568Y009130D01*
X030589Y009181D01*
X030605Y009233D01*
X030619Y009286D01*
X030628Y009341D01*
X030634Y009395D01*
X030636Y009450D01*
X030302Y009231D02*
X030286Y009238D01*
X030304Y009278D01*
X030317Y009320D01*
X030327Y009363D01*
X030333Y009406D01*
X030335Y009450D01*
X030352Y009451D01*
X030353Y009450D01*
X030352Y009412D01*
X030347Y009374D01*
X030340Y009337D01*
X030330Y009301D01*
X030318Y009265D01*
X030303Y009230D01*
X030302Y009230D01*
X030317Y009265D01*
X030329Y009301D01*
X030339Y009337D01*
X030346Y009375D01*
X030351Y009412D01*
X030352Y009450D01*
X030351Y009450D01*
X030350Y009412D01*
X030345Y009375D01*
X030338Y009338D01*
X030328Y009301D01*
X030316Y009266D01*
X030301Y009231D01*
X030300Y009231D01*
X030315Y009266D01*
X030327Y009301D01*
X030337Y009338D01*
X030344Y009375D01*
X030349Y009412D01*
X030350Y009450D01*
X030349Y009450D01*
X030348Y009412D01*
X030343Y009375D01*
X030336Y009338D01*
X030326Y009302D01*
X030314Y009266D01*
X030299Y009232D01*
X030298Y009232D01*
X030313Y009267D01*
X030325Y009302D01*
X030335Y009338D01*
X030342Y009375D01*
X030347Y009412D01*
X030348Y009450D01*
X030347Y009450D01*
X030346Y009413D01*
X030341Y009375D01*
X030334Y009339D01*
X030325Y009302D01*
X030312Y009267D01*
X030297Y009233D01*
X030296Y009233D01*
X030311Y009267D01*
X030324Y009303D01*
X030333Y009339D01*
X030340Y009375D01*
X030345Y009413D01*
X030346Y009450D01*
X030345Y009450D01*
X030344Y009413D01*
X030339Y009376D01*
X030332Y009339D01*
X030323Y009303D01*
X030310Y009268D01*
X030295Y009234D01*
X030294Y009234D01*
X030309Y009268D01*
X030322Y009303D01*
X030331Y009339D01*
X030338Y009376D01*
X030343Y009413D01*
X030344Y009450D01*
X030343Y009450D01*
X030342Y009413D01*
X030337Y009376D01*
X030330Y009339D01*
X030321Y009304D01*
X030308Y009268D01*
X030294Y009234D01*
X030293Y009235D01*
X030307Y009269D01*
X030320Y009304D01*
X030329Y009340D01*
X030336Y009376D01*
X030341Y009413D01*
X030342Y009450D01*
X030341Y009450D01*
X030340Y009413D01*
X030335Y009376D01*
X030328Y009340D01*
X030319Y009304D01*
X030307Y009269D01*
X030292Y009235D01*
X030291Y009236D01*
X030308Y009276D01*
X030322Y009319D01*
X030332Y009362D01*
X030338Y009406D01*
X030340Y009450D01*
X030339Y009450D01*
X030337Y009406D01*
X030331Y009362D01*
X030321Y009319D01*
X030307Y009277D01*
X030290Y009236D01*
X030289Y009237D01*
X030306Y009277D01*
X030320Y009319D01*
X030330Y009362D01*
X030336Y009406D01*
X030338Y009450D01*
X030337Y009450D01*
X030335Y009406D01*
X030329Y009362D01*
X030319Y009319D01*
X030305Y009278D01*
X030288Y009237D01*
X030287Y009237D01*
X030305Y009278D01*
X030318Y009320D01*
X030328Y009363D01*
X030334Y009406D01*
X030336Y009450D01*
X029336Y009451D02*
X029354Y009451D01*
X029353Y009450D02*
X029355Y009406D01*
X029361Y009363D01*
X029371Y009320D01*
X029384Y009278D01*
X029402Y009238D01*
X029386Y009231D01*
X029385Y009230D01*
X029370Y009265D01*
X029358Y009301D01*
X029348Y009337D01*
X029341Y009374D01*
X029336Y009412D01*
X029335Y009450D01*
X029336Y009450D01*
X029337Y009412D01*
X029342Y009375D01*
X029349Y009337D01*
X029359Y009301D01*
X029371Y009265D01*
X029386Y009230D01*
X029387Y009231D01*
X029372Y009266D01*
X029360Y009301D01*
X029350Y009338D01*
X029343Y009375D01*
X029338Y009412D01*
X029337Y009450D01*
X029338Y009450D01*
X029339Y009412D01*
X029344Y009375D01*
X029351Y009338D01*
X029361Y009301D01*
X029373Y009266D01*
X029388Y009231D01*
X029389Y009232D01*
X029374Y009266D01*
X029362Y009302D01*
X029352Y009338D01*
X029345Y009375D01*
X029340Y009412D01*
X029339Y009450D01*
X029340Y009450D01*
X029341Y009412D01*
X029346Y009375D01*
X029353Y009338D01*
X029363Y009302D01*
X029375Y009267D01*
X029390Y009232D01*
X029391Y009233D01*
X029376Y009267D01*
X029363Y009302D01*
X029354Y009339D01*
X029347Y009375D01*
X029342Y009413D01*
X029341Y009450D01*
X029342Y009450D01*
X029343Y009413D01*
X029348Y009375D01*
X029355Y009339D01*
X029364Y009303D01*
X029377Y009267D01*
X029392Y009233D01*
X029393Y009234D01*
X029378Y009268D01*
X029365Y009303D01*
X029356Y009339D01*
X029349Y009376D01*
X029344Y009413D01*
X029343Y009450D01*
X029344Y009450D01*
X029345Y009413D01*
X029350Y009376D01*
X029357Y009339D01*
X029366Y009303D01*
X029379Y009268D01*
X029394Y009234D01*
X029380Y009268D01*
X029367Y009304D01*
X029358Y009339D01*
X029351Y009376D01*
X029346Y009413D01*
X029345Y009450D01*
X029346Y009450D01*
X029347Y009413D01*
X029352Y009376D01*
X029359Y009340D01*
X029368Y009304D01*
X029381Y009269D01*
X029395Y009235D01*
X029396Y009235D01*
X029381Y009269D01*
X029369Y009304D01*
X029360Y009340D01*
X029353Y009376D01*
X029348Y009413D01*
X029347Y009450D01*
X029348Y009450D01*
X029350Y009406D01*
X029356Y009362D01*
X029366Y009319D01*
X029380Y009276D01*
X029397Y009236D01*
X029398Y009236D01*
X029381Y009277D01*
X029367Y009319D01*
X029357Y009362D01*
X029351Y009406D01*
X029349Y009450D01*
X029350Y009450D01*
X029352Y009406D01*
X029358Y009362D01*
X029368Y009319D01*
X029382Y009277D01*
X029399Y009237D01*
X029400Y009237D01*
X029383Y009278D01*
X029369Y009319D01*
X029359Y009362D01*
X029353Y009406D01*
X029351Y009450D01*
X029352Y009450D01*
X029354Y009406D01*
X029360Y009363D01*
X029370Y009320D01*
X029383Y009278D01*
X029401Y009237D01*
D15*
X029344Y009451D02*
X029344Y012151D01*
X029044Y012151D02*
X029044Y009451D01*
X029844Y010401D02*
X029844Y010551D01*
X029844Y011051D02*
X029844Y011201D01*
X030344Y012151D02*
X030344Y009451D01*
X030644Y009451D02*
X030644Y012151D01*
M02*
