G75*
%MOIN*%
%OFA0B0*%
%FSLAX24Y24*%
%IPPOS*%
%LPD*%
%AMOC8*
5,1,8,0,0,1.08239X$1,22.5*
%
%ADD10C,0.0120*%
%ADD11C,0.0080*%
%ADD12C,0.0110*%
%ADD13C,0.0100*%
%ADD14C,0.0520*%
%ADD15R,0.0472X0.0551*%
%ADD16R,0.0630X0.0709*%
%ADD17C,0.0600*%
%ADD18C,0.0886*%
%ADD19C,0.0740*%
%ADD20C,0.1660*%
%ADD21R,0.0984X0.0630*%
%ADD22C,0.0515*%
%ADD23R,0.0709X0.0630*%
%ADD24R,0.0356X0.0356*%
%ADD25C,0.0240*%
%ADD26C,0.0160*%
D10*
X000160Y000160D02*
X037562Y000160D01*
X037562Y019845D01*
X000160Y019845D01*
X000160Y000160D01*
D11*
X006626Y010436D02*
X006786Y010436D01*
X006866Y010516D01*
X006546Y010837D01*
X006546Y010516D01*
X006626Y010436D01*
X006866Y010516D02*
X006866Y010837D01*
X006786Y010917D01*
X006626Y010917D01*
X006546Y010837D01*
X007044Y010516D02*
X007044Y010436D01*
X007124Y010436D01*
X007124Y010516D01*
X007044Y010516D01*
X007320Y010436D02*
X007640Y010436D01*
X007480Y010436D02*
X007480Y010917D01*
X007640Y010756D01*
X007818Y010516D02*
X007818Y010436D01*
X007898Y010436D01*
X007898Y010516D01*
X007818Y010516D01*
X008093Y010756D02*
X008253Y010436D01*
X008413Y010756D01*
X008609Y010676D02*
X008609Y010596D01*
X008929Y010596D01*
X008929Y010516D02*
X008929Y010676D01*
X008849Y010756D01*
X008689Y010756D01*
X008609Y010676D01*
X008689Y010436D02*
X008849Y010436D01*
X008929Y010516D01*
X009118Y010756D02*
X009199Y010756D01*
X009359Y010596D01*
X009359Y010436D02*
X009359Y010756D01*
X010052Y010516D02*
X010052Y010436D01*
X010132Y010436D01*
X010132Y010516D01*
X010052Y010516D01*
X010327Y010436D02*
X010327Y010676D01*
X010408Y010756D01*
X010568Y010756D01*
X010648Y010676D01*
X010843Y010756D02*
X011083Y010756D01*
X011163Y010676D01*
X011163Y010516D01*
X011083Y010436D01*
X010843Y010436D01*
X010648Y010436D02*
X010648Y010917D01*
X011359Y010756D02*
X011599Y010756D01*
X011679Y010676D01*
X011599Y010596D01*
X011439Y010596D01*
X011359Y010516D01*
X011439Y010436D01*
X011679Y010436D01*
X012390Y010596D02*
X012710Y010596D01*
X012710Y010516D02*
X012710Y010676D01*
X012630Y010756D01*
X012470Y010756D01*
X012390Y010676D01*
X012390Y010596D01*
X012470Y010436D02*
X012630Y010436D01*
X012710Y010516D01*
X012906Y010436D02*
X012906Y010676D01*
X012986Y010756D01*
X013226Y010756D01*
X013226Y010436D01*
X013421Y010516D02*
X013421Y010676D01*
X013501Y010756D01*
X013662Y010756D01*
X013742Y010676D01*
X013742Y010516D01*
X013662Y010436D01*
X013501Y010436D01*
X013421Y010516D01*
X013931Y010756D02*
X014011Y010756D01*
X014171Y010596D01*
X014171Y010436D02*
X014171Y010756D01*
X014367Y010756D02*
X014607Y010756D01*
X014687Y010676D01*
X014687Y010516D01*
X014607Y010436D01*
X014367Y010436D01*
X014367Y010917D01*
D12*
X014278Y008680D02*
X014081Y008483D01*
X013885Y008680D01*
X013885Y008089D01*
X013634Y008187D02*
X013535Y008286D01*
X013240Y008286D01*
X013240Y008384D02*
X013240Y008089D01*
X013535Y008089D01*
X013634Y008187D01*
X013338Y008483D02*
X013240Y008384D01*
X013338Y008483D02*
X013535Y008483D01*
X012989Y008483D02*
X012792Y008483D01*
X012891Y008581D02*
X012891Y008187D01*
X012792Y008089D01*
X012559Y008089D02*
X012264Y008089D01*
X012166Y008187D01*
X012264Y008286D01*
X012461Y008286D01*
X012559Y008384D01*
X012461Y008483D01*
X012166Y008483D01*
X011915Y008384D02*
X011816Y008483D01*
X011620Y008483D01*
X011521Y008384D01*
X011521Y008286D01*
X011915Y008286D01*
X011915Y008384D02*
X011915Y008187D01*
X011816Y008089D01*
X011620Y008089D01*
X011270Y008089D02*
X010975Y008089D01*
X010877Y008187D01*
X010877Y008384D01*
X010975Y008483D01*
X011270Y008483D01*
X011270Y007892D01*
X010626Y008187D02*
X010527Y008089D01*
X010232Y008089D01*
X010232Y008483D01*
X009981Y008483D02*
X009981Y008089D01*
X009981Y008286D02*
X009784Y008483D01*
X009686Y008483D01*
X009346Y008483D02*
X009149Y008483D01*
X009050Y008384D01*
X009050Y008089D01*
X009346Y008089D01*
X009444Y008187D01*
X009346Y008286D01*
X009050Y008286D01*
X008155Y008384D02*
X007761Y008384D01*
X007761Y008483D02*
X007761Y008089D01*
X007510Y008089D02*
X007412Y008089D01*
X007412Y008187D01*
X007510Y008187D01*
X007510Y008089D01*
X007188Y008089D02*
X007188Y008680D01*
X006991Y008483D01*
X006795Y008680D01*
X006795Y008089D01*
X006544Y008089D02*
X006445Y008089D01*
X006445Y008187D01*
X006544Y008187D01*
X006544Y008089D01*
X007761Y008483D02*
X007958Y008680D01*
X008155Y008483D01*
X008155Y008089D01*
X010626Y008187D02*
X010626Y008483D01*
X014278Y008680D02*
X014278Y008089D01*
D13*
X013890Y007463D02*
X013890Y006903D01*
X013890Y007183D02*
X013516Y007183D01*
X013282Y007183D02*
X013282Y006996D01*
X013188Y006903D01*
X013002Y006903D01*
X012908Y006996D01*
X012908Y007183D01*
X013002Y007277D01*
X013188Y007277D01*
X013282Y007183D01*
X013516Y007463D02*
X013516Y006903D01*
X012674Y006903D02*
X012487Y006903D01*
X012581Y006903D02*
X012581Y007463D01*
X012674Y007463D01*
X012269Y007183D02*
X012176Y007277D01*
X011989Y007277D01*
X011895Y007183D01*
X011895Y006996D01*
X011989Y006903D01*
X012176Y006903D01*
X012269Y006996D01*
X012269Y007183D01*
X011661Y007183D02*
X011568Y007277D01*
X011288Y007277D01*
X011381Y007090D02*
X011568Y007090D01*
X011661Y007183D01*
X011661Y006903D02*
X011381Y006903D01*
X011288Y006996D01*
X011381Y007090D01*
X011054Y007277D02*
X010867Y007277D01*
X010960Y007370D02*
X010960Y006996D01*
X010867Y006903D01*
X010648Y006996D02*
X010555Y006903D01*
X010368Y006903D01*
X010275Y006996D01*
X010275Y007183D01*
X010368Y007277D01*
X010555Y007277D01*
X010648Y007183D01*
X010648Y006996D01*
X010041Y007277D02*
X009854Y006903D01*
X009667Y007277D01*
X008825Y007463D02*
X008825Y006903D01*
X008825Y007090D02*
X008452Y007463D01*
X008732Y007183D02*
X008452Y006903D01*
X008217Y006903D02*
X008124Y006903D01*
X008124Y006996D01*
X008217Y006996D01*
X008217Y006903D01*
X007914Y006903D02*
X007914Y007463D01*
X007727Y007277D01*
X007540Y007463D01*
X007540Y006903D01*
X007306Y006903D02*
X007212Y006903D01*
X007212Y006996D01*
X007306Y006996D01*
X007306Y006903D01*
D14*
X021960Y007349D02*
X022480Y007349D01*
X022480Y006349D02*
X021960Y006349D01*
X021960Y005349D02*
X022480Y005349D01*
X022480Y004349D02*
X021960Y004349D01*
X021960Y003349D02*
X022480Y003349D01*
X022480Y002349D02*
X021960Y002349D01*
X024960Y002349D02*
X025480Y002349D01*
X025480Y003349D02*
X024960Y003349D01*
X024960Y004349D02*
X025480Y004349D01*
X025480Y005349D02*
X024960Y005349D01*
X024960Y006349D02*
X025480Y006349D01*
X025480Y007349D02*
X024960Y007349D01*
X024960Y008349D02*
X025480Y008349D01*
X025480Y009349D02*
X024960Y009349D01*
X024960Y010349D02*
X025480Y010349D01*
X025480Y011349D02*
X024960Y011349D01*
X024960Y012349D02*
X025480Y012349D01*
X025480Y013349D02*
X024960Y013349D01*
X024960Y014349D02*
X025480Y014349D01*
X025480Y015349D02*
X024960Y015349D01*
X022480Y015349D02*
X021960Y015349D01*
X021960Y014349D02*
X022480Y014349D01*
X022480Y013349D02*
X021960Y013349D01*
X021960Y012349D02*
X022480Y012349D01*
X022480Y011349D02*
X021960Y011349D01*
X021960Y010349D02*
X022480Y010349D01*
X022480Y009349D02*
X021960Y009349D01*
X021960Y008349D02*
X022480Y008349D01*
D15*
X033242Y014281D03*
X034423Y014281D03*
X012955Y018664D03*
X011774Y018664D03*
X008635Y018610D03*
X007453Y018610D03*
X008052Y002149D03*
X009233Y002149D03*
X011774Y002129D03*
X012955Y002129D03*
D16*
X014569Y002129D03*
X015672Y002129D03*
X006038Y002116D03*
X004936Y002116D03*
X030509Y014344D03*
X031612Y014344D03*
X015672Y018664D03*
X014569Y018664D03*
X008585Y016302D03*
X007483Y016302D03*
D17*
X002557Y014205D03*
X002522Y004884D03*
D18*
X001522Y003884D03*
X003522Y003884D03*
X003522Y005884D03*
X001522Y005884D03*
X001557Y013205D03*
X003557Y013205D03*
X003557Y015205D03*
X001557Y015205D03*
D19*
X022322Y018520D03*
X023322Y018520D03*
X024322Y018520D03*
X025322Y018520D03*
X028013Y018515D03*
X029013Y018515D03*
X030013Y018515D03*
X031013Y018515D03*
X036156Y012117D03*
X036156Y011117D03*
X036156Y010117D03*
X036156Y009117D03*
X036156Y008117D03*
X036156Y007117D03*
D20*
X027519Y003136D03*
X019451Y003136D03*
X036297Y001430D03*
X027519Y015141D03*
X019451Y015141D03*
X036297Y018580D03*
X001433Y018584D03*
X001439Y001420D03*
D21*
X032240Y016419D03*
X035154Y016419D03*
D22*
X003522Y011503D03*
X002522Y011503D03*
X002522Y008503D03*
X003522Y008503D03*
D23*
X026688Y017883D03*
X026688Y018985D03*
D24*
X029880Y016630D03*
X030475Y015514D03*
X035593Y013152D03*
X027720Y009800D03*
X026400Y009820D03*
X026404Y008811D03*
X024176Y009215D03*
X023270Y008330D03*
X021026Y010396D03*
X019845Y010396D03*
X019058Y010396D03*
X017040Y008230D03*
X012730Y009250D03*
X014400Y012730D03*
X010396Y013940D03*
X013152Y016695D03*
X017483Y018664D03*
X023080Y014120D03*
X030869Y007640D03*
X029688Y007247D03*
X032230Y003700D03*
X034600Y003690D03*
X017020Y002190D03*
X015508Y001027D03*
X014270Y004610D03*
X013040Y004880D03*
X006620Y004260D03*
X003520Y002990D03*
X006066Y017089D03*
D25*
X022322Y018520D02*
X022982Y019180D01*
X026538Y019180D01*
X031020Y019180D01*
X033020Y019180D01*
X035154Y016652D01*
X035154Y016419D02*
X035154Y015405D01*
X034423Y014281D01*
X035552Y013152D01*
X035593Y013152D02*
X036380Y013152D01*
X036774Y012758D01*
X036774Y008428D01*
X036464Y008117D01*
X034600Y003690D02*
X034610Y001600D01*
X033890Y001020D01*
X018190Y001020D01*
X015981Y001020D01*
X015508Y001027D01*
X017020Y002190D02*
X018190Y001020D01*
X025240Y009350D02*
X023100Y011020D01*
X023080Y014120D01*
X027719Y013152D02*
X029294Y014727D01*
X029294Y015908D01*
X029880Y016494D01*
X029880Y016648D02*
X028013Y018515D01*
X027795Y018515D02*
X027170Y017890D01*
X026685Y017880D02*
X025950Y017880D01*
X025322Y018508D01*
X030475Y015514D02*
X030475Y014378D01*
X027719Y013152D02*
X027719Y009801D01*
D26*
X027720Y009800D01*
X028098Y009829D02*
X029408Y009829D01*
X029408Y009987D02*
X028098Y009987D01*
X028098Y010061D02*
X028039Y010120D01*
X028039Y013020D01*
X029408Y014388D01*
X029408Y008766D01*
X029450Y008663D01*
X029529Y008584D01*
X030491Y007622D01*
X030491Y007379D01*
X030608Y007262D01*
X031130Y007262D01*
X031247Y007379D01*
X031247Y007901D01*
X031130Y008018D01*
X030887Y008018D01*
X029968Y008937D01*
X029968Y015398D01*
X030097Y015528D01*
X030097Y015253D01*
X030155Y015195D01*
X030155Y014898D01*
X030112Y014898D01*
X029994Y014781D01*
X029994Y013907D01*
X030112Y013790D01*
X030907Y013790D01*
X031024Y013907D01*
X031024Y014781D01*
X030907Y014898D01*
X030795Y014898D01*
X030795Y015195D01*
X030853Y015253D01*
X030853Y015775D01*
X030736Y015892D01*
X030462Y015892D01*
X030708Y016139D01*
X031548Y016139D01*
X031548Y016021D01*
X031666Y015904D01*
X032815Y015904D01*
X032933Y016021D01*
X032933Y016817D01*
X032815Y016934D01*
X031666Y016934D01*
X031548Y016817D01*
X031548Y016699D01*
X030537Y016699D01*
X030434Y016657D01*
X030355Y016578D01*
X030258Y016481D01*
X030258Y016891D01*
X030141Y017008D01*
X029972Y017008D01*
X029035Y017945D01*
X029126Y017945D01*
X029335Y018032D01*
X029496Y018192D01*
X029513Y018233D01*
X029529Y018192D01*
X029690Y018032D01*
X029899Y017945D01*
X030126Y017945D01*
X030335Y018032D01*
X030496Y018192D01*
X030525Y018262D01*
X030542Y018227D01*
X030593Y018157D01*
X030654Y018096D01*
X030724Y018045D01*
X030801Y018005D01*
X030884Y017979D01*
X030969Y017965D01*
X030993Y017965D01*
X030993Y018495D01*
X031033Y018495D01*
X031033Y018535D01*
X031563Y018535D01*
X031563Y018558D01*
X031549Y018644D01*
X031522Y018726D01*
X031483Y018803D01*
X031432Y018873D01*
X031371Y018935D01*
X031301Y018986D01*
X031224Y019025D01*
X031141Y019052D01*
X031056Y019065D01*
X031033Y019065D01*
X031033Y018535D01*
X030993Y018535D01*
X030993Y019065D01*
X030969Y019065D01*
X030884Y019052D01*
X030801Y019025D01*
X030724Y018986D01*
X030654Y018935D01*
X030593Y018873D01*
X030542Y018803D01*
X030525Y018769D01*
X030496Y018838D01*
X030335Y018998D01*
X030126Y019085D01*
X029899Y019085D01*
X029690Y018998D01*
X029529Y018838D01*
X029513Y018798D01*
X029496Y018838D01*
X029335Y018998D01*
X029126Y019085D01*
X028899Y019085D01*
X028690Y018998D01*
X028529Y018838D01*
X028513Y018798D01*
X028496Y018838D01*
X028335Y018998D01*
X028126Y019085D01*
X027899Y019085D01*
X027690Y018998D01*
X027529Y018838D01*
X027443Y018629D01*
X027443Y018615D01*
X027175Y018348D01*
X027125Y018398D01*
X026251Y018398D01*
X026134Y018281D01*
X026134Y018200D01*
X026083Y018200D01*
X025887Y018395D01*
X025892Y018407D01*
X025892Y018634D01*
X025805Y018843D01*
X025645Y019003D01*
X025435Y019090D01*
X025209Y019090D01*
X024999Y019003D01*
X024839Y018843D01*
X024822Y018803D01*
X024805Y018843D01*
X024645Y019003D01*
X024435Y019090D01*
X024209Y019090D01*
X023999Y019003D01*
X023839Y018843D01*
X023822Y018803D01*
X023805Y018843D01*
X023645Y019003D01*
X023435Y019090D01*
X023209Y019090D01*
X022999Y019003D01*
X022839Y018843D01*
X022810Y018774D01*
X022792Y018808D01*
X022742Y018879D01*
X022680Y018940D01*
X022610Y018991D01*
X022533Y019030D01*
X022451Y019057D01*
X022365Y019070D01*
X022342Y019070D01*
X022342Y018540D01*
X022302Y018540D01*
X022302Y018500D01*
X022342Y018500D01*
X022342Y017970D01*
X022365Y017970D01*
X022451Y017984D01*
X022533Y018011D01*
X022610Y018050D01*
X022680Y018101D01*
X022742Y018162D01*
X022792Y018232D01*
X022810Y018267D01*
X022839Y018197D01*
X022999Y018037D01*
X023042Y018019D01*
X023042Y017222D01*
X023085Y017119D01*
X023163Y017041D01*
X023630Y016574D01*
X023630Y015856D01*
X021412Y016927D01*
X021406Y016933D01*
X021362Y016951D01*
X021319Y016972D01*
X021310Y016972D01*
X021303Y016975D01*
X021255Y016975D01*
X021207Y016978D01*
X021200Y016975D01*
X013511Y016975D01*
X013413Y017074D01*
X012891Y017074D01*
X012774Y016956D01*
X012774Y016434D01*
X012891Y016317D01*
X013413Y016317D01*
X013511Y016415D01*
X021183Y016415D01*
X022439Y015809D01*
X021868Y015809D01*
X021699Y015739D01*
X021570Y015610D01*
X021500Y015441D01*
X021500Y015258D01*
X021570Y015089D01*
X021699Y014959D01*
X021868Y014889D01*
X022571Y014889D01*
X022740Y014959D01*
X022870Y015089D01*
X022940Y015258D01*
X022940Y015441D01*
X022874Y015599D01*
X023250Y015418D01*
X023250Y011934D01*
X023293Y011831D01*
X023371Y011753D01*
X023371Y011753D01*
X024511Y010613D01*
X024562Y010592D01*
X024500Y010441D01*
X024500Y010258D01*
X024570Y010089D01*
X024699Y009959D01*
X024868Y009889D01*
X025571Y009889D01*
X025740Y009959D01*
X025870Y010089D01*
X025940Y010258D01*
X025940Y010398D01*
X026124Y010299D01*
X026124Y010183D01*
X026022Y010081D01*
X026022Y009559D01*
X026139Y009442D01*
X026661Y009442D01*
X026778Y009559D01*
X026778Y010081D01*
X026684Y010175D01*
X026684Y010452D01*
X026688Y010494D01*
X026684Y010507D01*
X026684Y010522D01*
X026668Y010560D01*
X026656Y010600D01*
X026647Y010611D01*
X026642Y010625D01*
X026612Y010654D01*
X026586Y010686D01*
X026573Y010693D01*
X026563Y010704D01*
X026524Y010720D01*
X025859Y011077D01*
X025859Y011078D01*
X025870Y011089D01*
X025940Y011258D01*
X025940Y011441D01*
X025870Y011610D01*
X025740Y011739D01*
X025571Y011809D01*
X024868Y011809D01*
X024699Y011739D01*
X024570Y011610D01*
X024500Y011441D01*
X024500Y011416D01*
X023810Y012106D01*
X023810Y013363D01*
X024568Y012605D01*
X024500Y012441D01*
X024500Y012258D01*
X024570Y012089D01*
X024699Y011959D01*
X024868Y011889D01*
X025571Y011889D01*
X025740Y011959D01*
X025870Y012089D01*
X025940Y012258D01*
X025940Y012441D01*
X025870Y012610D01*
X025740Y012739D01*
X025571Y012809D01*
X025156Y012809D01*
X025076Y012889D01*
X025571Y012889D01*
X025740Y012959D01*
X025870Y013089D01*
X025940Y013258D01*
X025940Y013441D01*
X025870Y013610D01*
X025740Y013739D01*
X025571Y013809D01*
X025156Y013809D01*
X025076Y013889D01*
X025571Y013889D01*
X025740Y013959D01*
X025870Y014089D01*
X025940Y014258D01*
X025940Y014441D01*
X025870Y014610D01*
X025740Y014739D01*
X025571Y014809D01*
X024868Y014809D01*
X024699Y014739D01*
X024602Y014642D01*
X024602Y015056D01*
X024699Y014959D01*
X024868Y014889D01*
X025571Y014889D01*
X025740Y014959D01*
X025870Y015089D01*
X025940Y015258D01*
X025940Y015441D01*
X025870Y015610D01*
X025740Y015739D01*
X025571Y015809D01*
X024868Y015809D01*
X024699Y015739D01*
X024602Y015642D01*
X024602Y018019D01*
X024645Y018037D01*
X024805Y018197D01*
X024822Y018238D01*
X024839Y018197D01*
X024999Y018037D01*
X025209Y017950D01*
X025427Y017950D01*
X025769Y017609D01*
X025886Y017560D01*
X026134Y017560D01*
X026134Y017485D01*
X026251Y017368D01*
X027125Y017368D01*
X027242Y017485D01*
X027242Y017574D01*
X027351Y017619D01*
X027743Y018010D01*
X027899Y017945D01*
X028126Y017945D01*
X028129Y017946D01*
X029502Y016573D01*
X029502Y016569D01*
X029023Y016089D01*
X028974Y015972D01*
X028974Y014859D01*
X027448Y013333D01*
X027399Y013216D01*
X027399Y010118D01*
X027342Y010061D01*
X027342Y009539D01*
X027459Y009422D01*
X027981Y009422D01*
X028098Y009539D01*
X028098Y010061D01*
X028039Y010146D02*
X029408Y010146D01*
X029408Y010304D02*
X028039Y010304D01*
X028039Y010463D02*
X029408Y010463D01*
X029408Y010621D02*
X028039Y010621D01*
X028039Y010780D02*
X029408Y010780D01*
X029408Y010938D02*
X028039Y010938D01*
X028039Y011097D02*
X029408Y011097D01*
X029408Y011255D02*
X028039Y011255D01*
X028039Y011414D02*
X029408Y011414D01*
X029408Y011572D02*
X028039Y011572D01*
X028039Y011731D02*
X029408Y011731D01*
X029408Y011889D02*
X028039Y011889D01*
X028039Y012048D02*
X029408Y012048D01*
X029408Y012206D02*
X028039Y012206D01*
X028039Y012365D02*
X029408Y012365D01*
X029408Y012523D02*
X028039Y012523D01*
X028039Y012682D02*
X029408Y012682D01*
X029408Y012840D02*
X028039Y012840D01*
X028039Y012999D02*
X029408Y012999D01*
X029408Y013157D02*
X028176Y013157D01*
X028335Y013316D02*
X029408Y013316D01*
X029408Y013474D02*
X028493Y013474D01*
X028652Y013633D02*
X029408Y013633D01*
X029408Y013791D02*
X028810Y013791D01*
X028969Y013950D02*
X029408Y013950D01*
X029408Y014108D02*
X029127Y014108D01*
X029286Y014267D02*
X029408Y014267D01*
X028698Y014584D02*
X028387Y014584D01*
X028343Y014508D02*
X028479Y014743D01*
X028549Y015005D01*
X028549Y015276D01*
X028479Y015538D01*
X028343Y015773D01*
X028151Y015965D01*
X027917Y016100D01*
X027655Y016171D01*
X027383Y016171D01*
X027122Y016100D01*
X026887Y015965D01*
X026695Y015773D01*
X026559Y015538D01*
X026489Y015276D01*
X026489Y015005D01*
X026559Y014743D01*
X026695Y014508D01*
X026887Y014316D01*
X027122Y014181D01*
X027383Y014111D01*
X027655Y014111D01*
X027917Y014181D01*
X028151Y014316D01*
X028343Y014508D01*
X028260Y014425D02*
X028539Y014425D01*
X028381Y014267D02*
X028065Y014267D01*
X028222Y014108D02*
X025878Y014108D01*
X025940Y014267D02*
X026973Y014267D01*
X026778Y014425D02*
X025940Y014425D01*
X025880Y014584D02*
X026651Y014584D01*
X026560Y014742D02*
X025734Y014742D01*
X025598Y014901D02*
X026517Y014901D01*
X026489Y015059D02*
X025840Y015059D01*
X025923Y015218D02*
X026489Y015218D01*
X026516Y015376D02*
X025940Y015376D01*
X025901Y015535D02*
X026558Y015535D01*
X026649Y015693D02*
X025786Y015693D01*
X026773Y015852D02*
X024602Y015852D01*
X024602Y016010D02*
X026965Y016010D01*
X027376Y016169D02*
X024602Y016169D01*
X024602Y016327D02*
X029260Y016327D01*
X029102Y016169D02*
X027662Y016169D01*
X028073Y016010D02*
X028990Y016010D01*
X028974Y015852D02*
X028265Y015852D01*
X028389Y015693D02*
X028974Y015693D01*
X028974Y015535D02*
X028480Y015535D01*
X028522Y015376D02*
X028974Y015376D01*
X028974Y015218D02*
X028549Y015218D01*
X028549Y015059D02*
X028974Y015059D01*
X028974Y014901D02*
X028521Y014901D01*
X028478Y014742D02*
X028856Y014742D01*
X029968Y014742D02*
X029994Y014742D01*
X029994Y014584D02*
X029968Y014584D01*
X029968Y014425D02*
X029994Y014425D01*
X029994Y014267D02*
X029968Y014267D01*
X029968Y014108D02*
X029994Y014108D01*
X029994Y013950D02*
X029968Y013950D01*
X029968Y013791D02*
X030110Y013791D01*
X029968Y013633D02*
X037168Y013633D01*
X037168Y013791D02*
X032011Y013791D01*
X032010Y013790D02*
X032127Y013907D01*
X032127Y014064D01*
X032806Y014064D01*
X032806Y013922D01*
X032923Y013805D01*
X033561Y013805D01*
X033678Y013922D01*
X033678Y014639D01*
X033561Y014756D01*
X032923Y014756D01*
X032806Y014639D01*
X032806Y014624D01*
X032127Y014624D01*
X032127Y014781D01*
X032010Y014898D01*
X031214Y014898D01*
X031097Y014781D01*
X031097Y013907D01*
X031214Y013790D01*
X032010Y013790D01*
X032127Y013950D02*
X032806Y013950D01*
X033179Y014344D02*
X031612Y014344D01*
X031097Y014267D02*
X031024Y014267D01*
X031024Y014425D02*
X031097Y014425D01*
X031097Y014584D02*
X031024Y014584D01*
X031024Y014742D02*
X031097Y014742D01*
X030795Y014901D02*
X037168Y014901D01*
X037168Y015059D02*
X030795Y015059D01*
X030817Y015218D02*
X037168Y015218D01*
X037168Y015376D02*
X030853Y015376D01*
X030853Y015535D02*
X037168Y015535D01*
X037168Y015693D02*
X030853Y015693D01*
X030777Y015852D02*
X037168Y015852D01*
X037168Y016010D02*
X035799Y016010D01*
X035790Y015994D02*
X035814Y016035D01*
X035826Y016080D01*
X035826Y016342D01*
X035231Y016342D01*
X035231Y015924D01*
X035670Y015924D01*
X035715Y015936D01*
X035757Y015960D01*
X035790Y015994D01*
X035826Y016169D02*
X037168Y016169D01*
X037168Y016327D02*
X035826Y016327D01*
X035826Y016497D02*
X035231Y016497D01*
X035076Y016497D01*
X035076Y016914D01*
X034638Y016914D01*
X034592Y016902D01*
X034551Y016878D01*
X034518Y016845D01*
X034494Y016804D01*
X034482Y016758D01*
X034482Y016497D01*
X035076Y016497D01*
X035076Y016342D01*
X034482Y016342D01*
X034482Y016080D01*
X034494Y016035D01*
X034518Y015994D01*
X034551Y015960D01*
X034592Y015936D01*
X034638Y015924D01*
X035076Y015924D01*
X035076Y016342D01*
X035231Y016342D01*
X035231Y016497D01*
X035231Y016914D01*
X035670Y016914D01*
X035715Y016902D01*
X035757Y016878D01*
X035790Y016845D01*
X035814Y016804D01*
X035826Y016758D01*
X035826Y016497D01*
X035826Y016644D02*
X037168Y016644D01*
X037168Y016486D02*
X035231Y016486D01*
X035154Y016419D02*
X035154Y016652D01*
X035231Y016644D02*
X035076Y016644D01*
X035076Y016486D02*
X032933Y016486D01*
X032933Y016644D02*
X034482Y016644D01*
X034494Y016803D02*
X032933Y016803D01*
X032933Y016327D02*
X034482Y016327D01*
X034482Y016169D02*
X032933Y016169D01*
X032921Y016010D02*
X034508Y016010D01*
X035076Y016010D02*
X035231Y016010D01*
X035231Y016169D02*
X035076Y016169D01*
X035076Y016327D02*
X035231Y016327D01*
X035231Y016803D02*
X035076Y016803D01*
X035814Y016803D02*
X037168Y016803D01*
X037168Y016961D02*
X030188Y016961D01*
X030258Y016803D02*
X031548Y016803D01*
X032240Y016419D02*
X030592Y016419D01*
X029688Y015514D01*
X029688Y008821D01*
X030869Y007640D01*
X031247Y007610D02*
X032253Y007610D01*
X032411Y007768D02*
X031247Y007768D01*
X031222Y007927D02*
X032570Y007927D01*
X032728Y008085D02*
X030820Y008085D01*
X030661Y008244D02*
X032887Y008244D01*
X033045Y008402D02*
X030503Y008402D01*
X030344Y008561D02*
X033204Y008561D01*
X033362Y008719D02*
X030186Y008719D01*
X030027Y008878D02*
X033521Y008878D01*
X033679Y009036D02*
X029968Y009036D01*
X029968Y009195D02*
X033838Y009195D01*
X033996Y009353D02*
X029968Y009353D01*
X029968Y009512D02*
X034155Y009512D01*
X034313Y009670D02*
X029968Y009670D01*
X029968Y009829D02*
X034472Y009829D01*
X034630Y009987D02*
X029968Y009987D01*
X029968Y010146D02*
X034789Y010146D01*
X034947Y010304D02*
X029968Y010304D01*
X029968Y010463D02*
X035106Y010463D01*
X035264Y010621D02*
X029968Y010621D01*
X029968Y010780D02*
X035423Y010780D01*
X035581Y010938D02*
X029968Y010938D01*
X029968Y011097D02*
X035586Y011097D01*
X035586Y011004D02*
X035604Y010961D01*
X031382Y006739D01*
X027663Y006739D01*
X027560Y006697D01*
X025643Y004779D01*
X025571Y004809D01*
X024868Y004809D01*
X024699Y004739D01*
X024570Y004610D01*
X024500Y004441D01*
X024500Y004258D01*
X024570Y004089D01*
X024699Y003959D01*
X024868Y003889D01*
X025571Y003889D01*
X025740Y003959D01*
X025870Y004089D01*
X025940Y004258D01*
X025940Y004284D01*
X027835Y006179D01*
X031554Y006179D01*
X031657Y006222D01*
X031736Y006301D01*
X035586Y010151D01*
X035586Y010004D01*
X035604Y009961D01*
X031595Y005952D01*
X028057Y005952D01*
X027954Y005909D01*
X025762Y003717D01*
X025740Y003739D01*
X025571Y003809D01*
X024868Y003809D01*
X024699Y003739D01*
X024570Y003610D01*
X024500Y003441D01*
X024500Y003258D01*
X024570Y003089D01*
X024699Y002959D01*
X024868Y002889D01*
X025571Y002889D01*
X025740Y002959D01*
X025813Y003033D01*
X025909Y003072D01*
X025988Y003151D01*
X028229Y005392D01*
X031767Y005392D01*
X031869Y005434D01*
X031948Y005513D01*
X035586Y009151D01*
X035586Y009004D01*
X035673Y008794D01*
X035833Y008634D01*
X035903Y008605D01*
X035868Y008588D01*
X035798Y008537D01*
X035737Y008476D01*
X035686Y008406D01*
X035647Y008328D01*
X035620Y008246D01*
X035606Y008161D01*
X035606Y008137D01*
X036136Y008137D01*
X036136Y008097D01*
X035606Y008097D01*
X035606Y008074D01*
X035620Y007989D01*
X035647Y007906D01*
X035686Y007829D01*
X035737Y007759D01*
X035798Y007698D01*
X035868Y007647D01*
X035903Y007629D01*
X035833Y007601D01*
X035673Y007440D01*
X035586Y007231D01*
X035586Y007004D01*
X035673Y006794D01*
X035833Y006634D01*
X036043Y006547D01*
X036270Y006547D01*
X036479Y006634D01*
X036640Y006794D01*
X036726Y007004D01*
X036726Y007231D01*
X036640Y007440D01*
X036479Y007601D01*
X036410Y007629D01*
X036445Y007647D01*
X036515Y007698D01*
X036576Y007759D01*
X036627Y007829D01*
X036666Y007906D01*
X036693Y007989D01*
X036706Y008074D01*
X036706Y008097D01*
X036176Y008097D01*
X036176Y008137D01*
X036706Y008137D01*
X036706Y008161D01*
X036693Y008246D01*
X036666Y008328D01*
X036627Y008406D01*
X036576Y008476D01*
X036515Y008537D01*
X036445Y008588D01*
X036410Y008605D01*
X036479Y008634D01*
X036640Y008794D01*
X036726Y009004D01*
X036726Y009231D01*
X036640Y009440D01*
X036479Y009601D01*
X036439Y009617D01*
X036479Y009634D01*
X036640Y009794D01*
X036726Y010004D01*
X036726Y010231D01*
X036640Y010440D01*
X036479Y010601D01*
X036439Y010617D01*
X036479Y010634D01*
X036640Y010794D01*
X036726Y011004D01*
X036726Y011231D01*
X036640Y011440D01*
X036479Y011601D01*
X036439Y011617D01*
X036479Y011634D01*
X036640Y011794D01*
X036726Y012004D01*
X036726Y012231D01*
X036640Y012440D01*
X036479Y012601D01*
X036270Y012687D01*
X036043Y012687D01*
X035833Y012601D01*
X035673Y012440D01*
X035586Y012231D01*
X035586Y012004D01*
X035673Y011794D01*
X035833Y011634D01*
X035874Y011617D01*
X035833Y011601D01*
X035673Y011440D01*
X035586Y011231D01*
X035586Y011004D01*
X035596Y011255D02*
X029968Y011255D01*
X029968Y011414D02*
X035662Y011414D01*
X035805Y011572D02*
X029968Y011572D01*
X029968Y011731D02*
X035737Y011731D01*
X035634Y011889D02*
X029968Y011889D01*
X029968Y012048D02*
X035586Y012048D01*
X035586Y012206D02*
X029968Y012206D01*
X029968Y012365D02*
X035642Y012365D01*
X035756Y012523D02*
X029968Y012523D01*
X029968Y012682D02*
X036029Y012682D01*
X036284Y012682D02*
X037168Y012682D01*
X037168Y012840D02*
X029968Y012840D01*
X029968Y012999D02*
X037168Y012999D01*
X037168Y013157D02*
X029968Y013157D01*
X029968Y013316D02*
X037168Y013316D01*
X037168Y013474D02*
X029968Y013474D01*
X030909Y013791D02*
X031212Y013791D01*
X031097Y013950D02*
X031024Y013950D01*
X031024Y014108D02*
X031097Y014108D01*
X030509Y014344D02*
X030475Y014378D01*
X030155Y014901D02*
X029968Y014901D01*
X029968Y015059D02*
X030155Y015059D01*
X030133Y015218D02*
X029968Y015218D01*
X029968Y015376D02*
X030097Y015376D01*
X030579Y016010D02*
X031560Y016010D01*
X030421Y016644D02*
X030258Y016644D01*
X030258Y016486D02*
X030263Y016486D01*
X029880Y016494D02*
X029880Y016630D01*
X029880Y016648D01*
X029431Y016644D02*
X024602Y016644D01*
X024602Y016486D02*
X029419Y016486D01*
X029273Y016803D02*
X024602Y016803D01*
X024602Y016961D02*
X029114Y016961D01*
X028956Y017120D02*
X024602Y017120D01*
X024602Y017278D02*
X028797Y017278D01*
X028639Y017437D02*
X027194Y017437D01*
X027294Y017595D02*
X028480Y017595D01*
X028322Y017754D02*
X027486Y017754D01*
X027645Y017912D02*
X028163Y017912D01*
X027170Y017890D02*
X026695Y017890D01*
X026688Y017883D01*
X026685Y017880D01*
X026134Y018229D02*
X026054Y018229D01*
X025895Y018388D02*
X026241Y018388D01*
X026264Y018502D02*
X026310Y018490D01*
X026610Y018490D01*
X026610Y018908D01*
X026154Y018908D01*
X026154Y018646D01*
X026166Y018601D01*
X026190Y018560D01*
X026223Y018526D01*
X026264Y018502D01*
X026203Y018546D02*
X025892Y018546D01*
X025863Y018705D02*
X026154Y018705D01*
X026154Y018863D02*
X025785Y018863D01*
X025601Y019022D02*
X026610Y019022D01*
X026610Y019063D02*
X026610Y018908D01*
X026765Y018908D01*
X026765Y018490D01*
X027066Y018490D01*
X027112Y018502D01*
X027153Y018526D01*
X027186Y018560D01*
X027210Y018601D01*
X027222Y018646D01*
X027222Y018908D01*
X026765Y018908D01*
X026765Y019063D01*
X027222Y019063D01*
X027222Y019324D01*
X027210Y019370D01*
X027186Y019411D01*
X027153Y019444D01*
X027140Y019451D01*
X035199Y019451D01*
X035199Y017483D01*
X037168Y017483D01*
X037168Y002916D01*
X035199Y002916D01*
X035199Y000554D01*
X002916Y000554D01*
X002916Y002522D01*
X000554Y002522D01*
X000554Y017089D01*
X002916Y017089D01*
X002916Y019451D01*
X026236Y019451D01*
X026223Y019444D01*
X026190Y019411D01*
X026166Y019370D01*
X026154Y019324D01*
X026154Y019063D01*
X026610Y019063D01*
X026538Y019135D02*
X026538Y019180D01*
X026538Y019135D02*
X026688Y018985D01*
X026765Y019022D02*
X027746Y019022D01*
X027554Y018863D02*
X027222Y018863D01*
X027222Y018705D02*
X027474Y018705D01*
X027373Y018546D02*
X027173Y018546D01*
X027135Y018388D02*
X027215Y018388D01*
X027795Y018515D02*
X028013Y018515D01*
X028471Y018863D02*
X028554Y018863D01*
X028746Y019022D02*
X028280Y019022D01*
X027222Y019180D02*
X035199Y019180D01*
X035199Y019022D02*
X031230Y019022D01*
X031033Y019022D02*
X030993Y019022D01*
X030993Y018863D02*
X031033Y018863D01*
X031033Y018705D02*
X030993Y018705D01*
X030993Y018546D02*
X031033Y018546D01*
X031020Y018523D02*
X031020Y019180D01*
X030795Y019022D02*
X030280Y019022D01*
X030471Y018863D02*
X030585Y018863D01*
X031013Y018515D02*
X031020Y018523D01*
X031033Y018495D02*
X031563Y018495D01*
X031563Y018472D01*
X031549Y018386D01*
X031522Y018304D01*
X031483Y018227D01*
X031432Y018157D01*
X031371Y018096D01*
X031301Y018045D01*
X031224Y018005D01*
X031141Y017979D01*
X031056Y017965D01*
X031033Y017965D01*
X031033Y018495D01*
X031033Y018388D02*
X030993Y018388D01*
X030993Y018229D02*
X031033Y018229D01*
X031033Y018071D02*
X030993Y018071D01*
X030689Y018071D02*
X030374Y018071D01*
X030511Y018229D02*
X030541Y018229D01*
X029651Y018071D02*
X029374Y018071D01*
X029511Y018229D02*
X029514Y018229D01*
X029068Y017912D02*
X035199Y017912D01*
X035199Y017754D02*
X029227Y017754D01*
X029385Y017595D02*
X035199Y017595D01*
X035199Y018071D02*
X031336Y018071D01*
X031484Y018229D02*
X035199Y018229D01*
X035199Y018388D02*
X031549Y018388D01*
X031563Y018546D02*
X035199Y018546D01*
X035199Y018705D02*
X031529Y018705D01*
X031440Y018863D02*
X035199Y018863D01*
X035199Y019339D02*
X027218Y019339D01*
X026765Y018863D02*
X026610Y018863D01*
X026610Y018705D02*
X026765Y018705D01*
X026765Y018546D02*
X026610Y018546D01*
X026154Y019180D02*
X016108Y019180D01*
X016070Y019218D02*
X016187Y019101D01*
X016187Y018944D01*
X017124Y018944D01*
X017222Y019042D01*
X017744Y019042D01*
X017861Y018925D01*
X017861Y018403D01*
X017744Y018286D01*
X017222Y018286D01*
X017124Y018384D01*
X016187Y018384D01*
X016187Y018227D01*
X016070Y018110D01*
X015274Y018110D01*
X015157Y018227D01*
X015157Y019101D01*
X015274Y019218D01*
X016070Y019218D01*
X016187Y019022D02*
X017201Y019022D01*
X017483Y018664D02*
X015672Y018664D01*
X015157Y018705D02*
X015084Y018705D01*
X015084Y018863D02*
X015157Y018863D01*
X015157Y019022D02*
X015084Y019022D01*
X015084Y019101D02*
X014967Y019218D01*
X014172Y019218D01*
X014054Y019101D01*
X014054Y018944D01*
X013391Y018944D01*
X013391Y019022D01*
X013274Y019140D01*
X012636Y019140D01*
X012519Y019022D01*
X012519Y018306D01*
X012636Y018188D01*
X013274Y018188D01*
X013391Y018306D01*
X013391Y018384D01*
X014054Y018384D01*
X014054Y018227D01*
X014172Y018110D01*
X014967Y018110D01*
X015084Y018227D01*
X015084Y019101D01*
X015005Y019180D02*
X015236Y019180D01*
X014569Y018664D02*
X012955Y018664D01*
X012519Y018705D02*
X012190Y018705D01*
X012190Y018702D02*
X012190Y018963D01*
X012178Y019009D01*
X012154Y019050D01*
X012121Y019084D01*
X012080Y019107D01*
X012034Y019120D01*
X011812Y019120D01*
X011812Y018702D01*
X011736Y018702D01*
X011736Y018626D01*
X011358Y018626D01*
X011358Y018365D01*
X011370Y018319D01*
X011394Y018278D01*
X011427Y018244D01*
X011468Y018221D01*
X011514Y018208D01*
X011736Y018208D01*
X011736Y018626D01*
X011812Y018626D01*
X011812Y018208D01*
X012034Y018208D01*
X012080Y018221D01*
X012121Y018244D01*
X012154Y018278D01*
X012178Y018319D01*
X012190Y018365D01*
X012190Y018626D01*
X011812Y018626D01*
X011812Y018702D01*
X012190Y018702D01*
X012190Y018546D02*
X012519Y018546D01*
X012519Y018388D02*
X012190Y018388D01*
X012094Y018229D02*
X012596Y018229D01*
X013315Y018229D02*
X014054Y018229D01*
X015084Y018229D02*
X015157Y018229D01*
X015157Y018388D02*
X015084Y018388D01*
X015084Y018546D02*
X015157Y018546D01*
X016187Y018229D02*
X021854Y018229D01*
X021852Y018232D02*
X021903Y018162D01*
X021964Y018101D01*
X022034Y018050D01*
X022111Y018011D01*
X022193Y017984D01*
X022279Y017970D01*
X022302Y017970D01*
X022302Y018500D01*
X021772Y018500D01*
X021772Y018477D01*
X021786Y018391D01*
X021812Y018309D01*
X021852Y018232D01*
X021787Y018388D02*
X017845Y018388D01*
X017861Y018546D02*
X021772Y018546D01*
X021772Y018540D02*
X022302Y018540D01*
X022302Y019070D01*
X022279Y019070D01*
X022193Y019057D01*
X022111Y019030D01*
X022034Y018991D01*
X021964Y018940D01*
X021903Y018879D01*
X021852Y018808D01*
X021812Y018731D01*
X021786Y018649D01*
X021772Y018564D01*
X021772Y018540D01*
X021804Y018705D02*
X017861Y018705D01*
X017861Y018863D02*
X021891Y018863D01*
X022094Y019022D02*
X017764Y019022D01*
X014133Y019180D02*
X002916Y019180D01*
X002916Y019022D02*
X007070Y019022D01*
X007017Y018969D02*
X007134Y019086D01*
X007773Y019086D01*
X007890Y018969D01*
X007890Y018252D01*
X007773Y018135D01*
X007134Y018135D01*
X007017Y018252D01*
X007017Y018384D01*
X006575Y018384D01*
X006346Y018154D01*
X006346Y017448D01*
X006444Y017350D01*
X006444Y016828D01*
X006326Y016711D01*
X005805Y016711D01*
X005687Y016828D01*
X005687Y017350D01*
X005786Y017448D01*
X005786Y018326D01*
X005828Y018429D01*
X005907Y018508D01*
X006301Y018901D01*
X006404Y018944D01*
X007017Y018944D01*
X007017Y018969D01*
X007400Y018664D02*
X006459Y018664D01*
X006066Y018270D01*
X006066Y017089D01*
X006444Y017120D02*
X008305Y017120D01*
X008305Y017278D02*
X006444Y017278D01*
X006357Y017437D02*
X008305Y017437D01*
X008305Y017595D02*
X006346Y017595D01*
X006346Y017754D02*
X008305Y017754D01*
X008305Y017912D02*
X006346Y017912D01*
X006346Y018071D02*
X008305Y018071D01*
X008305Y018145D02*
X008305Y016856D01*
X008187Y016856D01*
X008070Y016739D01*
X008070Y015865D01*
X008187Y015747D01*
X008983Y015747D01*
X009100Y015865D01*
X009100Y016739D01*
X008983Y016856D01*
X008865Y016856D01*
X008865Y018135D01*
X008954Y018135D01*
X009071Y018252D01*
X009071Y018969D01*
X008954Y019086D01*
X008316Y019086D01*
X008198Y018969D01*
X008198Y018252D01*
X008305Y018145D01*
X008221Y018229D02*
X007867Y018229D01*
X007890Y018388D02*
X008198Y018388D01*
X008198Y018546D02*
X007890Y018546D01*
X007890Y018705D02*
X008198Y018705D01*
X008198Y018863D02*
X007890Y018863D01*
X007837Y019022D02*
X008251Y019022D01*
X008635Y018610D02*
X008585Y018561D01*
X008585Y016302D01*
X008070Y016327D02*
X007560Y016327D01*
X007560Y016379D02*
X007978Y016379D01*
X007978Y016680D01*
X007966Y016726D01*
X007942Y016767D01*
X007908Y016800D01*
X007867Y016824D01*
X007821Y016836D01*
X007560Y016836D01*
X007560Y016379D01*
X007405Y016379D01*
X007405Y016224D01*
X006988Y016224D01*
X006988Y015924D01*
X007000Y015878D01*
X007024Y015837D01*
X007057Y015803D01*
X007098Y015780D01*
X007144Y015767D01*
X007405Y015767D01*
X007405Y016224D01*
X007560Y016224D01*
X007560Y015767D01*
X007821Y015767D01*
X007867Y015780D01*
X007908Y015803D01*
X007942Y015837D01*
X007966Y015878D01*
X007978Y015924D01*
X007978Y016224D01*
X007560Y016224D01*
X007560Y016379D01*
X007560Y016486D02*
X007405Y016486D01*
X007405Y016379D02*
X007405Y016836D01*
X007144Y016836D01*
X007098Y016824D01*
X007057Y016800D01*
X007024Y016767D01*
X007000Y016726D01*
X006988Y016680D01*
X006988Y016379D01*
X007405Y016379D01*
X007405Y016327D02*
X000554Y016327D01*
X000554Y016169D02*
X006988Y016169D01*
X006988Y016010D02*
X000554Y016010D01*
X000554Y015852D02*
X007015Y015852D01*
X007405Y015852D02*
X007560Y015852D01*
X007560Y016010D02*
X007405Y016010D01*
X007405Y016169D02*
X007560Y016169D01*
X007483Y016302D02*
X004653Y016302D01*
X003557Y015205D01*
X003624Y015218D02*
X018421Y015218D01*
X018421Y015276D02*
X018421Y015005D01*
X018492Y014743D01*
X018627Y014508D01*
X018819Y014316D01*
X019054Y014181D01*
X019316Y014111D01*
X019587Y014111D01*
X019849Y014181D01*
X020084Y014316D01*
X020275Y014508D01*
X020411Y014743D01*
X020481Y015005D01*
X020481Y015276D01*
X020411Y015538D01*
X020275Y015773D01*
X020084Y015965D01*
X019849Y016100D01*
X019587Y016171D01*
X019316Y016171D01*
X019054Y016100D01*
X018819Y015965D01*
X018627Y015773D01*
X018492Y015538D01*
X018421Y015276D01*
X018448Y015376D02*
X004156Y015376D01*
X004164Y015351D02*
X004134Y015444D01*
X004090Y015532D01*
X004032Y015611D01*
X003963Y015680D01*
X003883Y015738D01*
X003796Y015782D01*
X003703Y015813D01*
X003624Y015825D01*
X003624Y015273D01*
X003489Y015273D01*
X003489Y015825D01*
X003411Y015813D01*
X003318Y015782D01*
X003230Y015738D01*
X003151Y015680D01*
X003082Y015611D01*
X003024Y015532D01*
X002980Y015444D01*
X002949Y015351D01*
X002937Y015273D01*
X003489Y015273D01*
X003489Y015137D01*
X003624Y015137D01*
X003624Y014585D01*
X003703Y014598D01*
X003796Y014628D01*
X003883Y014672D01*
X003963Y014730D01*
X004032Y014799D01*
X004090Y014879D01*
X004134Y014966D01*
X004164Y015059D01*
X018421Y015059D01*
X018449Y014901D02*
X004101Y014901D01*
X004164Y015059D02*
X004177Y015137D01*
X003624Y015137D01*
X003624Y015273D01*
X004177Y015273D01*
X004164Y015351D01*
X004087Y015535D02*
X018491Y015535D01*
X018581Y015693D02*
X003945Y015693D01*
X003624Y015693D02*
X003489Y015693D01*
X003489Y015535D02*
X003624Y015535D01*
X003624Y015376D02*
X003489Y015376D01*
X003489Y015218D02*
X001624Y015218D01*
X001624Y015273D02*
X002177Y015273D01*
X002164Y015351D01*
X002134Y015444D01*
X002090Y015532D01*
X002032Y015611D01*
X001963Y015680D01*
X001883Y015738D01*
X001796Y015782D01*
X001703Y015813D01*
X001624Y015825D01*
X001624Y015273D01*
X001489Y015273D01*
X001489Y015825D01*
X001411Y015813D01*
X001318Y015782D01*
X001230Y015738D01*
X001151Y015680D01*
X001082Y015611D01*
X001024Y015532D01*
X000980Y015444D01*
X000949Y015351D01*
X000937Y015273D01*
X001489Y015273D01*
X001489Y015137D01*
X001624Y015137D01*
X001624Y014585D01*
X001703Y014598D01*
X001796Y014628D01*
X001883Y014672D01*
X001963Y014730D01*
X002032Y014799D01*
X002090Y014879D01*
X002134Y014966D01*
X002164Y015059D01*
X002949Y015059D01*
X002980Y014966D01*
X003024Y014879D01*
X003082Y014799D01*
X003151Y014730D01*
X003230Y014672D01*
X003318Y014628D01*
X003411Y014598D01*
X003489Y014585D01*
X003489Y015137D01*
X002937Y015137D01*
X002949Y015059D01*
X003013Y014901D02*
X002101Y014901D01*
X002164Y015059D02*
X002177Y015137D01*
X001624Y015137D01*
X001624Y015273D01*
X001624Y015376D02*
X001489Y015376D01*
X001489Y015218D02*
X000554Y015218D01*
X000554Y015376D02*
X000957Y015376D01*
X001026Y015535D02*
X000554Y015535D01*
X000554Y015693D02*
X001169Y015693D01*
X001489Y015693D02*
X001624Y015693D01*
X001624Y015535D02*
X001489Y015535D01*
X001489Y015137D02*
X000937Y015137D01*
X000949Y015059D01*
X000554Y015059D01*
X000554Y014901D02*
X001013Y014901D01*
X001024Y014879D02*
X001082Y014799D01*
X001151Y014730D01*
X001230Y014672D01*
X001318Y014628D01*
X001411Y014598D01*
X001489Y014585D01*
X001489Y015137D01*
X001489Y015059D02*
X001624Y015059D01*
X001624Y014901D02*
X001489Y014901D01*
X001489Y014742D02*
X001624Y014742D01*
X001975Y014742D02*
X003139Y014742D01*
X002979Y014490D02*
X002840Y014629D01*
X002656Y014705D01*
X002457Y014705D01*
X002274Y014629D01*
X002133Y014488D01*
X002057Y014305D01*
X002057Y014106D01*
X002133Y013922D01*
X002274Y013781D01*
X002457Y013705D01*
X002656Y013705D01*
X002840Y013781D01*
X002981Y013922D01*
X002984Y013930D01*
X009890Y013930D01*
X009914Y013920D01*
X010004Y013920D01*
X010018Y013906D01*
X010018Y013679D01*
X010135Y013561D01*
X010657Y013561D01*
X010774Y013679D01*
X010774Y014200D01*
X010657Y014318D01*
X010398Y014318D01*
X010279Y014437D01*
X010176Y014480D01*
X010040Y014480D01*
X010016Y014490D01*
X002979Y014490D01*
X002886Y014584D02*
X018584Y014584D01*
X018492Y014742D02*
X003975Y014742D01*
X003624Y014742D02*
X003489Y014742D01*
X003489Y014901D02*
X003624Y014901D01*
X003624Y015059D02*
X003489Y015059D01*
X002957Y015376D02*
X002156Y015376D01*
X002087Y015535D02*
X003026Y015535D01*
X003169Y015693D02*
X001945Y015693D01*
X000949Y015059D02*
X000980Y014966D01*
X001024Y014879D01*
X001139Y014742D02*
X000554Y014742D01*
X000554Y014584D02*
X002228Y014584D01*
X002107Y014425D02*
X000554Y014425D01*
X000554Y014267D02*
X002057Y014267D01*
X002057Y014108D02*
X000554Y014108D01*
X000554Y013950D02*
X002122Y013950D01*
X002264Y013791D02*
X001769Y013791D01*
X001796Y013782D02*
X001703Y013813D01*
X001624Y013825D01*
X001624Y013273D01*
X001489Y013273D01*
X001489Y013825D01*
X001411Y013813D01*
X001318Y013782D01*
X001230Y013738D01*
X001151Y013680D01*
X001082Y013611D01*
X001024Y013532D01*
X000980Y013444D01*
X000949Y013351D01*
X000937Y013273D01*
X001489Y013273D01*
X001489Y013137D01*
X001624Y013137D01*
X001624Y012585D01*
X001703Y012598D01*
X001796Y012628D01*
X001883Y012672D01*
X001963Y012730D01*
X002032Y012799D01*
X002090Y012879D01*
X002134Y012966D01*
X002164Y013059D01*
X002177Y013137D01*
X001624Y013137D01*
X001624Y013273D01*
X002177Y013273D01*
X002164Y013351D01*
X002134Y013444D01*
X002090Y013532D01*
X002032Y013611D01*
X001963Y013680D01*
X001883Y013738D01*
X001796Y013782D01*
X001624Y013791D02*
X001489Y013791D01*
X001344Y013791D02*
X000554Y013791D01*
X000554Y013633D02*
X001103Y013633D01*
X000995Y013474D02*
X000554Y013474D01*
X000554Y013316D02*
X000944Y013316D01*
X000937Y013137D02*
X000949Y013059D01*
X000980Y012966D01*
X001024Y012879D01*
X001082Y012799D01*
X001151Y012730D01*
X001230Y012672D01*
X001318Y012628D01*
X001411Y012598D01*
X001489Y012585D01*
X001489Y013137D01*
X000937Y013137D01*
X000969Y012999D02*
X000554Y012999D01*
X000554Y013157D02*
X001489Y013157D01*
X001624Y013157D02*
X003489Y013157D01*
X003489Y013137D02*
X002937Y013137D01*
X002949Y013059D01*
X002980Y012966D01*
X003024Y012879D01*
X003082Y012799D01*
X003151Y012730D01*
X003230Y012672D01*
X003318Y012628D01*
X003411Y012598D01*
X003489Y012585D01*
X003489Y013137D01*
X003624Y013137D01*
X003624Y012585D01*
X003703Y012598D01*
X003796Y012628D01*
X003883Y012672D01*
X003963Y012730D01*
X004032Y012799D01*
X004090Y012879D01*
X004134Y012966D01*
X004164Y013059D01*
X004177Y013137D01*
X003624Y013137D01*
X003624Y013273D01*
X003489Y013273D01*
X003489Y013825D01*
X003411Y013813D01*
X003318Y013782D01*
X003230Y013738D01*
X003151Y013680D01*
X003082Y013611D01*
X003024Y013532D01*
X002980Y013444D01*
X002949Y013351D01*
X002937Y013273D01*
X003489Y013273D01*
X003489Y013137D01*
X003624Y013157D02*
X021029Y013157D01*
X021187Y013316D02*
X004170Y013316D01*
X004164Y013351D02*
X004134Y013444D01*
X004090Y013532D01*
X004032Y013611D01*
X003963Y013680D01*
X003883Y013738D01*
X003796Y013782D01*
X003703Y013813D01*
X003624Y013825D01*
X003624Y013273D01*
X004177Y013273D01*
X004164Y013351D01*
X004119Y013474D02*
X021346Y013474D01*
X021380Y013508D02*
X018820Y010949D01*
X018778Y010846D01*
X018778Y010755D01*
X018680Y010657D01*
X018680Y010135D01*
X018797Y010018D01*
X019319Y010018D01*
X019436Y010135D01*
X019436Y010657D01*
X019378Y010715D01*
X021661Y012997D01*
X021699Y012959D01*
X021868Y012889D01*
X022571Y012889D01*
X022740Y012959D01*
X022870Y013089D01*
X022940Y013258D01*
X022940Y013441D01*
X022870Y013610D01*
X022740Y013739D01*
X022571Y013809D01*
X021868Y013809D01*
X021699Y013739D01*
X021589Y013629D01*
X021561Y013629D01*
X021458Y013587D01*
X021380Y013508D01*
X021592Y013633D02*
X010728Y013633D01*
X010774Y013791D02*
X021824Y013791D01*
X021868Y013889D02*
X021699Y013959D01*
X021570Y014089D01*
X021500Y014258D01*
X021500Y014441D01*
X021570Y014610D01*
X021699Y014739D01*
X021868Y014809D01*
X022571Y014809D01*
X022740Y014739D01*
X022870Y014610D01*
X022940Y014441D01*
X022940Y014258D01*
X022870Y014089D01*
X022740Y013959D01*
X022571Y013889D01*
X021868Y013889D01*
X021723Y013950D02*
X010774Y013950D01*
X010774Y014108D02*
X021562Y014108D01*
X021500Y014267D02*
X019997Y014267D01*
X020192Y014425D02*
X021500Y014425D01*
X021559Y014584D02*
X020319Y014584D01*
X020410Y014742D02*
X021706Y014742D01*
X021841Y014901D02*
X020453Y014901D01*
X020481Y015059D02*
X021599Y015059D01*
X021516Y015218D02*
X020481Y015218D01*
X020455Y015376D02*
X021500Y015376D01*
X021538Y015535D02*
X020412Y015535D01*
X020322Y015693D02*
X021653Y015693D01*
X021695Y016169D02*
X019594Y016169D01*
X019308Y016169D02*
X009100Y016169D01*
X009100Y016327D02*
X012881Y016327D01*
X012774Y016486D02*
X009100Y016486D01*
X009100Y016644D02*
X012774Y016644D01*
X012774Y016803D02*
X009037Y016803D01*
X008865Y016961D02*
X012779Y016961D01*
X013152Y016695D02*
X021247Y016695D01*
X023530Y015594D01*
X023530Y011990D01*
X024670Y010850D01*
X025690Y010850D01*
X026404Y010466D01*
X026404Y009986D01*
X026400Y009820D01*
X026778Y009829D02*
X027342Y009829D01*
X027342Y009987D02*
X026778Y009987D01*
X026714Y010146D02*
X027399Y010146D01*
X027399Y010304D02*
X026684Y010304D01*
X026685Y010463D02*
X027399Y010463D01*
X027399Y010621D02*
X026643Y010621D01*
X026413Y010780D02*
X027399Y010780D01*
X027399Y010938D02*
X026118Y010938D01*
X025873Y011097D02*
X027399Y011097D01*
X027399Y011255D02*
X025938Y011255D01*
X025940Y011414D02*
X027399Y011414D01*
X027399Y011572D02*
X025885Y011572D01*
X025749Y011731D02*
X027399Y011731D01*
X027399Y011889D02*
X024027Y011889D01*
X024185Y011731D02*
X024690Y011731D01*
X024554Y011572D02*
X024344Y011572D01*
X023869Y011255D02*
X022938Y011255D01*
X022940Y011258D02*
X022940Y011441D01*
X022870Y011610D01*
X022740Y011739D01*
X022571Y011809D01*
X021868Y011809D01*
X021699Y011739D01*
X021570Y011610D01*
X021500Y011441D01*
X021500Y011266D01*
X021008Y010774D01*
X020765Y010774D01*
X020648Y010657D01*
X020648Y010135D01*
X020765Y010018D01*
X021287Y010018D01*
X021404Y010135D01*
X021404Y010378D01*
X021523Y010497D01*
X021500Y010441D01*
X021500Y010258D01*
X021570Y010089D01*
X021699Y009959D01*
X021868Y009889D01*
X022571Y009889D01*
X022740Y009959D01*
X022870Y010089D01*
X022940Y010258D01*
X022940Y010441D01*
X022870Y010610D01*
X022740Y010739D01*
X022571Y010809D01*
X021868Y010809D01*
X021812Y010786D01*
X021915Y010889D01*
X022571Y010889D01*
X022740Y010959D01*
X022870Y011089D01*
X022940Y011258D01*
X022940Y011414D02*
X023711Y011414D01*
X023552Y011572D02*
X022885Y011572D01*
X022749Y011731D02*
X023394Y011731D01*
X023269Y011889D02*
X021734Y011889D01*
X021773Y011929D02*
X021868Y011889D01*
X022571Y011889D01*
X022740Y011959D01*
X022870Y012089D01*
X022940Y012258D01*
X022940Y012441D01*
X022870Y012610D01*
X022740Y012739D01*
X022571Y012809D01*
X021868Y012809D01*
X021699Y012739D01*
X021570Y012610D01*
X021504Y012451D01*
X019827Y010774D01*
X019584Y010774D01*
X019467Y010657D01*
X019467Y010135D01*
X019584Y010018D01*
X020106Y010018D01*
X020223Y010135D01*
X020223Y010378D01*
X021773Y011929D01*
X021690Y011731D02*
X021575Y011731D01*
X021554Y011572D02*
X021417Y011572D01*
X021500Y011414D02*
X021258Y011414D01*
X021100Y011255D02*
X021489Y011255D01*
X021330Y011097D02*
X020941Y011097D01*
X020783Y010938D02*
X021172Y010938D01*
X021013Y010780D02*
X020624Y010780D01*
X020648Y010621D02*
X020466Y010621D01*
X020307Y010463D02*
X020648Y010463D01*
X020648Y010304D02*
X020223Y010304D01*
X020223Y010146D02*
X020648Y010146D01*
X021026Y010396D02*
X021979Y011349D01*
X022220Y011349D01*
X022689Y010938D02*
X024186Y010938D01*
X024345Y010780D02*
X022643Y010780D01*
X022858Y010621D02*
X024503Y010621D01*
X024509Y010463D02*
X022931Y010463D01*
X022940Y010304D02*
X024500Y010304D01*
X024546Y010146D02*
X022893Y010146D01*
X022768Y009987D02*
X024671Y009987D01*
X024791Y009757D02*
X024729Y009726D01*
X024673Y009685D01*
X024624Y009636D01*
X024583Y009580D01*
X024552Y009518D01*
X024530Y009452D01*
X024520Y009384D01*
X024520Y009349D01*
X024520Y009315D01*
X024530Y009246D01*
X024552Y009180D01*
X024583Y009119D01*
X024624Y009063D01*
X024673Y009014D01*
X024729Y008973D01*
X024791Y008942D01*
X024857Y008920D01*
X024925Y008909D01*
X025220Y008909D01*
X025514Y008909D01*
X025583Y008920D01*
X025649Y008942D01*
X025710Y008973D01*
X025766Y009014D01*
X025815Y009063D01*
X025856Y009119D01*
X025887Y009180D01*
X025909Y009246D01*
X025920Y009315D01*
X025920Y009349D01*
X025220Y009349D01*
X025220Y009349D01*
X025220Y008909D01*
X025220Y009349D01*
X025220Y009349D01*
X025920Y009349D01*
X025920Y009384D01*
X025909Y009452D01*
X025887Y009518D01*
X025856Y009580D01*
X025815Y009636D01*
X025766Y009685D01*
X025710Y009726D01*
X025649Y009757D01*
X025583Y009778D01*
X025514Y009789D01*
X025220Y009789D01*
X025220Y009349D01*
X027585Y009349D01*
X027584Y009350D01*
X025240Y009350D01*
X025220Y009349D02*
X025220Y009349D01*
X024520Y009349D01*
X025220Y009349D01*
X025220Y009349D01*
X025220Y009789D01*
X024925Y009789D01*
X024857Y009778D01*
X024791Y009757D01*
X024658Y009670D02*
X022809Y009670D01*
X022870Y009610D02*
X022740Y009739D01*
X022571Y009809D01*
X021868Y009809D01*
X021699Y009739D01*
X021570Y009610D01*
X021500Y009441D01*
X021500Y009258D01*
X021570Y009089D01*
X021699Y008959D01*
X021868Y008889D01*
X022571Y008889D01*
X022740Y008959D01*
X022870Y009089D01*
X022940Y009258D01*
X022940Y009441D01*
X022870Y009610D01*
X022910Y009512D02*
X024550Y009512D01*
X024520Y009353D02*
X022940Y009353D01*
X022913Y009195D02*
X024547Y009195D01*
X024651Y009036D02*
X022817Y009036D01*
X022649Y008757D02*
X022583Y008778D01*
X022514Y008789D01*
X022220Y008789D01*
X022220Y008349D01*
X022220Y008349D01*
X022920Y008349D01*
X022920Y008315D01*
X022909Y008246D01*
X022887Y008180D01*
X022862Y008130D01*
X023775Y008130D01*
X023878Y008087D01*
X023956Y008009D01*
X024507Y007458D01*
X024570Y007610D01*
X024699Y007739D01*
X024868Y007809D01*
X025571Y007809D01*
X025740Y007739D01*
X025870Y007610D01*
X025940Y007441D01*
X025940Y007258D01*
X025870Y007089D01*
X025740Y006959D01*
X025571Y006889D01*
X025076Y006889D01*
X025156Y006809D01*
X025571Y006809D01*
X025740Y006739D01*
X025870Y006610D01*
X025940Y006441D01*
X025940Y006266D01*
X026124Y006411D01*
X026124Y008452D01*
X026026Y008550D01*
X026026Y009072D01*
X026143Y009190D01*
X026665Y009190D01*
X026782Y009072D01*
X026782Y008550D01*
X026684Y008452D01*
X026684Y006312D01*
X026689Y006295D01*
X026684Y006257D01*
X026684Y006218D01*
X026677Y006202D01*
X026675Y006184D01*
X026656Y006151D01*
X026642Y006115D01*
X026629Y006103D01*
X026620Y006087D01*
X026590Y006064D01*
X026563Y006037D01*
X026547Y006030D01*
X025904Y005528D01*
X025940Y005441D01*
X025940Y005258D01*
X025870Y005089D01*
X025740Y004959D01*
X025571Y004889D01*
X024868Y004889D01*
X024699Y004959D01*
X024570Y005089D01*
X024500Y005258D01*
X024500Y005441D01*
X024570Y005610D01*
X024699Y005739D01*
X024868Y005809D01*
X025354Y005809D01*
X025456Y005889D01*
X024868Y005889D01*
X024699Y005959D01*
X024570Y006089D01*
X024500Y006258D01*
X024500Y006441D01*
X024568Y006605D01*
X023603Y007570D01*
X022886Y007570D01*
X022940Y007441D01*
X022940Y007258D01*
X022870Y007089D01*
X022740Y006959D01*
X022571Y006889D01*
X021868Y006889D01*
X021699Y006959D01*
X021589Y007069D01*
X021195Y007069D01*
X021092Y007112D01*
X021013Y007191D01*
X021013Y007191D01*
X020254Y007950D01*
X017399Y007950D01*
X017301Y007852D01*
X016779Y007852D01*
X016662Y007969D01*
X016662Y008491D01*
X016779Y008608D01*
X017301Y008608D01*
X017399Y008510D01*
X020426Y008510D01*
X020474Y008490D01*
X019994Y008970D01*
X013089Y008970D01*
X012991Y008872D01*
X012469Y008872D01*
X012352Y008989D01*
X012352Y009511D01*
X012469Y009628D01*
X012991Y009628D01*
X013089Y009530D01*
X020166Y009530D01*
X020269Y009487D01*
X020347Y009409D01*
X021540Y008216D01*
X021530Y008246D01*
X021520Y008315D01*
X021520Y008349D01*
X022220Y008349D01*
X022920Y008349D01*
X022920Y008384D01*
X022909Y008452D01*
X022887Y008518D01*
X022856Y008580D01*
X022815Y008636D01*
X022766Y008685D01*
X022710Y008726D01*
X022649Y008757D01*
X022719Y008719D02*
X024679Y008719D01*
X024699Y008739D02*
X024570Y008610D01*
X024500Y008441D01*
X024500Y008258D01*
X024570Y008089D01*
X024699Y007959D01*
X024868Y007889D01*
X025571Y007889D01*
X025740Y007959D01*
X025870Y008089D01*
X025940Y008258D01*
X025940Y008441D01*
X025870Y008610D01*
X025740Y008739D01*
X025571Y008809D01*
X024868Y008809D01*
X024699Y008739D01*
X024549Y008561D02*
X022866Y008561D01*
X022917Y008402D02*
X024500Y008402D01*
X024506Y008244D02*
X022908Y008244D01*
X023270Y008330D02*
X023291Y008330D01*
X024176Y009215D01*
X025220Y009195D02*
X025220Y009195D01*
X025220Y009353D02*
X025220Y009353D01*
X025220Y009512D02*
X025220Y009512D01*
X025220Y009670D02*
X025220Y009670D01*
X025781Y009670D02*
X026022Y009670D01*
X026022Y009829D02*
X000554Y009829D01*
X000554Y009987D02*
X021671Y009987D01*
X021546Y010146D02*
X021404Y010146D01*
X021404Y010304D02*
X021500Y010304D01*
X021488Y010463D02*
X021509Y010463D01*
X022873Y011097D02*
X024028Y011097D01*
X023868Y012048D02*
X024611Y012048D01*
X024521Y012206D02*
X023810Y012206D01*
X023810Y012365D02*
X024500Y012365D01*
X024534Y012523D02*
X023810Y012523D01*
X023810Y012682D02*
X024491Y012682D01*
X024333Y012840D02*
X023810Y012840D01*
X023810Y012999D02*
X024174Y012999D01*
X024016Y013157D02*
X023810Y013157D01*
X023810Y013316D02*
X023857Y013316D01*
X023910Y013659D02*
X023910Y016690D01*
X023322Y017278D01*
X023322Y018520D01*
X022826Y018229D02*
X022790Y018229D01*
X022639Y018071D02*
X022966Y018071D01*
X023042Y017912D02*
X008865Y017912D01*
X008865Y017754D02*
X023042Y017754D01*
X023042Y017595D02*
X008865Y017595D01*
X008865Y017437D02*
X023042Y017437D01*
X023042Y017278D02*
X008865Y017278D01*
X008865Y017120D02*
X023085Y017120D01*
X023243Y016961D02*
X021341Y016961D01*
X021669Y016803D02*
X023401Y016803D01*
X023560Y016644D02*
X021998Y016644D01*
X022326Y016486D02*
X023630Y016486D01*
X023630Y016327D02*
X022655Y016327D01*
X022983Y016169D02*
X023630Y016169D01*
X023630Y016010D02*
X023312Y016010D01*
X022352Y015852D02*
X020197Y015852D01*
X020005Y016010D02*
X022023Y016010D01*
X021366Y016327D02*
X013423Y016327D01*
X011760Y014570D02*
X013600Y012730D01*
X014400Y012730D01*
X014414Y011157D02*
X014319Y011157D01*
X014231Y011120D01*
X014163Y011053D01*
X014140Y010996D01*
X014124Y010996D01*
X014091Y010983D01*
X014059Y010996D01*
X013883Y010996D01*
X013796Y010960D01*
X013762Y010975D01*
X013709Y010996D01*
X013454Y010996D01*
X013365Y010960D01*
X013364Y010958D01*
X013362Y010960D01*
X013274Y010996D01*
X012938Y010996D01*
X012850Y010960D01*
X012808Y010918D01*
X012766Y010960D01*
X012729Y010975D01*
X012678Y010996D01*
X012422Y010996D01*
X012334Y010960D01*
X012254Y010880D01*
X012187Y010812D01*
X012150Y010724D01*
X012150Y010549D01*
X012187Y010460D01*
X012230Y010417D01*
X012230Y010388D01*
X012267Y010300D01*
X012334Y010233D01*
X012422Y010196D01*
X012678Y010196D01*
X012766Y010233D01*
X012768Y010235D01*
X012770Y010233D01*
X012858Y010196D01*
X012953Y010196D01*
X013042Y010233D01*
X013066Y010257D01*
X013090Y010233D01*
X013178Y010196D01*
X013274Y010196D01*
X013362Y010233D01*
X013364Y010235D01*
X013365Y010233D01*
X013418Y010211D01*
X013454Y010196D01*
X013709Y010196D01*
X013797Y010233D01*
X013938Y010373D01*
X013968Y010300D01*
X014035Y010233D01*
X014124Y010196D01*
X014219Y010196D01*
X014269Y010217D01*
X014319Y010196D01*
X014655Y010196D01*
X014743Y010233D01*
X014823Y010313D01*
X014890Y010380D01*
X014927Y010469D01*
X014927Y010724D01*
X014912Y010760D01*
X014890Y010812D01*
X014810Y010892D01*
X014810Y010892D01*
X014743Y010960D01*
X014706Y010975D01*
X014655Y010996D01*
X014593Y010996D01*
X014570Y011053D01*
X014503Y011120D01*
X014414Y011157D01*
X014526Y011097D02*
X018968Y011097D01*
X018816Y010938D02*
X014765Y010938D01*
X014904Y010780D02*
X018778Y010780D01*
X018680Y010621D02*
X014927Y010621D01*
X014924Y010463D02*
X018680Y010463D01*
X018680Y010304D02*
X014814Y010304D01*
X013966Y010304D02*
X013869Y010304D01*
X012828Y010938D02*
X012788Y010938D01*
X012312Y010938D02*
X011757Y010938D01*
X011735Y010960D02*
X011698Y010975D01*
X011647Y010996D01*
X011311Y010996D01*
X011223Y010960D01*
X011221Y010958D01*
X011219Y010960D01*
X011183Y010975D01*
X011131Y010996D01*
X010874Y010996D01*
X010851Y011053D01*
X010784Y011120D01*
X010695Y011157D01*
X010600Y011157D01*
X010512Y011120D01*
X010444Y011053D01*
X010421Y010996D01*
X010360Y010996D01*
X010272Y010960D01*
X010192Y010880D01*
X010124Y010812D01*
X010101Y010756D01*
X010004Y010756D01*
X009916Y010720D01*
X009849Y010652D01*
X009812Y010564D01*
X009812Y010388D01*
X009849Y010300D01*
X009916Y010233D01*
X010004Y010196D01*
X010180Y010196D01*
X010230Y010217D01*
X010280Y010196D01*
X010375Y010196D01*
X010463Y010233D01*
X010488Y010257D01*
X010512Y010233D01*
X010600Y010196D01*
X010695Y010196D01*
X010745Y010217D01*
X010795Y010196D01*
X011131Y010196D01*
X011219Y010233D01*
X011261Y010275D01*
X011303Y010233D01*
X011356Y010211D01*
X011391Y010196D01*
X011727Y010196D01*
X011815Y010233D01*
X011882Y010300D01*
X011919Y010388D01*
X011919Y010484D01*
X011889Y010556D01*
X011897Y010576D01*
X011919Y010629D01*
X011919Y010724D01*
X011904Y010760D01*
X011882Y010812D01*
X011802Y010892D01*
X011802Y010892D01*
X011735Y010960D01*
X011896Y010780D02*
X012173Y010780D01*
X012150Y010621D02*
X011916Y010621D01*
X011919Y010463D02*
X012186Y010463D01*
X012265Y010304D02*
X011884Y010304D01*
X011219Y010960D02*
X011219Y010960D01*
X010807Y011097D02*
X014207Y011097D01*
X012352Y009512D02*
X000554Y009512D01*
X000554Y009670D02*
X021630Y009670D01*
X021529Y009512D02*
X020210Y009512D01*
X020403Y009353D02*
X021500Y009353D01*
X021526Y009195D02*
X020561Y009195D01*
X020720Y009036D02*
X021622Y009036D01*
X021791Y008757D02*
X021729Y008726D01*
X021673Y008685D01*
X021624Y008636D01*
X021583Y008580D01*
X021552Y008518D01*
X021530Y008452D01*
X021520Y008384D01*
X021520Y008349D01*
X022220Y008349D01*
X022220Y008349D01*
X022220Y008349D01*
X022220Y008789D01*
X021925Y008789D01*
X021857Y008778D01*
X021791Y008757D01*
X021720Y008719D02*
X021037Y008719D01*
X021195Y008561D02*
X021573Y008561D01*
X021522Y008402D02*
X021354Y008402D01*
X021512Y008244D02*
X021531Y008244D01*
X022220Y008402D02*
X022220Y008402D01*
X022220Y008561D02*
X022220Y008561D01*
X022220Y008719D02*
X022220Y008719D01*
X020878Y008878D02*
X026026Y008878D01*
X026026Y009036D02*
X025789Y009036D01*
X025892Y009195D02*
X029408Y009195D01*
X029408Y009353D02*
X025920Y009353D01*
X025890Y009512D02*
X026069Y009512D01*
X026731Y009512D02*
X027369Y009512D01*
X027342Y009670D02*
X026778Y009670D01*
X026022Y009987D02*
X025768Y009987D01*
X025893Y010146D02*
X026086Y010146D01*
X026115Y010304D02*
X025940Y010304D01*
X027585Y009349D02*
X029688Y007247D01*
X030491Y007451D02*
X026684Y007451D01*
X026684Y007293D02*
X030577Y007293D01*
X031160Y007293D02*
X031936Y007293D01*
X032094Y007451D02*
X031247Y007451D01*
X031777Y007134D02*
X026684Y007134D01*
X026684Y006976D02*
X031619Y006976D01*
X031460Y006817D02*
X026684Y006817D01*
X026684Y006659D02*
X027522Y006659D01*
X027364Y006500D02*
X026684Y006500D01*
X026684Y006342D02*
X027205Y006342D01*
X027047Y006183D02*
X026675Y006183D01*
X026540Y006025D02*
X026888Y006025D01*
X026730Y005866D02*
X026337Y005866D01*
X026134Y005708D02*
X026571Y005708D01*
X026413Y005549D02*
X025931Y005549D01*
X025940Y005391D02*
X026254Y005391D01*
X026096Y005232D02*
X025929Y005232D01*
X025937Y005074D02*
X025854Y005074D01*
X025779Y004915D02*
X025633Y004915D01*
X025220Y005349D02*
X026404Y006274D01*
X026404Y008811D01*
X026026Y008719D02*
X025760Y008719D01*
X025890Y008561D02*
X026026Y008561D01*
X025940Y008402D02*
X026124Y008402D01*
X026124Y008244D02*
X025934Y008244D01*
X025866Y008085D02*
X026124Y008085D01*
X026124Y007927D02*
X025661Y007927D01*
X025671Y007768D02*
X026124Y007768D01*
X026124Y007610D02*
X025870Y007610D01*
X025935Y007451D02*
X026124Y007451D01*
X026124Y007293D02*
X025940Y007293D01*
X025888Y007134D02*
X026124Y007134D01*
X026124Y006976D02*
X025756Y006976D01*
X025821Y006659D02*
X026124Y006659D01*
X026124Y006817D02*
X025148Y006817D01*
X024514Y006659D02*
X022821Y006659D01*
X022870Y006610D02*
X022740Y006739D01*
X022571Y006809D01*
X021868Y006809D01*
X021699Y006739D01*
X021570Y006610D01*
X021500Y006441D01*
X021500Y006258D01*
X021570Y006089D01*
X021699Y005959D01*
X021868Y005889D01*
X022571Y005889D01*
X022740Y005959D01*
X022870Y006089D01*
X022940Y006258D01*
X022940Y006441D01*
X022870Y006610D01*
X022915Y006500D02*
X024524Y006500D01*
X024500Y006342D02*
X022940Y006342D01*
X022909Y006183D02*
X024531Y006183D01*
X024634Y006025D02*
X022805Y006025D01*
X022740Y005739D02*
X022571Y005809D01*
X021868Y005809D01*
X021699Y005739D01*
X021570Y005610D01*
X021500Y005441D01*
X021500Y005258D01*
X021570Y005089D01*
X021699Y004959D01*
X021868Y004889D01*
X022571Y004889D01*
X022740Y004959D01*
X022870Y005089D01*
X022940Y005258D01*
X022940Y005441D01*
X022870Y005610D01*
X022740Y005739D01*
X022772Y005708D02*
X024667Y005708D01*
X024544Y005549D02*
X022895Y005549D01*
X022940Y005391D02*
X024500Y005391D01*
X024510Y005232D02*
X022929Y005232D01*
X022854Y005074D02*
X024585Y005074D01*
X024806Y004915D02*
X022633Y004915D01*
X022571Y004809D02*
X022740Y004739D01*
X022870Y004610D01*
X022940Y004441D01*
X022940Y004258D01*
X022870Y004089D01*
X022740Y003959D01*
X022571Y003889D01*
X021868Y003889D01*
X021699Y003959D01*
X021618Y004040D01*
X019945Y004040D01*
X020084Y003960D01*
X020275Y003768D01*
X020411Y003533D01*
X020481Y003271D01*
X020481Y003000D01*
X020411Y002738D01*
X020275Y002504D01*
X020084Y002312D01*
X019849Y002176D01*
X019587Y002106D01*
X019316Y002106D01*
X019054Y002176D01*
X018819Y002312D01*
X018627Y002504D01*
X018492Y002738D01*
X018421Y003000D01*
X018421Y003271D01*
X018492Y003533D01*
X018627Y003768D01*
X018819Y003960D01*
X018957Y004040D01*
X018076Y004040D01*
X016187Y002151D01*
X016187Y001691D01*
X016070Y001574D01*
X015274Y001574D01*
X015157Y001691D01*
X015157Y002566D01*
X015274Y002683D01*
X015927Y002683D01*
X017801Y004557D01*
X017904Y004600D01*
X021566Y004600D01*
X021570Y004610D01*
X021699Y004739D01*
X021868Y004809D01*
X022571Y004809D01*
X022699Y004757D02*
X024741Y004757D01*
X024565Y004598D02*
X022874Y004598D01*
X022940Y004440D02*
X024500Y004440D01*
X024500Y004281D02*
X022940Y004281D01*
X022884Y004123D02*
X024556Y004123D01*
X024694Y003964D02*
X022745Y003964D01*
X022740Y003739D02*
X022571Y003809D01*
X021868Y003809D01*
X021699Y003739D01*
X021570Y003610D01*
X021500Y003441D01*
X021500Y003258D01*
X021570Y003089D01*
X021699Y002959D01*
X021868Y002889D01*
X022571Y002889D01*
X022740Y002959D01*
X022870Y003089D01*
X022940Y003258D01*
X022940Y003441D01*
X022870Y003610D01*
X022740Y003739D01*
X022832Y003647D02*
X024607Y003647D01*
X024519Y003489D02*
X022920Y003489D01*
X022940Y003330D02*
X024500Y003330D01*
X024535Y003172D02*
X022904Y003172D01*
X022794Y003013D02*
X024645Y003013D01*
X024699Y002739D02*
X024868Y002809D01*
X025571Y002809D01*
X025740Y002739D01*
X025870Y002610D01*
X025940Y002441D01*
X025940Y002258D01*
X025870Y002089D01*
X025740Y001959D01*
X025571Y001889D01*
X024868Y001889D01*
X024699Y001959D01*
X024570Y002089D01*
X024500Y002258D01*
X024500Y002441D01*
X024570Y002610D01*
X024699Y002739D01*
X024656Y002696D02*
X022783Y002696D01*
X022740Y002739D02*
X022571Y002809D01*
X021868Y002809D01*
X021699Y002739D01*
X021570Y002610D01*
X021500Y002441D01*
X021500Y002258D01*
X021570Y002089D01*
X021699Y001959D01*
X021868Y001889D01*
X022571Y001889D01*
X022740Y001959D01*
X022870Y002089D01*
X022940Y002258D01*
X022940Y002441D01*
X022870Y002610D01*
X022740Y002739D01*
X022900Y002538D02*
X024540Y002538D01*
X024500Y002379D02*
X022940Y002379D01*
X022924Y002221D02*
X024515Y002221D01*
X024596Y002062D02*
X022843Y002062D01*
X022605Y001904D02*
X024834Y001904D01*
X025605Y001904D02*
X035199Y001904D01*
X035199Y002062D02*
X025843Y002062D01*
X025924Y002221D02*
X027045Y002221D01*
X027122Y002176D02*
X026887Y002312D01*
X026695Y002504D01*
X026559Y002738D01*
X026489Y003000D01*
X026489Y003271D01*
X026559Y003533D01*
X026695Y003768D01*
X026887Y003960D01*
X027122Y004096D01*
X027383Y004166D01*
X027655Y004166D01*
X027917Y004096D01*
X028151Y003960D01*
X028343Y003768D01*
X028479Y003533D01*
X028549Y003271D01*
X028549Y003000D01*
X028479Y002738D01*
X028343Y002504D01*
X028151Y002312D01*
X027917Y002176D01*
X027655Y002106D01*
X027383Y002106D01*
X027122Y002176D01*
X026819Y002379D02*
X025940Y002379D01*
X025900Y002538D02*
X026675Y002538D01*
X026584Y002696D02*
X025783Y002696D01*
X025794Y003013D02*
X026489Y003013D01*
X026489Y003172D02*
X026008Y003172D01*
X026167Y003330D02*
X026505Y003330D01*
X026547Y003489D02*
X026325Y003489D01*
X026484Y003647D02*
X026625Y003647D01*
X026642Y003806D02*
X026732Y003806D01*
X026801Y003964D02*
X026894Y003964D01*
X026959Y004123D02*
X027222Y004123D01*
X027118Y004281D02*
X037168Y004281D01*
X037168Y004123D02*
X027816Y004123D01*
X028145Y003964D02*
X037168Y003964D01*
X037168Y003806D02*
X028306Y003806D01*
X028413Y003647D02*
X037168Y003647D01*
X037168Y003489D02*
X028491Y003489D01*
X028533Y003330D02*
X037168Y003330D01*
X037168Y003172D02*
X028549Y003172D01*
X028549Y003013D02*
X037168Y003013D01*
X035199Y002855D02*
X028510Y002855D01*
X028454Y002696D02*
X035199Y002696D01*
X035199Y002538D02*
X028363Y002538D01*
X028219Y002379D02*
X035199Y002379D01*
X035199Y002221D02*
X027993Y002221D01*
X026528Y002855D02*
X020442Y002855D01*
X020481Y003013D02*
X021645Y003013D01*
X021535Y003172D02*
X020481Y003172D01*
X020466Y003330D02*
X021500Y003330D01*
X021519Y003489D02*
X020423Y003489D01*
X020346Y003647D02*
X021607Y003647D01*
X021859Y003806D02*
X020238Y003806D01*
X020077Y003964D02*
X021694Y003964D01*
X022190Y004320D02*
X017960Y004320D01*
X015769Y002129D01*
X015672Y002129D01*
X016187Y002062D02*
X021596Y002062D01*
X021515Y002221D02*
X019926Y002221D01*
X020151Y002379D02*
X021500Y002379D01*
X021540Y002538D02*
X020295Y002538D01*
X020387Y002696D02*
X021656Y002696D01*
X021834Y001904D02*
X016187Y001904D01*
X016187Y001745D02*
X035199Y001745D01*
X035199Y001587D02*
X016082Y001587D01*
X015262Y001587D02*
X014980Y001587D01*
X014967Y001574D02*
X015084Y001691D01*
X015084Y002566D01*
X014967Y002683D01*
X014172Y002683D01*
X014054Y002566D01*
X014054Y002409D01*
X013391Y002409D01*
X013391Y002487D01*
X013274Y002604D01*
X012636Y002604D01*
X012519Y002487D01*
X012519Y001770D01*
X012636Y001653D01*
X013274Y001653D01*
X013391Y001770D01*
X013391Y001849D01*
X014054Y001849D01*
X014054Y001691D01*
X014172Y001574D01*
X014967Y001574D01*
X015084Y001745D02*
X015157Y001745D01*
X015157Y001904D02*
X015084Y001904D01*
X015084Y002062D02*
X015157Y002062D01*
X015157Y002221D02*
X015084Y002221D01*
X015084Y002379D02*
X015157Y002379D01*
X015157Y002538D02*
X015084Y002538D01*
X014569Y002129D02*
X012955Y002129D01*
X012519Y002062D02*
X012190Y002062D01*
X012190Y002090D02*
X011812Y002090D01*
X011812Y001673D01*
X012034Y001673D01*
X012080Y001685D01*
X012121Y001709D01*
X012154Y001742D01*
X012178Y001783D01*
X012190Y001829D01*
X012190Y002090D01*
X012190Y002167D02*
X012190Y002428D01*
X012178Y002474D01*
X012154Y002515D01*
X012121Y002548D01*
X012080Y002572D01*
X012034Y002584D01*
X011812Y002584D01*
X011812Y002167D01*
X011736Y002167D01*
X011736Y002584D01*
X011514Y002584D01*
X011468Y002572D01*
X011427Y002548D01*
X011394Y002515D01*
X011370Y002474D01*
X011358Y002428D01*
X011358Y002167D01*
X011736Y002167D01*
X011736Y002090D01*
X011812Y002090D01*
X011812Y002167D01*
X012190Y002167D01*
X012190Y002221D02*
X012519Y002221D01*
X012519Y002379D02*
X012190Y002379D01*
X012132Y002538D02*
X012570Y002538D01*
X011812Y002538D02*
X011736Y002538D01*
X011736Y002379D02*
X011812Y002379D01*
X011812Y002221D02*
X011736Y002221D01*
X011774Y002129D02*
X014256Y004610D01*
X014270Y004610D01*
X013418Y004619D02*
X013418Y005141D01*
X013301Y005258D01*
X012779Y005258D01*
X012685Y005164D01*
X002947Y005164D01*
X002946Y005168D01*
X002805Y005308D01*
X002622Y005384D01*
X002423Y005384D01*
X002239Y005308D01*
X002098Y005168D01*
X002022Y004984D01*
X002022Y004785D01*
X002098Y004601D01*
X002239Y004461D01*
X002423Y004384D01*
X002622Y004384D01*
X002805Y004461D01*
X002946Y004601D01*
X002947Y004604D01*
X006325Y004604D01*
X006242Y004521D01*
X006242Y003999D01*
X006359Y003882D01*
X006881Y003882D01*
X006969Y003970D01*
X007924Y003970D01*
X008953Y002941D01*
X008953Y002624D01*
X008914Y002624D01*
X008797Y002507D01*
X008797Y001790D01*
X008914Y001673D01*
X009552Y001673D01*
X009669Y001790D01*
X009669Y002507D01*
X009552Y002624D01*
X009513Y002624D01*
X009513Y003113D01*
X009471Y003215D01*
X009392Y003294D01*
X008199Y004487D01*
X008096Y004530D01*
X006989Y004530D01*
X006915Y004604D01*
X012677Y004604D01*
X012779Y004502D01*
X013301Y004502D01*
X013418Y004619D01*
X013397Y004598D02*
X017899Y004598D01*
X017684Y004440D02*
X008246Y004440D01*
X008405Y004281D02*
X017525Y004281D01*
X017367Y004123D02*
X008563Y004123D01*
X008722Y003964D02*
X017208Y003964D01*
X017050Y003806D02*
X008880Y003806D01*
X009039Y003647D02*
X016891Y003647D01*
X016733Y003489D02*
X009197Y003489D01*
X009356Y003330D02*
X016574Y003330D01*
X016416Y003172D02*
X009489Y003172D01*
X009513Y003013D02*
X016257Y003013D01*
X016099Y002855D02*
X009513Y002855D01*
X009513Y002696D02*
X015940Y002696D01*
X016573Y002538D02*
X018608Y002538D01*
X018516Y002696D02*
X016732Y002696D01*
X016890Y002855D02*
X018460Y002855D01*
X018421Y003013D02*
X017049Y003013D01*
X017207Y003172D02*
X018421Y003172D01*
X018437Y003330D02*
X017366Y003330D01*
X017524Y003489D02*
X018480Y003489D01*
X018557Y003647D02*
X017683Y003647D01*
X017841Y003806D02*
X018664Y003806D01*
X018826Y003964D02*
X018000Y003964D01*
X018752Y002379D02*
X016415Y002379D01*
X016256Y002221D02*
X018977Y002221D01*
X022580Y003806D02*
X024859Y003806D01*
X025220Y004349D02*
X025609Y004349D01*
X027719Y006459D01*
X031498Y006459D01*
X036156Y011117D01*
X036726Y011097D02*
X037168Y011097D01*
X037168Y011255D02*
X036716Y011255D01*
X036651Y011414D02*
X037168Y011414D01*
X037168Y011572D02*
X036508Y011572D01*
X036576Y011731D02*
X037168Y011731D01*
X037168Y011889D02*
X036679Y011889D01*
X036726Y012048D02*
X037168Y012048D01*
X037168Y012206D02*
X036726Y012206D01*
X036671Y012365D02*
X037168Y012365D01*
X037168Y012523D02*
X036557Y012523D01*
X035593Y013152D02*
X035552Y013152D01*
X034803Y013895D02*
X034827Y013936D01*
X034839Y013981D01*
X034839Y014243D01*
X034461Y014243D01*
X034461Y014319D01*
X034385Y014319D01*
X034385Y014736D01*
X034163Y014736D01*
X034117Y014724D01*
X034076Y014700D01*
X034043Y014667D01*
X034019Y014626D01*
X034007Y014580D01*
X034007Y014319D01*
X034385Y014319D01*
X034385Y014243D01*
X034007Y014243D01*
X034007Y013981D01*
X034019Y013936D01*
X034043Y013895D01*
X034076Y013861D01*
X034117Y013837D01*
X034163Y013825D01*
X034385Y013825D01*
X034385Y014243D01*
X034461Y014243D01*
X034461Y013825D01*
X034683Y013825D01*
X034729Y013837D01*
X034770Y013861D01*
X034803Y013895D01*
X034831Y013950D02*
X037168Y013950D01*
X037168Y014108D02*
X034839Y014108D01*
X034839Y014319D02*
X034461Y014319D01*
X034461Y014736D01*
X034683Y014736D01*
X034729Y014724D01*
X034770Y014700D01*
X034803Y014667D01*
X034827Y014626D01*
X034839Y014580D01*
X034839Y014319D01*
X034839Y014425D02*
X037168Y014425D01*
X037168Y014267D02*
X034461Y014267D01*
X034385Y014267D02*
X033678Y014267D01*
X033678Y014425D02*
X034007Y014425D01*
X034008Y014584D02*
X033678Y014584D01*
X033575Y014742D02*
X037168Y014742D01*
X037168Y014584D02*
X034838Y014584D01*
X034461Y014584D02*
X034385Y014584D01*
X034385Y014425D02*
X034461Y014425D01*
X034461Y014108D02*
X034385Y014108D01*
X034385Y013950D02*
X034461Y013950D01*
X034015Y013950D02*
X033678Y013950D01*
X033678Y014108D02*
X034007Y014108D01*
X033242Y014281D02*
X033179Y014344D01*
X032909Y014742D02*
X032127Y014742D01*
X028064Y013950D02*
X025717Y013950D01*
X025615Y013791D02*
X027905Y013791D01*
X027747Y013633D02*
X025847Y013633D01*
X025926Y013474D02*
X027588Y013474D01*
X027440Y013316D02*
X025940Y013316D01*
X025898Y013157D02*
X027399Y013157D01*
X027399Y012999D02*
X025779Y012999D01*
X025798Y012682D02*
X027399Y012682D01*
X027399Y012840D02*
X025125Y012840D01*
X025220Y013349D02*
X024322Y014247D01*
X024322Y018520D01*
X024818Y018229D02*
X024826Y018229D01*
X024966Y018071D02*
X024678Y018071D01*
X024602Y017912D02*
X025465Y017912D01*
X025624Y017754D02*
X024602Y017754D01*
X024602Y017595D02*
X025802Y017595D01*
X026182Y017437D02*
X024602Y017437D01*
X025322Y018508D02*
X025322Y018520D01*
X025327Y018515D01*
X024859Y018863D02*
X024785Y018863D01*
X024601Y019022D02*
X025043Y019022D01*
X024043Y019022D02*
X023601Y019022D01*
X023785Y018863D02*
X023859Y018863D01*
X023043Y019022D02*
X022550Y019022D01*
X022342Y019022D02*
X022302Y019022D01*
X022302Y018863D02*
X022342Y018863D01*
X022342Y018705D02*
X022302Y018705D01*
X022302Y018546D02*
X022342Y018546D01*
X022342Y018388D02*
X022302Y018388D01*
X022302Y018229D02*
X022342Y018229D01*
X022342Y018071D02*
X022302Y018071D01*
X022005Y018071D02*
X008865Y018071D01*
X009048Y018229D02*
X011454Y018229D01*
X011358Y018388D02*
X009071Y018388D01*
X009071Y018546D02*
X011358Y018546D01*
X011358Y018702D02*
X011736Y018702D01*
X011736Y019120D01*
X011514Y019120D01*
X011468Y019107D01*
X011427Y019084D01*
X011394Y019050D01*
X011370Y019009D01*
X011358Y018963D01*
X011358Y018702D01*
X011358Y018705D02*
X009071Y018705D01*
X009071Y018863D02*
X011358Y018863D01*
X011377Y019022D02*
X009018Y019022D01*
X007453Y018610D02*
X007400Y018664D01*
X007040Y018229D02*
X006420Y018229D01*
X005945Y018546D02*
X002916Y018546D01*
X002916Y018388D02*
X005811Y018388D01*
X005786Y018229D02*
X002916Y018229D01*
X002916Y018071D02*
X005786Y018071D01*
X005786Y017912D02*
X002916Y017912D01*
X002916Y017754D02*
X005786Y017754D01*
X005786Y017595D02*
X002916Y017595D01*
X002916Y017437D02*
X005774Y017437D01*
X005687Y017278D02*
X002916Y017278D01*
X002916Y017120D02*
X005687Y017120D01*
X005687Y016961D02*
X000554Y016961D01*
X000554Y016803D02*
X005713Y016803D01*
X006418Y016803D02*
X007062Y016803D01*
X006988Y016644D02*
X000554Y016644D01*
X000554Y016486D02*
X006988Y016486D01*
X007405Y016644D02*
X007560Y016644D01*
X007560Y016803D02*
X007405Y016803D01*
X007904Y016803D02*
X008134Y016803D01*
X008070Y016644D02*
X007978Y016644D01*
X007978Y016486D02*
X008070Y016486D01*
X008070Y016169D02*
X007978Y016169D01*
X007978Y016010D02*
X008070Y016010D01*
X008083Y015852D02*
X007950Y015852D01*
X009087Y015852D02*
X018706Y015852D01*
X018897Y016010D02*
X009100Y016010D01*
X008305Y016961D02*
X006444Y016961D01*
X006104Y018705D02*
X002916Y018705D01*
X002916Y018863D02*
X006262Y018863D01*
X002916Y019339D02*
X026158Y019339D01*
X029280Y019022D02*
X029746Y019022D01*
X029554Y018863D02*
X029471Y018863D01*
X029544Y017437D02*
X037168Y017437D01*
X037168Y017278D02*
X029702Y017278D01*
X029861Y017120D02*
X037168Y017120D01*
X027399Y012523D02*
X025906Y012523D01*
X025940Y012365D02*
X027399Y012365D01*
X027399Y012206D02*
X025918Y012206D01*
X025828Y012048D02*
X027399Y012048D01*
X025220Y012349D02*
X023910Y013659D01*
X023250Y013633D02*
X022847Y013633D01*
X022926Y013474D02*
X023250Y013474D01*
X023250Y013316D02*
X022940Y013316D01*
X022898Y013157D02*
X023250Y013157D01*
X023250Y012999D02*
X022779Y012999D01*
X022798Y012682D02*
X023250Y012682D01*
X023250Y012840D02*
X021504Y012840D01*
X021641Y012682D02*
X021345Y012682D01*
X021187Y012523D02*
X021534Y012523D01*
X021417Y012365D02*
X021028Y012365D01*
X020870Y012206D02*
X021259Y012206D01*
X021100Y012048D02*
X020711Y012048D01*
X020553Y011889D02*
X020942Y011889D01*
X020783Y011731D02*
X020394Y011731D01*
X020236Y011572D02*
X020625Y011572D01*
X020466Y011414D02*
X020077Y011414D01*
X019919Y011255D02*
X020308Y011255D01*
X020149Y011097D02*
X019760Y011097D01*
X019602Y010938D02*
X019991Y010938D01*
X019832Y010780D02*
X019443Y010780D01*
X019436Y010621D02*
X019467Y010621D01*
X019467Y010463D02*
X019436Y010463D01*
X019436Y010304D02*
X019467Y010304D01*
X019467Y010146D02*
X019436Y010146D01*
X019058Y010396D02*
X019058Y010790D01*
X021617Y013349D01*
X022220Y013349D01*
X022615Y013791D02*
X023250Y013791D01*
X023250Y013950D02*
X022717Y013950D01*
X022878Y014108D02*
X023250Y014108D01*
X023250Y014267D02*
X022940Y014267D01*
X022940Y014425D02*
X023250Y014425D01*
X023250Y014584D02*
X022880Y014584D01*
X022734Y014742D02*
X023250Y014742D01*
X023250Y014901D02*
X022598Y014901D01*
X022840Y015059D02*
X023250Y015059D01*
X023250Y015218D02*
X022923Y015218D01*
X022940Y015376D02*
X023250Y015376D01*
X023008Y015535D02*
X022901Y015535D01*
X024602Y015693D02*
X024653Y015693D01*
X024602Y014901D02*
X024841Y014901D01*
X024706Y014742D02*
X024602Y014742D01*
X020870Y012999D02*
X004145Y012999D01*
X004062Y012840D02*
X020712Y012840D01*
X020553Y012682D02*
X003896Y012682D01*
X003624Y012682D02*
X003489Y012682D01*
X003489Y012840D02*
X003624Y012840D01*
X003624Y012999D02*
X003489Y012999D01*
X003218Y012682D02*
X001896Y012682D01*
X002062Y012840D02*
X003052Y012840D01*
X002969Y012999D02*
X002145Y012999D01*
X001624Y012999D02*
X001489Y012999D01*
X001489Y012840D02*
X001624Y012840D01*
X001624Y012682D02*
X001489Y012682D01*
X001218Y012682D02*
X000554Y012682D01*
X000554Y012840D02*
X001052Y012840D01*
X000554Y012523D02*
X020395Y012523D01*
X020236Y012365D02*
X000554Y012365D01*
X000554Y012206D02*
X020078Y012206D01*
X019919Y012048D02*
X000554Y012048D01*
X000554Y011889D02*
X002262Y011889D01*
X002263Y011890D02*
X002134Y011762D01*
X002065Y011594D01*
X002065Y011412D01*
X002134Y011243D01*
X002263Y011115D01*
X002431Y011045D01*
X002613Y011045D01*
X002781Y011115D01*
X002910Y011243D01*
X002980Y011412D01*
X002980Y011594D01*
X002910Y011762D01*
X002781Y011890D01*
X002613Y011960D01*
X002431Y011960D01*
X002263Y011890D01*
X002121Y011731D02*
X000554Y011731D01*
X000554Y011572D02*
X002065Y011572D01*
X002065Y011414D02*
X000554Y011414D01*
X000554Y011255D02*
X002130Y011255D01*
X002307Y011097D02*
X000554Y011097D01*
X000554Y010938D02*
X006328Y010938D01*
X006326Y010932D02*
X006306Y010884D01*
X006306Y010469D01*
X006328Y010416D01*
X006343Y010380D01*
X006345Y010378D01*
X006410Y010313D01*
X006488Y010235D01*
X006490Y010233D01*
X006490Y010233D01*
X006541Y010212D01*
X006578Y010196D01*
X006834Y010196D01*
X006915Y010230D01*
X006996Y010196D01*
X007172Y010196D01*
X007222Y010217D01*
X007272Y010196D01*
X007688Y010196D01*
X007729Y010213D01*
X007770Y010196D01*
X007945Y010196D01*
X008034Y010233D01*
X008074Y010274D01*
X008083Y010266D01*
X008103Y010243D01*
X008119Y010235D01*
X008132Y010224D01*
X008161Y010214D01*
X008189Y010200D01*
X008206Y010199D01*
X008223Y010193D01*
X008253Y010196D01*
X008284Y010193D01*
X008300Y010199D01*
X008318Y010200D01*
X008345Y010214D01*
X008374Y010224D01*
X008388Y010235D01*
X008403Y010243D01*
X008423Y010266D01*
X008446Y010286D01*
X008454Y010302D01*
X008466Y010315D01*
X008472Y010333D01*
X008485Y010300D01*
X008553Y010233D01*
X008641Y010196D01*
X008897Y010196D01*
X008985Y010233D01*
X009065Y010313D01*
X009125Y010373D01*
X009155Y010300D01*
X009223Y010233D01*
X009311Y010196D01*
X009406Y010196D01*
X009495Y010233D01*
X009562Y010300D01*
X009599Y010388D01*
X009599Y010804D01*
X009562Y010892D01*
X009495Y010960D01*
X009406Y010996D01*
X009311Y010996D01*
X009279Y010983D01*
X009246Y010996D01*
X009071Y010996D01*
X008984Y010960D01*
X008948Y010975D01*
X008897Y010996D01*
X008641Y010996D01*
X008553Y010960D01*
X008550Y010957D01*
X008478Y010993D01*
X008383Y010999D01*
X008292Y010969D01*
X008253Y010935D01*
X008214Y010969D01*
X008124Y010999D01*
X008028Y010993D01*
X007943Y010950D01*
X007880Y010878D01*
X007867Y010836D01*
X007843Y010892D01*
X007683Y011053D01*
X007616Y011120D01*
X007527Y011157D01*
X007432Y011157D01*
X007344Y011120D01*
X007276Y011053D01*
X007240Y010964D01*
X007240Y010728D01*
X007172Y010756D01*
X007106Y010756D01*
X007106Y010884D01*
X007070Y010973D01*
X006990Y011053D01*
X006922Y011120D01*
X006834Y011157D01*
X006578Y011157D01*
X006543Y011142D01*
X006490Y011120D01*
X006410Y011040D01*
X006343Y010973D01*
X006326Y010932D01*
X006410Y011040D02*
X006410Y011040D01*
X006467Y011097D02*
X003737Y011097D01*
X003781Y011115D02*
X003613Y011045D01*
X003431Y011045D01*
X003263Y011115D01*
X003134Y011243D01*
X003065Y011412D01*
X003065Y011594D01*
X003134Y011762D01*
X003263Y011890D01*
X003431Y011960D01*
X003613Y011960D01*
X003781Y011890D01*
X003910Y011762D01*
X003980Y011594D01*
X003980Y011412D01*
X003910Y011243D01*
X003781Y011115D01*
X003915Y011255D02*
X019127Y011255D01*
X019285Y011414D02*
X003980Y011414D01*
X003980Y011572D02*
X019444Y011572D01*
X019602Y011731D02*
X003923Y011731D01*
X003783Y011889D02*
X019761Y011889D01*
X019845Y010396D02*
X021798Y012349D01*
X022220Y012349D01*
X022828Y012048D02*
X023250Y012048D01*
X023250Y012206D02*
X022918Y012206D01*
X022940Y012365D02*
X023250Y012365D01*
X023250Y012523D02*
X022906Y012523D01*
X018905Y014267D02*
X010708Y014267D01*
X010291Y014425D02*
X018710Y014425D01*
X011760Y014570D02*
X011760Y018650D01*
X011774Y018664D01*
X011736Y018705D02*
X011812Y018705D01*
X011812Y018863D02*
X011736Y018863D01*
X011736Y019022D02*
X011812Y019022D01*
X012171Y019022D02*
X012519Y019022D01*
X012519Y018863D02*
X012190Y018863D01*
X011812Y018546D02*
X011736Y018546D01*
X011736Y018388D02*
X011812Y018388D01*
X011812Y018229D02*
X011736Y018229D01*
X013391Y019022D02*
X014054Y019022D01*
X022753Y018863D02*
X022859Y018863D01*
X010396Y013940D02*
X010380Y013940D01*
X010120Y014200D01*
X009970Y014200D01*
X009960Y014210D01*
X002562Y014210D01*
X002557Y014205D01*
X002850Y013791D02*
X003344Y013791D01*
X003489Y013791D02*
X003624Y013791D01*
X003769Y013791D02*
X010018Y013791D01*
X010064Y013633D02*
X004010Y013633D01*
X003624Y013633D02*
X003489Y013633D01*
X003489Y013474D02*
X003624Y013474D01*
X003624Y013316D02*
X003489Y013316D01*
X003103Y013633D02*
X002010Y013633D01*
X002119Y013474D02*
X002995Y013474D01*
X002944Y013316D02*
X002170Y013316D01*
X001624Y013316D02*
X001489Y013316D01*
X001489Y013474D02*
X001624Y013474D01*
X001624Y013633D02*
X001489Y013633D01*
X002783Y011889D02*
X003262Y011889D01*
X003121Y011731D02*
X002923Y011731D01*
X002980Y011572D02*
X003065Y011572D01*
X003065Y011414D02*
X002980Y011414D01*
X002915Y011255D02*
X003130Y011255D01*
X003307Y011097D02*
X002737Y011097D01*
X000554Y010780D02*
X006306Y010780D01*
X006306Y010621D02*
X000554Y010621D01*
X000554Y010463D02*
X006309Y010463D01*
X006343Y010380D02*
X006343Y010380D01*
X006410Y010313D02*
X006410Y010313D01*
X006419Y010304D02*
X000554Y010304D01*
X000554Y010146D02*
X018680Y010146D01*
X020110Y009250D02*
X012730Y009250D01*
X012352Y009195D02*
X000554Y009195D01*
X000554Y009353D02*
X012352Y009353D01*
X012352Y009036D02*
X000554Y009036D01*
X000554Y008878D02*
X002250Y008878D01*
X002263Y008890D02*
X002134Y008762D01*
X002065Y008594D01*
X002065Y008412D01*
X002134Y008243D01*
X002263Y008115D01*
X002431Y008045D01*
X002613Y008045D01*
X002781Y008115D01*
X002910Y008243D01*
X002980Y008412D01*
X002980Y008594D01*
X002910Y008762D01*
X002781Y008890D01*
X002613Y008960D01*
X002431Y008960D01*
X002263Y008890D01*
X002117Y008719D02*
X000554Y008719D01*
X000554Y008561D02*
X002065Y008561D01*
X002069Y008402D02*
X000554Y008402D01*
X000554Y008244D02*
X002134Y008244D01*
X002335Y008085D02*
X000554Y008085D01*
X000554Y007927D02*
X006247Y007927D01*
X006229Y007945D02*
X006301Y007873D01*
X006394Y007834D01*
X006594Y007834D01*
X006669Y007865D01*
X006744Y007834D01*
X006845Y007834D01*
X006939Y007873D01*
X006991Y007925D01*
X007044Y007873D01*
X007137Y007834D01*
X007239Y007834D01*
X007300Y007859D01*
X007361Y007834D01*
X007561Y007834D01*
X007636Y007865D01*
X007711Y007834D01*
X007812Y007834D01*
X007906Y007873D01*
X007958Y007925D01*
X008011Y007873D01*
X008104Y007834D01*
X008206Y007834D01*
X008299Y007873D01*
X008371Y007945D01*
X008410Y008038D01*
X008410Y008533D01*
X008371Y008627D01*
X008174Y008824D01*
X008149Y008850D01*
X008103Y008896D01*
X008009Y008935D01*
X007907Y008935D01*
X007814Y008896D01*
X007766Y008848D01*
X007742Y008824D01*
X007742Y008824D01*
X007547Y008629D01*
X007545Y008627D01*
X007506Y008533D01*
X007506Y008442D01*
X007443Y008442D01*
X007443Y008730D01*
X007404Y008824D01*
X007333Y008896D01*
X007239Y008935D01*
X007137Y008935D01*
X007044Y008896D01*
X006991Y008843D01*
X006939Y008896D01*
X006845Y008935D01*
X006744Y008935D01*
X006650Y008896D01*
X006649Y008895D01*
X006578Y008824D01*
X006540Y008730D01*
X006540Y008442D01*
X006394Y008442D01*
X006301Y008404D01*
X006229Y008332D01*
X006190Y008238D01*
X006190Y008038D01*
X006229Y007945D01*
X006190Y008085D02*
X003710Y008085D01*
X003781Y008115D02*
X003613Y008045D01*
X003431Y008045D01*
X003263Y008115D01*
X003134Y008243D01*
X003065Y008412D01*
X003065Y008594D01*
X003134Y008762D01*
X003263Y008890D01*
X003431Y008960D01*
X003613Y008960D01*
X003781Y008890D01*
X003910Y008762D01*
X003980Y008594D01*
X003980Y008412D01*
X003910Y008243D01*
X003781Y008115D01*
X003910Y008244D02*
X006192Y008244D01*
X006299Y008402D02*
X003976Y008402D01*
X003980Y008561D02*
X006540Y008561D01*
X006540Y008719D02*
X003928Y008719D01*
X003794Y008878D02*
X006632Y008878D01*
X006957Y008878D02*
X007026Y008878D01*
X007351Y008878D02*
X007796Y008878D01*
X007637Y008719D02*
X007443Y008719D01*
X007443Y008561D02*
X007518Y008561D01*
X008121Y008878D02*
X012463Y008878D01*
X012512Y008738D02*
X012115Y008738D01*
X012021Y008699D01*
X011991Y008669D01*
X011961Y008699D01*
X011867Y008738D01*
X011569Y008738D01*
X011475Y008699D01*
X011445Y008669D01*
X011415Y008699D01*
X011321Y008738D01*
X010924Y008738D01*
X010831Y008699D01*
X010800Y008669D01*
X010770Y008699D01*
X010677Y008738D01*
X010575Y008738D01*
X010481Y008699D01*
X010429Y008646D01*
X010377Y008699D01*
X010283Y008738D01*
X010181Y008738D01*
X010107Y008707D01*
X010032Y008738D01*
X009931Y008738D01*
X009883Y008718D01*
X009835Y008738D01*
X009635Y008738D01*
X009542Y008699D01*
X009516Y008673D01*
X009490Y008699D01*
X009396Y008738D01*
X009098Y008738D01*
X009004Y008699D01*
X008906Y008600D01*
X008834Y008529D01*
X008795Y008435D01*
X008795Y008038D01*
X008834Y007945D01*
X008906Y007873D01*
X009000Y007834D01*
X009396Y007834D01*
X009490Y007873D01*
X009589Y007971D01*
X009660Y008043D01*
X009660Y008043D01*
X009683Y008097D01*
X009699Y008137D01*
X009699Y008207D01*
X009726Y008180D01*
X009726Y008038D01*
X009765Y007945D01*
X009837Y007873D01*
X009931Y007834D01*
X010032Y007834D01*
X010107Y007865D01*
X010181Y007834D01*
X010578Y007834D01*
X010672Y007873D01*
X010744Y007945D01*
X010751Y007952D01*
X010759Y007945D01*
X010831Y007873D01*
X010924Y007834D01*
X011018Y007834D01*
X011054Y007748D01*
X011126Y007676D01*
X011220Y007637D01*
X011321Y007637D01*
X011415Y007676D01*
X011487Y007748D01*
X011525Y007841D01*
X011525Y007852D01*
X011569Y007834D01*
X011867Y007834D01*
X011961Y007873D01*
X012033Y007945D01*
X012040Y007952D01*
X012120Y007873D01*
X012213Y007834D01*
X012610Y007834D01*
X012676Y007861D01*
X012742Y007834D01*
X012843Y007834D01*
X012937Y007873D01*
X013019Y007955D01*
X013024Y007945D01*
X013096Y007873D01*
X013189Y007834D01*
X013586Y007834D01*
X013680Y007873D01*
X013710Y007903D01*
X013740Y007873D01*
X013834Y007834D01*
X013935Y007834D01*
X014029Y007873D01*
X014081Y007925D01*
X014134Y007873D01*
X014228Y007834D01*
X014329Y007834D01*
X014423Y007873D01*
X014494Y007945D01*
X014533Y008038D01*
X014533Y008730D01*
X014494Y008824D01*
X014423Y008896D01*
X014329Y008935D01*
X014228Y008935D01*
X014134Y008896D01*
X014081Y008843D01*
X014029Y008896D01*
X013935Y008935D01*
X013834Y008935D01*
X013740Y008896D01*
X013739Y008895D01*
X013668Y008824D01*
X013630Y008730D01*
X013630Y008720D01*
X013586Y008738D01*
X013288Y008738D01*
X013194Y008699D01*
X013164Y008669D01*
X013134Y008699D01*
X013115Y008707D01*
X013107Y008726D01*
X013035Y008797D01*
X012941Y008836D01*
X012840Y008836D01*
X012746Y008797D01*
X012675Y008726D01*
X012667Y008707D01*
X012648Y008699D01*
X012627Y008678D01*
X012605Y008699D01*
X012512Y008738D01*
X012557Y008719D02*
X012672Y008719D01*
X012997Y008878D02*
X013722Y008878D01*
X014047Y008878D02*
X014116Y008878D01*
X014441Y008878D02*
X020087Y008878D01*
X020245Y008719D02*
X014533Y008719D01*
X014533Y008561D02*
X016731Y008561D01*
X016662Y008402D02*
X014533Y008402D01*
X014533Y008244D02*
X016662Y008244D01*
X016662Y008085D02*
X014533Y008085D01*
X014476Y007927D02*
X016704Y007927D01*
X017040Y008230D02*
X020370Y008230D01*
X021251Y007349D01*
X022220Y007349D01*
X022756Y006976D02*
X024197Y006976D01*
X024039Y007134D02*
X022888Y007134D01*
X022940Y007293D02*
X023880Y007293D01*
X023722Y007451D02*
X022935Y007451D01*
X023719Y007850D02*
X021510Y007850D01*
X020110Y009250D01*
X020404Y008561D02*
X017349Y008561D01*
X017376Y007927D02*
X020278Y007927D01*
X020436Y007768D02*
X011495Y007768D01*
X011618Y007527D02*
X011238Y007527D01*
X011176Y007501D01*
X011172Y007512D01*
X011102Y007582D01*
X011010Y007620D01*
X010910Y007620D01*
X010818Y007582D01*
X010748Y007512D01*
X010741Y007495D01*
X010725Y007489D01*
X010711Y007474D01*
X010697Y007489D01*
X010605Y007527D01*
X010318Y007527D01*
X010227Y007489D01*
X010206Y007468D01*
X010197Y007478D01*
X010108Y007522D01*
X010009Y007529D01*
X009914Y007498D01*
X009854Y007445D01*
X009793Y007498D01*
X009699Y007529D01*
X009600Y007522D01*
X009511Y007478D01*
X009446Y007403D01*
X009414Y007308D01*
X009421Y007209D01*
X009622Y006807D01*
X009632Y006777D01*
X009644Y006763D01*
X009652Y006747D01*
X009677Y006726D01*
X009698Y006702D01*
X009714Y006693D01*
X009728Y006681D01*
X009758Y006671D01*
X009786Y006657D01*
X009805Y006656D01*
X009822Y006650D01*
X009854Y006652D01*
X009886Y006650D01*
X009903Y006656D01*
X009921Y006657D01*
X009950Y006671D01*
X009980Y006681D01*
X009994Y006693D01*
X010010Y006702D01*
X010031Y006726D01*
X010055Y006747D01*
X010063Y006763D01*
X010075Y006777D01*
X010085Y006807D01*
X010094Y006824D01*
X010133Y006784D01*
X010227Y006691D01*
X010318Y006653D01*
X010605Y006653D01*
X010697Y006691D01*
X010711Y006705D01*
X010725Y006691D01*
X010817Y006653D01*
X010916Y006653D01*
X011008Y006691D01*
X011124Y006807D01*
X011146Y006784D01*
X011239Y006691D01*
X011331Y006653D01*
X011711Y006653D01*
X011803Y006691D01*
X011825Y006713D01*
X011847Y006691D01*
X011939Y006653D01*
X012225Y006653D01*
X012317Y006691D01*
X012331Y006705D01*
X012346Y006691D01*
X012438Y006653D01*
X012724Y006653D01*
X012816Y006691D01*
X012838Y006713D01*
X012860Y006691D01*
X012952Y006653D01*
X013238Y006653D01*
X013330Y006691D01*
X013352Y006713D01*
X013374Y006691D01*
X013466Y006653D01*
X013566Y006653D01*
X013657Y006691D01*
X013703Y006736D01*
X013748Y006691D01*
X013840Y006653D01*
X013939Y006653D01*
X014031Y006691D01*
X014101Y006761D01*
X014140Y006853D01*
X014140Y007513D01*
X014101Y007605D01*
X014031Y007675D01*
X013939Y007713D01*
X013840Y007713D01*
X013748Y007675D01*
X013703Y007630D01*
X013657Y007675D01*
X013566Y007713D01*
X013466Y007713D01*
X013374Y007675D01*
X013304Y007605D01*
X013267Y007515D01*
X013238Y007527D01*
X012952Y007527D01*
X012923Y007515D01*
X012886Y007605D01*
X012816Y007675D01*
X012724Y007713D01*
X012531Y007713D01*
X012439Y007675D01*
X012369Y007605D01*
X012331Y007513D01*
X012331Y007475D01*
X012317Y007489D01*
X012225Y007527D01*
X011939Y007527D01*
X011847Y007489D01*
X011778Y007420D01*
X011709Y007489D01*
X011618Y007527D01*
X011747Y007451D02*
X011810Y007451D01*
X012373Y007610D02*
X011035Y007610D01*
X010885Y007610D02*
X009033Y007610D01*
X009037Y007605D02*
X008967Y007675D01*
X008875Y007713D01*
X008775Y007713D01*
X008684Y007675D01*
X008638Y007630D01*
X008593Y007675D01*
X008501Y007713D01*
X008402Y007713D01*
X008310Y007675D01*
X008240Y007605D01*
X008202Y007513D01*
X008202Y007414D01*
X008240Y007322D01*
X008349Y007212D01*
X008267Y007246D01*
X008164Y007246D01*
X008164Y007513D01*
X008163Y007515D01*
X008126Y007605D01*
X008126Y007605D01*
X008124Y007606D01*
X008055Y007675D01*
X007963Y007713D01*
X007864Y007713D01*
X007862Y007713D01*
X007772Y007675D01*
X007770Y007673D01*
X007727Y007630D01*
X007682Y007675D01*
X007590Y007713D01*
X007490Y007713D01*
X007398Y007675D01*
X007328Y007605D01*
X007290Y007513D01*
X007290Y007246D01*
X007163Y007246D01*
X007071Y007208D01*
X007001Y007138D01*
X006962Y007046D01*
X006962Y006853D01*
X007001Y006761D01*
X007071Y006691D01*
X007163Y006653D01*
X007356Y006653D01*
X007423Y006681D01*
X007490Y006653D01*
X007590Y006653D01*
X007682Y006691D01*
X007727Y006736D01*
X007772Y006691D01*
X007864Y006653D01*
X007963Y006653D01*
X008019Y006676D01*
X008074Y006653D01*
X008267Y006653D01*
X008335Y006681D01*
X008402Y006653D01*
X008501Y006653D01*
X008593Y006691D01*
X008638Y006736D01*
X008684Y006691D01*
X008775Y006653D01*
X008875Y006653D01*
X008967Y006691D01*
X009037Y006761D01*
X009075Y006853D01*
X009075Y007513D01*
X009037Y007605D01*
X009075Y007451D02*
X009487Y007451D01*
X009415Y007293D02*
X009075Y007293D01*
X009075Y007134D02*
X009459Y007134D01*
X009538Y006976D02*
X009075Y006976D01*
X009060Y006817D02*
X009617Y006817D01*
X009784Y006659D02*
X008888Y006659D01*
X008762Y006659D02*
X008515Y006659D01*
X008388Y006659D02*
X008281Y006659D01*
X008061Y006659D02*
X007977Y006659D01*
X007850Y006659D02*
X007603Y006659D01*
X007477Y006659D02*
X007369Y006659D01*
X007149Y006659D02*
X000554Y006659D01*
X000554Y006817D02*
X006977Y006817D01*
X006962Y006976D02*
X000554Y006976D01*
X000554Y007134D02*
X006999Y007134D01*
X007290Y007293D02*
X000554Y007293D01*
X000554Y007451D02*
X007290Y007451D01*
X007333Y007610D02*
X000554Y007610D01*
X000554Y007768D02*
X011046Y007768D01*
X010777Y007927D02*
X010725Y007927D01*
X009860Y007451D02*
X009847Y007451D01*
X009783Y007927D02*
X009544Y007927D01*
X009678Y008085D02*
X009726Y008085D01*
X008852Y007927D02*
X008353Y007927D01*
X008410Y008085D02*
X008795Y008085D01*
X008795Y008244D02*
X008410Y008244D01*
X008410Y008402D02*
X008795Y008402D01*
X008866Y008561D02*
X008399Y008561D01*
X008279Y008719D02*
X009053Y008719D01*
X009441Y008719D02*
X009590Y008719D01*
X009880Y008719D02*
X009885Y008719D01*
X010077Y008719D02*
X010136Y008719D01*
X010328Y008719D02*
X010530Y008719D01*
X010722Y008719D02*
X010879Y008719D01*
X011366Y008719D02*
X011524Y008719D01*
X011912Y008719D02*
X012070Y008719D01*
X013110Y008719D02*
X013243Y008719D01*
X013042Y007927D02*
X012990Y007927D01*
X012882Y007610D02*
X013308Y007610D01*
X014097Y007610D02*
X020595Y007610D01*
X020753Y007451D02*
X014140Y007451D01*
X014140Y007293D02*
X020912Y007293D01*
X021070Y007134D02*
X014140Y007134D01*
X014140Y006976D02*
X021683Y006976D01*
X021618Y006659D02*
X013953Y006659D01*
X013826Y006659D02*
X013579Y006659D01*
X013453Y006659D02*
X013252Y006659D01*
X012938Y006659D02*
X012737Y006659D01*
X012424Y006659D02*
X012239Y006659D01*
X011925Y006659D02*
X011724Y006659D01*
X011318Y006659D02*
X010930Y006659D01*
X010803Y006659D02*
X010618Y006659D01*
X010305Y006659D02*
X009924Y006659D01*
X010090Y006817D02*
X010100Y006817D01*
X008269Y007293D02*
X008164Y007293D01*
X008164Y007451D02*
X008202Y007451D01*
X008244Y007610D02*
X008121Y007610D01*
X007772Y007675D02*
X007772Y007675D01*
X008174Y008824D02*
X008174Y008824D01*
X008456Y010304D02*
X008484Y010304D01*
X009056Y010304D02*
X009154Y010304D01*
X009564Y010304D02*
X009847Y010304D01*
X009812Y010463D02*
X009599Y010463D01*
X009599Y010621D02*
X009836Y010621D01*
X009599Y010780D02*
X010110Y010780D01*
X010250Y010938D02*
X009517Y010938D01*
X010488Y011097D02*
X007639Y011097D01*
X007798Y010938D02*
X007933Y010938D01*
X008250Y010938D02*
X008256Y010938D01*
X007320Y011097D02*
X006946Y011097D01*
X007084Y010938D02*
X007240Y010938D01*
X007240Y010780D02*
X007106Y010780D01*
X003250Y008878D02*
X002794Y008878D01*
X002928Y008719D02*
X003117Y008719D01*
X003065Y008561D02*
X002980Y008561D01*
X002976Y008402D02*
X003069Y008402D01*
X003134Y008244D02*
X002910Y008244D01*
X002710Y008085D02*
X003335Y008085D01*
X003455Y006504D02*
X003376Y006492D01*
X003283Y006462D01*
X003196Y006417D01*
X003116Y006360D01*
X003047Y006290D01*
X002989Y006211D01*
X002945Y006124D01*
X002915Y006030D01*
X002902Y005952D01*
X003455Y005952D01*
X003455Y006504D01*
X003455Y006500D02*
X003590Y006500D01*
X003590Y006504D02*
X003668Y006492D01*
X003761Y006462D01*
X003849Y006417D01*
X003928Y006360D01*
X003997Y006290D01*
X004055Y006211D01*
X004099Y006124D01*
X004130Y006030D01*
X004142Y005952D01*
X003590Y005952D01*
X003590Y005817D01*
X004142Y005817D01*
X004130Y005739D01*
X004099Y005645D01*
X004055Y005558D01*
X003997Y005479D01*
X003928Y005409D01*
X003849Y005352D01*
X003761Y005307D01*
X003668Y005277D01*
X003590Y005264D01*
X003590Y005817D01*
X003455Y005817D01*
X003455Y005264D01*
X003376Y005277D01*
X003283Y005307D01*
X003196Y005352D01*
X003116Y005409D01*
X003047Y005479D01*
X002989Y005558D01*
X002945Y005645D01*
X002915Y005739D01*
X002902Y005817D01*
X003455Y005817D01*
X003455Y005952D01*
X003590Y005952D01*
X003590Y006504D01*
X003617Y006500D02*
X021524Y006500D01*
X021500Y006342D02*
X003946Y006342D01*
X004069Y006183D02*
X021531Y006183D01*
X021634Y006025D02*
X004131Y006025D01*
X003590Y006025D02*
X003455Y006025D01*
X003455Y006183D02*
X003590Y006183D01*
X003590Y006342D02*
X003455Y006342D01*
X003427Y006500D02*
X001617Y006500D01*
X001590Y006500D02*
X001455Y006500D01*
X001455Y006504D02*
X001376Y006492D01*
X001283Y006462D01*
X001196Y006417D01*
X001116Y006360D01*
X001047Y006290D01*
X000989Y006211D01*
X000945Y006124D01*
X000915Y006030D01*
X000902Y005952D01*
X001455Y005952D01*
X001455Y006504D01*
X001427Y006500D02*
X000554Y006500D01*
X000554Y006342D02*
X001098Y006342D01*
X000975Y006183D02*
X000554Y006183D01*
X000554Y006025D02*
X000914Y006025D01*
X000902Y005817D02*
X000915Y005739D01*
X000945Y005645D01*
X000989Y005558D01*
X001047Y005479D01*
X001116Y005409D01*
X001196Y005352D01*
X001283Y005307D01*
X001376Y005277D01*
X001455Y005264D01*
X001455Y005817D01*
X001590Y005817D01*
X001590Y005952D01*
X002142Y005952D01*
X002130Y006030D01*
X002099Y006124D01*
X002055Y006211D01*
X001997Y006290D01*
X001928Y006360D01*
X001849Y006417D01*
X001761Y006462D01*
X001668Y006492D01*
X001590Y006504D01*
X001590Y005952D01*
X001455Y005952D01*
X001455Y005817D01*
X000902Y005817D01*
X000925Y005708D02*
X000554Y005708D01*
X000554Y005866D02*
X001455Y005866D01*
X001590Y005866D02*
X003455Y005866D01*
X003590Y005866D02*
X025427Y005866D01*
X025220Y006349D02*
X023719Y007850D01*
X023880Y008085D02*
X024573Y008085D01*
X024778Y007927D02*
X024038Y007927D01*
X024197Y007768D02*
X024768Y007768D01*
X024569Y007610D02*
X024355Y007610D01*
X024356Y006817D02*
X014125Y006817D01*
X012066Y007927D02*
X012015Y007927D01*
X012033Y007945D02*
X012033Y007945D01*
X012753Y005232D02*
X002882Y005232D01*
X003142Y005391D02*
X001902Y005391D01*
X001928Y005409D02*
X001997Y005479D01*
X002055Y005558D01*
X002099Y005645D01*
X002130Y005739D01*
X002142Y005817D01*
X001590Y005817D01*
X001590Y005264D01*
X001668Y005277D01*
X001761Y005307D01*
X001849Y005352D01*
X001928Y005409D01*
X002048Y005549D02*
X002996Y005549D01*
X002925Y005708D02*
X002120Y005708D01*
X001590Y005708D02*
X001455Y005708D01*
X001455Y005549D02*
X001590Y005549D01*
X001590Y005391D02*
X001455Y005391D01*
X001142Y005391D02*
X000554Y005391D01*
X000554Y005549D02*
X000996Y005549D01*
X000554Y005232D02*
X002163Y005232D01*
X002059Y005074D02*
X000554Y005074D01*
X000554Y004915D02*
X002022Y004915D01*
X002034Y004757D02*
X000554Y004757D01*
X000554Y004598D02*
X002101Y004598D01*
X002290Y004440D02*
X001805Y004440D01*
X001761Y004462D02*
X001668Y004492D01*
X001590Y004504D01*
X001590Y003952D01*
X002142Y003952D01*
X002130Y004030D01*
X002099Y004124D01*
X002055Y004211D01*
X001997Y004290D01*
X001928Y004360D01*
X001849Y004417D01*
X001761Y004462D01*
X001590Y004440D02*
X001455Y004440D01*
X001455Y004504D02*
X001376Y004492D01*
X001283Y004462D01*
X001196Y004417D01*
X001116Y004360D01*
X001047Y004290D01*
X000989Y004211D01*
X000945Y004124D01*
X000915Y004030D01*
X000902Y003952D01*
X001455Y003952D01*
X001455Y004504D01*
X001455Y004281D02*
X001590Y004281D01*
X001590Y004123D02*
X001455Y004123D01*
X001455Y003964D02*
X001590Y003964D01*
X001590Y003952D02*
X001455Y003952D01*
X001455Y003817D01*
X001590Y003817D01*
X001590Y003952D01*
X001590Y003817D02*
X002142Y003817D01*
X002130Y003739D01*
X002099Y003645D01*
X002055Y003558D01*
X001997Y003479D01*
X001928Y003409D01*
X001849Y003352D01*
X001761Y003307D01*
X001668Y003277D01*
X001590Y003264D01*
X001590Y003817D01*
X001590Y003806D02*
X001455Y003806D01*
X001455Y003817D02*
X001455Y003264D01*
X001376Y003277D01*
X001283Y003307D01*
X001196Y003352D01*
X001116Y003409D01*
X001047Y003479D01*
X000989Y003558D01*
X000945Y003645D01*
X000915Y003739D01*
X000902Y003817D01*
X001455Y003817D01*
X001455Y003647D02*
X001590Y003647D01*
X001590Y003489D02*
X001455Y003489D01*
X001455Y003330D02*
X001590Y003330D01*
X001806Y003330D02*
X003238Y003330D01*
X003196Y003352D02*
X003283Y003307D01*
X003376Y003277D01*
X003455Y003264D01*
X003455Y003817D01*
X003590Y003817D01*
X003590Y003952D01*
X004142Y003952D01*
X004130Y004030D01*
X004099Y004124D01*
X004055Y004211D01*
X003997Y004290D01*
X003928Y004360D01*
X003849Y004417D01*
X003761Y004462D01*
X003668Y004492D01*
X003590Y004504D01*
X003590Y003952D01*
X003455Y003952D01*
X003455Y004504D01*
X003376Y004492D01*
X003283Y004462D01*
X003196Y004417D01*
X003116Y004360D01*
X003047Y004290D01*
X002989Y004211D01*
X002945Y004124D01*
X002915Y004030D01*
X002902Y003952D01*
X003455Y003952D01*
X003455Y003817D01*
X002902Y003817D01*
X002915Y003739D01*
X002945Y003645D01*
X002989Y003558D01*
X003047Y003479D01*
X003116Y003409D01*
X003196Y003352D01*
X003040Y003489D02*
X002005Y003489D01*
X002100Y003647D02*
X002944Y003647D01*
X002904Y003806D02*
X002140Y003806D01*
X002140Y003964D02*
X002904Y003964D01*
X002945Y004123D02*
X002100Y004123D01*
X002004Y004281D02*
X003040Y004281D01*
X003240Y004440D02*
X002755Y004440D01*
X002943Y004598D02*
X006319Y004598D01*
X006242Y004440D02*
X003805Y004440D01*
X003590Y004440D02*
X003455Y004440D01*
X003455Y004281D02*
X003590Y004281D01*
X003590Y004123D02*
X003455Y004123D01*
X003455Y003964D02*
X003590Y003964D01*
X003590Y003817D02*
X004142Y003817D01*
X004130Y003739D01*
X004099Y003645D01*
X004055Y003558D01*
X003997Y003479D01*
X003928Y003409D01*
X003849Y003352D01*
X003761Y003307D01*
X003668Y003277D01*
X003590Y003264D01*
X003590Y003817D01*
X003590Y003806D02*
X003455Y003806D01*
X003455Y003647D02*
X003590Y003647D01*
X003590Y003489D02*
X003455Y003489D01*
X003455Y003330D02*
X003590Y003330D01*
X003806Y003330D02*
X008564Y003330D01*
X008406Y003489D02*
X004005Y003489D01*
X004100Y003647D02*
X008247Y003647D01*
X008089Y003806D02*
X004140Y003806D01*
X004140Y003964D02*
X006277Y003964D01*
X006242Y004123D02*
X004100Y004123D01*
X004004Y004281D02*
X006242Y004281D01*
X006620Y004255D02*
X006620Y004260D01*
X006620Y004255D02*
X006625Y004250D01*
X008040Y004250D01*
X009233Y003057D01*
X009233Y002149D01*
X008797Y002221D02*
X008488Y002221D01*
X008488Y002379D02*
X008797Y002379D01*
X008827Y002538D02*
X008458Y002538D01*
X008488Y002507D02*
X008371Y002624D01*
X007733Y002624D01*
X007616Y002507D01*
X007616Y002429D01*
X006553Y002429D01*
X006553Y002553D01*
X006436Y002670D01*
X005640Y002670D01*
X005523Y002553D01*
X005523Y001678D01*
X005640Y001561D01*
X006436Y001561D01*
X006553Y001678D01*
X006553Y001869D01*
X007616Y001869D01*
X007616Y001790D01*
X007733Y001673D01*
X008371Y001673D01*
X008488Y001790D01*
X008488Y002507D01*
X008953Y002696D02*
X000554Y002696D01*
X000554Y002538D02*
X004453Y002538D01*
X004453Y002539D02*
X004441Y002494D01*
X004441Y002193D01*
X004858Y002193D01*
X004858Y002038D01*
X004441Y002038D01*
X004441Y001737D01*
X004453Y001692D01*
X004477Y001651D01*
X004510Y001617D01*
X004551Y001593D01*
X004597Y001581D01*
X004858Y001581D01*
X004858Y002038D01*
X005013Y002038D01*
X005013Y001581D01*
X005274Y001581D01*
X005320Y001593D01*
X005361Y001617D01*
X005395Y001651D01*
X005418Y001692D01*
X005431Y001737D01*
X005431Y002038D01*
X005013Y002038D01*
X005013Y002193D01*
X004858Y002193D01*
X004858Y002650D01*
X004597Y002650D01*
X004551Y002638D01*
X004510Y002614D01*
X004477Y002580D01*
X004453Y002539D01*
X004441Y002379D02*
X002916Y002379D01*
X002916Y002221D02*
X004441Y002221D01*
X004394Y002116D02*
X004936Y002116D01*
X005013Y002062D02*
X005523Y002062D01*
X005523Y001904D02*
X005431Y001904D01*
X005431Y001745D02*
X005523Y001745D01*
X005615Y001587D02*
X005294Y001587D01*
X005013Y001587D02*
X004858Y001587D01*
X004858Y001745D02*
X005013Y001745D01*
X005013Y001904D02*
X004858Y001904D01*
X004858Y002062D02*
X002916Y002062D01*
X002916Y001904D02*
X004441Y001904D01*
X004441Y001745D02*
X002916Y001745D01*
X002916Y001587D02*
X004577Y001587D01*
X004394Y002116D02*
X003520Y002990D01*
X004858Y002538D02*
X005013Y002538D01*
X005013Y002650D02*
X005274Y002650D01*
X005320Y002638D01*
X005361Y002614D01*
X005395Y002580D01*
X005418Y002539D01*
X005431Y002494D01*
X005431Y002193D01*
X005013Y002193D01*
X005013Y002650D01*
X005419Y002538D02*
X005523Y002538D01*
X005523Y002379D02*
X005431Y002379D01*
X005431Y002221D02*
X005523Y002221D01*
X005013Y002221D02*
X004858Y002221D01*
X004858Y002379D02*
X005013Y002379D01*
X006038Y002116D02*
X006071Y002149D01*
X008052Y002149D01*
X008488Y002062D02*
X008797Y002062D01*
X008797Y001904D02*
X008488Y001904D01*
X008443Y001745D02*
X008842Y001745D01*
X009624Y001745D02*
X011392Y001745D01*
X011394Y001742D02*
X011427Y001709D01*
X011468Y001685D01*
X011514Y001673D01*
X011736Y001673D01*
X011736Y002090D01*
X011358Y002090D01*
X011358Y001829D01*
X011370Y001783D01*
X011394Y001742D01*
X011358Y001904D02*
X009669Y001904D01*
X009669Y002062D02*
X011358Y002062D01*
X011358Y002221D02*
X009669Y002221D01*
X009669Y002379D02*
X011358Y002379D01*
X011417Y002538D02*
X009639Y002538D01*
X008953Y002855D02*
X000554Y002855D01*
X000554Y003013D02*
X008881Y003013D01*
X008723Y003172D02*
X000554Y003172D01*
X000554Y003330D02*
X001238Y003330D01*
X001040Y003489D02*
X000554Y003489D01*
X000554Y003647D02*
X000944Y003647D01*
X000904Y003806D02*
X000554Y003806D01*
X000554Y003964D02*
X000904Y003964D01*
X000945Y004123D02*
X000554Y004123D01*
X000554Y004281D02*
X001040Y004281D01*
X001240Y004440D02*
X000554Y004440D01*
X002522Y004884D02*
X013036Y004884D01*
X013040Y004880D01*
X013418Y004915D02*
X021806Y004915D01*
X021741Y004757D02*
X013418Y004757D01*
X013418Y005074D02*
X021585Y005074D01*
X021510Y005232D02*
X013327Y005232D01*
X012683Y004598D02*
X006921Y004598D01*
X006963Y003964D02*
X007930Y003964D01*
X007646Y002538D02*
X006553Y002538D01*
X006553Y001745D02*
X007661Y001745D01*
X006461Y001587D02*
X014159Y001587D01*
X014054Y001745D02*
X013366Y001745D01*
X012544Y001745D02*
X012156Y001745D01*
X012190Y001904D02*
X012519Y001904D01*
X011812Y001904D02*
X011736Y001904D01*
X011736Y002062D02*
X011812Y002062D01*
X011812Y001745D02*
X011736Y001745D01*
X013341Y002538D02*
X014054Y002538D01*
X021500Y005391D02*
X003902Y005391D01*
X004048Y005549D02*
X021544Y005549D01*
X021667Y005708D02*
X004120Y005708D01*
X003590Y005708D02*
X003455Y005708D01*
X003455Y005549D02*
X003590Y005549D01*
X003590Y005391D02*
X003455Y005391D01*
X002914Y006025D02*
X002131Y006025D01*
X002069Y006183D02*
X002975Y006183D01*
X003098Y006342D02*
X001946Y006342D01*
X001590Y006342D02*
X001455Y006342D01*
X001455Y006183D02*
X001590Y006183D01*
X001590Y006025D02*
X001455Y006025D01*
X002916Y001428D02*
X035199Y001428D01*
X035199Y001270D02*
X002916Y001270D01*
X002916Y001111D02*
X035199Y001111D01*
X035199Y000953D02*
X002916Y000953D01*
X002916Y000794D02*
X035199Y000794D01*
X035199Y000636D02*
X002916Y000636D01*
X022190Y004320D02*
X022220Y004349D01*
X024963Y003310D02*
X025003Y003349D01*
X025220Y003349D01*
X024963Y003310D02*
X025751Y003310D01*
X028113Y005672D01*
X031711Y005672D01*
X036156Y010117D01*
X035586Y010146D02*
X035581Y010146D01*
X035593Y009987D02*
X035422Y009987D01*
X035472Y009829D02*
X035264Y009829D01*
X035313Y009670D02*
X035105Y009670D01*
X035155Y009512D02*
X034947Y009512D01*
X034996Y009353D02*
X034788Y009353D01*
X034838Y009195D02*
X034630Y009195D01*
X034679Y009036D02*
X034471Y009036D01*
X034521Y008878D02*
X034313Y008878D01*
X034362Y008719D02*
X034154Y008719D01*
X034204Y008561D02*
X033996Y008561D01*
X034045Y008402D02*
X033837Y008402D01*
X033887Y008244D02*
X033679Y008244D01*
X033728Y008085D02*
X033520Y008085D01*
X033570Y007927D02*
X033362Y007927D01*
X033411Y007768D02*
X033203Y007768D01*
X033253Y007610D02*
X033045Y007610D01*
X033094Y007451D02*
X032886Y007451D01*
X032936Y007293D02*
X032728Y007293D01*
X032777Y007134D02*
X032569Y007134D01*
X032619Y006976D02*
X032411Y006976D01*
X032460Y006817D02*
X032252Y006817D01*
X032302Y006659D02*
X032094Y006659D01*
X032143Y006500D02*
X031935Y006500D01*
X031985Y006342D02*
X031777Y006342D01*
X031826Y006183D02*
X031563Y006183D01*
X031668Y006025D02*
X027680Y006025D01*
X027522Y005866D02*
X027911Y005866D01*
X027752Y005708D02*
X027363Y005708D01*
X027205Y005549D02*
X027594Y005549D01*
X027435Y005391D02*
X027046Y005391D01*
X026888Y005232D02*
X027277Y005232D01*
X027118Y005074D02*
X026729Y005074D01*
X026571Y004915D02*
X026960Y004915D01*
X026801Y004757D02*
X026412Y004757D01*
X026254Y004598D02*
X026643Y004598D01*
X026484Y004440D02*
X026095Y004440D01*
X025940Y004281D02*
X026326Y004281D01*
X026167Y004123D02*
X025884Y004123D01*
X026009Y003964D02*
X025745Y003964D01*
X025850Y003806D02*
X025580Y003806D01*
X027276Y004440D02*
X037168Y004440D01*
X037168Y004598D02*
X027435Y004598D01*
X027593Y004757D02*
X037168Y004757D01*
X037168Y004915D02*
X027752Y004915D01*
X027910Y005074D02*
X037168Y005074D01*
X037168Y005232D02*
X028069Y005232D01*
X028227Y005391D02*
X037168Y005391D01*
X037168Y005549D02*
X031984Y005549D01*
X032143Y005708D02*
X037168Y005708D01*
X037168Y005866D02*
X032301Y005866D01*
X032460Y006025D02*
X037168Y006025D01*
X037168Y006183D02*
X032618Y006183D01*
X032777Y006342D02*
X037168Y006342D01*
X037168Y006500D02*
X032935Y006500D01*
X033094Y006659D02*
X035809Y006659D01*
X035664Y006817D02*
X033252Y006817D01*
X033411Y006976D02*
X035598Y006976D01*
X035586Y007134D02*
X033569Y007134D01*
X033728Y007293D02*
X035612Y007293D01*
X035684Y007451D02*
X033886Y007451D01*
X034045Y007610D02*
X035855Y007610D01*
X035730Y007768D02*
X034203Y007768D01*
X034362Y007927D02*
X035640Y007927D01*
X035606Y008085D02*
X034520Y008085D01*
X034679Y008244D02*
X035620Y008244D01*
X035684Y008402D02*
X034837Y008402D01*
X034996Y008561D02*
X035831Y008561D01*
X035749Y008719D02*
X035154Y008719D01*
X035313Y008878D02*
X035639Y008878D01*
X035586Y009036D02*
X035471Y009036D01*
X036564Y008719D02*
X037168Y008719D01*
X037168Y008561D02*
X036482Y008561D01*
X036629Y008402D02*
X037168Y008402D01*
X037168Y008244D02*
X036693Y008244D01*
X036706Y008085D02*
X037168Y008085D01*
X037168Y007927D02*
X036673Y007927D01*
X036582Y007768D02*
X037168Y007768D01*
X037168Y007610D02*
X036458Y007610D01*
X036629Y007451D02*
X037168Y007451D01*
X037168Y007293D02*
X036701Y007293D01*
X036726Y007134D02*
X037168Y007134D01*
X037168Y006976D02*
X036715Y006976D01*
X036649Y006817D02*
X037168Y006817D01*
X037168Y006659D02*
X036504Y006659D01*
X036464Y008117D02*
X036156Y008117D01*
X036674Y008878D02*
X037168Y008878D01*
X037168Y009036D02*
X036726Y009036D01*
X036726Y009195D02*
X037168Y009195D01*
X037168Y009353D02*
X036676Y009353D01*
X036568Y009512D02*
X037168Y009512D01*
X037168Y009670D02*
X036515Y009670D01*
X036654Y009829D02*
X037168Y009829D01*
X037168Y009987D02*
X036719Y009987D01*
X036726Y010146D02*
X037168Y010146D01*
X037168Y010304D02*
X036696Y010304D01*
X036617Y010463D02*
X037168Y010463D01*
X037168Y010621D02*
X036448Y010621D01*
X036625Y010780D02*
X037168Y010780D01*
X037168Y010938D02*
X036699Y010938D01*
X030491Y007610D02*
X026684Y007610D01*
X026684Y007768D02*
X030345Y007768D01*
X030186Y007927D02*
X026684Y007927D01*
X026684Y008085D02*
X030028Y008085D01*
X029869Y008244D02*
X026684Y008244D01*
X026684Y008402D02*
X029711Y008402D01*
X029552Y008561D02*
X026782Y008561D01*
X026782Y008719D02*
X029427Y008719D01*
X029408Y008878D02*
X026782Y008878D01*
X026782Y009036D02*
X029408Y009036D01*
X029408Y009512D02*
X028071Y009512D01*
X028098Y009670D02*
X029408Y009670D01*
X029529Y008584D02*
X029529Y008584D01*
X026124Y006500D02*
X025915Y006500D01*
X025940Y006342D02*
X026036Y006342D01*
X025220Y009036D02*
X025220Y009036D01*
X032230Y003700D02*
X032440Y003700D01*
X032443Y003703D01*
X034467Y003703D01*
X034600Y003690D01*
M02*
