G75*
%MOIN*%
%OFA0B0*%
%FSLAX24Y24*%
%IPPOS*%
%LPD*%
%AMOC8*
5,1,8,0,0,1.08239X$1,22.5*
%
%ADD10C,0.0120*%
%ADD11R,0.1181X0.0472*%
%ADD12R,0.0480X0.0880*%
%ADD13R,0.1417X0.0866*%
%ADD14R,0.0630X0.0709*%
%ADD15R,0.0760X0.2100*%
%ADD16R,0.0866X0.0256*%
%ADD17R,0.0709X0.0630*%
D10*
X000160Y000160D02*
X037562Y000160D01*
X037562Y019451D01*
X000160Y019451D01*
X000160Y000160D01*
D11*
X028230Y004490D03*
X028230Y005277D03*
X028230Y006065D03*
X028230Y006852D03*
X028230Y007639D03*
X028230Y008427D03*
X028230Y009214D03*
X028230Y010002D03*
X035592Y010002D03*
X035592Y009214D03*
X035592Y008427D03*
X035592Y007639D03*
X035592Y006852D03*
X035592Y006065D03*
X035592Y005277D03*
X035592Y004490D03*
D12*
X013747Y004128D03*
X012837Y004128D03*
X011927Y004128D03*
D13*
X012837Y001688D03*
D14*
X015557Y004871D03*
X016660Y004871D03*
X013497Y006440D03*
X012395Y006440D03*
X015550Y008737D03*
X016652Y008737D03*
X016663Y011979D03*
X015560Y011979D03*
X019294Y011971D03*
X020396Y011971D03*
X016654Y015898D03*
X015552Y015898D03*
X031499Y011897D03*
X032601Y011897D03*
D15*
X019295Y008742D03*
X019295Y004942D03*
D16*
X013870Y009656D03*
X012413Y009656D03*
D17*
X027325Y017719D03*
X027325Y018821D03*
X028506Y012522D03*
X028506Y011420D03*
M02*
