G75*
%MOIN*%
%OFA0B0*%
%FSLAX24Y24*%
%IPPOS*%
%LPD*%
%AMOC8*
5,1,8,0,0,1.08239X$1,22.5*
%
%ADD10C,0.0120*%
%ADD11C,0.0520*%
%ADD12R,0.1181X0.0472*%
%ADD13R,0.0480X0.0880*%
%ADD14R,0.1417X0.0866*%
%ADD15R,0.0630X0.0709*%
%ADD16R,0.0760X0.2100*%
%ADD17C,0.0600*%
%ADD18C,0.0886*%
%ADD19C,0.0740*%
%ADD20R,0.0256X0.0866*%
%ADD21R,0.0709X0.0630*%
%ADD22C,0.1660*%
%ADD23C,0.0515*%
%ADD24C,0.0240*%
%ADD25C,0.0160*%
%ADD26R,0.0356X0.0356*%
D10*
X000160Y000160D02*
X037562Y000160D01*
X037562Y019845D01*
X000160Y019845D01*
X000160Y000160D01*
D11*
X021960Y002349D02*
X022480Y002349D01*
X022480Y003349D02*
X021960Y003349D01*
X021960Y004349D02*
X022480Y004349D01*
X022480Y005349D02*
X021960Y005349D01*
X021960Y006349D02*
X022480Y006349D01*
X022480Y007349D02*
X021960Y007349D01*
X021960Y008349D02*
X022480Y008349D01*
X022480Y009349D02*
X021960Y009349D01*
X021960Y010349D02*
X022480Y010349D01*
X022480Y011349D02*
X021960Y011349D01*
X021960Y012349D02*
X022480Y012349D01*
X022480Y013349D02*
X021960Y013349D01*
X021960Y014349D02*
X022480Y014349D01*
X022480Y015349D02*
X021960Y015349D01*
X024960Y015349D02*
X025480Y015349D01*
X025480Y014349D02*
X024960Y014349D01*
X024960Y013349D02*
X025480Y013349D01*
X025480Y012349D02*
X024960Y012349D01*
X024960Y011349D02*
X025480Y011349D01*
X025480Y010349D02*
X024960Y010349D01*
X024960Y009349D02*
X025480Y009349D01*
X025480Y008349D02*
X024960Y008349D01*
X024960Y007349D02*
X025480Y007349D01*
X025480Y006349D02*
X024960Y006349D01*
X024960Y005349D02*
X025480Y005349D01*
X025480Y004349D02*
X024960Y004349D01*
X024960Y003349D02*
X025480Y003349D01*
X025480Y002349D02*
X024960Y002349D01*
D12*
X016076Y003106D03*
X016076Y003893D03*
X016076Y004681D03*
X016076Y005468D03*
X016076Y006256D03*
X016076Y007043D03*
X016076Y007830D03*
X016076Y008618D03*
X016075Y011114D03*
X016075Y011902D03*
X016075Y012689D03*
X016075Y013477D03*
X016075Y014264D03*
X016075Y015051D03*
X016075Y015839D03*
X016075Y016626D03*
X008713Y016626D03*
X008713Y015839D03*
X008713Y015051D03*
X008713Y014264D03*
X008713Y013477D03*
X008713Y012689D03*
X008713Y011902D03*
X008713Y011114D03*
X008714Y008618D03*
X008714Y007830D03*
X008714Y007043D03*
X008714Y006256D03*
X008714Y005468D03*
X008714Y004681D03*
X008714Y003893D03*
X008714Y003106D03*
D13*
X032793Y004916D03*
X033703Y004916D03*
X034613Y004916D03*
D14*
X033703Y002475D03*
D15*
X028837Y004994D03*
X027735Y004994D03*
X030893Y006697D03*
X031995Y006697D03*
X033296Y006664D03*
X034399Y006664D03*
X028884Y006849D03*
X027781Y006849D03*
X032088Y010481D03*
X033191Y010481D03*
X033188Y011591D03*
X032086Y011591D03*
X014766Y009914D03*
X013664Y009914D03*
X011361Y009891D03*
X010259Y009891D03*
D16*
X029844Y008901D03*
X029844Y012701D03*
D17*
X002557Y014993D03*
X002522Y004884D03*
D18*
X001522Y003884D03*
X003522Y003884D03*
X003522Y005884D03*
X001522Y005884D03*
X001557Y013993D03*
X003557Y013993D03*
X003557Y015993D03*
X001557Y015993D03*
D19*
X022322Y018520D03*
X023322Y018520D03*
X024322Y018520D03*
X025322Y018520D03*
X028013Y018515D03*
X029013Y018515D03*
X030013Y018515D03*
X031013Y018515D03*
X036156Y012117D03*
X036156Y011117D03*
X036156Y010117D03*
X036156Y009117D03*
X036156Y008117D03*
X036156Y007117D03*
D20*
X030916Y004442D03*
X030916Y002985D03*
D21*
X020239Y005121D03*
X020239Y006223D03*
X006066Y003073D03*
X006066Y001971D03*
D22*
X001439Y001420D03*
X019451Y003136D03*
X027519Y003136D03*
X036297Y001430D03*
X027519Y015141D03*
X019451Y015141D03*
X036297Y018580D03*
X001433Y018584D03*
D23*
X002522Y011503D03*
X003522Y011503D03*
X003522Y008503D03*
X002522Y008503D03*
D24*
X003522Y008503D01*
X003522Y007428D01*
X004491Y006459D01*
X004491Y005119D01*
X006183Y003427D01*
X008030Y001580D01*
X010200Y001580D01*
X010220Y001600D02*
X024320Y001600D01*
X024320Y007640D01*
X025220Y008349D01*
X026281Y008349D01*
X027781Y006849D01*
X027719Y006911D02*
X027719Y008428D01*
X027720Y008429D02*
X027720Y009800D01*
X025220Y008349D02*
X024220Y008349D01*
X022220Y010349D01*
X017089Y011577D02*
X017089Y012365D01*
X016765Y012689D01*
X017089Y011577D02*
X016695Y011184D01*
X016075Y011114D02*
X012585Y011114D01*
X011361Y009891D01*
X010259Y009891D02*
X009036Y011114D01*
X008713Y011114D02*
X006640Y011114D01*
X003910Y011114D01*
X003522Y011503D01*
X002522Y011503D02*
X007157Y006788D01*
X007157Y004270D01*
X007157Y003723D01*
X007844Y003106D01*
X008714Y003106D01*
X010193Y003106D01*
X013546Y006459D01*
X013546Y009796D01*
X014766Y009914D02*
X015967Y011114D01*
X014766Y009914D02*
X014766Y005239D01*
X015514Y004491D01*
X016699Y004681D02*
X017040Y004340D01*
X017040Y004097D01*
X017040Y003460D01*
X016670Y003090D01*
X016076Y003106D02*
X016992Y002190D01*
X015508Y001027D02*
X006059Y001027D01*
X005537Y001615D01*
X003522Y003884D01*
X003522Y005884D01*
X001522Y005884D01*
X001341Y005672D02*
X001341Y011777D01*
X003557Y013993D01*
X003557Y015993D01*
X001557Y015993D01*
X001557Y013993D02*
X003557Y013993D01*
X003522Y003884D02*
X001522Y003884D01*
X005710Y001615D02*
X006066Y001971D01*
X024320Y001600D02*
X028900Y001600D01*
X030920Y001600D01*
X030920Y002981D01*
X032230Y003700D02*
X031488Y004442D01*
X030916Y004442D01*
X032793Y004916D02*
X032793Y005628D01*
X033231Y006066D01*
X033231Y006599D01*
X033296Y006776D02*
X035630Y009110D01*
X036149Y009110D01*
X036156Y008117D02*
X034704Y006664D01*
X034412Y006651D02*
X034412Y006066D01*
X034613Y005864D01*
X034613Y004916D01*
X034613Y004683D02*
X035199Y004097D01*
X035199Y002329D01*
X033703Y002475D02*
X033703Y004916D01*
X032930Y002380D02*
X032150Y001600D01*
X030920Y001600D01*
X023080Y014120D02*
X023080Y016390D01*
X022322Y017148D01*
X022322Y018520D01*
X029880Y016630D02*
X030475Y016035D01*
X030475Y015514D01*
D25*
X030853Y015535D02*
X037168Y015535D01*
X037168Y015693D02*
X030853Y015693D01*
X030853Y015775D02*
X030795Y015833D01*
X030795Y016099D01*
X030746Y016216D01*
X030656Y016306D01*
X030258Y016704D01*
X030258Y016891D01*
X030141Y017008D01*
X029619Y017008D01*
X029502Y016891D01*
X029502Y016369D01*
X029619Y016252D01*
X029806Y016252D01*
X030155Y015902D01*
X030155Y015833D01*
X030097Y015775D01*
X030097Y015253D01*
X030214Y015136D01*
X030736Y015136D01*
X030853Y015253D01*
X030853Y015775D01*
X030795Y015852D02*
X037168Y015852D01*
X037168Y016010D02*
X030795Y016010D01*
X030766Y016169D02*
X037168Y016169D01*
X037168Y016327D02*
X030636Y016327D01*
X030477Y016486D02*
X037168Y016486D01*
X037168Y016644D02*
X030319Y016644D01*
X030258Y016803D02*
X037168Y016803D01*
X037168Y016961D02*
X030188Y016961D01*
X029879Y017278D02*
X037168Y017278D01*
X037168Y017120D02*
X027961Y017120D01*
X028042Y017203D02*
X029743Y017203D01*
X029846Y017245D01*
X030171Y017571D01*
X030250Y017649D01*
X030293Y017752D01*
X030293Y018014D01*
X030335Y018032D01*
X030496Y018192D01*
X030525Y018262D01*
X030542Y018227D01*
X030593Y018157D01*
X030654Y018096D01*
X030724Y018045D01*
X030801Y018005D01*
X030884Y017979D01*
X030969Y017965D01*
X030993Y017965D01*
X030993Y018495D01*
X031033Y018495D01*
X031033Y018535D01*
X031563Y018535D01*
X031563Y018558D01*
X031549Y018644D01*
X031522Y018726D01*
X031483Y018803D01*
X031432Y018873D01*
X031371Y018935D01*
X031301Y018986D01*
X031224Y019025D01*
X031141Y019052D01*
X031056Y019065D01*
X031033Y019065D01*
X031033Y018535D01*
X030993Y018535D01*
X030993Y019065D01*
X030969Y019065D01*
X030884Y019052D01*
X030801Y019025D01*
X030724Y018986D01*
X030654Y018935D01*
X030593Y018873D01*
X030542Y018803D01*
X030525Y018769D01*
X030496Y018838D01*
X030335Y018998D01*
X030126Y019085D01*
X029899Y019085D01*
X029690Y018998D01*
X029529Y018838D01*
X029513Y018798D01*
X029496Y018838D01*
X029335Y018998D01*
X029126Y019085D01*
X028899Y019085D01*
X028690Y018998D01*
X028529Y018838D01*
X028513Y018798D01*
X028496Y018838D01*
X028335Y018998D01*
X028126Y019085D01*
X027899Y019085D01*
X027690Y018998D01*
X027529Y018838D01*
X027443Y018629D01*
X027443Y018402D01*
X027529Y018192D01*
X027602Y018120D01*
X027588Y018114D01*
X027509Y018035D01*
X025284Y015809D01*
X024868Y015809D01*
X024699Y015739D01*
X024570Y015610D01*
X024500Y015441D01*
X024500Y015258D01*
X024570Y015089D01*
X024699Y014959D01*
X024868Y014889D01*
X025457Y014889D01*
X025354Y014809D01*
X024868Y014809D01*
X024699Y014739D01*
X024570Y014610D01*
X024500Y014441D01*
X024500Y014258D01*
X024570Y014089D01*
X024699Y013959D01*
X024868Y013889D01*
X025571Y013889D01*
X025740Y013959D01*
X025870Y014089D01*
X025940Y014258D01*
X025940Y014441D01*
X025904Y014527D01*
X026313Y014846D01*
X026330Y014853D01*
X026356Y014880D01*
X026386Y014903D01*
X026395Y014919D01*
X026408Y014932D01*
X026423Y014967D01*
X026441Y015000D01*
X026444Y015018D01*
X026451Y015035D01*
X026450Y015073D01*
X026455Y015111D01*
X026450Y015128D01*
X026450Y015181D01*
X026450Y015557D01*
X028042Y017203D01*
X027808Y016961D02*
X029572Y016961D01*
X029502Y016803D02*
X027655Y016803D01*
X027501Y016644D02*
X029502Y016644D01*
X029502Y016486D02*
X027348Y016486D01*
X027195Y016327D02*
X029544Y016327D01*
X029889Y016169D02*
X027662Y016169D01*
X027655Y016171D02*
X027383Y016171D01*
X027122Y016100D01*
X026887Y015965D01*
X026695Y015773D01*
X026559Y015538D01*
X026489Y015276D01*
X026489Y015005D01*
X026559Y014743D01*
X026695Y014508D01*
X026887Y014316D01*
X027122Y014181D01*
X027383Y014111D01*
X027655Y014111D01*
X027917Y014181D01*
X028151Y014316D01*
X028343Y014508D01*
X028479Y014743D01*
X028549Y015005D01*
X028549Y015276D01*
X028479Y015538D01*
X028343Y015773D01*
X028151Y015965D01*
X027917Y016100D01*
X027655Y016171D01*
X027376Y016169D02*
X027042Y016169D01*
X026965Y016010D02*
X026888Y016010D01*
X026773Y015852D02*
X026735Y015852D01*
X026649Y015693D02*
X026582Y015693D01*
X026558Y015535D02*
X026450Y015535D01*
X026450Y015376D02*
X026516Y015376D01*
X026489Y015218D02*
X026450Y015218D01*
X026450Y015059D02*
X026489Y015059D01*
X026517Y014901D02*
X026383Y014901D01*
X026560Y014742D02*
X026179Y014742D01*
X025976Y014584D02*
X026651Y014584D01*
X026778Y014425D02*
X025940Y014425D01*
X025940Y014267D02*
X026973Y014267D01*
X028065Y014267D02*
X037168Y014267D01*
X037168Y014425D02*
X028260Y014425D01*
X028387Y014584D02*
X037168Y014584D01*
X037168Y014742D02*
X028478Y014742D01*
X028521Y014901D02*
X037168Y014901D01*
X037168Y015059D02*
X028549Y015059D01*
X028549Y015218D02*
X030133Y015218D01*
X030097Y015376D02*
X028522Y015376D01*
X028480Y015535D02*
X030097Y015535D01*
X030097Y015693D02*
X028389Y015693D01*
X028265Y015852D02*
X030155Y015852D01*
X030047Y016010D02*
X028073Y016010D01*
X026435Y016961D02*
X021004Y016961D01*
X021162Y016803D02*
X026277Y016803D01*
X026118Y016644D02*
X021321Y016644D01*
X021479Y016486D02*
X025960Y016486D01*
X025801Y016327D02*
X021638Y016327D01*
X021796Y016169D02*
X025643Y016169D01*
X025484Y016010D02*
X021955Y016010D01*
X022113Y015852D02*
X025326Y015852D01*
X024653Y015693D02*
X022786Y015693D01*
X022740Y015739D02*
X022571Y015809D01*
X022156Y015809D01*
X019142Y018823D01*
X019064Y018901D01*
X018961Y018944D01*
X017842Y018944D01*
X017744Y019042D01*
X017222Y019042D01*
X017105Y018925D01*
X017105Y018403D01*
X017222Y018286D01*
X017744Y018286D01*
X017842Y018384D01*
X018789Y018384D01*
X021568Y015605D01*
X021500Y015441D01*
X021500Y015258D01*
X021570Y015089D01*
X021699Y014959D01*
X021868Y014889D01*
X022571Y014889D01*
X022740Y014959D01*
X022870Y015089D01*
X022940Y015258D01*
X022940Y015441D01*
X022870Y015610D01*
X022740Y015739D01*
X022901Y015535D02*
X024538Y015535D01*
X024500Y015376D02*
X022940Y015376D01*
X022923Y015218D02*
X024516Y015218D01*
X024599Y015059D02*
X022840Y015059D01*
X022598Y014901D02*
X024841Y014901D01*
X024706Y014742D02*
X022734Y014742D01*
X022740Y014739D02*
X022571Y014809D01*
X021868Y014809D01*
X021699Y014739D01*
X021570Y014610D01*
X021500Y014441D01*
X021500Y014415D01*
X021304Y014220D01*
X019916Y014220D01*
X020084Y014316D01*
X020275Y014508D01*
X020411Y014743D01*
X020481Y015005D01*
X020481Y015276D01*
X020411Y015538D01*
X020275Y015773D01*
X020084Y015965D01*
X019849Y016100D01*
X019587Y016171D01*
X019316Y016171D01*
X019054Y016100D01*
X018819Y015965D01*
X018627Y015773D01*
X018492Y015538D01*
X018421Y015276D01*
X018421Y015005D01*
X018492Y014743D01*
X018627Y014508D01*
X018819Y014316D01*
X018987Y014220D01*
X018646Y014220D01*
X016865Y016001D01*
X016865Y016158D01*
X016791Y016233D01*
X016865Y016307D01*
X016865Y016945D01*
X016748Y017063D01*
X015401Y017063D01*
X015284Y016945D01*
X015284Y016307D01*
X015359Y016233D01*
X015284Y016158D01*
X015284Y015520D01*
X015359Y015445D01*
X015284Y015371D01*
X015284Y014732D01*
X015359Y014658D01*
X015284Y014583D01*
X015284Y013945D01*
X015359Y013870D01*
X015284Y013796D01*
X015284Y013158D01*
X015373Y013069D01*
X015340Y013036D01*
X015317Y012995D01*
X015304Y012949D01*
X015304Y012727D01*
X016037Y012727D01*
X016037Y012651D01*
X015304Y012651D01*
X015304Y012429D01*
X015317Y012384D01*
X015340Y012343D01*
X015373Y012310D01*
X015314Y012251D01*
X012481Y012251D01*
X010774Y013957D01*
X010774Y014200D01*
X010657Y014318D01*
X010135Y014318D01*
X010018Y014200D01*
X010018Y013679D01*
X010135Y013561D01*
X010378Y013561D01*
X012127Y011812D01*
X012206Y011734D01*
X012309Y011691D01*
X015284Y011691D01*
X015284Y011583D01*
X015373Y011494D01*
X015340Y011461D01*
X015317Y011420D01*
X015304Y011374D01*
X015304Y011153D01*
X016037Y011153D01*
X016037Y011076D01*
X016113Y011076D01*
X016113Y010698D01*
X016689Y010698D01*
X016735Y010711D01*
X016776Y010734D01*
X016809Y010768D01*
X016833Y010809D01*
X016845Y010855D01*
X016845Y011076D01*
X016113Y011076D01*
X016113Y011153D01*
X016845Y011153D01*
X016845Y011374D01*
X016833Y011420D01*
X016809Y011461D01*
X016777Y011494D01*
X016865Y011583D01*
X016865Y012221D01*
X016777Y012310D01*
X016809Y012343D01*
X016833Y012384D01*
X016845Y012429D01*
X016845Y012651D01*
X016113Y012651D01*
X016113Y012727D01*
X016845Y012727D01*
X016845Y012849D01*
X018503Y011191D01*
X018582Y011112D01*
X018685Y011069D01*
X021589Y011069D01*
X021699Y010959D01*
X021868Y010889D01*
X022571Y010889D01*
X022740Y010959D01*
X022870Y011089D01*
X022940Y011258D01*
X022940Y011441D01*
X022870Y011610D01*
X022740Y011739D01*
X022571Y011809D01*
X021868Y011809D01*
X021699Y011739D01*
X021589Y011629D01*
X018857Y011629D01*
X016865Y013621D01*
X016865Y013639D01*
X018313Y012191D01*
X018392Y012112D01*
X018495Y012069D01*
X021589Y012069D01*
X021699Y011959D01*
X021868Y011889D01*
X022571Y011889D01*
X022740Y011959D01*
X022870Y012089D01*
X022940Y012258D01*
X022940Y012441D01*
X022870Y012610D01*
X022740Y012739D01*
X022571Y012809D01*
X021868Y012809D01*
X021699Y012739D01*
X021589Y012629D01*
X018667Y012629D01*
X018221Y013075D01*
X018235Y013069D01*
X021589Y013069D01*
X021699Y012959D01*
X021868Y012889D01*
X022571Y012889D01*
X022740Y012959D01*
X022870Y013089D01*
X022940Y013258D01*
X022940Y013441D01*
X022870Y013610D01*
X022740Y013739D01*
X022571Y013809D01*
X021868Y013809D01*
X021699Y013739D01*
X021589Y013629D01*
X018407Y013629D01*
X016865Y015171D01*
X016865Y015209D01*
X018293Y013781D01*
X018372Y013702D01*
X018475Y013660D01*
X021476Y013660D01*
X021578Y013702D01*
X021796Y013919D01*
X021868Y013889D01*
X022571Y013889D01*
X022740Y013959D01*
X022870Y014089D01*
X022940Y014258D01*
X022940Y014441D01*
X022870Y014610D01*
X022740Y014739D01*
X022880Y014584D02*
X024559Y014584D01*
X024500Y014425D02*
X022940Y014425D01*
X022940Y014267D02*
X024500Y014267D01*
X024562Y014108D02*
X022878Y014108D01*
X022717Y013950D02*
X024723Y013950D01*
X024824Y013791D02*
X022615Y013791D01*
X022847Y013633D02*
X024592Y013633D01*
X024570Y013610D02*
X024500Y013441D01*
X024500Y013258D01*
X024570Y013089D01*
X024699Y012959D01*
X024868Y012889D01*
X025571Y012889D01*
X025740Y012959D01*
X025870Y013089D01*
X025940Y013258D01*
X025940Y013441D01*
X025870Y013610D01*
X025740Y013739D01*
X025571Y013809D01*
X024868Y013809D01*
X024699Y013739D01*
X024570Y013610D01*
X024513Y013474D02*
X022926Y013474D01*
X022940Y013316D02*
X024500Y013316D01*
X024541Y013157D02*
X022898Y013157D01*
X022779Y012999D02*
X024660Y012999D01*
X024699Y012739D02*
X024868Y012809D01*
X025571Y012809D01*
X025740Y012739D01*
X025870Y012610D01*
X025940Y012441D01*
X025940Y012258D01*
X025870Y012089D01*
X025740Y011959D01*
X025571Y011889D01*
X024868Y011889D01*
X024699Y011959D01*
X024570Y012089D01*
X024500Y012258D01*
X024500Y012441D01*
X024570Y012610D01*
X024699Y012739D01*
X024641Y012682D02*
X022798Y012682D01*
X022906Y012523D02*
X024534Y012523D01*
X024500Y012365D02*
X022940Y012365D01*
X022918Y012206D02*
X024521Y012206D01*
X024611Y012048D02*
X022828Y012048D01*
X022749Y011731D02*
X024690Y011731D01*
X024699Y011739D02*
X024570Y011610D01*
X024500Y011441D01*
X024500Y011258D01*
X024570Y011089D01*
X024699Y010959D01*
X024868Y010889D01*
X025571Y010889D01*
X025740Y010959D01*
X025850Y011069D01*
X028548Y011069D01*
X028651Y011112D01*
X028730Y011191D01*
X029264Y011725D01*
X029264Y011568D01*
X029381Y011451D01*
X030307Y011451D01*
X030424Y011568D01*
X030424Y012421D01*
X030860Y012421D01*
X031571Y011710D01*
X031571Y011154D01*
X031688Y011037D01*
X032483Y011037D01*
X032600Y011154D01*
X032600Y012028D01*
X032483Y012145D01*
X031927Y012145D01*
X031213Y012859D01*
X031135Y012938D01*
X031032Y012981D01*
X030424Y012981D01*
X030424Y013833D01*
X030307Y013951D01*
X029381Y013951D01*
X029264Y013833D01*
X029264Y012517D01*
X028376Y011629D01*
X025850Y011629D01*
X025740Y011739D01*
X025571Y011809D01*
X024868Y011809D01*
X024699Y011739D01*
X024554Y011572D02*
X022885Y011572D01*
X022940Y011414D02*
X024500Y011414D01*
X024501Y011255D02*
X022938Y011255D01*
X022873Y011097D02*
X024566Y011097D01*
X024750Y010938D02*
X022689Y010938D01*
X022643Y010780D02*
X024796Y010780D01*
X024868Y010809D02*
X024699Y010739D01*
X024570Y010610D01*
X024500Y010441D01*
X024500Y010258D01*
X024570Y010089D01*
X024699Y009959D01*
X024868Y009889D01*
X025571Y009889D01*
X025740Y009959D01*
X025772Y009991D01*
X025772Y009679D01*
X025766Y009685D01*
X025710Y009726D01*
X025649Y009757D01*
X025583Y009778D01*
X025514Y009789D01*
X025220Y009789D01*
X025220Y009349D01*
X025220Y008909D01*
X025514Y008909D01*
X025583Y008920D01*
X025649Y008942D01*
X025710Y008973D01*
X025766Y009014D01*
X025766Y008713D01*
X025740Y008739D01*
X025571Y008809D01*
X024868Y008809D01*
X024699Y008739D01*
X024629Y008669D01*
X024352Y008669D01*
X022888Y010133D01*
X022940Y010258D01*
X022940Y010441D01*
X022870Y010610D01*
X022740Y010739D01*
X022571Y010809D01*
X021868Y010809D01*
X021699Y010739D01*
X021570Y010610D01*
X021500Y010441D01*
X021500Y010258D01*
X021570Y010089D01*
X021699Y009959D01*
X021868Y009889D01*
X022227Y009889D01*
X022307Y009809D01*
X021868Y009809D01*
X021699Y009739D01*
X021570Y009610D01*
X021500Y009441D01*
X021500Y009258D01*
X021568Y009093D01*
X020080Y007606D01*
X020001Y007527D01*
X019959Y007424D01*
X019959Y006738D01*
X019802Y006738D01*
X019684Y006621D01*
X019684Y005825D01*
X019802Y005708D01*
X020676Y005708D01*
X020793Y005825D01*
X020793Y006621D01*
X020676Y006738D01*
X020519Y006738D01*
X020519Y007252D01*
X021528Y008262D01*
X021530Y008246D01*
X021552Y008180D01*
X021583Y008119D01*
X021624Y008063D01*
X021673Y008014D01*
X021729Y007973D01*
X021791Y007942D01*
X021857Y007920D01*
X021925Y007909D01*
X022220Y007909D01*
X022514Y007909D01*
X022583Y007920D01*
X022649Y007942D01*
X022710Y007973D01*
X022766Y008014D01*
X022815Y008063D01*
X022856Y008119D01*
X022887Y008180D01*
X022909Y008246D01*
X022920Y008315D01*
X022920Y008349D01*
X022220Y008349D01*
X022220Y008349D01*
X022220Y007909D01*
X022220Y008349D01*
X022220Y008349D01*
X022920Y008349D01*
X022920Y008384D01*
X022909Y008452D01*
X022887Y008518D01*
X022856Y008580D01*
X022815Y008636D01*
X022766Y008685D01*
X022710Y008726D01*
X022649Y008757D01*
X022583Y008778D01*
X022514Y008789D01*
X022220Y008789D01*
X022220Y008349D01*
X023251Y008349D01*
X023270Y008330D01*
X022917Y008402D02*
X023714Y008402D01*
X023556Y008561D02*
X022866Y008561D01*
X022719Y008719D02*
X023397Y008719D01*
X023239Y008878D02*
X022144Y008878D01*
X022156Y008889D02*
X022571Y008889D01*
X022740Y008959D01*
X022870Y009089D01*
X022916Y009200D01*
X023948Y008168D01*
X024038Y008078D01*
X024156Y008029D01*
X024297Y008029D01*
X024157Y007918D01*
X024139Y007911D01*
X024107Y007879D01*
X024072Y007852D01*
X024062Y007835D01*
X024049Y007821D01*
X024032Y007780D01*
X024010Y007740D01*
X024007Y007721D01*
X024000Y007703D01*
X024000Y007659D01*
X023995Y007614D01*
X024000Y007595D01*
X024000Y001920D01*
X022645Y001920D01*
X022740Y001959D01*
X022870Y002089D01*
X022940Y002258D01*
X022940Y002441D01*
X022870Y002610D01*
X022740Y002739D01*
X022571Y002809D01*
X021868Y002809D01*
X021699Y002739D01*
X021570Y002610D01*
X021500Y002441D01*
X021500Y002258D01*
X021570Y002089D01*
X021699Y001959D01*
X021794Y001920D01*
X010156Y001920D01*
X010108Y001900D01*
X008163Y001900D01*
X006620Y003443D01*
X006620Y003471D01*
X006503Y003588D01*
X006474Y003588D01*
X006454Y003608D01*
X004811Y005252D01*
X004811Y006523D01*
X004762Y006640D01*
X003842Y007560D01*
X003842Y008176D01*
X003910Y008243D01*
X003980Y008412D01*
X003980Y008594D01*
X003910Y008762D01*
X003781Y008890D01*
X003613Y008960D01*
X003431Y008960D01*
X003263Y008890D01*
X003195Y008823D01*
X002849Y008823D01*
X002781Y008890D01*
X002613Y008960D01*
X002431Y008960D01*
X002263Y008890D01*
X002134Y008762D01*
X002065Y008594D01*
X002065Y008412D01*
X002134Y008243D01*
X002263Y008115D01*
X002431Y008045D01*
X002613Y008045D01*
X002781Y008115D01*
X002849Y008183D01*
X003195Y008183D01*
X003202Y008176D01*
X003202Y007364D01*
X003251Y007246D01*
X003341Y007156D01*
X004171Y006327D01*
X004171Y005056D01*
X004219Y004938D01*
X004309Y004848D01*
X004309Y004848D01*
X005599Y003559D01*
X005511Y003471D01*
X005511Y002676D01*
X005628Y002558D01*
X006503Y002558D01*
X006551Y002607D01*
X007759Y001399D01*
X007759Y001399D01*
X007849Y001309D01*
X007966Y001260D01*
X010263Y001260D01*
X010311Y001280D01*
X032214Y001280D01*
X032331Y001329D01*
X032878Y001876D01*
X032912Y001842D01*
X034495Y001842D01*
X034612Y001959D01*
X034612Y002991D01*
X034495Y003108D01*
X034023Y003108D01*
X034023Y004276D01*
X034026Y004276D01*
X034143Y004393D01*
X034143Y005438D01*
X034026Y005555D01*
X033381Y005555D01*
X033263Y005438D01*
X033263Y004393D01*
X033381Y004276D01*
X033383Y004276D01*
X033383Y003108D01*
X032912Y003108D01*
X032795Y002991D01*
X032795Y002670D01*
X032749Y002651D01*
X032017Y001920D01*
X031240Y001920D01*
X031240Y002465D01*
X031244Y002469D01*
X031244Y003501D01*
X031127Y003618D01*
X030705Y003618D01*
X030588Y003501D01*
X030588Y002469D01*
X030600Y002458D01*
X030600Y001920D01*
X029180Y001920D01*
X029180Y004439D01*
X029235Y004439D01*
X029352Y004557D01*
X029352Y005431D01*
X029235Y005548D01*
X028439Y005548D01*
X028322Y005431D01*
X028322Y004557D01*
X028439Y004439D01*
X028620Y004439D01*
X028620Y001920D01*
X025645Y001920D01*
X025740Y001959D01*
X025870Y002089D01*
X025940Y002258D01*
X025940Y002441D01*
X025872Y002605D01*
X026489Y003223D01*
X026489Y003000D01*
X026559Y002738D01*
X026695Y002504D01*
X026887Y002312D01*
X027122Y002176D01*
X027383Y002106D01*
X027655Y002106D01*
X027917Y002176D01*
X028151Y002312D01*
X028343Y002504D01*
X028479Y002738D01*
X028549Y003000D01*
X028549Y003271D01*
X028479Y003533D01*
X028343Y003768D01*
X028151Y003960D01*
X027917Y004096D01*
X027655Y004166D01*
X027383Y004166D01*
X027122Y004096D01*
X026887Y003960D01*
X026695Y003768D01*
X026640Y003673D01*
X026640Y004404D01*
X026950Y004714D01*
X027220Y004714D01*
X027220Y004557D01*
X027337Y004439D01*
X028132Y004439D01*
X028250Y004557D01*
X028250Y005413D01*
X028622Y005786D01*
X030317Y005786D01*
X030420Y005828D01*
X030499Y005907D01*
X030734Y006143D01*
X031291Y006143D01*
X031408Y006260D01*
X031408Y007134D01*
X031480Y007134D01*
X031597Y007251D01*
X032153Y007251D01*
X032951Y008049D01*
X032951Y009271D01*
X032993Y009374D01*
X033583Y009963D01*
X033575Y009959D01*
X033529Y009946D01*
X033268Y009946D01*
X033268Y010403D01*
X033113Y010403D01*
X032696Y010403D01*
X032696Y010103D01*
X032708Y010057D01*
X032732Y010016D01*
X032765Y009982D01*
X032806Y009959D01*
X032852Y009946D01*
X033113Y009946D01*
X033113Y010403D01*
X033113Y010558D01*
X032696Y010558D01*
X032696Y010859D01*
X032708Y010905D01*
X032732Y010946D01*
X032765Y010979D01*
X032806Y011003D01*
X032852Y011015D01*
X033113Y011015D01*
X033113Y010558D01*
X033268Y010558D01*
X033268Y011015D01*
X033529Y011015D01*
X033575Y011003D01*
X033616Y010979D01*
X033650Y010946D01*
X033673Y010905D01*
X033686Y010859D01*
X033686Y010558D01*
X033268Y010558D01*
X033268Y010403D01*
X033686Y010403D01*
X033686Y010103D01*
X033673Y010057D01*
X033669Y010049D01*
X035597Y011978D01*
X035586Y012004D01*
X035586Y012231D01*
X035673Y012440D01*
X035833Y012601D01*
X036043Y012687D01*
X036270Y012687D01*
X036479Y012601D01*
X036640Y012440D01*
X036726Y012231D01*
X036726Y012004D01*
X036640Y011794D01*
X036479Y011634D01*
X036439Y011617D01*
X036479Y011601D01*
X036640Y011440D01*
X036726Y011231D01*
X036726Y011004D01*
X036640Y010794D01*
X036479Y010634D01*
X036439Y010617D01*
X036479Y010601D01*
X036640Y010440D01*
X036726Y010231D01*
X036726Y010004D01*
X036640Y009794D01*
X036479Y009634D01*
X036439Y009617D01*
X036479Y009601D01*
X036640Y009440D01*
X036726Y009231D01*
X036726Y009004D01*
X036640Y008794D01*
X036479Y008634D01*
X036410Y008605D01*
X036445Y008588D01*
X036515Y008537D01*
X036576Y008476D01*
X036627Y008406D01*
X036666Y008328D01*
X036693Y008246D01*
X036706Y008161D01*
X036706Y008137D01*
X036176Y008137D01*
X036176Y008097D01*
X036706Y008097D01*
X036706Y008074D01*
X036693Y007989D01*
X036666Y007906D01*
X036627Y007829D01*
X036576Y007759D01*
X036515Y007698D01*
X036445Y007647D01*
X036410Y007629D01*
X036479Y007601D01*
X036640Y007440D01*
X036726Y007231D01*
X036726Y007004D01*
X036640Y006794D01*
X036479Y006634D01*
X036270Y006547D01*
X036043Y006547D01*
X035833Y006634D01*
X035673Y006794D01*
X035586Y007004D01*
X035586Y007231D01*
X035673Y007440D01*
X035833Y007601D01*
X035903Y007629D01*
X035868Y007647D01*
X035798Y007698D01*
X035737Y007759D01*
X035686Y007829D01*
X035647Y007906D01*
X035620Y007989D01*
X035606Y008074D01*
X035606Y008097D01*
X036136Y008097D01*
X036136Y008137D01*
X035606Y008137D01*
X035606Y008161D01*
X035620Y008246D01*
X035647Y008328D01*
X035686Y008406D01*
X035737Y008476D01*
X035798Y008537D01*
X035868Y008588D01*
X035903Y008605D01*
X035833Y008634D01*
X035720Y008748D01*
X034171Y007199D01*
X034321Y007199D01*
X034321Y006742D01*
X034321Y006587D01*
X033904Y006587D01*
X033904Y006286D01*
X033916Y006241D01*
X033940Y006200D01*
X033973Y006166D01*
X034014Y006142D01*
X034060Y006130D01*
X034321Y006130D01*
X034321Y006587D01*
X034476Y006587D01*
X034476Y006130D01*
X034737Y006130D01*
X034783Y006142D01*
X034824Y006166D01*
X034858Y006200D01*
X034882Y006241D01*
X034894Y006286D01*
X034894Y006587D01*
X034476Y006587D01*
X034476Y006742D01*
X034321Y006742D01*
X033904Y006742D01*
X033904Y006931D01*
X033811Y006839D01*
X033811Y006227D01*
X033694Y006110D01*
X033551Y006110D01*
X033551Y006002D01*
X033502Y005884D01*
X033145Y005527D01*
X033233Y005438D01*
X033233Y004393D01*
X033116Y004276D01*
X032471Y004276D01*
X032354Y004393D01*
X032354Y005438D01*
X032471Y005555D01*
X032473Y005555D01*
X032473Y005692D01*
X032522Y005809D01*
X032612Y005899D01*
X032861Y006148D01*
X032781Y006227D01*
X032781Y007087D01*
X032510Y006816D01*
X032510Y006260D01*
X032393Y006143D01*
X031597Y006143D01*
X031480Y006260D01*
X031480Y007134D01*
X031408Y007134D02*
X031291Y007251D01*
X031149Y007251D01*
X031149Y007281D01*
X031247Y007379D01*
X031247Y007901D01*
X031130Y008018D01*
X030608Y008018D01*
X030491Y007901D01*
X030491Y007379D01*
X030589Y007281D01*
X030589Y007251D01*
X030495Y007251D01*
X030378Y007134D01*
X029379Y007134D01*
X029379Y007227D02*
X029379Y006927D01*
X028961Y006927D01*
X028806Y006927D01*
X028806Y007384D01*
X028545Y007384D01*
X028499Y007371D01*
X028458Y007348D01*
X028425Y007314D01*
X028401Y007273D01*
X028389Y007227D01*
X028389Y006927D01*
X028806Y006927D01*
X028806Y006772D01*
X028389Y006772D01*
X028389Y006471D01*
X028401Y006425D01*
X028425Y006384D01*
X028458Y006351D01*
X028467Y006346D01*
X028451Y006346D01*
X028348Y006303D01*
X027593Y005548D01*
X027337Y005548D01*
X027220Y005431D01*
X027220Y005274D01*
X026778Y005274D01*
X026675Y005231D01*
X026596Y005152D01*
X026123Y004679D01*
X026080Y004576D01*
X026080Y003606D01*
X025932Y003458D01*
X025870Y003610D01*
X025740Y003739D01*
X025571Y003809D01*
X024868Y003809D01*
X024699Y003739D01*
X024640Y003680D01*
X024640Y004018D01*
X024699Y003959D01*
X024868Y003889D01*
X025571Y003889D01*
X025740Y003959D01*
X025870Y004089D01*
X025940Y004258D01*
X025940Y004441D01*
X025870Y004610D01*
X025740Y004739D01*
X025571Y004809D01*
X024868Y004809D01*
X024699Y004739D01*
X024640Y004680D01*
X024640Y005018D01*
X024699Y004959D01*
X024868Y004889D01*
X025571Y004889D01*
X025740Y004959D01*
X025870Y005089D01*
X025940Y005258D01*
X025940Y005441D01*
X025870Y005610D01*
X025740Y005739D01*
X025571Y005809D01*
X024868Y005809D01*
X024699Y005739D01*
X024640Y005680D01*
X024640Y006018D01*
X024699Y005959D01*
X024868Y005889D01*
X025571Y005889D01*
X025740Y005959D01*
X025870Y006089D01*
X025940Y006258D01*
X025940Y006441D01*
X025870Y006610D01*
X025740Y006739D01*
X025571Y006809D01*
X024868Y006809D01*
X024699Y006739D01*
X024640Y006680D01*
X024640Y007018D01*
X024699Y006959D01*
X024868Y006889D01*
X025571Y006889D01*
X025740Y006959D01*
X025870Y007089D01*
X025940Y007258D01*
X025940Y007441D01*
X025870Y007610D01*
X025740Y007739D01*
X025571Y007809D01*
X025052Y007809D01*
X025153Y007889D01*
X025571Y007889D01*
X025740Y007959D01*
X025810Y008029D01*
X026149Y008029D01*
X027266Y006912D01*
X027266Y006412D01*
X027383Y006295D01*
X028179Y006295D01*
X028296Y006412D01*
X028296Y007286D01*
X028179Y007404D01*
X028039Y007404D01*
X028039Y008363D01*
X028040Y008365D01*
X028040Y009481D01*
X028098Y009539D01*
X028098Y010061D01*
X028090Y010069D01*
X028279Y010069D01*
X029264Y009085D01*
X029264Y007768D01*
X028039Y007768D01*
X028039Y007610D02*
X030491Y007610D01*
X030491Y007768D02*
X030424Y007768D01*
X030424Y008621D01*
X030564Y008621D01*
X030667Y008663D01*
X030746Y008742D01*
X031930Y009926D01*
X032486Y009926D01*
X032603Y010044D01*
X032603Y010918D01*
X032486Y011035D01*
X031691Y011035D01*
X031573Y010918D01*
X031573Y010362D01*
X030424Y009212D01*
X030424Y010033D01*
X030307Y010151D01*
X029381Y010151D01*
X029264Y010033D01*
X029264Y009877D01*
X028554Y010587D01*
X028451Y010629D01*
X025850Y010629D01*
X025740Y010739D01*
X025571Y010809D01*
X024868Y010809D01*
X024581Y010621D02*
X022858Y010621D01*
X022931Y010463D02*
X024509Y010463D01*
X024500Y010304D02*
X022940Y010304D01*
X022893Y010146D02*
X024546Y010146D01*
X024671Y009987D02*
X023034Y009987D01*
X023193Y009829D02*
X025772Y009829D01*
X025768Y009987D02*
X025772Y009987D01*
X026150Y009770D02*
X026150Y008827D01*
X026144Y008821D01*
X025766Y008878D02*
X024144Y008878D01*
X023985Y009036D02*
X024651Y009036D01*
X024673Y009014D02*
X024729Y008973D01*
X024791Y008942D01*
X024857Y008920D01*
X024925Y008909D01*
X025220Y008909D01*
X025220Y009349D01*
X025220Y009349D01*
X025085Y009215D01*
X024176Y009215D01*
X023827Y009195D02*
X024547Y009195D01*
X024552Y009180D02*
X024583Y009119D01*
X024624Y009063D01*
X024673Y009014D01*
X024552Y009180D02*
X024530Y009246D01*
X024520Y009315D01*
X024520Y009349D01*
X025220Y009349D01*
X025220Y009349D01*
X025220Y009349D01*
X024520Y009349D01*
X024520Y009384D01*
X024530Y009452D01*
X024552Y009518D01*
X024583Y009580D01*
X024624Y009636D01*
X024673Y009685D01*
X024729Y009726D01*
X024791Y009757D01*
X024857Y009778D01*
X024925Y009789D01*
X025220Y009789D01*
X025220Y009349D01*
X025220Y009353D02*
X025220Y009353D01*
X025220Y009195D02*
X025220Y009195D01*
X025220Y009036D02*
X025220Y009036D01*
X024520Y009353D02*
X023668Y009353D01*
X023510Y009512D02*
X024550Y009512D01*
X024658Y009670D02*
X023351Y009670D01*
X022288Y009829D02*
X021306Y009829D01*
X021306Y009987D02*
X021671Y009987D01*
X021546Y010146D02*
X021404Y010146D01*
X021404Y010135D02*
X021404Y010657D01*
X021287Y010774D01*
X020765Y010774D01*
X020648Y010657D01*
X020648Y010135D01*
X020746Y010037D01*
X020746Y009202D01*
X017334Y005790D01*
X016864Y005790D01*
X016792Y005862D01*
X016866Y005936D01*
X016866Y005990D01*
X017116Y005990D01*
X017219Y006033D01*
X020004Y008818D01*
X020082Y008896D01*
X020125Y008999D01*
X020125Y010037D01*
X020223Y010135D01*
X020223Y010657D01*
X020106Y010774D01*
X019584Y010774D01*
X019467Y010657D01*
X019467Y010135D01*
X019565Y010037D01*
X019565Y009171D01*
X016944Y006550D01*
X016866Y006550D01*
X016866Y006575D01*
X016792Y006649D01*
X016866Y006724D01*
X016866Y006910D01*
X019216Y009260D01*
X019295Y009339D01*
X019338Y009442D01*
X019338Y010037D01*
X019436Y010135D01*
X019436Y010657D01*
X019319Y010774D01*
X018797Y010774D01*
X018680Y010657D01*
X018680Y010135D01*
X018778Y010037D01*
X018778Y009614D01*
X017418Y008254D01*
X017418Y008491D01*
X017301Y008608D01*
X016866Y008608D01*
X016866Y008937D01*
X016749Y009054D01*
X015402Y009054D01*
X015285Y008937D01*
X015285Y008299D01*
X015360Y008224D01*
X015285Y008149D01*
X015285Y007511D01*
X015360Y007437D01*
X015285Y007362D01*
X015285Y006724D01*
X015360Y006649D01*
X015285Y006575D01*
X015285Y005936D01*
X015360Y005862D01*
X015285Y005787D01*
X015285Y005149D01*
X015374Y005060D01*
X015341Y005027D01*
X015318Y004986D01*
X015305Y004941D01*
X015305Y004719D01*
X016038Y004719D01*
X016038Y004643D01*
X015305Y004643D01*
X015305Y004421D01*
X015318Y004375D01*
X015341Y004334D01*
X015374Y004301D01*
X015285Y004212D01*
X015285Y004190D01*
X014176Y004190D01*
X013418Y004948D01*
X013418Y005141D01*
X013301Y005258D01*
X012797Y005258D01*
X013817Y006278D01*
X013866Y006396D01*
X013866Y009360D01*
X014062Y009360D01*
X014179Y009477D01*
X014179Y010352D01*
X014062Y010469D01*
X013266Y010469D01*
X013149Y010352D01*
X013149Y009477D01*
X013226Y009401D01*
X013226Y006592D01*
X010060Y003426D01*
X009503Y003426D01*
X009430Y003500D01*
X009504Y003574D01*
X009504Y004212D01*
X009430Y004287D01*
X009504Y004362D01*
X009504Y005000D01*
X009430Y005074D01*
X009504Y005149D01*
X009504Y005787D01*
X009430Y005862D01*
X009504Y005936D01*
X009504Y006575D01*
X009430Y006649D01*
X009504Y006724D01*
X009504Y007362D01*
X009430Y007437D01*
X009504Y007511D01*
X009504Y007560D01*
X011376Y007560D01*
X011479Y007603D01*
X011557Y007681D01*
X012748Y008872D01*
X012991Y008872D01*
X013108Y008989D01*
X013108Y009511D01*
X012991Y009628D01*
X012469Y009628D01*
X012352Y009511D01*
X012352Y009268D01*
X011204Y008120D01*
X009504Y008120D01*
X009504Y008149D01*
X009430Y008224D01*
X009504Y008299D01*
X009504Y008937D01*
X009387Y009054D01*
X008040Y009054D01*
X007923Y008937D01*
X007923Y008299D01*
X007998Y008224D01*
X007923Y008149D01*
X007923Y007511D01*
X007998Y007437D01*
X007923Y007362D01*
X007923Y006724D01*
X007998Y006649D01*
X007923Y006575D01*
X007923Y005936D01*
X007998Y005862D01*
X007923Y005787D01*
X007923Y005149D01*
X007998Y005074D01*
X007923Y005000D01*
X007923Y004362D01*
X007998Y004287D01*
X007923Y004212D01*
X007923Y003574D01*
X007998Y003500D01*
X007944Y003446D01*
X007477Y003866D01*
X007477Y006787D01*
X007477Y006849D01*
X007477Y006850D01*
X007477Y006852D01*
X007453Y006909D01*
X007429Y006967D01*
X007428Y006968D01*
X007428Y006969D01*
X007384Y007013D01*
X003413Y011052D01*
X003431Y011045D01*
X003527Y011045D01*
X003639Y010933D01*
X003729Y010843D01*
X003847Y010794D01*
X007923Y010794D01*
X008039Y010678D01*
X009019Y010678D01*
X009744Y009954D01*
X009744Y009454D01*
X009861Y009337D01*
X010657Y009337D01*
X010774Y009454D01*
X010774Y010328D01*
X010657Y010446D01*
X010157Y010446D01*
X009503Y011099D01*
X009503Y011434D01*
X009429Y011508D01*
X009503Y011583D01*
X009503Y012221D01*
X009429Y012296D01*
X009503Y012370D01*
X009503Y013008D01*
X009429Y013083D01*
X009503Y013158D01*
X009503Y013796D01*
X009429Y013870D01*
X009503Y013945D01*
X009503Y014583D01*
X009429Y014658D01*
X009503Y014732D01*
X009503Y015371D01*
X009429Y015445D01*
X009503Y015520D01*
X009503Y015559D01*
X011564Y015559D01*
X011667Y015602D01*
X011746Y015680D01*
X013170Y017105D01*
X013413Y017105D01*
X013530Y017222D01*
X013530Y017744D01*
X013413Y017861D01*
X012891Y017861D01*
X012774Y017744D01*
X012774Y017501D01*
X011392Y016119D01*
X009503Y016119D01*
X009503Y016158D01*
X009429Y016233D01*
X009503Y016307D01*
X009503Y016945D01*
X009386Y017063D01*
X008039Y017063D01*
X007922Y016945D01*
X007922Y016307D01*
X007997Y016233D01*
X007922Y016158D01*
X007922Y015520D01*
X007997Y015445D01*
X007922Y015371D01*
X007922Y014732D01*
X007997Y014658D01*
X007922Y014583D01*
X007922Y013945D01*
X007997Y013870D01*
X007922Y013796D01*
X007922Y013158D01*
X007997Y013083D01*
X007922Y013008D01*
X007922Y012370D01*
X007997Y012296D01*
X007922Y012221D01*
X007922Y011583D01*
X007997Y011508D01*
X007923Y011434D01*
X006920Y011434D01*
X006920Y015481D01*
X007018Y015579D01*
X007018Y016101D01*
X006901Y016218D01*
X006379Y016218D01*
X006262Y016101D01*
X006262Y015579D01*
X006360Y015481D01*
X006360Y011434D01*
X004043Y011434D01*
X003980Y011498D01*
X003980Y011594D01*
X003910Y011762D01*
X003781Y011890D01*
X003613Y011960D01*
X003431Y011960D01*
X003263Y011890D01*
X003134Y011762D01*
X003065Y011594D01*
X003065Y011412D01*
X003068Y011404D01*
X002980Y011494D01*
X002980Y011594D01*
X002910Y011762D01*
X002781Y011890D01*
X002613Y011960D01*
X002431Y011960D01*
X002263Y011890D01*
X002134Y011762D01*
X002065Y011594D01*
X002065Y011412D01*
X002134Y011243D01*
X002263Y011115D01*
X002431Y011045D01*
X002523Y011045D01*
X006837Y006657D01*
X006837Y004638D01*
X006359Y004638D01*
X006242Y004521D01*
X006242Y003999D01*
X006359Y003882D01*
X006837Y003882D01*
X006837Y003778D01*
X006834Y003770D01*
X006837Y003715D01*
X006837Y003660D01*
X006840Y003651D01*
X006840Y003643D01*
X006864Y003593D01*
X006885Y003542D01*
X006892Y003536D01*
X006895Y003528D01*
X006936Y003491D01*
X006975Y003452D01*
X006984Y003449D01*
X007624Y002874D01*
X007663Y002835D01*
X007671Y002831D01*
X007678Y002825D01*
X007729Y002807D01*
X007780Y002786D01*
X007789Y002786D01*
X007798Y002783D01*
X007853Y002786D01*
X007924Y002786D01*
X008040Y002670D01*
X009387Y002670D01*
X009503Y002786D01*
X010256Y002786D01*
X010374Y002835D01*
X010464Y002925D01*
X012662Y005123D01*
X012662Y004619D01*
X012779Y004502D01*
X013072Y004502D01*
X013901Y003673D01*
X014004Y003630D01*
X015285Y003630D01*
X015285Y003574D01*
X015374Y003485D01*
X015341Y003453D01*
X015318Y003412D01*
X015305Y003366D01*
X015305Y003144D01*
X016038Y003144D01*
X016038Y003068D01*
X016114Y003068D01*
X016114Y003144D01*
X016846Y003144D01*
X016846Y003366D01*
X016834Y003412D01*
X016810Y003453D01*
X016778Y003485D01*
X016866Y003574D01*
X016866Y004212D01*
X016778Y004301D01*
X016810Y004334D01*
X016834Y004375D01*
X016846Y004421D01*
X016846Y004643D01*
X016114Y004643D01*
X016114Y004719D01*
X016846Y004719D01*
X016846Y004941D01*
X016834Y004986D01*
X016810Y005027D01*
X016778Y005060D01*
X016866Y005149D01*
X016866Y005230D01*
X017506Y005230D01*
X017609Y005273D01*
X021185Y008849D01*
X021264Y008928D01*
X021306Y009030D01*
X021306Y010037D01*
X021404Y010135D01*
X021404Y010304D02*
X021500Y010304D01*
X021509Y010463D02*
X021404Y010463D01*
X021404Y010621D02*
X021581Y010621D01*
X021796Y010780D02*
X016816Y010780D01*
X016845Y010938D02*
X021750Y010938D01*
X022220Y011349D02*
X018741Y011349D01*
X016680Y013410D01*
X016141Y013410D01*
X016075Y013477D01*
X015284Y013474D02*
X011258Y013474D01*
X011416Y013316D02*
X015284Y013316D01*
X015285Y013157D02*
X011575Y013157D01*
X011733Y012999D02*
X015319Y012999D01*
X015304Y012840D02*
X011892Y012840D01*
X012050Y012682D02*
X016037Y012682D01*
X016075Y012689D02*
X015781Y012689D01*
X015760Y012710D01*
X014420Y012710D01*
X014400Y012730D01*
X015304Y012523D02*
X012209Y012523D01*
X012367Y012365D02*
X015328Y012365D01*
X015908Y011971D02*
X016006Y011971D01*
X016075Y011902D01*
X016233Y011902D01*
X016302Y011971D01*
X012365Y011971D01*
X010396Y013940D01*
X010018Y013950D02*
X009503Y013950D01*
X009503Y014108D02*
X010018Y014108D01*
X010084Y014267D02*
X009503Y014267D01*
X009503Y014425D02*
X015284Y014425D01*
X015284Y014267D02*
X010708Y014267D01*
X010774Y014108D02*
X015284Y014108D01*
X015284Y013950D02*
X010782Y013950D01*
X010941Y013791D02*
X015284Y013791D01*
X015284Y013633D02*
X011099Y013633D01*
X010624Y013316D02*
X009503Y013316D01*
X009503Y013474D02*
X010466Y013474D01*
X010064Y013633D02*
X009503Y013633D01*
X009503Y013791D02*
X010018Y013791D01*
X009503Y013157D02*
X010783Y013157D01*
X010941Y012999D02*
X009503Y012999D01*
X009503Y012840D02*
X011100Y012840D01*
X011258Y012682D02*
X009503Y012682D01*
X009503Y012523D02*
X011417Y012523D01*
X011575Y012365D02*
X009497Y012365D01*
X009503Y012206D02*
X011734Y012206D01*
X011892Y012048D02*
X009503Y012048D01*
X009503Y011889D02*
X012051Y011889D01*
X012214Y011731D02*
X009503Y011731D01*
X009492Y011572D02*
X015295Y011572D01*
X015315Y011414D02*
X009503Y011414D01*
X009503Y011255D02*
X015304Y011255D01*
X015304Y011076D02*
X015304Y010855D01*
X015317Y010809D01*
X015340Y010768D01*
X015374Y010734D01*
X015415Y010711D01*
X015461Y010698D01*
X016037Y010698D01*
X016037Y011076D01*
X015304Y011076D01*
X015304Y010938D02*
X009665Y010938D01*
X009823Y010780D02*
X015333Y010780D01*
X015151Y010436D02*
X015105Y010449D01*
X014844Y010449D01*
X014844Y009992D01*
X014689Y009992D01*
X014689Y010449D01*
X014428Y010449D01*
X014382Y010436D01*
X014341Y010413D01*
X014307Y010379D01*
X014284Y010338D01*
X014271Y010292D01*
X014271Y009992D01*
X014689Y009992D01*
X014689Y009837D01*
X014271Y009837D01*
X014271Y009536D01*
X014284Y009491D01*
X014307Y009450D01*
X014341Y009416D01*
X014382Y009392D01*
X014428Y009380D01*
X014689Y009380D01*
X014689Y009837D01*
X014844Y009837D01*
X014844Y009992D01*
X015261Y009992D01*
X015261Y010292D01*
X015249Y010338D01*
X015225Y010379D01*
X015192Y010413D01*
X015151Y010436D01*
X015258Y010304D02*
X018680Y010304D01*
X018680Y010146D02*
X015261Y010146D01*
X015261Y009837D02*
X014844Y009837D01*
X014844Y009380D01*
X015105Y009380D01*
X015151Y009392D01*
X015192Y009416D01*
X015225Y009450D01*
X015249Y009491D01*
X015261Y009536D01*
X015261Y009837D01*
X015261Y009829D02*
X018778Y009829D01*
X018778Y009987D02*
X014844Y009987D01*
X014689Y009987D02*
X014179Y009987D01*
X014179Y009829D02*
X014271Y009829D01*
X014271Y009670D02*
X014179Y009670D01*
X014179Y009512D02*
X014278Y009512D01*
X014689Y009512D02*
X014844Y009512D01*
X014844Y009670D02*
X014689Y009670D01*
X014689Y009829D02*
X014844Y009829D01*
X014844Y010146D02*
X014689Y010146D01*
X014689Y010304D02*
X014844Y010304D01*
X014275Y010304D02*
X014179Y010304D01*
X014179Y010146D02*
X014271Y010146D01*
X013664Y009914D02*
X013546Y009796D01*
X013149Y009829D02*
X011439Y009829D01*
X011439Y009814D02*
X011439Y009969D01*
X011284Y009969D01*
X011284Y010426D01*
X011023Y010426D01*
X010977Y010413D01*
X010936Y010390D01*
X010902Y010356D01*
X010879Y010315D01*
X010866Y010269D01*
X010866Y009969D01*
X011284Y009969D01*
X011284Y009814D01*
X010866Y009814D01*
X010866Y009513D01*
X010879Y009467D01*
X010902Y009426D01*
X010936Y009393D01*
X010977Y009369D01*
X011023Y009357D01*
X011284Y009357D01*
X011284Y009814D01*
X011439Y009814D01*
X011856Y009814D01*
X011856Y009513D01*
X011844Y009467D01*
X011820Y009426D01*
X011787Y009393D01*
X011746Y009369D01*
X011700Y009357D01*
X011439Y009357D01*
X011439Y009814D01*
X011439Y009670D02*
X011284Y009670D01*
X011284Y009512D02*
X011439Y009512D01*
X011856Y009512D02*
X012352Y009512D01*
X012352Y009353D02*
X010673Y009353D01*
X010774Y009512D02*
X010867Y009512D01*
X010866Y009670D02*
X010774Y009670D01*
X010774Y009829D02*
X011284Y009829D01*
X011284Y009987D02*
X011439Y009987D01*
X011439Y009969D02*
X011439Y010426D01*
X011700Y010426D01*
X011746Y010413D01*
X011787Y010390D01*
X011820Y010356D01*
X011844Y010315D01*
X011856Y010269D01*
X011856Y009969D01*
X011439Y009969D01*
X011439Y010146D02*
X011284Y010146D01*
X011284Y010304D02*
X011439Y010304D01*
X011847Y010304D02*
X013149Y010304D01*
X013149Y010146D02*
X011856Y010146D01*
X011856Y009987D02*
X013149Y009987D01*
X013149Y009670D02*
X011856Y009670D01*
X012730Y009250D02*
X011320Y007840D01*
X008930Y007840D01*
X008920Y007830D01*
X008714Y007830D01*
X007923Y007768D02*
X006642Y007768D01*
X006486Y007927D02*
X007923Y007927D01*
X007923Y008085D02*
X006330Y008085D01*
X006175Y008244D02*
X007978Y008244D01*
X007923Y008402D02*
X006019Y008402D01*
X005863Y008561D02*
X007923Y008561D01*
X007923Y008719D02*
X005707Y008719D01*
X005551Y008878D02*
X007923Y008878D01*
X008022Y009036D02*
X005396Y009036D01*
X005240Y009195D02*
X012279Y009195D01*
X012120Y009036D02*
X009405Y009036D01*
X009504Y008878D02*
X011962Y008878D01*
X011803Y008719D02*
X009504Y008719D01*
X009504Y008561D02*
X011645Y008561D01*
X011486Y008402D02*
X009504Y008402D01*
X009449Y008244D02*
X011328Y008244D01*
X011961Y008085D02*
X013226Y008085D01*
X013226Y007927D02*
X011802Y007927D01*
X011644Y007768D02*
X013226Y007768D01*
X013226Y007610D02*
X011485Y007610D01*
X012119Y008244D02*
X013226Y008244D01*
X013226Y008402D02*
X012278Y008402D01*
X012436Y008561D02*
X013226Y008561D01*
X013226Y008719D02*
X012595Y008719D01*
X012997Y008878D02*
X013226Y008878D01*
X013226Y009036D02*
X013108Y009036D01*
X013108Y009195D02*
X013226Y009195D01*
X013226Y009353D02*
X013108Y009353D01*
X013108Y009512D02*
X013149Y009512D01*
X013866Y009353D02*
X018517Y009353D01*
X018359Y009195D02*
X013866Y009195D01*
X013866Y009036D02*
X015385Y009036D01*
X015285Y008878D02*
X013866Y008878D01*
X013866Y008719D02*
X015285Y008719D01*
X015285Y008561D02*
X013866Y008561D01*
X013866Y008402D02*
X015285Y008402D01*
X015340Y008244D02*
X013866Y008244D01*
X013866Y008085D02*
X015285Y008085D01*
X015285Y007927D02*
X013866Y007927D01*
X013866Y007768D02*
X015285Y007768D01*
X015285Y007610D02*
X013866Y007610D01*
X013866Y007451D02*
X015346Y007451D01*
X015285Y007293D02*
X013866Y007293D01*
X013866Y007134D02*
X015285Y007134D01*
X015285Y006976D02*
X013866Y006976D01*
X013866Y006817D02*
X015285Y006817D01*
X015351Y006659D02*
X013866Y006659D01*
X013866Y006500D02*
X015285Y006500D01*
X015285Y006342D02*
X013843Y006342D01*
X013722Y006183D02*
X015285Y006183D01*
X015285Y006025D02*
X013564Y006025D01*
X013405Y005866D02*
X015356Y005866D01*
X015285Y005708D02*
X013247Y005708D01*
X013088Y005549D02*
X015285Y005549D01*
X015285Y005391D02*
X012930Y005391D01*
X012662Y005074D02*
X012613Y005074D01*
X012662Y004915D02*
X012454Y004915D01*
X012296Y004757D02*
X012662Y004757D01*
X012683Y004598D02*
X012137Y004598D01*
X011979Y004440D02*
X013135Y004440D01*
X013293Y004281D02*
X011820Y004281D01*
X011662Y004123D02*
X013452Y004123D01*
X013610Y003964D02*
X011503Y003964D01*
X011345Y003806D02*
X013769Y003806D01*
X013963Y003647D02*
X011186Y003647D01*
X011028Y003489D02*
X015371Y003489D01*
X015305Y003330D02*
X010869Y003330D01*
X010711Y003172D02*
X015305Y003172D01*
X015305Y003068D02*
X015305Y002846D01*
X015318Y002800D01*
X015341Y002759D01*
X015375Y002726D01*
X015416Y002702D01*
X015462Y002690D01*
X016038Y002690D01*
X016038Y003068D01*
X015305Y003068D01*
X015305Y003013D02*
X010552Y003013D01*
X010394Y002855D02*
X015305Y002855D01*
X015438Y002696D02*
X009413Y002696D01*
X008014Y002696D02*
X007367Y002696D01*
X007525Y002538D02*
X018608Y002538D01*
X018627Y002504D02*
X018819Y002312D01*
X019054Y002176D01*
X019316Y002106D01*
X019587Y002106D01*
X019849Y002176D01*
X020084Y002312D01*
X020275Y002504D01*
X020411Y002738D01*
X020481Y003000D01*
X020481Y003271D01*
X020411Y003533D01*
X020275Y003768D01*
X020084Y003960D01*
X019849Y004096D01*
X019587Y004166D01*
X019316Y004166D01*
X019054Y004096D01*
X018819Y003960D01*
X018627Y003768D01*
X018492Y003533D01*
X018421Y003271D01*
X018421Y003000D01*
X018492Y002738D01*
X018627Y002504D01*
X018752Y002379D02*
X007684Y002379D01*
X007842Y002221D02*
X018977Y002221D01*
X018516Y002696D02*
X016714Y002696D01*
X016736Y002702D02*
X016777Y002726D01*
X016810Y002759D01*
X016834Y002800D01*
X016846Y002846D01*
X016846Y003068D01*
X016114Y003068D01*
X016114Y002690D01*
X016690Y002690D01*
X016736Y002702D01*
X016846Y002855D02*
X018460Y002855D01*
X018421Y003013D02*
X016846Y003013D01*
X016846Y003172D02*
X018421Y003172D01*
X018437Y003330D02*
X016846Y003330D01*
X016781Y003489D02*
X018480Y003489D01*
X018557Y003647D02*
X016866Y003647D01*
X016866Y003806D02*
X018664Y003806D01*
X018826Y003964D02*
X016866Y003964D01*
X016866Y004123D02*
X019154Y004123D01*
X019749Y004123D02*
X021556Y004123D01*
X021570Y004089D02*
X021699Y003959D01*
X021868Y003889D01*
X022571Y003889D01*
X022740Y003959D01*
X022870Y004089D01*
X022940Y004258D01*
X022940Y004441D01*
X022870Y004610D01*
X022740Y004739D01*
X022571Y004809D01*
X021868Y004809D01*
X021699Y004739D01*
X021570Y004610D01*
X021500Y004441D01*
X021500Y004258D01*
X021570Y004089D01*
X021694Y003964D02*
X020077Y003964D01*
X020238Y003806D02*
X021859Y003806D01*
X021868Y003809D02*
X021699Y003739D01*
X021570Y003610D01*
X021500Y003441D01*
X021500Y003258D01*
X021570Y003089D01*
X021699Y002959D01*
X021868Y002889D01*
X022571Y002889D01*
X022740Y002959D01*
X022870Y003089D01*
X022940Y003258D01*
X022940Y003441D01*
X022870Y003610D01*
X022740Y003739D01*
X022571Y003809D01*
X021868Y003809D01*
X021607Y003647D02*
X020346Y003647D01*
X020423Y003489D02*
X021519Y003489D01*
X021500Y003330D02*
X020466Y003330D01*
X020481Y003172D02*
X021535Y003172D01*
X021645Y003013D02*
X020481Y003013D01*
X020442Y002855D02*
X024000Y002855D01*
X024000Y003013D02*
X022794Y003013D01*
X022904Y003172D02*
X024000Y003172D01*
X024000Y003330D02*
X022940Y003330D01*
X022920Y003489D02*
X024000Y003489D01*
X024000Y003647D02*
X022832Y003647D01*
X022580Y003806D02*
X024000Y003806D01*
X024000Y003964D02*
X022745Y003964D01*
X022884Y004123D02*
X024000Y004123D01*
X024000Y004281D02*
X022940Y004281D01*
X022940Y004440D02*
X024000Y004440D01*
X024000Y004598D02*
X022874Y004598D01*
X022699Y004757D02*
X024000Y004757D01*
X024000Y004915D02*
X022633Y004915D01*
X022571Y004889D02*
X022740Y004959D01*
X022870Y005089D01*
X022940Y005258D01*
X022940Y005441D01*
X022870Y005610D01*
X022740Y005739D01*
X022571Y005809D01*
X021868Y005809D01*
X021699Y005739D01*
X021570Y005610D01*
X021500Y005441D01*
X021500Y005258D01*
X021570Y005089D01*
X021699Y004959D01*
X021868Y004889D01*
X022571Y004889D01*
X022854Y005074D02*
X024000Y005074D01*
X024000Y005232D02*
X022929Y005232D01*
X022940Y005391D02*
X024000Y005391D01*
X024000Y005549D02*
X022895Y005549D01*
X022772Y005708D02*
X024000Y005708D01*
X024000Y005866D02*
X020793Y005866D01*
X020793Y006025D02*
X021634Y006025D01*
X021570Y006089D02*
X021699Y005959D01*
X021868Y005889D01*
X022571Y005889D01*
X022740Y005959D01*
X022870Y006089D01*
X022940Y006258D01*
X022940Y006441D01*
X022870Y006610D01*
X022740Y006739D01*
X022571Y006809D01*
X021868Y006809D01*
X021699Y006739D01*
X021570Y006610D01*
X021500Y006441D01*
X021500Y006258D01*
X021570Y006089D01*
X021531Y006183D02*
X020793Y006183D01*
X020793Y006342D02*
X021500Y006342D01*
X021524Y006500D02*
X020793Y006500D01*
X020755Y006659D02*
X021618Y006659D01*
X021699Y006959D02*
X021868Y006889D01*
X022571Y006889D01*
X022740Y006959D01*
X022870Y007089D01*
X022940Y007258D01*
X022940Y007441D01*
X022870Y007610D01*
X022740Y007739D01*
X022571Y007809D01*
X021868Y007809D01*
X021699Y007739D01*
X021570Y007610D01*
X021500Y007441D01*
X021500Y007258D01*
X021570Y007089D01*
X021699Y006959D01*
X021683Y006976D02*
X020519Y006976D01*
X020519Y007134D02*
X021551Y007134D01*
X021500Y007293D02*
X020559Y007293D01*
X020717Y007451D02*
X021504Y007451D01*
X021569Y007610D02*
X020876Y007610D01*
X021034Y007768D02*
X021768Y007768D01*
X021837Y007927D02*
X021193Y007927D01*
X021351Y008085D02*
X021608Y008085D01*
X021531Y008244D02*
X021510Y008244D01*
X022220Y008244D02*
X022220Y008244D01*
X022220Y008349D02*
X022220Y008789D01*
X022056Y008789D01*
X022156Y008889D01*
X022220Y008719D02*
X022220Y008719D01*
X022220Y008561D02*
X022220Y008561D01*
X022220Y008402D02*
X022220Y008402D01*
X022220Y008349D02*
X022220Y008349D01*
X022220Y008085D02*
X022220Y008085D01*
X022220Y007927D02*
X022220Y007927D01*
X022602Y007927D02*
X024167Y007927D01*
X024031Y008085D02*
X022831Y008085D01*
X022908Y008244D02*
X023873Y008244D01*
X024302Y008719D02*
X024679Y008719D01*
X025760Y008719D02*
X025766Y008719D01*
X025661Y007927D02*
X026251Y007927D01*
X026410Y007768D02*
X025671Y007768D01*
X025870Y007610D02*
X026568Y007610D01*
X026727Y007451D02*
X025935Y007451D01*
X025940Y007293D02*
X026885Y007293D01*
X027044Y007134D02*
X025888Y007134D01*
X025756Y006976D02*
X027202Y006976D01*
X027266Y006817D02*
X024640Y006817D01*
X024640Y006976D02*
X024683Y006976D01*
X024000Y006976D02*
X022756Y006976D01*
X022888Y007134D02*
X024000Y007134D01*
X024000Y007293D02*
X022940Y007293D01*
X022935Y007451D02*
X024000Y007451D01*
X023996Y007610D02*
X022870Y007610D01*
X022671Y007768D02*
X024025Y007768D01*
X024000Y006817D02*
X020519Y006817D01*
X019959Y006817D02*
X019153Y006817D01*
X018994Y006659D02*
X019722Y006659D01*
X019684Y006500D02*
X018836Y006500D01*
X018677Y006342D02*
X019684Y006342D01*
X019684Y006183D02*
X018519Y006183D01*
X018360Y006025D02*
X019684Y006025D01*
X019684Y005866D02*
X018202Y005866D01*
X018043Y005708D02*
X021667Y005708D01*
X021544Y005549D02*
X020734Y005549D01*
X020737Y005546D02*
X020704Y005580D01*
X020663Y005603D01*
X020617Y005616D01*
X020316Y005616D01*
X020316Y005198D01*
X020161Y005198D01*
X020161Y005043D01*
X019704Y005043D01*
X019704Y004782D01*
X019717Y004736D01*
X019740Y004695D01*
X019774Y004662D01*
X019815Y004638D01*
X019861Y004626D01*
X020161Y004626D01*
X020161Y005043D01*
X020316Y005043D01*
X020316Y004626D01*
X020617Y004626D01*
X020663Y004638D01*
X020704Y004662D01*
X020737Y004695D01*
X020761Y004736D01*
X020773Y004782D01*
X020773Y005043D01*
X020316Y005043D01*
X020316Y005198D01*
X020773Y005198D01*
X020773Y005459D01*
X020761Y005505D01*
X020737Y005546D01*
X020773Y005391D02*
X021500Y005391D01*
X021510Y005232D02*
X020773Y005232D01*
X020773Y004915D02*
X021806Y004915D01*
X021741Y004757D02*
X020766Y004757D01*
X021500Y004440D02*
X016846Y004440D01*
X016846Y004598D02*
X021565Y004598D01*
X021500Y004281D02*
X016798Y004281D01*
X017040Y004097D02*
X017483Y004097D01*
X017877Y004491D01*
X020061Y004491D01*
X020240Y004670D01*
X020240Y005119D01*
X020239Y005121D01*
X020316Y005074D02*
X021585Y005074D01*
X020316Y005232D02*
X020161Y005232D01*
X020161Y005198D02*
X020161Y005616D01*
X019861Y005616D01*
X019815Y005603D01*
X019774Y005580D01*
X019740Y005546D01*
X019717Y005505D01*
X019704Y005459D01*
X019704Y005198D01*
X020161Y005198D01*
X020161Y005074D02*
X016791Y005074D01*
X016846Y004915D02*
X019704Y004915D01*
X019711Y004757D02*
X016846Y004757D01*
X016699Y004681D02*
X016076Y004681D01*
X015886Y004491D01*
X015514Y004491D01*
X015305Y004440D02*
X013926Y004440D01*
X013768Y004598D02*
X015305Y004598D01*
X015305Y004757D02*
X013609Y004757D01*
X013451Y004915D02*
X015305Y004915D01*
X015361Y005074D02*
X013418Y005074D01*
X013327Y005232D02*
X015285Y005232D01*
X014766Y005239D02*
X014766Y005106D01*
X014270Y004610D01*
X014085Y004281D02*
X015354Y004281D01*
X016059Y003910D02*
X014060Y003910D01*
X013090Y004880D01*
X013040Y004880D01*
X012183Y005549D02*
X009504Y005549D01*
X009504Y005391D02*
X012025Y005391D01*
X011866Y005232D02*
X009504Y005232D01*
X009430Y005074D02*
X011708Y005074D01*
X011549Y004915D02*
X009504Y004915D01*
X009504Y004757D02*
X011391Y004757D01*
X011232Y004598D02*
X009504Y004598D01*
X009504Y004440D02*
X011074Y004440D01*
X010915Y004281D02*
X009436Y004281D01*
X009504Y004123D02*
X010757Y004123D01*
X010598Y003964D02*
X009504Y003964D01*
X009504Y003806D02*
X010440Y003806D01*
X010281Y003647D02*
X009504Y003647D01*
X009441Y003489D02*
X010123Y003489D01*
X007987Y003489D02*
X007897Y003489D01*
X007923Y003647D02*
X007720Y003647D01*
X007544Y003806D02*
X007923Y003806D01*
X007923Y003964D02*
X007477Y003964D01*
X007477Y004123D02*
X007923Y004123D01*
X007992Y004281D02*
X007477Y004281D01*
X007477Y004440D02*
X007923Y004440D01*
X007923Y004598D02*
X007477Y004598D01*
X007477Y004757D02*
X007923Y004757D01*
X007923Y004915D02*
X007477Y004915D01*
X007477Y005074D02*
X007997Y005074D01*
X007923Y005232D02*
X007477Y005232D01*
X007477Y005391D02*
X007923Y005391D01*
X007923Y005549D02*
X007477Y005549D01*
X007477Y005708D02*
X007923Y005708D01*
X007994Y005866D02*
X007477Y005866D01*
X007477Y006025D02*
X007923Y006025D01*
X007923Y006183D02*
X007477Y006183D01*
X007477Y006342D02*
X007923Y006342D01*
X007923Y006500D02*
X007477Y006500D01*
X007477Y006659D02*
X007988Y006659D01*
X007923Y006817D02*
X007477Y006817D01*
X007422Y006976D02*
X007923Y006976D01*
X007923Y007134D02*
X007265Y007134D01*
X007109Y007293D02*
X007923Y007293D01*
X007983Y007451D02*
X006954Y007451D01*
X006798Y007610D02*
X007923Y007610D01*
X006679Y006817D02*
X004585Y006817D01*
X004427Y006976D02*
X006524Y006976D01*
X006368Y007134D02*
X004268Y007134D01*
X004110Y007293D02*
X006212Y007293D01*
X006056Y007451D02*
X003951Y007451D01*
X003842Y007610D02*
X005900Y007610D01*
X005745Y007768D02*
X003842Y007768D01*
X003842Y007927D02*
X005589Y007927D01*
X005433Y008085D02*
X003842Y008085D01*
X003910Y008244D02*
X005277Y008244D01*
X005121Y008402D02*
X003976Y008402D01*
X003980Y008561D02*
X004966Y008561D01*
X004810Y008719D02*
X003928Y008719D01*
X003794Y008878D02*
X004654Y008878D01*
X004498Y009036D02*
X000554Y009036D01*
X000554Y008878D02*
X002250Y008878D01*
X002117Y008719D02*
X000554Y008719D01*
X000554Y008561D02*
X002065Y008561D01*
X002069Y008402D02*
X000554Y008402D01*
X000554Y008244D02*
X002134Y008244D01*
X002335Y008085D02*
X000554Y008085D01*
X000554Y007927D02*
X003202Y007927D01*
X003202Y008085D02*
X002710Y008085D01*
X003202Y007768D02*
X000554Y007768D01*
X000554Y007610D02*
X003202Y007610D01*
X003202Y007451D02*
X000554Y007451D01*
X000554Y007293D02*
X003232Y007293D01*
X003341Y007156D02*
X003341Y007156D01*
X003363Y007134D02*
X000554Y007134D01*
X000554Y006976D02*
X003522Y006976D01*
X003680Y006817D02*
X000554Y006817D01*
X000554Y006659D02*
X003839Y006659D01*
X003761Y006462D02*
X003668Y006492D01*
X003590Y006504D01*
X003590Y005952D01*
X004142Y005952D01*
X004130Y006030D01*
X004099Y006124D01*
X004055Y006211D01*
X003997Y006290D01*
X003928Y006360D01*
X003849Y006417D01*
X003761Y006462D01*
X003617Y006500D02*
X003997Y006500D01*
X003946Y006342D02*
X004156Y006342D01*
X004171Y006183D02*
X004069Y006183D01*
X004131Y006025D02*
X004171Y006025D01*
X004171Y005866D02*
X003590Y005866D01*
X003590Y005817D02*
X003590Y005952D01*
X003455Y005952D01*
X003455Y006504D01*
X003376Y006492D01*
X003283Y006462D01*
X003196Y006417D01*
X003116Y006360D01*
X003047Y006290D01*
X002989Y006211D01*
X002945Y006124D01*
X002915Y006030D01*
X002902Y005952D01*
X003455Y005952D01*
X003455Y005817D01*
X003590Y005817D01*
X004142Y005817D01*
X004130Y005739D01*
X004099Y005645D01*
X004055Y005558D01*
X003997Y005479D01*
X003928Y005409D01*
X003849Y005352D01*
X003761Y005307D01*
X003668Y005277D01*
X003590Y005264D01*
X003590Y005817D01*
X003522Y005884D02*
X003557Y005919D01*
X003590Y006025D02*
X003455Y006025D01*
X003455Y006183D02*
X003590Y006183D01*
X003590Y006342D02*
X003455Y006342D01*
X003455Y006500D02*
X003590Y006500D01*
X003427Y006500D02*
X001617Y006500D01*
X001590Y006500D02*
X001455Y006500D01*
X001455Y006504D02*
X001376Y006492D01*
X001283Y006462D01*
X001196Y006417D01*
X001116Y006360D01*
X001047Y006290D01*
X000989Y006211D01*
X000945Y006124D01*
X000915Y006030D01*
X000902Y005952D01*
X001455Y005952D01*
X001455Y006504D01*
X001427Y006500D02*
X000554Y006500D01*
X000554Y006342D02*
X001098Y006342D01*
X000975Y006183D02*
X000554Y006183D01*
X000554Y006025D02*
X000914Y006025D01*
X000902Y005817D02*
X000915Y005739D01*
X000945Y005645D01*
X000989Y005558D01*
X001047Y005479D01*
X001116Y005409D01*
X001196Y005352D01*
X001283Y005307D01*
X001376Y005277D01*
X001455Y005264D01*
X001455Y005817D01*
X001590Y005817D01*
X001590Y005952D01*
X002142Y005952D01*
X002130Y006030D01*
X002099Y006124D01*
X002055Y006211D01*
X001997Y006290D01*
X001928Y006360D01*
X001849Y006417D01*
X001761Y006462D01*
X001668Y006492D01*
X001590Y006504D01*
X001590Y005952D01*
X001455Y005952D01*
X001455Y005817D01*
X000902Y005817D01*
X000925Y005708D02*
X000554Y005708D01*
X000554Y005866D02*
X001455Y005866D01*
X001522Y005853D02*
X001341Y005672D01*
X001455Y005708D02*
X001590Y005708D01*
X001590Y005817D02*
X001590Y005264D01*
X001668Y005277D01*
X001761Y005307D01*
X001849Y005352D01*
X001928Y005409D01*
X001997Y005479D01*
X002055Y005558D01*
X002099Y005645D01*
X002130Y005739D01*
X002142Y005817D01*
X001590Y005817D01*
X001590Y005866D02*
X003455Y005866D01*
X003455Y005817D02*
X002902Y005817D01*
X002915Y005739D01*
X002945Y005645D01*
X002989Y005558D01*
X003047Y005479D01*
X003116Y005409D01*
X003196Y005352D01*
X003283Y005307D01*
X003376Y005277D01*
X003455Y005264D01*
X003455Y005817D01*
X003455Y005708D02*
X003590Y005708D01*
X003590Y005549D02*
X003455Y005549D01*
X003455Y005391D02*
X003590Y005391D01*
X003902Y005391D02*
X004171Y005391D01*
X004171Y005549D02*
X004048Y005549D01*
X004120Y005708D02*
X004171Y005708D01*
X004811Y005708D02*
X006837Y005708D01*
X006837Y005866D02*
X004811Y005866D01*
X004811Y006025D02*
X006837Y006025D01*
X006837Y006183D02*
X004811Y006183D01*
X004811Y006342D02*
X006837Y006342D01*
X006837Y006500D02*
X004811Y006500D01*
X004744Y006659D02*
X006835Y006659D01*
X006837Y005549D02*
X004811Y005549D01*
X004811Y005391D02*
X006837Y005391D01*
X006837Y005232D02*
X004831Y005232D01*
X004989Y005074D02*
X006837Y005074D01*
X006837Y004915D02*
X005148Y004915D01*
X005306Y004757D02*
X006837Y004757D01*
X006319Y004598D02*
X005465Y004598D01*
X005623Y004440D02*
X006242Y004440D01*
X006242Y004281D02*
X005782Y004281D01*
X005940Y004123D02*
X006242Y004123D01*
X006277Y003964D02*
X006099Y003964D01*
X006257Y003806D02*
X006837Y003806D01*
X006840Y003647D02*
X006416Y003647D01*
X006454Y003608D02*
X006454Y003608D01*
X006603Y003489D02*
X006939Y003489D01*
X007116Y003330D02*
X006733Y003330D01*
X006891Y003172D02*
X007292Y003172D01*
X007469Y003013D02*
X007050Y003013D01*
X007208Y002855D02*
X007643Y002855D01*
X006937Y002221D02*
X006600Y002221D01*
X006600Y002310D02*
X006588Y002355D01*
X006564Y002397D01*
X006530Y002430D01*
X006489Y002454D01*
X006444Y002466D01*
X006143Y002466D01*
X006143Y002049D01*
X005988Y002049D01*
X005988Y002466D01*
X005687Y002466D01*
X005642Y002454D01*
X005601Y002430D01*
X005567Y002397D01*
X005543Y002355D01*
X005531Y002310D01*
X005531Y002049D01*
X005988Y002049D01*
X005988Y001894D01*
X005531Y001894D01*
X005531Y001632D01*
X005543Y001587D01*
X005567Y001546D01*
X005601Y001512D01*
X005642Y001488D01*
X005687Y001476D01*
X005988Y001476D01*
X005988Y001894D01*
X006143Y001894D01*
X006143Y002049D01*
X006600Y002049D01*
X006600Y002310D01*
X006574Y002379D02*
X006778Y002379D01*
X006620Y002538D02*
X000554Y002538D01*
X000554Y002522D02*
X000554Y017089D01*
X002916Y017089D01*
X002916Y019451D01*
X035199Y019451D01*
X035199Y017483D01*
X037168Y017483D01*
X037168Y002916D01*
X035199Y002916D01*
X035199Y000554D01*
X002916Y000554D01*
X002916Y002522D01*
X000554Y002522D01*
X000554Y002696D02*
X005511Y002696D01*
X005511Y002855D02*
X000554Y002855D01*
X000554Y003013D02*
X005511Y003013D01*
X005511Y003172D02*
X000554Y003172D01*
X000554Y003330D02*
X001238Y003330D01*
X001196Y003352D02*
X001283Y003307D01*
X001376Y003277D01*
X001455Y003264D01*
X001455Y003817D01*
X001590Y003817D01*
X001590Y003952D01*
X002142Y003952D01*
X002130Y004030D01*
X002099Y004124D01*
X002055Y004211D01*
X001997Y004290D01*
X001928Y004360D01*
X001849Y004417D01*
X001761Y004462D01*
X001668Y004492D01*
X001590Y004504D01*
X001590Y003952D01*
X001455Y003952D01*
X001455Y004504D01*
X001376Y004492D01*
X001283Y004462D01*
X001196Y004417D01*
X001116Y004360D01*
X001047Y004290D01*
X000989Y004211D01*
X000945Y004124D01*
X000915Y004030D01*
X000902Y003952D01*
X001455Y003952D01*
X001455Y003817D01*
X000902Y003817D01*
X000915Y003739D01*
X000945Y003645D01*
X000989Y003558D01*
X001047Y003479D01*
X001116Y003409D01*
X001196Y003352D01*
X001040Y003489D02*
X000554Y003489D01*
X000554Y003647D02*
X000944Y003647D01*
X000904Y003806D02*
X000554Y003806D01*
X000554Y003964D02*
X000904Y003964D01*
X000945Y004123D02*
X000554Y004123D01*
X000554Y004281D02*
X001040Y004281D01*
X001240Y004440D02*
X000554Y004440D01*
X000554Y004598D02*
X002101Y004598D01*
X002098Y004601D02*
X002239Y004461D01*
X002423Y004384D01*
X002622Y004384D01*
X002805Y004461D01*
X002946Y004601D01*
X003022Y004785D01*
X003022Y004984D01*
X002946Y005168D01*
X002805Y005308D01*
X002622Y005384D01*
X002423Y005384D01*
X002239Y005308D01*
X002098Y005168D01*
X002022Y004984D01*
X002022Y004785D01*
X002098Y004601D01*
X002034Y004757D02*
X000554Y004757D01*
X000554Y004915D02*
X002022Y004915D01*
X002059Y005074D02*
X000554Y005074D01*
X000554Y005232D02*
X002163Y005232D01*
X001902Y005391D02*
X003142Y005391D01*
X002996Y005549D02*
X002048Y005549D01*
X002120Y005708D02*
X002925Y005708D01*
X002914Y006025D02*
X002131Y006025D01*
X002069Y006183D02*
X002975Y006183D01*
X003098Y006342D02*
X001946Y006342D01*
X001590Y006342D02*
X001455Y006342D01*
X001455Y006183D02*
X001590Y006183D01*
X001590Y006025D02*
X001455Y006025D01*
X001522Y005884D02*
X001522Y005853D01*
X001455Y005549D02*
X001590Y005549D01*
X001590Y005391D02*
X001455Y005391D01*
X001142Y005391D02*
X000554Y005391D01*
X000554Y005549D02*
X000996Y005549D01*
X001455Y004440D02*
X001590Y004440D01*
X001590Y004281D02*
X001455Y004281D01*
X001455Y004123D02*
X001590Y004123D01*
X001590Y003964D02*
X001455Y003964D01*
X001455Y003806D02*
X001590Y003806D01*
X001590Y003817D02*
X001590Y003264D01*
X001668Y003277D01*
X001761Y003307D01*
X001849Y003352D01*
X001928Y003409D01*
X001997Y003479D01*
X002055Y003558D01*
X002099Y003645D01*
X002130Y003739D01*
X002142Y003817D01*
X001590Y003817D01*
X001590Y003647D02*
X001455Y003647D01*
X001455Y003489D02*
X001590Y003489D01*
X001590Y003330D02*
X001455Y003330D01*
X001806Y003330D02*
X003238Y003330D01*
X003196Y003352D02*
X003283Y003307D01*
X003376Y003277D01*
X003455Y003264D01*
X003455Y003817D01*
X003590Y003817D01*
X003590Y003952D01*
X004142Y003952D01*
X004130Y004030D01*
X004099Y004124D01*
X004055Y004211D01*
X003997Y004290D01*
X003928Y004360D01*
X003849Y004417D01*
X003761Y004462D01*
X003668Y004492D01*
X003590Y004504D01*
X003590Y003952D01*
X003455Y003952D01*
X003455Y004504D01*
X003376Y004492D01*
X003283Y004462D01*
X003196Y004417D01*
X003116Y004360D01*
X003047Y004290D01*
X002989Y004211D01*
X002945Y004124D01*
X002915Y004030D01*
X002902Y003952D01*
X003455Y003952D01*
X003455Y003817D01*
X002902Y003817D01*
X002915Y003739D01*
X002945Y003645D01*
X002989Y003558D01*
X003047Y003479D01*
X003116Y003409D01*
X003196Y003352D01*
X003040Y003489D02*
X002005Y003489D01*
X002100Y003647D02*
X002944Y003647D01*
X002904Y003806D02*
X002140Y003806D01*
X002140Y003964D02*
X002904Y003964D01*
X002945Y004123D02*
X002100Y004123D01*
X002004Y004281D02*
X003040Y004281D01*
X003240Y004440D02*
X002755Y004440D01*
X002943Y004598D02*
X004559Y004598D01*
X004401Y004757D02*
X003010Y004757D01*
X003022Y004915D02*
X004242Y004915D01*
X004171Y005074D02*
X002985Y005074D01*
X002882Y005232D02*
X004171Y005232D01*
X003805Y004440D02*
X004718Y004440D01*
X004876Y004281D02*
X004004Y004281D01*
X004100Y004123D02*
X005035Y004123D01*
X005193Y003964D02*
X004140Y003964D01*
X004142Y003817D02*
X003590Y003817D01*
X003590Y003264D01*
X003668Y003277D01*
X003761Y003307D01*
X003849Y003352D01*
X003928Y003409D01*
X003997Y003479D01*
X004055Y003558D01*
X004099Y003645D01*
X004130Y003739D01*
X004142Y003817D01*
X004140Y003806D02*
X005352Y003806D01*
X005510Y003647D02*
X004100Y003647D01*
X004005Y003489D02*
X005528Y003489D01*
X005511Y003330D02*
X003806Y003330D01*
X003590Y003330D02*
X003455Y003330D01*
X003455Y003489D02*
X003590Y003489D01*
X003590Y003647D02*
X003455Y003647D01*
X003455Y003806D02*
X003590Y003806D01*
X003522Y003884D02*
X003522Y002992D01*
X003520Y002990D01*
X002916Y002379D02*
X005557Y002379D01*
X005531Y002221D02*
X002916Y002221D01*
X002916Y002062D02*
X005531Y002062D01*
X005988Y002062D02*
X006143Y002062D01*
X006143Y001904D02*
X007254Y001904D01*
X007095Y002062D02*
X006600Y002062D01*
X006600Y001894D02*
X006143Y001894D01*
X006143Y001476D01*
X006444Y001476D01*
X006489Y001488D01*
X006530Y001512D01*
X006564Y001546D01*
X006588Y001587D01*
X006600Y001632D01*
X006600Y001894D01*
X006600Y001745D02*
X007412Y001745D01*
X007571Y001587D02*
X006588Y001587D01*
X006143Y001587D02*
X005988Y001587D01*
X005988Y001745D02*
X006143Y001745D01*
X005988Y001904D02*
X002916Y001904D01*
X002916Y001745D02*
X005531Y001745D01*
X005537Y001615D02*
X005710Y001615D01*
X005543Y001587D02*
X002916Y001587D01*
X002916Y001428D02*
X007729Y001428D01*
X007943Y001270D02*
X002916Y001270D01*
X002916Y001111D02*
X035199Y001111D01*
X035199Y000953D02*
X002916Y000953D01*
X002916Y000794D02*
X035199Y000794D01*
X035199Y000636D02*
X002916Y000636D01*
X005988Y002221D02*
X006143Y002221D01*
X006143Y002379D02*
X005988Y002379D01*
X006066Y003073D02*
X006183Y003191D01*
X006183Y003427D01*
X006620Y004260D02*
X007157Y004270D01*
X009504Y005708D02*
X012342Y005708D01*
X012500Y005866D02*
X009434Y005866D01*
X009504Y006025D02*
X012659Y006025D01*
X012817Y006183D02*
X009504Y006183D01*
X009504Y006342D02*
X012976Y006342D01*
X013134Y006500D02*
X009504Y006500D01*
X009439Y006659D02*
X013226Y006659D01*
X013226Y006817D02*
X009504Y006817D01*
X009504Y006976D02*
X013226Y006976D01*
X013226Y007134D02*
X009504Y007134D01*
X009504Y007293D02*
X013226Y007293D01*
X013226Y007451D02*
X009444Y007451D01*
X009845Y009353D02*
X005084Y009353D01*
X004928Y009512D02*
X009744Y009512D01*
X009744Y009670D02*
X004772Y009670D01*
X004617Y009829D02*
X009744Y009829D01*
X009711Y009987D02*
X004461Y009987D01*
X004305Y010146D02*
X009552Y010146D01*
X009394Y010304D02*
X004149Y010304D01*
X003993Y010463D02*
X009235Y010463D01*
X009077Y010621D02*
X003837Y010621D01*
X003682Y010780D02*
X007938Y010780D01*
X008713Y011114D02*
X009036Y011114D01*
X009506Y011097D02*
X016037Y011097D01*
X016075Y011114D02*
X015967Y011114D01*
X016075Y011114D02*
X016144Y011184D01*
X016695Y011184D01*
X016845Y011255D02*
X018439Y011255D01*
X018281Y011414D02*
X016835Y011414D01*
X016855Y011572D02*
X018122Y011572D01*
X017964Y011731D02*
X016865Y011731D01*
X016865Y011889D02*
X017805Y011889D01*
X017647Y012048D02*
X016865Y012048D01*
X016865Y012206D02*
X017488Y012206D01*
X017330Y012365D02*
X016822Y012365D01*
X016845Y012523D02*
X017171Y012523D01*
X017013Y012682D02*
X016113Y012682D01*
X016075Y012689D02*
X016765Y012689D01*
X016845Y012840D02*
X016854Y012840D01*
X017329Y013157D02*
X017347Y013157D01*
X017487Y012999D02*
X017505Y012999D01*
X017646Y012840D02*
X017664Y012840D01*
X017804Y012682D02*
X017823Y012682D01*
X017963Y012523D02*
X017981Y012523D01*
X018121Y012365D02*
X018140Y012365D01*
X018280Y012206D02*
X018298Y012206D01*
X018438Y012048D02*
X021611Y012048D01*
X022220Y012349D02*
X018551Y012349D01*
X016680Y014220D01*
X016119Y014220D01*
X016075Y014264D01*
X015285Y014584D02*
X009503Y014584D01*
X009503Y014742D02*
X015284Y014742D01*
X015284Y014901D02*
X009503Y014901D01*
X009503Y015059D02*
X015284Y015059D01*
X015284Y015218D02*
X009503Y015218D01*
X009498Y015376D02*
X015290Y015376D01*
X015284Y015535D02*
X009503Y015535D01*
X008713Y015839D02*
X011508Y015839D01*
X013152Y017483D01*
X013530Y017437D02*
X019736Y017437D01*
X019578Y017595D02*
X013530Y017595D01*
X013520Y017754D02*
X019419Y017754D01*
X019261Y017912D02*
X002916Y017912D01*
X002916Y017754D02*
X012784Y017754D01*
X012774Y017595D02*
X002916Y017595D01*
X002916Y017437D02*
X012710Y017437D01*
X012551Y017278D02*
X002916Y017278D01*
X002916Y017120D02*
X012393Y017120D01*
X012234Y016961D02*
X009487Y016961D01*
X009503Y016803D02*
X012076Y016803D01*
X011917Y016644D02*
X009503Y016644D01*
X009503Y016486D02*
X011759Y016486D01*
X011600Y016327D02*
X009503Y016327D01*
X009493Y016169D02*
X011442Y016169D01*
X011917Y015852D02*
X015284Y015852D01*
X015284Y016010D02*
X012075Y016010D01*
X012234Y016169D02*
X015295Y016169D01*
X015284Y016327D02*
X012392Y016327D01*
X012551Y016486D02*
X015284Y016486D01*
X015284Y016644D02*
X012709Y016644D01*
X012868Y016803D02*
X015284Y016803D01*
X015300Y016961D02*
X013026Y016961D01*
X013428Y017120D02*
X020053Y017120D01*
X019895Y017278D02*
X013530Y017278D01*
X016075Y015839D02*
X016104Y015810D01*
X016660Y015810D01*
X018530Y013940D01*
X021420Y013940D01*
X021830Y014349D01*
X022220Y014349D01*
X021559Y014584D02*
X020319Y014584D01*
X020410Y014742D02*
X021706Y014742D01*
X021841Y014901D02*
X020453Y014901D01*
X020481Y015059D02*
X021599Y015059D01*
X021516Y015218D02*
X020481Y015218D01*
X020455Y015376D02*
X021500Y015376D01*
X021538Y015535D02*
X020412Y015535D01*
X020322Y015693D02*
X021480Y015693D01*
X021321Y015852D02*
X020197Y015852D01*
X020005Y016010D02*
X021163Y016010D01*
X021004Y016169D02*
X019594Y016169D01*
X019308Y016169D02*
X016855Y016169D01*
X016865Y016327D02*
X020846Y016327D01*
X020687Y016486D02*
X016865Y016486D01*
X016865Y016644D02*
X020529Y016644D01*
X020370Y016803D02*
X016865Y016803D01*
X016850Y016961D02*
X020212Y016961D01*
X020687Y017278D02*
X026752Y017278D01*
X026594Y017120D02*
X020845Y017120D01*
X020528Y017437D02*
X026911Y017437D01*
X027069Y017595D02*
X020370Y017595D01*
X020211Y017754D02*
X027228Y017754D01*
X027386Y017912D02*
X020053Y017912D01*
X019894Y018071D02*
X022005Y018071D01*
X022034Y018050D02*
X022111Y018011D01*
X022193Y017984D01*
X022279Y017970D01*
X022302Y017970D01*
X022302Y018500D01*
X022342Y018500D01*
X022342Y017970D01*
X022365Y017970D01*
X022451Y017984D01*
X022533Y018011D01*
X022610Y018050D01*
X022680Y018101D01*
X022742Y018162D01*
X022792Y018232D01*
X022810Y018267D01*
X022839Y018197D01*
X022999Y018037D01*
X023209Y017950D01*
X023435Y017950D01*
X023645Y018037D01*
X023805Y018197D01*
X023822Y018238D01*
X023839Y018197D01*
X023999Y018037D01*
X024209Y017950D01*
X024435Y017950D01*
X024645Y018037D01*
X024805Y018197D01*
X024822Y018238D01*
X024839Y018197D01*
X024999Y018037D01*
X025209Y017950D01*
X025435Y017950D01*
X025645Y018037D01*
X025805Y018197D01*
X025892Y018407D01*
X025892Y018634D01*
X025805Y018843D01*
X025645Y019003D01*
X025435Y019090D01*
X025209Y019090D01*
X024999Y019003D01*
X024839Y018843D01*
X024822Y018803D01*
X024805Y018843D01*
X024645Y019003D01*
X024435Y019090D01*
X024209Y019090D01*
X023999Y019003D01*
X023839Y018843D01*
X023822Y018803D01*
X023805Y018843D01*
X023645Y019003D01*
X023435Y019090D01*
X023209Y019090D01*
X022999Y019003D01*
X022839Y018843D01*
X022810Y018774D01*
X022792Y018808D01*
X022742Y018879D01*
X022680Y018940D01*
X022610Y018991D01*
X022533Y019030D01*
X022451Y019057D01*
X022365Y019070D01*
X022342Y019070D01*
X022342Y018540D01*
X022302Y018540D01*
X022302Y018500D01*
X021772Y018500D01*
X021772Y018477D01*
X021786Y018391D01*
X021812Y018309D01*
X021852Y018232D01*
X021903Y018162D01*
X021964Y018101D01*
X022034Y018050D01*
X021854Y018229D02*
X019736Y018229D01*
X019577Y018388D02*
X021787Y018388D01*
X021772Y018540D02*
X022302Y018540D01*
X022302Y019070D01*
X022279Y019070D01*
X022193Y019057D01*
X022111Y019030D01*
X022034Y018991D01*
X021964Y018940D01*
X021903Y018879D01*
X021852Y018808D01*
X021812Y018731D01*
X021786Y018649D01*
X021772Y018564D01*
X021772Y018540D01*
X021772Y018546D02*
X019419Y018546D01*
X019260Y018705D02*
X021804Y018705D01*
X021891Y018863D02*
X019102Y018863D01*
X018905Y018664D02*
X017483Y018664D01*
X017105Y018705D02*
X002916Y018705D01*
X002916Y018863D02*
X017105Y018863D01*
X017201Y019022D02*
X002916Y019022D01*
X002916Y019180D02*
X035199Y019180D01*
X035199Y019022D02*
X031230Y019022D01*
X031033Y019022D02*
X030993Y019022D01*
X030993Y018863D02*
X031033Y018863D01*
X031033Y018705D02*
X030993Y018705D01*
X030993Y018546D02*
X031033Y018546D01*
X031033Y018495D02*
X031563Y018495D01*
X031563Y018472D01*
X031549Y018386D01*
X031522Y018304D01*
X031483Y018227D01*
X031432Y018157D01*
X031371Y018096D01*
X031301Y018045D01*
X031224Y018005D01*
X031141Y017979D01*
X031056Y017965D01*
X031033Y017965D01*
X031033Y018495D01*
X031033Y018388D02*
X030993Y018388D01*
X030993Y018229D02*
X031033Y018229D01*
X031033Y018071D02*
X030993Y018071D01*
X030689Y018071D02*
X030374Y018071D01*
X030293Y017912D02*
X035199Y017912D01*
X035199Y017754D02*
X030293Y017754D01*
X030196Y017595D02*
X035199Y017595D01*
X035199Y018071D02*
X031336Y018071D01*
X031484Y018229D02*
X035199Y018229D01*
X035199Y018388D02*
X031549Y018388D01*
X031563Y018546D02*
X035199Y018546D01*
X035199Y018705D02*
X031529Y018705D01*
X031440Y018863D02*
X035199Y018863D01*
X035199Y019339D02*
X002916Y019339D01*
X002916Y018546D02*
X017105Y018546D01*
X017120Y018388D02*
X002916Y018388D01*
X002916Y018229D02*
X018944Y018229D01*
X019102Y018071D02*
X002916Y018071D01*
X000554Y016961D02*
X007938Y016961D01*
X007922Y016803D02*
X000554Y016803D01*
X000554Y016644D02*
X007922Y016644D01*
X007922Y016486D02*
X003938Y016486D01*
X003963Y016468D02*
X003883Y016525D01*
X003796Y016570D01*
X003703Y016600D01*
X003624Y016612D01*
X003624Y016060D01*
X003489Y016060D01*
X003489Y015925D01*
X002937Y015925D01*
X002949Y015847D01*
X002980Y015753D01*
X003024Y015666D01*
X003082Y015587D01*
X003151Y015517D01*
X003230Y015460D01*
X003318Y015415D01*
X003411Y015385D01*
X003489Y015373D01*
X003489Y015925D01*
X003624Y015925D01*
X003624Y015373D01*
X003703Y015385D01*
X003796Y015415D01*
X003883Y015460D01*
X003963Y015517D01*
X004032Y015587D01*
X004090Y015666D01*
X004134Y015753D01*
X004164Y015847D01*
X004177Y015925D01*
X003624Y015925D01*
X003624Y016060D01*
X004177Y016060D01*
X004164Y016138D01*
X004134Y016232D01*
X004090Y016319D01*
X004032Y016398D01*
X003963Y016468D01*
X004084Y016327D02*
X007922Y016327D01*
X007933Y016169D02*
X006951Y016169D01*
X007018Y016010D02*
X007922Y016010D01*
X007922Y015852D02*
X007018Y015852D01*
X007018Y015693D02*
X007922Y015693D01*
X007922Y015535D02*
X006974Y015535D01*
X006920Y015376D02*
X007928Y015376D01*
X007922Y015218D02*
X006920Y015218D01*
X006920Y015059D02*
X007922Y015059D01*
X007922Y014901D02*
X006920Y014901D01*
X006920Y014742D02*
X007922Y014742D01*
X007922Y014584D02*
X006920Y014584D01*
X006920Y014425D02*
X007922Y014425D01*
X007922Y014267D02*
X006920Y014267D01*
X006920Y014108D02*
X007922Y014108D01*
X007922Y013950D02*
X006920Y013950D01*
X006920Y013791D02*
X007922Y013791D01*
X007922Y013633D02*
X006920Y013633D01*
X006920Y013474D02*
X007922Y013474D01*
X007922Y013316D02*
X006920Y013316D01*
X006920Y013157D02*
X007923Y013157D01*
X007922Y012999D02*
X006920Y012999D01*
X006920Y012840D02*
X007922Y012840D01*
X007922Y012682D02*
X006920Y012682D01*
X006920Y012523D02*
X007922Y012523D01*
X007928Y012365D02*
X006920Y012365D01*
X006920Y012206D02*
X007922Y012206D01*
X007922Y012048D02*
X006920Y012048D01*
X006920Y011889D02*
X007922Y011889D01*
X007922Y011731D02*
X006920Y011731D01*
X006920Y011572D02*
X007933Y011572D01*
X006640Y011114D02*
X006640Y015840D01*
X006262Y015852D02*
X004165Y015852D01*
X004103Y015693D02*
X006262Y015693D01*
X006306Y015535D02*
X003980Y015535D01*
X003624Y015535D02*
X003489Y015535D01*
X003489Y015693D02*
X003624Y015693D01*
X003624Y015852D02*
X003489Y015852D01*
X003489Y016010D02*
X001624Y016010D01*
X001624Y016060D02*
X002177Y016060D01*
X002164Y016138D01*
X002134Y016232D01*
X002090Y016319D01*
X002032Y016398D01*
X001963Y016468D01*
X001883Y016525D01*
X001796Y016570D01*
X001703Y016600D01*
X001624Y016612D01*
X001624Y016060D01*
X001489Y016060D01*
X001489Y015925D01*
X000937Y015925D01*
X000949Y015847D01*
X000980Y015753D01*
X001024Y015666D01*
X001082Y015587D01*
X001151Y015517D01*
X001230Y015460D01*
X001318Y015415D01*
X001411Y015385D01*
X001489Y015373D01*
X001489Y015925D01*
X001624Y015925D01*
X001624Y015373D01*
X001703Y015385D01*
X001796Y015415D01*
X001883Y015460D01*
X001963Y015517D01*
X002032Y015587D01*
X002090Y015666D01*
X002134Y015753D01*
X002164Y015847D01*
X002177Y015925D01*
X001624Y015925D01*
X001624Y016060D01*
X001624Y016169D02*
X001489Y016169D01*
X001489Y016060D02*
X001489Y016612D01*
X001411Y016600D01*
X001318Y016570D01*
X001230Y016525D01*
X001151Y016468D01*
X001082Y016398D01*
X001024Y016319D01*
X000980Y016232D01*
X000949Y016138D01*
X000937Y016060D01*
X001489Y016060D01*
X001489Y016010D02*
X000554Y016010D01*
X000554Y015852D02*
X000949Y015852D01*
X001010Y015693D02*
X000554Y015693D01*
X000554Y015535D02*
X001134Y015535D01*
X001489Y015535D02*
X001624Y015535D01*
X001624Y015693D02*
X001489Y015693D01*
X001489Y015852D02*
X001624Y015852D01*
X002103Y015693D02*
X003010Y015693D01*
X002949Y015852D02*
X002165Y015852D01*
X002155Y016169D02*
X002959Y016169D01*
X002949Y016138D02*
X002937Y016060D01*
X003489Y016060D01*
X003489Y016612D01*
X003411Y016600D01*
X003318Y016570D01*
X003230Y016525D01*
X003151Y016468D01*
X003082Y016398D01*
X003024Y016319D01*
X002980Y016232D01*
X002949Y016138D01*
X003030Y016327D02*
X002084Y016327D01*
X001938Y016486D02*
X003176Y016486D01*
X003489Y016486D02*
X003624Y016486D01*
X003624Y016327D02*
X003489Y016327D01*
X003489Y016169D02*
X003624Y016169D01*
X003624Y016010D02*
X006262Y016010D01*
X006329Y016169D02*
X004155Y016169D01*
X003134Y015535D02*
X001980Y015535D01*
X002233Y015376D02*
X001646Y015376D01*
X001624Y015376D02*
X001489Y015376D01*
X001467Y015376D02*
X000554Y015376D01*
X000554Y015218D02*
X002109Y015218D01*
X002133Y015276D02*
X002057Y015092D01*
X002057Y014893D01*
X002133Y014709D01*
X002274Y014569D01*
X002457Y014493D01*
X002656Y014493D01*
X002840Y014569D01*
X002981Y014709D01*
X003057Y014893D01*
X003057Y015092D01*
X002981Y015276D01*
X002840Y015416D01*
X002656Y015493D01*
X002457Y015493D01*
X002274Y015416D01*
X002133Y015276D01*
X002057Y015059D02*
X000554Y015059D01*
X000554Y014901D02*
X002057Y014901D01*
X002119Y014742D02*
X000554Y014742D01*
X000554Y014584D02*
X001360Y014584D01*
X001318Y014570D02*
X001230Y014525D01*
X001151Y014468D01*
X001082Y014398D01*
X001024Y014319D01*
X000980Y014232D01*
X000949Y014138D01*
X000937Y014060D01*
X001489Y014060D01*
X001489Y013925D01*
X000937Y013925D01*
X000949Y013847D01*
X000980Y013753D01*
X001024Y013666D01*
X001082Y013587D01*
X001151Y013517D01*
X001230Y013460D01*
X001318Y013415D01*
X001411Y013385D01*
X001489Y013373D01*
X001489Y013925D01*
X001624Y013925D01*
X001624Y013373D01*
X001703Y013385D01*
X001796Y013415D01*
X001883Y013460D01*
X001963Y013517D01*
X002032Y013587D01*
X002090Y013666D01*
X002134Y013753D01*
X002164Y013847D01*
X002177Y013925D01*
X001624Y013925D01*
X001624Y014060D01*
X001489Y014060D01*
X001489Y014612D01*
X001411Y014600D01*
X001318Y014570D01*
X001489Y014584D02*
X001624Y014584D01*
X001624Y014612D02*
X001703Y014600D01*
X001796Y014570D01*
X001883Y014525D01*
X001963Y014468D01*
X002032Y014398D01*
X002090Y014319D01*
X002134Y014232D01*
X002164Y014138D01*
X002177Y014060D01*
X001624Y014060D01*
X001624Y014612D01*
X001754Y014584D02*
X002259Y014584D01*
X002005Y014425D02*
X003108Y014425D01*
X003082Y014398D02*
X003151Y014468D01*
X003230Y014525D01*
X003318Y014570D01*
X003411Y014600D01*
X003489Y014612D01*
X003489Y014060D01*
X003489Y013925D01*
X002937Y013925D01*
X002949Y013847D01*
X002980Y013753D01*
X003024Y013666D01*
X003082Y013587D01*
X003151Y013517D01*
X003230Y013460D01*
X003318Y013415D01*
X003411Y013385D01*
X003489Y013373D01*
X003489Y013925D01*
X003624Y013925D01*
X003624Y013373D01*
X003703Y013385D01*
X003796Y013415D01*
X003883Y013460D01*
X003963Y013517D01*
X004032Y013587D01*
X004090Y013666D01*
X004134Y013753D01*
X004164Y013847D01*
X004177Y013925D01*
X003624Y013925D01*
X003624Y014060D01*
X003489Y014060D01*
X002937Y014060D01*
X002949Y014138D01*
X002980Y014232D01*
X003024Y014319D01*
X003082Y014398D01*
X002997Y014267D02*
X002116Y014267D01*
X002169Y014108D02*
X002944Y014108D01*
X002967Y013791D02*
X002146Y013791D01*
X002065Y013633D02*
X003048Y013633D01*
X003211Y013474D02*
X001903Y013474D01*
X001624Y013474D02*
X001489Y013474D01*
X001489Y013633D02*
X001624Y013633D01*
X001624Y013791D02*
X001489Y013791D01*
X001489Y013950D02*
X000554Y013950D01*
X000554Y014108D02*
X000944Y014108D01*
X000997Y014267D02*
X000554Y014267D01*
X000554Y014425D02*
X001108Y014425D01*
X001489Y014425D02*
X001624Y014425D01*
X001624Y014267D02*
X001489Y014267D01*
X001489Y014108D02*
X001624Y014108D01*
X001624Y013950D02*
X003489Y013950D01*
X003624Y013950D02*
X006360Y013950D01*
X006360Y014108D02*
X004169Y014108D01*
X004164Y014138D02*
X004134Y014232D01*
X004090Y014319D01*
X004032Y014398D01*
X003963Y014468D01*
X003883Y014525D01*
X003796Y014570D01*
X003703Y014600D01*
X003624Y014612D01*
X003624Y014060D01*
X004177Y014060D01*
X004164Y014138D01*
X004116Y014267D02*
X006360Y014267D01*
X006360Y014425D02*
X004005Y014425D01*
X003754Y014584D02*
X006360Y014584D01*
X006360Y014742D02*
X002994Y014742D01*
X003057Y014901D02*
X006360Y014901D01*
X006360Y015059D02*
X003057Y015059D01*
X003005Y015218D02*
X006360Y015218D01*
X006360Y015376D02*
X003646Y015376D01*
X003624Y015376D02*
X003489Y015376D01*
X003467Y015376D02*
X002880Y015376D01*
X002855Y014584D02*
X003360Y014584D01*
X003489Y014584D02*
X003624Y014584D01*
X003624Y014425D02*
X003489Y014425D01*
X003489Y014267D02*
X003624Y014267D01*
X003624Y014108D02*
X003489Y014108D01*
X003489Y013791D02*
X003624Y013791D01*
X003624Y013633D02*
X003489Y013633D01*
X003489Y013474D02*
X003624Y013474D01*
X003903Y013474D02*
X006360Y013474D01*
X006360Y013316D02*
X000554Y013316D01*
X000554Y013474D02*
X001211Y013474D01*
X001048Y013633D02*
X000554Y013633D01*
X000554Y013791D02*
X000967Y013791D01*
X000554Y013157D02*
X006360Y013157D01*
X006360Y012999D02*
X000554Y012999D01*
X000554Y012840D02*
X006360Y012840D01*
X006360Y012682D02*
X000554Y012682D01*
X000554Y012523D02*
X006360Y012523D01*
X006360Y012365D02*
X000554Y012365D01*
X000554Y012206D02*
X006360Y012206D01*
X006360Y012048D02*
X000554Y012048D01*
X000554Y011889D02*
X002262Y011889D01*
X002121Y011731D02*
X000554Y011731D01*
X000554Y011572D02*
X002065Y011572D01*
X002065Y011414D02*
X000554Y011414D01*
X000554Y011255D02*
X002130Y011255D01*
X002307Y011097D02*
X000554Y011097D01*
X000554Y010938D02*
X002628Y010938D01*
X002784Y010780D02*
X000554Y010780D01*
X000554Y010621D02*
X002940Y010621D01*
X003096Y010463D02*
X000554Y010463D01*
X000554Y010304D02*
X003252Y010304D01*
X003407Y010146D02*
X000554Y010146D01*
X000554Y009987D02*
X003563Y009987D01*
X003719Y009829D02*
X000554Y009829D01*
X000554Y009670D02*
X003875Y009670D01*
X004031Y009512D02*
X000554Y009512D01*
X000554Y009353D02*
X004187Y009353D01*
X004342Y009195D02*
X000554Y009195D01*
X002794Y008878D02*
X003250Y008878D01*
X003526Y010938D02*
X003634Y010938D01*
X003980Y011572D02*
X006360Y011572D01*
X006360Y011731D02*
X003923Y011731D01*
X003783Y011889D02*
X006360Y011889D01*
X003262Y011889D02*
X002783Y011889D01*
X002923Y011731D02*
X003121Y011731D01*
X003065Y011572D02*
X002980Y011572D01*
X003058Y011414D02*
X003065Y011414D01*
X004065Y013633D02*
X006360Y013633D01*
X006360Y013791D02*
X004146Y013791D01*
X000959Y016169D02*
X000554Y016169D01*
X000554Y016327D02*
X001030Y016327D01*
X001176Y016486D02*
X000554Y016486D01*
X001489Y016486D02*
X001624Y016486D01*
X001624Y016327D02*
X001489Y016327D01*
X009982Y010621D02*
X018680Y010621D01*
X018680Y010463D02*
X014068Y010463D01*
X013260Y010463D02*
X010140Y010463D01*
X010774Y010304D02*
X010876Y010304D01*
X010866Y010146D02*
X010774Y010146D01*
X010774Y009987D02*
X010866Y009987D01*
X015261Y009670D02*
X018778Y009670D01*
X018676Y009512D02*
X015255Y009512D01*
X016767Y009036D02*
X018200Y009036D01*
X018042Y008878D02*
X016866Y008878D01*
X016866Y008719D02*
X017883Y008719D01*
X017725Y008561D02*
X017349Y008561D01*
X017418Y008402D02*
X017566Y008402D01*
X017040Y008230D02*
X016640Y007830D01*
X016076Y007830D01*
X016076Y007830D01*
X017248Y007293D02*
X017687Y007293D01*
X017845Y007451D02*
X017407Y007451D01*
X017565Y007610D02*
X018004Y007610D01*
X018162Y007768D02*
X017724Y007768D01*
X017882Y007927D02*
X018321Y007927D01*
X018479Y008085D02*
X018041Y008085D01*
X018199Y008244D02*
X018638Y008244D01*
X018796Y008402D02*
X018358Y008402D01*
X018516Y008561D02*
X018955Y008561D01*
X019113Y008719D02*
X018675Y008719D01*
X018833Y008878D02*
X019272Y008878D01*
X019430Y009036D02*
X018992Y009036D01*
X019150Y009195D02*
X019565Y009195D01*
X019565Y009353D02*
X019301Y009353D01*
X019338Y009512D02*
X019565Y009512D01*
X019565Y009670D02*
X019338Y009670D01*
X019338Y009829D02*
X019565Y009829D01*
X019565Y009987D02*
X019338Y009987D01*
X019436Y010146D02*
X019467Y010146D01*
X019467Y010304D02*
X019436Y010304D01*
X019436Y010463D02*
X019467Y010463D01*
X019467Y010621D02*
X019436Y010621D01*
X019058Y010396D02*
X019058Y009498D01*
X016600Y007040D01*
X016079Y007040D01*
X016076Y007043D01*
X016801Y006659D02*
X017053Y006659D01*
X017211Y006817D02*
X016866Y006817D01*
X016931Y006976D02*
X017370Y006976D01*
X017528Y007134D02*
X017090Y007134D01*
X017844Y006659D02*
X018203Y006659D01*
X018361Y006817D02*
X018003Y006817D01*
X018161Y006976D02*
X018520Y006976D01*
X018678Y007134D02*
X018320Y007134D01*
X018478Y007293D02*
X018837Y007293D01*
X018995Y007451D02*
X018637Y007451D01*
X018795Y007610D02*
X019154Y007610D01*
X019312Y007768D02*
X018954Y007768D01*
X019112Y007927D02*
X019471Y007927D01*
X019629Y008085D02*
X019271Y008085D01*
X019429Y008244D02*
X019788Y008244D01*
X019946Y008402D02*
X019588Y008402D01*
X019746Y008561D02*
X020105Y008561D01*
X020263Y008719D02*
X019905Y008719D01*
X020063Y008878D02*
X020422Y008878D01*
X020580Y009036D02*
X020125Y009036D01*
X020125Y009195D02*
X020739Y009195D01*
X020746Y009353D02*
X020125Y009353D01*
X020125Y009512D02*
X020746Y009512D01*
X020746Y009670D02*
X020125Y009670D01*
X020125Y009829D02*
X020746Y009829D01*
X020746Y009987D02*
X020125Y009987D01*
X020223Y010146D02*
X020648Y010146D01*
X020648Y010304D02*
X020223Y010304D01*
X020223Y010463D02*
X020648Y010463D01*
X020648Y010621D02*
X020223Y010621D01*
X019845Y010396D02*
X019845Y009055D01*
X017060Y006270D01*
X016630Y006270D01*
X016610Y006250D01*
X016081Y006250D01*
X016076Y006256D01*
X016796Y005866D02*
X017410Y005866D01*
X017569Y006025D02*
X017199Y006025D01*
X017369Y006183D02*
X017727Y006183D01*
X017886Y006342D02*
X017527Y006342D01*
X017686Y006500D02*
X018044Y006500D01*
X019311Y006976D02*
X019959Y006976D01*
X019959Y007134D02*
X019470Y007134D01*
X019628Y007293D02*
X019959Y007293D01*
X019970Y007451D02*
X019787Y007451D01*
X019945Y007610D02*
X020084Y007610D01*
X020104Y007768D02*
X020242Y007768D01*
X020262Y007927D02*
X020401Y007927D01*
X020421Y008085D02*
X020559Y008085D01*
X020579Y008244D02*
X020718Y008244D01*
X020738Y008402D02*
X020876Y008402D01*
X020896Y008561D02*
X021035Y008561D01*
X021055Y008719D02*
X021193Y008719D01*
X021213Y008878D02*
X021352Y008878D01*
X021306Y009036D02*
X021510Y009036D01*
X021526Y009195D02*
X021306Y009195D01*
X021306Y009353D02*
X021500Y009353D01*
X021529Y009512D02*
X021306Y009512D01*
X021306Y009670D02*
X021630Y009670D01*
X022220Y009349D02*
X020239Y007368D01*
X020239Y006223D01*
X020239Y006066D01*
X020161Y005549D02*
X020316Y005549D01*
X020316Y005391D02*
X020161Y005391D01*
X019743Y005549D02*
X017885Y005549D01*
X017726Y005391D02*
X019704Y005391D01*
X019704Y005232D02*
X017511Y005232D01*
X017450Y005510D02*
X021026Y009086D01*
X021026Y010396D01*
X022913Y009195D02*
X022922Y009195D01*
X022817Y009036D02*
X023080Y009036D01*
X025220Y009512D02*
X025220Y009512D01*
X025220Y009670D02*
X025220Y009670D01*
X025220Y010349D02*
X028395Y010349D01*
X029844Y008901D01*
X030508Y008901D01*
X032088Y010481D01*
X032603Y010463D02*
X033113Y010463D01*
X033191Y010481D02*
X033191Y011588D01*
X033188Y011591D01*
X034749Y013152D01*
X035593Y013152D01*
X035579Y013166D01*
X036029Y012682D02*
X031391Y012682D01*
X031232Y012840D02*
X037168Y012840D01*
X037168Y012682D02*
X036284Y012682D01*
X036557Y012523D02*
X037168Y012523D01*
X037168Y012365D02*
X036671Y012365D01*
X036726Y012206D02*
X037168Y012206D01*
X037168Y012048D02*
X036726Y012048D01*
X036679Y011889D02*
X037168Y011889D01*
X037168Y011731D02*
X036576Y011731D01*
X036508Y011572D02*
X037168Y011572D01*
X037168Y011414D02*
X036651Y011414D01*
X036716Y011255D02*
X037168Y011255D01*
X037168Y011097D02*
X036726Y011097D01*
X036699Y010938D02*
X037168Y010938D01*
X037168Y010780D02*
X036625Y010780D01*
X036448Y010621D02*
X037168Y010621D01*
X037168Y010463D02*
X036617Y010463D01*
X036696Y010304D02*
X037168Y010304D01*
X037168Y010146D02*
X036726Y010146D01*
X036719Y009987D02*
X037168Y009987D01*
X037168Y009829D02*
X036654Y009829D01*
X036515Y009670D02*
X037168Y009670D01*
X037168Y009512D02*
X036568Y009512D01*
X036676Y009353D02*
X037168Y009353D01*
X037168Y009195D02*
X036726Y009195D01*
X036726Y009036D02*
X037168Y009036D01*
X037168Y008878D02*
X036674Y008878D01*
X036564Y008719D02*
X037168Y008719D01*
X037168Y008561D02*
X036482Y008561D01*
X036629Y008402D02*
X037168Y008402D01*
X037168Y008244D02*
X036693Y008244D01*
X036706Y008085D02*
X037168Y008085D01*
X037168Y007927D02*
X036673Y007927D01*
X036582Y007768D02*
X037168Y007768D01*
X037168Y007610D02*
X036458Y007610D01*
X036629Y007451D02*
X037168Y007451D01*
X037168Y007293D02*
X036701Y007293D01*
X036726Y007134D02*
X037168Y007134D01*
X037168Y006976D02*
X036715Y006976D01*
X036649Y006817D02*
X037168Y006817D01*
X037168Y006659D02*
X036504Y006659D01*
X037168Y006500D02*
X034894Y006500D01*
X034894Y006342D02*
X037168Y006342D01*
X037168Y006183D02*
X034841Y006183D01*
X034476Y006183D02*
X034321Y006183D01*
X034321Y006342D02*
X034476Y006342D01*
X034476Y006500D02*
X034321Y006500D01*
X034321Y006659D02*
X033811Y006659D01*
X033811Y006817D02*
X033904Y006817D01*
X034321Y006817D02*
X034476Y006817D01*
X034476Y006742D02*
X034476Y007199D01*
X034737Y007199D01*
X034783Y007187D01*
X034824Y007163D01*
X034858Y007129D01*
X034882Y007088D01*
X034894Y007043D01*
X034894Y006742D01*
X034476Y006742D01*
X034476Y006659D02*
X035809Y006659D01*
X035664Y006817D02*
X034894Y006817D01*
X034894Y006976D02*
X035598Y006976D01*
X035586Y007134D02*
X034853Y007134D01*
X034476Y007134D02*
X034321Y007134D01*
X034321Y006976D02*
X034476Y006976D01*
X034399Y006664D02*
X034412Y006651D01*
X034399Y006664D02*
X034704Y006664D01*
X034265Y007293D02*
X035612Y007293D01*
X035684Y007451D02*
X034424Y007451D01*
X034582Y007610D02*
X035855Y007610D01*
X035730Y007768D02*
X034741Y007768D01*
X034899Y007927D02*
X035640Y007927D01*
X035606Y008085D02*
X035058Y008085D01*
X035216Y008244D02*
X035620Y008244D01*
X035684Y008402D02*
X035375Y008402D01*
X035533Y008561D02*
X035831Y008561D01*
X035749Y008719D02*
X035692Y008719D01*
X036149Y009110D02*
X036156Y009117D01*
X033924Y010304D02*
X033686Y010304D01*
X033686Y010146D02*
X033765Y010146D01*
X033448Y009829D02*
X031832Y009829D01*
X031674Y009670D02*
X033290Y009670D01*
X033131Y009512D02*
X031515Y009512D01*
X031357Y009353D02*
X032985Y009353D01*
X032951Y009195D02*
X031198Y009195D01*
X031040Y009036D02*
X032951Y009036D01*
X032951Y008878D02*
X030881Y008878D01*
X030723Y008719D02*
X032951Y008719D01*
X032951Y008561D02*
X030424Y008561D01*
X030424Y008402D02*
X032951Y008402D01*
X032951Y008244D02*
X030424Y008244D01*
X030424Y008085D02*
X032951Y008085D01*
X032829Y007927D02*
X031222Y007927D01*
X031247Y007768D02*
X032670Y007768D01*
X032512Y007610D02*
X031247Y007610D01*
X031247Y007451D02*
X032353Y007451D01*
X032195Y007293D02*
X031160Y007293D01*
X030577Y007293D02*
X029355Y007293D01*
X029366Y007273D02*
X029343Y007314D01*
X029309Y007348D01*
X029268Y007371D01*
X029222Y007384D01*
X028961Y007384D01*
X028961Y006927D01*
X028961Y006772D01*
X029379Y006772D01*
X029379Y006471D01*
X029366Y006425D01*
X029343Y006384D01*
X029309Y006351D01*
X029300Y006346D01*
X030145Y006346D01*
X030378Y006578D01*
X030378Y007134D01*
X030378Y006976D02*
X029379Y006976D01*
X029379Y006659D02*
X030378Y006659D01*
X030378Y006817D02*
X028961Y006817D01*
X028887Y006853D02*
X029688Y006853D01*
X029379Y006500D02*
X030300Y006500D01*
X030261Y006066D02*
X030893Y006697D01*
X030869Y006721D01*
X030869Y007640D01*
X030491Y007451D02*
X028039Y007451D01*
X028290Y007293D02*
X028412Y007293D01*
X028389Y007134D02*
X028296Y007134D01*
X028296Y006976D02*
X028389Y006976D01*
X028296Y006817D02*
X028806Y006817D01*
X028884Y006849D02*
X028887Y006853D01*
X028961Y006976D02*
X028806Y006976D01*
X028806Y007134D02*
X028961Y007134D01*
X028961Y007293D02*
X028806Y007293D01*
X029366Y007273D02*
X029379Y007227D01*
X029381Y007651D02*
X030307Y007651D01*
X030424Y007768D01*
X030424Y007927D02*
X030516Y007927D01*
X029381Y007651D02*
X029264Y007768D01*
X029264Y007927D02*
X028039Y007927D01*
X028039Y008085D02*
X029264Y008085D01*
X029264Y008244D02*
X028039Y008244D01*
X028040Y008402D02*
X029264Y008402D01*
X029264Y008561D02*
X028040Y008561D01*
X028040Y008719D02*
X029264Y008719D01*
X029264Y008878D02*
X028040Y008878D01*
X028040Y009036D02*
X029264Y009036D01*
X029154Y009195D02*
X028040Y009195D01*
X028040Y009353D02*
X028995Y009353D01*
X028837Y009512D02*
X028071Y009512D01*
X028098Y009670D02*
X028678Y009670D01*
X028520Y009829D02*
X028098Y009829D01*
X028098Y009987D02*
X028361Y009987D01*
X028995Y010146D02*
X029376Y010146D01*
X029264Y009987D02*
X029153Y009987D01*
X028836Y010304D02*
X031516Y010304D01*
X031573Y010463D02*
X028678Y010463D01*
X028471Y010621D02*
X031573Y010621D01*
X031573Y010780D02*
X025643Y010780D01*
X025689Y010938D02*
X031594Y010938D01*
X031628Y011097D02*
X028614Y011097D01*
X028794Y011255D02*
X031571Y011255D01*
X031571Y011414D02*
X028953Y011414D01*
X029111Y011572D02*
X029264Y011572D01*
X028636Y011889D02*
X018597Y011889D01*
X018755Y011731D02*
X021690Y011731D01*
X021641Y012682D02*
X018614Y012682D01*
X018456Y012840D02*
X029264Y012840D01*
X029264Y012682D02*
X025798Y012682D01*
X025906Y012523D02*
X029264Y012523D01*
X029112Y012365D02*
X025940Y012365D01*
X025918Y012206D02*
X028953Y012206D01*
X028795Y012048D02*
X025828Y012048D01*
X025749Y011731D02*
X028478Y011731D01*
X028492Y011349D02*
X025220Y011349D01*
X025779Y012999D02*
X029264Y012999D01*
X029264Y013157D02*
X025898Y013157D01*
X025940Y013316D02*
X029264Y013316D01*
X029264Y013474D02*
X025926Y013474D01*
X025847Y013633D02*
X029264Y013633D01*
X029264Y013791D02*
X025615Y013791D01*
X025717Y013950D02*
X029380Y013950D01*
X030308Y013950D02*
X037168Y013950D01*
X037168Y014108D02*
X025878Y014108D01*
X025220Y014349D02*
X026170Y015090D01*
X026170Y015180D01*
X026170Y015670D01*
X027923Y017483D01*
X029688Y017483D01*
X030013Y017808D01*
X030013Y018515D01*
X030511Y018229D02*
X030541Y018229D01*
X030585Y018863D02*
X030471Y018863D01*
X030280Y019022D02*
X030795Y019022D01*
X029746Y019022D02*
X029280Y019022D01*
X029471Y018863D02*
X029554Y018863D01*
X029013Y018515D02*
X029013Y017989D01*
X028900Y017877D01*
X027747Y017877D01*
X025220Y015349D01*
X022220Y015349D02*
X018905Y018664D01*
X017764Y019022D02*
X022094Y019022D01*
X022302Y019022D02*
X022342Y019022D01*
X022342Y018863D02*
X022302Y018863D01*
X022302Y018705D02*
X022342Y018705D01*
X022342Y018546D02*
X022302Y018546D01*
X022302Y018388D02*
X022342Y018388D01*
X022342Y018229D02*
X022302Y018229D01*
X022302Y018071D02*
X022342Y018071D01*
X022639Y018071D02*
X022966Y018071D01*
X022826Y018229D02*
X022790Y018229D01*
X023678Y018071D02*
X023966Y018071D01*
X023826Y018229D02*
X023818Y018229D01*
X024678Y018071D02*
X024966Y018071D01*
X024826Y018229D02*
X024818Y018229D01*
X024785Y018863D02*
X024859Y018863D01*
X025043Y019022D02*
X024601Y019022D01*
X024043Y019022D02*
X023601Y019022D01*
X023785Y018863D02*
X023859Y018863D01*
X023043Y019022D02*
X022550Y019022D01*
X022753Y018863D02*
X022859Y018863D01*
X025601Y019022D02*
X027746Y019022D01*
X027554Y018863D02*
X025785Y018863D01*
X025863Y018705D02*
X027474Y018705D01*
X027443Y018546D02*
X025892Y018546D01*
X025884Y018388D02*
X027449Y018388D01*
X027514Y018229D02*
X025818Y018229D01*
X025678Y018071D02*
X027545Y018071D01*
X028471Y018863D02*
X028554Y018863D01*
X028746Y019022D02*
X028280Y019022D01*
X030037Y017437D02*
X037168Y017437D01*
X037168Y015376D02*
X030853Y015376D01*
X030817Y015218D02*
X037168Y015218D01*
X037168Y013791D02*
X030424Y013791D01*
X030424Y013633D02*
X037168Y013633D01*
X037168Y013474D02*
X030424Y013474D01*
X030424Y013316D02*
X037168Y013316D01*
X037168Y013157D02*
X030424Y013157D01*
X030424Y012999D02*
X037168Y012999D01*
X036156Y012117D02*
X036133Y012117D01*
X033231Y009215D01*
X033231Y007933D01*
X031995Y006697D01*
X031480Y006659D02*
X031408Y006659D01*
X031408Y006817D02*
X031480Y006817D01*
X031480Y006976D02*
X031408Y006976D01*
X031408Y006500D02*
X031480Y006500D01*
X031480Y006342D02*
X031408Y006342D01*
X031331Y006183D02*
X031557Y006183D01*
X032433Y006183D02*
X032826Y006183D01*
X032781Y006342D02*
X032510Y006342D01*
X032510Y006500D02*
X032781Y006500D01*
X032781Y006659D02*
X032510Y006659D01*
X032511Y006817D02*
X032781Y006817D01*
X032781Y006976D02*
X032670Y006976D01*
X033296Y006776D02*
X033296Y006664D01*
X033231Y006599D01*
X033811Y006500D02*
X033904Y006500D01*
X033904Y006342D02*
X033811Y006342D01*
X033767Y006183D02*
X033956Y006183D01*
X033551Y006025D02*
X037168Y006025D01*
X037168Y005866D02*
X033484Y005866D01*
X033325Y005708D02*
X037168Y005708D01*
X037168Y005549D02*
X034033Y005549D01*
X034143Y005391D02*
X034196Y005391D01*
X034193Y005379D02*
X034193Y004955D01*
X034573Y004955D01*
X034573Y004876D01*
X034193Y004876D01*
X034193Y004452D01*
X034205Y004406D01*
X034229Y004365D01*
X034263Y004332D01*
X034304Y004308D01*
X034349Y004296D01*
X034573Y004296D01*
X034573Y004876D01*
X034653Y004876D01*
X034653Y004955D01*
X035033Y004955D01*
X035033Y005379D01*
X035021Y005425D01*
X034997Y005466D01*
X034964Y005500D01*
X034923Y005523D01*
X034877Y005535D01*
X034653Y005535D01*
X034653Y004955D01*
X034573Y004955D01*
X034573Y005535D01*
X034349Y005535D01*
X034304Y005523D01*
X034263Y005500D01*
X034229Y005466D01*
X034205Y005425D01*
X034193Y005379D01*
X034193Y005232D02*
X034143Y005232D01*
X034143Y005074D02*
X034193Y005074D01*
X034143Y004915D02*
X034573Y004915D01*
X034613Y004916D02*
X034613Y004683D01*
X034480Y004550D01*
X034480Y003690D01*
X034023Y003647D02*
X037168Y003647D01*
X037168Y003489D02*
X034023Y003489D01*
X034023Y003330D02*
X037168Y003330D01*
X037168Y003172D02*
X034023Y003172D01*
X034590Y003013D02*
X037168Y003013D01*
X037168Y003806D02*
X034023Y003806D01*
X034023Y003964D02*
X037168Y003964D01*
X037168Y004123D02*
X034023Y004123D01*
X034032Y004281D02*
X037168Y004281D01*
X037168Y004440D02*
X035030Y004440D01*
X035033Y004452D02*
X035033Y004876D01*
X034653Y004876D01*
X034653Y004296D01*
X034877Y004296D01*
X034923Y004308D01*
X034964Y004332D01*
X034997Y004365D01*
X035021Y004406D01*
X035033Y004452D01*
X035033Y004598D02*
X037168Y004598D01*
X037168Y004757D02*
X035033Y004757D01*
X034653Y004757D02*
X034573Y004757D01*
X034573Y004598D02*
X034653Y004598D01*
X034653Y004440D02*
X034573Y004440D01*
X034196Y004440D02*
X034143Y004440D01*
X034143Y004598D02*
X034193Y004598D01*
X034193Y004757D02*
X034143Y004757D01*
X034653Y004915D02*
X037168Y004915D01*
X037168Y005074D02*
X035033Y005074D01*
X035033Y005232D02*
X037168Y005232D01*
X037168Y005391D02*
X035030Y005391D01*
X034653Y005391D02*
X034573Y005391D01*
X034573Y005232D02*
X034653Y005232D01*
X034653Y005074D02*
X034573Y005074D01*
X033374Y005549D02*
X033167Y005549D01*
X033233Y005391D02*
X033263Y005391D01*
X033263Y005232D02*
X033233Y005232D01*
X033233Y005074D02*
X033263Y005074D01*
X033263Y004915D02*
X033233Y004915D01*
X033233Y004757D02*
X033263Y004757D01*
X033263Y004598D02*
X033233Y004598D01*
X033233Y004440D02*
X033263Y004440D01*
X033375Y004281D02*
X033122Y004281D01*
X033383Y004123D02*
X031224Y004123D01*
X031224Y003985D02*
X031224Y004442D01*
X031224Y004899D01*
X031212Y004945D01*
X031188Y004986D01*
X031155Y005019D01*
X031114Y005043D01*
X031068Y005055D01*
X030916Y005055D01*
X030765Y005055D01*
X030719Y005043D01*
X030678Y005019D01*
X030644Y004986D01*
X030621Y004945D01*
X030608Y004899D01*
X030608Y004442D01*
X030916Y004442D01*
X030916Y004442D01*
X030608Y004442D01*
X030608Y003985D01*
X030621Y003939D01*
X030644Y003898D01*
X030678Y003865D01*
X030719Y003841D01*
X030765Y003829D01*
X030916Y003829D01*
X030916Y004442D01*
X030916Y005055D01*
X030916Y004442D01*
X030916Y004442D01*
X030916Y004442D01*
X031013Y004538D01*
X030916Y004598D02*
X030916Y004598D01*
X030916Y004442D02*
X031224Y004442D01*
X030916Y004442D01*
X030916Y003829D01*
X031068Y003829D01*
X031114Y003841D01*
X031155Y003865D01*
X031188Y003898D01*
X031212Y003939D01*
X031224Y003985D01*
X031218Y003964D02*
X033383Y003964D01*
X033383Y003806D02*
X029180Y003806D01*
X029180Y003964D02*
X030614Y003964D01*
X030608Y004123D02*
X029180Y004123D01*
X029180Y004281D02*
X030608Y004281D01*
X030608Y004440D02*
X029235Y004440D01*
X029352Y004598D02*
X030608Y004598D01*
X030608Y004757D02*
X029352Y004757D01*
X029352Y004915D02*
X030613Y004915D01*
X030916Y004915D02*
X030916Y004915D01*
X030916Y004757D02*
X030916Y004757D01*
X031224Y004757D02*
X032354Y004757D01*
X032354Y004915D02*
X031220Y004915D01*
X031224Y004598D02*
X032354Y004598D01*
X032354Y004440D02*
X031224Y004440D01*
X031224Y004281D02*
X032465Y004281D01*
X033383Y003647D02*
X029180Y003647D01*
X029180Y003489D02*
X030588Y003489D01*
X030588Y003330D02*
X029180Y003330D01*
X029180Y003172D02*
X030588Y003172D01*
X030588Y003013D02*
X029180Y003013D01*
X029180Y002855D02*
X030588Y002855D01*
X030588Y002696D02*
X029180Y002696D01*
X029180Y002538D02*
X030588Y002538D01*
X030600Y002379D02*
X029180Y002379D01*
X029180Y002221D02*
X030600Y002221D01*
X030600Y002062D02*
X029180Y002062D01*
X028620Y002062D02*
X025843Y002062D01*
X025924Y002221D02*
X027045Y002221D01*
X026819Y002379D02*
X025940Y002379D01*
X025900Y002538D02*
X026675Y002538D01*
X026584Y002696D02*
X025962Y002696D01*
X026121Y002855D02*
X026528Y002855D01*
X026489Y003013D02*
X026279Y003013D01*
X026438Y003172D02*
X026489Y003172D01*
X026360Y003490D02*
X026360Y004520D01*
X026834Y004994D01*
X027735Y004994D01*
X027735Y004900D01*
X027719Y004884D01*
X027719Y005278D01*
X028506Y006066D01*
X030261Y006066D01*
X030458Y005866D02*
X032579Y005866D01*
X032480Y005708D02*
X028544Y005708D01*
X028386Y005549D02*
X032464Y005549D01*
X032354Y005391D02*
X029352Y005391D01*
X029352Y005232D02*
X032354Y005232D01*
X032354Y005074D02*
X029352Y005074D01*
X028900Y004931D02*
X028900Y001600D01*
X028620Y002221D02*
X027993Y002221D01*
X028219Y002379D02*
X028620Y002379D01*
X028620Y002538D02*
X028363Y002538D01*
X028454Y002696D02*
X028620Y002696D01*
X028620Y002855D02*
X028510Y002855D01*
X028549Y003013D02*
X028620Y003013D01*
X028620Y003172D02*
X028549Y003172D01*
X028533Y003330D02*
X028620Y003330D01*
X028620Y003489D02*
X028491Y003489D01*
X028413Y003647D02*
X028620Y003647D01*
X028620Y003806D02*
X028306Y003806D01*
X028145Y003964D02*
X028620Y003964D01*
X028620Y004123D02*
X027816Y004123D01*
X027222Y004123D02*
X026640Y004123D01*
X026640Y004281D02*
X028620Y004281D01*
X028439Y004440D02*
X028132Y004440D01*
X028250Y004598D02*
X028322Y004598D01*
X028322Y004757D02*
X028250Y004757D01*
X028250Y004915D02*
X028322Y004915D01*
X028322Y005074D02*
X028250Y005074D01*
X028250Y005232D02*
X028322Y005232D01*
X028322Y005391D02*
X028250Y005391D01*
X027594Y005549D02*
X025895Y005549D01*
X025940Y005391D02*
X027220Y005391D01*
X026677Y005232D02*
X025929Y005232D01*
X025854Y005074D02*
X026518Y005074D01*
X026359Y004915D02*
X025633Y004915D01*
X025699Y004757D02*
X026201Y004757D01*
X026089Y004598D02*
X025874Y004598D01*
X025940Y004440D02*
X026080Y004440D01*
X026080Y004281D02*
X025940Y004281D01*
X025884Y004123D02*
X026080Y004123D01*
X026080Y003964D02*
X025745Y003964D01*
X025580Y003806D02*
X026080Y003806D01*
X026080Y003647D02*
X025832Y003647D01*
X025920Y003489D02*
X025963Y003489D01*
X026360Y003490D02*
X025220Y002349D01*
X024000Y002379D02*
X022940Y002379D01*
X022924Y002221D02*
X024000Y002221D01*
X024000Y002062D02*
X022843Y002062D01*
X022900Y002538D02*
X024000Y002538D01*
X024000Y002696D02*
X022783Y002696D01*
X021656Y002696D02*
X020387Y002696D01*
X020295Y002538D02*
X021540Y002538D01*
X021500Y002379D02*
X020151Y002379D01*
X019926Y002221D02*
X021515Y002221D01*
X021596Y002062D02*
X008001Y002062D01*
X008159Y001904D02*
X010116Y001904D01*
X010220Y001600D02*
X010200Y001580D01*
X010286Y001270D02*
X035199Y001270D01*
X035199Y001428D02*
X032431Y001428D01*
X032589Y001587D02*
X035199Y001587D01*
X035199Y001745D02*
X032748Y001745D01*
X032159Y002062D02*
X031240Y002062D01*
X031240Y002221D02*
X032318Y002221D01*
X032476Y002379D02*
X031240Y002379D01*
X031244Y002538D02*
X032635Y002538D01*
X032795Y002696D02*
X031244Y002696D01*
X031244Y002855D02*
X032795Y002855D01*
X032816Y003013D02*
X031244Y003013D01*
X031244Y003172D02*
X033383Y003172D01*
X033383Y003330D02*
X031244Y003330D01*
X031244Y003489D02*
X033383Y003489D01*
X034612Y002855D02*
X035199Y002855D01*
X035199Y002696D02*
X034612Y002696D01*
X034612Y002538D02*
X035199Y002538D01*
X035199Y002379D02*
X034612Y002379D01*
X034612Y002221D02*
X035199Y002221D01*
X035120Y002250D02*
X035199Y002329D01*
X035199Y002062D02*
X034612Y002062D01*
X034556Y001904D02*
X035199Y001904D01*
X033703Y002475D02*
X033085Y002475D01*
X032990Y002380D01*
X032930Y002380D01*
X030920Y002981D02*
X030916Y002985D01*
X030916Y003964D02*
X030916Y003964D01*
X030916Y004123D02*
X030916Y004123D01*
X030916Y004281D02*
X030916Y004281D01*
X030916Y004440D02*
X030916Y004440D01*
X030916Y004442D02*
X030916Y004442D01*
X028900Y004931D02*
X028837Y004994D01*
X027735Y004994D02*
X027735Y004864D01*
X027220Y004598D02*
X026834Y004598D01*
X026675Y004440D02*
X027337Y004440D01*
X026894Y003964D02*
X026640Y003964D01*
X026640Y003806D02*
X026732Y003806D01*
X024859Y003806D02*
X024640Y003806D01*
X024640Y003964D02*
X024694Y003964D01*
X024640Y004757D02*
X024741Y004757D01*
X024806Y004915D02*
X024640Y004915D01*
X024640Y005708D02*
X024667Y005708D01*
X024640Y005866D02*
X027911Y005866D01*
X028069Y006025D02*
X025805Y006025D01*
X025909Y006183D02*
X028228Y006183D01*
X028226Y006342D02*
X028441Y006342D01*
X028389Y006500D02*
X028296Y006500D01*
X028296Y006659D02*
X028389Y006659D01*
X027781Y006849D02*
X027719Y006911D01*
X027266Y006659D02*
X025821Y006659D01*
X025915Y006500D02*
X027266Y006500D01*
X027337Y006342D02*
X025940Y006342D01*
X025772Y005708D02*
X027752Y005708D01*
X030616Y006025D02*
X032737Y006025D01*
X027719Y008428D02*
X027720Y008429D01*
X030424Y009353D02*
X030565Y009353D01*
X030424Y009512D02*
X030723Y009512D01*
X030882Y009670D02*
X030424Y009670D01*
X030424Y009829D02*
X031040Y009829D01*
X031199Y009987D02*
X030424Y009987D01*
X030312Y010146D02*
X031357Y010146D01*
X032547Y009987D02*
X032761Y009987D01*
X032696Y010146D02*
X032603Y010146D01*
X032603Y010304D02*
X032696Y010304D01*
X033113Y010304D02*
X033268Y010304D01*
X033268Y010146D02*
X033113Y010146D01*
X033113Y009987D02*
X033268Y009987D01*
X033268Y010463D02*
X034082Y010463D01*
X034241Y010621D02*
X033686Y010621D01*
X033686Y010780D02*
X034399Y010780D01*
X034558Y010938D02*
X033654Y010938D01*
X033572Y011069D02*
X033527Y011057D01*
X033265Y011057D01*
X033265Y011514D01*
X033265Y011669D01*
X033110Y011669D01*
X033110Y012125D01*
X032849Y012125D01*
X032803Y012113D01*
X032762Y012089D01*
X032729Y012056D01*
X032705Y012015D01*
X032693Y011969D01*
X032693Y011669D01*
X033110Y011669D01*
X033110Y011514D01*
X032693Y011514D01*
X032693Y011213D01*
X032705Y011167D01*
X032729Y011126D01*
X032762Y011093D01*
X032803Y011069D01*
X032849Y011057D01*
X033110Y011057D01*
X033110Y011514D01*
X033265Y011514D01*
X033683Y011514D01*
X033683Y011213D01*
X033671Y011167D01*
X033647Y011126D01*
X033613Y011093D01*
X033572Y011069D01*
X033617Y011097D02*
X034716Y011097D01*
X034875Y011255D02*
X033683Y011255D01*
X033683Y011414D02*
X035033Y011414D01*
X035192Y011572D02*
X033265Y011572D01*
X033265Y011669D02*
X033683Y011669D01*
X033683Y011969D01*
X033671Y012015D01*
X033647Y012056D01*
X033613Y012089D01*
X033572Y012113D01*
X033527Y012125D01*
X033265Y012125D01*
X033265Y011669D01*
X033265Y011731D02*
X033110Y011731D01*
X033110Y011889D02*
X033265Y011889D01*
X033265Y012048D02*
X033110Y012048D01*
X032724Y012048D02*
X032581Y012048D01*
X032600Y011889D02*
X032693Y011889D01*
X032693Y011731D02*
X032600Y011731D01*
X032600Y011572D02*
X033110Y011572D01*
X033110Y011414D02*
X033265Y011414D01*
X033265Y011255D02*
X033110Y011255D01*
X033110Y011097D02*
X033265Y011097D01*
X033268Y010938D02*
X033113Y010938D01*
X033113Y010780D02*
X033268Y010780D01*
X033268Y010621D02*
X033113Y010621D01*
X032696Y010621D02*
X032603Y010621D01*
X032603Y010780D02*
X032696Y010780D01*
X032727Y010938D02*
X032583Y010938D01*
X032543Y011097D02*
X032759Y011097D01*
X032693Y011255D02*
X032600Y011255D01*
X032600Y011414D02*
X032693Y011414D01*
X032086Y011591D02*
X030976Y012701D01*
X029844Y012701D01*
X028492Y011349D01*
X030424Y011572D02*
X031571Y011572D01*
X031550Y011731D02*
X030424Y011731D01*
X030424Y011889D02*
X031392Y011889D01*
X031233Y012048D02*
X030424Y012048D01*
X030424Y012206D02*
X031075Y012206D01*
X030916Y012365D02*
X030424Y012365D01*
X031213Y012859D02*
X031213Y012859D01*
X031549Y012523D02*
X035756Y012523D01*
X035642Y012365D02*
X031708Y012365D01*
X031866Y012206D02*
X035586Y012206D01*
X035586Y012048D02*
X033652Y012048D01*
X033683Y011889D02*
X035509Y011889D01*
X035350Y011731D02*
X033683Y011731D01*
X024000Y006659D02*
X022821Y006659D01*
X022915Y006500D02*
X024000Y006500D01*
X024000Y006342D02*
X022940Y006342D01*
X022909Y006183D02*
X024000Y006183D01*
X024000Y006025D02*
X022805Y006025D01*
X020316Y004915D02*
X020161Y004915D01*
X020161Y004757D02*
X020316Y004757D01*
X017450Y005510D02*
X016118Y005510D01*
X016076Y005468D01*
X016059Y003910D02*
X016076Y003893D01*
X016076Y003106D02*
X016092Y003090D01*
X016670Y003090D01*
X016114Y003013D02*
X016038Y003013D01*
X016038Y002855D02*
X016114Y002855D01*
X016114Y002696D02*
X016038Y002696D01*
X016992Y002190D02*
X017020Y002190D01*
X003590Y003964D02*
X003455Y003964D01*
X003455Y004123D02*
X003590Y004123D01*
X003590Y004281D02*
X003455Y004281D01*
X003455Y004440D02*
X003590Y004440D01*
X002290Y004440D02*
X001805Y004440D01*
X016037Y010780D02*
X016113Y010780D01*
X016113Y010938D02*
X016037Y010938D01*
X016113Y011097D02*
X018619Y011097D01*
X018297Y012999D02*
X021660Y012999D01*
X022220Y013349D02*
X018291Y013349D01*
X016640Y015000D01*
X016126Y015000D01*
X016075Y015051D01*
X016977Y015059D02*
X017015Y015059D01*
X017135Y014901D02*
X017173Y014901D01*
X017294Y014742D02*
X017332Y014742D01*
X017452Y014584D02*
X017490Y014584D01*
X017611Y014425D02*
X017649Y014425D01*
X017769Y014267D02*
X017807Y014267D01*
X017928Y014108D02*
X017966Y014108D01*
X018086Y013950D02*
X018124Y013950D01*
X018245Y013791D02*
X018283Y013791D01*
X018403Y013633D02*
X021592Y013633D01*
X021667Y013791D02*
X021824Y013791D01*
X021351Y014267D02*
X019997Y014267D01*
X020192Y014425D02*
X021500Y014425D01*
X018905Y014267D02*
X018599Y014267D01*
X018710Y014425D02*
X018441Y014425D01*
X018584Y014584D02*
X018282Y014584D01*
X018124Y014742D02*
X018492Y014742D01*
X018449Y014901D02*
X017965Y014901D01*
X017807Y015059D02*
X018421Y015059D01*
X018421Y015218D02*
X017648Y015218D01*
X017490Y015376D02*
X018448Y015376D01*
X018491Y015535D02*
X017331Y015535D01*
X017173Y015693D02*
X018581Y015693D01*
X018706Y015852D02*
X017014Y015852D01*
X016865Y016010D02*
X018897Y016010D01*
X015284Y015693D02*
X011758Y015693D01*
X016865Y013633D02*
X016871Y013633D01*
X017012Y013474D02*
X017030Y013474D01*
X017170Y013316D02*
X017188Y013316D01*
D26*
X014400Y012730D03*
X010396Y013940D03*
X006640Y015840D03*
X013152Y017483D03*
X017483Y018664D03*
X023080Y014120D03*
X029880Y016630D03*
X030475Y015514D03*
X035593Y013152D03*
X027720Y009800D03*
X026150Y009770D03*
X026144Y008821D03*
X024176Y009215D03*
X023270Y008330D03*
X021026Y010396D03*
X019845Y010396D03*
X019058Y010396D03*
X017040Y008230D03*
X012730Y009250D03*
X013040Y004880D03*
X014270Y004610D03*
X017020Y002190D03*
X015508Y001027D03*
X006620Y004260D03*
X003520Y002990D03*
X029688Y006853D03*
X030869Y007640D03*
X032230Y003700D03*
X034480Y003690D03*
X035120Y002250D03*
M02*
