G75*
%MOIN*%
%OFA0B0*%
%FSLAX24Y24*%
%IPPOS*%
%LPD*%
%AMOC8*
5,1,8,0,0,1.08239X$1,22.5*
%
%ADD10C,0.0080*%
%ADD11C,0.0110*%
%ADD12C,0.0120*%
%ADD13C,0.0050*%
D10*
X004512Y002030D02*
X004832Y002030D01*
X004512Y002351D01*
X004512Y002431D01*
X004592Y002511D01*
X004752Y002511D01*
X004832Y002431D01*
X005028Y002511D02*
X005348Y002511D01*
X005348Y002030D01*
X005543Y002030D02*
X005703Y002190D01*
X005623Y002190D02*
X005863Y002190D01*
X005863Y002030D02*
X005863Y002511D01*
X005623Y002511D01*
X005543Y002431D01*
X005543Y002271D01*
X005623Y002190D01*
X005348Y002271D02*
X005188Y002271D01*
X005299Y002896D02*
X005299Y003683D01*
X005851Y003683D01*
X006126Y003525D02*
X006362Y003289D01*
X006126Y003053D01*
X006126Y003525D01*
X006362Y003565D02*
X006362Y003289D01*
X006362Y003014D01*
X006638Y002896D02*
X007189Y002896D01*
X007189Y003683D01*
X006638Y003683D01*
X005851Y002896D02*
X005299Y002896D01*
X006574Y002431D02*
X006574Y002271D01*
X006655Y002190D01*
X006895Y002190D01*
X006895Y002030D02*
X006895Y002511D01*
X006655Y002511D01*
X006574Y002431D01*
X007090Y002511D02*
X007090Y002030D01*
X007250Y002190D01*
X007410Y002030D01*
X007410Y002511D01*
X007606Y002431D02*
X007606Y002271D01*
X007686Y002190D01*
X007926Y002190D01*
X007926Y002030D02*
X007926Y002511D01*
X007686Y002511D01*
X007606Y002431D01*
X006735Y002190D02*
X006574Y002030D01*
X006379Y001950D02*
X006059Y001950D01*
X007598Y001338D02*
X007808Y001198D01*
X007598Y001058D01*
X007808Y001058D02*
X007808Y001478D01*
X008128Y001478D02*
X008268Y001338D01*
X008128Y001478D02*
X008128Y001058D01*
X008268Y001058D02*
X007988Y001058D01*
X010308Y000899D02*
X010628Y001379D01*
X010824Y001379D02*
X011144Y001379D01*
X010984Y001379D02*
X010984Y000899D01*
X010628Y000899D02*
X010308Y001379D01*
X011339Y001379D02*
X011660Y000899D01*
X011855Y000899D02*
X012175Y001379D01*
X012371Y001299D02*
X012371Y001139D01*
X012451Y001059D01*
X012691Y001059D01*
X012531Y001059D02*
X012371Y000899D01*
X012175Y000899D02*
X011855Y001379D01*
X012371Y001299D02*
X012451Y001379D01*
X012691Y001379D01*
X012691Y000899D01*
X012886Y000818D02*
X013206Y000818D01*
X013402Y000899D02*
X013722Y000899D01*
X013402Y001219D01*
X013402Y001299D01*
X013482Y001379D01*
X013642Y001379D01*
X013722Y001299D01*
X013310Y001735D02*
X012758Y001735D01*
X012483Y001892D02*
X012247Y002129D01*
X012483Y002365D01*
X012483Y001892D01*
X012247Y001853D02*
X012247Y002129D01*
X012247Y002404D01*
X011971Y002522D02*
X011420Y002522D01*
X011420Y001735D01*
X011971Y001735D01*
X012758Y002522D02*
X013310Y002522D01*
X013310Y001735D01*
X014404Y001149D02*
X014614Y001009D01*
X014404Y000869D01*
X014614Y000869D02*
X014614Y001289D01*
X014935Y001289D02*
X015075Y001149D01*
X014935Y001289D02*
X014935Y000869D01*
X015075Y000869D02*
X014794Y000869D01*
X003782Y004530D02*
X003782Y005278D01*
X002916Y006144D02*
X002089Y006144D01*
X002010Y006784D02*
X002151Y006925D01*
X002080Y006925D02*
X002291Y006925D01*
X002291Y006784D02*
X002291Y007205D01*
X002080Y007205D01*
X002010Y007135D01*
X002010Y006995D01*
X002080Y006925D01*
X001830Y006995D02*
X001690Y006995D01*
X001830Y007205D02*
X001830Y006784D01*
X001370Y006784D02*
X001090Y007065D01*
X001090Y007135D01*
X001160Y007205D01*
X001300Y007205D01*
X001370Y007135D01*
X001550Y007205D02*
X001830Y007205D01*
X001370Y006784D02*
X001090Y006784D01*
X002471Y006714D02*
X002751Y006714D01*
X002931Y006784D02*
X002931Y007065D01*
X003071Y007205D01*
X003211Y007065D01*
X003211Y006784D01*
X003392Y006784D02*
X003392Y007205D01*
X003532Y007065D01*
X003672Y007205D01*
X003672Y006784D01*
X003852Y006854D02*
X003922Y006784D01*
X004062Y006784D01*
X004132Y006854D01*
X004062Y006995D02*
X003922Y006995D01*
X003852Y006925D01*
X003852Y006854D01*
X004062Y006995D02*
X004132Y007065D01*
X004132Y007135D01*
X004062Y007205D01*
X003922Y007205D01*
X003852Y007135D01*
X003211Y006995D02*
X002931Y006995D01*
X001262Y005278D02*
X001262Y004530D01*
X001813Y004884D02*
X001815Y004937D01*
X001821Y004990D01*
X001831Y005042D01*
X001844Y005093D01*
X001862Y005143D01*
X001883Y005192D01*
X001908Y005239D01*
X001936Y005283D01*
X001968Y005326D01*
X002002Y005366D01*
X002040Y005404D01*
X002080Y005438D01*
X002123Y005470D01*
X002168Y005498D01*
X002214Y005523D01*
X002263Y005544D01*
X002313Y005562D01*
X002364Y005575D01*
X002416Y005585D01*
X002469Y005591D01*
X002522Y005593D01*
X002575Y005591D01*
X002628Y005585D01*
X002680Y005575D01*
X002731Y005562D01*
X002781Y005544D01*
X002830Y005523D01*
X002877Y005498D01*
X002921Y005470D01*
X002964Y005438D01*
X003004Y005404D01*
X003042Y005366D01*
X003076Y005326D01*
X003108Y005283D01*
X003136Y005238D01*
X003161Y005192D01*
X003182Y005143D01*
X003200Y005093D01*
X003213Y005042D01*
X003223Y004990D01*
X003229Y004937D01*
X003231Y004884D01*
X003229Y004831D01*
X003223Y004778D01*
X003213Y004726D01*
X003200Y004675D01*
X003182Y004625D01*
X003161Y004576D01*
X003136Y004529D01*
X003108Y004485D01*
X003076Y004442D01*
X003042Y004402D01*
X003004Y004364D01*
X002964Y004330D01*
X002921Y004298D01*
X002876Y004270D01*
X002830Y004245D01*
X002781Y004224D01*
X002731Y004206D01*
X002680Y004193D01*
X002628Y004183D01*
X002575Y004177D01*
X002522Y004175D01*
X002469Y004177D01*
X002416Y004183D01*
X002364Y004193D01*
X002313Y004206D01*
X002263Y004224D01*
X002214Y004245D01*
X002167Y004270D01*
X002123Y004298D01*
X002080Y004330D01*
X002040Y004364D01*
X002002Y004402D01*
X001968Y004442D01*
X001936Y004485D01*
X001908Y004530D01*
X001883Y004576D01*
X001862Y004625D01*
X001844Y004675D01*
X001831Y004726D01*
X001821Y004778D01*
X001815Y004831D01*
X001813Y004884D01*
X002129Y003625D02*
X002916Y003625D01*
X002843Y009770D02*
X002843Y010250D01*
X002647Y010090D02*
X002487Y010250D01*
X002487Y009770D01*
X002647Y009770D02*
X002327Y009770D01*
X002843Y009770D02*
X003003Y009930D01*
X003163Y009770D01*
X003163Y010250D01*
X003358Y010170D02*
X003439Y010250D01*
X003599Y010250D01*
X003679Y010170D01*
X003679Y010090D01*
X003599Y010010D01*
X003439Y010010D01*
X003358Y009930D01*
X003358Y009850D01*
X003439Y009770D01*
X003599Y009770D01*
X003679Y009850D01*
X002951Y013733D02*
X002163Y013733D01*
X001297Y014638D02*
X001297Y015386D01*
X001848Y014993D02*
X001850Y015046D01*
X001856Y015099D01*
X001866Y015151D01*
X001879Y015202D01*
X001897Y015252D01*
X001918Y015301D01*
X001943Y015348D01*
X001971Y015392D01*
X002003Y015435D01*
X002037Y015475D01*
X002075Y015513D01*
X002115Y015547D01*
X002158Y015579D01*
X002203Y015607D01*
X002249Y015632D01*
X002298Y015653D01*
X002348Y015671D01*
X002399Y015684D01*
X002451Y015694D01*
X002504Y015700D01*
X002557Y015702D01*
X002610Y015700D01*
X002663Y015694D01*
X002715Y015684D01*
X002766Y015671D01*
X002816Y015653D01*
X002865Y015632D01*
X002912Y015607D01*
X002956Y015579D01*
X002999Y015547D01*
X003039Y015513D01*
X003077Y015475D01*
X003111Y015435D01*
X003143Y015392D01*
X003171Y015347D01*
X003196Y015301D01*
X003217Y015252D01*
X003235Y015202D01*
X003248Y015151D01*
X003258Y015099D01*
X003264Y015046D01*
X003266Y014993D01*
X003264Y014940D01*
X003258Y014887D01*
X003248Y014835D01*
X003235Y014784D01*
X003217Y014734D01*
X003196Y014685D01*
X003171Y014638D01*
X003143Y014594D01*
X003111Y014551D01*
X003077Y014511D01*
X003039Y014473D01*
X002999Y014439D01*
X002956Y014407D01*
X002911Y014379D01*
X002865Y014354D01*
X002816Y014333D01*
X002766Y014315D01*
X002715Y014302D01*
X002663Y014292D01*
X002610Y014286D01*
X002557Y014284D01*
X002504Y014286D01*
X002451Y014292D01*
X002399Y014302D01*
X002348Y014315D01*
X002298Y014333D01*
X002249Y014354D01*
X002202Y014379D01*
X002158Y014407D01*
X002115Y014439D01*
X002075Y014473D01*
X002037Y014511D01*
X002003Y014551D01*
X001971Y014594D01*
X001943Y014639D01*
X001918Y014685D01*
X001897Y014734D01*
X001879Y014784D01*
X001866Y014835D01*
X001856Y014887D01*
X001850Y014940D01*
X001848Y014993D01*
X003817Y014638D02*
X003817Y015386D01*
X002951Y016252D02*
X002124Y016252D01*
X002364Y016851D02*
X002644Y016851D01*
X002824Y016921D02*
X002824Y017201D01*
X002964Y017341D01*
X003105Y017201D01*
X003105Y016921D01*
X003285Y016921D02*
X003285Y017341D01*
X003425Y017201D01*
X003565Y017341D01*
X003565Y016921D01*
X003745Y016991D02*
X003815Y016921D01*
X003955Y016921D01*
X004025Y016991D01*
X003955Y017131D02*
X003815Y017131D01*
X003745Y017061D01*
X003745Y016991D01*
X003955Y017131D02*
X004025Y017201D01*
X004025Y017271D01*
X003955Y017341D01*
X003815Y017341D01*
X003745Y017271D01*
X003105Y017131D02*
X002824Y017131D01*
X002184Y017061D02*
X001974Y017061D01*
X001904Y017131D01*
X001904Y017271D01*
X001974Y017341D01*
X002184Y017341D01*
X002184Y016921D01*
X002044Y017061D02*
X001904Y016921D01*
X001723Y016921D02*
X001723Y017341D01*
X001443Y017341D01*
X001263Y017201D02*
X001123Y017341D01*
X001123Y016921D01*
X001263Y016921D02*
X000983Y016921D01*
X001583Y017131D02*
X001723Y017131D01*
X004481Y017509D02*
X004802Y017509D01*
X004642Y017509D02*
X004642Y017990D01*
X004802Y017829D01*
X004997Y017990D02*
X005317Y017990D01*
X005317Y017509D01*
X005513Y017509D02*
X005673Y017669D01*
X005593Y017669D02*
X005833Y017669D01*
X005833Y017509D02*
X005833Y017990D01*
X005593Y017990D01*
X005513Y017909D01*
X005513Y017749D01*
X005593Y017669D01*
X005317Y017749D02*
X005157Y017749D01*
X006028Y017429D02*
X006349Y017429D01*
X006544Y017509D02*
X006704Y017669D01*
X006624Y017669D02*
X006864Y017669D01*
X006864Y017509D02*
X006864Y017990D01*
X006624Y017990D01*
X006544Y017909D01*
X006544Y017749D01*
X006624Y017669D01*
X007060Y017509D02*
X007060Y017990D01*
X007380Y017990D02*
X007380Y017509D01*
X007220Y017669D01*
X007060Y017509D01*
X007000Y017143D02*
X006449Y017143D01*
X006174Y016985D02*
X006174Y016513D01*
X005937Y016749D01*
X006174Y016985D01*
X005937Y017025D02*
X005937Y016749D01*
X005937Y016474D01*
X005662Y016355D02*
X005111Y016355D01*
X005111Y017143D01*
X005662Y017143D01*
X007000Y017143D02*
X007000Y016355D01*
X006449Y016355D01*
X007896Y017509D02*
X007896Y017990D01*
X007655Y017990D01*
X007575Y017909D01*
X007575Y017749D01*
X007655Y017669D01*
X007896Y017669D01*
X007879Y018424D02*
X008160Y018424D01*
X008019Y018424D02*
X008019Y018844D01*
X008160Y018704D01*
X007699Y018564D02*
X007489Y018704D01*
X007699Y018564D02*
X007489Y018424D01*
X007699Y018424D02*
X007699Y018844D01*
X009541Y017864D02*
X009821Y017444D01*
X009541Y017444D02*
X009821Y017864D01*
X010001Y017864D02*
X010282Y017864D01*
X010142Y017864D02*
X010142Y017444D01*
X010462Y017864D02*
X010742Y017444D01*
X010922Y017444D02*
X011202Y017864D01*
X011383Y017794D02*
X011383Y017654D01*
X011453Y017584D01*
X011663Y017584D01*
X011663Y017444D02*
X011663Y017864D01*
X011453Y017864D01*
X011383Y017794D01*
X011523Y017584D02*
X011383Y017444D01*
X011202Y017444D02*
X010922Y017864D01*
X010790Y018270D02*
X010239Y018270D01*
X010239Y019058D01*
X010790Y019058D01*
X011066Y018940D02*
X011066Y018664D01*
X011302Y018428D01*
X011302Y018900D01*
X011066Y018664D01*
X011066Y018388D01*
X011577Y018270D02*
X012129Y018270D01*
X012129Y019058D01*
X011577Y019058D01*
X012444Y017864D02*
X012444Y017444D01*
X012584Y017444D02*
X012303Y017444D01*
X012123Y017374D02*
X011843Y017374D01*
X012444Y017864D02*
X012584Y017724D01*
X014789Y017809D02*
X014999Y017669D01*
X014789Y017529D01*
X014999Y017529D02*
X014999Y017949D01*
X015319Y017949D02*
X015319Y017529D01*
X015459Y017529D02*
X015179Y017529D01*
X015459Y017809D02*
X015319Y017949D01*
X021822Y018270D02*
X022072Y018020D01*
X022572Y018020D01*
X022822Y018270D01*
X023072Y018020D01*
X023572Y018020D01*
X023822Y018270D01*
X024072Y018020D01*
X024572Y018020D01*
X024822Y018270D01*
X025072Y018020D01*
X025572Y018020D01*
X025822Y018270D01*
X025822Y018770D01*
X025572Y019020D01*
X025072Y019020D01*
X024822Y018770D01*
X024572Y019020D01*
X024072Y019020D01*
X023822Y018770D01*
X023572Y019020D01*
X023072Y019020D01*
X022822Y018770D01*
X022572Y019020D01*
X022072Y019020D01*
X021822Y018770D01*
X021822Y018270D01*
X022195Y017861D02*
X022475Y017861D01*
X022546Y017791D01*
X022546Y017581D01*
X022125Y017581D01*
X022125Y017791D01*
X022195Y017861D01*
X022125Y017401D02*
X022546Y017401D01*
X022546Y017120D02*
X022125Y017120D01*
X022195Y016940D02*
X022335Y016940D01*
X022335Y016800D01*
X022475Y016660D02*
X022195Y016660D01*
X022125Y016730D01*
X022125Y016870D01*
X022195Y016940D01*
X022475Y016940D02*
X022546Y016870D01*
X022546Y016730D01*
X022475Y016660D01*
X022546Y017120D02*
X022125Y017401D01*
X023105Y017260D02*
X023526Y017260D01*
X023526Y017120D02*
X023526Y017400D01*
X023526Y017580D02*
X023105Y017861D01*
X023105Y017580D02*
X023526Y017861D01*
X024145Y017841D02*
X024566Y017560D01*
X024495Y017380D02*
X024355Y017380D01*
X024285Y017310D01*
X024285Y017100D01*
X024145Y017100D02*
X024566Y017100D01*
X024566Y017310D01*
X024495Y017380D01*
X024285Y017240D02*
X024145Y017380D01*
X024145Y017560D02*
X024566Y017841D01*
X025135Y017781D02*
X025135Y017641D01*
X025205Y017571D01*
X025275Y017391D02*
X025135Y017251D01*
X025275Y017110D01*
X025556Y017110D01*
X025485Y016930D02*
X025415Y016930D01*
X025345Y016860D01*
X025275Y016930D01*
X025205Y016930D01*
X025135Y016860D01*
X025135Y016720D01*
X025205Y016650D01*
X025345Y016790D02*
X025345Y016860D01*
X025485Y016930D02*
X025556Y016860D01*
X025556Y016720D01*
X025485Y016650D01*
X025556Y017391D02*
X025275Y017391D01*
X025485Y017571D02*
X025556Y017641D01*
X025556Y017781D01*
X025485Y017851D01*
X025415Y017851D01*
X025345Y017781D01*
X025275Y017851D01*
X025205Y017851D01*
X025135Y017781D01*
X025345Y017781D02*
X025345Y017711D01*
X027513Y018265D02*
X027513Y018765D01*
X027763Y019015D01*
X028263Y019015D01*
X028513Y018765D01*
X028763Y019015D01*
X029263Y019015D01*
X029513Y018765D01*
X029763Y019015D01*
X030263Y019015D01*
X030513Y018765D01*
X030763Y019015D01*
X031263Y019015D01*
X031513Y018765D01*
X031513Y018265D01*
X031263Y018015D01*
X030763Y018015D01*
X030513Y018265D01*
X030263Y018015D01*
X029763Y018015D01*
X029513Y018265D01*
X029263Y018015D01*
X028763Y018015D01*
X028513Y018265D01*
X028263Y018015D01*
X027763Y018015D01*
X027513Y018265D01*
X027838Y017856D02*
X027768Y017786D01*
X027768Y017645D01*
X027838Y017575D01*
X027908Y017395D02*
X028189Y017395D01*
X028119Y017575D02*
X028189Y017645D01*
X028189Y017786D01*
X028119Y017856D01*
X028049Y017856D01*
X027979Y017786D01*
X027908Y017856D01*
X027838Y017856D01*
X027979Y017786D02*
X027979Y017715D01*
X027908Y017395D02*
X027768Y017255D01*
X027908Y017115D01*
X028189Y017115D01*
X028119Y016935D02*
X028049Y016935D01*
X027979Y016865D01*
X027908Y016935D01*
X027838Y016935D01*
X027768Y016865D01*
X027768Y016725D01*
X027838Y016655D01*
X027979Y016795D02*
X027979Y016865D01*
X028119Y016935D02*
X028189Y016865D01*
X028189Y016725D01*
X028119Y016655D01*
X028819Y017081D02*
X028819Y017291D01*
X028890Y017361D01*
X029170Y017361D01*
X029240Y017291D01*
X029240Y017081D01*
X028819Y017081D01*
X028890Y017541D02*
X028960Y017541D01*
X029030Y017611D01*
X029030Y017751D01*
X028960Y017821D01*
X028890Y017821D01*
X028819Y017751D01*
X028819Y017611D01*
X028890Y017541D01*
X029030Y017611D02*
X029100Y017541D01*
X029170Y017541D01*
X029240Y017611D01*
X029240Y017751D01*
X029170Y017821D01*
X029100Y017821D01*
X029030Y017751D01*
X029829Y017562D02*
X029899Y017562D01*
X030180Y017842D01*
X030250Y017842D01*
X030250Y017562D01*
X030180Y017382D02*
X029899Y017382D01*
X029829Y017312D01*
X029829Y017102D01*
X030250Y017102D01*
X030250Y017312D01*
X030180Y017382D01*
X030802Y017393D02*
X031222Y017393D01*
X031222Y017573D02*
X030802Y017573D01*
X030802Y017784D01*
X030872Y017854D01*
X031152Y017854D01*
X031222Y017784D01*
X031222Y017573D01*
X030802Y017393D02*
X031222Y017113D01*
X030802Y017113D01*
X030872Y016933D02*
X031012Y016933D01*
X031012Y016793D01*
X031152Y016933D02*
X031222Y016863D01*
X031222Y016723D01*
X031152Y016653D01*
X030872Y016653D01*
X030802Y016723D01*
X030802Y016863D01*
X030872Y016933D01*
X032516Y016911D02*
X032516Y017108D01*
X035666Y017108D01*
X035666Y016911D01*
X035353Y017321D02*
X035353Y017742D01*
X035143Y017742D01*
X035073Y017672D01*
X035073Y017532D01*
X035143Y017461D01*
X035353Y017461D01*
X035213Y017461D02*
X035073Y017321D01*
X034892Y017321D02*
X034612Y017321D01*
X034432Y017391D02*
X034362Y017321D01*
X034222Y017321D01*
X034152Y017391D01*
X034152Y017461D01*
X034222Y017532D01*
X034362Y017532D01*
X034432Y017602D01*
X034432Y017672D01*
X034362Y017742D01*
X034222Y017742D01*
X034152Y017672D01*
X033972Y017742D02*
X033972Y017321D01*
X033691Y017321D01*
X033832Y017532D02*
X033972Y017532D01*
X033972Y017742D02*
X033691Y017742D01*
X033511Y017742D02*
X033231Y017742D01*
X033371Y017742D02*
X033371Y017321D01*
X033599Y016714D02*
X034563Y016714D01*
X034583Y016124D02*
X033599Y016124D01*
X033664Y015421D02*
X033664Y014941D01*
X033824Y015101D01*
X033984Y014941D01*
X033984Y015421D01*
X034179Y015341D02*
X034259Y015421D01*
X034499Y015421D01*
X034499Y014941D01*
X034499Y015101D02*
X034259Y015101D01*
X034179Y015181D01*
X034179Y015341D01*
X033468Y015421D02*
X033468Y014941D01*
X033468Y015101D02*
X033228Y015101D01*
X033148Y015181D01*
X033148Y015341D01*
X033228Y015421D01*
X033468Y015421D01*
X033308Y015101D02*
X033148Y014941D01*
X032888Y014674D02*
X033439Y014674D01*
X033714Y014517D02*
X033951Y014281D01*
X033714Y014044D01*
X033714Y014517D01*
X033951Y014556D02*
X033951Y014281D01*
X033951Y014005D01*
X034226Y013887D02*
X034777Y013887D01*
X034777Y014674D01*
X034226Y014674D01*
X032888Y014674D02*
X032888Y013887D01*
X033439Y013887D01*
X031586Y014984D02*
X031266Y014984D01*
X031426Y014984D02*
X031426Y015464D01*
X031586Y015304D01*
X031070Y015144D02*
X030830Y015304D01*
X031070Y015144D02*
X030830Y014984D01*
X031070Y014984D02*
X031070Y015464D01*
X032516Y015730D02*
X035666Y015730D01*
X035666Y015927D01*
X034892Y017321D02*
X034892Y017742D01*
X034612Y017742D01*
X034752Y017532D02*
X034892Y017532D01*
X032516Y015927D02*
X032516Y015730D01*
X035656Y012367D02*
X035906Y012617D01*
X036406Y012617D01*
X036656Y012367D01*
X036656Y011867D01*
X036406Y011617D01*
X036656Y011367D01*
X036656Y010867D01*
X036406Y010617D01*
X036656Y010367D01*
X036656Y009867D01*
X036406Y009617D01*
X036656Y009367D01*
X036656Y008867D01*
X036406Y008617D01*
X036656Y008367D01*
X036656Y007867D01*
X036406Y007617D01*
X036656Y007367D01*
X036656Y006867D01*
X036406Y006617D01*
X035906Y006617D01*
X035656Y006867D01*
X035656Y007367D01*
X035906Y007617D01*
X035656Y007867D01*
X035656Y008367D01*
X035906Y008617D01*
X035656Y008867D01*
X035656Y009367D01*
X035906Y009617D01*
X035656Y009867D01*
X035656Y010367D01*
X035906Y010617D01*
X035656Y010867D01*
X035656Y011367D01*
X035906Y011617D01*
X035656Y011867D01*
X035656Y012367D01*
D11*
X035188Y012373D02*
X034893Y012373D01*
X034794Y012274D01*
X034794Y011881D01*
X034893Y011782D01*
X035188Y011782D01*
X035188Y012373D01*
X034544Y012373D02*
X034150Y012373D01*
X034347Y012373D02*
X034347Y011782D01*
X034535Y011398D02*
X034142Y010807D01*
X034535Y010807D02*
X034142Y011398D01*
X033899Y011782D02*
X033899Y012373D01*
X033604Y012373D01*
X033505Y012274D01*
X033505Y012078D01*
X033604Y011979D01*
X033899Y011979D01*
X033702Y011979D02*
X033505Y011782D01*
X034786Y011299D02*
X034786Y011102D01*
X034885Y011004D01*
X035180Y011004D01*
X035180Y010807D02*
X035180Y011398D01*
X034885Y011398D01*
X034786Y011299D01*
X034983Y011004D02*
X034786Y010807D01*
X034756Y010379D02*
X035150Y010379D01*
X034953Y010379D02*
X034953Y009789D01*
X034505Y009789D02*
X034112Y010379D01*
X034505Y010379D02*
X034112Y009789D01*
X034102Y009431D02*
X034495Y009431D01*
X034495Y009135D01*
X034299Y009234D01*
X034200Y009234D01*
X034102Y009135D01*
X034102Y008939D01*
X034200Y008840D01*
X034397Y008840D01*
X034495Y008939D01*
X034746Y009135D02*
X035140Y009135D01*
X034943Y008939D02*
X034943Y009332D01*
X033851Y009431D02*
X033851Y009037D01*
X033654Y008840D01*
X033457Y009037D01*
X033457Y009431D01*
X033568Y008435D02*
X033863Y008435D01*
X033863Y007844D01*
X033568Y007844D01*
X033470Y007943D01*
X033470Y008336D01*
X033568Y008435D01*
X034114Y008435D02*
X034114Y007844D01*
X034508Y008435D01*
X034508Y007844D01*
X034759Y007943D02*
X034759Y008140D01*
X034956Y008140D01*
X035153Y008336D02*
X035153Y007943D01*
X035054Y007844D01*
X034857Y007844D01*
X034759Y007943D01*
X034759Y008336D02*
X034857Y008435D01*
X035054Y008435D01*
X035153Y008336D01*
X035332Y006088D02*
X035332Y005694D01*
X035233Y005596D01*
X035000Y005596D02*
X034705Y005596D01*
X034607Y005694D01*
X034705Y005793D01*
X034902Y005793D01*
X035000Y005891D01*
X034902Y005989D01*
X034607Y005989D01*
X034356Y005891D02*
X034257Y005989D01*
X034061Y005989D01*
X033962Y005891D01*
X033962Y005793D01*
X034356Y005793D01*
X034356Y005891D02*
X034356Y005694D01*
X034257Y005596D01*
X034061Y005596D01*
X033711Y005596D02*
X033416Y005596D01*
X033318Y005694D01*
X033318Y005891D01*
X033416Y005989D01*
X033711Y005989D01*
X033711Y005399D01*
X033711Y005136D02*
X033318Y005136D01*
X033318Y005038D01*
X033711Y004644D01*
X033711Y004546D01*
X033962Y004644D02*
X034061Y004546D01*
X034257Y004546D01*
X034356Y004644D01*
X033962Y005038D01*
X033962Y004644D01*
X034356Y004644D02*
X034356Y005038D01*
X034257Y005136D01*
X034061Y005136D01*
X033962Y005038D01*
X033067Y004841D02*
X032673Y004841D01*
X032422Y004841D02*
X032422Y004644D01*
X032324Y004546D01*
X032127Y004546D01*
X032029Y004644D01*
X032029Y004743D01*
X032127Y004841D01*
X032422Y004841D01*
X032225Y005038D01*
X032029Y005136D01*
X031778Y005038D02*
X031679Y005136D01*
X031482Y005136D01*
X031384Y005038D01*
X031778Y004644D01*
X031679Y004546D01*
X031482Y004546D01*
X031384Y004644D01*
X031384Y005038D01*
X031133Y005038D02*
X031133Y004939D01*
X031035Y004841D01*
X030838Y004841D01*
X030739Y004743D01*
X030739Y004644D01*
X030838Y004546D01*
X031035Y004546D01*
X031133Y004644D01*
X031133Y004743D01*
X031035Y004841D01*
X030838Y004841D02*
X030739Y004939D01*
X030739Y005038D01*
X030838Y005136D01*
X031035Y005136D01*
X031133Y005038D01*
X031778Y005038D02*
X031778Y004644D01*
X031787Y005596D02*
X031491Y005596D01*
X031491Y005891D01*
X031590Y005989D01*
X031787Y005989D01*
X031787Y005793D02*
X031491Y005793D01*
X031787Y005793D02*
X031885Y005694D01*
X031787Y005596D01*
X032225Y005989D02*
X032422Y005793D01*
X032422Y005989D02*
X032422Y005596D01*
X032673Y005596D02*
X032673Y005989D01*
X033067Y005989D02*
X033067Y005694D01*
X032968Y005596D01*
X032673Y005596D01*
X032225Y005989D02*
X032127Y005989D01*
X030596Y005989D02*
X030596Y005596D01*
X030202Y005596D02*
X030202Y005989D01*
X030399Y006186D01*
X030596Y005989D01*
X030596Y005891D02*
X030202Y005891D01*
X029951Y005694D02*
X029853Y005694D01*
X029853Y005596D01*
X029951Y005596D01*
X029951Y005694D01*
X029629Y005596D02*
X029629Y006186D01*
X029432Y005989D01*
X029235Y006186D01*
X029235Y005596D01*
X028985Y005596D02*
X028985Y005694D01*
X028886Y005694D01*
X028886Y005596D01*
X028985Y005596D01*
X035233Y005989D02*
X035430Y005989D01*
X035681Y005891D02*
X035681Y005596D01*
X035976Y005596D01*
X036075Y005694D01*
X035976Y005793D01*
X035681Y005793D01*
X035681Y005891D02*
X035779Y005989D01*
X035976Y005989D01*
X036326Y006186D02*
X036326Y005596D01*
X036719Y005596D02*
X036719Y006186D01*
X036522Y005989D01*
X036326Y006186D01*
X036326Y005136D02*
X036326Y004546D01*
X036075Y004546D02*
X036075Y004939D01*
X035878Y005136D01*
X035681Y004939D01*
X035681Y004546D01*
X035430Y004546D02*
X035233Y004546D01*
X035332Y004546D02*
X035332Y005136D01*
X035430Y005136D02*
X035233Y005136D01*
X035681Y004841D02*
X036075Y004841D01*
X036326Y005136D02*
X036522Y004939D01*
X036719Y005136D01*
X036719Y004546D01*
X017968Y005374D02*
X017859Y005266D01*
X017426Y005266D01*
X017317Y005374D01*
X017317Y005591D01*
X017426Y005699D01*
X017643Y005699D01*
X017643Y005483D01*
X017859Y005699D02*
X017968Y005591D01*
X017968Y005374D01*
X017968Y005966D02*
X017317Y005966D01*
X017534Y005966D02*
X017534Y006291D01*
X017643Y006399D01*
X017859Y006399D01*
X017968Y006291D01*
X017968Y005966D01*
X017859Y006665D02*
X017751Y006665D01*
X017643Y006774D01*
X017643Y006991D01*
X017534Y007099D01*
X017426Y007099D01*
X017317Y006991D01*
X017317Y006774D01*
X017426Y006665D01*
X017859Y006665D02*
X017968Y006774D01*
X017968Y006991D01*
X017859Y007099D01*
X017317Y007365D02*
X017968Y007799D01*
X017859Y008065D02*
X017426Y008065D01*
X017317Y008173D01*
X017317Y008390D01*
X017426Y008499D01*
X017643Y008499D01*
X017643Y008282D01*
X017859Y008499D02*
X017968Y008390D01*
X017968Y008173D01*
X017859Y008065D01*
X017968Y008765D02*
X017317Y008765D01*
X017317Y009198D01*
X017426Y009464D02*
X017317Y009573D01*
X017317Y009790D01*
X017426Y009898D01*
X017859Y009898D01*
X017968Y009790D01*
X017968Y009573D01*
X017859Y009464D01*
X017426Y009464D01*
X017317Y010164D02*
X017968Y010164D01*
X017317Y010598D01*
X017968Y010598D01*
X017751Y010864D02*
X017317Y010864D01*
X017643Y010864D02*
X017643Y011298D01*
X017751Y011298D02*
X017968Y011081D01*
X017751Y010864D01*
X017751Y011298D02*
X017317Y011298D01*
X017426Y011564D02*
X017317Y011672D01*
X017317Y011889D01*
X017426Y011998D01*
X017534Y011998D01*
X017643Y011889D01*
X017643Y011672D01*
X017751Y011564D01*
X017859Y011564D01*
X017968Y011672D01*
X017968Y011889D01*
X017859Y011998D01*
X017859Y012264D02*
X017751Y012264D01*
X017643Y012372D01*
X017643Y012589D01*
X017534Y012697D01*
X017426Y012697D01*
X017317Y012589D01*
X017317Y012372D01*
X017426Y012264D01*
X017859Y012264D02*
X017968Y012372D01*
X017968Y012589D01*
X017859Y012697D01*
X011260Y006408D02*
X011043Y006625D01*
X010826Y006408D01*
X010826Y005974D01*
X010560Y005974D02*
X010560Y006625D01*
X010126Y005974D01*
X010126Y006625D01*
X009860Y006625D02*
X009426Y006625D01*
X009643Y006625D02*
X009643Y005974D01*
X010826Y006299D02*
X011260Y006299D01*
X011260Y006408D02*
X011260Y005974D01*
D12*
X000160Y000160D02*
X037562Y000160D01*
X037562Y019845D01*
X000160Y019845D01*
X000160Y000160D01*
D13*
X005672Y003923D02*
X015514Y003923D01*
X015514Y014553D01*
X005672Y014553D01*
X005672Y003923D01*
X004219Y008113D02*
X001825Y008113D01*
X001825Y011892D01*
X004219Y011892D01*
X004219Y008113D01*
X018270Y001561D02*
X018270Y016322D01*
X028700Y016322D01*
X028700Y001561D01*
X018270Y001561D01*
X026005Y016993D02*
X026005Y017263D01*
X025825Y017263D01*
X025915Y017128D02*
X026005Y017128D01*
X026120Y017173D02*
X026120Y016993D01*
X026255Y016993D01*
X026300Y017038D01*
X026300Y017173D01*
X026414Y017218D02*
X026594Y017038D01*
X026594Y016993D01*
X026754Y016993D02*
X026754Y017263D01*
X026889Y017128D01*
X026709Y017128D01*
X026594Y017263D02*
X026414Y017263D01*
X026414Y017218D01*
X026991Y017038D02*
X026991Y016993D01*
X027036Y016993D01*
X027036Y017038D01*
X026991Y017038D01*
X027151Y017038D02*
X027196Y016993D01*
X027286Y016993D01*
X027331Y017038D01*
X027151Y017218D01*
X027151Y017038D01*
X027331Y017038D02*
X027331Y017218D01*
X027286Y017263D01*
X027196Y017263D01*
X027151Y017218D01*
M02*
