G75*
%MOIN*%
%OFA0B0*%
%FSLAX24Y24*%
%IPPOS*%
%LPD*%
%AMOC8*
5,1,8,0,0,1.08239X$1,22.5*
%
%ADD10C,0.0120*%
%ADD11C,0.0520*%
%ADD12R,0.0472X0.0551*%
%ADD13R,0.0630X0.0709*%
%ADD14C,0.0600*%
%ADD15C,0.0886*%
%ADD16C,0.0740*%
%ADD17C,0.0600*%
%ADD18C,0.1660*%
%ADD19R,0.0984X0.0630*%
%ADD20C,0.0240*%
%ADD21C,0.0500*%
%ADD22C,0.0356*%
%ADD23C,0.0160*%
%ADD24C,0.0100*%
D10*
X000160Y000160D02*
X037562Y000160D01*
X037562Y019451D01*
X000160Y019451D01*
X000160Y000160D01*
X002960Y002512D02*
X004086Y003637D01*
X004086Y004937D01*
X002916Y004948D02*
X002905Y004937D01*
X001565Y007340D02*
X000947Y007958D01*
X000947Y013546D01*
X004884Y017483D01*
X010790Y017483D01*
X012365Y015908D01*
X014333Y015908D01*
X013940Y014727D02*
X011459Y014727D01*
X010278Y016302D01*
X007365Y016302D02*
X005278Y016302D01*
X002916Y013940D01*
X002916Y011971D01*
X005003Y012758D02*
X001584Y009340D01*
X001565Y009340D01*
X001584Y008340D02*
X001565Y008340D01*
X001584Y008340D02*
X005215Y011971D01*
X021026Y011971D01*
X022351Y013296D01*
X022381Y013296D01*
X022381Y014296D02*
X022170Y014296D01*
X020632Y012758D01*
X005003Y012758D01*
X022381Y009296D02*
X022520Y009296D01*
X025381Y008296D02*
X026195Y008296D01*
X026932Y009033D01*
X026932Y010396D01*
X026680Y011260D02*
X025720Y010300D01*
X025405Y010300D01*
X025395Y010310D01*
X025381Y010296D01*
X026680Y011260D02*
X027190Y011260D01*
X030263Y014333D01*
X031499Y014333D01*
X031994Y014380D02*
X032106Y014380D01*
X032106Y014262D02*
X031994Y014262D01*
X031994Y014143D02*
X032106Y014143D01*
X032106Y014025D02*
X031994Y014025D01*
X031994Y013906D02*
X032106Y013906D01*
X032106Y013904D02*
X032203Y013807D01*
X032203Y013645D01*
X031379Y012820D01*
X031148Y012820D01*
X031043Y012715D01*
X031043Y012015D01*
X031148Y011909D01*
X031770Y011909D01*
X031875Y012015D01*
X031875Y012638D01*
X032647Y013410D01*
X032683Y013498D01*
X032683Y013799D01*
X032990Y013799D01*
X033096Y013904D01*
X033096Y014762D01*
X032990Y014868D01*
X032211Y014868D01*
X032106Y014762D01*
X032106Y013904D01*
X031994Y013904D02*
X031888Y013799D01*
X031109Y013799D01*
X031004Y013904D01*
X031004Y014093D01*
X030363Y014093D01*
X029688Y013418D01*
X029688Y008821D01*
X033625Y008821D01*
X037168Y012365D01*
X037168Y015514D01*
X031208Y015514D01*
X030267Y014573D01*
X031004Y014573D01*
X031004Y014762D01*
X031109Y014868D01*
X031888Y014868D01*
X031994Y014762D01*
X031994Y013904D01*
X032203Y013788D02*
X030057Y013788D01*
X030175Y013906D02*
X031004Y013906D01*
X031004Y014025D02*
X030294Y014025D01*
X029938Y013669D02*
X032203Y013669D01*
X032109Y013551D02*
X029820Y013551D01*
X029701Y013432D02*
X031990Y013432D01*
X031872Y013314D02*
X029688Y013314D01*
X029688Y013195D02*
X031753Y013195D01*
X031635Y013077D02*
X029688Y013077D01*
X029688Y012958D02*
X031516Y012958D01*
X031398Y012840D02*
X029688Y012840D01*
X029688Y012721D02*
X031049Y012721D01*
X031043Y012603D02*
X029688Y012603D01*
X029688Y012484D02*
X031043Y012484D01*
X031043Y012366D02*
X029688Y012366D01*
X029688Y012247D02*
X031043Y012247D01*
X031043Y012129D02*
X029688Y012129D01*
X029688Y012010D02*
X031048Y012010D01*
X031459Y012365D02*
X031459Y012562D01*
X032443Y013546D01*
X032443Y014176D01*
X032601Y014333D01*
X033096Y014380D02*
X034016Y014380D01*
X034035Y014362D02*
X034112Y014306D01*
X034196Y014263D01*
X034287Y014233D01*
X034368Y014220D01*
X034368Y014761D01*
X034488Y014761D01*
X034488Y014220D01*
X034569Y014233D01*
X034659Y014263D01*
X034744Y014306D01*
X034820Y014362D01*
X034888Y014429D01*
X034943Y014505D01*
X034986Y014590D01*
X035016Y014680D01*
X035029Y014761D01*
X034488Y014761D01*
X034488Y014881D01*
X035029Y014881D01*
X035016Y014963D01*
X034986Y015053D01*
X034943Y015137D01*
X034888Y015214D01*
X034820Y015281D01*
X034744Y015337D01*
X034659Y015380D01*
X034569Y015409D01*
X034488Y015422D01*
X034488Y014881D01*
X034368Y014881D01*
X034368Y014761D01*
X033827Y014761D01*
X033840Y014680D01*
X033869Y014590D01*
X033912Y014505D01*
X033968Y014429D01*
X034035Y014362D01*
X033917Y014499D02*
X033096Y014499D01*
X033096Y014617D02*
X033860Y014617D01*
X033831Y014736D02*
X033096Y014736D01*
X033004Y014854D02*
X034368Y014854D01*
X034368Y014881D02*
X033827Y014881D01*
X033840Y014963D01*
X033869Y015053D01*
X033912Y015137D01*
X033968Y015214D01*
X034035Y015281D01*
X034112Y015337D01*
X034196Y015380D01*
X034287Y015409D01*
X034368Y015422D01*
X034368Y014881D01*
X034368Y014973D02*
X034488Y014973D01*
X034488Y015091D02*
X034368Y015091D01*
X034368Y015210D02*
X034488Y015210D01*
X034488Y015328D02*
X034368Y015328D01*
X034099Y015328D02*
X031022Y015328D01*
X031140Y015447D02*
X037168Y015447D01*
X037168Y015328D02*
X036756Y015328D01*
X036744Y015337D02*
X036659Y015380D01*
X036569Y015409D01*
X036488Y015422D01*
X036488Y014881D01*
X037029Y014881D01*
X037016Y014963D01*
X036986Y015053D01*
X036943Y015137D01*
X036888Y015214D01*
X036820Y015281D01*
X036744Y015337D01*
X036891Y015210D02*
X037168Y015210D01*
X037168Y015091D02*
X036967Y015091D01*
X037013Y014973D02*
X037168Y014973D01*
X037168Y014854D02*
X036488Y014854D01*
X036488Y014881D02*
X036488Y014761D01*
X036488Y014220D01*
X036569Y014233D01*
X036659Y014263D01*
X036744Y014306D01*
X036820Y014362D01*
X036888Y014429D01*
X036943Y014505D01*
X036986Y014590D01*
X037016Y014680D01*
X037029Y014761D01*
X036488Y014761D01*
X036368Y014761D01*
X036368Y014220D01*
X036287Y014233D01*
X036196Y014263D01*
X036112Y014306D01*
X036035Y014362D01*
X035968Y014429D01*
X035912Y014505D01*
X035869Y014590D01*
X035840Y014680D01*
X035827Y014761D01*
X036368Y014761D01*
X036368Y014881D01*
X035827Y014881D01*
X035840Y014963D01*
X035869Y015053D01*
X035912Y015137D01*
X035968Y015214D01*
X036035Y015281D01*
X036112Y015337D01*
X036196Y015380D01*
X036287Y015409D01*
X036368Y015422D01*
X036368Y014881D01*
X036488Y014881D01*
X036488Y014973D02*
X036368Y014973D01*
X036368Y015091D02*
X036488Y015091D01*
X036488Y015210D02*
X036368Y015210D01*
X036368Y015328D02*
X036488Y015328D01*
X036099Y015328D02*
X034756Y015328D01*
X034891Y015210D02*
X035964Y015210D01*
X035888Y015091D02*
X034967Y015091D01*
X035013Y014973D02*
X035843Y014973D01*
X035831Y014736D02*
X035025Y014736D01*
X034995Y014617D02*
X035860Y014617D01*
X035917Y014499D02*
X034938Y014499D01*
X034839Y014380D02*
X036016Y014380D01*
X036200Y014262D02*
X035619Y014262D01*
X035700Y014228D02*
X035523Y014301D01*
X035332Y014301D01*
X035156Y014228D01*
X035021Y014093D01*
X034948Y013917D01*
X034948Y013726D01*
X035021Y013550D01*
X035156Y013414D01*
X035199Y013397D01*
X035199Y011759D01*
X032982Y009543D01*
X032908Y009573D01*
X032766Y009573D01*
X032634Y009519D01*
X032534Y009418D01*
X032479Y009286D01*
X032479Y009144D01*
X032534Y009012D01*
X032634Y008912D01*
X032766Y008857D01*
X032908Y008857D01*
X033040Y008912D01*
X033141Y009012D01*
X033148Y009030D01*
X033197Y009079D01*
X035642Y011524D01*
X035679Y011612D01*
X035679Y013406D01*
X035700Y013414D01*
X035835Y013550D01*
X035835Y013551D02*
X037168Y013551D01*
X037168Y013669D02*
X035884Y013669D01*
X035908Y013726D02*
X035835Y013550D01*
X035717Y013432D02*
X037168Y013432D01*
X037168Y013314D02*
X036776Y013314D01*
X036744Y013337D02*
X036820Y013281D01*
X036888Y013214D01*
X036943Y013137D01*
X036986Y013053D01*
X037016Y012963D01*
X037029Y012881D01*
X036488Y012881D01*
X036488Y012761D01*
X036488Y012220D01*
X036569Y012233D01*
X036659Y012263D01*
X036744Y012306D01*
X036820Y012362D01*
X036888Y012429D01*
X036943Y012505D01*
X036986Y012590D01*
X037016Y012680D01*
X037029Y012761D01*
X036488Y012761D01*
X036368Y012761D01*
X036368Y012220D01*
X036287Y012233D01*
X036196Y012263D01*
X036112Y012306D01*
X036035Y012362D01*
X035968Y012429D01*
X035912Y012505D01*
X035869Y012590D01*
X035840Y012680D01*
X035827Y012761D01*
X036368Y012761D01*
X036368Y012881D01*
X035827Y012881D01*
X035840Y012963D01*
X035869Y013053D01*
X035912Y013137D01*
X035968Y013214D01*
X036035Y013281D01*
X036112Y013337D01*
X036196Y013380D01*
X036287Y013409D01*
X036368Y013422D01*
X036368Y012881D01*
X036488Y012881D01*
X036488Y013422D01*
X036569Y013409D01*
X036659Y013380D01*
X036744Y013337D01*
X036902Y013195D02*
X037168Y013195D01*
X037168Y013077D02*
X036974Y013077D01*
X037017Y012958D02*
X037168Y012958D01*
X037168Y012840D02*
X036488Y012840D01*
X036488Y012958D02*
X036368Y012958D01*
X036368Y012840D02*
X035679Y012840D01*
X035679Y012958D02*
X035839Y012958D01*
X035881Y013077D02*
X035679Y013077D01*
X035679Y013195D02*
X035954Y013195D01*
X036079Y013314D02*
X035679Y013314D01*
X035199Y013314D02*
X034776Y013314D01*
X034744Y013337D02*
X034820Y013281D01*
X034888Y013214D01*
X034943Y013137D01*
X034986Y013053D01*
X035016Y012963D01*
X035029Y012881D01*
X034488Y012881D01*
X034488Y012761D01*
X034488Y012220D01*
X034569Y012233D01*
X034659Y012263D01*
X034744Y012306D01*
X034820Y012362D01*
X034888Y012429D01*
X034943Y012505D01*
X034986Y012590D01*
X035016Y012680D01*
X035029Y012761D01*
X034488Y012761D01*
X034368Y012761D01*
X034368Y012220D01*
X034287Y012233D01*
X034196Y012263D01*
X034112Y012306D01*
X034035Y012362D01*
X033968Y012429D01*
X033912Y012505D01*
X033869Y012590D01*
X033840Y012680D01*
X033827Y012761D01*
X034368Y012761D01*
X034368Y012881D01*
X033827Y012881D01*
X033840Y012963D01*
X033869Y013053D01*
X033912Y013137D01*
X033968Y013214D01*
X034035Y013281D01*
X034112Y013337D01*
X034196Y013380D01*
X034287Y013409D01*
X034368Y013422D01*
X034368Y012881D01*
X034488Y012881D01*
X034488Y013422D01*
X034569Y013409D01*
X034659Y013380D01*
X034744Y013337D01*
X034902Y013195D02*
X035199Y013195D01*
X035199Y013077D02*
X034974Y013077D01*
X035017Y012958D02*
X035199Y012958D01*
X035199Y012840D02*
X034488Y012840D01*
X034428Y012821D02*
X034428Y012774D01*
X034018Y012365D01*
X032640Y012365D01*
X032582Y012366D02*
X031875Y012366D01*
X031875Y012484D02*
X032244Y012484D01*
X032244Y012423D02*
X032582Y012423D01*
X032582Y012307D01*
X032244Y012307D01*
X032244Y012068D01*
X032255Y012027D01*
X032276Y011991D01*
X032306Y011961D01*
X032342Y011940D01*
X032383Y011929D01*
X032582Y011929D01*
X032582Y012307D01*
X032698Y012307D01*
X032698Y011929D01*
X032898Y011929D01*
X032938Y011940D01*
X032975Y011961D01*
X033005Y011991D01*
X033026Y012027D01*
X033037Y012068D01*
X033037Y012307D01*
X032698Y012307D01*
X032698Y012423D01*
X032582Y012423D01*
X032582Y012800D01*
X032383Y012800D01*
X032342Y012789D01*
X032306Y012768D01*
X032276Y012739D01*
X032255Y012702D01*
X032244Y012661D01*
X032244Y012423D01*
X032244Y012247D02*
X031875Y012247D01*
X031875Y012129D02*
X032244Y012129D01*
X032265Y012010D02*
X031871Y012010D01*
X032582Y012010D02*
X032698Y012010D01*
X032698Y012129D02*
X032582Y012129D01*
X032582Y012247D02*
X032698Y012247D01*
X032698Y012366D02*
X034031Y012366D01*
X033928Y012484D02*
X033037Y012484D01*
X033037Y012423D02*
X033037Y012661D01*
X033026Y012702D01*
X033005Y012739D01*
X032975Y012768D01*
X032938Y012789D01*
X032898Y012800D01*
X032698Y012800D01*
X032698Y012423D01*
X033037Y012423D01*
X033037Y012247D02*
X034244Y012247D01*
X034368Y012247D02*
X034488Y012247D01*
X034488Y012366D02*
X034368Y012366D01*
X034368Y012484D02*
X034488Y012484D01*
X034488Y012603D02*
X034368Y012603D01*
X034368Y012721D02*
X034488Y012721D01*
X034368Y012840D02*
X032077Y012840D01*
X032195Y012958D02*
X033839Y012958D01*
X033881Y013077D02*
X032314Y013077D01*
X032432Y013195D02*
X033954Y013195D01*
X034079Y013314D02*
X032551Y013314D01*
X032656Y013432D02*
X035138Y013432D01*
X035020Y013551D02*
X032683Y013551D01*
X032683Y013669D02*
X034971Y013669D01*
X034948Y013788D02*
X032683Y013788D01*
X033096Y013906D02*
X034948Y013906D01*
X034992Y014025D02*
X033096Y014025D01*
X033096Y014143D02*
X035071Y014143D01*
X035236Y014262D02*
X034656Y014262D01*
X034488Y014262D02*
X034368Y014262D01*
X034368Y014380D02*
X034488Y014380D01*
X034488Y014499D02*
X034368Y014499D01*
X034368Y014617D02*
X034488Y014617D01*
X034488Y014736D02*
X034368Y014736D01*
X034488Y014854D02*
X036368Y014854D01*
X036368Y014736D02*
X036488Y014736D01*
X036488Y014617D02*
X036368Y014617D01*
X036368Y014499D02*
X036488Y014499D01*
X036488Y014380D02*
X036368Y014380D01*
X036368Y014262D02*
X036488Y014262D01*
X036656Y014262D02*
X037168Y014262D01*
X037168Y014380D02*
X036839Y014380D01*
X036938Y014499D02*
X037168Y014499D01*
X037168Y014617D02*
X036995Y014617D01*
X037025Y014736D02*
X037168Y014736D01*
X037168Y014143D02*
X035785Y014143D01*
X035835Y014093D02*
X035700Y014228D01*
X035835Y014093D02*
X035908Y013917D01*
X035908Y013726D01*
X035908Y013788D02*
X037168Y013788D01*
X037168Y013906D02*
X035908Y013906D01*
X035863Y014025D02*
X037168Y014025D01*
X036488Y013314D02*
X036368Y013314D01*
X036368Y013195D02*
X036488Y013195D01*
X036488Y013077D02*
X036368Y013077D01*
X036368Y012721D02*
X036488Y012721D01*
X036488Y012603D02*
X036368Y012603D01*
X036368Y012484D02*
X036488Y012484D01*
X036488Y012366D02*
X036368Y012366D01*
X036368Y012247D02*
X036488Y012247D01*
X036611Y012247D02*
X037050Y012247D01*
X037168Y012366D02*
X036824Y012366D01*
X036928Y012484D02*
X037168Y012484D01*
X037168Y012603D02*
X036991Y012603D01*
X037022Y012721D02*
X037168Y012721D01*
X036244Y012247D02*
X035679Y012247D01*
X035679Y012129D02*
X036932Y012129D01*
X036813Y012010D02*
X035679Y012010D01*
X035679Y011892D02*
X036695Y011892D01*
X036576Y011773D02*
X035679Y011773D01*
X035679Y011655D02*
X036458Y011655D01*
X036339Y011536D02*
X035647Y011536D01*
X035536Y011418D02*
X036221Y011418D01*
X036102Y011299D02*
X035417Y011299D01*
X035299Y011181D02*
X035984Y011181D01*
X035865Y011062D02*
X035180Y011062D01*
X035062Y010944D02*
X035747Y010944D01*
X035628Y010825D02*
X034943Y010825D01*
X034825Y010707D02*
X035510Y010707D01*
X035391Y010588D02*
X034706Y010588D01*
X034588Y010470D02*
X035273Y010470D01*
X035154Y010351D02*
X034469Y010351D01*
X034351Y010233D02*
X035036Y010233D01*
X034917Y010114D02*
X034232Y010114D01*
X034114Y009996D02*
X034799Y009996D01*
X034680Y009877D02*
X033995Y009877D01*
X033877Y009759D02*
X034562Y009759D01*
X034443Y009640D02*
X033758Y009640D01*
X033640Y009522D02*
X034325Y009522D01*
X034206Y009403D02*
X033521Y009403D01*
X033403Y009285D02*
X034088Y009285D01*
X033969Y009166D02*
X033284Y009166D01*
X033166Y009048D02*
X033851Y009048D01*
X033732Y008929D02*
X033058Y008929D01*
X032994Y009215D02*
X032837Y009215D01*
X032994Y009215D02*
X035439Y011660D01*
X035439Y013810D01*
X035428Y013821D01*
X034488Y013314D02*
X034368Y013314D01*
X034368Y013195D02*
X034488Y013195D01*
X034488Y013077D02*
X034368Y013077D01*
X034368Y012958D02*
X034488Y012958D01*
X035022Y012721D02*
X035199Y012721D01*
X035199Y012603D02*
X034991Y012603D01*
X034928Y012484D02*
X035199Y012484D01*
X035199Y012366D02*
X034824Y012366D01*
X034611Y012247D02*
X035199Y012247D01*
X035199Y012129D02*
X033037Y012129D01*
X033016Y012010D02*
X035199Y012010D01*
X035199Y011892D02*
X029688Y011892D01*
X029688Y011773D02*
X035199Y011773D01*
X035094Y011655D02*
X029688Y011655D01*
X029688Y011536D02*
X034976Y011536D01*
X034857Y011418D02*
X029688Y011418D01*
X029688Y011299D02*
X034739Y011299D01*
X034620Y011181D02*
X029688Y011181D01*
X029688Y011062D02*
X034502Y011062D01*
X034383Y010944D02*
X029688Y010944D01*
X029688Y010825D02*
X034265Y010825D01*
X034146Y010707D02*
X029688Y010707D01*
X029688Y010588D02*
X034028Y010588D01*
X033909Y010470D02*
X029688Y010470D01*
X029688Y010351D02*
X033791Y010351D01*
X033672Y010233D02*
X029688Y010233D01*
X029688Y010114D02*
X033554Y010114D01*
X033435Y009996D02*
X029688Y009996D01*
X029688Y009877D02*
X033317Y009877D01*
X033198Y009759D02*
X029688Y009759D01*
X029688Y009640D02*
X033080Y009640D01*
X032641Y009522D02*
X029688Y009522D01*
X029688Y009403D02*
X032527Y009403D01*
X032479Y009285D02*
X029688Y009285D01*
X029688Y009166D02*
X032479Y009166D01*
X032519Y009048D02*
X029688Y009048D01*
X029688Y008929D02*
X032617Y008929D01*
X029709Y007840D02*
X029669Y007800D01*
X029839Y007300D02*
X029849Y007290D01*
X025385Y007300D02*
X025381Y007296D01*
X025331Y007247D01*
X022954Y005296D02*
X022381Y005296D01*
X022954Y005296D02*
X024450Y003800D01*
X026400Y003800D01*
X026590Y003990D01*
X031763Y003990D01*
X034412Y001341D01*
X033412Y001341D02*
X031263Y003620D01*
X027080Y003620D01*
X026380Y002790D01*
X024220Y002790D01*
X022714Y004296D01*
X022381Y004296D01*
X022381Y003296D02*
X023008Y003296D01*
X024963Y001341D01*
X029294Y001341D01*
X030081Y002129D01*
X031625Y002129D01*
X032412Y001341D01*
X030412Y001341D02*
X030081Y001341D01*
X029688Y000947D01*
X024176Y000947D01*
X023388Y001735D01*
X010396Y000947D02*
X005627Y000947D01*
X004063Y002512D01*
X025381Y012296D02*
X025449Y012365D01*
X027719Y012365D01*
X031262Y015908D01*
X033625Y015908D01*
X034032Y016316D01*
X034032Y018415D01*
X033964Y015210D02*
X030903Y015210D01*
X030785Y015091D02*
X033888Y015091D01*
X033843Y014973D02*
X030666Y014973D01*
X030548Y014854D02*
X031096Y014854D01*
X031004Y014736D02*
X030429Y014736D01*
X030311Y014617D02*
X031004Y014617D01*
X031902Y014854D02*
X032198Y014854D01*
X032106Y014736D02*
X031994Y014736D01*
X031994Y014617D02*
X032106Y014617D01*
X032106Y014499D02*
X031994Y014499D01*
X033096Y014262D02*
X034200Y014262D01*
X033833Y012721D02*
X033015Y012721D01*
X033037Y012603D02*
X033865Y012603D01*
X032698Y012603D02*
X032582Y012603D01*
X032582Y012721D02*
X032698Y012721D01*
X032698Y012484D02*
X032582Y012484D01*
X032244Y012603D02*
X031875Y012603D01*
X031958Y012721D02*
X032266Y012721D01*
X035679Y012721D02*
X035833Y012721D01*
X035865Y012603D02*
X035679Y012603D01*
X035679Y012484D02*
X035928Y012484D01*
X036031Y012366D02*
X035679Y012366D01*
X025751Y018345D02*
X025696Y018400D01*
D11*
X025641Y015296D02*
X025121Y015296D01*
X025121Y014296D02*
X025641Y014296D01*
X025641Y013296D02*
X025121Y013296D01*
X025121Y012296D02*
X025641Y012296D01*
X025641Y011296D02*
X025121Y011296D01*
X025121Y010296D02*
X025641Y010296D01*
X025641Y009296D02*
X025121Y009296D01*
X025121Y008296D02*
X025641Y008296D01*
X025641Y007296D02*
X025121Y007296D01*
X025121Y006296D02*
X025641Y006296D01*
X025641Y005296D02*
X025121Y005296D01*
X025121Y004296D02*
X025641Y004296D01*
X025641Y003296D02*
X025121Y003296D01*
X025121Y002296D02*
X025641Y002296D01*
X022641Y002296D02*
X022121Y002296D01*
X022121Y003296D02*
X022641Y003296D01*
X022641Y004296D02*
X022121Y004296D01*
X022121Y005296D02*
X022641Y005296D01*
X022641Y006296D02*
X022121Y006296D01*
X022121Y007296D02*
X022641Y007296D01*
X022641Y008296D02*
X022121Y008296D01*
X022121Y009296D02*
X022641Y009296D01*
X022641Y010296D02*
X022121Y010296D01*
X022121Y011296D02*
X022641Y011296D01*
X022641Y012296D02*
X022121Y012296D01*
X022121Y013296D02*
X022641Y013296D01*
X022641Y014296D02*
X022121Y014296D01*
X022121Y015296D02*
X022641Y015296D01*
D12*
X031459Y012365D03*
X032640Y012365D03*
X004086Y004937D03*
X002905Y004937D03*
D13*
X002960Y002512D03*
X004063Y002512D03*
X031499Y014333D03*
X032601Y014333D03*
D14*
X035428Y013821D03*
D15*
X036428Y012821D03*
X034428Y012821D03*
X034428Y014821D03*
X036428Y014821D03*
D16*
X034032Y018415D03*
X033032Y018415D03*
X032032Y018415D03*
X031032Y018415D03*
X030032Y018415D03*
X029032Y018415D03*
X025696Y018400D03*
X024696Y018400D03*
X023696Y018400D03*
X022696Y018400D03*
X001565Y012340D03*
X001565Y011340D03*
X001565Y010340D03*
X001565Y009340D03*
X001565Y008340D03*
X001565Y007340D03*
X030412Y001341D03*
X031412Y001341D03*
X032412Y001341D03*
X033412Y001341D03*
X034412Y001341D03*
D17*
X009097Y001710D02*
X009097Y002310D01*
X007097Y002310D02*
X007097Y001710D01*
D18*
X001439Y001420D03*
X019845Y002522D03*
X027913Y002522D03*
X036297Y001430D03*
X027913Y014527D03*
X019845Y014527D03*
X036297Y018186D03*
X001433Y018190D03*
D19*
X007365Y016302D03*
X010278Y016302D03*
D20*
X002916Y011971D02*
X002285Y011340D01*
X001565Y011340D01*
X004491Y008428D02*
X002916Y006853D01*
X002916Y004948D01*
X025385Y007300D02*
X029839Y007300D01*
X029849Y007290D02*
X032769Y007290D01*
X034119Y008640D01*
D21*
X004491Y008428D03*
D22*
X012838Y005288D03*
X014503Y005278D03*
X010396Y000947D03*
X023388Y001735D03*
X029709Y007840D03*
X032837Y009215D03*
X034119Y008640D03*
X026932Y010396D03*
X015908Y013940D03*
X013940Y014727D03*
X014333Y015908D03*
D23*
X015514Y014333D02*
X015514Y013152D01*
X020239Y013152D01*
X021420Y014333D01*
X021420Y013914D01*
X020525Y013018D01*
X004951Y013018D01*
X004855Y012979D01*
X002522Y010646D01*
X002522Y014333D01*
X015514Y014333D01*
X015514Y014267D02*
X002522Y014267D01*
X002522Y014108D02*
X015514Y014108D01*
X015514Y013950D02*
X002522Y013950D01*
X002522Y013791D02*
X015514Y013791D01*
X015514Y013633D02*
X002522Y013633D01*
X002522Y013474D02*
X015514Y013474D01*
X015514Y013316D02*
X002522Y013316D01*
X002522Y013157D02*
X015514Y013157D01*
X015908Y013940D02*
X016695Y013940D01*
X019451Y016695D01*
X024963Y016695D01*
X025751Y017483D01*
X025751Y018345D01*
X021420Y014267D02*
X021353Y014267D01*
X021420Y014108D02*
X021195Y014108D01*
X021036Y013950D02*
X021420Y013950D01*
X021297Y013791D02*
X020878Y013791D01*
X020719Y013633D02*
X021139Y013633D01*
X020980Y013474D02*
X020561Y013474D01*
X020402Y013316D02*
X020822Y013316D01*
X020663Y013157D02*
X020244Y013157D01*
X021420Y011997D02*
X021420Y011184D01*
X015514Y011184D01*
X015514Y002916D01*
X004884Y002916D01*
X004884Y007247D01*
X002522Y007247D01*
X002522Y008910D01*
X005323Y011711D01*
X020974Y011711D01*
X021078Y011711D01*
X021173Y011751D01*
X021420Y011997D01*
X021420Y011889D02*
X021312Y011889D01*
X021420Y011731D02*
X021125Y011731D01*
X021420Y011572D02*
X005184Y011572D01*
X005025Y011414D02*
X021420Y011414D01*
X021420Y011255D02*
X004867Y011255D01*
X004708Y011097D02*
X015514Y011097D01*
X015514Y010938D02*
X004550Y010938D01*
X004391Y010780D02*
X015514Y010780D01*
X015514Y010621D02*
X004233Y010621D01*
X004074Y010463D02*
X015514Y010463D01*
X015514Y010304D02*
X003916Y010304D01*
X003757Y010146D02*
X015514Y010146D01*
X015514Y009987D02*
X003599Y009987D01*
X003440Y009829D02*
X015514Y009829D01*
X015514Y009670D02*
X003282Y009670D01*
X003123Y009512D02*
X015514Y009512D01*
X015514Y009353D02*
X002965Y009353D01*
X002806Y009195D02*
X015514Y009195D01*
X015514Y009036D02*
X002648Y009036D01*
X002522Y008878D02*
X015514Y008878D01*
X015514Y008719D02*
X002522Y008719D01*
X002522Y008561D02*
X015514Y008561D01*
X015514Y008402D02*
X002522Y008402D01*
X002522Y008244D02*
X015514Y008244D01*
X015514Y008085D02*
X002522Y008085D01*
X002522Y007927D02*
X015514Y007927D01*
X015514Y007768D02*
X002522Y007768D01*
X002522Y007610D02*
X015514Y007610D01*
X015514Y007451D02*
X002522Y007451D01*
X002522Y007293D02*
X015514Y007293D01*
X015514Y007134D02*
X004884Y007134D01*
X004884Y006976D02*
X015514Y006976D01*
X015514Y006817D02*
X004884Y006817D01*
X004884Y006659D02*
X015514Y006659D01*
X015514Y006500D02*
X004884Y006500D01*
X004884Y006342D02*
X015514Y006342D01*
X015514Y006183D02*
X004884Y006183D01*
X004884Y006025D02*
X015514Y006025D01*
X015514Y005866D02*
X004884Y005866D01*
X004884Y005708D02*
X015514Y005708D01*
X015514Y005549D02*
X014767Y005549D01*
X014717Y005599D02*
X014578Y005656D01*
X014428Y005656D01*
X014289Y005599D01*
X014250Y005560D01*
X013095Y005567D01*
X013053Y005609D01*
X012914Y005666D01*
X012763Y005666D01*
X012624Y005609D01*
X012518Y005502D01*
X012460Y005363D01*
X012460Y005213D01*
X012518Y005074D01*
X012624Y004968D01*
X012763Y004910D01*
X012914Y004910D01*
X013053Y004968D01*
X013092Y005007D01*
X014247Y005000D01*
X014289Y004958D01*
X014428Y004900D01*
X014578Y004900D01*
X014717Y004958D01*
X014824Y005064D01*
X014881Y005203D01*
X014881Y005353D01*
X014824Y005492D01*
X014717Y005599D01*
X014866Y005391D02*
X015514Y005391D01*
X015514Y005232D02*
X014881Y005232D01*
X014828Y005074D02*
X015514Y005074D01*
X015514Y004915D02*
X014615Y004915D01*
X014392Y004915D02*
X012926Y004915D01*
X012751Y004915D02*
X004884Y004915D01*
X004884Y004757D02*
X015514Y004757D01*
X015514Y004598D02*
X004884Y004598D01*
X004884Y004440D02*
X015514Y004440D01*
X015514Y004281D02*
X004884Y004281D01*
X004884Y004123D02*
X015514Y004123D01*
X015514Y003964D02*
X004884Y003964D01*
X004884Y003806D02*
X015514Y003806D01*
X015514Y003647D02*
X004884Y003647D01*
X004884Y003489D02*
X015514Y003489D01*
X015514Y003330D02*
X004884Y003330D01*
X004884Y003172D02*
X015514Y003172D01*
X015514Y003013D02*
X004884Y003013D01*
X004884Y005074D02*
X012518Y005074D01*
X012460Y005232D02*
X004884Y005232D01*
X004884Y005391D02*
X012472Y005391D01*
X012565Y005549D02*
X004884Y005549D01*
X012838Y005288D02*
X014503Y005278D01*
X022520Y009296D02*
X024569Y007247D01*
X025331Y007247D01*
X004903Y012999D02*
X002522Y012999D01*
X002522Y012840D02*
X004716Y012840D01*
X004558Y012682D02*
X002522Y012682D01*
X002522Y012523D02*
X004399Y012523D01*
X004241Y012365D02*
X002522Y012365D01*
X002522Y012206D02*
X004082Y012206D01*
X003924Y012048D02*
X002522Y012048D01*
X002522Y011889D02*
X003765Y011889D01*
X003607Y011731D02*
X002522Y011731D01*
X002522Y011572D02*
X003448Y011572D01*
X003290Y011414D02*
X002522Y011414D01*
X002522Y011255D02*
X003131Y011255D01*
X002973Y011097D02*
X002522Y011097D01*
X002522Y010938D02*
X002814Y010938D01*
X002656Y010780D02*
X002522Y010780D01*
D24*
X022381Y012296D02*
X023457Y012296D01*
X023782Y011971D01*
X023782Y008617D01*
X024599Y007800D01*
X029669Y007800D01*
M02*
