G75*
%MOIN*%
%OFA0B0*%
%FSLAX24Y24*%
%IPPOS*%
%LPD*%
%AMOC8*
5,1,8,0,0,1.08239X$1,22.5*
%
%ADD10C,0.0120*%
%ADD11R,0.1181X0.0472*%
%ADD12R,0.0480X0.0880*%
%ADD13R,0.1417X0.0866*%
%ADD14R,0.0630X0.0709*%
%ADD15R,0.0760X0.2100*%
%ADD16R,0.0709X0.0630*%
%ADD17R,0.0256X0.1000*%
D10*
X000160Y000160D02*
X037562Y000160D01*
X037562Y019845D01*
X000160Y019845D01*
X000160Y000160D01*
D11*
X008714Y003106D03*
X008714Y003893D03*
X008714Y004681D03*
X008714Y005468D03*
X008714Y006256D03*
X008714Y007043D03*
X008714Y007830D03*
X008714Y008618D03*
X008713Y011114D03*
X008713Y011902D03*
X008713Y012689D03*
X008713Y013477D03*
X008713Y014264D03*
X008713Y015051D03*
X008713Y015839D03*
X008713Y016626D03*
X016075Y016626D03*
X016075Y015839D03*
X016075Y015051D03*
X016075Y014264D03*
X016075Y013477D03*
X016075Y012689D03*
X016075Y011902D03*
X016075Y011114D03*
X016076Y008618D03*
X016076Y007830D03*
X016076Y007043D03*
X016076Y006256D03*
X016076Y005468D03*
X016076Y004681D03*
X016076Y003893D03*
X016076Y003106D03*
D12*
X032793Y004916D03*
X033703Y004916D03*
X034613Y004916D03*
D13*
X033703Y002475D03*
D14*
X028837Y004994D03*
X027735Y004994D03*
X027781Y007243D03*
X028884Y007243D03*
X032088Y010361D03*
X033191Y010361D03*
X033188Y013640D03*
X032086Y013640D03*
X014766Y009914D03*
X013664Y009914D03*
X011361Y009891D03*
X010259Y009891D03*
D15*
X029844Y010082D03*
X029844Y013882D03*
D16*
X031812Y007979D03*
X031812Y006877D03*
X033830Y006866D03*
X033830Y007968D03*
X020239Y006223D03*
X020239Y005121D03*
X006066Y003073D03*
X006066Y001971D03*
D17*
X030916Y002955D03*
X030916Y004472D03*
M02*
